  0
SECTION
  2
HEADER
  9
$ACADVER
  1
AC1015
  9
$ACADMAINTVER
 70
     6
  9
$DWGCODEPAGE
  3
ANSI_1252
  9
$INSBASE
 10
0.0
 20
0.0
 30
0.0
  9
$EXTMIN
 10
-16.375
 20
0.0
 30
0.0
  9
$EXTMAX
 10
0.0
 20
13.875
 30
0.0
  9
$LIMMIN
 10
0.0
 20
0.0
  9
$LIMMAX
 10
12.0
 20
9.0
  9
$ORTHOMODE
 70
     0
  9
$REGENMODE
 70
     1
  9
$FILLMODE
 70
     1
  9
$QTEXTMODE
 70
     0
  9
$MIRRTEXT
 70
     1
  9
$LTSCALE
 40
1.0
  9
$ATTMODE
 70
     1
  9
$TEXTSIZE
 40
0.15
  9
$TRACEWID
 40
0.05
  9
$TEXTSTYLE
  7
Standard
  9
$CLAYER
  8
0
  9
$CELTYPE
  6
ByLayer
  9
$CECOLOR
 62
   256
  9
$CELTSCALE
 40
1.0
  9
$DISPSILH
 70
     0
  9
$DIMSCALE
 40
1.0
  9
$DIMASZ
 40
0.15
  9
$DIMEXO
 40
0.09
  9
$DIMDLI
 40
0.38
  9
$DIMRND
 40
0.0
  9
$DIMDLE
 40
0.0
  9
$DIMEXE
 40
0.125
  9
$DIMTP
 40
0.0
  9
$DIMTM
 40
0.0
  9
$DIMTXT
 40
0.15
  9
$DIMCEN
 40
0.09
  9
$DIMTSZ
 40
0.0
  9
$DIMTOL
 70
     0
  9
$DIMLIM
 70
     0
  9
$DIMTIH
 70
     1
  9
$DIMTOH
 70
     1
  9
$DIMSE1
 70
     0
  9
$DIMSE2
 70
     0
  9
$DIMTAD
 70
     0
  9
$DIMZIN
 70
     0
  9
$DIMBLK
  1

  9
$DIMASO
 70
     1
  9
$DIMSHO
 70
     1
  9
$DIMPOST
  1

  9
$DIMAPOST
  1

  9
$DIMALT
 70
     0
  9
$DIMALTD
 70
     2
  9
$DIMALTF
 40
25.4
  9
$DIMLFAC
 40
1.0
  9
$DIMTOFL
 70
     0
  9
$DIMTVP
 40
0.0
  9
$DIMTIX
 70
     0
  9
$DIMSOXD
 70
     0
  9
$DIMSAH
 70
     0
  9
$DIMBLK1
  1

  9
$DIMBLK2
  1

  9
$DIMSTYLE
  2
Standard
  9
$DIMCLRD
 70
     0
  9
$DIMCLRE
 70
     0
  9
$DIMCLRT
 70
     0
  9
$DIMTFAC
 40
1.0
  9
$DIMGAP
 40
0.09
  9
$DIMJUST
 70
     0
  9
$DIMSD1
 70
     0
  9
$DIMSD2
 70
     0
  9
$DIMTOLJ
 70
     1
  9
$DIMTZIN
 70
     0
  9
$DIMALTZ
 70
     0
  9
$DIMALTTZ
 70
     0
  9
$DIMUPT
 70
     0
  9
$DIMDEC
 70
     4
  9
$DIMTDEC
 70
     4
  9
$DIMALTU
 70
     2
  9
$DIMALTTD
 70
     2
  9
$DIMTXSTY
  7
Standard
  9
$DIMAUNIT
 70
     0
  9
$DIMADEC
 70
     2
  9
$DIMALTRND
 40
0.0
  9
$DIMAZIN
 70
     0
  9
$DIMDSEP
 70
    46
  9
$DIMATFIT
 70
     3
  9
$DIMFRAC
 70
     0
  9
$DIMLDRBLK
  1

  9
$DIMLUNIT
 70
     2
  9
$DIMLWD
 70
    -2
  9
$DIMLWE
 70
    -2
  9
$DIMTMOVE
 70
     0
  9
$LUNITS
 70
     2
  9
$LUPREC
 70
     4
  9
$SKETCHINC
 40
0.1
  9
$FILLETRAD
 40
0.5
  9
$AUNITS
 70
     0
  9
$AUPREC
 70
     2
  9
$MENU
  1
.
  9
$ELEVATION
 40
0.0
  9
$PELEVATION
 40
0.0
  9
$THICKNESS
 40
0.0
  9
$LIMCHECK
 70
     0
  9
$CHAMFERA
 40
0.0
  9
$CHAMFERB
 40
0.0
  9
$CHAMFERC
 40
0.0
  9
$CHAMFERD
 40
0.0
  9
$SKPOLY
 70
     0
  9
$TDCREATE
 40
2458228.463960289
  9
$TDUCREATE
 40
2458228.755626956
  9
$TDUPDATE
 40
2458228.463992975
  9
$TDUUPDATE
 40
2458228.755659641
  9
$TDINDWG
 40
0.0000000116
  9
$TDUSRTIMER
 40
0.0000000116
  9
$USRTIMER
 70
     1
  9
$ANGBASE
 50
0.0
  9
$ANGDIR
 70
     0
  9
$PDMODE
 70
     0
  9
$PDSIZE
 40
-1.0
  9
$PLINEWID
 40
0.0
  9
$SPLFRAME
 70
     0
  9
$SPLINETYPE
 70
     6
  9
$SPLINESEGS
 70
     8
  9
$HANDSEED
  5
10C
  9
$SURFTAB1
 70
     6
  9
$SURFTAB2
 70
     6
  9
$SURFTYPE
 70
     6
  9
$SURFU
 70
     6
  9
$SURFV
 70
     6
  9
$UCSBASE
  2

  9
$UCSNAME
  2

  9
$UCSORG
 10
0.0
 20
0.0
 30
0.0
  9
$UCSXDIR
 10
1.0
 20
0.0
 30
0.0
  9
$UCSYDIR
 10
0.0
 20
1.0
 30
0.0
  9
$UCSORTHOREF
  2

  9
$UCSORTHOVIEW
 70
     0
  9
$UCSORGTOP
 10
0.0
 20
0.0
 30
0.0
  9
$UCSORGBOTTOM
 10
0.0
 20
0.0
 30
0.0
  9
$UCSORGLEFT
 10
0.0
 20
0.0
 30
0.0
  9
$UCSORGRIGHT
 10
0.0
 20
0.0
 30
0.0
  9
$UCSORGFRONT
 10
0.0
 20
0.0
 30
0.0
  9
$UCSORGBACK
 10
0.0
 20
0.0
 30
0.0
  9
$PUCSBASE
  2

  9
$PUCSNAME
  2

  9
$PUCSORG
 10
0.0
 20
0.0
 30
0.0
  9
$PUCSXDIR
 10
1.0
 20
0.0
 30
0.0
  9
$PUCSYDIR
 10
0.0
 20
1.0
 30
0.0
  9
$PUCSORTHOREF
  2

  9
$PUCSORTHOVIEW
 70
     0
  9
$PUCSORGTOP
 10
0.0
 20
0.0
 30
0.0
  9
$PUCSORGBOTTOM
 10
0.0
 20
0.0
 30
0.0
  9
$PUCSORGLEFT
 10
0.0
 20
0.0
 30
0.0
  9
$PUCSORGRIGHT
 10
0.0
 20
0.0
 30
0.0
  9
$PUCSORGFRONT
 10
0.0
 20
0.0
 30
0.0
  9
$PUCSORGBACK
 10
0.0
 20
0.0
 30
0.0
  9
$USERI1
 70
     0
  9
$USERI2
 70
     0
  9
$USERI3
 70
     0
  9
$USERI4
 70
     0
  9
$USERI5
 70
     0
  9
$USERR1
 40
0.0
  9
$USERR2
 40
0.0
  9
$USERR3
 40
0.0
  9
$USERR4
 40
0.0
  9
$USERR5
 40
0.0
  9
$WORLDVIEW
 70
     1
  9
$SHADEDGE
 70
     3
  9
$SHADEDIF
 70
    70
  9
$TILEMODE
 70
     1
  9
$MAXACTVP
 70
    64
  9
$PINSBASE
 10
0.0
 20
0.0
 30
0.0
  9
$PLIMCHECK
 70
     0
  9
$PEXTMIN
 10
1.0000000000E+20
 20
1.0000000000E+20
 30
1.0000000000E+20
  9
$PEXTMAX
 10
-1.0000000000E+20
 20
-1.0000000000E+20
 30
-1.0000000000E+20
  9
$PLIMMIN
 10
0.0
 20
0.0
  9
$PLIMMAX
 10
12.0
 20
9.0
  9
$UNITMODE
 70
     0
  9
$VISRETAIN
 70
     1
  9
$PLINEGEN
 70
     0
  9
$PSLTSCALE
 70
     1
  9
$TREEDEPTH
 70
  3020
  9
$CMLSTYLE
  2
Standard
  9
$CMLJUST
 70
     0
  9
$CMLSCALE
 40
1.0
  9
$PROXYGRAPHICS
 70
     1
  9
$MEASUREMENT
 70
     0
  9
$CELWEIGHT
370
    -1
  9
$ENDCAPS
280
     0
  9
$JOINSTYLE
280
     0
  9
$LWDISPLAY
290
     1
  9
$INSUNITS
 70
     1
  9
$HYPERLINKBASE
  1

  9
$STYLESHEET
  1

  9
$XEDIT
290
     1
  9
$CEPSNTYPE
380
     0
  9
$PSTYLEMODE
290
     1
  9
$FINGERPRINTGUID
  2
{3AF78A0D-DE7C-4358-A43A-7D23BC0A0B4F}
  9
$VERSIONGUID
  2
{FAEB1C32-E019-11D5-929B-00C0DF256EC4}
  9
$EXTNAMES
290
     1
  9
$PSVPSCALE
 40
0.0
  9
$OLESTARTUP
290
     0
  0
ENDSEC
  0
SECTION
  2
CLASSES
  0
CLASS
  1
ACDBDICTIONARYWDFLT
  2
AcDbDictionaryWithDefault
  3
ObjectDBX Classes
 90
        0
280
     0
281
     0
  0
CLASS
  1
VISUALSTYLE
  2
AcDbVisualStyle
  3
ObjectDBX Classes
 90
     4095
280
     0
281
     0
  0
CLASS
  1
MATERIAL
  2
AcDbMaterial
  3
ObjectDBX Classes
 90
     1153
280
     0
281
     0
  0
CLASS
  1
SCALE
  2
AcDbScale
  3
ObjectDBX Classes
 90
     1153
280
     0
281
     0
  0
CLASS
  1
TABLESTYLE
  2
AcDbTableStyle
  3
ObjectDBX Classes
 90
     4095
280
     0
281
     0
  0
CLASS
  1
MLEADERSTYLE
  2
AcDbMLeaderStyle
  3
ACDB_MLEADERSTYLE_CLASS
 90
     4095
280
     0
281
     0
  0
CLASS
  1
SUN
  2
AcDbSun
  3
SCENEOE
 90
     1153
280
     0
281
     0
  0
CLASS
  1
ACDBPLACEHOLDER
  2
AcDbPlaceHolder
  3
ObjectDBX Classes
 90
        0
280
     0
281
     0
  0
CLASS
  1
LAYOUT
  2
AcDbLayout
  3
ObjectDBX Classes
 90
        0
280
     0
281
     0
  0
ENDSEC
  0
SECTION
  2
TABLES
  0
TABLE
  2
VPORT
  5
8
330
0
100
AcDbSymbolTable
 70
     1
  0
VPORT
  5
29
330
8
100
AcDbSymbolTableRecord
100
AcDbViewportTableRecord
  2
*Active
 70
     0
 10
0.0
 20
0.0
 11
1.0
 21
1.0
 12
-8.1875
 22
6.9375
 13
0.0
 23
0.0
 14
0.5
 24
0.5
 15
0.5
 25
0.5
 16
0.0
 26
0.0
 36
1.0
 17
0.0
 27
0.0
 37
0.0
 40
14.1525
 41
1.1801801802
 42
50.0
 43
0.0
 44
0.0
 50
0.0
 51
0.0
 71
     0
 72
   100
 73
     1
 74
     3
 75
     0
 76
     0
 77
     0
 78
     0
281
     0
 65
     1
110
0.0
120
0.0
130
0.0
111
1.0
121
0.0
131
0.0
112
0.0
122
1.0
132
0.0
 79
     0
146
0.0
  0
ENDTAB
  0
TABLE
  2
LTYPE
  5
5
330
0
100
AcDbSymbolTable
 70
     6
  0
LTYPE
  5
14
330
5
100
AcDbSymbolTableRecord
100
AcDbLinetypeTableRecord
  2
ByBlock
 70
     0
  3

 72
    65
 73
     0
 40
0.0
  0
LTYPE
  5
15
330
5
100
AcDbSymbolTableRecord
100
AcDbLinetypeTableRecord
  2
ByLayer
 70
     0
  3

 72
    65
 73
     0
 40
0.0
  0
LTYPE
  5
16
330
5
100
AcDbSymbolTableRecord
100
AcDbLinetypeTableRecord
  2
Continuous
 70
     0
  3
Solid line
 72
    65
 73
     0
 40
0.0
  0
LTYPE
  5
6E
330
5
100
AcDbSymbolTableRecord
100
AcDbLinetypeTableRecord
  2
HIDDEN
 70
     0
  3
Hidden __ __ __ __ __ __ __ __ __ __ __ __ __ __
 72
    65
 73
     2
 40
0.075
 49
0.05
 74
     0
 49
-0.025
 74
     0
  0
LTYPE
  5
6F
330
5
100
AcDbSymbolTableRecord
100
AcDbLinetypeTableRecord
  2
PHANTOM
 70
     0
  3
Phantom ______  __  __  ______  __  __  ______
 72
    65
 73
     6
 40
0.5
 49
0.25
 74
     0
 49
-0.05
 74
     0
 49
0.05
 74
     0
 49
-0.05
 74
     0
 49
0.05
 74
     0
 49
-0.05
 74
     0
  0
LTYPE
  5
70
330
5
100
AcDbSymbolTableRecord
100
AcDbLinetypeTableRecord
  2
CENTER
 70
     0
  3
Center ____ _ ____ _ ____ _ ____ _ ____ _ ____
 72
    65
 73
     4
 40
0.4
 49
0.25
 74
     0
 49
-0.05
 74
     0
 49
0.05
 74
     0
 49
-0.05
 74
     0
  0
LTYPE
  5
71
330
5
100
AcDbSymbolTableRecord
100
AcDbLinetypeTableRecord
  2
CENTERX2
 70
     0
  3
Center (2x) ________  __  ________  __  _____
 72
    65
 73
     4
 40
0.8
 49
0.5
 74
     0
 49
-0.1
 74
     0
 49
0.1
 74
     0
 49
-0.1
 74
     0
  0
LTYPE
  5
72
330
5
100
AcDbSymbolTableRecord
100
AcDbLinetypeTableRecord
  2
DOT2
 70
     0
  3
Dot (.5x) ........................................
 72
    65
 73
     2
 40
0.025
 49
0.0
 74
     0
 49
-0.025
 74
     0
  0
ENDTAB
  0
TABLE
  2
LAYER
  5
2
330
0
100
AcDbSymbolTable
 70
     1
  0
LAYER
  5
10
330
2
100
AcDbSymbolTableRecord
100
AcDbLayerTableRecord
  2
0
 70
     0
 62
     7
  6
Continuous
370
    -3
390
F
  0
ENDTAB
  0
TABLE
  2
STYLE
  5
3
330
0
100
AcDbSymbolTable
 70
     2
  0
STYLE
  5
11
330
3
100
AcDbSymbolTableRecord
100
AcDbTextStyleTableRecord
  2
Standard
 70
     0
 40
0.0
 41
1.0
 50
0.0
 71
     0
 42
0.15
  3
txt
  4

  0
STYLE
  5
109
330
3
100
AcDbSymbolTableRecord
100
AcDbTextStyleTableRecord
  2
SLDTEXTSTYLE0
 70
     0
 40
0.0
 41
0.7
 50
0.0
 71
     0
 42
0.15
  3
TXT
  4

  0
ENDTAB
  0
TABLE
  2
VIEW
  5
6
330
0
100
AcDbSymbolTable
 70
     0
  0
ENDTAB
  0
TABLE
  2
UCS
  5
7
330
0
100
AcDbSymbolTable
 70
     0
  0
ENDTAB
  0
TABLE
  2
APPID
  5
9
330
0
100
AcDbSymbolTable
 70
     1
  0
APPID
  5
12
330
9
100
AcDbSymbolTableRecord
100
AcDbRegAppTableRecord
  2
ACAD
 70
     0
  0
ENDTAB
  0
TABLE
  2
DIMSTYLE
  5
A
330
0
100
AcDbSymbolTable
 70
     1
100
AcDbDimStyleTable
  0
DIMSTYLE
105
27
330
A
100
AcDbSymbolTableRecord
100
AcDbDimStyleTableRecord
  2
Standard
 70
     0
178
     0
340
11
  0
ENDTAB
  0
TABLE
  2
BLOCK_RECORD
  5
1
330
0
100
AcDbSymbolTable
 70
     1
  0
BLOCK_RECORD
  5
1F
330
1
100
AcDbSymbolTableRecord
100
AcDbBlockTableRecord
  2
*Model_Space
340
22
  0
BLOCK_RECORD
  5
1B
330
1
100
AcDbSymbolTableRecord
100
AcDbBlockTableRecord
  2
*Paper_Space
340
1E
  0
BLOCK_RECORD
  5
23
330
1
100
AcDbSymbolTableRecord
100
AcDbBlockTableRecord
  2
*Paper_Space0
340
26
  0
ENDTAB
  0
ENDSEC
  0
SECTION
  2
BLOCKS
  0
BLOCK
  5
20
330
1F
100
AcDbEntity
  8
0
100
AcDbBlockBegin
  2
*Model_Space
 70
     0
 10
0.0
 20
0.0
 30
0.0
  3
*Model_Space
  1

  0
ENDBLK
  5
21
330
1F
100
AcDbEntity
  8
0
100
AcDbBlockEnd
  0
BLOCK
  5
1C
330
1B
100
AcDbEntity
 67
     1
  8
0
100
AcDbBlockBegin
  2
*Paper_Space
 70
     0
 10
0.0
 20
0.0
 30
0.0
  3
*Paper_Space
  1

  0
ENDBLK
  5
1D
330
1B
100
AcDbEntity
 67
     1
  8
0
100
AcDbBlockEnd
  0
BLOCK
  5
24
330
23
100
AcDbEntity
  8
0
100
AcDbBlockBegin
  2
*Paper_Space0
 70
     0
 10
0.0
 20
0.0
 30
0.0
  3
*Paper_Space0
  1

  0
ENDBLK
  5
25
330
23
100
AcDbEntity
  8
0
100
AcDbBlockEnd
  0
ENDSEC
  0
SECTION
  2
ENTITIES
  0
SPLINE
  5
79
330
1F
100
AcDbEntity
  8
0
  6
Continuous
 62
     7
370
    35
100
AcDbSpline
210
0.0
220
0.0
230
1.0
 70
     8
 71
     3
 72
    27
 73
    23
 74
     0
 42
0.000000001
 43
0.00000001
 40
0.0
 40
0.0
 40
0.0
 40
0.0
 40
0.0738659925806834
 40
0.1441382803951444
 40
0.21195358096789
 40
0.2795082249955687
 40
0.3135247131805083
 40
0.3485855601766277
 40
0.3841400182746066
 40
0.4206792872638777
 40
0.4587352847422461
 40
0.4980813676624921
 40
0.5393276313430342
 40
0.5819635732402377
 40
0.6266877137112383
 40
0.6733165194501798
 40
0.7219928460859133
 40
0.7727706060953854
 40
0.8257957163149668
 40
0.8812311386815257
 40
0.9395156140083731
 40
1.0
 40
1.0
 40
1.0
 40
1.0
 10
-14.83300527597402
 20
13.49058441558442
 30
0.0
 10
-14.83102078963063
 20
13.49065832144981
 30
0.0
 10
-14.82714836554195
 20
13.49080253753597
 30
0.0
 10
-14.82155473419643
 20
13.49198876819839
 30
0.0
 10
-14.8163584872251
 20
13.49391167106854
 30
0.0
 10
-14.81239993402141
 20
13.49619495496023
 30
0.0
 10
-14.80945714998318
 20
13.4983905421344
 30
0.0
 10
-14.80737383473403
 20
13.50027991842755
 30
0.0
 10
-14.80538182160231
 20
13.50235785402381
 30
0.0
 10
-14.80351025004143
 20
13.50465271355317
 30
0.0
 10
-14.8017996621284
 20
13.50719082287524
 30
0.0
 10
-14.80012883839934
 20
13.50990486737865
 30
0.0
 10
-14.79863202463953
 20
13.51285777642935
 30
0.0
 10
-14.7972091086766
 20
13.51600516255463
 30
0.0
 10
-14.79597445311247
 20
13.51938671984909
 30
0.0
 10
-14.79488062157053
 20
13.5229844790411
 30
0.0
 10
-14.79393373122859
 20
13.52679200092403
 30
0.0
 10
-14.79317584107697
 20
13.53081680501943
 30
0.0
 10
-14.79261123968561
 20
13.53505529585299
 30
0.0
 10
-14.79217625389878
 20
13.53951142807105
 30
0.0
 10
-14.79194261374618
 20
13.54418377099457
 30
0.0
 10
-14.79190319256533
 20
13.54737192978817
 30
0.0
 10
-14.79188311688311
 20
13.54899553571428
 30
0.0
  0
SPLINE
  5
7A
330
1F
100
AcDbEntity
  8
0
  6
Continuous
 62
     7
370
    35
100
AcDbSpline
210
0.0
220
0.0
230
1.0
 70
     8
 71
     3
 72
    23
 73
    19
 74
     0
 42
0.000000001
 43
0.00000001
 40
0.0
 40
0.0
 40
0.0
 40
0.0
 40
0.0796767186657771
 40
0.1553935432869706
 40
0.2273561760297269
 40
0.2958041740940844
 40
0.3613216779427321
 40
0.4239630969883383
 40
0.484098580662538
 40
0.5425743248742929
 40
0.5989986925860518
 40
0.6548089777059021
 40
0.7106090277274206
 40
0.765870795505583
 40
0.8222681626809469
 40
0.8791596191532985
 40
0.9388597817217657
 40
1.0
 40
1.0
 40
1.0
 40
1.0
 10
-14.86590909090908
 20
13.52175324675325
 30
0.0
 10
-14.86555685137664
 20
13.52049117956627
 30
0.0
 10
-14.86486987844467
 20
13.51802976931577
 30
0.0
 10
-14.86364739065184
 20
13.51449443393007
 30
0.0
 10
-14.86231032535136
 20
13.51120048140367
 30
0.0
 10
-14.86085719272904
 20
13.5081390186126
 30
0.0
 10
-14.85923901172654
 20
13.50533661134651
 30
0.0
 10
-14.85750307746586
 20
13.5027704224452
 30
0.0
 10
-14.8556464187194
 20
13.50043330795634
 30
0.0
 10
-14.8536300376686
 20
13.49837454798518
 30
0.0
 10
-14.85152104235926
 20
13.49651697135913
 30
0.0
 10
-14.84925480648214
 20
13.49492566773547
 30
0.0
 10
-14.84685014639332
 20
13.4935962807739
 30
0.0
 10
-14.84432879162086
 20
13.49247876920731
 30
0.0
 10
-14.84168277441072
 20
13.49163820117791
 30
0.0
 10
-14.83890339403745
 20
13.49101906104143
 30
0.0
 10
-14.83599803804062
 20
13.49065386053129
 30
0.0
 10
-14.83401075747527
 20
13.49060774707816
 30
0.0
 10
-14.83300527597402
 20
13.49058441558442
 30
0.0
  0
SPLINE
  5
7C
330
1F
100
AcDbEntity
  8
0
  6
Continuous
 62
     7
370
    35
100
AcDbSpline
210
0.0
220
0.0
230
1.0
 70
     8
 71
     3
 72
    23
 73
    19
 74
     0
 42
0.000000001
 43
0.00000001
 40
0.0
 40
0.0
 40
0.0
 40
0.0
 40
0.0605717865422384
 40
0.1189835473564241
 40
0.1766741186975908
 40
0.233144387244653
 40
0.2896644879460886
 40
0.3461267149300251
 40
0.4038109892050489
 40
0.4625251425188167
 40
0.5224957240751846
 40
0.5833382790201792
 40
0.6463584199978074
 40
0.7112724677909649
 40
0.7785565421294184
 40
0.8489939313735857
 40
0.9225790941249609
 40
0.9999999999999999
 40
0.9999999999999999
 40
0.9999999999999999
 40
0.9999999999999999
 10
-14.83364448051947
 20
13.47305194805195
 30
0.0
 10
-14.83508662283503
 20
13.47308897126239
 30
0.0
 10
-14.83791947981834
 20
13.47316169741369
 30
0.0
 10
-14.84210189305147
 20
13.47367969230685
 30
0.0
 10
-14.84611301588358
 20
13.47459803286872
 30
0.0
 10
-14.84997952418207
 20
13.47586139572245
 30
0.0
 10
-14.85370424954933
 20
13.47742861654763
 30
0.0
 10
-14.85725869099093
 20
13.47941021201657
 30
0.0
 10
-14.86067620633883
 20
13.48171418757217
 30
0.0
 10
-14.86389766472733
 20
13.48441562935368
 30
0.0
 10
-14.86695782855534
 20
13.48740953562637
 30
0.0
 10
-14.86972180650371
 20
13.49081042098602
 30
0.0
 10
-14.87233232172263
 20
13.49447550086158
 30
0.0
 10
-14.87461767719931
 20
13.49852843058755
 30
0.0
 10
-14.87675871326562
 20
13.50285709089339
 30
0.0
 10
-14.87853123278765
 20
13.50756952675719
 30
0.0
 10
-14.88022991541447
 20
13.51256453127276
 30
0.0
 10
-14.88106523673154
 20
13.51606331450477
 30
0.0
 10
-14.8814935064935
 20
13.51785714285714
 30
0.0
  0
SPLINE
  5
7D
330
1F
100
AcDbEntity
  8
0
  6
Continuous
 62
     7
370
    35
100
AcDbSpline
210
0.0
220
0.0
230
1.0
 70
     8
 71
     3
 72
    31
 73
    27
 74
     0
 42
0.000000001
 43
0.00000001
 40
0.0
 40
0.0
 40
0.0
 40
0.0
 40
0.056462296496593
 40
0.1107401674911673
 40
0.1629112556651405
 40
0.2134392196042703
 40
0.2620861769730938
 40
0.3090463448170379
 40
0.3544863842360739
 40
0.3988538797940152
 40
0.4415720769972333
 40
0.4830546009486683
 40
0.5234651463536338
 40
0.5621827752141177
 40
0.6005905484554938
 40
0.6378870261595991
 40
0.6749034864624249
 40
0.7116278360703393
 40
0.7481056734852296
 40
0.7838121507097724
 40
0.8194514087123826
 40
0.8549741571786016
 40
0.8905860354655293
 40
0.926491151543313
 40
0.96291881692611
 40
1.0
 40
1.0
 40
1.0
 40
1.0
 10
-14.7762987012987
 20
13.54899553571428
 30
0.0
 10
-14.77632007043602
 20
13.54698591495834
 30
0.0
 10
-14.77636198197686
 20
13.54304442208758
 30
0.0
 10
-14.77674985597368
 20
13.53725779346766
 30
0.0
 10
-14.77729853659179
 20
13.53169619254101
 30
0.0
 10
-14.77816881150051
 20
13.52637817955958
 30
0.0
 10
-14.77921738315153
 20
13.52128248831891
 30
0.0
 10
-14.7805267224524
 20
13.51643330338331
 30
0.0
 10
-14.78208096946883
 20
13.51181756156842
 30
0.0
 10
-14.78387348364001
 20
13.50745193088964
 30
0.0
 10
-14.78585662645907
 20
13.5033258855743
 30
0.0
 10
-14.78801747007937
 20
13.49944987106419
 30
0.0
 10
-14.7903515600846
 20
13.49584429861275
 30
0.0
 10
-14.79284117678719
 20
13.49247937579915
 30
0.0
 10
-14.79549937392973
 20
13.4893891863287
 30
0.0
 10
-14.79835500326833
 20
13.48656561655915
 30
0.0
 10
-14.80137452667211
 20
13.48401196916557
 30
0.0
 10
-14.80453691359055
 20
13.48168432495128
 30
0.0
 10
-14.80785032052023
 20
13.47966659448559
 30
0.0
 10
-14.81124700141129
 20
13.47787483876973
 30
0.0
 10
-14.81475235279839
 20
13.47638813905862
 30
0.0
 10
-14.81835362284292
 20
13.47516646212343
 30
0.0
 10
-14.8220473197739
 20
13.47421681567546
 30
0.0
 10
-14.82583483818886
 20
13.47356388816817
 30
0.0
 10
-14.82970663918259
 20
13.47310336219525
 30
0.0
 10
-14.83232411001674
 20
13.47306918737482
 30
0.0
 10
-14.83364448051947
 20
13.47305194805195
 30
0.0
  0
SPLINE
  5
7E
330
1F
100
AcDbEntity
  8
0
  6
Continuous
 62
     7
370
    35
100
AcDbSpline
210
0.0
220
0.0
230
1.0
 70
     8
 71
     3
 72
    31
 73
    27
 74
     0
 42
0.000000001
 43
0.00000001
 40
0.0
 40
0.0
 40
0.0
 40
0.0
 40
0.0383800418671715
 40
0.0752338875115589
 40
0.1112667637573642
 40
0.1464323817145022
 40
0.1805971931150714
 40
0.2145997503644157
 40
0.2480359519929657
 40
0.2817647785352753
 40
0.315784882473966
 40
0.3507371534194665
 40
0.3868670643323743
 40
0.424225920249354
 40
0.4631903171508874
 40
0.503923901874665
 40
0.5466910680902328
 40
0.591514949925801
 40
0.6377715996457821
 40
0.6853268476242174
 40
0.7339714493411421
 40
0.783817413040901
 40
0.8354395937906283
 40
0.8884609206877158
 40
0.9432898481045786
 40
1.0
 40
1.0
 40
1.0
 40
1.0
 10
-14.83224431818181
 20
13.62694805194805
 30
0.0
 10
-14.83086330078721
 20
13.62692896019295
 30
0.0
 10
-14.82815618265335
 20
13.62689153587329
 30
0.0
 10
-14.82417206375763
 20
13.62646976708975
 30
0.0
 10
-14.82033238331712
 20
13.6258511204767
 30
0.0
 10
-14.81665143911837
 20
13.62493148366054
 30
0.0
 10
-14.81311667527894
 20
13.62377175651647
 30
0.0
 10
-14.80974748276197
 20
13.62234457540692
 30
0.0
 10
-14.80652082078666
 20
13.62065425560786
 30
0.0
 10
-14.8034408869226
 20
13.61870673736389
 30
0.0
 10
-14.80050049511934
 20
13.61646391224773
 30
0.0
 10
-14.79768460088987
 20
13.61393417892622
 30
0.0
 10
-14.79504147605987
 20
13.61105864283903
 30
0.0
 10
-14.7925420662212
 20
13.6078742732043
 30
0.0
 10
-14.79017004397152
 20
13.60439266541303
 30
0.0
 10
-14.78790413444015
 20
13.60061143604974
 30
0.0
 10
-14.7858220468739
 20
13.59648865301636
 30
0.0
 10
-14.78385130959671
 20
13.59209514903552
 30
0.0
 10
-14.78203552948716
 20
13.58744671521041
 30
0.0
 10
-14.78054371537467
 20
13.5825409134907
 30
0.0
 10
-14.77923411260923
 20
13.57745289546617
 30
0.0
 10
-14.77811778470747
 20
13.57216724881267
 30
0.0
 10
-14.77731517157085
 20
13.56666551189536
 30
0.0
 10
-14.77674718782111
 20
13.56095685192008
 30
0.0
 10
-14.77636366130514
 20
13.55504781174678
 30
0.0
 10
-14.77632059674396
 20
13.55103551824884
 30
0.0
 10
-14.7762987012987
 20
13.54899553571428
 30
0.0
  0
SPLINE
  5
7F
330
1F
100
AcDbEntity
  8
0
  6
Continuous
 62
     7
370
    35
100
AcDbSpline
210
0.0
220
0.0
230
1.0
 70
     8
 71
     3
 72
    23
 73
    19
 74
     0
 42
0.000000001
 43
0.00000001
 40
0.0
 40
0.0
 40
0.0
 40
0.0
 40
0.0805762775163482
 40
0.1570901264998343
 40
0.2295629509343714
 40
0.2985518815944205
 40
0.3642187956968403
 40
0.4270014155797628
 40
0.487749989217072
 40
0.5464906134203882
 40
0.6040159112801398
 40
0.6599659547693729
 40
0.7154957278855466
 40
0.7708357424881991
 40
0.8261703643784359
 40
0.8823970739006214
 40
0.9404683693243908
 40
1.0
 40
1.0
 40
1.0
 40
1.0
 10
-14.88344155844155
 20
13.5762987012987
 30
0.0
 10
-14.88297713797224
 20
13.578363962639
 30
0.0
 10
-14.88207171180311
 20
13.58239036067081
 30
0.0
 10
-14.88037210844461
 20
13.58818096813737
 30
0.0
 10
-14.87839097863512
 20
13.59355756750947
 30
0.0
 10
-14.87616350321011
 20
13.59852491367092
 30
0.0
 10
-14.87374814117122
 20
13.60312001643344
 30
0.0
 10
-14.87102536287535
 20
13.60728746600266
 30
0.0
 10
-14.86803279480524
 20
13.61103177148208
 30
0.0
 10
-14.86483211615971
 20
13.61441472130671
 30
0.0
 10
-14.86138333558022
 20
13.61735245957215
 30
0.0
 10
-14.85777350769268
 20
13.61994689854148
 30
0.0
 10
-14.8539528473469
 20
13.62210983853431
 30
0.0
 10
-14.84995442408332
 20
13.623877469867
 30
0.0
 10
-14.84578653305707
 20
13.62526274583378
 30
0.0
 10
-14.84143026358303
 20
13.6262212911404
 30
0.0
 10
-14.83690017981593
 20
13.62686285176015
 30
0.0
 10
-14.83380906670026
 20
13.62691941774922
 30
0.0
 10
-14.83224431818182
 20
13.62694805194805
 30
0.0
  0
SPLINE
  5
81
330
1F
100
AcDbEntity
  8
0
  6
Continuous
 62
     7
370
    35
100
AcDbSpline
210
0.0
220
0.0
230
1.0
 70
     8
 71
     3
 72
    23
 73
    19
 74
     0
 42
0.000000001
 43
0.00000001
 40
0.0
 40
0.0
 40
0.0
 40
0.0
 40
0.0580149113573628
 40
0.1143247204630392
 40
0.1699088507421827
 40
0.2248887877482101
 40
0.2798687247542248
 40
0.3351802230648065
 40
0.3913210332262478
 40
0.4495242408279109
 40
0.5087353604744644
 40
0.5699172139853497
 40
0.633625936869293
 40
0.6993830205542988
 40
0.7686460504725634
 40
0.8417833202836049
 40
0.9189680164689484
 40
1.0
 40
1.0
 40
1.0
 40
1.0
 10
-14.8317573051948
 20
13.60941558441558
 30
0.0
 10
-14.83285458137069
 20
13.60938542022213
 30
0.0
 10
-14.83501688394333
 20
13.60932597838374
 30
0.0
 10
-14.83820456932261
 20
13.60888155024483
 30
0.0
 10
-14.84128846015567
 20
13.60819540141184
 30
0.0
 10
-14.84425814734611
 20
13.60718449823703
 30
0.0
 10
-14.84709588274288
 20
13.60586391210083
 30
0.0
 10
-14.849817441635
 20
13.60427476592251
 30
0.0
 10
-14.85242424866731
 20
13.60239765217117
 30
0.0
 10
-14.85491141884923
 20
13.60024986038676
 30
0.0
 10
-14.8572418520409
 20
13.59779753105896
 30
0.0
 10
-14.85937328362397
 20
13.59503921868057
 30
0.0
 10
-14.86132573824355
 20
13.59200233325325
 30
0.0
 10
-14.86302669107874
 20
13.58864596761577
 30
0.0
 10
-14.86454764448544
 20
13.58501280488526
 30
0.0
 10
-14.86588586377656
 20
13.58107921928593
 30
0.0
 10
-14.86701349627482
 20
13.57684813524266
 30
0.0
 10
-14.86757140518556
 20
13.57390827247786
 30
0.0
 10
-14.86785714285714
 20
13.5724025974026
 30
0.0
  0
SPLINE
  5
82
330
1F
100
AcDbEntity
  8
0
  6
Continuous
 62
     7
370
    35
100
AcDbSpline
210
0.0
220
0.0
230
1.0
 70
     8
 71
     3
 72
    23
 73
    19
 74
     0
 42
0.000000001
 43
0.00000001
 40
0.0
 40
0.0
 40
0.0
 40
0.0
 40
0.0898165935749384
 40
0.1742059126331664
 40
0.2534661630814118
 40
0.3274972914703944
 40
0.3967699316789553
 40
0.4618816715037998
 40
0.5232850599638248
 40
0.581820025930285
 40
0.6374430918181713
 40
0.6908805798813253
 40
0.7422984575581739
 40
0.7926657576121858
 40
0.8429217793197089
 40
0.8936986888665748
 40
0.9456702562257249
 40
1.0
 40
1.0
 40
1.0
 40
1.0
 10
-14.79188311688311
 20
13.54899553571429
 30
0.0
 10
-14.79192202287932
 20
13.55143127383251
 30
0.0
 10
-14.79199748393064
 20
13.5561555676955
 30
0.0
 10
-14.79246805077466
 20
13.563018267861
 30
0.0
 10
-14.79331996437451
 20
13.56941102917358
 30
0.0
 10
-14.79447789429046
 20
13.57534138962603
 30
0.0
 10
-14.79604981287897
 20
13.58077620487478
 30
0.0
 10
-14.79787347670515
 20
13.58577064556127
 30
0.0
 10
-14.80011179157339
 20
13.59027387070289
 30
0.0
 10
-14.8026638343154
 20
13.59430409154465
 30
0.0
 10
-14.80551256090992
 20
13.59785686195164
 30
0.0
 10
-14.80858586189037
 20
13.60095234692851
 30
0.0
 10
-14.81190349042935
 20
13.60355882646129
 30
0.0
 10
-14.81542506232042
 20
13.60572604407495
 30
0.0
 10
-14.81920303542367
 20
13.60736529661028
 30
0.0
 10
-14.82318435768754
 20
13.60856438156877
 30
0.0
 10
-14.82739956768253
 20
13.60927569049184
 30
0.0
 10
-14.83028340114422
 20
13.6093682685274
 30
0.0
 10
-14.8317573051948
 20
13.60941558441558
 30
0.0
  0
SPLINE
  5
83
330
1F
100
AcDbEntity
  8
0
  6
Continuous
 62
     7
370
    35
100
AcDbSpline
210
0.0
220
0.0
230
1.0
 70
     8
 71
     3
 72
    15
 73
    11
 74
     0
 42
0.000000001
 43
0.00000001
 40
0.0
 40
0.0
 40
0.0
 40
0.0
 40
0.1332171986673544
 40
0.2597778039206093
 40
0.3802901932938956
 40
0.4994300599452486
 40
0.6182806484816139
 40
0.7398432624599696
 40
0.8662686913578437
 40
1.0
 40
1.0
 40
1.0
 40
1.0
 10
-14.97524350649351
 20
13.54744318181818
 30
0.0
 10
-14.9770575008286
 20
13.54832687611734
 30
0.0
 10
-14.98059484787846
 20
13.55005010830258
 30
0.0
 10
-14.98530091188843
 20
13.55340353945009
 30
0.0
 10
-14.9893378790887
 20
13.55722263054309
 30
0.0
 10
-14.99265166620171
 20
13.5615451379807
 30
0.0
 10
-14.99524045369124
 20
13.56635540848004
 30
0.0
 10
-14.99705978965066
 20
13.5716170695889
 30
0.0
 10
-14.99818366350573
 20
13.57730639224287
 30
0.0
 10
-14.99831111040587
 20
13.58124464836323
 30
0.0
 10
-14.99837662337662
 20
13.58326907467532
 30
0.0
  0
SPLINE
  5
84
330
1F
100
AcDbEntity
  8
0
  6
Continuous
 62
     7
370
    35
100
AcDbSpline
210
0.0
220
0.0
230
1.0
 70
     8
 71
     3
 72
    15
 73
    11
 74
     0
 42
0.000000001
 43
0.00000001
 40
0.0
 40
0.0
 40
0.0
 40
0.0
 40
0.1693284421868343
 40
0.3253643556297711
 40
0.4689283827933286
 40
0.5995636633178185
 40
0.7188386797002791
 40
0.8249803749148612
 40
0.9187555598151358
 40
1.0
 40
1.0
 40
1.0
 40
1.0
 10
-14.94918831168831
 20
13.53971185064935
 30
0.0
 10
-14.95068124445032
 20
13.54007140470653
 30
0.0
 10
-14.95354991258331
 20
13.54076228730496
 30
0.0
 10
-14.95766111889806
 20
13.54184910021928
 30
0.0
 10
-14.96144078395491
 20
13.54281957999743
 30
0.0
 10
-14.96485510864276
 20
13.54385733096128
 30
0.0
 10
-14.9679534195134
 20
13.5447682634729
 30
0.0
 10
-14.97069234605523
 20
13.54570436592505
 30
0.0
 10
-14.97311018891511
 20
13.54651897087571
 30
0.0
 10
-14.97456717213421
 20
13.54715017545947
 30
0.0
 10
-14.97524350649351
 20
13.54744318181818
 30
0.0
  0
SPLINE
  5
85
330
1F
100
AcDbEntity
  8
0
  6
Continuous
 62
     7
370
    35
100
AcDbSpline
210
0.0
220
0.0
230
1.0
 70
     8
 71
     3
 72
    15
 73
    11
 74
     0
 42
0.000000001
 43
0.00000001
 40
0.0
 40
0.0
 40
0.0
 40
0.0
 40
0.0750156946075899
 40
0.1629301842777429
 40
0.2646744147797548
 40
0.3809699752964567
 40
0.5123091530376979
 40
0.6582210125869786
 40
0.8208323791788081
 40
1.0
 40
1.0
 40
1.0
 40
1.0
 10
-14.92535511363636
 20
13.52972808441558
 30
0.0
 10
-14.92581877344776
 20
13.53019043781326
 30
0.0
 10
-14.9268258184256
 20
13.53119464532847
 30
0.0
 10
-14.92876535260206
 20
13.53245984088307
 30
0.0
 10
-14.93107406440989
 20
13.53379086836148
 30
0.0
 10
-14.9338719127648
 20
13.53499806428779
 30
0.0
 10
-14.93705692991927
 20
13.53626384311603
 30
0.0
 10
-14.94070953244713
 20
13.53742432045546
 30
0.0
 10
-14.94478339428824
 20
13.53862503068557
 30
0.0
 10
-14.94767334152053
 20
13.53933806388485
 30
0.0
 10
-14.94918831168831
 20
13.53971185064935
 30
0.0
  0
SPLINE
  5
86
330
1F
100
AcDbEntity
  8
0
  6
Continuous
 62
     7
370
    35
100
AcDbSpline
210
0.0
220
0.0
230
1.0
 70
     8
 71
     3
 72
    11
 73
     7
 74
     0
 42
0.000000001
 43
0.00000001
 40
0.0
 40
0.0
 40
0.0
 40
0.0
 40
0.2837421299910184
 40
0.5413405044165412
 40
0.7756705499228224
 40
1.0
 40
1.0
 40
1.0
 40
1.0
 10
-14.92045454545454
 20
13.51450892857143
 30
0.0
 10
-14.92050773851204
 20
13.51605612884871
 30
0.0
 10
-14.92060922346451
 20
13.5190079717018
 30
0.0
 10
-14.92150987052786
 20
13.52315946299107
 30
0.0
 10
-14.92305937591324
 20
13.52678442863301
 30
0.0
 10
-14.92460107276319
 20
13.52876123321379
 30
0.0
 10
-14.92535511363636
 20
13.52972808441558
 30
0.0
  0
SPLINE
  5
87
330
1F
100
AcDbEntity
  8
0
  6
Continuous
 62
     7
370
    35
100
AcDbSpline
210
0.0
220
0.0
230
1.0
 70
     8
 71
     3
 72
    23
 73
    19
 74
     0
 42
0.000000001
 43
0.00000001
 40
0.0
 40
0.0
 40
0.0
 40
0.0
 40
0.0804505110429155
 40
0.1554998946880315
 40
0.2268489716071795
 40
0.2950342457958598
 40
0.3592264217266181
 40
0.4211205140528856
 40
0.4814121624444361
 40
0.5401380992823177
 40
0.5980313211696222
 40
0.654719686200302
 40
0.7097875782854527
 40
0.7655187345501029
 40
0.8216627893500302
 40
0.8791237115294699
 40
0.9383480890221243
 40
1.0
 40
1.0
 40
1.0
 40
1.0
 10
-14.94891436688311
 20
13.49058441558442
 30
0.0
 10
-14.94778703186506
 20
13.4905944106157
 30
0.0
 10
-14.94560804661917
 20
13.4906137296516
 30
0.0
 10
-14.94244753414384
 20
13.49097617045656
 30
0.0
 10
-14.93948349092928
 20
13.49147780298961
 30
0.0
 10
-14.93671555727376
 20
13.49219307708892
 30
0.0
 10
-14.93416934814583
 20
13.49315961785769
 30
0.0
 10
-14.93179820963386
 20
13.49426401406528
 30
0.0
 10
-14.92967094623934
 20
13.49565233156568
 30
0.0
 10
-14.92773448183734
 20
13.49720517647407
 30
0.0
 10
-14.9260389003905
 20
13.49894862077345
 30
0.0
 10
-14.92454197943821
 20
13.50079821992463
 30
0.0
 10
-14.92327403403238
 20
13.50277708201602
 30
0.0
 10
-14.92223401627374
 20
13.5048771979435
 30
0.0
 10
-14.92144902336973
 20
13.50711975860684
 30
0.0
 10
-14.92086161120113
 20
13.5094714911011
 30
0.0
 10
-14.92052973416157
 20
13.51195283518648
 30
0.0
 10
-14.92047994168091
 20
13.51364556585653
 30
0.0
 10
-14.92045454545454
 20
13.51450892857143
 30
0.0
  0
SPLINE
  5
88
330
1F
100
AcDbEntity
  8
0
  6
Continuous
 62
     7
370
    35
100
AcDbSpline
210
0.0
220
0.0
230
1.0
 70
     8
 71
     3
 72
    23
 73
    19
 74
     0
 42
0.000000001
 43
0.00000001
 40
0.0
 40
0.0
 40
0.0
 40
0.0
 40
0.0765354510821217
 40
0.1492500388750591
 40
0.2171126866560666
 40
0.2819496094670799
 40
0.3428290010503668
 40
0.4017657426085698
 40
0.4585034301475757
 40
0.5141500842750646
 40
0.5690447220224859
 40
0.6248331132826613
 40
0.6813469247300823
 40
0.7395313119108434
 40
0.7999274580770386
 40
0.8628976631361682
 40
0.9296798722570726
 40
1.0
 40
1.0
 40
1.0
 40
1.0
 10
-14.9788961038961
 20
13.51980519480519
 30
0.0
 10
-14.97878185986093
 20
13.51860564184666
 30
0.0
 10
-14.97855907517162
 20
13.51626642096062
 30
0.0
 10
-14.97794198994465
 20
13.51290195827549
 30
0.0
 10
-14.97715848678189
 20
13.50976274847769
 30
0.0
 10
-14.97615962777546
 20
13.5068802965644
 30
0.0
 10
-14.97496701354313
 20
13.50422521700234
 30
0.0
 10
-14.97356540801026
 20
13.50182069434895
 30
0.0
 10
-14.97198039811427
 20
13.49963239463677
 30
0.0
 10
-14.97017247952454
 20
13.49770931109319
 30
0.0
 10
-14.96817007944224
 20
13.49601536886019
 30
0.0
 10
-14.96597632645446
 20
13.49455112113196
 30
0.0
 10
-14.96357932464889
 20
13.49333364802128
 30
0.0
 10
-14.96100951283488
 20
13.49232952716777
 30
0.0
 10
-14.95826126056373
 20
13.49153044090192
 30
0.0
 10
-14.9553130250516
 20
13.49099646716155
 30
0.0
 10
-14.95217922676857
 20
13.49065602819888
 30
0.0
 10
-14.95002121596353
 20
13.49060869361142
 30
0.0
 10
-14.94891436688311
 20
13.49058441558442
 30
0.0
  0
SPLINE
  5
8A
330
1F
100
AcDbEntity
  8
0
  6
Continuous
 62
     7
370
    35
100
AcDbSpline
210
0.0
220
0.0
230
1.0
 70
     8
 71
     3
 72
    19
 73
    15
 74
     0
 42
0.000000001
 43
0.00000001
 40
0.0
 40
0.0
 40
0.0
 40
0.0
 40
0.0919239201885414
 40
0.1794356400707702
 40
0.2627360323579311
 40
0.3438083481952957
 40
0.4230452774191578
 40
0.500152984227672
 40
0.5774089034162622
 40
0.6564856345293849
 40
0.7376727179345987
 40
0.8207802048009016
 40
0.9079141569544901
 40
1.0
 40
1.0
 40
1.0
 40
1.0
 10
-14.94839691558441
 20
13.47305194805195
 30
0.0
 10
-14.95061338998683
 20
13.47310921471416
 30
0.0
 10
-14.95493995158563
 20
13.47322099933092
 30
0.0
 10
-14.96119766621615
 20
13.47429420618357
 30
0.0
 10
-14.96705283001248
 20
13.47594255709743
 30
0.0
 10
-14.97243275053048
 20
13.47833681811858
 30
0.0
 10
-14.97732534618985
 20
13.48133677842672
 30
0.0
 10
-14.98163698838343
 20
13.48498468327589
 30
0.0
 10
-14.98540011199432
 20
13.4891919916703
 30
0.0
 10
-14.98852567716263
 20
13.49400757925555
 30
0.0
 10
-14.9910730025681
 20
13.49931076118186
 30
0.0
 10
-14.99286697475155
 20
13.505110991636
 30
0.0
 10
-14.9941392597616
 20
13.51132111887053
 30
0.0
 10
-14.99436469000821
 20
13.51563870286133
 30
0.0
 10
-14.99448051948052
 20
13.51785714285714
 30
0.0
  0
SPLINE
  5
8B
330
1F
100
AcDbEntity
  8
0
  6
Continuous
 62
     7
370
    35
100
AcDbSpline
210
0.0
220
0.0
230
1.0
 70
     8
 71
     3
 72
    23
 73
    19
 74
     0
 42
0.000000001
 43
0.00000001
 40
0.0
 40
0.0
 40
0.0
 40
0.0
 40
0.065524566811639
 40
0.1288080945620662
 40
0.1899268927604789
 40
0.2496112924553554
 40
0.3082029397081723
 40
0.3667423739870972
 40
0.425800134933484
 40
0.4861823633435289
 40
0.5466657910900482
 40
0.6069212813171063
 40
0.6677475274142933
 40
0.7294654380821649
 40
0.7931679656210603
 40
0.8590477994595346
 40
0.9277080739173397
 40
1.0
 40
1.0
 40
1.0
 40
1.0
 10
-14.90487012987013
 20
13.51414366883117
 30
0.0
 10
-14.90490372071771
 20
13.512670641306
 30
0.0
 10
-14.90496975355519
 20
13.50977496601983
 30
0.0
 10
-14.90553354046866
 20
13.50553680219024
 30
0.0
 10
-14.90642699697129
 20
13.5014900972262
 30
0.0
 10
-14.90776087145395
 20
13.49767860704591
 30
0.0
 10
-14.90939053194674
 20
13.49404609874632
 30
0.0
 10
-14.91146708951374
 20
13.49066569184738
 30
0.0
 10
-14.91383776788319
 20
13.48743740863441
 30
0.0
 10
-14.91660245090725
 20
13.48447401100161
 30
0.0
 10
-14.91967890603021
 20
13.48180018439435
 30
0.0
 10
-14.92301008282307
 20
13.47943021784569
 30
0.0
 10
-14.92662111305471
 20
13.47745381723337
 30
0.0
 10
-14.93048544536228
 20
13.47582830026874
 30
0.0
 10
-14.93460884279442
 20
13.47458402456897
 30
0.0
 10
-14.93898323066061
 20
13.47371867911574
 30
0.0
 10
-14.94360307702441
 20
13.47314700799975
 30
0.0
 10
-14.94677175559375
 20
13.47308417434033
 30
0.0
 10
-14.94839691558441
 20
13.47305194805195
 30
0.0
  0
SPLINE
  5
8C
330
1F
100
AcDbEntity
  8
0
  6
Continuous
 62
     7
370
    35
100
AcDbSpline
210
0.0
220
0.0
230
1.0
 70
     8
 71
     3
 72
    23
 73
    19
 74
     0
 42
0.000000001
 43
0.00000001
 40
0.0
 40
0.0
 40
0.0
 40
0.0
 40
0.0696312643733664
 40
0.1341901772269671
 40
0.1941713397153325
 40
0.2497838309809413
 40
0.3006697896524191
 40
0.3465350886682652
 40
0.388337249747552
 40
0.4262586141180572
 40
0.496479815975345
 40
0.5655832088180565
 40
0.6346194946841531
 40
0.7045496640752525
 40
0.7754752546675776
 40
0.8476864144986046
 40
0.9223977305791059
 40
1.0
 40
1.0
 40
1.0
 40
1.0
 10
-14.94532264610389
 20
13.55535714285714
 30
0.0
 10
-14.94391026211211
 20
13.55495833219405
 30
0.0
 10
-14.94118838049936
 20
13.55418976258611
 30
0.0
 10
-14.93728331725656
 20
13.55296425906718
 30
0.0
 10
-14.93368368762204
 20
13.55175569822866
 30
0.0
 10
-14.93039736848149
 20
13.55052201406899
 30
0.0
 10
-14.92745523856342
 20
13.54923336456723
 30
0.0
 10
-14.92480956354812
 20
13.54799558643777
 30
0.0
 10
-14.92248665445387
 20
13.54672135889315
 30
0.0
 10
-14.91983749489862
 20
13.54499342738615
 30
0.0
 10
-14.91691862307537
 20
13.5426482339021
 30
0.0
 10
-14.91380481676177
 20
13.53953581166326
 30
0.0
 10
-14.91115314694875
 20
13.53602767925741
 30
0.0
 10
-14.90888950808022
 20
13.53221725628081
 30
0.0
 10
-14.90707681673189
 20
13.5280930363111
 30
0.0
 10
-14.90581658627288
 20
13.52366858496841
 30
0.0
 10
-14.90498576424647
 20
13.51899425520853
 30
0.0
 10
-14.90490915932301
 20
13.51578086132071
 30
0.0
 10
-14.90487012987013
 20
13.51414366883117
 30
0.0
  0
SPLINE
  5
8D
330
1F
100
AcDbEntity
  8
0
  6
Continuous
 62
     7
370
    35
100
AcDbSpline
210
0.0
220
0.0
230
1.0
 70
     8
 71
     3
 72
    23
 73
    19
 74
     0
 42
0.000000001
 43
0.00000001
 40
0.0
 40
0.0
 40
0.0
 40
0.0
 40
0.0628089341429426
 40
0.1223365445859234
 40
0.1801461333773119
 40
0.2362349947481385
 40
0.2926969982405867
 40
0.3504490454514619
 40
0.4105966300475051
 40
0.4738082519953905
 40
0.5105868934159542
 40
0.5554113163238662
 40
0.6085886568549004
 40
0.6699545513665698
 40
0.7401147486839333
 40
0.8179712488671599
 40
0.9048403753299861
 40
1.0
 40
1.0
 40
1.0
 40
1.0
 10
-14.9827922077922
 20
13.58372564935065
 30
0.0
 10
-14.98275958894513
 20
13.58264759634655
 30
0.0
 10
-14.98269605535562
 20
13.58054781100229
 30
0.0
 10
-14.98212891468063
 20
13.57749878603397
 30
0.0
 10
-14.98122793250974
 20
13.57465588487922
 30
0.0
 10
-14.97993381139911
 20
13.57202206224299
 30
0.0
 10
-14.97823485768579
 20
13.56963250557888
 30
0.0
 10
-14.97617242582207
 20
13.56745449526514
 30
0.0
 10
-14.97374778785486
 20
13.56549978685576
 30
0.0
 10
-14.97140310447515
 20
13.56405297731182
 30
0.0
 10
-14.96915978597663
 20
13.56298273160412
 30
0.0
 10
-14.96701641064402
 20
13.56211545576287
 30
0.0
 10
-14.96446392561211
 20
13.56113754099239
 30
0.0
 10
-14.96146840539049
 20
13.56010524314811
 30
0.0
 10
-14.95804420153168
 20
13.55902278636758
 30
0.0
 10
-14.95418560566324
 20
13.55786528795114
 30
0.0
 10
-14.94990732925585
 20
13.55661467736177
 30
0.0
 10
-14.94689658197587
 20
13.55578885833267
 30
0.0
 10
-14.94532264610389
 20
13.55535714285714
 30
0.0
  0
SPLINE
  5
8E
330
1F
100
AcDbEntity
  8
0
  6
Continuous
 62
     7
370
    35
100
AcDbSpline
210
0.0
220
0.0
230
1.0
 70
     8
 71
     3
 72
    23
 73
    19
 74
     0
 42
0.000000001
 43
0.00000001
 40
0.0
 40
0.0
 40
0.0
 40
0.0
 40
0.0781320062235793
 40
0.1518431884317281
 40
0.2221711396212777
 40
0.2890481476931396
 40
0.3534993433770272
 40
0.4154483888407314
 40
0.4759097321748467
 40
0.5358233828430301
 40
0.5943985337375216
 40
0.6513453914741932
 40
0.7072793441795202
 40
0.7634559259109922
 40
0.8203663402465008
 40
0.8778410359464875
 40
0.937473155881944
 40
1.0
 40
1.0
 40
1.0
 40
1.0
 10
-14.95247564935065
 20
13.60941558441558
 30
0.0
 10
-14.95364338556135
 20
13.60939178127847
 30
0.0
 10
-14.95591278574767
 20
13.6093455218208
 30
0.0
 10
-14.95921779650065
 20
13.60899962767085
 30
0.0
 10
-14.96232891689182
 20
13.6084735952817
 30
0.0
 10
-14.9652378889585
 20
13.60766931592095
 30
0.0
 10
-14.96795140758775
 20
13.60667191655294
 30
0.0
 10
-14.97047371922488
 20
13.60545889385103
 30
0.0
 10
-14.9727654954958
 20
13.60397577178126
 30
0.0
 10
-14.97486863609154
 20
13.60231604169143
 30
0.0
 10
-14.97671876620673
 20
13.600451214833
 30
0.0
 10
-14.97834570189932
 20
13.59846669068976
 30
0.0
 10
-14.97972898669564
 20
13.59634743893833
 30
0.0
 10
-14.98087272510166
 20
13.5940870985565
 30
0.0
 10
-14.981696585608
 20
13.59167024175784
 30
0.0
 10
-14.9823658557189
 20
13.58915409261329
 30
0.0
 10
-14.98272326574207
 20
13.58648553739587
 30
0.0
 10
-14.98276886691472
 20
13.58466003132236
 30
0.0
 10
-14.9827922077922
 20
13.58372564935065
 30
0.0
  0
SPLINE
  5
8F
330
1F
100
AcDbEntity
  8
0
  6
Continuous
 62
     7
370
    35
100
AcDbSpline
210
0.0
220
0.0
230
1.0
 70
     8
 71
     3
 72
    19
 73
    15
 74
     0
 42
0.000000001
 43
0.00000001
 40
0.0
 40
0.0
 40
0.0
 40
0.0
 40
0.1067542446756716
 40
0.2024602438052895
 40
0.2880984046102426
 40
0.3650349869768855
 40
0.4382110044850777
 40
0.5119003190699981
 40
0.5875807962058086
 40
0.6662208942164713
 40
0.7471056663116812
 40
0.8288144931620789
 40
0.9124960947837629
 40
1.0
 40
1.0
 40
1.0
 40
1.0
 10
-14.91655844155844
 20
13.57435064935065
 30
0.0
 10
-14.91678472240613
 20
13.57633503120798
 30
0.0
 10
-14.91721386576929
 20
13.58009842662011
 30
0.0
 10
-14.91840059384768
 20
13.58536322972866
 30
0.0
 10
-14.91994959785739
 20
13.58995170372669
 30
0.0
 10
-14.92197983679484
 20
13.59388137519889
 30
0.0
 10
-14.92439523604656
 20
13.59731666317482
 30
0.0
 10
-14.92730190271783
 20
13.60031440972019
 30
0.0
 10
-14.93064187958012
 20
13.6029820038398
 30
0.0
 10
-14.93442220892964
 20
13.60525195426754
 30
0.0
 10
-14.93854584127512
 20
13.60710672189006
 30
0.0
 10
-14.94296121741365
 20
13.60845290199779
 30
0.0
 10
-14.94763691105195
 20
13.60925967923989
 30
0.0
 10
-14.95083890475375
 20
13.60936284815704
 30
0.0
 10
-14.95247564935065
 20
13.60941558441559
 30
0.0
  0
SPLINE
  5
91
330
1F
100
AcDbEntity
  8
0
  6
Continuous
 62
     7
370
    35
100
AcDbSpline
210
0.0
220
0.0
230
1.0
 70
     8
 71
     3
 72
    23
 73
    19
 74
     0
 42
0.000000001
 43
0.00000001
 40
0.0
 40
0.0
 40
0.0
 40
0.0
 40
0.0690703580066742
 40
0.1347817762661743
 40
0.1976340158603908
 40
0.2589199735786837
 40
0.3181789816213525
 40
0.3773055779926089
 40
0.4359400191524832
 40
0.4949948193070957
 40
0.5543593017874955
 40
0.6136086016046487
 40
0.6732064012482888
 40
0.7341594117216914
 40
0.7966444803938555
 40
0.8612245236607975
 40
0.9289619524063483
 40
1.0
 40
1.0
 40
1.0
 40
1.0
 10
-14.95113636363636
 20
13.62694805194805
 30
0.0
 10
-14.94928787572568
 20
13.62690918035868
 30
0.0
 10
-14.94568079316235
 20
13.62683332753249
 30
0.0
 10
-14.94042341034311
 20
13.62618355128835
 30
0.0
 10
-14.93545139160012
 20
13.62511636639316
 30
0.0
 10
-14.93076259840112
 20
13.62364097989687
 30
0.0
 10
-14.92635310927407
 20
13.62170131061098
 30
0.0
 10
-14.92224833914497
 20
13.61932159429088
 30
0.0
 10
-14.91840987639863
 20
13.61654069069581
 30
0.0
 10
-14.91491204307576
 20
13.61333160632184
 30
0.0
 10
-14.911748880901
 20
13.60977372326107
 30
0.0
 10
-14.90895534295193
 20
13.60589636642595
 30
0.0
 10
-14.90662005587192
 20
13.6016822417111
 30
0.0
 10
-14.90460783880741
 20
13.59720745407574
 30
0.0
 10
-14.9031234064681
 20
13.59239167566328
 30
0.0
 10
-14.90194091557591
 20
13.58731128684306
 30
0.0
 10
-14.90121803432761
 20
13.58190858743323
 30
0.0
 10
-14.90105664160676
 20
13.5781980800935
 30
0.0
 10
-14.90097402597402
 20
13.5762987012987
 30
0.0
  0
SPLINE
  5
92
330
1F
100
AcDbEntity
  8
0
  6
Continuous
 62
     7
370
    35
100
AcDbSpline
210
0.0
220
0.0
230
1.0
 70
     8
 71
     3
 72
    19
 73
    15
 74
     0
 42
0.000000001
 43
0.00000001
 40
0.0
 40
0.0
 40
0.0
 40
0.0
 40
0.0842823924232769
 40
0.1665342512284721
 40
0.2474139473143853
 40
0.3286832327328488
 40
0.4091901386029705
 40
0.4878268366532424
 40
0.5655491234028428
 40
0.6448345881473875
 40
0.7264168083038401
 40
0.8120499043773121
 40
0.9027184788736106
 40
1.0
 40
1.0
 40
1.0
 40
1.0
 10
-14.99837662337662
 20
13.58326907467532
 30
0.0
 10
-14.99831016692214
 20
13.58530345847377
 30
0.0
 10
-14.99817885508383
 20
13.5893232136426
 30
0.0
 10
-14.99702154792274
 20
13.59520537739652
 30
0.0
 10
-14.99511232036276
 20
13.60079722698332
 30
0.0
 10
-14.99251062082532
 20
13.60606255799323
 30
0.0
 10
-14.98921354294717
 20
13.61085165682222
 30
0.0
 10
-14.9854128429931
 20
13.61514456860497
 30
0.0
 10
-14.98097619195934
 20
13.61873329050686
 30
0.0
 10
-14.97604904868928
 20
13.62173725560674
 30
0.0
 10
-14.97057010599728
 20
13.62410006395688
 30
0.0
 10
-14.96455786217352
 20
13.62575189826145
 30
0.0
 10
-14.95801987930721
 20
13.62677498859889
 30
0.0
 10
-14.95348406576977
 20
13.62688902670376
 30
0.0
 10
-14.95113636363636
 20
13.62694805194805
 30
0.0
  0
SPLINE
  5
9F
330
1F
100
AcDbEntity
  8
0
  6
Continuous
 62
     7
370
    35
100
AcDbSpline
210
0.0
220
0.0
230
1.0
 70
     8
 71
     3
 72
    23
 73
    19
 74
     0
 42
0.000000001
 43
0.00000001
 40
0.0
 40
0.0
 40
0.0
 40
0.0
 40
0.0475485021292617
 40
0.0935210110380721
 40
0.13895642483937
 40
0.1843045775814189
 40
0.2307833162745286
 40
0.2789005771550353
 40
0.3289097120021057
 40
0.3820592779869643
 40
0.4387025622950492
 40
0.5002392032514502
 40
0.5671137755555558
 40
0.6403277889809842
 40
0.7196265730773153
 40
0.8060871484823743
 40
0.899250720393765
 40
1.0
 40
1.0
 40
1.0
 40
1.0
 10
-15.34235998376623
 20
13.62694805194805
 30
0.0
 10
-15.34086478891063
 20
13.62689553540217
 30
0.0
 10
-15.33792395737371
 20
13.62679224296925
 30
0.0
 10
-15.333618484088
 20
13.62596973246765
 30
0.0
 10
-15.32951335606225
 20
13.62466434294703
 30
0.0
 10
-15.32560259899263
 20
13.62281299045635
 30
0.0
 10
-15.32189649923415
 20
13.62042133683492
 30
0.0
 10
-15.31842701688381
 20
13.61746902360747
 30
0.0
 10
-15.31514611931211
 20
13.61401923215147
 30
0.0
 10
-15.31204717453905
 20
13.6100543889264
 30
0.0
 10
-15.30926200055403
 20
13.60543167234153
 30
0.0
 10
-15.30682751888608
 20
13.60013720888881
 30
0.0
 10
-15.30481038150159
 20
13.59412062412971
 30
0.0
 10
-15.30314810133382
 20
13.58742246256698
 30
0.0
 10
-15.30190167326657
 20
13.58001125102686
 30
0.0
 10
-15.30095903306725
 20
13.57192596950414
 30
0.0
 10
-15.30042173654748
 20
13.56312620486036
 30
0.0
 10
-15.30035786197217
 20
13.5570319790067
 30
0.0
 10
-15.30032467532467
 20
13.55386566558441
 30
0.0
  0
SPLINE
  5
A0
330
1F
100
AcDbEntity
  8
0
  6
Continuous
 62
     7
370
    35
100
AcDbSpline
210
0.0
220
0.0
230
1.0
 70
     8
 71
     3
 72
    23
 73
    19
 74
     0
 42
0.000000001
 43
0.00000001
 40
0.0
 40
0.0
 40
0.0
 40
0.0
 40
0.1035923470070933
 40
0.2029262655607186
 40
0.2995582107867985
 40
0.3943839736915822
 40
0.4406733379731873
 40
0.4848584620233518
 40
0.5270901044262224
 40
0.5682425927547458
 40
0.6074398702616517
 40
0.6458610769533758
 40
0.6828146680966507
 40
0.7194651487934692
 40
0.7909751151999181
 40
0.8600746574176162
 40
0.9295271100412471
 40
1.0
 40
1.0
 40
1.0
 40
1.0
 10
-15.3801948051948
 20
13.57605519480519
 30
0.0
 10
-15.38013265308522
 20
13.57849363977054
 30
0.0
 10
-15.38001090378754
 20
13.58327029118243
 30
0.0
 10
-15.37899075932864
 20
13.59026410880576
 30
0.0
 10
-15.37727257286018
 20
13.59689808743808
 30
0.0
 10
-15.3753270752769
 20
13.60215690343746
 30
0.0
 10
-15.37345401147409
 20
13.6060963636189
 30
0.0
 10
-15.37196868898905
 20
13.6088456597647
 30
0.0
 10
-15.37036445904567
 20
13.61138443483892
 30
0.0
 10
-15.36871924405372
 20
13.61375611036743
 30
0.0
 10
-15.36693178851757
 20
13.61590937346265
 30
0.0
 10
-15.36505213890254
 20
13.6178447141941
 30
0.0
 10
-15.36308858028925
 20
13.61960828616442
 30
0.0
 10
-15.36034769451934
 20
13.62164968576684
 30
0.0
 10
-15.35674439273076
 20
13.62378699041018
 30
0.0
 10
-15.35212864968545
 20
13.62559836998748
 30
0.0
 10
-15.34731636456655
 20
13.62674383858933
 30
0.0
 10
-15.34402012356169
 20
13.62687965068164
 30
0.0
 10
-15.34235998376623
 20
13.62694805194805
 30
0.0
  0
SPLINE
  5
A1
330
1F
100
AcDbEntity
  8
0
  6
Continuous
 62
     7
370
    35
100
AcDbSpline
210
0.0
220
0.0
230
1.0
 70
     8
 71
     3
 72
    23
 73
    19
 74
     0
 42
0.000000001
 43
0.00000001
 40
0.0
 40
0.0
 40
0.0
 40
0.0
 40
0.0537723528658537
 40
0.1059818572292608
 40
0.158348968206794
 40
0.2110665590554371
 40
0.2650654818272909
 40
0.3214515762089111
 40
0.3798653928784134
 40
0.441493098312049
 40
0.5050069716968567
 40
0.569139356383029
 40
0.6345161088946376
 40
0.7015752733322215
 40
0.771603079701834
 40
0.8439856083945567
 40
0.9201114300935689
 40
1.0
 40
1.0
 40
1.0
 40
1.0
 10
-15.34366883116883
 20
13.5275974025974
 30
0.0
 10
-15.34487874526859
 20
13.52763949011631
 30
0.0
 10
-15.34726340832583
 20
13.52772244191556
 30
0.0
 10
-15.35078235352428
 20
13.52835020268668
 30
0.0
 10
-15.35416988030729
 20
13.52939414670477
 30
0.0
 10
-15.35745743087478
 20
13.53082986596021
 30
0.0
 10
-15.36061232803097
 20
13.53271795800167
 30
0.0
 10
-15.36365696675863
 20
13.5349988668078
 30
0.0
 10
-15.3665531418929
 20
13.53771974794567
 30
0.0
 10
-15.36935156446888
 20
13.540761967781
 30
0.0
 10
-15.3718919348952
 20
13.54418886876813
 30
0.0
 10
-15.37412004454362
 20
13.54792215796768
 30
0.0
 10
-15.37602133061103
 20
13.55192272875234
 30
0.0
 10
-15.37753035961885
 20
13.5562260004806
 30
0.0
 10
-15.37875395946886
 20
13.56078081788261
 30
0.0
 10
-15.37960331763619
 20
13.56562866927217
 30
0.0
 10
-15.38007920984725
 20
13.57074930061961
 30
0.0
 10
-15.38015565881468
 20
13.57425835301973
 30
0.0
 10
-15.3801948051948
 20
13.57605519480519
 30
0.0
  0
SPLINE
  5
A2
330
1F
100
AcDbEntity
  8
0
  6
Continuous
 62
     7
370
    35
100
AcDbSpline
210
0.0
220
0.0
230
1.0
 70
     8
 71
     3
 72
    15
 73
    11
 74
     0
 42
0.000000001
 43
0.00000001
 40
0.0
 40
0.0
 40
0.0
 40
0.0
 40
0.140969446000728
 40
0.2742990210614965
 40
0.402316861670201
 40
0.5279097782725852
 40
0.6490182803984322
 40
0.7671673531349137
 40
0.8831153766904632
 40
1.0
 40
1.0
 40
1.0
 40
1.0
 10
-15.3138088474026
 20
13.5468648538961
 30
0.0
 10
-15.31469128131645
 20
13.54534563035816
 30
0.0
 10
-15.31640832543905
 20
13.54238951794477
 30
0.0
 10
-15.31960746528073
 20
13.53851600188005
 30
0.0
 10
-15.32304941343251
 20
13.53513125944066
 30
0.0
 10
-15.32686061307132
 20
13.53241550823589
 30
0.0
 10
-15.33086802448712
 20
13.53025360543721
 30
0.0
 10
-15.3350307433025
 20
13.52873280284378
 30
0.0
 10
-15.33931282782721
 20
13.52776898253182
 30
0.0
 10
-15.34221294135971
 20
13.52765474908187
 30
0.0
 10
-15.34366883116883
 20
13.5275974025974
 30
0.0
  0
SPLINE
  5
A3
330
1F
100
AcDbEntity
  8
0
  6
Continuous
 62
     7
370
    35
100
AcDbSpline
210
0.0
220
0.0
230
1.0
 70
     8
 71
     3
 72
    15
 73
    11
 74
     0
 42
0.000000001
 43
0.00000001
 40
0.0
 40
0.0
 40
0.0
 40
0.0
 40
0.0954354496518686
 40
0.1984123829102022
 40
0.3095400906896149
 40
0.4293035283878704
 40
0.5580901329020251
 40
0.6955019635148958
 40
0.8432104305984544
 40
1.0
 40
1.0
 40
1.0
 40
1.0
 10
-15.32074878246753
 20
13.50504261363637
 30
0.0
 10
-15.32018894974576
 20
13.5062817691217
 30
0.0
 10
-15.31902504529765
 20
13.50885800042296
 30
0.0
 10
-15.317656112149
 20
13.51305546898881
 30
0.0
 10
-15.31647100619857
 20
13.51766125046272
 30
0.0
 10
-15.31550789883154
 20
13.52269464004189
 30
0.0
 10
-15.31475671554783
 20
13.52814075060529
 30
0.0
 10
-15.31421559782962
 20
13.53401103638337
 30
0.0
 10
-15.31388051693553
 20
13.54029643934448
 30
0.0
 10
-15.31383320755246
 20
13.54463227951939
 30
0.0
 10
-15.3138088474026
 20
13.5468648538961
 30
0.0
  0
SPLINE
  5
A4
330
1F
100
AcDbEntity
  8
0
  6
Continuous
 62
     7
370
    35
100
AcDbSpline
210
0.0
220
0.0
230
1.0
 70
     8
 71
     3
 72
    15
 73
    11
 74
     0
 42
0.000000001
 43
0.00000001
 40
0.0
 40
0.0
 40
0.0
 40
0.0
 40
0.1133500122158228
 40
0.2245691853816578
 40
0.3363754082648749
 40
0.4513140069208143
 40
0.5732473707389433
 40
0.7037766361627404
 40
0.8458823741921112
 40
1.0
 40
1.0
 40
1.0
 40
1.0
 10
-15.34184253246753
 20
13.48863636363636
 30
0.0
 10
-15.34077157861243
 20
13.48867609917928
 30
0.0
 10
-15.33864980350081
 20
13.48875482328639
 30
0.0
 10
-15.3355706624337
 20
13.48960354743321
 30
0.0
 10
-15.33263932429502
 20
13.4908779487458
 30
0.0
 10
-15.32989678975796
 20
13.4927210935802
 30
0.0
 10
-15.32733782769477
 20
13.49506779701493
 30
0.0
 10
-15.32490797957819
 20
13.49789592352663
 30
0.0
 10
-15.32269863238044
 20
13.50127039236463
 30
0.0
 10
-15.32141606847118
 20
13.50375166788683
 30
0.0
 10
-15.32074878246753
 20
13.50504261363636
 30
0.0
  0
SPLINE
  5
A5
330
1F
100
AcDbEntity
  8
0
  6
Continuous
 62
     7
370
    35
100
AcDbSpline
210
0.0
220
0.0
230
1.0
 70
     8
 71
     3
 72
    15
 73
    11
 74
     0
 42
0.000000001
 43
0.00000001
 40
0.0
 40
0.0
 40
0.0
 40
0.0
 40
0.1368823084653411
 40
0.2661567842540669
 40
0.3902657982825216
 40
0.5136346597877298
 40
0.6322554501894259
 40
0.7535827665539613
 40
0.8756898910288157
 40
1.0
 40
1.0
 40
1.0
 40
1.0
 10
-15.35633116883117
 20
13.49572849025974
 30
0.0
 10
-15.35582536881919
 20
13.49515893121556
 30
0.0
 10
-15.35484188084202
 20
13.49405146886093
 30
0.0
 10
-15.35320601667829
 20
13.49261924364318
 30
0.0
 10
-15.35151951784832
 20
13.49137082312144
 30
0.0
 10
-15.34973526209013
 20
13.49038051358386
 30
0.0
 10
-15.34786922366906
 20
13.48959480169593
 30
0.0
 10
-15.3459244234504
 20
13.48905984923484
 30
0.0
 10
-15.34390438799602
 20
13.48871071483568
 30
0.0
 10
-15.34253390171954
 20
13.48866129464261
 30
0.0
 10
-15.34184253246753
 20
13.48863636363636
 30
0.0
  0
SPLINE
  5
A6
330
1F
100
AcDbEntity
  8
0
  6
Continuous
 62
     7
370
    35
100
AcDbSpline
210
0.0
220
0.0
230
1.0
 70
     8
 71
     3
 72
    11
 73
     7
 74
     0
 42
0.000000001
 43
0.00000001
 40
0.0
 40
0.0
 40
0.0
 40
0.0
 40
0.3075528063717094
 40
0.5759055724261624
 40
0.8043033581641167
 40
1.0
 40
1.0
 40
1.0
 40
1.0
 10
-15.36266233766234
 20
13.51201298701299
 30
0.0
 10
-15.36230210491828
 20
13.51023808452424
 30
0.0
 10
-15.36162755394566
 20
13.50691450492228
 30
0.0
 10
-15.36016446066965
 20
13.50241210762985
 30
0.0
 10
-15.35853430437646
 20
13.49864766961288
 30
0.0
 10
-15.35702680038993
 20
13.4966502098916
 30
0.0
 10
-15.35633116883117
 20
13.49572849025974
 30
0.0
  0
SPLINE
  5
A8
330
1F
100
AcDbEntity
  8
0
  6
Continuous
 62
     7
370
    35
100
AcDbSpline
210
0.0
220
0.0
230
1.0
 70
     8
 71
     3
 72
    23
 73
    19
 74
     0
 42
0.000000001
 43
0.00000001
 40
0.0
 40
0.0
 40
0.0
 40
0.0
 40
0.0603294039156365
 40
0.1189210425914463
 40
0.1759419292706695
 40
0.2317504676680433
 40
0.2873817642709788
 40
0.3434406550593531
 40
0.4004512006273948
 40
0.4588538538457749
 40
0.5184630789561373
 40
0.5796247857823124
 40
0.6423921846435607
 40
0.707010979927984
 40
0.7752013503535111
 40
0.8462043426153867
 40
0.9210636032385432
 40
1.0
 40
1.0
 40
1.0
 40
1.0
 10
-15.34376014610389
 20
13.47305194805195
 30
0.0
 10
-15.34488742972644
 20
13.47308403134281
 30
0.0
 10
-15.34710952600104
 20
13.47314727377769
 30
0.0
 10
-15.35037869876844
 20
13.47356243225201
 30
0.0
 10
-15.35349351553182
 20
13.47433718468928
 30
0.0
 10
-15.35646604133957
 20
13.47538249270421
 30
0.0
 10
-15.35932422442767
 20
13.47667680061426
 30
0.0
 10
-15.36200052662804
 20
13.47835474772717
 30
0.0
 10
-15.36457782912302
 20
13.480266137544
 30
0.0
 10
-15.36697337979815
 20
13.48250079380148
 30
0.0
 10
-15.36922015798451
 20
13.48499224638652
 30
0.0
 10
-15.3711786132389
 20
13.48781604106644
 30
0.0
 10
-15.37295758371354
 20
13.49086177950335
 30
0.0
 10
-15.3744834909835
 20
13.49418855678505
 30
0.0
 10
-15.37578778124448
 20
13.49777142044486
 30
0.0
 10
-15.37684101646913
 20
13.50163325032717
 30
0.0
 10
-15.37771085070498
 20
13.5057472869797
 30
0.0
 10
-15.37806498964819
 20
13.50860050600903
 30
0.0
 10
-15.37824675324675
 20
13.51006493506493
 30
0.0
  0
SPLINE
  5
A9
330
1F
100
AcDbEntity
  8
0
  6
Continuous
 62
     7
370
    35
100
AcDbSpline
210
0.0
220
0.0
230
1.0
 70
     8
 71
     3
 72
    23
 73
    19
 74
     0
 42
0.000000001
 43
0.00000001
 40
0.0
 40
0.0
 40
0.0
 40
0.0
 40
0.1030615083926045
 40
0.1985320239169766
 40
0.2868729390655519
 40
0.3677574866682399
 40
0.4420922835301749
 40
0.5099078645696968
 40
0.5719697578687316
 40
0.6285251463203707
 40
0.6811855668906195
 40
0.7303296178575232
 40
0.777371173828903
 40
0.8223135152115945
 40
0.8662660619536323
 40
0.9100619326438057
 40
0.9543361857592834
 40
0.9999999999999999
 40
0.9999999999999999
 40
0.9999999999999999
 40
0.9999999999999999
 10
-15.30032467532468
 20
13.55386566558442
 30
0.0
 10
-15.30035359284111
 20
13.55035415856487
 30
0.0
 10
-15.30040929795501
 20
13.54358978448902
 30
0.0
 10
-15.30100388482099
 20
13.53383082606872
 30
0.0
 10
-15.30191000083532
 20
13.52485544620269
 30
0.0
 10
-15.3032386046415
 20
13.51665924330045
 30
0.0
 10
-15.30495357301716
 20
13.50924977889979
 30
0.0
 10
-15.30704804954592
 20
13.50260887173455
 30
0.0
 10
-15.30946915217797
 20
13.49672301207023
 30
0.0
 10
-15.31237163819584
 20
13.49164283032538
 30
0.0
 10
-15.31555699393201
 20
13.48727876100031
 30
0.0
 10
-15.31892418471649
 20
13.48347382654856
 30
0.0
 10
-15.32252421162227
 20
13.48027204086271
 30
0.0
 10
-15.32632065112388
 20
13.47759402424913
 30
0.0
 10
-15.33038860275457
 20
13.47558757214416
 30
0.0
 10
-15.33464451869992
 20
13.47409759146708
 30
0.0
 10
-15.33913977444056
 20
13.47323681775661
 30
0.0
 10
-15.34220424001414
 20
13.47311420276223
 30
0.0
 10
-15.34376014610389
 20
13.47305194805195
 30
0.0
  0
SPLINE
  5
AB
330
1F
100
AcDbEntity
  8
0
  6
Continuous
 62
     7
370
    35
100
AcDbSpline
210
0.0
220
0.0
230
1.0
 70
     8
 71
     3
 72
    23
 73
    19
 74
     0
 42
0.000000001
 43
0.00000001
 40
0.0
 40
0.0
 40
0.0
 40
0.0
 40
0.0517663303365826
 40
0.1053679572405305
 40
0.161214266925904
 40
0.2192188461246996
 40
0.2793682248847789
 40
0.3419415664155901
 40
0.406905933655912
 40
0.4743180733248404
 40
0.5425473998923858
 40
0.6099885735758723
 40
0.6765244780975611
 40
0.7424962541211249
 40
0.8075253608874651
 40
0.8721211807917233
 40
0.9361709190668761
 40
1.0
 40
1.0
 40
1.0
 40
1.0
 10
-15.5711038961039
 20
13.49128449675325
 30
0.0
 10
-15.5696219821371
 20
13.49326849533182
 30
0.0
 10
-15.56660561519603
 20
13.4973068321433
 30
0.0
 10
-15.56238751358627
 20
13.50376667996066
 30
0.0
 10
-15.55828436774134
 20
13.51064612270185
 30
0.0
 10
-15.55429663448267
 20
13.51795292796803
 30
0.0
 10
-15.55045603449239
 20
13.52569911166509
 30
0.0
 10
-15.54678897574273
 20
13.53389445014172
 30
0.0
 10
-15.54322962731613
 20
13.54251342045482
 30
0.0
 10
-15.53981492279694
 20
13.55148097826206
 30
0.0
 10
-15.53663298554577
 20
13.56065982299817
 30
0.0
 10
-15.533803796862
 20
13.56991008922938
 30
0.0
 10
-15.53133762402196
 20
13.57915149447772
 30
0.0
 10
-15.52920412255888
 20
13.58835693851489
 30
0.0
 10
-15.52742878029594
 20
13.59754427689424
 30
0.0
 10
-15.52603271347725
 20
13.60670338863153
 30
0.0
 10
-15.52498268938406
 20
13.61585203311058
 30
0.0
 10
-15.52456108686739
 20
13.62195418749813
 30
0.0
 10
-15.52435064935065
 20
13.625
 30
0.0
  0
SPLINE
  5
B0
330
1F
100
AcDbEntity
  8
0
  6
Continuous
 62
     7
370
    35
100
AcDbSpline
210
0.0
220
0.0
230
1.0
 70
     8
 71
     3
 72
    23
 73
    19
 74
     0
 42
0.000000001
 43
0.00000001
 40
0.0
 40
0.0
 40
0.0
 40
0.0
 40
0.0342228010924297
 40
0.0697993740001499
 40
0.1070157851051961
 40
0.1456769489038721
 40
0.1860285194722805
 40
0.2278448054278193
 40
0.2714425586956912
 40
0.3165922787777126
 40
0.4081112412916861
 40
0.4985291511991357
 40
0.5886910026192772
 40
0.6782235015704385
 40
0.7653405305755817
 40
0.8477329459080211
 40
0.9259710895913419
 40
1.0
 40
1.0
 40
1.0
 40
1.0
 10
-15.50876623376623
 20
13.625
 30
0.0
 10
-15.50881838092405
 20
13.62339655523341
 30
0.0
 10
-15.50892473805601
 20
13.62012623727641
 30
0.0
 10
-15.50925482721722
 20
13.61511910930268
 30
0.0
 10
-15.50981600722116
 20
13.60992372857028
 30
0.0
 10
-15.51054667228324
 20
13.6045238299272
 30
0.0
 10
-15.51147263397619
 20
13.59893556068358
 30
0.0
 10
-15.5125242274955
 20
13.59313407535269
 30
0.0
 10
-15.51381525996715
 20
13.5871504727783
 30
0.0
 10
-15.51575834694245
 20
13.57892656421277
 30
0.0
 10
-15.51853341379811
 20
13.56864446829319
 30
0.0
 10
-15.52251943266774
 20
13.55652308320378
 30
0.0
 10
-15.52702812529419
 20
13.5446844568369
 30
0.0
 10
-15.53214430484675
 20
13.53326687926414
 30
0.0
 10
-15.53753386454661
 20
13.52237893171821
 30
0.0
 10
-15.54330454868846
 20
13.51229722000935
 30
0.0
 10
-15.54912905207412
 20
13.50295361081426
 30
0.0
 10
-15.55342895956875
 20
13.49725234849044
 30
0.0
 10
-15.55551948051948
 20
13.49448051948052
 30
0.0
  0
CIRCLE
  5
B5
330
1F
100
AcDbEntity
  8
0
  6
Continuous
 62
     7
370
    35
100
AcDbCircle
 10
-1.0625
 20
11.844
 30
0.0
 40
0.0750000000000031
  0
CIRCLE
  5
B6
330
1F
100
AcDbEntity
  8
0
  6
Continuous
 62
     7
370
    35
100
AcDbCircle
 10
-3.0
 20
12.25
 30
0.0
 40
0.0750000000000006
  0
CIRCLE
  5
B7
330
1F
100
AcDbEntity
  8
0
  6
Continuous
 62
     7
370
    35
100
AcDbCircle
 10
-13.375
 20
12.25
 30
0.0
 40
0.0750000000000028
  0
CIRCLE
  5
B8
330
1F
100
AcDbEntity
  8
0
  6
Continuous
 62
     7
370
    35
100
AcDbCircle
 10
-15.3125
 20
11.844
 30
0.0
 40
0.0750000000000011
  0
CIRCLE
  5
B9
330
1F
100
AcDbEntity
  8
0
  6
Continuous
 62
     7
370
    35
100
AcDbCircle
 10
-15.3125
 20
2.031
 30
0.0
 40
0.0750000000000046
  0
CIRCLE
  5
BA
330
1F
100
AcDbEntity
  8
0
  6
Continuous
 62
     7
370
    35
100
AcDbCircle
 10
-13.375
 20
1.625
 30
0.0
 40
0.0750000000000046
  0
CIRCLE
  5
BB
330
1F
100
AcDbEntity
  8
0
  6
Continuous
 62
     7
370
    35
100
AcDbCircle
 10
-3.0
 20
1.625
 30
0.0
 40
0.0750000000000015
  0
CIRCLE
  5
BC
330
1F
100
AcDbEntity
  8
0
  6
Continuous
 62
     7
370
    35
100
AcDbCircle
 10
-1.0625
 20
2.031
 30
0.0
 40
0.0750000000000014
  0
CIRCLE
  5
BD
330
1F
100
AcDbEntity
  8
0
  6
Continuous
 62
     7
370
    35
100
AcDbCircle
 10
-15.3125
 20
7.5635
 30
0.0
 40
0.0750000000000011
  0
CIRCLE
  5
BE
330
1F
100
AcDbEntity
  8
0
  6
Continuous
 62
     7
370
    35
100
AcDbCircle
 10
-1.0625
 20
7.5635
 30
0.0
 40
0.0750000000000006
  0
SPLINE
  5
BF
330
1F
100
AcDbEntity
  8
0
  6
Continuous
 62
     7
370
    35
100
AcDbSpline
210
0.0
220
0.0
230
1.0
 70
     8
 71
     3
 72
    15
 73
    11
 74
     0
 42
0.000000001
 43
0.00000001
 40
0.0
 40
0.0
 40
0.0
 40
0.0
 40
0.0932219929130075
 40
0.1938649693116503
 40
0.3031733266023036
 40
0.4219751466596547
 40
0.5505186320220793
 40
0.6892477464602148
 40
0.8389663890178469
 40
1.0
 40
1.0
 40
1.0
 40
1.0
 10
-15.46341314935065
 20
13.48887987012987
 30
0.0
 10
-15.4644046973248
 20
13.49057510921072
 30
0.0
 10
-15.46646672594673
 20
13.4941005377294
 30
0.0
 10
-15.46892416631139
 20
13.50000841957256
 30
0.0
 10
-15.47101903608135
 20
13.50660926280508
 30
0.0
 10
-15.47269245489326
 20
13.51393458454547
 30
0.0
 10
-15.47401902872794
 20
13.52195532176953
 30
0.0
 10
-15.47498195542098
 20
13.53068265597241
 30
0.0
 10
-15.4755605692159
 20
13.54013007574589
 30
0.0
 10
-15.4756190470818
 20
13.54667121863338
 30
0.0
 10
-15.47564935064935
 20
13.55006087662338
 30
0.0
  0
SPLINE
  5
C0
330
1F
100
AcDbEntity
  8
0
  6
Continuous
 62
     7
370
    35
100
AcDbSpline
210
0.0
220
0.0
230
1.0
 70
     8
 71
     3
 72
    15
 73
    11
 74
     0
 42
0.000000001
 43
0.00000001
 40
0.0
 40
0.0
 40
0.0
 40
0.0
 40
0.1280698975072565
 40
0.2516654189496281
 40
0.3715299648652173
 40
0.4903917349475149
 40
0.6102040788373356
 40
0.7344390716144231
 40
0.8631488921909986
 40
1.0
 40
1.0
 40
1.0
 40
1.0
 10
-15.43580560064935
 20
13.47305194805195
 30
0.0
 10
-15.43723002729243
 20
13.47309318909108
 30
0.0
 10
-15.44002911540659
 20
13.47317423033179
 30
0.0
 10
-15.44409343767237
 20
13.4739767116818
 30
0.0
 10
-15.44794735476342
 20
13.47517300296981
 30
0.0
 10
-15.45153481601853
 20
13.47693842709709
 30
0.0
 10
-15.45489641259181
 20
13.47918629889741
 30
0.0
 10
-15.45799220082908
 20
13.4819515774914
 30
0.0
 10
-15.46090228414935
 20
13.48517539094657
 30
0.0
 10
-15.4625592616598
 20
13.48762006168854
 30
0.0
 10
-15.46341314935065
 20
13.48887987012987
 30
0.0
  0
SPLINE
  5
C1
330
1F
100
AcDbEntity
  8
0
  6
Continuous
 62
     7
370
    35
100
AcDbSpline
210
0.0
220
0.0
230
1.0
 70
     8
 71
     3
 72
    23
 73
    19
 74
     0
 42
0.000000001
 43
0.00000001
 40
0.0
 40
0.0
 40
0.0
 40
0.0
 40
0.0951360676512991
 40
0.1847313633813683
 40
0.2682875644224331
 40
0.346597188131563
 40
0.4193050250118326
 40
0.4872356976528894
 40
0.5505021670267922
 40
0.6094154834552205
 40
0.6641924973930152
 40
0.7154708956004261
 40
0.7642516598968332
 40
0.8109957637662889
 40
0.8569478638664949
 40
0.9028837686324811
 40
0.9504484131495031
 40
1.0
 40
1.0
 40
1.0
 40
1.0
 10
-15.39577922077922
 20
13.55006087662338
 30
0.0
 10
-15.39580396514456
 20
13.54699605461412
 30
0.0
 10
-15.3958520127511
 20
13.54104490735454
 30
0.0
 10
-15.39634868096564
 20
13.53241346194514
 30
0.0
 10
-15.39713185795405
 20
13.52434970232559
 30
0.0
 10
-15.39819757383298
 20
13.51686476193425
 30
0.0
 10
-15.39963754159642
 20
13.50995643631993
 30
0.0
 10
-15.4013433339599
 20
13.50360804851976
 30
0.0
 10
-15.40341386739864
 20
13.49783738261045
 30
0.0
 10
-15.40577170953438
 20
13.49263977121932
 30
0.0
 10
-15.40844727116523
 20
13.48803543043536
 30
0.0
 10
-15.41144960407378
 20
13.48403884732043
 30
0.0
 10
-15.41473565159778
 20
13.48061718187207
 30
0.0
 10
-15.41837274333481
 20
13.47784111367907
 30
0.0
 10
-15.42230521359526
 20
13.47568844059839
 30
0.0
 10
-15.42654128291404
 20
13.47414932842973
 30
0.0
 10
-15.43107753839738
 20
13.47321815804503
 30
0.0
 10
-15.43420822918668
 20
13.47310810194451
 30
0.0
 10
-15.43580560064935
 20
13.47305194805195
 30
0.0
  0
SPLINE
  5
C2
330
1F
100
AcDbEntity
  8
0
  6
Continuous
 62
     7
370
    35
100
AcDbSpline
210
0.0
220
0.0
230
1.0
 70
     8
 71
     3
 72
    23
 73
    19
 74
     0
 42
0.000000001
 43
0.00000001
 40
0.0
 40
0.0
 40
0.0
 40
0.0
 40
0.0446212043231672
 40
0.0877303086660957
 40
0.1302828426876129
 40
0.1735028625766616
 40
0.2174869261056519
 40
0.2633330312022287
 40
0.3119087344770123
 40
0.3635276317902586
 40
0.4195097418097168
 40
0.4810945897470081
 40
0.5491279075035819
 40
0.6241475596264506
 40
0.7066025216400974
 40
0.7964475463062747
 40
0.8941834213832393
 40
1.0
 40
1.0
 40
1.0
 40
1.0
 10
-15.43562297077922
 20
13.62694805194805
 30
0.0
 10
-15.43418913354351
 20
13.62689371016615
 30
0.0
 10
-15.43137004819667
 20
13.62678686810817
 30
0.0
 10
-15.42723933877381
 20
13.62599146370933
 30
0.0
 10
-15.42333568910807
 20
13.62457873053329
 30
0.0
 10
-15.41959523799991
 20
13.62270734321252
 30
0.0
 10
-15.4161078795358
 20
13.62021359454213
 30
0.0
 10
-15.4127799012907
 20
13.61724833814795
 30
0.0
 10
-15.40973057163523
 20
13.61366953747379
 30
0.0
 10
-15.40678531747125
 20
13.60959879379763
 30
0.0
 10
-15.40415825482055
 20
13.60482392076377
 30
0.0
 10
-15.40188298553814
 20
13.59930107674399
 30
0.0
 10
-15.39998611089021
 20
13.59299699784804
 30
0.0
 10
-15.39846053300421
 20
13.58590882331776
 30
0.0
 10
-15.39726289873334
 20
13.57805025998029
 30
0.0
 10
-15.39638864358579
 20
13.56941591547151
 30
0.0
 10
-15.39588268292255
 20
13.5599999895892
 30
0.0
 10
-15.39581460896898
 20
13.55346045065531
 30
0.0
 10
-15.39577922077922
 20
13.55006087662338
 30
0.0
  0
SPLINE
  5
C3
330
1F
100
AcDbEntity
  8
0
  6
Continuous
 62
     7
370
    35
100
AcDbSpline
210
0.0
220
0.0
230
1.0
 70
     8
 71
     3
 72
    23
 73
    19
 74
     0
 42
0.000000001
 43
0.00000001
 40
0.0
 40
0.0
 40
0.0
 40
0.0
 40
0.0946148426290924
 40
0.183683462375915
 40
0.2670219024662401
 40
0.3451095466059775
 40
0.4178374162441563
 40
0.4855421053389497
 40
0.5487752445457592
 40
0.6077562862289855
 40
0.6628684891831917
 40
0.7144579905412602
 40
0.7630693177096085
 40
0.8100590634505884
 40
0.8560639889199576
 40
0.9024574209556195
 40
0.9500767445819774
 40
1.0
 40
1.0
 40
1.0
 40
1.0
 10
-15.47564935064935
 20
13.55006087662338
 30
0.0
 10
-15.47562483099009
 20
13.5531054460612
 30
0.0
 10
-15.47557722898829
 20
13.55901611546828
 30
0.0
 10
-15.47507720460111
 20
13.56759636106545
 30
0.0
 10
-15.47430148824164
 20
13.57562095435005
 30
0.0
 10
-15.47321458053462
 20
13.58307900414808
 30
0.0
 10
-15.4718395829844
 20
13.589979206146
 30
0.0
 10
-15.47009752676283
 20
13.59630150874728
 30
0.0
 10
-15.46808541623678
 20
13.60207831319214
 30
0.0
 10
-15.46570856251664
 20
13.6072748853548
 30
0.0
 10
-15.46303982982597
 20
13.61189939079719
 30
0.0
 10
-15.46006131759972
 20
13.61593027204478
 30
0.0
 10
-15.45673174525424
 20
13.61931710048121
 30
0.0
 10
-15.45312943912635
 20
13.62213536305122
 30
0.0
 10
-15.44916849964977
 20
13.62427852381216
 30
0.0
 10
-15.44493318662861
 20
13.62585441183811
 30
0.0
 10
-15.44037078706521
 20
13.62678223316671
 30
0.0
 10
-15.43723030203657
 20
13.62689191546461
 30
0.0
 10
-15.43562297077922
 20
13.62694805194805
 30
0.0
  0
SPLINE
  5
C5
330
1F
100
AcDbEntity
  8
0
  6
Continuous
 62
     7
370
    35
100
AcDbSpline
210
0.0
220
0.0
230
1.0
 70
     8
 71
     3
 72
    23
 73
    19
 74
     0
 42
0.000000001
 43
0.00000001
 40
0.0
 40
0.0
 40
0.0
 40
0.0
 40
0.0666328519689054
 40
0.1303182302904925
 40
0.1914143839273967
 40
0.2502217418280815
 40
0.3076442014429997
 40
0.3637784217418103
 40
0.4189405473986078
 40
0.474177367911066
 40
0.5293394935678782
 40
0.5857243568435725
 40
0.6441603494436943
 40
0.7054841805206374
 40
0.7712613324447943
 40
0.841987318839227
 40
0.9179167043621007
 40
1.0
 40
1.0
 40
1.0
 40
1.0
 10
-15.22824675324675
 20
13.51846590909091
 30
0.0
 10
-15.2282209867773
 20
13.5201310682118
 30
0.0
 10
-15.22817059360637
 20
13.52338772890356
 30
0.0
 10
-15.2276758103266
 20
13.5281509928212
 30
0.0
 10
-15.22685349643066
 20
13.5326672436735
 30
0.0
 10
-15.2257315367837
 20
13.53695817765918
 30
0.0
 10
-15.22427440668572
 20
13.54101731484439
 30
0.0
 10
-15.22247007168465
 20
13.54483398842656
 30
0.0
 10
-15.2203533746553
 20
13.54842186711057
 30
0.0
 10
-15.21793686039584
 20
13.55178764549196
 30
0.0
 10
-15.2150892301921
 20
13.55485131571902
 30
0.0
 10
-15.21172847011878
 20
13.55747226320028
 30
0.0
 10
-15.20792606807767
 20
13.55971386163569
 30
0.0
 10
-15.2036345567714
 20
13.56149558173022
 30
0.0
 10
-15.19889771233797
 20
13.5629347298904
 30
0.0
 10
-15.19367259087955
 20
13.56391581693386
 30
0.0
 10
-15.18797938140811
 20
13.56448404809266
 30
0.0
 10
-15.18403139248413
 20
13.56456719634955
 30
0.0
 10
-15.18198051948052
 20
13.56461038961039
 30
0.0
  0
SPLINE
  5
C6
330
1F
100
AcDbEntity
  8
0
  6
Continuous
 62
     7
370
    35
100
AcDbSpline
210
0.0
220
0.0
230
1.0
 70
     8
 71
     3
 72
    23
 73
    19
 74
     0
 42
0.000000001
 43
0.00000001
 40
0.0
 40
0.0
 40
0.0
 40
0.0
 40
0.0560593522651486
 40
0.1119858622766078
 40
0.1671322055426077
 40
0.2227586605782304
 40
0.2788445435368868
 40
0.336276954555856
 40
0.3949521916019883
 40
0.4558512889967485
 40
0.5183448180374329
 40
0.5811322403162024
 40
0.6457441973773042
 40
0.7121753660847457
 40
0.7801122482230092
 40
0.8509199951103208
 40
0.9237473792361197
 40
1.0
 40
1.0
 40
1.0
 40
1.0
 10
-15.20499188311688
 20
13.47789163961039
 30
0.0
 10
-15.20586247158385
 20
13.47822859929499
 30
0.0
 10
-15.20760158550903
 20
13.4789017201804
 30
0.0
 10
-15.21005114327732
 20
13.48023066713946
 30
0.0
 10
-15.21238818571245
 20
13.48172759311211
 30
0.0
 10
-15.21458463205793
 20
13.48343273856992
 30
0.0
 10
-15.21663364481596
 20
13.48536769029742
 30
0.0
 10
-15.21854278071396
 20
13.48750640320174
 30
0.0
 10
-15.22036504216073
 20
13.48982439855655
 30
0.0
 10
-15.22198776802141
 20
13.49238688142537
 30
0.0
 10
-15.22347658440209
 20
13.4951053298146
 30
0.0
 10
-15.22477132487426
 20
13.49799181229959
 30
0.0
 10
-15.2258237186086
 20
13.5010436770585
 30
0.0
 10
-15.22670050783474
 20
13.50423734910182
 30
0.0
 10
-15.22741773514118
 20
13.50757792501773
 30
0.0
 10
-15.22787965701582
 20
13.51106952925705
 30
0.0
 10
-15.22820733670051
 20
13.51471576931406
 30
0.0
 10
-15.22823341467696
 20
13.51719686078783
 30
0.0
 10
-15.22824675324675
 20
13.51846590909091
 30
0.0
  0
SPLINE
  5
C7
330
1F
100
AcDbEntity
  8
0
  6
Continuous
 62
     7
370
    35
100
AcDbSpline
210
0.0
220
0.0
230
1.0
 70
     8
 71
     3
 72
    15
 73
    11
 74
     0
 42
0.000000001
 43
0.00000001
 40
0.0
 40
0.0
 40
0.0
 40
0.0
 40
0.1626439442078224
 40
0.3129026374847682
 40
0.4532959103396684
 40
0.5828889145515724
 40
0.7028482210773298
 40
0.8110567577801238
 40
0.9105856670299918
 40
1.0
 40
1.0
 40
1.0
 40
1.0
 10
-15.18094561688312
 20
13.475
 30
0.0
 10
-15.18226489612029
 20
13.47499870558439
 30
0.0
 10
-15.18480299217361
 20
13.47499621532223
 30
0.0
 10
-15.18847528597581
 20
13.47517663501809
 30
0.0
 10
-15.19187974753575
 20
13.47535508903492
 30
0.0
 10
-15.19502295913395
 20
13.47571308771875
 30
0.0
 10
-15.1979004622884
 20
13.47608718930722
 30
0.0
 10
-15.20051587573885
 20
13.47656879515278
 30
0.0
 10
-15.20285154026901
 20
13.47717252060405
 30
0.0
 10
-15.20430435978313
 20
13.47766064339542
 30
0.0
 10
-15.20499188311688
 20
13.47789163961039
 30
0.0
  0
SPLINE
  5
CC
330
1F
100
AcDbEntity
  8
0
  6
Continuous
 62
     7
370
    35
100
AcDbSpline
210
0.0
220
0.0
230
1.0
 70
     8
 71
     3
 72
    23
 73
    19
 74
     0
 42
0.000000001
 43
0.00000001
 40
0.0
 40
0.0
 40
0.0
 40
0.0
 40
0.1206675161426073
 40
0.2309294132593923
 40
0.3309228483129008
 40
0.4207704713085076
 40
0.501077790269632
 40
0.571700620023383
 40
0.633172715313053
 40
0.6858414944559229
 40
0.7330485117757755
 40
0.7767032029398778
 40
0.8172975603403968
 40
0.8554421780553838
 40
0.8920848149530616
 40
0.9277934961333144
 40
0.9634652945206007
 40
1.0
 40
1.0
 40
1.0
 40
1.0
 10
-15.41136363636364
 20
13.55
 30
0.0
 10
-15.4113911141134
 20
13.55292226862362
 30
0.0
 10
-15.41144370010202
 20
13.55851480752897
 30
0.0
 10
-15.41172542233361
 20
13.56652593735394
 30
0.0
 10
-15.41226951494028
 20
13.57377533727852
 30
0.0
 10
-15.41301449150544
 20
13.58027757236486
 30
0.0
 10
-15.41397191711016
 20
13.58603222664461
 30
0.0
 10
-15.41512579137421
 20
13.59105074197531
 30
0.0
 10
-15.41654172922118
 20
13.59530349643497
 30
0.0
 10
-15.41817369859439
 20
13.5988648031941
 30
0.0
 10
-15.42001111442876
 20
13.60182328334402
 30
0.0
 10
-15.42192358331248
 20
13.60437411770735
 30
0.0
 10
-15.42396901056791
 20
13.60653137636969
 30
0.0
 10
-15.42615340261016
 20
13.60828602812595
 30
0.0
 10
-15.42844802531741
 20
13.60968274489304
 30
0.0
 10
-15.43088330090219
 20
13.61066461942093
 30
0.0
 10
-15.43344240227232
 20
13.61126929819746
 30
0.0
 10
-15.43519352211483
 20
13.61133194077061
 30
0.0
 10
-15.43607954545454
 20
13.61136363636363
 30
0.0
  0
SPLINE
  5
CD
330
1F
100
AcDbEntity
  8
0
  6
Continuous
 62
     7
370
    35
100
AcDbSpline
210
0.0
220
0.0
230
1.0
 70
     8
 71
     3
 72
    23
 73
    19
 74
     0
 42
0.000000001
 43
0.00000001
 40
0.0
 40
0.0
 40
0.0
 40
0.0
 40
0.0347624749931505
 40
0.0692176199676655
 40
0.1040827908270838
 40
0.1396233419469727
 40
0.1780076438586629
 40
0.218706620519604
 40
0.2628484765996497
 40
0.3106326191763182
 40
0.3641701430560915
 40
0.4264757682148808
 40
0.497749000558844
 40
0.578309205437283
 40
0.6685643758583458
 40
0.7690571095696327
 40
0.8794894768587028
 40
1.0
 40
1.0
 40
1.0
 40
1.0
 10
-15.43607954545454
 20
13.61136363636363
 30
0.0
 10
-15.43691588001953
 20
13.61133486749989
 30
0.0
 10
-15.43858115523646
 20
13.61127758411378
 30
0.0
 10
-15.44100736245808
 20
13.61061719096947
 30
0.0
 10
-15.44334338470964
 20
13.60966069739486
 30
0.0
 10
-15.44554694492476
 20
13.60823583641232
 30
0.0
 10
-15.44763522646383
 20
13.60643543002891
 30
0.0
 10
-15.44962710321226
 20
13.604240930663
 30
0.0
 10
-15.45151162432751
 20
13.60167024932464
 30
0.0
 10
-15.45330808192019
 20
13.5986712145161
 30
0.0
 10
-15.45495745250999
 20
13.59509687956932
 30
0.0
 10
-15.45631450249496
 20
13.59080794697554
 30
0.0
 10
-15.45749766357749
 20
13.58580317220078
 30
0.0
 10
-15.45840119115795
 20
13.58006050514388
 30
0.0
 10
-15.45916344248951
 20
13.57359355950781
 30
0.0
 10
-15.45970092984461
 20
13.56638364567961
 30
0.0
 10
-15.45998510500024
 20
13.55843373192875
 30
0.0
 10
-15.46003756198365
 20
13.55289185823077
 30
0.0
 10
-15.46006493506493
 20
13.55
 30
0.0
  0
SPLINE
  5
CE
330
1F
100
AcDbEntity
  8
0
  6
Continuous
 62
     7
370
    35
100
AcDbSpline
210
0.0
220
0.0
230
1.0
 70
     8
 71
     3
 72
    23
 73
    19
 74
     0
 42
0.000000001
 43
0.00000001
 40
0.0
 40
0.0
 40
0.0
 40
0.0
 40
0.1203760720986901
 40
0.2307892890246664
 40
0.3305412134213521
 40
0.4205869266342552
 40
0.5007002821283059
 40
0.5711525390240559
 40
0.6324761629055791
 40
0.6850177329828092
 40
0.7317551824460817
 40
0.7753044359569071
 40
0.8157921199715228
 40
0.8541714020480287
 40
0.890725537262565
 40
0.9267356746237925
 40
0.9631365825032507
 40
1.0
 40
1.0
 40
1.0
 40
1.0
 10
-15.46006493506493
 20
13.55
 30
0.0
 10
-15.4600372257629
 20
13.54707774411099
 30
0.0
 10
-15.459984100503
 20
13.54147509113175
 30
0.0
 10
-15.45970466851718
 20
13.5334536659086
 30
0.0
 10
-15.45915661869506
 20
13.5261843770216
 30
0.0
 10
-15.4584168108008
 20
13.5196713294615
 30
0.0
 10
-15.45745618376487
 20
13.51390708712231
 30
0.0
 10
-15.45630359505172
 20
13.50888786844466
 30
0.0
 10
-15.45488451633176
 20
13.50463716055161
 30
0.0
 10
-15.45326545319333
 20
13.50107757198301
 30
0.0
 10
-15.4514046890841
 20
13.49814507034249
 30
0.0
 10
-15.44951710985439
 20
13.49558473910689
 30
0.0
 10
-15.44741715075866
 20
13.493467398496
 30
0.0
 10
-15.44521916288335
 20
13.49172162536637
 30
0.0
 10
-15.44291317067134
 20
13.490309135104
 30
0.0
 10
-15.44044370484962
 20
13.4893309577698
 30
0.0
 10
-15.43784313407065
 20
13.48873355117264
 30
0.0
 10
-15.436062389308
 20
13.48866889553642
 30
0.0
 10
-15.43516639610389
 20
13.48863636363636
 30
0.0
  0
SPLINE
  5
CF
330
1F
100
AcDbEntity
  8
0
  6
Continuous
 62
     7
370
    35
100
AcDbSpline
210
0.0
220
0.0
230
1.0
 70
     8
 71
     3
 72
    23
 73
    19
 74
     0
 42
0.000000001
 43
0.00000001
 40
0.0
 40
0.0
 40
0.0
 40
0.0
 40
0.0348206398727341
 40
0.0689230366201106
 40
0.1030674831944829
 40
0.1390259289950612
 40
0.1768773708661615
 40
0.2173596739505604
 40
0.2613252067966549
 40
0.3091893022218728
 40
0.3632013239127624
 40
0.4250772414693106
 40
0.4964697288138585
 40
0.5776522482993811
 40
0.6680098148504768
 40
0.7686706938896588
 40
0.8792878375891117
 40
0.9999999999999999
 40
0.9999999999999999
 40
0.9999999999999999
 40
0.9999999999999999
 10
-15.43516639610389
 20
13.48863636363636
 30
0.0
 10
-15.4343301904775
 20
13.48866493007796
 30
0.0
 10
-15.43267502758501
 20
13.48872147372297
 30
0.0
 10
-15.43027416045153
 20
13.48937393085599
 30
0.0
 10
-15.4279759780552
 20
13.49036438675056
 30
0.0
 10
-15.42577587452146
 20
13.49174516973928
 30
0.0
 10
-15.4236933459852
 20
13.49353683116466
 30
0.0
 10
-15.42174030470966
 20
13.49573045479165
 30
0.0
 10
-15.41988976484557
 20
13.49830871642022
 30
0.0
 10
-15.41808132261474
 20
13.50130389396193
 30
0.0
 10
-15.41644910120871
 20
13.50488356000077
 30
0.0
 10
-15.41511458852661
 20
13.50917528956326
 30
0.0
 10
-15.4139365654994
 20
13.5141788522634
 30
0.0
 10
-15.41297924816002
 20
13.51992408710045
 30
0.0
 10
-15.41228051626553
 20
13.52640952651955
 30
0.0
 10
-15.41172286507372
 20
13.53361576039602
 30
0.0
 10
-15.41144483953426
 20
13.541566438807
 30
0.0
 10
-15.4113914802718
 20
13.54710820031314
 30
0.0
 10
-15.41136363636363
 20
13.55
 30
0.0
  0
SPLINE
  5
D0
330
1F
100
AcDbEntity
  8
0
  6
Continuous
 62
     7
370
    35
100
AcDbSpline
210
0.0
220
0.0
230
1.0
 70
     8
 71
     3
 72
    23
 73
    19
 74
     0
 42
0.000000001
 43
0.00000001
 40
0.0
 40
0.0
 40
0.0
 40
0.0
 40
0.0810090216197986
 40
0.1579834947023565
 40
0.231914163228761
 40
0.3030666043585371
 40
0.3710259594111834
 40
0.4373676903958988
 40
0.5023415864924506
 40
0.5666372458965917
 40
0.6289255149698858
 40
0.6870679647738799
 40
0.7424177089351461
 40
0.7953014367815774
 40
0.8471180440031904
 40
0.8981348710794712
 40
0.9488313141949737
 40
1.0
 40
1.0
 40
1.0
 40
1.0
 10
-15.31590909090909
 20
13.57547686688311
 30
0.0
 10
-15.31593142104677
 20
13.57679668119655
 30
0.0
 10
-15.31597496919878
 20
13.579370578195
 30
0.0
 10
-15.31634464047011
 20
13.58313521979789
 30
0.0
 10
-15.3169622154032
 20
13.58670100745804
 30
0.0
 10
-15.31775223670102
 20
13.59008483296586
 30
0.0
 10
-15.31886767309529
 20
13.59324732129544
 30
0.0
 10
-15.32021628757825
 20
13.59620240289034
 30
0.0
 10
-15.32175152677315
 20
13.59900201441821
 30
0.0
 10
-15.32359090080769
 20
13.6015296445712
 30
0.0
 10
-15.32553576271424
 20
13.60383097837492
 30
0.0
 10
-15.32760196705108
 20
13.60581759626738
 30
0.0
 10
-15.32968880626909
 20
13.60755663939991
 30
0.0
 10
-15.33191560912706
 20
13.60892418852998
 30
0.0
 10
-15.33419653385103
 20
13.61004966717954
 30
0.0
 10
-15.33659069255642
 20
13.61079749851476
 30
0.0
 10
-15.3390431815113
 20
13.61127816372604
 30
0.0
 10
-15.3407039270208
 20
13.61133505756525
 30
0.0
 10
-15.34153814935065
 20
13.61136363636364
 30
0.0
  0
SPLINE
  5
D1
330
1F
100
AcDbEntity
  8
0
  6
Continuous
 62
     7
370
    35
100
AcDbSpline
210
0.0
220
0.0
230
1.0
 70
     8
 71
     3
 72
    23
 73
    19
 74
     0
 42
0.000000001
 43
0.00000001
 40
0.0
 40
0.0
 40
0.0
 40
0.0
 40
0.0482828853706518
 40
0.0960352980426503
 40
0.1436187235968296
 40
0.1929012867429507
 40
0.2443283146217261
 40
0.2986539499896493
 40
0.3560468934067841
 40
0.4169619703361588
 40
0.480651607099863
 40
0.5453215856174908
 40
0.6127310796356356
 40
0.6826423521108591
 40
0.7559436411400638
 40
0.8334038459345295
 40
0.9141771622799358
 40
1.0
 40
1.0
 40
1.0
 40
1.0
 10
-15.34153814935065
 20
13.61136363636363
 30
0.0
 10
-15.34228054939062
 20
13.61133166108172
 30
0.0
 10
-15.34375719289604
 20
13.61126806182278
 30
0.0
 10
-15.34593469645639
 20
13.61084006157509
 30
0.0
 10
-15.34803066238767
 20
13.61008107366544
 30
0.0
 10
-15.3500849416184
 20
13.60907946927555
 30
0.0
 10
-15.3520732142126
 20
13.60775185553244
 30
0.0
 10
-15.35398863308702
 20
13.60612516180522
 30
0.0
 10
-15.35584502229586
 20
13.60422416302932
 30
0.0
 10
-15.35764608394225
 20
13.602077048909
 30
0.0
 10
-15.35926818341808
 20
13.59965448470124
 30
0.0
 10
-15.36071689387375
 20
13.59701160514121
 30
0.0
 10
-15.36193598948189
 20
13.59414823942781
 30
0.0
 10
-15.36288925552121
 20
13.5910497710518
 30
0.0
 10
-15.36370085285858
 20
13.58775222965753
 30
0.0
 10
-15.36423281086712
 20
13.5842274503391
 30
0.0
 10
-15.36453000201432
 20
13.58048405975214
 30
0.0
 10
-15.36458305770654
 20
13.57792262188045
 30
0.0
 10
-15.36461038961039
 20
13.57660308441558
 30
0.0
  0
SPLINE
  5
D2
330
1F
100
AcDbEntity
  8
0
  6
Continuous
 62
     7
370
    35
100
AcDbSpline
210
0.0
220
0.0
230
1.0
 70
     8
 71
     3
 72
    23
 73
    19
 74
     0
 42
0.000000001
 43
0.00000001
 40
0.0
 40
0.0
 40
0.0
 40
0.0
 40
0.0840162565176496
 40
0.1629784660260239
 40
0.2386380390705882
 40
0.3095210424791369
 40
0.3776873979738352
 40
0.4425440325922492
 40
0.505613224789544
 40
0.5672591196263883
 40
0.6262892120163097
 40
0.6828803095494324
 40
0.7372330269381944
 40
0.7903037081809856
 40
0.8415299267034811
 40
0.893400738894072
 40
0.9463394443496929
 40
1.0
 40
1.0
 40
1.0
 40
1.0
 10
-15.36461038961039
 20
13.57660308441558
 30
0.0
 10
-15.36458316382256
 20
13.57531395490007
 30
0.0
 10
-15.36453035003008
 20
13.57281324420843
 30
0.0
 10
-15.36423220459624
 20
13.56916112070711
 30
0.0
 10
-15.3637053853908
 20
13.56573617567581
 30
0.0
 10
-15.3628857441681
 20
13.56254170975943
 30
0.0
 10
-15.36193575995838
 20
13.55955794040852
 30
0.0
 10
-15.36074487216055
 20
13.55678777479484
 30
0.0
 10
-15.35930434121945
 20
13.55425512197609
 30
0.0
 10
-15.35767603666258
 20
13.55194581580902
 30
0.0
 10
-15.35586152145069
 20
13.54991557311744
 30
0.0
 10
-15.35399285380173
 20
13.54808755584557
 30
0.0
 10
-15.35195275218629
 20
13.54660398318259
 30
0.0
 10
-15.34986866517752
 20
13.54533601026611
 30
0.0
 10
-15.34766066211878
 20
13.54438921310488
 30
0.0
 10
-15.34537160698335
 20
13.54366800320939
 30
0.0
 10
-15.34296105619054
 20
13.54328597927643
 30
0.0
 10
-15.3413262067613
 20
13.54321669493588
 30
0.0
 10
-15.34050324675325
 20
13.54318181818182
 30
0.0
  0
SPLINE
  5
D3
330
1F
100
AcDbEntity
  8
0
  6
Continuous
 62
     7
370
    35
100
AcDbSpline
210
0.0
220
0.0
230
1.0
 70
     8
 71
     3
 72
    23
 73
    19
 74
     0
 42
0.000000001
 43
0.00000001
 40
0.0
 40
0.0
 40
0.0
 40
0.0
 40
0.0539534357524107
 40
0.1066691353690345
 40
0.1586699393140894
 40
0.2123578317605809
 40
0.2660795167469716
 40
0.321990423943281
 40
0.3801680963503605
 40
0.4416557072729289
 40
0.5051079008232424
 40
0.5688739335764554
 40
0.6342663833605617
 40
0.7011983351489193
 40
0.7707954458926934
 40
0.8439955800349567
 40
0.9197991266091575
 40
1.0
 40
1.0
 40
1.0
 40
1.0
 10
-15.34050324675325
 20
13.54318181818182
 30
0.0
 10
-15.33968928035846
 20
13.5431988188574
 30
0.0
 10
-15.3380800206266
 20
13.54323243019909
 30
0.0
 10
-15.33572598897611
 20
13.54369379366226
 30
0.0
 10
-15.33342991084195
 20
13.54435634909379
 30
0.0
 10
-15.33122910447737
 20
13.54533500084042
 30
0.0
 10
-15.32909864607784
 20
13.54657247455623
 30
0.0
 10
-15.327053387019
 20
13.54806722276575
 30
0.0
 10
-15.32510171178023
 20
13.54985769262946
 30
0.0
 10
-15.32322050926363
 20
13.5518796017888
 30
0.0
 10
-15.32149685696624
 20
13.55414571806136
 30
0.0
 10
-15.31998374911217
 20
13.55662974146465
 30
0.0
 10
-15.31876829232326
 20
13.55932548345779
 30
0.0
 10
-15.31765975269328
 20
13.56216264780069
 30
0.0
 10
-15.31689827751724
 20
13.56523534537052
 30
0.0
 10
-15.31631490344138
 20
13.56847771229062
 30
0.0
 10
-15.31598249490746
 20
13.57191891099715
 30
0.0
 10
-15.31593401441819
 20
13.57426880263744
 30
0.0
 10
-15.31590909090909
 20
13.57547686688311
 30
0.0
  0
SPLINE
  5
D5
330
1F
100
AcDbEntity
  8
0
  6
Continuous
 62
     7
370
    35
100
AcDbSpline
210
0.0
220
0.0
230
1.0
 70
     8
 71
     3
 72
    23
 73
    19
 74
     0
 42
0.000000001
 43
0.00000001
 40
0.0
 40
0.0
 40
0.0
 40
0.0
 40
0.0793283355891644
 40
0.1536994931737255
 40
0.2235732549937343
 40
0.2886719460792562
 40
0.3495254344320987
 40
0.4073650256296069
 40
0.4632436313665131
 40
0.5167475992051537
 40
0.5696442468712403
 40
0.6233648547708605
 40
0.6789137008909397
 40
0.7361181772037451
 40
0.7963753389439916
 40
0.8598513161432422
 40
0.9278161585433066
 40
1.0
 40
1.0
 40
1.0
 40
1.0
 10
-15.18295454545454
 20
13.54707792207792
 30
0.0
 10
-15.18419283155648
 20
13.54705010050189
 30
0.0
 10
-15.18659202403743
 20
13.54699619590268
 30
0.0
 10
-15.19007436129036
 20
13.54670870958964
 30
0.0
 10
-15.19329998345307
 20
13.54616031863648
 30
0.0
 10
-15.19626799854147
 20
13.5454096054862
 30
0.0
 10
-15.19896962721225
 20
13.54442975779167
 30
0.0
 10
-15.20143280519441
 20
13.54324851878997
 30
0.0
 10
-15.20362247281257
 20
13.54181329156948
 30
0.0
 10
-15.20556886507419
 20
13.54018346892954
 30
0.0
 10
-15.20727288143945
 20
13.53834093828515
 30
0.0
 10
-15.2086882607193
 20
13.5362355487135
 30
0.0
 10
-15.20996586120121
 20
13.53396454548895
 30
0.0
 10
-15.21090985934274
 20
13.53142658885977
 30
0.0
 10
-15.211723532721
 20
13.52871842847419
 30
0.0
 10
-15.21225122803886
 20
13.52576724758663
 30
0.0
 10
-15.21259182696611
 20
13.5226034082253
 30
0.0
 10
-15.21263836708642
 20
13.52041492558109
 30
0.0
 10
-15.21266233766234
 20
13.51928774350649
 30
0.0
  0
SPLINE
  5
D6
330
1F
100
AcDbEntity
  8
0
  6
Continuous
 62
     7
370
    35
100
AcDbSpline
210
0.0
220
0.0
230
1.0
 70
     8
 71
     3
 72
    23
 73
    19
 74
     0
 42
0.000000001
 43
0.00000001
 40
0.0
 40
0.0
 40
0.0
 40
0.0
 40
0.0937457150656185
 40
0.1807618831707077
 40
0.2640972019008566
 40
0.3432589115964481
 40
0.4183191640090875
 40
0.486672159328826
 40
0.549799441374074
 40
0.6099074645521925
 40
0.6414225087160669
 40
0.6774216093654171
 40
0.718751770096011
 40
0.7647309704357841
 40
0.8157865196265274
 40
0.8718434435028487
 40
0.9330217025809114
 40
1.0
 40
1.0
 40
1.0
 40
1.0
 10
-15.21266233766234
 20
13.51928774350649
 30
0.0
 10
-15.21262857504325
 20
13.51782355558814
 30
0.0
 10
-15.21256347345859
 20
13.51500028664992
 30
0.0
 10
-15.21186115660122
 20
13.51092674320018
 30
0.0
 10
-15.21079489713954
 20
13.50717246427505
 30
0.0
 10
-15.20926159975184
 20
13.50378256875122
 30
0.0
 10
-15.20742406814485
 20
13.50082646462317
 30
0.0
 10
-15.2053850676289
 20
13.49831394843591
 30
0.0
 10
-15.20312893530761
 20
13.49633575738286
 30
0.0
 10
-15.20106948233897
 20
13.49503995203386
 30
0.0
 10
-15.19921002596356
 20
13.49431477992814
 30
0.0
 10
-15.19758067131685
 20
13.4938332383318
 30
0.0
 10
-15.1957037063376
 20
13.4933975557917
 30
0.0
 10
-15.19355938119475
 20
13.49313240106105
 30
0.0
 10
-15.19118921834747
 20
13.49283273354846
 30
0.0
 10
-15.18856683584168
 20
13.49267457719271
 30
0.0
 10
-15.18569545081316
 20
13.49253766843247
 30
0.0
 10
-15.18369543043378
 20
13.49253425269499
 30
0.0
 10
-15.18265016233766
 20
13.49253246753247
 30
0.0
  0
SPLINE
  5
DA
330
1F
100
AcDbEntity
  8
0
  6
Continuous
 62
     7
370
    35
100
AcDbSpline
210
0.0
220
0.0
230
1.0
 70
     8
 71
     3
 72
    15
 73
    11
 74
     0
 42
0.000000001
 43
0.00000001
 40
0.0
 40
0.0
 40
0.0
 40
0.0
 40
0.1510731628025815
 40
0.2949483291528426
 40
0.4307170212974826
 40
0.5602118692534174
 40
0.6813590824809489
 40
0.7944190896427439
 40
0.9012439475157286
 40
0.9999999999999999
 40
0.9999999999999999
 40
0.9999999999999999
 40
0.9999999999999999
 10
-15.07021103896104
 20
13.52144886363636
 30
0.0
 10
-15.06974227091258
 20
13.51990727083499
 30
0.0
 10
-15.06882706962808
 20
13.51689753560099
 30
0.0
 10
-15.06752477574056
 20
13.51249210907118
 30
0.0
 10
-15.06629747379003
 20
13.50830456936224
 30
0.0
 10
-15.06517083896196
 20
13.50434008547312
 30
0.0
 10
-15.06417444717869
 20
13.50059106565054
 30
0.0
 10
-15.06324845182199
 20
13.49707356077844
 30
0.0
 10
-15.06243337449439
 20
13.49377412251307
 30
0.0
 10
-15.06193008140598
 20
13.49164002315072
 30
0.0
 10
-15.06168831168831
 20
13.4906148538961
 30
0.0
  0
SPLINE
  5
DB
330
1F
100
AcDbEntity
  8
0
  6
Continuous
 62
     7
370
    35
100
AcDbSpline
210
0.0
220
0.0
230
1.0
 70
     8
 71
     3
 72
    11
 73
     7
 74
     0
 42
0.000000001
 43
0.00000001
 40
0.0
 40
0.0
 40
0.0
 40
0.0
 40
0.2488751571872887
 40
0.4974197103002369
 40
0.7479413436558754
 40
1.0
 40
1.0
 40
1.0
 40
1.0
 10
-15.06168831168831
 20
13.4906148538961
 30
0.0
 10
-15.06124977387122
 20
13.49300288510127
 30
0.0
 10
-15.06037328078771
 20
13.49777577526711
 30
0.0
 10
-15.05873032904206
 20
13.50488587985383
 30
0.0
 10
-15.0569024953786
 20
13.51198315400087
 30
0.0
 10
-15.05544760714455
 20
13.51666547720834
 30
0.0
 10
-15.05471793831169
 20
13.5190137987013
 30
0.0
  0
LINE
  5
DE
330
1F
100
AcDbEntity
  8
0
  6
Continuous
 62
     7
370
    35
100
AcDbLine
 10
-14.7003246753
 20
13.6074675325
 30
0.0
 11
-14.7626623377
 21
13.6074675325
 31
0.0
  0
LINE
  5
DF
330
1F
100
AcDbEntity
  8
0
  6
Continuous
 62
     7
370
    35
100
AcDbLine
 10
-14.7003246753
 20
13.475
 30
0.0
 11
-14.7003246753
 21
13.6074675325
 31
0.0
  0
LINE
  5
E0
330
1F
100
AcDbEntity
  8
0
  6
Continuous
 62
     7
370
    35
100
AcDbLine
 10
-14.6847402597
 20
13.475
 30
0.0
 11
-14.7003246753
 21
13.475
 31
0.0
  0
LINE
  5
E1
330
1F
100
AcDbEntity
  8
0
  6
Continuous
 62
     7
370
    35
100
AcDbLine
 10
-14.6847402597
 20
13.625
 30
0.0
 11
-14.6847402597
 21
13.475
 31
0.0
  0
LINE
  5
E2
330
1F
100
AcDbEntity
  8
0
  6
Continuous
 62
     7
370
    35
100
AcDbLine
 10
-14.7626623377
 20
13.625
 30
0.0
 11
-14.6847402597
 21
13.625
 31
0.0
  0
LINE
  5
E3
330
1F
100
AcDbEntity
  8
0
  6
Continuous
 62
     7
370
    35
100
AcDbLine
 10
-14.7626623377
 20
13.6074675325
 30
0.0
 11
-14.7626623377
 21
13.625
 31
0.0
  0
LINE
  5
E4
330
1F
100
AcDbEntity
  8
0
  6
Continuous
 62
     7
370
    35
100
AcDbLine
 10
-14.8814935065
 20
13.5178571429
 30
0.0
 11
-14.8659090909
 21
13.5217532468
 31
0.0
  0
LINE
  5
E5
330
1F
100
AcDbEntity
  8
0
  6
Continuous
 62
     7
370
    35
100
AcDbLine
 10
-14.8678571429
 20
13.5724025974
 30
0.0
 11
-14.8834415584
 21
13.5762987013
 31
0.0
  0
LINE
  5
E6
330
1F
100
AcDbEntity
  8
0
  6
Continuous
 62
     7
370
    35
100
AcDbLine
 10
-14.9944805195
 20
13.5178571429
 30
0.0
 11
-14.9788961039
 21
13.5198051948
 31
0.0
  0
LINE
  5
E7
330
1F
100
AcDbEntity
  8
0
  6
Continuous
 62
     7
370
    35
100
AcDbLine
 10
-14.900974026
 20
13.5762987013
 30
0.0
 11
-14.9165584416
 21
13.5743506494
 31
0.0
  0
LINE
  5
E8
330
1F
100
AcDbEntity
  8
0
  6
Continuous
 62
     7
370
    35
100
AcDbLine
 10
-15.0878956981
 20
13.5801948052
 30
0.0
 11
-15.0354809253
 21
13.5801948052
 31
0.0
  0
LINE
  5
E9
330
1F
100
AcDbEntity
  8
0
  6
Continuous
 62
     7
370
    35
100
AcDbLine
 10
-15.1010146104
 20
13.625
 30
0.0
 11
-15.0878956981
 21
13.5801948052
 31
0.0
  0
LINE
  5
EA
330
1F
100
AcDbEntity
  8
0
  6
Continuous
 62
     7
370
    35
100
AcDbLine
 10
-15.1172077922
 20
13.625
 30
0.0
 11
-15.1010146104
 21
13.625
 31
0.0
  0
LINE
  5
EB
330
1F
100
AcDbEntity
  8
0
  6
Continuous
 62
     7
370
    35
100
AcDbLine
 10
-15.0692674513
 20
13.475
 30
0.0
 11
-15.1172077922
 21
13.625
 31
0.0
  0
LINE
  5
EC
330
1F
100
AcDbEntity
  8
0
  6
Continuous
 62
     7
370
    35
100
AcDbLine
 10
-15.0540787338
 20
13.475
 30
0.0
 11
-15.0692674513
 21
13.475
 31
0.0
  0
LINE
  5
ED
330
1F
100
AcDbEntity
  8
0
  6
Continuous
 62
     7
370
    35
100
AcDbLine
 10
-15.0061688312
 20
13.625
 30
0.0
 11
-15.0540787338
 21
13.475
 31
0.0
  0
LINE
  5
EE
330
1F
100
AcDbEntity
  8
0
  6
Continuous
 62
     7
370
    35
100
AcDbLine
 10
-15.0223924513
 20
13.625
 30
0.0
 11
-15.0061688312
 21
13.625
 31
0.0
  0
LINE
  5
EF
330
1F
100
AcDbEntity
  8
0
  6
Continuous
 62
     7
370
    35
100
AcDbLine
 10
-15.0354809253
 20
13.5801948052
 30
0.0
 11
-15.0223924513
 21
13.625
 31
0.0
  0
LINE
  5
F0
330
1F
100
AcDbEntity
  8
0
  6
Continuous
 62
     7
370
    35
100
AcDbLine
 10
-15.2418831169
 20
13.5626623377
 30
0.0
 11
-15.2886363636
 21
13.5626623377
 31
0.0
  0
LINE
  5
F1
330
1F
100
AcDbEntity
  8
0
  6
Continuous
 62
     7
370
    35
100
AcDbLine
 10
-15.2418831169
 20
13.5801948052
 30
0.0
 11
-15.2418831169
 21
13.5626623377
 31
0.0
  0
LINE
  5
F2
330
1F
100
AcDbEntity
  8
0
  6
Continuous
 62
     7
370
    35
100
AcDbLine
 10
-15.2886363636
 20
13.5801948052
 30
0.0
 11
-15.2418831169
 21
13.5801948052
 31
0.0
  0
LINE
  5
F3
330
1F
100
AcDbEntity
  8
0
  6
Continuous
 62
     7
370
    35
100
AcDbLine
 10
-15.2886363636
 20
13.5626623377
 30
0.0
 11
-15.2886363636
 21
13.5801948052
 31
0.0
  0
LINE
  5
F4
330
1F
100
AcDbEntity
  8
0
  6
Continuous
 62
     7
370
    35
100
AcDbLine
 10
-15.3782467532
 20
13.5100649351
 30
0.0
 11
-15.3626623377
 21
13.512012987
 31
0.0
  0
LINE
  5
F5
330
1F
100
AcDbEntity
  8
0
  6
Continuous
 62
     7
370
    35
100
AcDbLine
 10
-15.5243506494
 20
13.625
 30
0.0
 11
-15.5087662338
 21
13.625
 31
0.0
  0
LINE
  5
F6
330
1F
100
AcDbEntity
  8
0
  6
Continuous
 62
     7
370
    35
100
AcDbLine
 10
-15.5711038961
 20
13.4769480519
 30
0.0
 11
-15.5711038961
 21
13.4912844968
 31
0.0
  0
LINE
  5
F7
330
1F
100
AcDbEntity
  8
0
  6
Continuous
 62
     7
370
    35
100
AcDbLine
 10
-15.4912337662
 20
13.4769480519
 30
0.0
 11
-15.5711038961
 21
13.4769480519
 31
0.0
  0
LINE
  5
F8
330
1F
100
AcDbEntity
  8
0
  6
Continuous
 62
     7
370
    35
100
AcDbLine
 10
-15.4912337662
 20
13.4944805195
 30
0.0
 11
-15.4912337662
 21
13.4769480519
 31
0.0
  0
LINE
  5
F9
330
1F
100
AcDbEntity
  8
0
  6
Continuous
 62
     7
370
    35
100
AcDbLine
 10
-15.5555194805
 20
13.4944805195
 30
0.0
 11
-15.4912337662
 21
13.4944805195
 31
0.0
  0
LINE
  5
FA
330
1F
100
AcDbEntity
  8
0
  6
Continuous
 62
     7
370
    35
100
AcDbLine
 10
0.0
 20
0.0
 30
0.0
 11
-16.375
 21
0.0
 31
0.0
  0
LINE
  5
FB
330
1F
100
AcDbEntity
  8
0
  6
Continuous
 62
     7
370
    35
100
AcDbLine
 10
-16.375
 20
0.0
 30
0.0
 11
-16.375
 21
13.875
 31
0.0
  0
LINE
  5
FC
330
1F
100
AcDbEntity
  8
0
  6
Continuous
 62
     7
370
    35
100
AcDbLine
 10
-16.375
 20
13.875
 30
0.0
 11
0.0
 21
13.875
 31
0.0
  0
LINE
  5
FD
330
1F
100
AcDbEntity
  8
0
  6
Continuous
 62
     7
370
    35
100
AcDbLine
 10
0.0
 20
13.875
 30
0.0
 11
0.0
 21
0.0
 31
0.0
  0
LINE
  5
FE
330
1F
100
AcDbEntity
  8
0
  6
Continuous
 62
     7
370
    35
100
AcDbLine
 10
-15.1819805195
 20
13.5646103896
 30
0.0
 11
-15.1503246753
 21
13.5646103896
 31
0.0
  0
LINE
  5
FF
330
1F
100
AcDbEntity
  8
0
  6
Continuous
 62
     7
370
    35
100
AcDbLine
 10
-15.1347402597
 20
13.475
 30
0.0
 11
-15.1809456169
 21
13.475
 31
0.0
  0
LINE
  5
100
330
1F
100
AcDbEntity
  8
0
  6
Continuous
 62
     7
370
    35
100
AcDbLine
 10
-15.1347402597
 20
13.625
 30
0.0
 11
-15.1347402597
 21
13.475
 31
0.0
  0
LINE
  5
101
330
1F
100
AcDbEntity
  8
0
  6
Continuous
 62
     7
370
    35
100
AcDbLine
 10
-15.1503246753
 20
13.625
 30
0.0
 11
-15.1347402597
 21
13.625
 31
0.0
  0
LINE
  5
102
330
1F
100
AcDbEntity
  8
0
  6
Continuous
 62
     7
370
    35
100
AcDbLine
 10
-15.1503246753
 20
13.5646103896
 30
0.0
 11
-15.1503246753
 21
13.625
 31
0.0
  0
LINE
  5
103
330
1F
100
AcDbEntity
  8
0
  6
Continuous
 62
     7
370
    35
100
AcDbLine
 10
-15.1503246753
 20
13.5470779221
 30
0.0
 11
-15.1829545455
 21
13.5470779221
 31
0.0
  0
LINE
  5
104
330
1F
100
AcDbEntity
  8
0
  6
Continuous
 62
     7
370
    35
100
AcDbLine
 10
-15.1826501623
 20
13.4925324675
 30
0.0
 11
-15.1503246753
 21
13.4925324675
 31
0.0
  0
LINE
  5
105
330
1F
100
AcDbEntity
  8
0
  6
Continuous
 62
     7
370
    35
100
AcDbLine
 10
-15.1503246753
 20
13.4925324675
 30
0.0
 11
-15.1503246753
 21
13.5470779221
 31
0.0
  0
LINE
  5
106
330
1F
100
AcDbEntity
  8
0
  6
Continuous
 62
     7
370
    35
100
AcDbLine
 10
-15.0405945617
 20
13.5626623377
 30
0.0
 11
-15.0827516234
 21
13.5626623377
 31
0.0
  0
LINE
  5
107
330
1F
100
AcDbEntity
  8
0
  6
Continuous
 62
     7
370
    35
100
AcDbLine
 10
-15.0547179383
 20
13.5190137987
 30
0.0
 11
-15.0405945617
 21
13.5626623377
 31
0.0
  0
LINE
  5
108
330
1F
100
AcDbEntity
  8
0
  6
Continuous
 62
     7
370
    35
100
AcDbLine
 10
-15.0827516234
 20
13.5626623377
 30
0.0
 11
-15.070211039
 21
13.5214488636
 31
0.0
  0
MTEXT
  5
10A
330
1F
100
AcDbEntity
  8
0
  6
Continuous
 62
     7
100
AcDbMText
 10
-16.375
 20
-0.0401404091
 30
0.0
 40
0.1903
 41
0.0
 71
     1
 72
     1
  1
SOLIDWORKS Educational Product.
  7
SLDTEXTSTYLE0
 73
     1
 44
1.0
  0
MTEXT
  5
10B
330
1F
100
AcDbEntity
  8
0
  6
Continuous
 62
     7
100
AcDbMText
 10
-16.375
 20
-0.3255904091
 30
0.0
 40
0.1903
 41
0.0
 71
     1
 72
     1
  1
For Instructional Use Only.
  7
SLDTEXTSTYLE0
 73
     1
 44
1.0
  0
ENDSEC
  0
SECTION
  2
OBJECTS
  0
DICTIONARY
  5
C
330
0
100
AcDbDictionary
281
     1
  3
ACAD_GROUP
350
D
  3
ACAD_LAYOUT
350
1A
  3
ACAD_MLINESTYLE
350
17
  3
ACAD_PLOTSETTINGS
350
19
  3
ACAD_PLOTSTYLENAME
350
E
  3
ACAD_SCALELIST
350
47
  0
DICTIONARY
  5
D
102
{ACAD_REACTORS
330
C
102
}
330
C
100
AcDbDictionary
281
     1
  0
DICTIONARY
  5
1A
102
{ACAD_REACTORS
330
C
102
}
330
C
100
AcDbDictionary
281
     1
  3
Layout1
350
1E
  3
Layout2
350
26
  3
Model
350
22
  0
DICTIONARY
  5
17
102
{ACAD_REACTORS
330
C
102
}
330
C
100
AcDbDictionary
281
     1
  3
Standard
350
18
  0
DICTIONARY
  5
19
102
{ACAD_REACTORS
330
C
102
}
330
C
100
AcDbDictionary
281
     1
  0
ACDBDICTIONARYWDFLT
  5
E
102
{ACAD_REACTORS
330
C
102
}
330
C
100
AcDbDictionary
281
     1
  3
Normal
350
F
100
AcDbDictionaryWithDefault
340
F
  0
DICTIONARY
  5
47
102
{ACAD_REACTORS
330
C
102
}
330
C
100
AcDbDictionary
281
     1
  3
A0
350
48
  3
A1
350
49
  3
A2
350
4A
  3
A3
350
4B
  3
A4
350
4C
  3
A5
350
4D
  3
A6
350
4E
  3
A7
350
4F
  3
A8
350
50
  3
A9
350
51
  3
B0
350
52
  3
B1
350
53
  3
B2
350
54
  3
B3
350
55
  3
B4
350
56
  3
B5
350
57
  3
B6
350
58
  3
B7
350
59
  3
B8
350
5A
  3
B9
350
5B
  3
C0
350
5C
  3
C1
350
5D
  3
C2
350
5E
  3
C3
350
5F
  3
C4
350
60
  3
C5
350
61
  3
C6
350
62
  3
C7
350
63
  3
C8
350
64
  3
C9
350
65
  3
D0
350
66
  3
D1
350
67
  3
D2
350
68
  0
LAYOUT
  5
1E
102
{ACAD_REACTORS
330
1A
102
}
330
1A
100
AcDbPlotSettings
  1

  2
none_device
  4

  6

 40
0.0
 41
0.0
 42
0.0
 43
0.0
 44
0.0
 45
0.0
 46
0.0
 47
0.0
 48
0.0
 49
0.0
140
0.0
141
0.0
142
1.0
143
1.0
 70
   688
 72
     0
 73
     0
 74
     5
  7

 75
    16
147
1.0
148
0.0
149
0.0
100
AcDbLayout
  1
Layout1
 70
     1
 71
     1
 10
0.0
 20
0.0
 11
12.0
 21
9.0
 12
0.0
 22
0.0
 32
0.0
 14
1.0000000000E+20
 24
1.0000000000E+20
 34
1.0000000000E+20
 15
-1.0000000000E+20
 25
-1.0000000000E+20
 35
-1.0000000000E+20
146
0.0
 13
0.0
 23
0.0
 33
0.0
 16
1.0
 26
0.0
 36
0.0
 17
0.0
 27
1.0
 37
0.0
 76
     0
330
1B
  0
LAYOUT
  5
26
102
{ACAD_REACTORS
330
1A
102
}
330
1A
100
AcDbPlotSettings
  1

  2
none_device
  4

  6

 40
0.0
 41
0.0
 42
0.0
 43
0.0
 44
0.0
 45
0.0
 46
0.0
 47
0.0
 48
0.0
 49
0.0
140
0.0
141
0.0
142
1.0
143
1.0
 70
   688
 72
     0
 73
     0
 74
     5
  7

 75
    16
147
1.0
148
0.0
149
0.0
100
AcDbLayout
  1
Layout2
 70
     1
 71
     2
 10
0.0
 20
0.0
 11
0.0
 21
0.0
 12
0.0
 22
0.0
 32
0.0
 14
0.0
 24
0.0
 34
0.0
 15
0.0
 25
0.0
 35
0.0
146
0.0
 13
0.0
 23
0.0
 33
0.0
 16
1.0
 26
0.0
 36
0.0
 17
0.0
 27
1.0
 37
0.0
 76
     0
330
23
  0
LAYOUT
  5
22
102
{ACAD_REACTORS
330
1A
102
}
330
1A
100
AcDbPlotSettings
  1

  2
none_device
  4
ANSI_A_(11.00_x_8.50_Inches)
  6

 40
6.35
 41
19.05
 42
6.35000508
 43
19.05000254
 44
279.4
 45
215.9
 46
259.4764434059
 47
-17.97050127
 48
0.0
 49
0.0
140
0.0
141
0.0
142
0.6064864865
143
1.0
 70
  1696
 72
     0
 73
     0
 74
     0
  7

 75
     0
147
0.5913241897
148
-39.4088153714
149
0.0
100
AcDbLayout
  1
Model
 70
     1
 71
     0
 10
0.0
 20
0.0
 11
12.0
 21
9.0
 12
0.0
 22
0.0
 32
0.0
 14
-16.375
 24
0.0
 34
0.0
 15
0.0
 25
13.875
 35
0.0
146
0.0
 13
0.0
 23
0.0
 33
0.0
 16
1.0
 26
0.0
 36
0.0
 17
0.0
 27
1.0
 37
0.0
 76
     0
330
1F
331
29
  0
MLINESTYLE
  5
18
102
{ACAD_REACTORS
330
17
102
}
330
17
100
AcDbMlineStyle
  2
Standard
 70
     0
  3

 62
   256
 51
90.0
 52
90.0
 71
     2
 49
0.5
 62
   256
  6
BYLAYER
 49
-0.5
 62
   256
  6
BYLAYER
  0
ACDBPLACEHOLDER
  5
F
102
{ACAD_REACTORS
330
E
102
}
330
E
  0
SCALE
  5
48
102
{ACAD_REACTORS
330
47
102
}
330
47
100
AcDbScale
 70
     0
300
1:1
140
1.0
141
1.0
290
     1
  0
SCALE
  5
49
102
{ACAD_REACTORS
330
47
102
}
330
47
100
AcDbScale
 70
     0
300
1:2
140
1.0
141
2.0
290
     0
  0
SCALE
  5
4A
102
{ACAD_REACTORS
330
47
102
}
330
47
100
AcDbScale
 70
     0
300
1:4
140
1.0
141
4.0
290
     0
  0
SCALE
  5
4B
102
{ACAD_REACTORS
330
47
102
}
330
47
100
AcDbScale
 70
     0
300
1:5
140
1.0
141
5.0
290
     0
  0
SCALE
  5
4C
102
{ACAD_REACTORS
330
47
102
}
330
47
100
AcDbScale
 70
     0
300
1:8
140
1.0
141
8.0
290
     0
  0
SCALE
  5
4D
102
{ACAD_REACTORS
330
47
102
}
330
47
100
AcDbScale
 70
     0
300
1:10
140
1.0
141
10.0
290
     0
  0
SCALE
  5
4E
102
{ACAD_REACTORS
330
47
102
}
330
47
100
AcDbScale
 70
     0
300
1:16
140
1.0
141
16.0
290
     0
  0
SCALE
  5
4F
102
{ACAD_REACTORS
330
47
102
}
330
47
100
AcDbScale
 70
     0
300
1:20
140
1.0
141
20.0
290
     0
  0
SCALE
  5
50
102
{ACAD_REACTORS
330
47
102
}
330
47
100
AcDbScale
 70
     0
300
1:30
140
1.0
141
30.0
290
     0
  0
SCALE
  5
51
102
{ACAD_REACTORS
330
47
102
}
330
47
100
AcDbScale
 70
     0
300
1:40
140
1.0
141
40.0
290
     0
  0
SCALE
  5
52
102
{ACAD_REACTORS
330
47
102
}
330
47
100
AcDbScale
 70
     0
300
1:50
140
1.0
141
50.0
290
     0
  0
SCALE
  5
53
102
{ACAD_REACTORS
330
47
102
}
330
47
100
AcDbScale
 70
     0
300
1:100
140
1.0
141
100.0
290
     0
  0
SCALE
  5
54
102
{ACAD_REACTORS
330
47
102
}
330
47
100
AcDbScale
 70
     0
300
2:1
140
2.0
141
1.0
290
     0
  0
SCALE
  5
55
102
{ACAD_REACTORS
330
47
102
}
330
47
100
AcDbScale
 70
     0
300
4:1
140
4.0
141
1.0
290
     0
  0
SCALE
  5
56
102
{ACAD_REACTORS
330
47
102
}
330
47
100
AcDbScale
 70
     0
300
8:1
140
8.0
141
1.0
290
     0
  0
SCALE
  5
57
102
{ACAD_REACTORS
330
47
102
}
330
47
100
AcDbScale
 70
     0
300
10:1
140
10.0
141
1.0
290
     0
  0
SCALE
  5
58
102
{ACAD_REACTORS
330
47
102
}
330
47
100
AcDbScale
 70
     0
300
100:1
140
100.0
141
1.0
290
     0
  0
SCALE
  5
59
102
{ACAD_REACTORS
330
47
102
}
330
47
100
AcDbScale
 70
     0
300
1/128" = 1'-0"
140
0.0078125
141
12.0
290
     0
  0
SCALE
  5
5A
102
{ACAD_REACTORS
330
47
102
}
330
47
100
AcDbScale
 70
     0
300
1/64" = 1'-0"
140
0.015625
141
12.0
290
     0
  0
SCALE
  5
5B
102
{ACAD_REACTORS
330
47
102
}
330
47
100
AcDbScale
 70
     0
300
1/32" = 1'-0"
140
0.03125
141
12.0
290
     0
  0
SCALE
  5
5C
102
{ACAD_REACTORS
330
47
102
}
330
47
100
AcDbScale
 70
     0
300
1/16" = 1'-0"
140
0.0625
141
12.0
290
     0
  0
SCALE
  5
5D
102
{ACAD_REACTORS
330
47
102
}
330
47
100
AcDbScale
 70
     0
300
3/32" = 1'-0"
140
0.09375
141
12.0
290
     0
  0
SCALE
  5
5E
102
{ACAD_REACTORS
330
47
102
}
330
47
100
AcDbScale
 70
     0
300
1/8" = 1'-0"
140
0.125
141
12.0
290
     0
  0
SCALE
  5
5F
102
{ACAD_REACTORS
330
47
102
}
330
47
100
AcDbScale
 70
     0
300
3/16" = 1'-0"
140
0.1875
141
12.0
290
     0
  0
SCALE
  5
60
102
{ACAD_REACTORS
330
47
102
}
330
47
100
AcDbScale
 70
     0
300
1/4" = 1'-0"
140
0.25
141
12.0
290
     0
  0
SCALE
  5
61
102
{ACAD_REACTORS
330
47
102
}
330
47
100
AcDbScale
 70
     0
300
3/8" = 1'-0"
140
0.375
141
12.0
290
     0
  0
SCALE
  5
62
102
{ACAD_REACTORS
330
47
102
}
330
47
100
AcDbScale
 70
     0
300
1/2" = 1'-0"
140
0.5
141
12.0
290
     0
  0
SCALE
  5
63
102
{ACAD_REACTORS
330
47
102
}
330
47
100
AcDbScale
 70
     0
300
3/4" = 1'-0"
140
0.75
141
12.0
290
     0
  0
SCALE
  5
64
102
{ACAD_REACTORS
330
47
102
}
330
47
100
AcDbScale
 70
     0
300
1" = 1'-0"
140
1.0
141
12.0
290
     0
  0
SCALE
  5
65
102
{ACAD_REACTORS
330
47
102
}
330
47
100
AcDbScale
 70
     0
300
1-1/2" = 1'-0"
140
1.5
141
12.0
290
     0
  0
SCALE
  5
66
102
{ACAD_REACTORS
330
47
102
}
330
47
100
AcDbScale
 70
     0
300
3" = 1'-0"
140
3.0
141
12.0
290
     0
  0
SCALE
  5
67
102
{ACAD_REACTORS
330
47
102
}
330
47
100
AcDbScale
 70
     0
300
6" = 1'-0"
140
6.0
141
12.0
290
     0
  0
SCALE
  5
68
102
{ACAD_REACTORS
330
47
102
}
330
47
100
AcDbScale
 70
     0
300
1'-0" = 1'-0"
140
12.0
141
12.0
290
     0
  0
ENDSEC
  0
EOF
