  0
SECTION
  2
HEADER
  9
$ACADVER
  1
AC1015
  9
$ACADMAINTVER
 70
     6
  9
$DWGCODEPAGE
  3
ANSI_1252
  9
$INSBASE
 10
0.0
 20
0.0
 30
0.0
  9
$EXTMIN
 10
0.0
 20
0.0
 30
0.0
  9
$EXTMAX
 10
15.96
 20
6.775
 30
0.0
  9
$LIMMIN
 10
0.0
 20
0.0
  9
$LIMMAX
 10
12.0
 20
9.0
  9
$ORTHOMODE
 70
     0
  9
$REGENMODE
 70
     1
  9
$FILLMODE
 70
     1
  9
$QTEXTMODE
 70
     0
  9
$MIRRTEXT
 70
     1
  9
$LTSCALE
 40
1.0
  9
$ATTMODE
 70
     1
  9
$TEXTSIZE
 40
0.15
  9
$TRACEWID
 40
0.05
  9
$TEXTSTYLE
  7
Standard
  9
$CLAYER
  8
0
  9
$CELTYPE
  6
ByLayer
  9
$CECOLOR
 62
   256
  9
$CELTSCALE
 40
1.0
  9
$DISPSILH
 70
     0
  9
$DIMSCALE
 40
1.0
  9
$DIMASZ
 40
0.15
  9
$DIMEXO
 40
0.09
  9
$DIMDLI
 40
0.38
  9
$DIMRND
 40
0.0
  9
$DIMDLE
 40
0.0
  9
$DIMEXE
 40
0.125
  9
$DIMTP
 40
0.0
  9
$DIMTM
 40
0.0
  9
$DIMTXT
 40
0.15
  9
$DIMCEN
 40
0.09
  9
$DIMTSZ
 40
0.0
  9
$DIMTOL
 70
     0
  9
$DIMLIM
 70
     0
  9
$DIMTIH
 70
     1
  9
$DIMTOH
 70
     1
  9
$DIMSE1
 70
     0
  9
$DIMSE2
 70
     0
  9
$DIMTAD
 70
     0
  9
$DIMZIN
 70
     0
  9
$DIMBLK
  1

  9
$DIMASO
 70
     1
  9
$DIMSHO
 70
     1
  9
$DIMPOST
  1

  9
$DIMAPOST
  1

  9
$DIMALT
 70
     0
  9
$DIMALTD
 70
     2
  9
$DIMALTF
 40
25.4
  9
$DIMLFAC
 40
1.0
  9
$DIMTOFL
 70
     0
  9
$DIMTVP
 40
0.0
  9
$DIMTIX
 70
     0
  9
$DIMSOXD
 70
     0
  9
$DIMSAH
 70
     0
  9
$DIMBLK1
  1

  9
$DIMBLK2
  1

  9
$DIMSTYLE
  2
Standard
  9
$DIMCLRD
 70
     0
  9
$DIMCLRE
 70
     0
  9
$DIMCLRT
 70
     0
  9
$DIMTFAC
 40
1.0
  9
$DIMGAP
 40
0.09
  9
$DIMJUST
 70
     0
  9
$DIMSD1
 70
     0
  9
$DIMSD2
 70
     0
  9
$DIMTOLJ
 70
     1
  9
$DIMTZIN
 70
     0
  9
$DIMALTZ
 70
     0
  9
$DIMALTTZ
 70
     0
  9
$DIMUPT
 70
     0
  9
$DIMDEC
 70
     4
  9
$DIMTDEC
 70
     4
  9
$DIMALTU
 70
     2
  9
$DIMALTTD
 70
     2
  9
$DIMTXSTY
  7
Standard
  9
$DIMAUNIT
 70
     0
  9
$DIMADEC
 70
     2
  9
$DIMALTRND
 40
0.0
  9
$DIMAZIN
 70
     0
  9
$DIMDSEP
 70
    46
  9
$DIMATFIT
 70
     3
  9
$DIMFRAC
 70
     0
  9
$DIMLDRBLK
  1

  9
$DIMLUNIT
 70
     2
  9
$DIMLWD
 70
    -2
  9
$DIMLWE
 70
    -2
  9
$DIMTMOVE
 70
     0
  9
$LUNITS
 70
     2
  9
$LUPREC
 70
     4
  9
$SKETCHINC
 40
0.1
  9
$FILLETRAD
 40
0.5
  9
$AUNITS
 70
     0
  9
$AUPREC
 70
     2
  9
$MENU
  1
.
  9
$ELEVATION
 40
0.0
  9
$PELEVATION
 40
0.0
  9
$THICKNESS
 40
0.0
  9
$LIMCHECK
 70
     0
  9
$CHAMFERA
 40
0.0
  9
$CHAMFERB
 40
0.0
  9
$CHAMFERC
 40
0.0
  9
$CHAMFERD
 40
0.0
  9
$SKPOLY
 70
     0
  9
$TDCREATE
 40
2458228.46258971
  9
$TDUCREATE
 40
2458228.754256377
  9
$TDUPDATE
 40
2458228.462622975
  9
$TDUUPDATE
 40
2458228.754289641
  9
$TDINDWG
 40
0.0000000116
  9
$TDUSRTIMER
 40
0.0000000116
  9
$USRTIMER
 70
     1
  9
$ANGBASE
 50
0.0
  9
$ANGDIR
 70
     0
  9
$PDMODE
 70
     0
  9
$PDSIZE
 40
-1.0
  9
$PLINEWID
 40
0.0
  9
$SPLFRAME
 70
     0
  9
$SPLINETYPE
 70
     6
  9
$SPLINESEGS
 70
     8
  9
$HANDSEED
  5
115
  9
$SURFTAB1
 70
     6
  9
$SURFTAB2
 70
     6
  9
$SURFTYPE
 70
     6
  9
$SURFU
 70
     6
  9
$SURFV
 70
     6
  9
$UCSBASE
  2

  9
$UCSNAME
  2

  9
$UCSORG
 10
0.0
 20
0.0
 30
0.0
  9
$UCSXDIR
 10
1.0
 20
0.0
 30
0.0
  9
$UCSYDIR
 10
0.0
 20
1.0
 30
0.0
  9
$UCSORTHOREF
  2

  9
$UCSORTHOVIEW
 70
     0
  9
$UCSORGTOP
 10
0.0
 20
0.0
 30
0.0
  9
$UCSORGBOTTOM
 10
0.0
 20
0.0
 30
0.0
  9
$UCSORGLEFT
 10
0.0
 20
0.0
 30
0.0
  9
$UCSORGRIGHT
 10
0.0
 20
0.0
 30
0.0
  9
$UCSORGFRONT
 10
0.0
 20
0.0
 30
0.0
  9
$UCSORGBACK
 10
0.0
 20
0.0
 30
0.0
  9
$PUCSBASE
  2

  9
$PUCSNAME
  2

  9
$PUCSORG
 10
0.0
 20
0.0
 30
0.0
  9
$PUCSXDIR
 10
1.0
 20
0.0
 30
0.0
  9
$PUCSYDIR
 10
0.0
 20
1.0
 30
0.0
  9
$PUCSORTHOREF
  2

  9
$PUCSORTHOVIEW
 70
     0
  9
$PUCSORGTOP
 10
0.0
 20
0.0
 30
0.0
  9
$PUCSORGBOTTOM
 10
0.0
 20
0.0
 30
0.0
  9
$PUCSORGLEFT
 10
0.0
 20
0.0
 30
0.0
  9
$PUCSORGRIGHT
 10
0.0
 20
0.0
 30
0.0
  9
$PUCSORGFRONT
 10
0.0
 20
0.0
 30
0.0
  9
$PUCSORGBACK
 10
0.0
 20
0.0
 30
0.0
  9
$USERI1
 70
     0
  9
$USERI2
 70
     0
  9
$USERI3
 70
     0
  9
$USERI4
 70
     0
  9
$USERI5
 70
     0
  9
$USERR1
 40
0.0
  9
$USERR2
 40
0.0
  9
$USERR3
 40
0.0
  9
$USERR4
 40
0.0
  9
$USERR5
 40
0.0
  9
$WORLDVIEW
 70
     1
  9
$SHADEDGE
 70
     3
  9
$SHADEDIF
 70
    70
  9
$TILEMODE
 70
     1
  9
$MAXACTVP
 70
    64
  9
$PINSBASE
 10
0.0
 20
0.0
 30
0.0
  9
$PLIMCHECK
 70
     0
  9
$PEXTMIN
 10
1.0000000000E+20
 20
1.0000000000E+20
 30
1.0000000000E+20
  9
$PEXTMAX
 10
-1.0000000000E+20
 20
-1.0000000000E+20
 30
-1.0000000000E+20
  9
$PLIMMIN
 10
0.0
 20
0.0
  9
$PLIMMAX
 10
12.0
 20
9.0
  9
$UNITMODE
 70
     0
  9
$VISRETAIN
 70
     1
  9
$PLINEGEN
 70
     0
  9
$PSLTSCALE
 70
     1
  9
$TREEDEPTH
 70
  3020
  9
$CMLSTYLE
  2
Standard
  9
$CMLJUST
 70
     0
  9
$CMLSCALE
 40
1.0
  9
$PROXYGRAPHICS
 70
     1
  9
$MEASUREMENT
 70
     0
  9
$CELWEIGHT
370
    -1
  9
$ENDCAPS
280
     0
  9
$JOINSTYLE
280
     0
  9
$LWDISPLAY
290
     1
  9
$INSUNITS
 70
     1
  9
$HYPERLINKBASE
  1

  9
$STYLESHEET
  1

  9
$XEDIT
290
     1
  9
$CEPSNTYPE
380
     0
  9
$PSTYLEMODE
290
     1
  9
$FINGERPRINTGUID
  2
{105840DD-30C4-4E7B-B962-5A92F93BE999}
  9
$VERSIONGUID
  2
{FAEB1C32-E019-11D5-929B-00C0DF256EC4}
  9
$EXTNAMES
290
     1
  9
$PSVPSCALE
 40
0.0
  9
$OLESTARTUP
290
     0
  0
ENDSEC
  0
SECTION
  2
CLASSES
  0
CLASS
  1
ACDBDICTIONARYWDFLT
  2
AcDbDictionaryWithDefault
  3
ObjectDBX Classes
 90
        0
280
     0
281
     0
  0
CLASS
  1
VISUALSTYLE
  2
AcDbVisualStyle
  3
ObjectDBX Classes
 90
     4095
280
     0
281
     0
  0
CLASS
  1
MATERIAL
  2
AcDbMaterial
  3
ObjectDBX Classes
 90
     1153
280
     0
281
     0
  0
CLASS
  1
SCALE
  2
AcDbScale
  3
ObjectDBX Classes
 90
     1153
280
     0
281
     0
  0
CLASS
  1
TABLESTYLE
  2
AcDbTableStyle
  3
ObjectDBX Classes
 90
     4095
280
     0
281
     0
  0
CLASS
  1
MLEADERSTYLE
  2
AcDbMLeaderStyle
  3
ACDB_MLEADERSTYLE_CLASS
 90
     4095
280
     0
281
     0
  0
CLASS
  1
SUN
  2
AcDbSun
  3
SCENEOE
 90
     1153
280
     0
281
     0
  0
CLASS
  1
ACDBPLACEHOLDER
  2
AcDbPlaceHolder
  3
ObjectDBX Classes
 90
        0
280
     0
281
     0
  0
CLASS
  1
LAYOUT
  2
AcDbLayout
  3
ObjectDBX Classes
 90
        0
280
     0
281
     0
  0
ENDSEC
  0
SECTION
  2
TABLES
  0
TABLE
  2
VPORT
  5
8
330
0
100
AcDbSymbolTable
 70
     1
  0
VPORT
  5
29
330
8
100
AcDbSymbolTableRecord
100
AcDbViewportTableRecord
  2
*Active
 70
     0
 10
0.0
 20
0.0
 11
1.0
 21
1.0
 12
7.98
 22
3.3875
 13
0.0
 23
0.0
 14
0.5
 24
0.5
 15
0.5
 25
0.5
 16
0.0
 26
0.0
 36
1.0
 17
0.0
 27
0.0
 37
0.0
 40
6.9105
 41
2.3557195572
 42
50.0
 43
0.0
 44
0.0
 50
0.0
 51
0.0
 71
     0
 72
   100
 73
     1
 74
     3
 75
     0
 76
     0
 77
     0
 78
     0
281
     0
 65
     1
110
0.0
120
0.0
130
0.0
111
1.0
121
0.0
131
0.0
112
0.0
122
1.0
132
0.0
 79
     0
146
0.0
  0
ENDTAB
  0
TABLE
  2
LTYPE
  5
5
330
0
100
AcDbSymbolTable
 70
     6
  0
LTYPE
  5
14
330
5
100
AcDbSymbolTableRecord
100
AcDbLinetypeTableRecord
  2
ByBlock
 70
     0
  3

 72
    65
 73
     0
 40
0.0
  0
LTYPE
  5
15
330
5
100
AcDbSymbolTableRecord
100
AcDbLinetypeTableRecord
  2
ByLayer
 70
     0
  3

 72
    65
 73
     0
 40
0.0
  0
LTYPE
  5
16
330
5
100
AcDbSymbolTableRecord
100
AcDbLinetypeTableRecord
  2
Continuous
 70
     0
  3
Solid line
 72
    65
 73
     0
 40
0.0
  0
LTYPE
  5
6E
330
5
100
AcDbSymbolTableRecord
100
AcDbLinetypeTableRecord
  2
HIDDEN
 70
     0
  3
Hidden __ __ __ __ __ __ __ __ __ __ __ __ __ __
 72
    65
 73
     2
 40
0.075
 49
0.05
 74
     0
 49
-0.025
 74
     0
  0
LTYPE
  5
6F
330
5
100
AcDbSymbolTableRecord
100
AcDbLinetypeTableRecord
  2
PHANTOM
 70
     0
  3
Phantom ______  __  __  ______  __  __  ______
 72
    65
 73
     6
 40
0.5
 49
0.25
 74
     0
 49
-0.05
 74
     0
 49
0.05
 74
     0
 49
-0.05
 74
     0
 49
0.05
 74
     0
 49
-0.05
 74
     0
  0
LTYPE
  5
70
330
5
100
AcDbSymbolTableRecord
100
AcDbLinetypeTableRecord
  2
CENTER
 70
     0
  3
Center ____ _ ____ _ ____ _ ____ _ ____ _ ____
 72
    65
 73
     4
 40
0.4
 49
0.25
 74
     0
 49
-0.05
 74
     0
 49
0.05
 74
     0
 49
-0.05
 74
     0
  0
LTYPE
  5
71
330
5
100
AcDbSymbolTableRecord
100
AcDbLinetypeTableRecord
  2
CENTERX2
 70
     0
  3
Center (2x) ________  __  ________  __  _____
 72
    65
 73
     4
 40
0.8
 49
0.5
 74
     0
 49
-0.1
 74
     0
 49
0.1
 74
     0
 49
-0.1
 74
     0
  0
LTYPE
  5
72
330
5
100
AcDbSymbolTableRecord
100
AcDbLinetypeTableRecord
  2
DOT2
 70
     0
  3
Dot (.5x) ........................................
 72
    65
 73
     2
 40
0.025
 49
0.0
 74
     0
 49
-0.025
 74
     0
  0
ENDTAB
  0
TABLE
  2
LAYER
  5
2
330
0
100
AcDbSymbolTable
 70
     1
  0
LAYER
  5
10
330
2
100
AcDbSymbolTableRecord
100
AcDbLayerTableRecord
  2
0
 70
     0
 62
     7
  6
Continuous
370
    -3
390
F
  0
ENDTAB
  0
TABLE
  2
STYLE
  5
3
330
0
100
AcDbSymbolTable
 70
     2
  0
STYLE
  5
11
330
3
100
AcDbSymbolTableRecord
100
AcDbTextStyleTableRecord
  2
Standard
 70
     0
 40
0.0
 41
1.0
 50
0.0
 71
     0
 42
0.15
  3
txt
  4

  0
STYLE
  5
112
330
3
100
AcDbSymbolTableRecord
100
AcDbTextStyleTableRecord
  2
SLDTEXTSTYLE0
 70
     0
 40
0.0
 41
0.7
 50
0.0
 71
     0
 42
0.15
  3
TXT
  4

  0
ENDTAB
  0
TABLE
  2
VIEW
  5
6
330
0
100
AcDbSymbolTable
 70
     0
  0
ENDTAB
  0
TABLE
  2
UCS
  5
7
330
0
100
AcDbSymbolTable
 70
     0
  0
ENDTAB
  0
TABLE
  2
APPID
  5
9
330
0
100
AcDbSymbolTable
 70
     1
  0
APPID
  5
12
330
9
100
AcDbSymbolTableRecord
100
AcDbRegAppTableRecord
  2
ACAD
 70
     0
  0
ENDTAB
  0
TABLE
  2
DIMSTYLE
  5
A
330
0
100
AcDbSymbolTable
 70
     1
100
AcDbDimStyleTable
  0
DIMSTYLE
105
27
330
A
100
AcDbSymbolTableRecord
100
AcDbDimStyleTableRecord
  2
Standard
 70
     0
178
     0
340
11
  0
ENDTAB
  0
TABLE
  2
BLOCK_RECORD
  5
1
330
0
100
AcDbSymbolTable
 70
     1
  0
BLOCK_RECORD
  5
1F
330
1
100
AcDbSymbolTableRecord
100
AcDbBlockTableRecord
  2
*Model_Space
340
22
  0
BLOCK_RECORD
  5
1B
330
1
100
AcDbSymbolTableRecord
100
AcDbBlockTableRecord
  2
*Paper_Space
340
1E
  0
BLOCK_RECORD
  5
23
330
1
100
AcDbSymbolTableRecord
100
AcDbBlockTableRecord
  2
*Paper_Space0
340
26
  0
ENDTAB
  0
ENDSEC
  0
SECTION
  2
BLOCKS
  0
BLOCK
  5
20
330
1F
100
AcDbEntity
  8
0
100
AcDbBlockBegin
  2
*Model_Space
 70
     0
 10
0.0
 20
0.0
 30
0.0
  3
*Model_Space
  1

  0
ENDBLK
  5
21
330
1F
100
AcDbEntity
  8
0
100
AcDbBlockEnd
  0
BLOCK
  5
1C
330
1B
100
AcDbEntity
 67
     1
  8
0
100
AcDbBlockBegin
  2
*Paper_Space
 70
     0
 10
0.0
 20
0.0
 30
0.0
  3
*Paper_Space
  1

  0
ENDBLK
  5
1D
330
1B
100
AcDbEntity
 67
     1
  8
0
100
AcDbBlockEnd
  0
BLOCK
  5
24
330
23
100
AcDbEntity
  8
0
100
AcDbBlockBegin
  2
*Paper_Space0
 70
     0
 10
0.0
 20
0.0
 30
0.0
  3
*Paper_Space0
  1

  0
ENDBLK
  5
25
330
23
100
AcDbEntity
  8
0
100
AcDbBlockEnd
  0
ENDSEC
  0
SECTION
  2
ENTITIES
  0
SPLINE
  5
73
330
1F
100
AcDbEntity
  8
0
  6
Continuous
 62
     7
370
    35
100
AcDbSpline
210
0.0
220
0.0
230
1.0
 70
     8
 71
     3
 72
    23
 73
    19
 74
     0
 42
0.000000001
 43
0.00000001
 40
0.0
 40
0.0
 40
0.0
 40
0.0
 40
0.0760818847019308
 40
0.147181968764086
 40
0.214636450520015
 40
0.2807490273056454
 40
0.3447419675261264
 40
0.405277302067549
 40
0.4640682072310998
 40
0.5223965270196304
 40
0.5555358908714516
 40
0.5957247630992824
 40
0.6440164047140042
 40
0.6998396320584737
 40
0.7631413591354581
 40
0.8340320168691381
 40
0.9131969726905375
 40
1.0
 40
1.0
 40
1.0
 40
1.0
 10
14.79181818181819
 20
0.353338068181818
 30
0.0
 10
14.79178680581671
 20
0.3545497658005977
 30
0.0
 10
14.79172610829737
 20
0.3568938197337703
 30
0.0
 10
14.79098847396541
 20
0.3602415829592988
 30
0.0
 10
14.7898873114483
 20
0.3633191834084585
 30
0.0
 10
14.7882370515644
 20
0.3660117449828536
 30
0.0
 10
14.7863395086181
 20
0.3683817236799072
 30
0.0
 10
14.78419640783492
 20
0.370381321987884
 30
0.0
 10
14.78177980924835
 20
0.3718696256072045
 30
0.0
 10
14.77958100811992
 20
0.3728260973008125
 30
0.0
 10
14.77756194957715
 20
0.3733932558345076
 30
0.0
 10
14.77565058473943
 20
0.3736991517140757
 30
0.0
 10
14.77337690904329
 20
0.3739995602788341
 30
0.0
 10
14.7707296463934
 20
0.3742835246349797
 30
0.0
 10
14.7677125843073
 20
0.3744485478867133
 30
0.0
 10
14.76432283870685
 20
0.3745613997667752
 30
0.0
 10
14.76055859392896
 20
0.3746622700709728
 30
0.0
 10
14.75792012565244
 20
0.3746708416486669
 30
0.0
 10
14.75654017857143
 20
0.3746753246753247
 30
0.0
  0
SPLINE
  5
74
330
1F
100
AcDbEntity
  8
0
  6
Continuous
 62
     7
370
    35
100
AcDbSpline
210
0.0
220
0.0
230
1.0
 70
     8
 71
     3
 72
    23
 73
    19
 74
     0
 42
0.000000001
 43
0.00000001
 40
0.0
 40
0.0
 40
0.0
 40
0.0
 40
0.0802677070168262
 40
0.1539260922464014
 40
0.2210061688261393
 40
0.2815490599671388
 40
0.3356108088835995
 40
0.3826149115544865
 40
0.4239877632283538
 40
0.458615484160598
 40
0.5212552374933722
 40
0.5839932603337816
 40
0.646909879676529
 40
0.7124873417472063
 40
0.7805313367902562
 40
0.8497867786547957
 40
0.9222496394661702
 40
0.9999999999999999
 40
0.9999999999999999
 40
0.9999999999999999
 40
0.9999999999999999
 10
14.75836647727273
 20
0.331818181818182
 30
0.0
 10
14.75959421867092
 20
0.3318234959342626
 30
0.0
 10
14.76194860803542
 20
0.3318336865968907
 30
0.0
 10
14.76532803112011
 20
0.3319248571536739
 30
0.0
 10
14.76840346490053
 20
0.3320724469079294
 30
0.0
 10
14.77117476993576
 20
0.3322823766026377
 30
0.0
 10
14.77363324045254
 20
0.3325465676805486
 30
0.0
 10
14.77578639353372
 20
0.3328830257520262
 30
0.0
 10
14.7776309601706
 20
0.3332603401565559
 30
0.0
 10
14.77966773262169
 20
0.3338618435444862
 30
0.0
 10
14.78190095387128
 20
0.3348925056121363
 30
0.0
 10
14.78432005740273
 20
0.3364751459843752
 30
0.0
 10
14.78648214454225
 20
0.3384638827395274
 30
0.0
 10
14.78837312564447
 20
0.3408137756079141
 30
0.0
 10
14.78993390707198
 20
0.3435145377049466
 30
0.0
 10
14.79101957732965
 20
0.3465465772458274
 30
0.0
 10
14.79171772897989
 20
0.3498464810376858
 30
0.0
 10
14.79178392088786
 20
0.3521472106024892
 30
0.0
 10
14.79181818181818
 20
0.353338068181818
 30
0.0
  0
SPLINE
  5
7E
330
1F
100
AcDbEntity
  8
0
  6
Continuous
 62
     7
370
    35
100
AcDbSpline
210
0.0
220
0.0
230
1.0
 70
     8
 71
     3
 72
    23
 73
    19
 74
     0
 42
0.000000001
 43
0.00000001
 40
0.0
 40
0.0
 40
0.0
 40
0.0
 40
0.0619878079111383
 40
0.1220136469690117
 40
0.1804036113909081
 40
0.2374040620223828
 40
0.2943372323070333
 40
0.350310003229768
 40
0.407281028486225
 40
0.4648945546429804
 40
0.5231160722977108
 40
0.5822614855764426
 40
0.6427352749803977
 40
0.7061846357590245
 40
0.7728257313088917
 40
0.8436750127435456
 40
0.9192278916777126
 40
1.0
 40
1.0
 40
1.0
 40
1.0
 10
14.57363636363637
 20
0.2936181006493503
 30
0.0
 10
14.57360634462954
 20
0.2920432998947218
 30
0.0
 10
14.57354725674397
 20
0.2889435422198382
 30
0.0
 10
14.57292958842341
 20
0.2843974157967619
 30
0.0
 10
14.57204892028272
 20
0.2800269048783523
 30
0.0
 10
14.57071901746903
 20
0.2758494537815416
 30
0.0
 10
14.56901996411102
 20
0.2718780153596062
 30
0.0
 10
14.56695731406434
 20
0.2680822935860969
 30
0.0
 10
14.56451786502745
 20
0.2644966269107729
 30
0.0
 10
14.5617252187927
 20
0.2611039200228683
 30
0.0
 10
14.55852533058868
 20
0.2580043940067495
 30
0.0
 10
14.55487817975694
 20
0.2553211404704709
 30
0.0
 10
14.55081396832914
 20
0.2530400041072083
 30
0.0
 10
14.54631240009094
 20
0.2512369692117184
 30
0.0
 10
14.54140886449759
 20
0.2498040385595886
 30
0.0
 10
14.53609091272014
 20
0.2487770755662219
 30
0.0
 10
14.53034679214291
 20
0.2481725228869489
 30
0.0
 10
14.52637730631585
 20
0.2480930244034309
 30
0.0
 10
14.5243262987013
 20
0.2480519480519479
 30
0.0
  0
SPLINE
  5
7F
330
1F
100
AcDbEntity
  8
0
  6
Continuous
 62
     7
370
    35
100
AcDbSpline
210
0.0
220
0.0
230
1.0
 70
     8
 71
     3
 72
    23
 73
    19
 74
     0
 42
0.000000001
 43
0.00000001
 40
0.0
 40
0.0
 40
0.0
 40
0.0
 40
0.0647347997311347
 40
0.1252317313240516
 40
0.1816504529108948
 40
0.2339281570826924
 40
0.2821506981057227
 40
0.3266084088266856
 40
0.3673816250892853
 40
0.4042234475803022
 40
0.4734348818292321
 40
0.5419661604943496
 40
0.610478343460801
 40
0.6805826553330641
 40
0.7531845964902211
 40
0.8299754787670944
 40
0.9117878364668753
 40
1.0
 40
1.0
 40
1.0
 40
1.0
 10
14.52943993506494
 20
0.3430803571428571
 30
0.0
 10
14.53094513926385
 20
0.342624629806405
 30
0.0
 10
14.53385700936477
 20
0.3417430093550776
 30
0.0
 10
14.53802240455354
 20
0.3402851742110802
 30
0.0
 10
14.54189637909066
 20
0.3389119072995564
 30
0.0
 10
14.54543210614979
 20
0.3374835943274238
 30
0.0
 10
14.54863374956405
 20
0.3360156847297868
 30
0.0
 10
14.55153068326298
 20
0.3345591311263519
 30
0.0
 10
14.55411930609321
 20
0.3331101167227797
 30
0.0
 10
14.55712048678588
 20
0.3311771432330195
 30
0.0
 10
14.56041454031034
 20
0.3284884026381458
 30
0.0
 10
14.56393776148169
 20
0.3249036523867036
 30
0.0
 10
14.56685449422653
 20
0.320783856094187
 30
0.0
 10
14.56936215806018
 20
0.3162933943722335
 30
0.0
 10
14.57126894981825
 20
0.3112964559130864
 30
0.0
 10
14.57267368295006
 20
0.3058483036438662
 30
0.0
 10
14.57349222607813
 20
0.2998928130975535
 30
0.0
 10
14.573587127077
 20
0.2957615062662003
 30
0.0
 10
14.57363636363637
 20
0.2936181006493503
 30
0.0
  0
SPLINE
  5
80
330
1F
100
AcDbEntity
  8
0
  6
Continuous
 62
     7
370
    35
100
AcDbSpline
210
0.0
220
0.0
230
1.0
 70
     8
 71
     3
 72
    15
 73
    11
 74
     0
 42
0.000000001
 43
0.00000001
 40
0.0
 40
0.0
 40
0.0
 40
0.0
 40
0.0726213745877171
 40
0.1605211086753406
 40
0.2626651747376066
 40
0.3793855273274558
 40
0.5119024993951858
 40
0.658321110831364
 40
0.8219091588151823
 40
1.0
 40
1.0
 40
1.0
 40
1.0
 10
14.50670251623377
 20
0.3523336038961038
 30
0.0
 10
14.50718222733859
 20
0.3519772570906987
 30
0.0
 10
14.50824257298511
 20
0.3511895938909692
 30
0.0
 10
14.51015277669261
 20
0.3501736424394761
 30
0.0
 10
14.51239533679646
 20
0.3490220041667111
 30
0.0
 10
14.51507011140302
 20
0.3479270715302847
 30
0.0
 10
14.51809228992074
 20
0.3467276911379739
 30
0.0
 10
14.5215359086637
 20
0.345554927696667
 30
0.0
 10
14.52534772994568
 20
0.3443059034430597
 30
0.0
 10
14.52803780598849
 20
0.3435002711139256
 30
0.0
 10
14.52943993506494
 20
0.3430803571428571
 30
0.0
  0
SPLINE
  5
81
330
1F
100
AcDbEntity
  8
0
  6
Continuous
 62
     7
370
    35
100
AcDbSpline
210
0.0
220
0.0
230
1.0
 70
     8
 71
     3
 72
    11
 73
     7
 74
     0
 42
0.000000001
 43
0.00000001
 40
0.0
 40
0.0
 40
0.0
 40
0.0
 40
0.2466277753245801
 40
0.484851987521816
 40
0.7327568172966294
 40
0.9999999999999999
 40
0.9999999999999999
 40
0.9999999999999999
 40
0.9999999999999999
 10
14.50155844155845
 20
0.3623782467532468
 30
0.0
 10
14.50162404276923
 20
0.3614160706608286
 30
0.0
 10
14.50175300990358
 20
0.3595245035405361
 30
0.0
 10
14.5027540759312
 20
0.3568137122746975
 30
0.0
 10
14.5044028337051
 20
0.354348199923762
 30
0.0
 10
14.50591700831656
 20
0.3530217341532034
 30
0.0
 10
14.50670251623377
 20
0.3523336038961038
 30
0.0
  0
SPLINE
  5
82
330
1F
100
AcDbEntity
  8
0
  6
Continuous
 62
     7
370
    35
100
AcDbSpline
210
0.0
220
0.0
230
1.0
 70
     8
 71
     3
 72
    15
 73
    11
 74
     0
 42
0.000000001
 43
0.00000001
 40
0.0
 40
0.0
 40
0.0
 40
0.0
 40
0.1719378953995341
 40
0.3252816860791695
 40
0.4628438424947839
 40
0.5876014504343088
 40
0.7007102086759247
 40
0.8027282568104489
 40
0.9005063603094591
 40
0.9999999999999999
 40
0.9999999999999999
 40
0.9999999999999999
 40
0.9999999999999999
 10
14.52405235389611
 20
0.3766233766233766
 30
0.0
 10
14.52235459478537
 20
0.3765851351608056
 30
0.0
 10
14.51914267954811
 20
0.3765127878321708
 30
0.0
 10
14.5146237711912
 20
0.3757539918469989
 30
0.0
 10
14.5106942371068
 20
0.3745109641392275
 30
0.0
 10
14.50743583838246
 20
0.3727004122622908
 30
0.0
 10
14.50483842553102
 20
0.3705439652711277
 30
0.0
 10
14.50293183049534
 20
0.3680847541296577
 30
0.0
 10
14.50176021843357
 20
0.3653158007003654
 30
0.0
 10
14.50162608932624
 20
0.3633630918559658
 30
0.0
 10
14.50155844155845
 20
0.3623782467532468
 30
0.0
  0
SPLINE
  5
83
330
1F
100
AcDbEntity
  8
0
  6
Continuous
 62
     7
370
    35
100
AcDbSpline
210
0.0
220
0.0
230
1.0
 70
     8
 71
     3
 72
    19
 73
    15
 74
     0
 42
0.000000001
 43
0.00000001
 40
0.0
 40
0.0
 40
0.0
 40
0.0
 40
0.0799369388779955
 40
0.1546390697363534
 40
0.2247772091550699
 40
0.2897317627411429
 40
0.3511168069194491
 40
0.4079835087949923
 40
0.462627155494159
 40
0.5153201248380803
 40
0.6207060635260244
 40
0.7346178823765842
 40
0.860001053442293
 40
1.0
 40
1.0
 40
1.0
 40
1.0
 10
14.54831168831169
 20
0.355194805194805
 30
0.0
 10
14.54814720027561
 20
0.3561499553587277
 30
0.0
 10
14.54782899598559
 20
0.3579977060342061
 30
0.0
 10
14.54723598329049
 20
0.3606604086024198
 30
0.0
 10
14.54647300944226
 20
0.3630893598569555
 30
0.0
 10
14.54559851528921
 20
0.3653092587991916
 30
0.0
 10
14.54455911661584
 20
0.3672759310750691
 30
0.0
 10
14.54343398089903
 20
0.369049548617248
 30
0.0
 10
14.54214553564995
 20
0.3705748006829183
 30
0.0
 10
14.54026259708047
 20
0.3723460511779915
 30
0.0
 10
14.53743840951972
 20
0.3741106367493769
 30
0.0
 10
14.53351039094688
 20
0.3755946336031692
 30
0.0
 10
14.52897013158648
 20
0.3764654917127636
 30
0.0
 10
14.52575071565222
 20
0.3765688508373539
 30
0.0
 10
14.52405235389611
 20
0.3766233766233766
 30
0.0
  0
SPLINE
  5
85
330
1F
100
AcDbEntity
  8
0
  6
Continuous
 62
     7
370
    35
100
AcDbSpline
210
0.0
220
0.0
230
1.0
 70
     8
 71
     3
 72
    23
 73
    19
 74
     0
 42
0.000000001
 43
0.00000001
 40
0.0
 40
0.0
 40
0.0
 40
0.0
 40
0.0725676756582555
 40
0.1417831117702884
 40
0.2072450084893836
 40
0.2697354967266524
 40
0.3304172385589437
 40
0.3890307491002278
 40
0.4467480070499286
 40
0.5040489335191685
 40
0.5611717773248616
 40
0.6185334219861148
 40
0.6763447490750584
 40
0.7357195900470349
 40
0.7970969270635995
 40
0.8614654047775947
 40
0.928950476217435
 40
0.9999999999999999
 40
0.9999999999999999
 40
0.9999999999999999
 40
0.9999999999999999
 10
14.52414366883117
 20
0.401948051948052
 30
0.0
 10
14.52593075231721
 20
0.401914246297311
 30
0.0
 10
14.52942236556438
 20
0.4018481966365773
 30
0.0
 10
14.53450315248328
 20
0.4012984960348956
 30
0.0
 10
14.53927500978108
 20
0.4003819475404836
 30
0.0
 10
14.54375845406339
 20
0.3991459955480998
 30
0.0
 10
14.54793541152093
 20
0.3975092123306002
 30
0.0
 10
14.55179334471489
 20
0.3954689793525086
 30
0.0
 10
14.55539402704082
 20
0.3931453243690995
 30
0.0
 10
14.5586088389201
 20
0.3903679969844455
 30
0.0
 10
14.56156099113293
 20
0.3873299626024364
 30
0.0
 10
14.56412650600229
 20
0.383935913847796
 30
0.0
 10
14.56628861823587
 20
0.3802125514866184
 30
0.0
 10
14.56812584292266
 20
0.376210651462614
 30
0.0
 10
14.56958968776376
 20
0.3718851900170022
 30
0.0
 10
14.57067080124913
 20
0.3672463682942003
 30
0.0
 10
14.57141323707781
 20
0.3622982919209217
 30
0.0
 10
14.57159506072935
 20
0.3588905620148317
 30
0.0
 10
14.57168831168831
 20
0.3571428571428569
 30
0.0
  0
SPLINE
  5
86
330
1F
100
AcDbEntity
  8
0
  6
Continuous
 62
     7
370
    35
100
AcDbSpline
210
0.0
220
0.0
230
1.0
 70
     8
 71
     3
 72
    19
 73
    15
 74
     0
 42
0.000000001
 43
0.00000001
 40
0.0
 40
0.0
 40
0.0
 40
0.0
 40
0.0846667937594886
 40
0.1662532593289135
 40
0.2465598762319869
 40
0.3262355299065086
 40
0.4052499733277549
 40
0.4823144628187695
 40
0.5588465253014965
 40
0.6371396689613814
 40
0.7190001023746004
 40
0.8059554508533029
 40
0.8992834882027556
 40
1.0
 40
1.0
 40
1.0
 40
1.0
 10
14.47818181818182
 20
0.3605215097402593
 30
0.0
 10
14.47825080570044
 20
0.3624950070652858
 30
0.0
 10
14.47838627084933
 20
0.3663702023808725
 30
0.0
 10
14.47949236034798
 20
0.3720288617276533
 30
0.0
 10
14.48124770986113
 20
0.3773905825180845
 30
0.0
 10
14.48372869833776
 20
0.382394683836276
 30
0.0
 10
14.48681122205559
 20
0.3869611028196507
 30
0.0
 10
14.49050006760212
 20
0.3909587002090963
 30
0.0
 10
14.49473005357162
 20
0.3943481084757597
 30
0.0
 10
14.49950279854316
 20
0.3971466437737679
 30
0.0
 10
14.50485871565909
 20
0.3993075094990454
 30
0.0
 10
14.51078231279769
 20
0.4008388792592977
 30
0.0
 10
14.51727394021834
 20
0.4017998861835553
 30
0.0
 10
14.52179636047008
 20
0.4018974253865919
 30
0.0
 10
14.52414366883117
 20
0.401948051948052
 30
0.0
  0
SPLINE
  5
87
330
1F
100
AcDbEntity
  8
0
  6
Continuous
 62
     7
370
    35
100
AcDbSpline
210
0.0
220
0.0
230
1.0
 70
     8
 71
     3
 72
    23
 73
    19
 74
     0
 42
0.000000001
 43
0.00000001
 40
0.0
 40
0.0
 40
0.0
 40
0.0
 40
0.0622315666949016
 40
0.1205711191536331
 40
0.1753527058728095
 40
0.2260922278551651
 40
0.2733799640348606
 40
0.3177031438577301
 40
0.3579184484278585
 40
0.3952188546489369
 40
0.4668138727167463
 40
0.5386370616301276
 40
0.612078520931357
 40
0.688105496880716
 40
0.7657376702081664
 40
0.8426669887166948
 40
0.9206210897409265
 40
1.0
 40
1.0
 40
1.0
 40
1.0
 10
14.51747767857143
 20
0.3162033279220776
 30
0.0
 10
14.51619621986309
 20
0.3165897110785557
 30
0.0
 10
14.51371344594592
 20
0.3173383126657061
 30
0.0
 10
14.51015256768929
 20
0.3185795994871508
 30
0.0
 10
14.50682970102027
 20
0.3197567949844021
 30
0.0
 10
14.50381508758628
 20
0.3210676510654666
 30
0.0
 10
14.50102310832175
 20
0.3223247493226061
 30
0.0
 10
14.49851936816378
 20
0.3236583603686323
 30
0.0
 10
14.49627025104181
 20
0.3250045690818473
 30
0.0
 10
14.49362700865175
 20
0.3268243504116722
 30
0.0
 10
14.49068241194825
 20
0.3293805148591474
 30
0.0
 10
14.48755371668271
 20
0.3328526202350577
 30
0.0
 10
14.48480395099851
 20
0.3367497136026278
 30
0.0
 10
14.48243894447173
 20
0.3410323564483431
 30
0.0
 10
14.48052087980315
 20
0.3456192575416945
 30
0.0
 10
14.47919412223544
 20
0.3504494726287902
 30
0.0
 10
14.47833332431898
 20
0.3554278289543151
 30
0.0
 10
14.47823262420793
 20
0.3588133962351967
 30
0.0
 10
14.47818181818182
 20
0.3605215097402593
 30
0.0
  0
SPLINE
  5
88
330
1F
100
AcDbEntity
  8
0
  6
Continuous
 62
     7
370
    35
100
AcDbSpline
210
0.0
220
0.0
230
1.0
 70
     8
 71
     3
 72
    23
 73
    19
 74
     0
 42
0.000000001
 43
0.00000001
 40
0.0
 40
0.0
 40
0.0
 40
0.0
 40
0.0575521567904664
 40
0.1117932799112191
 40
0.164084696475993
 40
0.2149278289627382
 40
0.2668718545261876
 40
0.3205865558711258
 40
0.3788076937015632
 40
0.4412992686980483
 40
0.4784546664508115
 40
0.5246869351405159
 40
0.580549597944628
 40
0.6455848366089745
 40
0.7202635680762515
 40
0.8036929037658744
 40
0.8970236383961775
 40
1.0
 40
1.0
 40
1.0
 40
1.0
 10
14.55025974025974
 20
0.2939529220779217
 30
0.0
 10
14.55023190823651
 20
0.2947768603925185
 30
0.0
 10
14.55017784539443
 20
0.2963773350188408
 30
0.0
 10
14.54971805231532
 20
0.2986914784335131
 30
0.0
 10
14.54892594505386
 20
0.3008102686209123
 30
0.0
 10
14.54779984399848
 20
0.302733038950607
 30
0.0
 10
14.54638935429306
 20
0.3044825882316715
 30
0.0
 10
14.54464491542038
 20
0.30606374513262
 30
0.0
 10
14.54255951841323
 20
0.3074474933288072
 30
0.0
 10
14.54055241556591
 20
0.3084896256471876
 30
0.0
 10
14.53864116036825
 20
0.309330938141852
 30
0.0
 10
14.53676608866303
 20
0.3100061940840162
 30
0.0
 10
14.53452801486114
 20
0.3108484171138378
 30
0.0
 10
14.53186384797426
 20
0.3117060541485505
 30
0.0
 10
14.52883552000439
 20
0.3127159297722379
 30
0.0
 10
14.52541353318514
 20
0.3138264633894236
 30
0.0
 10
14.52157476929157
 20
0.3149591953775815
 30
0.0
 10
14.51888739061689
 20
0.315775251329704
 30
0.0
 10
14.51747767857143
 20
0.3162033279220776
 30
0.0
  0
SPLINE
  5
89
330
1F
100
AcDbEntity
  8
0
  6
Continuous
 62
     7
370
    35
100
AcDbSpline
210
0.0
220
0.0
230
1.0
 70
     8
 71
     3
 72
    23
 73
    19
 74
     0
 42
0.000000001
 43
0.00000001
 40
0.0
 40
0.0
 40
0.0
 40
0.0
 40
0.0781155037494562
 40
0.1523781841098029
 40
0.2223607082903836
 40
0.2903976868847231
 40
0.3549530586544787
 40
0.4184072858255685
 40
0.4803496112207589
 40
0.5413171284630007
 40
0.6012763669990915
 40
0.6596453021110255
 40
0.715992956827529
 40
0.7719452285628278
 40
0.827758770232487
 40
0.8833508914816536
 40
0.9411800077310708
 40
1.0
 40
1.0
 40
1.0
 40
1.0
 10
14.52533076298702
 20
0.2733766233766233
 30
0.0
 10
14.52627507306376
 20
0.2733931810417808
 30
0.0
 10
14.52811711782856
 20
0.2734254797127075
 30
0.0
 10
14.5307931219099
 20
0.2737038384971928
 30
0.0
 10
14.53332266091792
 20
0.2741510666158093
 30
0.0
 10
14.53568055366728
 20
0.2748249923871581
 30
0.0
 10
14.53790152620671
 20
0.2756542318637304
 30
0.0
 10
14.53998218147994
 20
0.2766388349366095
 30
0.0
 10
14.54186595086974
 20
0.2778818509652592
 30
0.0
 10
14.54361458367145
 20
0.2792396829265146
 30
0.0
 10
14.54515128468603
 20
0.280772141925458
 30
0.0
 10
14.54654024196235
 20
0.2823676633515773
 30
0.0
 10
14.54766467432413
 20
0.284102868657845
 30
0.0
 10
14.54862222870019
 20
0.285898066450131
 30
0.0
 10
14.54935210894442
 20
0.2877907098870048
 30
0.0
 10
14.54986671282542
 20
0.289772177377095
 30
0.0
 10
14.5502241663408
 20
0.2918296134484699
 30
0.0
 10
14.55024781532465
 20
0.2932411557520642
 30
0.0
 10
14.55025974025974
 20
0.2939529220779217
 30
0.0
  0
SPLINE
  5
8A
330
1F
100
AcDbEntity
  8
0
  6
Continuous
 62
     7
370
    35
100
AcDbSpline
210
0.0
220
0.0
230
1.0
 70
     8
 71
     3
 72
    23
 73
    19
 74
     0
 42
0.000000001
 43
0.00000001
 40
0.0
 40
0.0
 40
0.0
 40
0.0
 40
0.0802052501052733
 40
0.1564031623574444
 40
0.2280022900917107
 40
0.2963469260550449
 40
0.3606887315408558
 40
0.4226373407448067
 40
0.4814172204487794
 40
0.5389154341916167
 40
0.5943415477737238
 40
0.6492627826379433
 40
0.7039510570630274
 40
0.7594399574872739
 40
0.8161085919894862
 40
0.8747896586596441
 40
0.9358931315320013
 40
1.0
 40
1.0
 40
1.0
 40
1.0
 10
14.49766233766234
 20
0.3025974025974026
 30
0.0
 10
14.49785089946187
 20
0.3014176678104208
 30
0.0
 10
14.49821860184679
 20
0.2991171419572523
 30
0.0
 10
14.49899344902839
 20
0.2958098125897124
 30
0.0
 10
14.49985444648916
 20
0.2927057719138572
 30
0.0
 10
14.50093233813479
 20
0.2898583214502799
 30
0.0
 10
14.50210668254278
 20
0.2872050091839022
 30
0.0
 10
14.50348350520821
 20
0.284813249625828
 30
0.0
 10
14.50497679662758
 20
0.2826147354329557
 30
0.0
 10
14.50665163183241
 20
0.2806754958677701
 30
0.0
 10
14.50846467866353
 20
0.2789502508079691
 30
0.0
 10
14.51041480620931
 20
0.2774448390433124
 30
0.0
 10
14.51253887707701
 20
0.2761973188144751
 30
0.0
 10
14.51479665031196
 20
0.275148375011343
 30
0.0
 10
14.51722308955701
 20
0.2743676217122333
 30
0.0
 10
14.51978775503227
 20
0.2737811875310816
 30
0.0
 10
14.52251174161674
 20
0.2734512367490937
 30
0.0
 10
14.52437618187749
 20
0.2734018890651455
 30
0.0
 10
14.52533076298702
 20
0.2733766233766233
 30
0.0
  0
SPLINE
  5
8C
330
1F
100
AcDbEntity
  8
0
  6
Continuous
 62
     7
370
    35
100
AcDbSpline
210
0.0
220
0.0
230
1.0
 70
     8
 71
     3
 72
    23
 73
    19
 74
     0
 42
0.000000001
 43
0.00000001
 40
0.0
 40
0.0
 40
0.0
 40
0.0
 40
0.0673204189817003
 40
0.1309198057742673
 40
0.1916846287505943
 40
0.250073494823478
 40
0.3064606233256945
 40
0.3620394354547001
 40
0.4170511986651088
 40
0.4720401074941618
 40
0.5285064418697477
 40
0.5865570553330719
 40
0.6469252458764312
 40
0.7100319100828741
 40
0.7765676868578316
 40
0.8468160821921978
 40
0.9212904853467809
 40
1.0
 40
1.0
 40
1.0
 40
1.0
 10
14.5243262987013
 20
0.2480519480519479
 30
0.0
 10
14.52249838022645
 20
0.2480934108364059
 30
0.0
 10
14.51894357864741
 20
0.2481740446139463
 30
0.0
 10
14.51376576706791
 20
0.2487831514778237
 30
0.0
 10
14.50890860289294
 20
0.2498225157031407
 30
0.0
 10
14.50434611540641
 20
0.2512324442229931
 30
0.0
 10
14.5001147880578
 20
0.2531212633584145
 30
0.0
 10
14.49616215030123
 20
0.2553595320405924
 30
0.0
 10
14.49255425238554
 20
0.2580611486129938
 30
0.0
 10
14.48926479242763
 20
0.2611736197993786
 30
0.0
 10
14.48628198337103
 20
0.2646884352957604
 30
0.0
 10
14.48358052032078
 20
0.2686044852593091
 30
0.0
 10
14.48125383136127
 20
0.2729576708387915
 30
0.0
 10
14.47919481171146
 20
0.2776949187039928
 30
0.0
 10
14.47752369167307
 20
0.2828643462186558
 30
0.0
 10
14.47607581433303
 20
0.2884173686110476
 30
0.0
 10
14.47499081036349
 20
0.2943922634685064
 30
0.0
 10
14.47452503874384
 20
0.2985255634859088
 30
0.0
 10
14.47428571428572
 20
0.3006493506493502
 30
0.0
  0
SPLINE
  5
8F
330
1F
100
AcDbEntity
  8
0
  6
Continuous
 62
     7
370
    35
100
AcDbSpline
210
0.0
220
0.0
230
1.0
 70
     8
 71
     3
 72
    31
 73
    27
 74
     0
 42
0.000000001
 43
0.00000001
 40
0.0
 40
0.0
 40
0.0
 40
0.0
 40
0.0473081968099988
 40
0.0929418537551038
 40
0.1366496566048082
 40
0.1789911096052537
 40
0.2198074125543668
 40
0.2595411281041117
 40
0.2983672546634222
 40
0.336319055329279
 40
0.3732878647790717
 40
0.408752247125129
 40
0.4433760160399949
 40
0.4763175158419937
 40
0.50903070055404
 40
0.5410186260392725
 40
0.5723644228332312
 40
0.6036915013711319
 40
0.6370790930378047
 40
0.6744267558619873
 40
0.7165629924420021
 40
0.7633363970103015
 40
0.8149280111948957
 40
0.8717760893872971
 40
0.9332043234530002
 40
1.0
 40
1.0
 40
1.0
 40
1.0
 10
14.81519480519481
 20
0.3537033279220779
 30
0.0
 10
14.81518081097517
 20
0.3523735100365792
 30
0.0
 10
14.81515331788089
 20
0.3497609450315901
 30
0.0
 10
14.81483294703732
 20
0.3459313151680328
 30
0.0
 10
14.81435854944085
 20
0.3422597431261931
 30
0.0
 10
14.81366416984198
 20
0.3387592761760568
 30
0.0
 10
14.81274181908824
 20
0.3354282246974004
 30
0.0
 10
14.81164481727713
 20
0.3322560765212063
 30
0.0
 10
14.81038054019121
 20
0.3292316976601521
 30
0.0
 10
14.80887758589702
 20
0.3264060974622099
 30
0.0
 10
14.80723876230702
 20
0.3237701351311396
 30
0.0
 10
14.80549673324738
 20
0.3213147506317885
 30
0.0
 10
14.80365655135422
 20
0.3190751370345039
 30
0.0
 10
14.80170332305539
 20
0.317042050529709
 30
0.0
 10
14.79969107341018
 20
0.3151698006904656
 30
0.0
 10
14.79750672765326
 20
0.3135776698717604
 30
0.0
 10
14.79528115695875
 20
0.3121175400250488
 30
0.0
 10
14.79288171617501
 20
0.3108673152331021
 30
0.0
 10
14.79020297969827
 20
0.3098308467762904
 30
0.0
 10
14.78716426838725
 20
0.3089104712750108
 30
0.0
 10
14.78369099233539
 20
0.3081682259818708
 30
0.0
 10
14.77978610063798
 20
0.3075744486835199
 30
0.0
 10
14.77544993351029
 20
0.3070923556874899
 30
0.0
 10
14.77068898625157
 20
0.3067310370712352
 30
0.0
 10
14.76549101028494
 20
0.3065180386120357
 30
0.0
 10
14.76188738334128
 20
0.3065019089287599
 30
0.0
 10
14.7600101461039
 20
0.3064935064935065
 30
0.0
  0
SPLINE
  5
90
330
1F
100
AcDbEntity
  8
0
  6
Continuous
 62
     7
370
    35
100
AcDbSpline
210
0.0
220
0.0
230
1.0
 70
     8
 71
     3
 72
    23
 73
    19
 74
     0
 42
0.000000001
 43
0.00000001
 40
0.0
 40
0.0
 40
0.0
 40
0.0
 40
0.0528843725830057
 40
0.1052229986451032
 40
0.1584437985097221
 40
0.2118189336307852
 40
0.266276418472254
 40
0.3222406499069719
 40
0.3805384529531249
 40
0.4406528863778757
 40
0.5030551427798939
 40
0.566366049922286
 40
0.6315777082410562
 40
0.6994597758188081
 40
0.7700475579085143
 40
0.8431668485007198
 40
0.9197407789958099
 40
1.0
 40
1.0
 40
1.0
 40
1.0
 10
14.7896875
 20
0.3978388798701297
 30
0.0
 10
14.79059659550458
 20
0.3975195362521597
 30
0.0
 10
14.79240540499545
 20
0.3968841445203546
 30
0.0
 10
14.79502014238093
 20
0.3956505802564754
 30
0.0
 10
14.7975093544447
 20
0.3941647529029642
 30
0.0
 10
14.79986671261562
 20
0.3924118875129271
 30
0.0
 10
14.80209427567009
 20
0.3904230480660604
 30
0.0
 10
14.80421081263009
 20
0.38818967219473
 30
0.0
 10
14.80617030950539
 20
0.3856865756126062
 30
0.0
 10
14.80804020039933
 20
0.3829735162684768
 30
0.0
 10
14.80973755226573
 20
0.3800412134158966
 30
0.0
 10
14.81121160335295
 20
0.3768861939963396
 30
0.0
 10
14.81241044570526
 20
0.3735128912602664
 30
0.0
 10
14.81346180551243
 20
0.3699530961360764
 30
0.0
 10
14.81424309939171
 20
0.3661752378328244
 30
0.0
 10
14.81478068776018
 20
0.3621979506623869
 30
0.0
 10
14.81512280484005
 20
0.3580213658484533
 30
0.0
 10
14.81517043202614
 20
0.3551650466462105
 30
0.0
 10
14.81519480519481
 20
0.3537033279220779
 30
0.0
  0
SPLINE
  5
91
330
1F
100
AcDbEntity
  8
0
  6
Continuous
 62
     7
370
    35
100
AcDbSpline
210
0.0
220
0.0
230
1.0
 70
     8
 71
     3
 72
    15
 73
    11
 74
     0
 42
0.000000001
 43
0.00000001
 40
0.0
 40
0.0
 40
0.0
 40
0.0
 40
0.1815471399806342
 40
0.3477347657878879
 40
0.4965847209735378
 40
0.6301745352457054
 40
0.7465286147133222
 40
0.8467773963192357
 40
0.9310887716172622
 40
0.9999999999999999
 40
0.9999999999999999
 40
0.9999999999999999
 40
0.9999999999999999
 10
14.76016233766234
 20
0.3999999999999996
 30
0.0
 10
14.76195820764388
 20
0.3999936682277342
 30
0.0
 10
14.76539801081281
 20
0.3999815403729738
 30
0.0
 10
14.77031009162831
 20
0.3999042693006334
 30
0.0
 10
14.77474438436304
 20
0.399715098321104
 30
0.0
 10
14.7786823685291
 20
0.3994806151432798
 30
0.0
 10
14.78213500527207
 20
0.3991846088645221
 30
0.0
 10
14.78508830770585
 20
0.3988182326431496
 30
0.0
 10
14.78757031672555
 20
0.3984334633954047
 30
0.0
 10
14.789030699103
 20
0.3980233339027381
 30
0.0
 10
14.7896875
 20
0.3978388798701297
 30
0.0
  0
SPLINE
  5
95
330
1F
100
AcDbEntity
  8
0
  6
Continuous
 62
     7
370
    35
100
AcDbSpline
210
0.0
220
0.0
230
1.0
 70
     8
 71
     3
 72
    23
 73
    19
 74
     0
 42
0.000000001
 43
0.00000001
 40
0.0
 40
0.0
 40
0.0
 40
0.0
 40
0.0997723708515299
 40
0.1926306920502785
 40
0.2784824919625843
 40
0.3578503857728255
 40
0.4304339645385369
 40
0.4977119482966599
 40
0.5594530058677802
 40
0.6163220914463403
 40
0.6697109111659287
 40
0.7200397813160775
 40
0.7682955470611603
 40
0.815007133822229
 40
0.8604504074611379
 40
0.9058216573986413
 40
0.9521971925409493
 40
1.0
 40
1.0
 40
1.0
 40
1.0
 10
14.88532467532468
 20
0.323173701298701
 30
0.0
 10
14.8853551183515
 20
0.3264619112727261
 30
0.0
 10
14.88541389475697
 20
0.3328104640584035
 30
0.0
 10
14.88599088053034
 20
0.341974342406526
 30
0.0
 10
14.88695475793707
 20
0.350427968831893
 30
0.0
 10
14.88827301609043
 20
0.3581572493034537
 30
0.0
 10
14.88995537108983
 20
0.3651909751658208
 30
0.0
 10
14.89207728885873
 20
0.3714962694717686
 30
0.0
 10
14.89455627786177
 20
0.3771090086922335
 30
0.0
 10
14.89743265758553
 20
0.3820111883608354
 30
0.0
 10
14.90066816369911
 20
0.3862104339060268
 30
0.0
 10
14.90404822144895
 20
0.3899158763940064
 30
0.0
 10
14.90768500809147
 20
0.393051680930688
 30
0.0
 10
14.91156879939281
 20
0.3955906146198689
 30
0.0
 10
14.91566283763233
 20
0.3975663676895164
 30
0.0
 10
14.9199708719572
 20
0.3989714973740355
 30
0.0
 10
14.92450313094727
 20
0.3998570273656539
 30
0.0
 10
14.92760953942573
 20
0.3999518633754646
 30
0.0
 10
14.92918628246754
 20
0.4000000000000001
 30
0.0
  0
SPLINE
  5
96
330
1F
100
AcDbEntity
  8
0
  6
Continuous
 62
     7
370
    35
100
AcDbSpline
210
0.0
220
0.0
230
1.0
 70
     8
 71
     3
 72
    23
 73
    19
 74
     0
 42
0.000000001
 43
0.00000001
 40
0.0
 40
0.0
 40
0.0
 40
0.0
 40
0.081144425047518
 40
0.1578752458553623
 40
0.2305384789397052
 40
0.3000624438300377
 40
0.366831547299825
 40
0.4313608900190676
 40
0.4940652054057599
 40
0.5554307801750399
 40
0.614981051054981
 40
0.672394917725044
 40
0.7276697609744168
 40
0.7814810601225122
 40
0.83495594953571
 40
0.8888903007894644
 40
0.9437051604956748
 40
1.0
 40
1.0
 40
1.0
 40
1.0
 10
14.96519480519481
 20
0.2984882305194803
 30
0.0
 10
14.96515973639706
 20
0.2965693417077017
 30
0.0
 10
14.96509150626216
 20
0.2928359362057065
 30
0.0
 10
14.96456390326974
 20
0.2874053497468668
 30
0.0
 10
14.96373032185419
 20
0.2822920288679777
 30
0.0
 10
14.96250747724519
 20
0.2774984257565353
 30
0.0
 10
14.96095602901256
 20
0.2730054071724532
 30
0.0
 10
14.95907924336
 20
0.2688113986248116
 30
0.0
 10
14.95681562150521
 20
0.2649585591764719
 30
0.0
 10
14.95422587329912
 20
0.2614649228120461
 30
0.0
 10
14.9513982542533
 20
0.2583288135425753
 30
0.0
 10
14.94838632402322
 20
0.2555773543500159
 30
0.0
 10
14.94520508397735
 20
0.2532446621714244
 30
0.0
 10
14.94186019266118
 20
0.2513338553468348
 30
0.0
 10
14.93833328625304
 20
0.2498584997344678
 30
0.0
 10
14.93462866951495
 20
0.2488396094659503
 30
0.0
 10
14.93077304551326
 20
0.2481675461857406
 30
0.0
 10
14.92814408385375
 20
0.2480908214208473
 30
0.0
 10
14.92681209415585
 20
0.2480519480519479
 30
0.0
  0
SPLINE
  5
97
330
1F
100
AcDbEntity
  8
0
  6
Continuous
 62
     7
370
    35
100
AcDbSpline
210
0.0
220
0.0
230
1.0
 70
     8
 71
     3
 72
    23
 73
    19
 74
     0
 42
0.000000001
 43
0.00000001
 40
0.0
 40
0.0
 40
0.0
 40
0.0
 40
0.0520266063202812
 40
0.1034030551778385
 40
0.1542517610325738
 40
0.2060144741650764
 40
0.2596107053197189
 40
0.3147450565477806
 40
0.3733704900527855
 40
0.4350806949639061
 40
0.4987829159137015
 40
0.5636455523878052
 40
0.6296937742547003
 40
0.6976893321013486
 40
0.7685070261768676
 40
0.8419708673374439
 40
0.9193415386299193
 40
1.0
 40
1.0
 40
1.0
 40
1.0
 10
14.93003855519481
 20
0.3474025974025973
 30
0.0
 10
14.93119737743172
 20
0.3473583078232038
 30
0.0
 10
14.93350054052808
 20
0.3472702821350861
 30
0.0
 10
14.9368979921759
 20
0.3466663803242492
 30
0.0
 10
14.94015580246408
 20
0.3455652369835912
 30
0.0
 10
14.94331905205601
 20
0.3440988882197895
 30
0.0
 10
14.94635994050365
 20
0.3422028190380831
 30
0.0
 10
14.94928897517288
 20
0.3398849781073724
 30
0.0
 10
14.95207356900628
 20
0.3371330294559136
 30
0.0
 10
14.9547361414347
 20
0.3340113716084037
 30
0.0
 10
14.95721215409432
 20
0.3305619670583926
 30
0.0
 10
14.95932287236552
 20
0.326767369980655
 30
0.0
 10
14.96116648929944
 20
0.3227339304100229
 30
0.0
 10
14.96266994362085
 20
0.3184169887974134
 30
0.0
 10
14.96376815664872
 20
0.3138118819498421
 30
0.0
 10
14.96458877173726
 20
0.3089414800927607
 30
0.0
 10
14.96512785950271
 20
0.303806715344788
 30
0.0
 10
14.96517218258411
 20
0.3002854785271449
 30
0.0
 10
14.96519480519481
 20
0.2984882305194803
 30
0.0
  0
SPLINE
  5
98
330
1F
100
AcDbEntity
  8
0
  6
Continuous
 62
     7
370
    35
100
AcDbSpline
210
0.0
220
0.0
230
1.0
 70
     8
 71
     3
 72
    15
 73
    11
 74
     0
 42
0.000000001
 43
0.00000001
 40
0.0
 40
0.0
 40
0.0
 40
0.0
 40
0.1434402235577449
 40
0.2780654167806527
 40
0.4044994090607616
 40
0.525953190324603
 40
0.6435510406461684
 40
0.7604909300026
 40
0.8788187916204977
 40
1.0
 40
1.0
 40
1.0
 40
1.0
 10
14.9087012987013
 20
0.3346793831168831
 30
0.0
 10
14.90942282380295
 20
0.3356884981949672
 30
0.0
 10
14.91082153312682
 20
0.3376447138073486
 30
0.0
 10
14.91317012793045
 20
0.3402477348015138
 30
0.0
 10
14.91566301600286
 20
0.342429085078784
 30
0.0
 10
14.91825506581626
 20
0.3442482533685811
 30
0.0
 10
14.92099550644642
 20
0.3456689926500108
 30
0.0
 10
14.92388090486672
 20
0.3466889772418988
 30
0.0
 10
14.92692108000993
 20
0.3472669659470636
 30
0.0
 10
14.92899117623107
 20
0.3473570292665502
 30
0.0
 10
14.93003855519481
 20
0.3474025974025973
 30
0.0
  0
SPLINE
  5
99
330
1F
100
AcDbEntity
  8
0
  6
Continuous
 62
     7
370
    35
100
AcDbSpline
210
0.0
220
0.0
230
1.0
 70
     8
 71
     3
 72
    23
 73
    19
 74
     0
 42
0.000000001
 43
0.00000001
 40
0.0
 40
0.0
 40
0.0
 40
0.0
 40
0.0360511350137267
 40
0.0710986199789472
 40
0.1064207428414488
 40
0.1430192623315261
 40
0.1811982950235446
 40
0.2212908914227127
 40
0.2642302684895437
 40
0.3105666706999123
 40
0.3629138449657406
 40
0.4238531277963379
 40
0.4946996311596108
 40
0.5750468845678459
 40
0.6657537831081354
 40
0.7670801029792469
 40
0.8784619184413753
 40
1.0
 40
1.0
 40
1.0
 40
1.0
 10
14.92702516233767
 20
0.3766233766233766
 30
0.0
 10
14.92642397086032
 20
0.3766039395401634
 30
0.0
 10
14.92523832485039
 20
0.3765656064948275
 30
0.0
 10
14.92350855324039
 20
0.3761388893529533
 30
0.0
 10
14.92184182378679
 20
0.3755012221205919
 30
0.0
 10
14.92024927074373
 20
0.3745776266033513
 30
0.0
 10
14.91875549491658
 20
0.3733747258363811
 30
0.0
 10
14.91735134813952
 20
0.371921311580276
 30
0.0
 10
14.916001924096
 20
0.3702393052608814
 30
0.0
 10
14.91473047760686
 20
0.3682491451927088
 30
0.0
 10
14.9135539134883
 20
0.3658600851644786
 30
0.0
 10
14.91254304138917
 20
0.3629617190474418
 30
0.0
 10
14.91160737821434
 20
0.3595556256774717
 30
0.0
 10
14.91079523359531
 20
0.3556096471047575
 30
0.0
 10
14.91011462532201
 20
0.3511267421600633
 30
0.0
 10
14.90950643835534
 20
0.3461131073292447
 30
0.0
 10
14.90902326175033
 20
0.3405700421253699
 30
0.0
 10
14.90881169478117
 20
0.3366991977021745
 30
0.0
 10
14.9087012987013
 20
0.3346793831168831
 30
0.0
  0
SPLINE
  5
9A
330
1F
100
AcDbEntity
  8
0
  6
Continuous
 62
     7
370
    35
100
AcDbSpline
210
0.0
220
0.0
230
1.0
 70
     8
 71
     3
 72
    15
 73
    11
 74
     0
 42
0.000000001
 43
0.00000001
 40
0.0
 40
0.0
 40
0.0
 40
0.0
 40
0.1716554392580501
 40
0.3232824593589038
 40
0.4569349476744353
 40
0.5749662273160366
 40
0.6828952293537802
 40
0.7856673895944327
 40
0.8885090818439828
 40
1.0
 40
1.0
 40
1.0
 40
1.0
 10
14.93987012987014
 20
0.3590909090909087
 30
0.0
 10
14.93971630526741
 20
0.3604649956792404
 30
0.0
 10
14.93942660401418
 20
0.3630528431343973
 30
0.0
 10
14.93858390749359
 20
0.366644954769713
 30
0.0
 10
14.93743579304623
 20
0.3696909253653257
 30
0.0
 10
14.93601680089821
 20
0.3722338547571521
 30
0.0
 10
14.93421724987415
 20
0.3742116812816758
 30
0.0
 10
14.93209403573948
 20
0.3756169938657341
 30
0.0
 10
14.92965642426208
 20
0.3764883405304391
 30
0.0
 10
14.92792553257537
 20
0.3765771697148322
 30
0.0
 10
14.92702516233767
 20
0.3766233766233766
 30
0.0
  0
SPLINE
  5
9C
330
1F
100
AcDbEntity
  8
0
  6
Continuous
 62
     7
370
    35
100
AcDbSpline
210
0.0
220
0.0
230
1.0
 70
     8
 71
     3
 72
    23
 73
    19
 74
     0
 42
0.000000001
 43
0.00000001
 40
0.0
 40
0.0
 40
0.0
 40
0.0
 40
0.0586588525090115
 40
0.1155819501966578
 40
0.1707065134433213
 40
0.2252623724032193
 40
0.279884153278995
 40
0.3349188816262641
 40
0.3904472535162333
 40
0.4478033324857567
 40
0.5067426923449581
 40
0.5675379361185496
 40
0.6308438632786227
 40
0.6967446215622927
 40
0.7664146372404481
 40
0.8399054409015564
 40
0.9178941136628224
 40
1.0
 40
1.0
 40
1.0
 40
1.0
 10
14.92918628246754
 20
0.4000000000000001
 30
0.0
 10
14.93027335675949
 20
0.3999694917324911
 30
0.0
 10
14.93241533808537
 20
0.3999093779575889
 30
0.0
 10
14.9355541037796
 20
0.3994727186566711
 30
0.0
 10
14.93856646860222
 20
0.3987789717310927
 30
0.0
 10
14.94144548684627
 20
0.3977685616468126
 30
0.0
 10
14.94419132743269
 20
0.3964464375799545
 30
0.0
 10
14.94681688519935
 20
0.3948646320534722
 30
0.0
 10
14.94930561624327
 20
0.3929877212756475
 30
0.0
 10
14.95164212708279
 20
0.3908193169656262
 30
0.0
 10
14.95385169664983
 20
0.3883861920188074
 30
0.0
 10
14.9558320279515
 20
0.3856244769451403
 30
0.0
 10
14.9575946205775
 20
0.3825711803225478
 30
0.0
 10
14.9591433266358
 20
0.3792239935815083
 30
0.0
 10
14.9605281148993
 20
0.3756014795221601
 30
0.0
 10
14.96162524185475
 20
0.3716499302857955
 30
0.0
 10
14.96258567596874
 20
0.3674270990205964
 30
0.0
 10
14.96302264822601
 20
0.3644922009669319
 30
0.0
 10
14.96324675324676
 20
0.3629870129870126
 30
0.0
  0
SPLINE
  5
9D
330
1F
100
AcDbEntity
  8
0
  6
Continuous
 62
     7
370
    35
100
AcDbSpline
210
0.0
220
0.0
230
1.0
 70
     8
 71
     3
 72
    23
 73
    19
 74
     0
 42
0.000000001
 43
0.00000001
 40
0.0
 40
0.0
 40
0.0
 40
0.0
 40
0.0729311133218614
 40
0.1428174378056245
 40
0.2104347745976191
 40
0.2764413666885318
 40
0.341438922155359
 40
0.4052669598182461
 40
0.4693035474503989
 40
0.5335776493204192
 40
0.5968602406575036
 40
0.6572157576442449
 40
0.715816358867018
 40
0.7724516706876524
 40
0.8290213632245195
 40
0.8848334484977487
 40
0.9418742489274676
 40
0.9999999999999999
 40
0.9999999999999999
 40
0.9999999999999999
 40
0.9999999999999999
 10
15.1561038961039
 20
0.2959922889610391
 30
0.0
 10
15.15607434513963
 20
0.2942958735094729
 30
0.0
 10
15.15601647692935
 20
0.2909738659709715
 30
0.0
 10
15.15540021083078
 20
0.2861132190210981
 30
0.0
 10
15.15451415240087
 20
0.2814617299294341
 30
0.0
 10
15.15320036781711
 20
0.2770256651833319
 30
0.0
 10
15.15148544520224
 20
0.2728270844039064
 30
0.0
 10
15.14944232165672
 20
0.2688288756578722
 30
0.0
 10
15.14699980314765
 20
0.2650781597317746
 30
0.0
 10
15.14419937559942
 20
0.2616081328066075
 30
0.0
 10
15.14120184850328
 20
0.2584209616209611
 30
0.0
 10
15.13797216467943
 20
0.2556681417611596
 30
0.0
 10
15.13463506722411
 20
0.2533043328294214
 30
0.0
 10
15.13111540647459
 20
0.2513970083193549
 30
0.0
 10
15.12747118375086
 20
0.2499069390565335
 30
0.0
 10
15.12367636227648
 20
0.2488256239229543
 30
0.0
 10
15.11974268632458
 20
0.2481726595143555
 30
0.0
 10
15.11706414435924
 20
0.2480924371233682
 30
0.0
 10
15.11571225649351
 20
0.2480519480519479
 30
0.0
  0
SPLINE
  5
9E
330
1F
100
AcDbEntity
  8
0
  6
Continuous
 62
     7
370
    35
100
AcDbSpline
210
0.0
220
0.0
230
1.0
 70
     8
 71
     3
 72
    23
 73
    19
 74
     0
 42
0.000000001
 43
0.00000001
 40
0.0
 40
0.0
 40
0.0
 40
0.0
 40
0.0543174066204727
 40
0.1087735445081655
 40
0.1627065403408974
 40
0.2169481258062338
 40
0.2725468972334545
 40
0.3294664887030659
 40
0.3876572954864523
 40
0.4489891645232343
 40
0.5113927686948274
 40
0.5755309395850865
 40
0.640353468904203
 40
0.707327156857542
 40
0.7764247460166414
 40
0.8482480941897741
 40
0.9222075566611092
 40
1.0
 40
1.0
 40
1.0
 40
1.0
 10
15.13467532467532
 20
0.3320312499999998
 30
0.0
 10
15.13545333720371
 20
0.3317853803190092
 30
0.0
 10
15.13701134937052
 20
0.3312930129849924
 30
0.0
 10
15.13921754151709
 20
0.3302338687062966
 30
0.0
 10
15.14133947550045
 20
0.3290235691550569
 30
0.0
 10
15.14332665682124
 20
0.327570602100843
 30
0.0
 10
15.14522044360815
 20
0.3259303618864263
 30
0.0
 10
15.14697949295687
 20
0.3240635987356552
 30
0.0
 10
15.14864447065875
 20
0.3220019456218614
 30
0.0
 10
15.1501737072132
 20
0.3197374957866646
 30
0.0
 10
15.15158785995756
 20
0.317296037347206
 30
0.0
 10
15.15280035818149
 20
0.3146881377449655
 30
0.0
 10
15.15379402885267
 20
0.3119193615206501
 30
0.0
 10
15.15466809372084
 20
0.3090313823385169
 30
0.0
 10
15.15527977328116
 20
0.3059696665369079
 30
0.0
 10
15.15578433624188
 20
0.3027840386926638
 30
0.0
 10
15.15605226255672
 20
0.2994364256665776
 30
0.0
 10
15.15608639752548
 20
0.2971595048411518
 30
0.0
 10
15.1561038961039
 20
0.2959922889610391
 30
0.0
  0
SPLINE
  5
9F
330
1F
100
AcDbEntity
  8
0
  6
Continuous
 62
     7
370
    35
100
AcDbSpline
210
0.0
220
0.0
230
1.0
 70
     8
 71
     3
 72
    15
 73
    11
 74
     0
 42
0.000000001
 43
0.00000001
 40
0.0
 40
0.0
 40
0.0
 40
0.0
 40
0.126412682964961
 40
0.2480645286968728
 40
0.3677857399335117
 40
0.4869373622728376
 40
0.6077221292347571
 40
0.7316345723976097
 40
0.8624064927808266
 40
1.0
 40
1.0
 40
1.0
 40
1.0
 10
15.15220779220779
 20
0.3626521915584412
 30
0.0
 10
15.15215780535676
 20
0.361095947880482
 30
0.0
 10
15.15205971421313
 20
0.35804207033073
 30
0.0
 10
15.15120642641861
 20
0.3535809496891685
 30
0.0
 10
15.14984116047902
 20
0.3493492788349885
 30
0.0
 10
15.1478994749803
 20
0.3453585192000842
 30
0.0
 10
15.14542098923084
 20
0.3416131341682062
 30
0.0
 10
15.14233987121872
 20
0.3381593898451146
 30
0.0
 10
15.13879300036375
 20
0.3348673729027674
 30
0.0
 10
15.13607094721486
 20
0.332992510028106
 30
0.0
 10
15.13467532467532
 20
0.3320312499999998
 30
0.0
  0
SPLINE
  5
A0
330
1F
100
AcDbEntity
  8
0
  6
Continuous
 62
     7
370
    35
100
AcDbSpline
210
0.0
220
0.0
230
1.0
 70
     8
 71
     3
 72
    23
 73
    19
 74
     0
 42
0.000000001
 43
0.00000001
 40
0.0
 40
0.0
 40
0.0
 40
0.0
 40
0.0710069346229668
 40
0.1389634504224169
 40
0.2040172446691887
 40
0.2672358126575136
 40
0.3297592516517907
 40
0.3922333557121955
 40
0.455152212243727
 40
0.519609777875426
 40
0.5840611037659811
 40
0.645959615914422
 40
0.7064627874602565
 40
0.7653467385920141
 40
0.8238034009888778
 40
0.8823311130496627
 40
0.9409137721218203
 40
1.0
 40
1.0
 40
1.0
 40
1.0
 10
15.1149512987013
 20
0.4000000000000001
 30
0.0
 10
15.11634307522279
 20
0.399966175780367
 30
0.0
 10
15.11906683831254
 20
0.3998999804109575
 30
0.0
 10
15.12303599882143
 20
0.3993464518616833
 30
0.0
 10
15.12677370083449
 20
0.3984235391356399
 30
0.0
 10
15.13031043834978
 20
0.3971874292300029
 30
0.0
 10
15.13361509648912
 20
0.3955264775197296
 30
0.0
 10
15.13669567208708
 20
0.3934995334196851
 30
0.0
 10
15.13959712259756
 20
0.3911554946148654
 30
0.0
 10
15.14216715895287
 20
0.3884014073567209
 30
0.0
 10
15.14451909452371
 20
0.3854917491065451
 30
0.0
 10
15.14657413858344
 20
0.3824561341847647
 30
0.0
 10
15.14831765170868
 20
0.3793556991366568
 30
0.0
 10
15.1497266022315
 20
0.3761629854709337
 30
0.0
 10
15.15083079754046
 20
0.3728929450109172
 30
0.0
 10
15.15161358937408
 20
0.3695395420585678
 30
0.0
 10
15.15212958314744
 20
0.366117842499003
 30
0.0
 10
15.15218164824943
 20
0.3638106997092175
 30
0.0
 10
15.15220779220779
 20
0.3626521915584412
 30
0.0
  0
SPLINE
  5
A1
330
1F
100
AcDbEntity
  8
0
  6
Continuous
 62
     7
370
    35
100
AcDbSpline
210
0.0
220
0.0
230
1.0
 70
     8
 71
     3
 72
    23
 73
    19
 74
     0
 42
0.000000001
 43
0.00000001
 40
0.0
 40
0.0
 40
0.0
 40
0.0
 40
0.0827430307741857
 40
0.1607648147147694
 40
0.2339735719340225
 40
0.3032020836224789
 40
0.3684134087851776
 40
0.4302918982837479
 40
0.4892254981802079
 40
0.5462801477675684
 40
0.6017754552499376
 40
0.656537502951184
 40
0.7112445041841537
 40
0.7662490148335409
 40
0.8218776296407642
 40
0.8792723176394763
 40
0.938316583067255
 40
1.0
 40
1.0
 40
1.0
 40
1.0
 10
15.07623376623377
 20
0.3610389610389612
 30
0.0
 10
15.0765415794457
 20
0.3626861079061615
 30
0.0
 10
15.07713964230997
 20
0.3658864168437942
 30
0.0
 10
15.07828797521297
 20
0.3704867501913851
 30
0.0
 10
15.07965943796712
 20
0.3747379498271934
 30
0.0
 10
15.08122698843247
 20
0.3786448579003903
 30
0.0
 10
15.08303750090436
 20
0.3821884679522889
 30
0.0
 10
15.08500095120958
 20
0.3854094846699165
 30
0.0
 10
15.08721099923866
 20
0.3882623866889945
 30
0.0
 10
15.08961964128249
 20
0.3907740269479724
 30
0.0
 10
15.09223553957715
 20
0.3929346753430874
 30
0.0
 10
15.09497863593161
 20
0.3948507928437585
 30
0.0
 10
15.09792162335402
 20
0.3964226927063444
 30
0.0
 10
15.10100123099599
 20
0.397748261043892
 30
0.0
 10
15.10425959354379
 20
0.3987478014574022
 30
0.0
 10
15.10766961413226
 20
0.3994813868883323
 30
0.0
 10
15.11125743269443
 20
0.3999090931677037
 30
0.0
 10
15.11370219556077
 20
0.3999692593046128
 30
0.0
 10
15.1149512987013
 20
0.4000000000000001
 30
0.0
  0
SPLINE
  5
A3
330
1F
100
AcDbEntity
  8
0
  6
Continuous
 62
     7
370
    35
100
AcDbSpline
210
0.0
220
0.0
230
1.0
 70
     8
 71
     3
 72
    15
 73
    11
 74
     0
 42
0.000000001
 43
0.00000001
 40
0.0
 40
0.0
 40
0.0
 40
0.0
 40
0.1091472446530062
 40
0.2152589674700647
 40
0.3246390711331644
 40
0.4396674703298422
 40
0.5616255148480115
 40
0.6934057302043118
 40
0.8380270563770019
 40
0.9999999999999999
 40
0.9999999999999999
 40
0.9999999999999999
 40
0.9999999999999999
 10
15.11428165584416
 20
0.3766233766233766
 30
0.0
 10
15.11324974647783
 20
0.3765673545498757
 30
0.0
 10
15.11121462643954
 20
0.3764568684470374
 30
0.0
 10
15.10827127015984
 20
0.3754906160965277
 30
0.0
 10
15.10556102796887
 20
0.3739090899433967
 30
0.0
 10
15.10311240870462
 20
0.371714932702377
 30
0.0
 10
15.10097537862551
 20
0.3689399126997228
 30
0.0
 10
15.09934647816915
 20
0.365528311957373
 30
0.0
 10
15.09817947230903
 20
0.3615397428198274
 30
0.0
 10
15.09784109925422
 20
0.3586627597213506
 30
0.0
 10
15.09766233766234
 20
0.3571428571428569
 30
0.0
  0
SPLINE
  5
A4
330
1F
100
AcDbEntity
  8
0
  6
Continuous
 62
     7
370
    35
100
AcDbSpline
210
0.0
220
0.0
230
1.0
 70
     8
 71
     3
 72
    15
 73
    11
 74
     0
 42
0.000000001
 43
0.00000001
 40
0.0
 40
0.0
 40
0.0
 40
0.0
 40
0.1424784121209436
 40
0.2732037946192339
 40
0.3945864827622562
 40
0.5147545331308994
 40
0.6339295835855714
 40
0.7507431227064875
 40
0.8715641172540034
 40
1.0
 40
1.0
 40
1.0
 40
1.0
 10
15.12883116883117
 20
0.3613433441558441
 30
0.0
 10
15.12879083270658
 20
0.3624740725213318
 30
0.0
 10
15.1287134877802
 20
0.3646422555852521
 30
0.0
 10
15.12795125964873
 20
0.3677018848617052
 30
0.0
 10
15.12664718640594
 20
0.370374667504204
 30
0.0
 10
15.12482390765792
 20
0.3726053033273483
 30
0.0
 10
15.12263143846217
 20
0.3744133487113753
 30
0.0
 10
15.12010279889033
 20
0.3757217578057283
 30
0.0
 10
15.11728013762631
 20
0.3765021582851606
 30
0.0
 10
15.11530130116261
 20
0.3765821558589856
 30
0.0
 10
15.11428165584416
 20
0.3766233766233766
 30
0.0
  0
SPLINE
  5
A5
330
1F
100
AcDbEntity
  8
0
  6
Continuous
 62
     7
370
    35
100
AcDbSpline
210
0.0
220
0.0
230
1.0
 70
     8
 71
     3
 72
    11
 73
     7
 74
     0
 42
0.000000001
 43
0.00000001
 40
0.0
 40
0.0
 40
0.0
 40
0.0
 40
0.2387690697432204
 40
0.4777833542648407
 40
0.7270131220759034
 40
1.0
 40
1.0
 40
1.0
 40
1.0
 10
15.1232913961039
 20
0.3480418019480516
 30
0.0
 10
15.12415226574097
 20
0.3488648906765792
 30
0.0
 10
15.12587488912443
 20
0.3505119134421171
 30
0.0
 10
15.12759714128784
 20
0.3537369769211287
 30
0.0
 10
15.12867507064514
 20
0.3573877663238816
 30
0.0
 10
15.12877758159824
 20
0.3599854265780092
 30
0.0
 10
15.12883116883117
 20
0.3613433441558441
 30
0.0
  0
SPLINE
  5
A6
330
1F
100
AcDbEntity
  8
0
  6
Continuous
 62
     7
370
    35
100
AcDbSpline
210
0.0
220
0.0
230
1.0
 70
     8
 71
     3
 72
    11
 73
     7
 74
     0
 42
0.000000001
 43
0.00000001
 40
0.0
 40
0.0
 40
0.0
 40
0.0
 40
0.2808356210569579
 40
0.5364793245084729
 40
0.7722880091023178
 40
1.0
 40
1.0
 40
1.0
 40
1.0
 10
15.10801136363636
 20
0.3435064935064934
 30
0.0
 10
15.10953799393984
 20
0.343528222432713
 30
0.0
 10
15.11245431057695
 20
0.3435697311260077
 30
0.0
 10
15.11657818706552
 20
0.3444063425742958
 30
0.0
 10
15.12026557137873
 20
0.3457995770533222
 30
0.0
 10
15.12229460210706
 20
0.3473031483518809
 30
0.0
 10
15.1232913961039
 20
0.3480418019480516
 30
0.0
  0
SPLINE
  5
A8
330
1F
100
AcDbEntity
  8
0
  6
Continuous
 62
     7
370
    35
100
AcDbSpline
210
0.0
220
0.0
230
1.0
 70
     8
 71
     3
 72
    11
 73
     7
 74
     0
 42
0.000000001
 43
0.00000001
 40
0.0
 40
0.0
 40
0.0
 40
0.0
 40
0.2138465037178766
 40
0.4488532362386841
 40
0.7121003335125139
 40
1.0
 40
1.0
 40
1.0
 40
1.0
 10
15.11543831168831
 20
0.3201298701298699
 30
0.0
 10
15.11470563395786
 20
0.3201093577955453
 30
0.0
 10
15.11316777963376
 20
0.3200663034201661
 30
0.0
 10
15.11077324675225
 20
0.3195771214457904
 30
0.0
 10
15.10816059616521
 20
0.318933937800619
 30
0.0
 10
15.10638306510377
 20
0.3182999322038422
 30
0.0
 10
15.10545454545455
 20
0.3179687500000001
 30
0.0
  0
SPLINE
  5
A9
330
1F
100
AcDbEntity
  8
0
  6
Continuous
 62
     7
370
    35
100
AcDbSpline
210
0.0
220
0.0
230
1.0
 70
     8
 71
     3
 72
    15
 73
    11
 74
     0
 42
0.000000001
 43
0.00000001
 40
0.0
 40
0.0
 40
0.0
 40
0.0
 40
0.1673861978402922
 40
0.317506970182961
 40
0.4541492594670267
 40
0.5810943830083414
 40
0.696875092734728
 40
0.802251794293323
 40
0.9004566555580169
 40
1.0
 40
1.0
 40
1.0
 40
1.0
 10
15.13077922077922
 20
0.2966010551948049
 30
0.0
 10
15.13073629835737
 20
0.298340218798449
 30
0.0
 10
15.13065488084333
 20
0.3016391560678903
 30
0.0
 10
15.12979126723688
 20
0.3062932891824804
 30
0.0
 10
15.12841162836321
 20
0.3103791312870416
 30
0.0
 10
15.12646928453043
 20
0.3138320493254369
 30
0.0
 10
15.12412424996571
 20
0.3166119460064502
 30
0.0
 10
15.12148217925602
 20
0.3186564951129379
 30
0.0
 10
15.11853261172364
 20
0.3199030149416445
 30
0.0
 10
15.11647438881217
 20
0.3200539112802873
 30
0.0
 10
15.11543831168831
 20
0.3201298701298699
 30
0.0
  0
SPLINE
  5
AA
330
1F
100
AcDbEntity
  8
0
  6
Continuous
 62
     7
370
    35
100
AcDbSpline
210
0.0
220
0.0
230
1.0
 70
     8
 71
     3
 72
    15
 73
    11
 74
     0
 42
0.000000001
 43
0.00000001
 40
0.0
 40
0.0
 40
0.0
 40
0.0
 40
0.0966930131822321
 40
0.192942035785467
 40
0.2949267169060501
 40
0.4099877910103372
 40
0.5377559460081939
 40
0.675719519839622
 40
0.8295651592730766
 40
0.9999999999999999
 40
0.9999999999999999
 40
0.9999999999999999
 40
0.9999999999999999
 10
15.11525568181818
 20
0.2714285714285714
 30
0.0
 10
15.11631374340403
 20
0.2715106735738807
 30
0.0
 10
15.11842500821668
 20
0.2716745008716037
 30
0.0
 10
15.12141463904657
 20
0.2730194158863578
 30
0.0
 10
15.12409416301485
 20
0.2751816389715164
 30
0.0
 10
15.12645205847893
 20
0.278144900078566
 30
0.0
 10
15.12842169217746
 20
0.2818284876680767
 30
0.0
 10
15.12979888469959
 20
0.2862132774408958
 30
0.0
 10
15.13065174060061
 20
0.2912005510821287
 30
0.0
 10
15.13073530246292
 20
0.2947405224410627
 30
0.0
 10
15.13077922077922
 20
0.2966010551948049
 30
0.0
  0
SPLINE
  5
AB
330
1F
100
AcDbEntity
  8
0
  6
Continuous
 62
     7
370
    35
100
AcDbSpline
210
0.0
220
0.0
230
1.0
 70
     8
 71
     3
 72
    15
 73
    11
 74
     0
 42
0.000000001
 43
0.00000001
 40
0.0
 40
0.0
 40
0.0
 40
0.0
 40
0.169413019536286
 40
0.321254288174706
 40
0.4568984035673731
 40
0.5822213420228548
 40
0.696602802077264
 40
0.8008034728957876
 40
0.9002131751567249
 40
1.0
 40
1.0
 40
1.0
 40
1.0
 10
15.09961038961039
 20
0.2928571428571425
 30
0.0
 10
15.09978210082383
 20
0.2912170056144832
 30
0.0
 10
15.10010771312798
 20
0.2881068484149849
 30
0.0
 10
15.101205329123
 20
0.2837849638933312
 30
0.0
 10
15.10271759728822
 20
0.2800501045010657
 30
0.0
 10
15.10468826627094
 20
0.2769493687682893
 30
0.0
 10
15.1070190764726
 20
0.2745226363022727
 30
0.0
 10
15.10955154153867
 20
0.2727169677806255
 30
0.0
 10
15.11233950188393
 20
0.271611662929134
 30
0.0
 10
15.11428239573247
 20
0.2714896789095665
 30
0.0
 10
15.11525568181818
 20
0.2714285714285714
 30
0.0
  0
SPLINE
  5
AD
330
1F
100
AcDbEntity
  8
0
  6
Continuous
 62
     7
370
    35
100
AcDbSpline
210
0.0
220
0.0
230
1.0
 70
     8
 71
     3
 72
    23
 73
    19
 74
     0
 42
0.000000001
 43
0.00000001
 40
0.0
 40
0.0
 40
0.0
 40
0.0
 40
0.0615184991541169
 40
0.12159877220687
 40
0.1798087130824693
 40
0.2371923071146886
 40
0.294982449581671
 40
0.3527381467175682
 40
0.4118659044293829
 40
0.4721445847256917
 40
0.5334648702190042
 40
0.5954005772925661
 40
0.6578857308577022
 40
0.7217293153825017
 40
0.787421830345981
 40
0.8552810743914513
 40
0.9258812380565791
 40
1.0
 40
1.0
 40
1.0
 40
1.0
 10
15.11571225649351
 20
0.2480519480519479
 30
0.0
 10
15.11442199450404
 20
0.2480886251496678
 30
0.0
 10
15.11187163524787
 20
0.2481611218801179
 30
0.0
 10
15.10812998848622
 20
0.2486877503353496
 30
0.0
 10
15.10454122269777
 20
0.2495407825058918
 30
0.0
 10
15.10110011666045
 20
0.2507346716469201
 30
0.0
 10
15.0978139146043
 20
0.2522854624540308
 30
0.0
 10
15.09468618583628
 20
0.2542022767927911
 30
0.0
 10
15.0916970604188
 20
0.2564177099731156
 30
0.0
 10
15.08889979511856
 20
0.2589839070554991
 30
0.0
 10
15.08631128739345
 20
0.2618394895395363
 30
0.0
 10
15.08399460378572
 20
0.2649791951283448
 30
0.0
 10
15.08198202363897
 20
0.2683824814137883
 30
0.0
 10
15.08024575935734
 20
0.2720202829326981
 30
0.0
 10
15.07877470662622
 20
0.2758956739126701
 30
0.0
 10
15.07763621106456
 20
0.2800264683831313
 30
0.0
 10
15.07672754607376
 20
0.2843963313191705
 30
0.0
 10
15.07640100593924
 20
0.2874150050816204
 30
0.0
 10
15.07623376623377
 20
0.2889610389610387
 30
0.0
  0
CIRCLE
  5
AE
330
1F
100
AcDbEntity
  8
0
  6
Continuous
 62
     7
370
    35
100
AcDbCircle
 10
0.48
 20
6.525
 30
0.0
 40
0.0749999999999991
  0
CIRCLE
  5
AF
330
1F
100
AcDbEntity
  8
0
  6
Continuous
 62
     7
370
    35
100
AcDbCircle
 10
3.48
 20
6.525
 30
0.0
 40
0.0749999999999988
  0
CIRCLE
  5
B0
330
1F
100
AcDbEntity
  8
0
  6
Continuous
 62
     7
370
    35
100
AcDbCircle
 10
6.48
 20
6.525
 30
0.0
 40
0.0749999999999993
  0
CIRCLE
  5
B1
330
1F
100
AcDbEntity
  8
0
  6
Continuous
 62
     7
370
    35
100
AcDbCircle
 10
9.48
 20
6.525
 30
0.0
 40
0.0749999999999993
  0
CIRCLE
  5
B2
330
1F
100
AcDbEntity
  8
0
  6
Continuous
 62
     7
370
    35
100
AcDbCircle
 10
12.48
 20
6.525
 30
0.0
 40
0.0750000000000011
  0
CIRCLE
  5
B3
330
1F
100
AcDbEntity
  8
0
  6
Continuous
 62
     7
370
    35
100
AcDbCircle
 10
15.48
 20
6.525
 30
0.0
 40
0.0749999999999993
  0
CIRCLE
  5
B4
330
1F
100
AcDbEntity
  8
0
  6
Continuous
 62
     7
370
    35
100
AcDbCircle
 10
6.13625
 20
0.5
 30
0.0
 40
0.1250000000000009
  0
CIRCLE
  5
B5
330
1F
100
AcDbEntity
  8
0
  6
Continuous
 62
     7
370
    35
100
AcDbCircle
 10
9.82375
 20
0.5
 30
0.0
 40
0.1250000000000018
  0
CIRCLE
  5
B6
330
1F
100
AcDbEntity
  8
0
  6
Continuous
 62
     7
370
    35
100
AcDbCircle
 10
13.4275
 20
0.4895
 30
0.0
 40
0.0750000000000011
  0
CIRCLE
  5
B7
330
1F
100
AcDbEntity
  8
0
  6
Continuous
 62
     7
370
    35
100
AcDbCircle
 10
2.5325
 20
0.4895
 30
0.0
 40
0.0750000000000006
  0
CIRCLE
  5
B8
330
1F
100
AcDbEntity
  8
0
  6
Continuous
 62
     7
370
    35
100
AcDbCircle
 10
14.7925
 20
6.4625
 30
0.0
 40
0.0499999999999989
  0
CIRCLE
  5
B9
330
1F
100
AcDbEntity
  8
0
  6
Continuous
 62
     7
370
    35
100
AcDbCircle
 10
14.1675
 20
6.4625
 30
0.0
 40
0.0500000000000007
  0
CIRCLE
  5
BA
330
1F
100
AcDbEntity
  8
0
  6
Continuous
 62
     7
370
    35
100
AcDbCircle
 10
1.7925
 20
6.4625
 30
0.0
 40
0.0499999999999998
  0
CIRCLE
  5
BB
330
1F
100
AcDbEntity
  8
0
  6
Continuous
 62
     7
370
    35
100
AcDbCircle
 10
1.1675
 20
6.4625
 30
0.0
 40
0.05
  0
SPLINE
  5
C0
330
1F
100
AcDbEntity
  8
0
  6
Continuous
 62
     7
370
    35
100
AcDbSpline
210
0.0
220
0.0
230
1.0
 70
     8
 71
     3
 72
    31
 73
    27
 74
     0
 42
0.000000001
 43
0.00000001
 40
0.0
 40
0.0
 40
0.0
 40
0.0
 40
0.0453468763444525
 40
0.0894212955053662
 40
0.1324562509395713
 40
0.1759081317163854
 40
0.219708992307137
 40
0.2650227243838109
 40
0.3129657372291269
 40
0.3634815151729458
 40
0.3901865346342381
 40
0.4183554627168927
 40
0.4478225631596001
 40
0.4790889582044993
 40
0.5120170720408432
 40
0.5468821536313384
 40
0.583343898608659
 40
0.6217639059701464
 40
0.6619325519613724
 40
0.7040951740726219
 40
0.7483770460884783
 40
0.7944242297942153
 40
0.8429497254336829
 40
0.8930033801643952
 40
0.945563688723356
 40
1.0
 40
1.0
 40
1.0
 40
1.0
 10
15.02077516233766
 20
0.2480519480519479
 30
0.0
 10
15.01932125196386
 20
0.2481088255501218
 30
0.0
 10
15.01645422870549
 20
0.2482209845339763
 30
0.0
 10
15.01225956205075
 20
0.2489821949034111
 30
0.0
 10
15.00827590624179
 20
0.2503102707043475
 30
0.0
 10
15.00452733160944
 20
0.2521811329990579
 30
0.0
 10
15.00098647486815
 20
0.2545522322306772
 30
0.0
 10
14.99767383836336
 20
0.2574557450783738
 30
0.0
 10
14.99457011955167
 20
0.2608759370659689
 30
0.0
 10
14.99221055396205
 20
0.2641308683892254
 30
0.0
 10
14.99043632470054
 20
0.2670085216192011
 30
0.0
 10
14.98919862978135
 20
0.2694154599472513
 30
0.0
 10
14.98804504628017
 20
0.2720222616128755
 30
0.0
 10
14.98693466994253
 20
0.2748141979038298
 30
0.0
 10
14.98598319823621
 20
0.2778458906729622
 30
0.0
 10
14.98506531087446
 20
0.2810598457236119
 30
0.0
 10
14.98424134132145
 20
0.2844818423336427
 30
0.0
 10
14.98353037488581
 20
0.2881012752503178
 30
0.0
 10
14.9828351370039
 20
0.2919105068212641
 30
0.0
 10
14.98231835682144
 20
0.2959374376168566
 30
0.0
 10
14.98180701336867
 20
0.3001545620718968
 30
0.0
 10
14.98146770749736
 20
0.3045939628241755
 30
0.0
 10
14.9811500244292
 20
0.3092197607823172
 30
0.0
 10
14.98095431156732
 20
0.3140614357627096
 30
0.0
 10
14.98077856016013
 20
0.3190937135583068
 30
0.0
 10
14.98077899801385
 20
0.3225241757699934
 30
0.0
 10
14.98077922077922
 20
0.3242694805194801
 30
0.0
  0
SPLINE
  5
C1
330
1F
100
AcDbEntity
  8
0
  6
Continuous
 62
     7
370
    35
100
AcDbSpline
210
0.0
220
0.0
230
1.0
 70
     8
 71
     3
 72
    23
 73
    19
 74
     0
 42
0.000000001
 43
0.00000001
 40
0.0
 40
0.0
 40
0.0
 40
0.0
 40
0.1059412103718443
 40
0.2037444897082088
 40
0.2935704653365807
 40
0.3759895795706481
 40
0.4506168083439036
 40
0.5184379236531581
 40
0.5794623383630059
 40
0.6348584468704657
 40
0.6858878790312044
 40
0.7340971661272812
 40
0.7798502067640378
 40
0.8240510040346883
 40
0.8674385462160064
 40
0.9106917884357918
 40
0.9544231100822917
 40
1.0
 40
1.0
 40
1.0
 40
1.0
 10
15.06064935064935
 20
0.3239650974025973
 30
0.0
 10
15.06061510296668
 20
0.3205857057516138
 30
0.0
 10
15.06054923835549
 20
0.3140865122362942
 30
0.0
 10
15.06002859656346
 20
0.304733798699012
 30
0.0
 10
15.05920441083771
 20
0.2961565471661929
 30
0.0
 10
15.0580040131275
 20
0.2883687506572727
 30
0.0
 10
15.05646008182171
 20
0.2813596244182401
 30
0.0
 10
15.05461421513166
 20
0.2751285036123958
 30
0.0
 10
15.05236157788924
 20
0.2696878642258352
 30
0.0
 10
15.04976320382509
 20
0.2650057347881802
 30
0.0
 10
15.04685313747176
 20
0.2610121477985291
 30
0.0
 10
15.04378735176029
 20
0.2575378919993503
 30
0.0
 10
15.040471358702
 20
0.2546163976031015
 30
0.0
 10
15.03694638474155
 20
0.2522179292228763
 30
0.0
 10
15.03320677481291
 20
0.2503311872424154
 30
0.0
 10
15.02924428209404
 20
0.2490325639351567
 30
0.0
 10
15.02508088604128
 20
0.2482049782482684
 30
0.0
 10
15.02223004129094
 20
0.2481036560636938
 30
0.0
 10
15.02077516233767
 20
0.2480519480519479
 30
0.0
  0
SPLINE
  5
C2
330
1F
100
AcDbEntity
  8
0
  6
Continuous
 62
     7
370
    35
100
AcDbSpline
210
0.0
220
0.0
230
1.0
 70
     8
 71
     3
 72
    23
 73
    19
 74
     0
 42
0.000000001
 43
0.00000001
 40
0.0
 40
0.0
 40
0.0
 40
0.0
 40
0.045468939126507
 40
0.0897200645561912
 40
0.1328708596426141
 40
0.1764397023334914
 40
0.2205358081465733
 40
0.2661804807717237
 40
0.3144876376243047
 40
0.3653962044169786
 40
0.4206611048987837
 40
0.4818338823541087
 40
0.5491907999022072
 40
0.6239510509079929
 40
0.7061749519845619
 40
0.7961039494536288
 40
0.8939924304766154
 40
1.0
 40
1.0
 40
1.0
 40
1.0
 10
15.02065340909091
 20
0.3999999999999996
 30
0.0
 10
15.02210793907697
 20
0.3999465376446885
 30
0.0
 10
15.02497804176146
 20
0.3998410448387854
 30
0.0
 10
15.02916560085903
 20
0.3990300187478765
 30
0.0
 10
15.03315214329441
 20
0.3977123958146508
 30
0.0
 10
15.03691012639757
 20
0.3958431896685363
 30
0.0
 10
15.04044184613123
 20
0.3934356751839418
 30
0.0
 10
15.04375617551602
 20
0.3905045371781584
 30
0.0
 10
15.04685571206198
 20
0.3870510317671929
 30
0.0
 10
15.04976038929088
 20
0.3830441635390957
 30
0.0
 10
15.0523706282787
 20
0.3783579299841607
 30
0.0
 10
15.0545999485131
 20
0.3729079986515237
 30
0.0
 10
15.0564722100304
 20
0.3666755525413643
 30
0.0
 10
15.05799783103893
 20
0.3596613472505414
 30
0.0
 10
15.05920806025141
 20
0.3518554172957903
 30
0.0
 10
15.06002764306317
 20
0.3432570472750188
 30
0.0
 10
15.06054944933172
 20
0.333874148146833
 30
0.0
 10
15.06061517778015
 20
0.3273546492427591
 30
0.0
 10
15.06064935064935
 20
0.3239650974025973
 30
0.0
  0
SPLINE
  5
C3
330
1F
100
AcDbEntity
  8
0
  6
Continuous
 62
     7
370
    35
100
AcDbSpline
210
0.0
220
0.0
230
1.0
 70
     8
 71
     3
 72
    23
 73
    19
 74
     0
 42
0.000000001
 43
0.00000001
 40
0.0
 40
0.0
 40
0.0
 40
0.0
 40
0.105822640651236
 40
0.2034924190415412
 40
0.2931709155782592
 40
0.3751159960298296
 40
0.4498841578198851
 40
0.5175284969290087
 40
0.5786681558332988
 40
0.6341688795170051
 40
0.685294680415243
 40
0.7335950104239389
 40
0.7794344553684883
 40
0.8237187255458338
 40
0.867188204807111
 40
0.9105231304822863
 40
0.9543370384339401
 40
1.0
 40
1.0
 40
1.0
 40
1.0
 10
14.98077922077922
 20
0.3242694805194801
 30
0.0
 10
14.98081336920789
 20
0.3276387449190377
 30
0.0
 10
14.980879035178
 20
0.3341176964821172
 30
0.0
 10
14.98140081197469
 20
0.3434397895847935
 30
0.0
 10
14.98221998752832
 20
0.3519774158955633
 30
0.0
 10
14.98343253662368
 20
0.3597324807655001
 30
0.0
 10
14.98496208345076
 20
0.3667145004582233
 30
0.0
 10
14.98682069196997
 20
0.3729316598728503
 30
0.0
 10
14.98906638981235
 20
0.3783642615638771
 30
0.0
 10
14.99166550941467
 20
0.3830461715144264
 30
0.0
 10
14.99457539947584
 20
0.3870398104046475
 30
0.0
 10
14.99764122818402
 20
0.3905140535455606
 30
0.0
 10
15.00095721057833
 20
0.3934355510812922
 30
0.0
 10
15.00448218724262
 20
0.3958340186655001
 30
0.0
 10
15.00822179646859
 20
0.3977207608528318
 30
0.0
 10
15.01218428937412
 20
0.3990193841051328
 30
0.0
 10
15.01634768537686
 20
0.3998469698067518
 30
0.0
 10
15.01919853013412
 20
0.3999482919892923
 30
0.0
 10
15.02065340909091
 20
0.3999999999999996
 30
0.0
  0
SPLINE
  5
D0
330
1F
100
AcDbEntity
  8
0
  6
Continuous
 62
     7
370
    35
100
AcDbSpline
210
0.0
220
0.0
230
1.0
 70
     8
 71
     3
 72
    23
 73
    19
 74
     0
 42
0.000000001
 43
0.00000001
 40
0.0
 40
0.0
 40
0.0
 40
0.0
 40
0.0992738511585797
 40
0.1911713715685969
 40
0.2764103484557645
 40
0.3547196489376052
 40
0.4266155473936307
 40
0.4924835998333992
 40
0.5527371125052808
 40
0.608910052940029
 40
0.6615019419626988
 40
0.7119445974136938
 40
0.7602480616610274
 40
0.8075909430262778
 40
0.8546030058568379
 40
0.9017110160293299
 40
0.9498618301606707
 40
1.0
 40
1.0
 40
1.0
 40
1.0
 10
14.37298701298702
 20
0.3256087662337663
 30
0.0
 10
14.37302028409708
 20
0.3233356192964563
 30
0.0
 10
14.37308435417868
 20
0.3189582267332493
 30
0.0
 10
14.37345783117359
 20
0.3126358045725361
 30
0.0
 10
14.37416772235477
 20
0.3068269467083949
 30
0.0
 10
14.37507643698217
 20
0.3015088123749937
 30
0.0
 10
14.37631992781385
 20
0.2967124864281449
 30
0.0
 10
14.37783909199375
 20
0.2924350313501035
 30
0.0
 10
14.37958892749976
 20
0.2886346877891391
 30
0.0
 10
14.38167629357097
 20
0.2853613169241402
 30
0.0
 10
14.38398913655803
 20
0.2825354233135012
 30
0.0
 10
14.38644811154325
 20
0.2800819319904499
 30
0.0
 10
14.38910069190594
 20
0.2780323813480586
 30
0.0
 10
14.39187591412123
 20
0.2762953989529807
 30
0.0
 10
14.39484996925811
 20
0.274979159794753
 30
0.0
 10
14.3979876729732
 20
0.274083620175489
 30
0.0
 10
14.40127041669065
 20
0.2734642188399553
 30
0.0
 10
14.40352381499206
 20
0.2734062128156506
 30
0.0
 10
14.40467329545455
 20
0.2733766233766233
 30
0.0
  0
SPLINE
  5
D1
330
1F
100
AcDbEntity
  8
0
  6
Continuous
 62
     7
370
    35
100
AcDbSpline
210
0.0
220
0.0
230
1.0
 70
     8
 71
     3
 72
    23
 73
    19
 74
     0
 42
0.000000001
 43
0.00000001
 40
0.0
 40
0.0
 40
0.0
 40
0.0
 40
0.051730431117386
 40
0.1018107803085031
 40
0.1505686888310573
 40
0.1988729495165531
 40
0.2477608576926597
 40
0.2973736673188466
 40
0.3487134566509291
 40
0.4020912660667059
 40
0.4585409887653684
 40
0.518889689304424
 40
0.5839940670896159
 40
0.6547735541535629
 40
0.73146029492217
 40
0.8140436353755288
 40
0.9037771963084082
 40
1.0
 40
1.0
 40
1.0
 40
1.0
 10
14.40579951298701
 20
0.3766233766233766
 30
0.0
 10
14.40462069908932
 20
0.3765884261169309
 30
0.0
 10
14.40230067274952
 20
0.3765196399449139
 30
0.0
 10
14.3989016344021
 20
0.3759723631019363
 30
0.0
 10
14.39568568236399
 20
0.3750043830445165
 30
0.0
 10
14.39260439930157
 20
0.3737336159683651
 30
0.0
 10
14.38970956238664
 20
0.3720405756909893
 30
0.0
 10
14.38696894519758
 20
0.3699902800988891
 30
0.0
 10
14.38445624005392
 20
0.367520767811184
 30
0.0
 10
14.3820480772491
 20
0.3647429902672413
 30
0.0
 10
14.3798658742488
 20
0.361524585938495
 30
0.0
 10
14.37801303493604
 20
0.3578049663439155
 30
0.0
 10
14.37648477881738
 20
0.3535974105346991
 30
0.0
 10
14.37516836638875
 20
0.3489320948321613
 30
0.0
 10
14.37418344781914
 20
0.3437783675398699
 30
0.0
 10
14.37349994460932
 20
0.3381442096650767
 30
0.0
 10
14.37307336159005
 20
0.3320377916307086
 30
0.0
 10
14.37301645777108
 20
0.3278010572253017
 30
0.0
 10
14.37298701298701
 20
0.3256087662337663
 30
0.0
  0
SPLINE
  5
D2
330
1F
100
AcDbEntity
  8
0
  6
Continuous
 62
     7
370
    35
100
AcDbSpline
210
0.0
220
0.0
230
1.0
 70
     8
 71
     3
 72
    23
 73
    19
 74
     0
 42
0.000000001
 43
0.00000001
 40
0.0
 40
0.0
 40
0.0
 40
0.0
 40
0.0750044403515883
 40
0.1459461838651558
 40
0.2148513524602289
 40
0.2808426619134805
 40
0.3449910368470364
 40
0.4076198290873365
 40
0.4688818475065719
 40
0.5300077783417709
 40
0.5899367090982013
 40
0.6484215830135894
 40
0.7061035540882279
 40
0.7635347327964628
 40
0.8214999427506506
 40
0.8795273753997295
 40
0.9388604467754373
 40
1.0
 40
1.0
 40
1.0
 40
1.0
 10
14.43337662337662
 20
0.3512987012987011
 30
0.0
 10
14.43315695450829
 20
0.3522963852646784
 30
0.0
 10
14.43272951537407
 20
0.3542377125628399
 30
0.0
 10
14.43187132627653
 20
0.3570393120185563
 30
0.0
 10
14.4308265153744
 20
0.3596414411629484
 30
0.0
 10
14.42968974740524
 20
0.3621065677692888
 30
0.0
 10
14.42832088956709
 20
0.3643494269547832
 30
0.0
 10
14.42688902114907
 20
0.3664771838991203
 30
0.0
 10
14.42521002135562
 20
0.3683622940479023
 30
0.0
 10
14.42343620456863
 20
0.3701038125474737
 30
0.0
 10
14.42150500322952
 20
0.3716087732077437
 30
0.0
 10
14.41952824507515
 20
0.3729697753258303
 30
0.0
 10
14.41744699535327
 20
0.3741013488223904
 30
0.0
 10
14.41526993551494
 20
0.3750114183812965
 30
0.0
 10
14.41302285095506
 20
0.3757479397454083
 30
0.0
 10
14.41068899744871
 20
0.3762658796548369
 30
0.0
 10
14.40827371610036
 20
0.3765795264906642
 30
0.0
 10
14.40663245092515
 20
0.3766086145212147
 30
0.0
 10
14.40579951298702
 20
0.3766233766233766
 30
0.0
  0
SPLINE
  5
D4
330
1F
100
AcDbEntity
  8
0
  6
Continuous
 62
     7
370
    35
100
AcDbSpline
210
0.0
220
0.0
230
1.0
 70
     8
 71
     3
 72
    15
 73
    11
 74
     0
 42
0.000000001
 43
0.00000001
 40
0.0
 40
0.0
 40
0.0
 40
0.0
 40
0.1072503015887365
 40
0.2185459523769697
 40
0.334163169633059
 40
0.4549120899659262
 40
0.5810446927853323
 40
0.7138894365992045
 40
0.8536038863675847
 40
0.9999999999999999
 40
0.9999999999999999
 40
0.9999999999999999
 40
0.9999999999999999
 10
14.44217329545455
 20
0.3881594967532466
 30
0.0
 10
14.44299080148673
 20
0.3873111821601306
 30
0.0
 10
14.44465664887113
 20
0.385582555592919
 30
0.0
 10
14.44689971612213
 20
0.3826707920929941
 30
0.0
 10
14.44897640720752
 20
0.3794640489050164
 30
0.0
 10
14.45084948926862
 20
0.375948641123133
 30
0.0
 10
14.45259083415958
 20
0.372158927927553
 30
0.0
 10
14.45417426879058
 20
0.3680754835175932
 30
0.0
 10
14.45556725010762
 20
0.3636890181090672
 30
0.0
 10
14.45635180717111
 20
0.3606472903586708
 30
0.0
 10
14.45675324675325
 20
0.3590909090909087
 30
0.0
  0
SPLINE
  5
D5
330
1F
100
AcDbEntity
  8
0
  6
Continuous
 62
     7
370
    35
100
AcDbSpline
210
0.0
220
0.0
230
1.0
 70
     8
 71
     3
 72
    15
 73
    11
 74
     0
 42
0.000000001
 43
0.00000001
 40
0.0
 40
0.0
 40
0.0
 40
0.0
 40
0.132771786671733
 40
0.2609567170196023
 40
0.3850370802443958
 40
0.507368501028838
 40
0.6289237650425437
 40
0.7507149859123374
 40
0.8740020551663804
 40
1.0
 40
1.0
 40
1.0
 40
1.0
 10
14.40750405844156
 20
0.401948051948052
 30
0.0
 10
14.40920024442125
 20
0.4019074515022918
 30
0.0
 10
14.41253401837888
 20
0.4018276532311333
 30
0.0
 10
14.41742239338125
 20
0.401189709730811
 30
0.0
 10
14.42207977240806
 20
0.4000679752819087
 30
0.0
 10
14.42655161827085
 20
0.398596609717922
 30
0.0
 10
14.43079869732673
 20
0.3966279377774576
 30
0.0
 10
14.43483329015204
 20
0.3942390692645781
 30
0.0
 10
14.43867126290484
 20
0.3914378580009654
 30
0.0
 10
14.44099751890111
 20
0.389260177639003
 30
0.0
 10
14.44217329545455
 20
0.3881594967532466
 30
0.0
  0
SPLINE
  5
D6
330
1F
100
AcDbEntity
  8
0
  6
Continuous
 62
     7
370
    35
100
AcDbSpline
210
0.0
220
0.0
230
1.0
 70
     8
 71
     3
 72
    15
 73
    11
 74
     0
 42
0.000000001
 43
0.00000001
 40
0.0
 40
0.0
 40
0.0
 40
0.0
 40
0.1271825264329725
 40
0.2506494788581029
 40
0.3711002600018337
 40
0.4920673072399505
 40
0.6128857957300554
 40
0.7373442141406547
 40
0.865637969932319
 40
1.0
 40
1.0
 40
1.0
 40
1.0
 10
14.36696022727273
 20
0.3832589285714286
 30
0.0
 10
14.36823575213484
 20
0.3847516210220401
 30
0.0
 10
14.37074953803709
 20
0.3876933976586157
 30
0.0
 10
14.37504619610854
 20
0.3915027917287663
 30
0.0
 10
14.37966215591496
 20
0.3947409123654088
 30
0.0
 10
14.38459574713313
 20
0.3973921105921274
 30
0.0
 10
14.38986904577396
 20
0.3994541260355549
 30
0.0
 10
14.39545624302529
 20
0.4009091162838183
 30
0.0
 10
14.40137970900548
 20
0.4017676188199454
 30
0.0
 10
14.40543140580467
 20
0.401886988286898
 30
0.0
 10
14.40750405844156
 20
0.401948051948052
 30
0.0
  0
SPLINE
  5
D7
330
1F
100
AcDbEntity
  8
0
  6
Continuous
 62
     7
370
    35
100
AcDbSpline
210
0.0
220
0.0
230
1.0
 70
     8
 71
     3
 72
    15
 73
    11
 74
     0
 42
0.000000001
 43
0.00000001
 40
0.0
 40
0.0
 40
0.0
 40
0.0
 40
0.1463873591182545
 40
0.2851380128631188
 40
0.4168104989665482
 40
0.5423047826138407
 40
0.6622468596054026
 40
0.7781696227108121
 40
0.89004981834313
 40
1.0
 40
1.0
 40
1.0
 40
1.0
 10
14.34961038961039
 20
0.3236911525974023
 30
0.0
 10
14.3496588865017
 20
0.3267776929182445
 30
0.0
 10
14.34975335030857
 20
0.3327897555649647
 30
0.0
 10
14.35060385378054
 20
0.3415427472547333
 30
0.0
 10
14.35190040984771
 20
0.3497947351999126
 30
0.0
 10
14.3538335211653
 20
0.3575150481061308
 30
0.0
 10
14.35625516888943
 20
0.36474801659032
 30
0.0
 10
14.35924710766588
 20
0.3714485368610846
 30
0.0
 10
14.3627210488567
 20
0.3776866860652347
 30
0.0
 10
14.36555538776556
 20
0.3814123192410373
 30
0.0
 10
14.36696022727273
 20
0.3832589285714286
 30
0.0
  0
SPLINE
  5
D8
330
1F
100
AcDbEntity
  8
0
  6
Continuous
 62
     7
370
    35
100
AcDbSpline
210
0.0
220
0.0
230
1.0
 70
     8
 71
     3
 72
    15
 73
    11
 74
     0
 42
0.000000001
 43
0.00000001
 40
0.0
 40
0.0
 40
0.0
 40
0.0
 40
0.1122675692841995
 40
0.2261733952751686
 40
0.3425897754536929
 40
0.4632458673994784
 40
0.5879906710680831
 40
0.7186822536926718
 40
0.8561178981185686
 40
1.0
 40
1.0
 40
1.0
 40
1.0
 10
14.36680803571429
 20
0.2664366883116884
 30
0.0
 10
14.36542971321358
 20
0.2682565857334449
 30
0.0
 10
14.3626529551368
 20
0.2719229373036771
 30
0.0
 10
14.35916688952602
 20
0.2779687445482307
 30
0.0
 10
14.35620192381164
 20
0.2844639483557827
 30
0.0
 10
14.35377524561572
 20
0.2914144357398515
 30
0.0
 10
14.35188377786061
 20
0.2988279070261553
 30
0.0
 10
14.35056139631589
 20
0.3067078965596761
 30
0.0
 10
14.34976726586894
 20
0.3150505928000809
 30
0.0
 10
14.34966347449721
 20
0.3207672994719448
 30
0.0
 10
14.34961038961039
 20
0.3236911525974023
 30
0.0
  0
SPLINE
  5
D9
330
1F
100
AcDbEntity
  8
0
  6
Continuous
 62
     7
370
    35
100
AcDbSpline
210
0.0
220
0.0
230
1.0
 70
     8
 71
     3
 72
    15
 73
    11
 74
     0
 42
0.000000001
 43
0.00000001
 40
0.0
 40
0.0
 40
0.0
 40
0.0
 40
0.1316768117292838
 40
0.2579517628975281
 40
0.3807866534129605
 40
0.5019003462761098
 40
0.6229756828889601
 40
0.7451413544397211
 40
0.8701650120767681
 40
1.0
 40
1.0
 40
1.0
 40
1.0
 10
14.40579951298701
 20
0.2480519480519479
 30
0.0
 10
14.40383746997591
 20
0.2480960596025603
 30
0.0
 10
14.39999387407661
 20
0.2481824730879358
 30
0.0
 10
14.39438532905812
 20
0.2491122607497135
 30
0.0
 10
14.38904831529788
 20
0.2505249111390401
 30
0.0
 10
14.38399245313887
 20
0.2525534859344288
 30
0.0
 10
14.37921174740189
 20
0.2551464364633187
 30
0.0
 10
14.37475670201304
 20
0.2583581865481462
 30
0.0
 10
14.37052336243712
 20
0.2620691681657533
 30
0.0
 10
14.36806196704614
 20
0.2649626401963941
 30
0.0
 10
14.36680803571429
 20
0.2664366883116884
 30
0.0
  0
SPLINE
  5
DA
330
1F
100
AcDbEntity
  8
0
  6
Continuous
 62
     7
370
    35
100
AcDbSpline
210
0.0
220
0.0
230
1.0
 70
     8
 71
     3
 72
    23
 73
    19
 74
     0
 42
0.000000001
 43
0.00000001
 40
0.0
 40
0.0
 40
0.0
 40
0.0
 40
0.0801616470813483
 40
0.1561989268437296
 40
0.2278771626469831
 40
0.2956748486074658
 40
0.3607073859305227
 40
0.4227320804178304
 40
0.4820427700734937
 40
0.539774725005631
 40
0.5962325244544505
 40
0.6517722966668837
 40
0.7073368046353457
 40
0.7632594742596164
 40
0.8202573065954097
 40
0.8781360859146198
 40
0.9380339774460235
 40
1.0
 40
1.0
 40
1.0
 40
1.0
 10
14.45675324675325
 20
0.2948051948051944
 30
0.0
 10
14.45627045282131
 20
0.2928401742330771
 30
0.0
 10
14.45532970500984
 20
0.289011234637073
 30
0.0
 10
14.45354993977974
 20
0.2835386037766428
 30
0.0
 10
14.45159151148229
 20
0.2784608358544844
 30
0.0
 10
14.44935095955854
 20
0.2738063530473644
 30
0.0
 10
14.446905100985
 20
0.2695343199368453
 30
0.0
 10
14.44418824973358
 20
0.2656867749249556
 30
0.0
 10
14.44125152084181
 20
0.2622440183519154
 30
0.0
 10
14.43807821094614
 20
0.2592140944775736
 30
0.0
 10
14.43467346643788
 20
0.2566070871255039
 30
0.0
 10
14.43113288374096
 20
0.2542839789311185
 30
0.0
 10
14.42736503465304
 20
0.2523795250239686
 30
0.0
 10
14.42342267915372
 20
0.2507715067372666
 30
0.0
 10
14.41927482318056
 20
0.2495762123925049
 30
0.0
 10
14.41495298116295
 20
0.2486767039091824
 30
0.0
 10
14.41043860272166
 20
0.2481619632176676
 30
0.0
 10
14.40736327319051
 20
0.2480890323395506
 30
0.0
 10
14.40579951298701
 20
0.2480519480519479
 30
0.0
  0
SPLINE
  5
DC
330
1F
100
AcDbEntity
  8
0
  6
Continuous
 62
     7
370
    35
100
AcDbSpline
210
0.0
220
0.0
230
1.0
 70
     8
 71
     3
 72
    23
 73
    19
 74
     0
 42
0.000000001
 43
0.00000001
 40
0.0
 40
0.0
 40
0.0
 40
0.0
 40
0.0546275401090125
 40
0.1083657306350083
 40
0.1605038216475836
 40
0.2129064907804262
 40
0.2655354690657993
 40
0.318638591868357
 40
0.3730719599897679
 40
0.4289238973119055
 40
0.4875616328355864
 40
0.5487033816947587
 40
0.6133061188198204
 40
0.6818083507388604
 40
0.754578123688103
 40
0.831085494155536
 40
0.9130788705153852
 40
1.0
 40
1.0
 40
1.0
 40
1.0
 10
14.40467329545455
 20
0.2733766233766233
 30
0.0
 10
14.40551634237355
 20
0.2734027330387634
 30
0.0
 10
14.40718871120353
 20
0.273454527291421
 30
0.0
 10
14.40964961646454
 20
0.2737843380537973
 30
0.0
 10
14.41202434876896
 20
0.2743740335335631
 30
0.0
 10
14.41431322839701
 20
0.2751921691666182
 30
0.0
 10
14.41650650019494
 20
0.2762715945618611
 30
0.0
 10
14.41862666713848
 20
0.2775504002313385
 30
0.0
 10
14.42063089926097
 20
0.2790875385570958
 30
0.0
 10
14.42257120156627
 20
0.2808328835506314
 30
0.0
 10
14.4244012567329
 20
0.2828403387804039
 30
0.0
 10
14.42607378728953
 20
0.2851483468580586
 30
0.0
 10
14.42762775719382
 20
0.2877156577542334
 30
0.0
 10
14.42905377199284
 20
0.2905581936194673
 30
0.0
 10
14.43036092642209
 20
0.2936576849219303
 30
0.0
 10
14.4315134523474
 20
0.2970379165135445
 30
0.0
 10
14.43255638128338
 20
0.3006820125917933
 30
0.0
 10
14.43309794300787
 20
0.3032328354575055
 30
0.0
 10
14.43337662337662
 20
0.3045454545454546
 30
0.0
  0
SPLINE
  5
DD
330
1F
100
AcDbEntity
  8
0
  6
Continuous
 62
     7
370
    35
100
AcDbSpline
210
0.0
220
0.0
230
1.0
 70
     8
 71
     3
 72
    23
 73
    19
 74
     0
 42
0.000000001
 43
0.00000001
 40
0.0
 40
0.0
 40
0.0
 40
0.0
 40
0.0459309663212098
 40
0.0906953690752765
 40
0.1346879139170894
 40
0.1792492355713359
 40
0.2248969069580225
 40
0.2727227121900694
 40
0.322746277924758
 40
0.3759735277318604
 40
0.43319224344029
 40
0.4950591647977219
 40
0.5628095946487034
 40
0.6364709576347527
 40
0.7169118652570384
 40
0.8040264816661888
 40
0.8984303394526723
 40
1.0
 40
1.0
 40
1.0
 40
1.0
 10
14.92681209415585
 20
0.2480519480519479
 30
0.0
 10
14.92534681050932
 20
0.2481022231663317
 30
0.0
 10
14.92245345877375
 20
0.2482014964980188
 30
0.0
 10
14.91823039692202
 20
0.2490618242843162
 30
0.0
 10
14.91418193047637
 20
0.2503915543398927
 30
0.0
 10
14.91036373998752
 20
0.2523510977738833
 30
0.0
 10
14.90669757037663
 20
0.25480175012016
 30
0.0
 10
14.903264200919
 20
0.2578425403131708
 30
0.0
 10
14.90002309408864
 20
0.2614130841562416
 30
0.0
 10
14.8969533114239
 20
0.2655139048514186
 30
0.0
 10
14.89415830829713
 20
0.2702583576372679
 30
0.0
 10
14.89181214888166
 20
0.2757440221670912
 30
0.0
 10
14.88977028498362
 20
0.2819006828558629
 30
0.0
 10
14.88816520086745
 20
0.2887941738903052
 30
0.0
 10
14.88685121287879
 20
0.2963733593388511
 30
0.0
 10
14.88597216806861
 20
0.3046806095048998
 30
0.0
 10
14.88541878371225
 20
0.3136896261752972
 30
0.0
 10
14.88535680026539
 20
0.3199362071826813
 30
0.0
 10
14.88532467532468
 20
0.323173701298701
 30
0.0
  0
SPLINE
  5
DE
330
1F
100
AcDbEntity
  8
0
  6
Continuous
 62
     7
370
    35
100
AcDbSpline
210
0.0
220
0.0
230
1.0
 70
     8
 71
     3
 72
    19
 73
    15
 74
     0
 42
0.000000001
 43
0.00000001
 40
0.0
 40
0.0
 40
0.0
 40
0.0
 40
0.0980377710792932
 40
0.1892642765742057
 40
0.2739371110361348
 40
0.3522171741877569
 40
0.4254519281862374
 40
0.492156693738738
 40
0.5548113149480018
 40
0.6133515098103046
 40
0.7195826317642255
 40
0.8163820309456935
 40
0.9074025930405388
 40
1.0
 40
1.0
 40
1.0
 40
1.0
 10
14.94181818181819
 20
0.2969967532467533
 30
0.0
 10
14.94180941846705
 20
0.2981334289377121
 30
0.0
 10
14.94179250060677
 20
0.3003278087158376
 30
0.0
 10
14.94158144476447
 20
0.3034988576762618
 30
0.0
 10
14.941212845582
 20
0.3064235022479592
 30
0.0
 10
14.94073829051896
 20
0.3091220596462927
 30
0.0
 10
14.94010457273701
 20
0.3115741713941695
 30
0.0
 10
14.93934258621934
 20
0.3137980150615794
 30
0.0
 10
14.93844166202752
 20
0.315787722940556
 30
0.0
 10
14.93704732465646
 20
0.3180298484250524
 30
0.0
 10
14.935111578881
 20
0.3203939911274641
 30
0.0
 10
14.93239238000126
 20
0.3224916638303514
 30
0.0
 10
14.92935864489843
 20
0.3238167626775824
 30
0.0
 10
14.92722063598166
 20
0.3239558387979968
 30
0.0
 10
14.9261424512987
 20
0.3240259740259737
 30
0.0
  0
SPLINE
  5
DF
330
1F
100
AcDbEntity
  8
0
  6
Continuous
 62
     7
370
    35
100
AcDbSpline
210
0.0
220
0.0
230
1.0
 70
     8
 71
     3
 72
    19
 73
    15
 74
     0
 42
0.000000001
 43
0.00000001
 40
0.0
 40
0.0
 40
0.0
 40
0.0
 40
0.0924497033226067
 40
0.1826598079166383
 40
0.2766628542394859
 40
0.3812388536160129
 40
0.4386336524067106
 40
0.5008565921644688
 40
0.5682831460944683
 40
0.6420346152308045
 40
0.7211386514548095
 40
0.8069295975861626
 40
0.8998614408321323
 40
0.9999999999999999
 40
0.9999999999999999
 40
0.9999999999999999
 40
0.9999999999999999
 10
14.9272077922078
 20
0.2714285714285714
 30
0.0
 10
14.92822391163842
 20
0.2714925801723967
 30
0.0
 10
14.93023153495516
 20
0.2716190470449981
 30
0.0
 10
14.93306561189557
 20
0.2728348687404649
 30
0.0
 10
14.93559163854656
 20
0.2747697830642606
 30
0.0
 10
14.93741058885954
 20
0.2769326084879205
 30
0.0
 10
14.93867921804706
 20
0.2790368268573417
 30
0.0
 10
14.9395356510454
 20
0.2809023990490644
 30
0.0
 10
14.94021228632207
 20
0.2830261256068657
 30
0.0
 10
14.94083061846158
 20
0.2853576088316091
 30
0.0
 10
14.94128378239015
 20
0.287933658491645
 30
0.0
 10
14.94156117971071
 20
0.2907424485486407
 30
0.0
 10
14.9417985056156
 20
0.2937866847008934
 30
0.0
 10
14.94181146187837
 20
0.2959004305515721
 30
0.0
 10
14.94181818181819
 20
0.2969967532467533
 30
0.0
  0
SPLINE
  5
E0
330
1F
100
AcDbEntity
  8
0
  6
Continuous
 62
     7
370
    35
100
AcDbSpline
210
0.0
220
0.0
230
1.0
 70
     8
 71
     3
 72
    23
 73
    19
 74
     0
 42
0.000000001
 43
0.00000001
 40
0.0
 40
0.0
 40
0.0
 40
0.0
 40
0.0917014566485825
 40
0.1784786234702848
 40
0.2607032917490364
 40
0.3371152801671863
 40
0.4102171366028556
 40
0.4781656762643626
 40
0.5434540387715574
 40
0.6063425282940142
 40
0.6650789398387584
 40
0.7203461980457003
 40
0.7720161073323022
 40
0.8207588898130364
 40
0.8663476624779528
 40
0.9114518991924636
 40
0.955734085217658
 40
1.0
 40
1.0
 40
1.0
 40
1.0
 10
14.91064935064935
 20
0.2994318181818181
 30
0.0
 10
14.91067143925016
 20
0.2983357475116491
 30
0.0
 10
14.91071443031279
 20
0.2962024642292739
 30
0.0
 10
14.91091583035437
 20
0.2930912205073779
 30
0.0
 10
14.91129481337687
 20
0.2901783150294759
 30
0.0
 10
14.91190085630879
 20
0.2874732524581864
 30
0.0
 10
14.91257117243225
 20
0.2849599468404734
 30
0.0
 10
14.9134293189326
 20
0.2826424943235864
 30
0.0
 10
14.91446985816682
 20
0.2805373993593442
 30
0.0
 10
14.91564377202421
 20
0.2786322735649919
 30
0.0
 10
14.91693024448991
 20
0.2769492907825568
 30
0.0
 10
14.91827224172349
 20
0.2754914122197563
 30
0.0
 10
14.91963370585302
 20
0.2742147318508142
 30
0.0
 10
14.92107650078269
 20
0.2732270148650865
 30
0.0
 10
14.92252339964991
 20
0.2723875421423243
 30
0.0
 10
14.92405537501389
 20
0.2718600613826784
 30
0.0
 10
14.92561896703173
 20
0.2715039224458071
 30
0.0
 10
14.92667824869889
 20
0.2714536853571946
 30
0.0
 10
14.9272077922078
 20
0.2714285714285714
 30
0.0
  0
SPLINE
  5
E1
330
1F
100
AcDbEntity
  8
0
  6
Continuous
 62
     7
370
    35
100
AcDbSpline
210
0.0
220
0.0
230
1.0
 70
     8
 71
     3
 72
    19
 73
    15
 74
     0
 42
0.000000001
 43
0.00000001
 40
0.0
 40
0.0
 40
0.0
 40
0.0
 40
0.0967458161066523
 40
0.1930146422555069
 40
0.2933185369208712
 40
0.4046645402377003
 40
0.4652105730109915
 40
0.5283265535043071
 40
0.5947301110651299
 40
0.6652959224899297
 40
0.7411343832362107
 40
0.8219020160768857
 40
0.9077748068224865
 40
1.0
 40
1.0
 40
1.0
 40
1.0
 10
14.9261424512987
 20
0.3240259740259737
 30
0.0
 10
14.92509651860077
 20
0.3239490841657562
 30
0.0
 10
14.92300981001078
 20
0.3237956835386253
 30
0.0
 10
14.92003885667726
 20
0.3225643498447318
 30
0.0
 10
14.91735353785506
 20
0.3205685277565102
 30
0.0
 10
14.91542968336839
 20
0.3183227213317061
 30
0.0
 10
14.91404101876087
 20
0.3161993568438896
 30
0.0
 10
14.91312742116123
 20
0.314358641879791
 30
0.0
 10
14.91237712970258
 20
0.3123333812389966
 30
0.0
 10
14.91172479224325
 20
0.3101303550725709
 30
0.0
 10
14.91125960968192
 20
0.3077225493154082
 30
0.0
 10
14.91088755171273
 20
0.3051335006683073
 30
0.0
 10
14.91067491380871
 20
0.3023473215708091
 30
0.0
 10
14.91065807194117
 20
0.3004264900636126
 30
0.0
 10
14.91064935064935
 20
0.2994318181818181
 30
0.0
  0
SPLINE
  5
E2
330
1F
100
AcDbEntity
  8
0
  6
Continuous
 62
     7
370
    35
100
AcDbSpline
210
0.0
220
0.0
230
1.0
 70
     8
 71
     3
 72
    23
 73
    19
 74
     0
 42
0.000000001
 43
0.00000001
 40
0.0
 40
0.0
 40
0.0
 40
0.0
 40
0.0281279294489445
 40
0.0555586038418514
 40
0.0831652430253271
 40
0.1125285028984754
 40
0.143704778543679
 40
0.1773223698111568
 40
0.2140600984845949
 40
0.254890250787176
 40
0.3031125186303525
 40
0.3637590932766221
 40
0.4373461362851891
 40
0.5234342458967873
 40
0.6227657826502879
 40
0.7354363909137493
 40
0.8609928501485578
 40
1.0
 40
1.0
 40
1.0
 40
1.0
 10
15.02071428571429
 20
0.2714285714285714
 30
0.0
 10
15.02126503063753
 20
0.2714589945563046
 30
0.0
 10
15.0223528682284
 20
0.2715190866617126
 30
0.0
 10
15.02393121824287
 20
0.2719648275113801
 30
0.0
 10
15.02542454342136
 20
0.2726827411067146
 30
0.0
 10
15.02683842025534
 20
0.2736906817080815
 30
0.0
 10
15.02809861327285
 20
0.275041688795913
 30
0.0
 10
15.02934907559818
 20
0.2765907780335664
 30
0.0
 10
15.03041944097854
 20
0.278491159074796
 30
0.0
 10
15.03150885257418
 20
0.2807002398876909
 30
0.0
 10
15.03243189152771
 20
0.2834897778704485
 30
0.0
 10
15.0331810443268
 20
0.2869821031427765
 30
0.0
 10
15.03388277547151
 20
0.2912364197723312
 30
0.0
 10
15.03440069987422
 20
0.2962787865673882
 30
0.0
 10
15.03482100830819
 20
0.3020951991382244
 30
0.0
 10
15.03511263734305
 20
0.308692759965635
 30
0.0
 10
15.03529458231866
 20
0.3160703907540459
 30
0.0
 10
15.0353143099974
 20
0.3212458204336288
 30
0.0
 10
15.03532467532468
 20
0.3239650974025973
 30
0.0
  0
SPLINE
  5
E3
330
1F
100
AcDbEntity
  8
0
  6
Continuous
 62
     7
370
    35
100
AcDbSpline
210
0.0
220
0.0
230
1.0
 70
     8
 71
     3
 72
    23
 73
    19
 74
     0
 42
0.000000001
 43
0.00000001
 40
0.0
 40
0.0
 40
0.0
 40
0.0
 40
0.1395956145962185
 40
0.2652148946057583
 40
0.3779418763520632
 40
0.477362394458321
 40
0.5640094634856323
 40
0.6370383897427676
 40
0.697832802597974
 40
0.7460791979153064
 40
0.7864623695822042
 40
0.8234849242487222
 40
0.8575291626609695
 40
0.8883519407901384
 40
0.9173098229188389
 40
0.9449302747765174
 40
0.9723746738015719
 40
1.0
 40
1.0
 40
1.0
 40
1.0
 10
15.0061038961039
 20
0.3239650974025973
 30
0.0
 10
15.00611381114593
 20
0.3212356502082643
 30
0.0
 10
15.00613264853444
 20
0.3160500284960714
 30
0.0
 10
15.00631962503279
 20
0.3086625506208953
 30
0.0
 10
15.00659589900015
 20
0.302063267556916
 30
0.0
 10
15.00706478450255
 20
0.2962389935722458
 30
0.0
 10
15.00758614180043
 20
0.2911996703143904
 30
0.0
 10
15.00823002261475
 20
0.2869337711280863
 30
0.0
 10
15.00903650604988
 20
0.2834636991116711
 30
0.0
 10
15.00994366541993
 20
0.2806779390653249
 30
0.0
 10
15.01103888586305
 20
0.2784727827626454
 30
0.0
 10
15.01215632557196
 20
0.2765992777446359
 30
0.0
 10
15.013367083096
 20
0.275010286236981
 30
0.0
 10
15.01466141557409
 20
0.2737035867449342
 30
0.0
 10
15.01603649830383
 20
0.272672406672899
 30
0.0
 10
15.01752919458024
 20
0.2719665422873719
 30
0.0
 10
15.01909597634482
 20
0.2715215720046895
 30
0.0
 10
15.02017366903345
 20
0.2714596394454324
 30
0.0
 10
15.02071428571429
 20
0.2714285714285714
 30
0.0
  0
SPLINE
  5
E4
330
1F
100
AcDbEntity
  8
0
  6
Continuous
 62
     7
370
    35
100
AcDbSpline
210
0.0
220
0.0
230
1.0
 70
     8
 71
     3
 72
    23
 73
    19
 74
     0
 42
0.000000001
 43
0.00000001
 40
0.0
 40
0.0
 40
0.0
 40
0.0
 40
0.0275737818052751
 40
0.054966974018036
 40
0.0825358905772933
 40
0.1114397419788773
 40
0.1425734173306082
 40
0.1765541346971053
 40
0.2135076112611766
 40
0.2542819718941077
 40
0.3024383472366318
 40
0.3631193275446456
 40
0.4365236303413486
 40
0.5224941063145363
 40
0.622245500340607
 40
0.734762151760879
 40
0.8606648482554945
 40
1.0
 40
1.0
 40
1.0
 40
1.0
 10
15.02071428571429
 20
0.3766233766233766
 30
0.0
 10
15.0201736950261
 20
0.3765922828637803
 30
0.0
 10
15.01909605415253
 20
0.3765302989876503
 30
0.0
 10
15.01752888490103
 20
0.3760857124663207
 30
0.0
 10
15.01603769211192
 20
0.3753783590490452
 30
0.0
 10
15.01465075782956
 20
0.3743488107289357
 30
0.0
 10
15.01337770834824
 20
0.3730107277920974
 30
0.0
 10
15.01215521945742
 20
0.3714237512143961
 30
0.0
 10
15.01103117663675
 20
0.3695420216831137
 30
0.0
 10
15.00995190958987
 20
0.3673193411308996
 30
0.0
 10
15.0090347631683
 20
0.3645282578454226
 30
0.0
 10
15.00822708838349
 20
0.3610474005990351
 30
0.0
 10
15.00759171668088
 20
0.3567805686243077
 30
0.0
 10
15.00706006592068
 20
0.3517322564713779
 30
0.0
 10
15.00659820354109
 20
0.3459073060868966
 30
0.0
 10
15.00631843473803
 20
0.3392880040108722
 30
0.0
 10
15.00613321427143
 20
0.3318902858005462
 30
0.0
 10
15.00611399329605
 20
0.326694536411322
 30
0.0
 10
15.0061038961039
 20
0.3239650974025973
 30
0.0
  0
SPLINE
  5
E5
330
1F
100
AcDbEntity
  8
0
  6
Continuous
 62
     7
370
    35
100
AcDbSpline
210
0.0
220
0.0
230
1.0
 70
     8
 71
     3
 72
    23
 73
    19
 74
     0
 42
0.000000001
 43
0.00000001
 40
0.0
 40
0.0
 40
0.0
 40
0.0
 40
0.1392523024130199
 40
0.2650801365767292
 40
0.377529885070967
 40
0.4771829840627619
 40
0.5631023415897237
 40
0.636545137419836
 40
0.6970728311202491
 40
0.7452005724572554
 40
0.7859506884650659
 40
0.8226164029157917
 40
0.856576915189182
 40
0.8876920783122262
 40
0.916997779582477
 40
0.9445503035352544
 40
0.9719272076280853
 40
1.0
 40
1.0
 40
1.0
 40
1.0
 10
15.03532467532468
 20
0.3239650974025973
 30
0.0
 10
15.03531422819721
 20
0.3266945161021433
 30
0.0
 10
15.03529434108636
 20
0.3318902268308956
 30
0.0
 10
15.03511358982496
 20
0.3392882044202671
 30
0.0
 10
15.034819486412
 20
0.3459059091971394
 30
0.0
 10
15.03440233057462
 20
0.3517326889261574
 30
0.0
 10
15.0338826762503
 20
0.3567851033479023
 30
0.0
 10
15.03318098466982
 20
0.3610393422016736
 30
0.0
 10
15.03243212394723
 20
0.3645319149818039
 30
0.0
 10
15.03150820663306
 20
0.3673207699704447
 30
0.0
 10
15.03042137754627
 20
0.3695318473842376
 30
0.0
 10
15.02933886826059
 20
0.3714328921845773
 30
0.0
 10
15.02810881904216
 20
0.3730080493295899
 30
0.0
 10
15.02683727818829
 20
0.3743603795830355
 30
0.0
 10
15.0254248217615
 20
0.3753694230631345
 30
0.0
 10
15.02393114653619
 20
0.3760870648637345
 30
0.0
 10
15.02235288663856
 20
0.3765328756848496
 30
0.0
 10
15.02126503682537
 20
0.3765929583002144
 30
0.0
 10
15.02071428571429
 20
0.3766233766233766
 30
0.0
  0
LINE
  5
E9
330
1F
100
AcDbEntity
  8
0
  6
Continuous
 62
     7
370
    35
100
AcDbLine
 10
14.7431168831
 20
0.3318181818
 30
0.0
 11
14.7583664773
 21
0.3318181818
 31
0.0
  0
LINE
  5
EA
330
1F
100
AcDbEntity
  8
0
  6
Continuous
 62
     7
370
    35
100
AcDbLine
 10
14.7431168831
 20
0.3746753247
 30
0.0
 11
14.7431168831
 21
0.3318181818
 31
0.0
  0
LINE
  5
EB
330
1F
100
AcDbEntity
  8
0
  6
Continuous
 62
     7
370
    35
100
AcDbLine
 10
14.7565401786
 20
0.3746753247
 30
0.0
 11
14.7431168831
 21
0.3746753247
 31
0.0
  0
LINE
  5
EC
330
1F
100
AcDbEntity
  8
0
  6
Continuous
 62
     7
370
    35
100
AcDbLine
 10
14.3379220779
 20
0.2753246753
 30
0.0
 11
14.3379220779
 21
0.25
 31
0.0
  0
LINE
  5
ED
330
1F
100
AcDbEntity
  8
0
  6
Continuous
 62
     7
370
    35
100
AcDbLine
 10
14.2736363636
 20
0.2753246753
 30
0.0
 11
14.3379220779
 21
0.2753246753
 31
0.0
  0
LINE
  5
EE
330
1F
100
AcDbEntity
  8
0
  6
Continuous
 62
     7
370
    35
100
AcDbLine
 10
14.2736363636
 20
0.4
 30
0.0
 11
14.2736363636
 21
0.2753246753
 31
0.0
  0
LINE
  5
EF
330
1F
100
AcDbEntity
  8
0
  6
Continuous
 62
     7
370
    35
100
AcDbLine
 10
14.2502597403
 20
0.4
 30
0.0
 11
14.2736363636
 21
0.4
 31
0.0
  0
LINE
  5
F0
330
1F
100
AcDbEntity
  8
0
  6
Continuous
 62
     7
370
    35
100
AcDbLine
 10
14.2502597403
 20
0.25
 30
0.0
 11
14.2502597403
 21
0.4
 31
0.0
  0
LINE
  5
F1
330
1F
100
AcDbEntity
  8
0
  6
Continuous
 62
     7
370
    35
100
AcDbLine
 10
14.3379220779
 20
0.25
 30
0.0
 11
14.2502597403
 21
0.25
 31
0.0
  0
LINE
  5
F2
330
1F
100
AcDbEntity
  8
0
  6
Continuous
 62
     7
370
    35
100
AcDbLine
 10
14.5716883117
 20
0.3571428571
 30
0.0
 11
14.5483116883
 21
0.3551948052
 31
0.0
  0
LINE
  5
F3
330
1F
100
AcDbEntity
  8
0
  6
Continuous
 62
     7
370
    35
100
AcDbLine
 10
14.4742857143
 20
0.3006493506
 30
0.0
 11
14.4976623377
 21
0.3025974026
 31
0.0
  0
LINE
  5
F4
330
1F
100
AcDbEntity
  8
0
  6
Continuous
 62
     7
370
    35
100
AcDbLine
 10
14.7431168831
 20
0.3064935065
 30
0.0
 11
14.7431168831
 21
0.25
 31
0.0
  0
LINE
  5
F5
330
1F
100
AcDbEntity
  8
0
  6
Continuous
 62
     7
370
    35
100
AcDbLine
 10
14.7600101461
 20
0.3064935065
 30
0.0
 11
14.7431168831
 21
0.3064935065
 31
0.0
  0
LINE
  5
F6
330
1F
100
AcDbEntity
  8
0
  6
Continuous
 62
     7
370
    35
100
AcDbLine
 10
14.7197402597
 20
0.4
 30
0.0
 11
14.7601623377
 21
0.4
 31
0.0
  0
LINE
  5
F7
330
1F
100
AcDbEntity
  8
0
  6
Continuous
 62
     7
370
    35
100
AcDbLine
 10
14.7197402597
 20
0.25
 30
0.0
 11
14.7197402597
 21
0.4
 31
0.0
  0
LINE
  5
F8
330
1F
100
AcDbEntity
  8
0
  6
Continuous
 62
     7
370
    35
100
AcDbLine
 10
14.7431168831
 20
0.25
 30
0.0
 11
14.7197402597
 21
0.25
 31
0.0
  0
LINE
  5
F9
330
1F
100
AcDbEntity
  8
0
  6
Continuous
 62
     7
370
    35
100
AcDbLine
 10
14.9632467532
 20
0.362987013
 30
0.0
 11
14.9398701299
 21
0.3590909091
 31
0.0
  0
LINE
  5
FA
330
1F
100
AcDbEntity
  8
0
  6
Continuous
 62
     7
370
    35
100
AcDbLine
 10
15.0976623377
 20
0.3571428571
 30
0.0
 11
15.0762337662
 21
0.361038961
 31
0.0
  0
LINE
  5
FB
330
1F
100
AcDbEntity
  8
0
  6
Continuous
 62
     7
370
    35
100
AcDbLine
 10
15.1054545455
 20
0.31796875
 30
0.0
 11
15.1080113636
 21
0.3435064935
 31
0.0
  0
LINE
  5
FC
330
1F
100
AcDbEntity
  8
0
  6
Continuous
 62
     7
370
    35
100
AcDbLine
 10
15.0762337662
 20
0.288961039
 30
0.0
 11
15.0996103896
 21
0.2928571429
 31
0.0
  0
LINE
  5
FD
330
1F
100
AcDbEntity
  8
0
  6
Continuous
 62
     7
370
    35
100
AcDbLine
 10
15.96
 20
6.775
 30
0.0
 11
0.0
 21
6.775
 31
0.0
  0
LINE
  5
FE
330
1F
100
AcDbEntity
  8
0
  6
Continuous
 62
     7
370
    35
100
AcDbLine
 10
15.96
 20
0.0
 30
0.0
 11
15.96
 21
6.775
 31
0.0
  0
LINE
  5
FF
330
1F
100
AcDbEntity
  8
0
  6
Continuous
 62
     7
370
    35
100
AcDbLine
 10
0.0
 20
0.0
 30
0.0
 11
15.96
 21
0.0
 31
0.0
  0
LINE
  5
100
330
1F
100
AcDbEntity
  8
0
  6
Continuous
 62
     7
370
    35
100
AcDbLine
 10
0.0
 20
6.775
 30
0.0
 11
0.0
 21
0.0
 31
0.0
  0
LINE
  5
101
330
1F
100
AcDbEntity
  8
0
  6
Continuous
 62
     7
370
    35
100
AcDbLine
 10
14.8716883117
 20
0.3201298701
 30
0.0
 11
14.8716883117
 21
0.2909090909
 31
0.0
  0
LINE
  5
102
330
1F
100
AcDbEntity
  8
0
  6
Continuous
 62
     7
370
    35
100
AcDbLine
 10
14.8268831169
 20
0.3201298701
 30
0.0
 11
14.8716883117
 21
0.3201298701
 31
0.0
  0
LINE
  5
103
330
1F
100
AcDbEntity
  8
0
  6
Continuous
 62
     7
370
    35
100
AcDbLine
 10
14.8268831169
 20
0.2909090909
 30
0.0
 11
14.8268831169
 21
0.3201298701
 31
0.0
  0
LINE
  5
104
330
1F
100
AcDbEntity
  8
0
  6
Continuous
 62
     7
370
    35
100
AcDbLine
 10
14.8716883117
 20
0.2909090909
 30
0.0
 11
14.8268831169
 21
0.2909090909
 31
0.0
  0
LINE
  5
105
330
1F
100
AcDbEntity
  8
0
  6
Continuous
 62
     7
370
    35
100
AcDbLine
 10
14.6317431006
 20
0.4
 30
0.0
 11
14.65375
 21
0.4
 31
0.0
  0
LINE
  5
106
330
1F
100
AcDbEntity
  8
0
  6
Continuous
 62
     7
370
    35
100
AcDbLine
 10
14.5814285714
 20
0.25
 30
0.0
 11
14.6317431006
 21
0.4
 31
0.0
  0
LINE
  5
107
330
1F
100
AcDbEntity
  8
0
  6
Continuous
 62
     7
370
    35
100
AcDbLine
 10
14.605900974
 20
0.25
 30
0.0
 11
14.5814285714
 21
0.25
 31
0.0
  0
LINE
  5
108
330
1F
100
AcDbEntity
  8
0
  6
Continuous
 62
     7
370
    35
100
AcDbLine
 10
14.6165543831
 20
0.2831168831
 30
0.0
 11
14.605900974
 21
0.25
 31
0.0
  0
LINE
  5
109
330
1F
100
AcDbEntity
  8
0
  6
Continuous
 62
     7
370
    35
100
AcDbLine
 10
14.6690604708
 20
0.2831168831
 30
0.0
 11
14.6165543831
 21
0.2831168831
 31
0.0
  0
LINE
  5
10A
330
1F
100
AcDbEntity
  8
0
  6
Continuous
 62
     7
370
    35
100
AcDbLine
 10
14.6797443182
 20
0.25
 30
0.0
 11
14.6690604708
 21
0.2831168831
 31
0.0
  0
LINE
  5
10B
330
1F
100
AcDbEntity
  8
0
  6
Continuous
 62
     7
370
    35
100
AcDbLine
 10
14.7041558442
 20
0.25
 30
0.0
 11
14.6797443182
 21
0.25
 31
0.0
  0
LINE
  5
10C
330
1F
100
AcDbEntity
  8
0
  6
Continuous
 62
     7
370
    35
100
AcDbLine
 10
14.65375
 20
0.4
 30
0.0
 11
14.7041558442
 21
0.25
 31
0.0
  0
LINE
  5
10D
330
1F
100
AcDbEntity
  8
0
  6
Continuous
 62
     7
370
    35
100
AcDbLine
 10
14.4567532468
 20
0.3590909091
 30
0.0
 11
14.4333766234
 21
0.3512987013
 31
0.0
  0
LINE
  5
10E
330
1F
100
AcDbEntity
  8
0
  6
Continuous
 62
     7
370
    35
100
AcDbLine
 10
14.4333766234
 20
0.3045454545
 30
0.0
 11
14.4567532468
 21
0.2948051948
 31
0.0
  0
LINE
  5
10F
330
1F
100
AcDbEntity
  8
0
  6
Continuous
 62
     7
370
    35
100
AcDbLine
 10
14.6609030032
 20
0.3084415584
 30
0.0
 11
14.6427922078
 21
0.3646611201
 31
0.0
  0
LINE
  5
110
330
1F
100
AcDbEntity
  8
0
  6
Continuous
 62
     7
370
    35
100
AcDbLine
 10
14.6427922078
 20
0.3646611201
 30
0.0
 11
14.6246814123
 21
0.3084415584
 31
0.0
  0
LINE
  5
111
330
1F
100
AcDbEntity
  8
0
  6
Continuous
 62
     7
370
    35
100
AcDbLine
 10
14.6246814123
 20
0.3084415584
 30
0.0
 11
14.6609030032
 21
0.3084415584
 31
0.0
  0
MTEXT
  5
113
330
1F
100
AcDbEntity
  8
0
  6
Continuous
 62
     7
100
AcDbMText
 10
0.0
 20
-0.0401404091
 30
0.0
 40
0.1903
 41
0.0
 71
     1
 72
     1
  1
SOLIDWORKS Educational Product.
  7
SLDTEXTSTYLE0
 73
     1
 44
1.0
  0
MTEXT
  5
114
330
1F
100
AcDbEntity
  8
0
  6
Continuous
 62
     7
100
AcDbMText
 10
0.0
 20
-0.3255904091
 30
0.0
 40
0.1903
 41
0.0
 71
     1
 72
     1
  1
For Instructional Use Only.
  7
SLDTEXTSTYLE0
 73
     1
 44
1.0
  0
ENDSEC
  0
SECTION
  2
OBJECTS
  0
DICTIONARY
  5
C
330
0
100
AcDbDictionary
281
     1
  3
ACAD_GROUP
350
D
  3
ACAD_LAYOUT
350
1A
  3
ACAD_MLINESTYLE
350
17
  3
ACAD_PLOTSETTINGS
350
19
  3
ACAD_PLOTSTYLENAME
350
E
  3
ACAD_SCALELIST
350
47
  0
DICTIONARY
  5
D
102
{ACAD_REACTORS
330
C
102
}
330
C
100
AcDbDictionary
281
     1
  0
DICTIONARY
  5
1A
102
{ACAD_REACTORS
330
C
102
}
330
C
100
AcDbDictionary
281
     1
  3
Layout1
350
1E
  3
Layout2
350
26
  3
Model
350
22
  0
DICTIONARY
  5
17
102
{ACAD_REACTORS
330
C
102
}
330
C
100
AcDbDictionary
281
     1
  3
Standard
350
18
  0
DICTIONARY
  5
19
102
{ACAD_REACTORS
330
C
102
}
330
C
100
AcDbDictionary
281
     1
  0
ACDBDICTIONARYWDFLT
  5
E
102
{ACAD_REACTORS
330
C
102
}
330
C
100
AcDbDictionary
281
     1
  3
Normal
350
F
100
AcDbDictionaryWithDefault
340
F
  0
DICTIONARY
  5
47
102
{ACAD_REACTORS
330
C
102
}
330
C
100
AcDbDictionary
281
     1
  3
A0
350
48
  3
A1
350
49
  3
A2
350
4A
  3
A3
350
4B
  3
A4
350
4C
  3
A5
350
4D
  3
A6
350
4E
  3
A7
350
4F
  3
A8
350
50
  3
A9
350
51
  3
B0
350
52
  3
B1
350
53
  3
B2
350
54
  3
B3
350
55
  3
B4
350
56
  3
B5
350
57
  3
B6
350
58
  3
B7
350
59
  3
B8
350
5A
  3
B9
350
5B
  3
C0
350
5C
  3
C1
350
5D
  3
C2
350
5E
  3
C3
350
5F
  3
C4
350
60
  3
C5
350
61
  3
C6
350
62
  3
C7
350
63
  3
C8
350
64
  3
C9
350
65
  3
D0
350
66
  3
D1
350
67
  3
D2
350
68
  0
LAYOUT
  5
1E
102
{ACAD_REACTORS
330
1A
102
}
330
1A
100
AcDbPlotSettings
  1

  2
none_device
  4

  6

 40
0.0
 41
0.0
 42
0.0
 43
0.0
 44
0.0
 45
0.0
 46
0.0
 47
0.0
 48
0.0
 49
0.0
140
0.0
141
0.0
142
1.0
143
1.0
 70
   688
 72
     0
 73
     0
 74
     5
  7

 75
    16
147
1.0
148
0.0
149
0.0
100
AcDbLayout
  1
Layout1
 70
     1
 71
     1
 10
0.0
 20
0.0
 11
12.0
 21
9.0
 12
0.0
 22
0.0
 32
0.0
 14
1.0000000000E+20
 24
1.0000000000E+20
 34
1.0000000000E+20
 15
-1.0000000000E+20
 25
-1.0000000000E+20
 35
-1.0000000000E+20
146
0.0
 13
0.0
 23
0.0
 33
0.0
 16
1.0
 26
0.0
 36
0.0
 17
0.0
 27
1.0
 37
0.0
 76
     0
330
1B
  0
LAYOUT
  5
26
102
{ACAD_REACTORS
330
1A
102
}
330
1A
100
AcDbPlotSettings
  1

  2
none_device
  4

  6

 40
0.0
 41
0.0
 42
0.0
 43
0.0
 44
0.0
 45
0.0
 46
0.0
 47
0.0
 48
0.0
 49
0.0
140
0.0
141
0.0
142
1.0
143
1.0
 70
   688
 72
     0
 73
     0
 74
     5
  7

 75
    16
147
1.0
148
0.0
149
0.0
100
AcDbLayout
  1
Layout2
 70
     1
 71
     2
 10
0.0
 20
0.0
 11
0.0
 21
0.0
 12
0.0
 22
0.0
 32
0.0
 14
0.0
 24
0.0
 34
0.0
 15
0.0
 25
0.0
 35
0.0
146
0.0
 13
0.0
 23
0.0
 33
0.0
 16
1.0
 26
0.0
 36
0.0
 17
0.0
 27
1.0
 37
0.0
 76
     0
330
23
  0
LAYOUT
  5
22
102
{ACAD_REACTORS
330
1A
102
}
330
1A
100
AcDbPlotSettings
  1

  2
none_device
  4
ANSI_A_(11.00_x_8.50_Inches)
  6

 40
6.35
 41
19.05
 42
6.35000508
 43
19.05000254
 44
279.4
 45
215.9
 46
-4.95300254
 47
30.190548542
 48
0.0
 49
0.0
140
0.0
141
0.0
142
0.6823308271
143
1.0
 70
  1696
 72
     0
 73
     0
 74
     0
  7

 75
     0
147
0.5913241897
148
-39.4088153714
149
0.0
100
AcDbLayout
  1
Model
 70
     1
 71
     0
 10
0.0
 20
0.0
 11
12.0
 21
9.0
 12
0.0
 22
0.0
 32
0.0
 14
0.0
 24
0.0
 34
0.0
 15
15.96
 25
6.775
 35
0.0
146
0.0
 13
0.0
 23
0.0
 33
0.0
 16
1.0
 26
0.0
 36
0.0
 17
0.0
 27
1.0
 37
0.0
 76
     0
330
1F
331
29
  0
MLINESTYLE
  5
18
102
{ACAD_REACTORS
330
17
102
}
330
17
100
AcDbMlineStyle
  2
Standard
 70
     0
  3

 62
   256
 51
90.0
 52
90.0
 71
     2
 49
0.5
 62
   256
  6
BYLAYER
 49
-0.5
 62
   256
  6
BYLAYER
  0
ACDBPLACEHOLDER
  5
F
102
{ACAD_REACTORS
330
E
102
}
330
E
  0
SCALE
  5
48
102
{ACAD_REACTORS
330
47
102
}
330
47
100
AcDbScale
 70
     0
300
1:1
140
1.0
141
1.0
290
     1
  0
SCALE
  5
49
102
{ACAD_REACTORS
330
47
102
}
330
47
100
AcDbScale
 70
     0
300
1:2
140
1.0
141
2.0
290
     0
  0
SCALE
  5
4A
102
{ACAD_REACTORS
330
47
102
}
330
47
100
AcDbScale
 70
     0
300
1:4
140
1.0
141
4.0
290
     0
  0
SCALE
  5
4B
102
{ACAD_REACTORS
330
47
102
}
330
47
100
AcDbScale
 70
     0
300
1:5
140
1.0
141
5.0
290
     0
  0
SCALE
  5
4C
102
{ACAD_REACTORS
330
47
102
}
330
47
100
AcDbScale
 70
     0
300
1:8
140
1.0
141
8.0
290
     0
  0
SCALE
  5
4D
102
{ACAD_REACTORS
330
47
102
}
330
47
100
AcDbScale
 70
     0
300
1:10
140
1.0
141
10.0
290
     0
  0
SCALE
  5
4E
102
{ACAD_REACTORS
330
47
102
}
330
47
100
AcDbScale
 70
     0
300
1:16
140
1.0
141
16.0
290
     0
  0
SCALE
  5
4F
102
{ACAD_REACTORS
330
47
102
}
330
47
100
AcDbScale
 70
     0
300
1:20
140
1.0
141
20.0
290
     0
  0
SCALE
  5
50
102
{ACAD_REACTORS
330
47
102
}
330
47
100
AcDbScale
 70
     0
300
1:30
140
1.0
141
30.0
290
     0
  0
SCALE
  5
51
102
{ACAD_REACTORS
330
47
102
}
330
47
100
AcDbScale
 70
     0
300
1:40
140
1.0
141
40.0
290
     0
  0
SCALE
  5
52
102
{ACAD_REACTORS
330
47
102
}
330
47
100
AcDbScale
 70
     0
300
1:50
140
1.0
141
50.0
290
     0
  0
SCALE
  5
53
102
{ACAD_REACTORS
330
47
102
}
330
47
100
AcDbScale
 70
     0
300
1:100
140
1.0
141
100.0
290
     0
  0
SCALE
  5
54
102
{ACAD_REACTORS
330
47
102
}
330
47
100
AcDbScale
 70
     0
300
2:1
140
2.0
141
1.0
290
     0
  0
SCALE
  5
55
102
{ACAD_REACTORS
330
47
102
}
330
47
100
AcDbScale
 70
     0
300
4:1
140
4.0
141
1.0
290
     0
  0
SCALE
  5
56
102
{ACAD_REACTORS
330
47
102
}
330
47
100
AcDbScale
 70
     0
300
8:1
140
8.0
141
1.0
290
     0
  0
SCALE
  5
57
102
{ACAD_REACTORS
330
47
102
}
330
47
100
AcDbScale
 70
     0
300
10:1
140
10.0
141
1.0
290
     0
  0
SCALE
  5
58
102
{ACAD_REACTORS
330
47
102
}
330
47
100
AcDbScale
 70
     0
300
100:1
140
100.0
141
1.0
290
     0
  0
SCALE
  5
59
102
{ACAD_REACTORS
330
47
102
}
330
47
100
AcDbScale
 70
     0
300
1/128" = 1'-0"
140
0.0078125
141
12.0
290
     0
  0
SCALE
  5
5A
102
{ACAD_REACTORS
330
47
102
}
330
47
100
AcDbScale
 70
     0
300
1/64" = 1'-0"
140
0.015625
141
12.0
290
     0
  0
SCALE
  5
5B
102
{ACAD_REACTORS
330
47
102
}
330
47
100
AcDbScale
 70
     0
300
1/32" = 1'-0"
140
0.03125
141
12.0
290
     0
  0
SCALE
  5
5C
102
{ACAD_REACTORS
330
47
102
}
330
47
100
AcDbScale
 70
     0
300
1/16" = 1'-0"
140
0.0625
141
12.0
290
     0
  0
SCALE
  5
5D
102
{ACAD_REACTORS
330
47
102
}
330
47
100
AcDbScale
 70
     0
300
3/32" = 1'-0"
140
0.09375
141
12.0
290
     0
  0
SCALE
  5
5E
102
{ACAD_REACTORS
330
47
102
}
330
47
100
AcDbScale
 70
     0
300
1/8" = 1'-0"
140
0.125
141
12.0
290
     0
  0
SCALE
  5
5F
102
{ACAD_REACTORS
330
47
102
}
330
47
100
AcDbScale
 70
     0
300
3/16" = 1'-0"
140
0.1875
141
12.0
290
     0
  0
SCALE
  5
60
102
{ACAD_REACTORS
330
47
102
}
330
47
100
AcDbScale
 70
     0
300
1/4" = 1'-0"
140
0.25
141
12.0
290
     0
  0
SCALE
  5
61
102
{ACAD_REACTORS
330
47
102
}
330
47
100
AcDbScale
 70
     0
300
3/8" = 1'-0"
140
0.375
141
12.0
290
     0
  0
SCALE
  5
62
102
{ACAD_REACTORS
330
47
102
}
330
47
100
AcDbScale
 70
     0
300
1/2" = 1'-0"
140
0.5
141
12.0
290
     0
  0
SCALE
  5
63
102
{ACAD_REACTORS
330
47
102
}
330
47
100
AcDbScale
 70
     0
300
3/4" = 1'-0"
140
0.75
141
12.0
290
     0
  0
SCALE
  5
64
102
{ACAD_REACTORS
330
47
102
}
330
47
100
AcDbScale
 70
     0
300
1" = 1'-0"
140
1.0
141
12.0
290
     0
  0
SCALE
  5
65
102
{ACAD_REACTORS
330
47
102
}
330
47
100
AcDbScale
 70
     0
300
1-1/2" = 1'-0"
140
1.5
141
12.0
290
     0
  0
SCALE
  5
66
102
{ACAD_REACTORS
330
47
102
}
330
47
100
AcDbScale
 70
     0
300
3" = 1'-0"
140
3.0
141
12.0
290
     0
  0
SCALE
  5
67
102
{ACAD_REACTORS
330
47
102
}
330
47
100
AcDbScale
 70
     0
300
6" = 1'-0"
140
6.0
141
12.0
290
     0
  0
SCALE
  5
68
102
{ACAD_REACTORS
330
47
102
}
330
47
100
AcDbScale
 70
     0
300
1'-0" = 1'-0"
140
12.0
141
12.0
290
     0
  0
ENDSEC
  0
EOF
