  0
SECTION
  2
HEADER
  9
$ACADVER
  1
AC1015
  9
$ACADMAINTVER
 70
     6
  9
$DWGCODEPAGE
  3
ANSI_1252
  9
$INSBASE
 10
0.0
 20
0.0
 30
0.0
  9
$EXTMIN
 10
-16.375
 20
0.0
 30
0.0
  9
$EXTMAX
 10
0.0
 20
3.0875
 30
0.0
  9
$LIMMIN
 10
0.0
 20
0.0
  9
$LIMMAX
 10
12.0
 20
9.0
  9
$ORTHOMODE
 70
     0
  9
$REGENMODE
 70
     1
  9
$FILLMODE
 70
     1
  9
$QTEXTMODE
 70
     0
  9
$MIRRTEXT
 70
     1
  9
$LTSCALE
 40
1.0
  9
$ATTMODE
 70
     1
  9
$TEXTSIZE
 40
0.15
  9
$TRACEWID
 40
0.05
  9
$TEXTSTYLE
  7
Standard
  9
$CLAYER
  8
0
  9
$CELTYPE
  6
ByLayer
  9
$CECOLOR
 62
   256
  9
$CELTSCALE
 40
1.0
  9
$DISPSILH
 70
     0
  9
$DIMSCALE
 40
1.0
  9
$DIMASZ
 40
0.15
  9
$DIMEXO
 40
0.09
  9
$DIMDLI
 40
0.38
  9
$DIMRND
 40
0.0
  9
$DIMDLE
 40
0.0
  9
$DIMEXE
 40
0.125
  9
$DIMTP
 40
0.0
  9
$DIMTM
 40
0.0
  9
$DIMTXT
 40
0.15
  9
$DIMCEN
 40
0.09
  9
$DIMTSZ
 40
0.0
  9
$DIMTOL
 70
     0
  9
$DIMLIM
 70
     0
  9
$DIMTIH
 70
     1
  9
$DIMTOH
 70
     1
  9
$DIMSE1
 70
     0
  9
$DIMSE2
 70
     0
  9
$DIMTAD
 70
     0
  9
$DIMZIN
 70
     0
  9
$DIMBLK
  1

  9
$DIMASO
 70
     1
  9
$DIMSHO
 70
     1
  9
$DIMPOST
  1

  9
$DIMAPOST
  1

  9
$DIMALT
 70
     0
  9
$DIMALTD
 70
     2
  9
$DIMALTF
 40
25.4
  9
$DIMLFAC
 40
1.0
  9
$DIMTOFL
 70
     0
  9
$DIMTVP
 40
0.0
  9
$DIMTIX
 70
     0
  9
$DIMSOXD
 70
     0
  9
$DIMSAH
 70
     0
  9
$DIMBLK1
  1

  9
$DIMBLK2
  1

  9
$DIMSTYLE
  2
Standard
  9
$DIMCLRD
 70
     0
  9
$DIMCLRE
 70
     0
  9
$DIMCLRT
 70
     0
  9
$DIMTFAC
 40
1.0
  9
$DIMGAP
 40
0.09
  9
$DIMJUST
 70
     0
  9
$DIMSD1
 70
     0
  9
$DIMSD2
 70
     0
  9
$DIMTOLJ
 70
     1
  9
$DIMTZIN
 70
     0
  9
$DIMALTZ
 70
     0
  9
$DIMALTTZ
 70
     0
  9
$DIMUPT
 70
     0
  9
$DIMDEC
 70
     4
  9
$DIMTDEC
 70
     4
  9
$DIMALTU
 70
     2
  9
$DIMALTTD
 70
     2
  9
$DIMTXSTY
  7
Standard
  9
$DIMAUNIT
 70
     0
  9
$DIMADEC
 70
     2
  9
$DIMALTRND
 40
0.0
  9
$DIMAZIN
 70
     0
  9
$DIMDSEP
 70
    46
  9
$DIMATFIT
 70
     3
  9
$DIMFRAC
 70
     0
  9
$DIMLDRBLK
  1

  9
$DIMLUNIT
 70
     2
  9
$DIMLWD
 70
    -2
  9
$DIMLWE
 70
    -2
  9
$DIMTMOVE
 70
     0
  9
$LUNITS
 70
     2
  9
$LUPREC
 70
     4
  9
$SKETCHINC
 40
0.1
  9
$FILLETRAD
 40
0.5
  9
$AUNITS
 70
     0
  9
$AUPREC
 70
     2
  9
$MENU
  1
.
  9
$ELEVATION
 40
0.0
  9
$PELEVATION
 40
0.0
  9
$THICKNESS
 40
0.0
  9
$LIMCHECK
 70
     0
  9
$CHAMFERA
 40
0.0
  9
$CHAMFERB
 40
0.0
  9
$CHAMFERC
 40
0.0
  9
$CHAMFERD
 40
0.0
  9
$SKPOLY
 70
     0
  9
$TDCREATE
 40
2458228.462204664
  9
$TDUCREATE
 40
2458228.753871331
  9
$TDUPDATE
 40
2458228.462235915
  9
$TDUUPDATE
 40
2458228.753902581
  9
$TDINDWG
 40
0.0000000116
  9
$TDUSRTIMER
 40
0.0000000116
  9
$USRTIMER
 70
     1
  9
$ANGBASE
 50
0.0
  9
$ANGDIR
 70
     0
  9
$PDMODE
 70
     0
  9
$PDSIZE
 40
-1.0
  9
$PLINEWID
 40
0.0
  9
$SPLFRAME
 70
     0
  9
$SPLINETYPE
 70
     6
  9
$SPLINESEGS
 70
     8
  9
$HANDSEED
  5
123
  9
$SURFTAB1
 70
     6
  9
$SURFTAB2
 70
     6
  9
$SURFTYPE
 70
     6
  9
$SURFU
 70
     6
  9
$SURFV
 70
     6
  9
$UCSBASE
  2

  9
$UCSNAME
  2

  9
$UCSORG
 10
0.0
 20
0.0
 30
0.0
  9
$UCSXDIR
 10
1.0
 20
0.0
 30
0.0
  9
$UCSYDIR
 10
0.0
 20
1.0
 30
0.0
  9
$UCSORTHOREF
  2

  9
$UCSORTHOVIEW
 70
     0
  9
$UCSORGTOP
 10
0.0
 20
0.0
 30
0.0
  9
$UCSORGBOTTOM
 10
0.0
 20
0.0
 30
0.0
  9
$UCSORGLEFT
 10
0.0
 20
0.0
 30
0.0
  9
$UCSORGRIGHT
 10
0.0
 20
0.0
 30
0.0
  9
$UCSORGFRONT
 10
0.0
 20
0.0
 30
0.0
  9
$UCSORGBACK
 10
0.0
 20
0.0
 30
0.0
  9
$PUCSBASE
  2

  9
$PUCSNAME
  2

  9
$PUCSORG
 10
0.0
 20
0.0
 30
0.0
  9
$PUCSXDIR
 10
1.0
 20
0.0
 30
0.0
  9
$PUCSYDIR
 10
0.0
 20
1.0
 30
0.0
  9
$PUCSORTHOREF
  2

  9
$PUCSORTHOVIEW
 70
     0
  9
$PUCSORGTOP
 10
0.0
 20
0.0
 30
0.0
  9
$PUCSORGBOTTOM
 10
0.0
 20
0.0
 30
0.0
  9
$PUCSORGLEFT
 10
0.0
 20
0.0
 30
0.0
  9
$PUCSORGRIGHT
 10
0.0
 20
0.0
 30
0.0
  9
$PUCSORGFRONT
 10
0.0
 20
0.0
 30
0.0
  9
$PUCSORGBACK
 10
0.0
 20
0.0
 30
0.0
  9
$USERI1
 70
     0
  9
$USERI2
 70
     0
  9
$USERI3
 70
     0
  9
$USERI4
 70
     0
  9
$USERI5
 70
     0
  9
$USERR1
 40
0.0
  9
$USERR2
 40
0.0
  9
$USERR3
 40
0.0
  9
$USERR4
 40
0.0
  9
$USERR5
 40
0.0
  9
$WORLDVIEW
 70
     1
  9
$SHADEDGE
 70
     3
  9
$SHADEDIF
 70
    70
  9
$TILEMODE
 70
     1
  9
$MAXACTVP
 70
    64
  9
$PINSBASE
 10
0.0
 20
0.0
 30
0.0
  9
$PLIMCHECK
 70
     0
  9
$PEXTMIN
 10
1.0000000000E+20
 20
1.0000000000E+20
 30
1.0000000000E+20
  9
$PEXTMAX
 10
-1.0000000000E+20
 20
-1.0000000000E+20
 30
-1.0000000000E+20
  9
$PLIMMIN
 10
0.0
 20
0.0
  9
$PLIMMAX
 10
12.0
 20
9.0
  9
$UNITMODE
 70
     0
  9
$VISRETAIN
 70
     1
  9
$PLINEGEN
 70
     0
  9
$PSLTSCALE
 70
     1
  9
$TREEDEPTH
 70
  3020
  9
$CMLSTYLE
  2
Standard
  9
$CMLJUST
 70
     0
  9
$CMLSCALE
 40
1.0
  9
$PROXYGRAPHICS
 70
     1
  9
$MEASUREMENT
 70
     0
  9
$CELWEIGHT
370
    -1
  9
$ENDCAPS
280
     0
  9
$JOINSTYLE
280
     0
  9
$LWDISPLAY
290
     1
  9
$INSUNITS
 70
     1
  9
$HYPERLINKBASE
  1

  9
$STYLESHEET
  1

  9
$XEDIT
290
     1
  9
$CEPSNTYPE
380
     0
  9
$PSTYLEMODE
290
     1
  9
$FINGERPRINTGUID
  2
{BB608164-19BA-462C-9FC9-D8ADFE9ED610}
  9
$VERSIONGUID
  2
{FAEB1C32-E019-11D5-929B-00C0DF256EC4}
  9
$EXTNAMES
290
     1
  9
$PSVPSCALE
 40
0.0
  9
$OLESTARTUP
290
     0
  0
ENDSEC
  0
SECTION
  2
CLASSES
  0
CLASS
  1
ACDBDICTIONARYWDFLT
  2
AcDbDictionaryWithDefault
  3
ObjectDBX Classes
 90
        0
280
     0
281
     0
  0
CLASS
  1
VISUALSTYLE
  2
AcDbVisualStyle
  3
ObjectDBX Classes
 90
     4095
280
     0
281
     0
  0
CLASS
  1
MATERIAL
  2
AcDbMaterial
  3
ObjectDBX Classes
 90
     1153
280
     0
281
     0
  0
CLASS
  1
SCALE
  2
AcDbScale
  3
ObjectDBX Classes
 90
     1153
280
     0
281
     0
  0
CLASS
  1
TABLESTYLE
  2
AcDbTableStyle
  3
ObjectDBX Classes
 90
     4095
280
     0
281
     0
  0
CLASS
  1
MLEADERSTYLE
  2
AcDbMLeaderStyle
  3
ACDB_MLEADERSTYLE_CLASS
 90
     4095
280
     0
281
     0
  0
CLASS
  1
SUN
  2
AcDbSun
  3
SCENEOE
 90
     1153
280
     0
281
     0
  0
CLASS
  1
ACDBPLACEHOLDER
  2
AcDbPlaceHolder
  3
ObjectDBX Classes
 90
        0
280
     0
281
     0
  0
CLASS
  1
LAYOUT
  2
AcDbLayout
  3
ObjectDBX Classes
 90
        0
280
     0
281
     0
  0
ENDSEC
  0
SECTION
  2
TABLES
  0
TABLE
  2
VPORT
  5
8
330
0
100
AcDbSymbolTable
 70
     1
  0
VPORT
  5
29
330
8
100
AcDbSymbolTableRecord
100
AcDbViewportTableRecord
  2
*Active
 70
     0
 10
0.0
 20
0.0
 11
1.0
 21
1.0
 12
-8.1875
 22
1.54375
 13
0.0
 23
0.0
 14
0.5
 24
0.5
 15
0.5
 25
0.5
 16
0.0
 26
0.0
 36
1.0
 17
0.0
 27
0.0
 37
0.0
 40
3.14925
 41
5.3036437247
 42
50.0
 43
0.0
 44
0.0
 50
0.0
 51
0.0
 71
     0
 72
   100
 73
     1
 74
     3
 75
     0
 76
     0
 77
     0
 78
     0
281
     0
 65
     1
110
0.0
120
0.0
130
0.0
111
1.0
121
0.0
131
0.0
112
0.0
122
1.0
132
0.0
 79
     0
146
0.0
  0
ENDTAB
  0
TABLE
  2
LTYPE
  5
5
330
0
100
AcDbSymbolTable
 70
     6
  0
LTYPE
  5
14
330
5
100
AcDbSymbolTableRecord
100
AcDbLinetypeTableRecord
  2
ByBlock
 70
     0
  3

 72
    65
 73
     0
 40
0.0
  0
LTYPE
  5
15
330
5
100
AcDbSymbolTableRecord
100
AcDbLinetypeTableRecord
  2
ByLayer
 70
     0
  3

 72
    65
 73
     0
 40
0.0
  0
LTYPE
  5
16
330
5
100
AcDbSymbolTableRecord
100
AcDbLinetypeTableRecord
  2
Continuous
 70
     0
  3
Solid line
 72
    65
 73
     0
 40
0.0
  0
LTYPE
  5
6E
330
5
100
AcDbSymbolTableRecord
100
AcDbLinetypeTableRecord
  2
HIDDEN
 70
     0
  3
Hidden __ __ __ __ __ __ __ __ __ __ __ __ __ __
 72
    65
 73
     2
 40
0.075
 49
0.05
 74
     0
 49
-0.025
 74
     0
  0
LTYPE
  5
6F
330
5
100
AcDbSymbolTableRecord
100
AcDbLinetypeTableRecord
  2
PHANTOM
 70
     0
  3
Phantom ______  __  __  ______  __  __  ______
 72
    65
 73
     6
 40
0.5
 49
0.25
 74
     0
 49
-0.05
 74
     0
 49
0.05
 74
     0
 49
-0.05
 74
     0
 49
0.05
 74
     0
 49
-0.05
 74
     0
  0
LTYPE
  5
70
330
5
100
AcDbSymbolTableRecord
100
AcDbLinetypeTableRecord
  2
CENTER
 70
     0
  3
Center ____ _ ____ _ ____ _ ____ _ ____ _ ____
 72
    65
 73
     4
 40
0.4
 49
0.25
 74
     0
 49
-0.05
 74
     0
 49
0.05
 74
     0
 49
-0.05
 74
     0
  0
LTYPE
  5
71
330
5
100
AcDbSymbolTableRecord
100
AcDbLinetypeTableRecord
  2
CENTERX2
 70
     0
  3
Center (2x) ________  __  ________  __  _____
 72
    65
 73
     4
 40
0.8
 49
0.5
 74
     0
 49
-0.1
 74
     0
 49
0.1
 74
     0
 49
-0.1
 74
     0
  0
LTYPE
  5
72
330
5
100
AcDbSymbolTableRecord
100
AcDbLinetypeTableRecord
  2
DOT2
 70
     0
  3
Dot (.5x) ........................................
 72
    65
 73
     2
 40
0.025
 49
0.0
 74
     0
 49
-0.025
 74
     0
  0
ENDTAB
  0
TABLE
  2
LAYER
  5
2
330
0
100
AcDbSymbolTable
 70
     1
  0
LAYER
  5
10
330
2
100
AcDbSymbolTableRecord
100
AcDbLayerTableRecord
  2
0
 70
     0
 62
     7
  6
Continuous
370
    -3
390
F
  0
ENDTAB
  0
TABLE
  2
STYLE
  5
3
330
0
100
AcDbSymbolTable
 70
     2
  0
STYLE
  5
11
330
3
100
AcDbSymbolTableRecord
100
AcDbTextStyleTableRecord
  2
Standard
 70
     0
 40
0.0
 41
1.0
 50
0.0
 71
     0
 42
0.15
  3
txt
  4

  0
STYLE
  5
120
330
3
100
AcDbSymbolTableRecord
100
AcDbTextStyleTableRecord
  2
SLDTEXTSTYLE0
 70
     0
 40
0.0
 41
0.7
 50
0.0
 71
     0
 42
0.15
  3
TXT
  4

  0
ENDTAB
  0
TABLE
  2
VIEW
  5
6
330
0
100
AcDbSymbolTable
 70
     0
  0
ENDTAB
  0
TABLE
  2
UCS
  5
7
330
0
100
AcDbSymbolTable
 70
     0
  0
ENDTAB
  0
TABLE
  2
APPID
  5
9
330
0
100
AcDbSymbolTable
 70
     1
  0
APPID
  5
12
330
9
100
AcDbSymbolTableRecord
100
AcDbRegAppTableRecord
  2
ACAD
 70
     0
  0
ENDTAB
  0
TABLE
  2
DIMSTYLE
  5
A
330
0
100
AcDbSymbolTable
 70
     1
100
AcDbDimStyleTable
  0
DIMSTYLE
105
27
330
A
100
AcDbSymbolTableRecord
100
AcDbDimStyleTableRecord
  2
Standard
 70
     0
178
     0
340
11
  0
ENDTAB
  0
TABLE
  2
BLOCK_RECORD
  5
1
330
0
100
AcDbSymbolTable
 70
     1
  0
BLOCK_RECORD
  5
1F
330
1
100
AcDbSymbolTableRecord
100
AcDbBlockTableRecord
  2
*Model_Space
340
22
  0
BLOCK_RECORD
  5
1B
330
1
100
AcDbSymbolTableRecord
100
AcDbBlockTableRecord
  2
*Paper_Space
340
1E
  0
BLOCK_RECORD
  5
23
330
1
100
AcDbSymbolTableRecord
100
AcDbBlockTableRecord
  2
*Paper_Space0
340
26
  0
ENDTAB
  0
ENDSEC
  0
SECTION
  2
BLOCKS
  0
BLOCK
  5
20
330
1F
100
AcDbEntity
  8
0
100
AcDbBlockBegin
  2
*Model_Space
 70
     0
 10
0.0
 20
0.0
 30
0.0
  3
*Model_Space
  1

  0
ENDBLK
  5
21
330
1F
100
AcDbEntity
  8
0
100
AcDbBlockEnd
  0
BLOCK
  5
1C
330
1B
100
AcDbEntity
 67
     1
  8
0
100
AcDbBlockBegin
  2
*Paper_Space
 70
     0
 10
0.0
 20
0.0
 30
0.0
  3
*Paper_Space
  1

  0
ENDBLK
  5
1D
330
1B
100
AcDbEntity
 67
     1
  8
0
100
AcDbBlockEnd
  0
BLOCK
  5
24
330
23
100
AcDbEntity
  8
0
100
AcDbBlockBegin
  2
*Paper_Space0
 70
     0
 10
0.0
 20
0.0
 30
0.0
  3
*Paper_Space0
  1

  0
ENDBLK
  5
25
330
23
100
AcDbEntity
  8
0
100
AcDbBlockEnd
  0
ENDSEC
  0
SECTION
  2
ENTITIES
  0
SPLINE
  5
73
330
1F
100
AcDbEntity
  8
0
  6
Continuous
 62
     7
370
    35
100
AcDbSpline
210
0.0
220
0.0
230
1.0
 70
     8
 71
     3
 72
    19
 73
    15
 74
     0
 42
0.000000001
 43
0.00000001
 40
0.0
 40
0.0
 40
0.0
 40
0.0
 40
0.1038439242634187
 40
0.2011148859465236
 40
0.2911157193792157
 40
0.374348403971364
 40
0.4507073961858699
 40
0.52004041201636
 40
0.583258322445338
 40
0.6395782998253254
 40
0.7415365099482663
 40
0.8350600486817362
 40
0.9208729600458329
 40
1.0
 40
1.0
 40
1.0
 40
1.0
 10
-0.82408231122552
 20
0.3059517274883889
 30
0.0
 10
-0.8229011170357865
 20
0.3072182984474365
 30
0.0
 10
-0.8206134941783682
 20
0.3096712707881769
 30
0.0
 10
-0.817358442604261
 20
0.3132737216348424
 30
0.0
 10
-0.8144129084648394
 20
0.3166923614989456
 30
0.0
 10
-0.8118379698060627
 20
0.3199635919984731
 30
0.0
 10
-0.809498497161934
 20
0.3229813077282271
 30
0.0
 10
-0.8074988074339449
 20
0.325836466406214
 30
0.0
 10
-0.8058206050266333
 20
0.328503256369559
 30
0.0
 10
-0.8039986782907318
 20
0.3317189393145052
 30
0.0
 10
-0.8022684468007628
 20
0.3355542134544088
 30
0.0
 10
-0.80068085468971
 20
0.3399726065211599
 30
0.0
 10
-0.7997131074339447
 20
0.3441955727112291
 30
0.0
 10
-0.7995795277081821
 20
0.346947348255921
 30
0.0
 10
-0.7995154451847364
 20
0.3482674641631313
 30
0.0
  0
SPLINE
  5
7A
330
1F
100
AcDbEntity
  8
0
  6
Continuous
 62
     7
370
    35
100
AcDbSpline
210
0.0
220
0.0
230
1.0
 70
     8
 71
     3
 72
    23
 73
    19
 74
     0
 42
0.000000001
 43
0.00000001
 40
0.0
 40
0.0
 40
0.0
 40
0.0
 40
0.045517751651318
 40
0.0916159906181652
 40
0.1392465550335718
 40
0.1882415637234044
 40
0.2386730793725372
 40
0.2906638743206417
 40
0.3448398555786327
 40
0.4004316067351765
 40
0.4591437176132942
 40
0.5225510475946143
 40
0.5901008583230438
 40
0.662259656524868
 40
0.7396813070012561
 40
0.8215754713854212
 40
0.9083300466844443
 40
1.0
 40
1.0
 40
1.0
 40
1.0
 10
-0.7747829598223296
 20
0.3500064670401756
 30
0.0
 10
-0.7748060778554637
 20
0.3489567842858648
 30
0.0
 10
-0.7748526087457189
 20
0.3468440321862518
 30
0.0
 10
-0.7751761442087337
 20
0.34364691971684
 30
0.0
 10
-0.7756615113339564
 20
0.3403902868774148
 30
0.0
 10
-0.7763933266742268
 20
0.3370769259271177
 30
0.0
 10
-0.7773059603989935
 20
0.3337059080786667
 30
0.0
 10
-0.7784131170187415
 20
0.3302671450342977
 30
0.0
 10
-0.7797404781204764
 20
0.3267801333196893
 30
0.0
 10
-0.7812658927422433
 20
0.323205627214365
 30
0.0
 10
-0.7830857162520258
 20
0.3195320216970955
 30
0.0
 10
-0.7852046477730633
 20
0.3157042479904259
 30
0.0
 10
-0.7876789285495329
 20
0.3117257016311332
 30
0.0
 10
-0.790478672390383
 20
0.307573918450827
 30
0.0
 10
-0.7936174769794305
 20
0.3032554464545645
 30
0.0
 10
-0.7971106649247078
 20
0.2987832942276651
 30
0.0
 10
-0.8009180029041277
 20
0.2941417033326474
 30
0.0
 10
-0.8036201777737717
 20
0.2910390602983428
 30
0.0
 10
-0.8050084860185739
 20
0.2894450017666039
 30
0.0
  0
SPLINE
  5
7B
330
1F
100
AcDbEntity
  8
0
  6
Continuous
 62
     7
370
    35
100
AcDbSpline
210
0.0
220
0.0
230
1.0
 70
     8
 71
     3
 72
    19
 73
    15
 74
     0
 42
0.000000001
 43
0.00000001
 40
0.0
 40
0.0
 40
0.0
 40
0.0
 40
0.089614528882116
 40
0.1749485612865265
 40
0.2575481258745666
 40
0.3389007874900957
 40
0.4200531858831911
 40
0.5014014271193632
 40
0.5842520267159586
 40
0.6703704767286323
 40
0.7564732666582514
 40
0.8392065940498489
 40
0.920120466657821
 40
0.9999999999999999
 40
0.9999999999999999
 40
0.9999999999999999
 40
0.9999999999999999
 10
-0.8161325837876028
 20
0.3913284877851786
 30
0.0
 10
-0.8141868566405811
 20
0.3912677759688166
 30
0.0
 10
-0.8103883412739995
 20
0.3911492522756374
 30
0.0
 10
-0.804868797150588
 20
0.3901382058371086
 30
0.0
 10
-0.7997141464275931
 20
0.3884470744310769
 30
0.0
 10
-0.7949281360518641
 20
0.3860841178649676
 30
0.0
 10
-0.7905515101713516
 20
0.3830822292436731
 30
0.0
 10
-0.7865849945496081
 20
0.3795029683563516
 30
0.0
 10
-0.7831485429437008
 20
0.3752712404324158
 30
0.0
 10
-0.7802203672408975
 20
0.3705631207657424
 30
0.0
 10
-0.7777874031944848
 20
0.3655778846502192
 30
0.0
 10
-0.7760824833353988
 20
0.360422943777783
 30
0.0
 10
-0.7749618578614997
 20
0.3552350893773271
 30
0.0
 10
-0.7748423362188893
 20
0.3517418508084639
 30
0.0
 10
-0.7747829598223296
 20
0.3500064670401756
 30
0.0
  0
SPLINE
  5
7C
330
1F
100
AcDbEntity
  8
0
  6
Continuous
 62
     7
370
    35
100
AcDbSpline
210
0.0
220
0.0
230
1.0
 70
     8
 71
     3
 72
    23
 73
    19
 74
     0
 42
0.000000001
 43
0.00000001
 40
0.0
 40
0.0
 40
0.0
 40
0.0
 40
0.0749399102007723
 40
0.1464280851715766
 40
0.2147529716359191
 40
0.2804215366912469
 40
0.343604429519365
 40
0.405542638818659
 40
0.4661994619307767
 40
0.5265381448244668
 40
0.5859019063092085
 40
0.6440895746157927
 40
0.7016130759883663
 40
0.7587535874365706
 40
0.8166294493897656
 40
0.8756554749553053
 40
0.93662433228653
 40
1.0
 40
1.0
 40
1.0
 40
1.0
 10
-0.861346658590753
 20
0.3418635170603653
 30
0.0
 10
-0.8612398427795809
 20
0.343734398732506
 30
0.0
 10
-0.8610311310977263
 20
0.3473899891929192
 30
0.0
 10
-0.860200928779105
 20
0.3526998513881346
 30
0.0
 10
-0.8590884861636618
 20
0.3577170872669473
 30
0.0
 10
-0.8576037838147501
 20
0.3624241459915868
 30
0.0
 10
-0.855738158166993
 20
0.3668193171682029
 30
0.0
 10
-0.8535396165752719
 20
0.3709175841747551
 30
0.0
 10
-0.8509519912965408
 20
0.3746973695446448
 30
0.0
 10
-0.8480303555069896
 20
0.3781404450191284
 30
0.0
 10
-0.8448243105451427
 20
0.3812292597995863
 30
0.0
 10
-0.8414004170524725
 20
0.3839679970318819
 30
0.0
 10
-0.8377063019638116
 20
0.386227934071128
 30
0.0
 10
-0.8338094597838369
 20
0.3880876530257443
 30
0.0
 10
-0.8297105540643713
 20
0.3895734820529541
 30
0.0
 10
-0.8253708027192502
 20
0.3905668789964363
 30
0.0
 10
-0.8208277816656929
 20
0.391239617138102
 30
0.0
 10
-0.81771771587275
 20
0.3912984844247737
 30
0.0
 10
-0.8161325837876028
 20
0.3913284877851786
 30
0.0
  0
SPLINE
  5
7E
330
1F
100
AcDbEntity
  8
0
  6
Continuous
 62
     7
370
    35
100
AcDbSpline
210
0.0
220
0.0
230
1.0
 70
     8
 71
     3
 72
    23
 73
    19
 74
     0
 42
0.000000001
 43
0.00000001
 40
0.0
 40
0.0
 40
0.0
 40
0.0
 40
0.0564668684718614
 40
0.1111640986969659
 40
0.1649370968759837
 40
0.2183217523125943
 40
0.2723929232482784
 40
0.3279763434477032
 40
0.3852910519840194
 40
0.4449029182928196
 40
0.5068438192198339
 40
0.569488185262971
 40
0.6341532155537233
 40
0.700976095310052
 40
0.7708974968462695
 40
0.8436256105557797
 40
0.9196596761155407
 40
1.0
 40
1.0
 40
1.0
 40
1.0
 10
-0.8175403480214011
 20
0.3665960024227719
 30
0.0
 10
-0.81819465498878
 20
0.3665728599107832
 30
0.0
 10
-0.8194827633303322
 20
0.3665273001594383
 30
0.0
 10
-0.8213761819104796
 20
0.3662240212215283
 30
0.0
 10
-0.8231779057213799
 20
0.3656895237501585
 30
0.0
 10
-0.8249079889516462
 20
0.3649733723687137
 30
0.0
 10
-0.8265479676977563
 20
0.3640241085709636
 30
0.0
 10
-0.8280937054137499
 20
0.3628539897037245
 30
0.0
 10
-0.8295614883996196
 20
0.3614927511458698
 30
0.0
 10
-0.8309445848137315
 20
0.3599446493097024
 30
0.0
 10
-0.8322033831073736
 20
0.3582169672061895
 30
0.0
 10
-0.8333214431488872
 20
0.3563254836782677
 30
0.0
 10
-0.8342458926742907
 20
0.3542713728259458
 30
0.0
 10
-0.8350598116361898
 20
0.3520817520499587
 30
0.0
 10
-0.8356875448864792
 20
0.3497331030382309
 30
0.0
 10
-0.8361446125655297
 20
0.347239482192858
 30
0.0
 10
-0.8364920905988779
 20
0.3446049463087105
 30
0.0
 10
-0.8365727387190405
 20
0.3427939506215972
 30
0.0
 10
-0.8366141732283461
 20
0.3418635170603653
 30
0.0
  0
SPLINE
  5
7F
330
1F
100
AcDbEntity
  8
0
  6
Continuous
 62
     7
370
    35
100
AcDbSpline
210
0.0
220
0.0
230
1.0
 70
     8
 71
     3
 72
    15
 73
    11
 74
     0
 42
0.000000001
 43
0.00000001
 40
0.0
 40
0.0
 40
0.0
 40
0.0
 40
0.1327548717475866
 40
0.2572338481110645
 40
0.3786007316763551
 40
0.5014062774984553
 40
0.6239419536469526
 40
0.7436418348746451
 40
0.8681208112381243
 40
0.9999999999999999
 40
0.9999999999999999
 40
0.9999999999999999
 40
0.9999999999999999
 10
-0.7995154451847364
 20
0.3482674641631313
 30
0.0
 10
-0.7995633581391256
 20
0.3495445744574497
 30
0.0
 10
-0.799656197169961
 20
0.352019180407086
 30
0.0
 10
-0.8006764228903948
 20
0.3555392941950807
 30
0.0
 10
-0.8022569919613596
 20
0.3587263978898839
 30
0.0
 10
-0.8044842370053007
 20
0.36148525723932
 30
0.0
 10
-0.8071821283192572
 20
0.363752394904807
 30
0.0
 10
-0.8102997951559545
 20
0.3654386282061435
 30
0.0
 10
-0.8138118193600816
 20
0.366411577092207
 30
0.0
 10
-0.8162738152413711
 20
0.3665333555323104
 30
0.0
 10
-0.8175403480214011
 20
0.3665960024227719
 30
0.0
  0
SPLINE
  5
80
330
1F
100
AcDbEntity
  8
0
  6
Continuous
 62
     7
370
    35
100
AcDbSpline
210
0.0
220
0.0
230
1.0
 70
     8
 71
     3
 72
    31
 73
    27
 74
     0
 42
0.000000001
 43
0.00000001
 40
0.0
 40
0.0
 40
0.0
 40
0.0
 40
0.0382173379691359
 40
0.0748672030399435
 40
0.1101580815531039
 40
0.1444539266593005
 40
0.1780797262741527
 40
0.211170772593597
 40
0.2436870542144176
 40
0.2758717334447985
 40
0.3083755160139862
 40
0.3412633249363585
 40
0.375150339470905
 40
0.4096552607042125
 40
0.4451573674923585
 40
0.4820734672046721
 40
0.5205757562184276
 40
0.5605536808978382
 40
0.6031075754382533
 40
0.648688709529489
 40
0.6979476778875633
 40
0.7507677670183535
 40
0.8073094024459647
 40
0.8676555707911412
 40
0.9318612220995587
 40
1.0
 40
1.0
 40
1.0
 40
1.0
 10
-0.9219909335251365
 20
0.2464667878053683
 30
0.0
 10
-0.9232244734048803
 20
0.2464880568887805
 30
0.0
 10
-0.9256409598882989
 20
0.2465297227103925
 30
0.0
 10
-0.9291864321895941
 20
0.246854192359145
 30
0.0
 10
-0.9325647548562518
 20
0.2474529948869375
 30
0.0
 10
-0.9358133103472343
 20
0.2482048930059155
 30
0.0
 10
-0.9389094892281818
 20
0.2492395547385969
 30
0.0
 10
-0.9418681375834116
 20
0.2504742971760598
 30
0.0
 10
-0.9446665059665875
 20
0.251943123553817
 30
0.0
 10
-0.9473123426191107
 20
0.253637063992316
 30
0.0
 10
-0.9497966139023901
 20
0.2555795474118712
 30
0.0
 10
-0.9521579253778145
 20
0.2577497967735289
 30
0.0
 10
-0.9543910536867287
 20
0.2601423110530411
 30
0.0
 10
-0.9564620274110177
 20
0.2627838883926431
 30
0.0
 10
-0.9584047631063456
 20
0.2656392692414001
 30
0.0
 10
-0.9601990011127927
 20
0.2687410606602083
 30
0.0
 10
-0.9618436631396072
 20
0.2720847465149393
 30
0.0
 10
-0.9633901945183873
 20
0.2756749875591539
 30
0.0
 10
-0.9647339345260495
 20
0.279589077567058
 30
0.0
 10
-0.9659298007408139
 20
0.2838619688651575
 30
0.0
 10
-0.9669094228884604
 20
0.2885292795256863
 30
0.0
 10
-0.9676973005699512
 20
0.2935895101267111
 30
0.0
 10
-0.9683263416592406
 20
0.2990319403482823
 30
0.0
 10
-0.9687942759277589
 20
0.3048591970942234
 30
0.0
 10
-0.9690713021697311
 20
0.3110739945606884
 30
0.0
 10
-0.9690966037629773
 20
0.3153457344307887
 30
0.0
 10
-0.9691096305269536
 20
0.3175450800020168
 30
0.0
  0
SPLINE
  5
81
330
1F
100
AcDbEntity
  8
0
  6
Continuous
 62
     7
370
    35
100
AcDbSpline
210
0.0
220
0.0
230
1.0
 70
     8
 71
     3
 72
    31
 73
    27
 74
     0
 42
0.000000001
 43
0.00000001
 40
0.0
 40
0.0
 40
0.0
 40
0.0
 40
0.0684908744969536
 40
0.1330765404908784
 40
0.1938289871915769
 40
0.2510828574460499
 40
0.3044008371534405
 40
0.3544083437255268
 40
0.401294781777744
 40
0.4447006845454775
 40
0.4856924920892439
 40
0.5246764844274036
 40
0.5623067591777585
 40
0.597946584652534
 40
0.6324735490267263
 40
0.6657520428969368
 40
0.6979852995504433
 40
0.7295862241486804
 40
0.7608251968744882
 40
0.7923550795612052
 40
0.8243126039626629
 40
0.8571562719790681
 40
0.8909268871454036
 40
0.9259604429162996
 40
0.9620613229943379
 40
1.0
 40
1.0
 40
1.0
 40
1.0
 10
-0.8754795073692712
 20
0.3188424313547323
 30
0.0
 10
-0.8754926674218071
 20
0.3166155028335238
 30
0.0
 10
-0.8755182371678061
 20
0.3122886206656508
 30
0.0
 10
-0.8757937331560407
 20
0.3059908523698589
 30
0.0
 10
-0.8762681502634988
 20
0.3000725202303505
 30
0.0
 10
-0.8768796132703428
 20
0.2945342365315973
 30
0.0
 10
-0.8777171503309851
 20
0.2893789259559074
 30
0.0
 10
-0.8786980226528979
 20
0.2845932397159018
 30
0.0
 10
-0.8798636171081581
 20
0.2801789125024892
 30
0.0
 10
-0.8812708131538014
 20
0.2761458907358566
 30
0.0
 10
-0.8827850948176904
 20
0.2724292100354199
 30
0.0
 10
-0.8844514406992681
 20
0.2689843772155461
 30
0.0
 10
-0.8862408066268964
 20
0.2658020617639821
 30
0.0
 10
-0.8881121499403373
 20
0.2628342541235392
 30
0.0
 10
-0.8901680645615585
 20
0.2601684437563218
 30
0.0
 10
-0.8923084833306157
 20
0.2577139791699452
 30
0.0
 10
-0.8946266039036217
 20
0.2555643540688756
 30
0.0
 10
-0.8970248244427603
 20
0.2536087864225284
 30
0.0
 10
-0.8995910014652113
 20
0.2519187835318107
 30
0.0
 10
-0.9022986706637732
 20
0.2504407348676232
 30
0.0
 10
-0.9051961050777477
 20
0.2492418618515004
 30
0.0
 10
-0.9082304894060217
 20
0.2481991461359354
 30
0.0
 10
-0.9114535453449913
 20
0.2474505887606521
 30
0.0
 10
-0.9148140589779973
 20
0.2468566330837609
 30
0.0
 10
-0.9183499698256307
 20
0.2465283767453932
 30
0.0
 10
-0.9207573603498829
 20
0.2464876543864653
 30
0.0
 10
-0.9219909335251365
 20
0.2464667878053683
 30
0.0
  0
SPLINE
  5
82
330
1F
100
AcDbEntity
  8
0
  6
Continuous
 62
     7
370
    35
100
AcDbSpline
210
0.0
220
0.0
230
1.0
 70
     8
 71
     3
 72
    31
 73
    27
 74
     0
 42
0.000000001
 43
0.00000001
 40
0.0
 40
0.0
 40
0.0
 40
0.0
 40
0.0366348902551275
 40
0.0720339823477889
 40
0.1066259706074967
 40
0.1403056939382976
 40
0.1736194704926821
 40
0.2064256725696815
 40
0.2390670061327424
 40
0.2718828805625947
 40
0.3048398888131211
 40
0.3385290337045873
 40
0.372616187859385
 40
0.4075482500265401
 40
0.4437189059571697
 40
0.4813115090919061
 40
0.5201129981462023
 40
0.5609129028334483
 40
0.604024600613604
 40
0.6500745638656775
 40
0.6995722277770581
 40
0.7523625390892964
 40
0.8087887173463877
 40
0.8689542125204779
 40
0.9326747199379386
 40
1.0
 40
1.0
 40
1.0
 40
1.0
 10
-0.9227086172521705
 20
0.3913284877851786
 30
0.0
 10
-0.9215114623079647
 20
0.3913107156825461
 30
0.0
 10
-0.9191575358319207
 20
0.3912757709804219
 30
0.0
 10
-0.915690645224718
 20
0.3908972913940565
 30
0.0
 10
-0.9123510710359021
 20
0.3903255142941082
 30
0.0
 10
-0.9091257484351571
 20
0.3895280846216037
 30
0.0
 10
-0.9060378936219844
 20
0.3884727148544321
 30
0.0
 10
-0.9030650325510674
 20
0.3872094553335607
 30
0.0
 10
-0.9002425508724585
 20
0.3856720454947459
 30
0.0
 10
-0.8975344529252611
 20
0.3839354621221017
 30
0.0
 10
-0.8949417818723521
 20
0.3819694035637224
 30
0.0
 10
-0.8925268507480209
 20
0.3797279952932867
 30
0.0
 10
-0.8902455577792848
 20
0.3772628122075882
 30
0.0
 10
-0.8881472845587299
 20
0.3745365851615882
 30
0.0
 10
-0.8861855641862045
 20
0.371574112080532
 30
0.0
 10
-0.8843668425450031
 20
0.3683749232107357
 30
0.0
 10
-0.8827050424000145
 20
0.3649233606652993
 30
0.0
 10
-0.8811815389361821
 20
0.3612131958254933
 30
0.0
 10
-0.8798192173271344
 20
0.3571888149232143
 30
0.0
 10
-0.8786717355251805
 20
0.3528040565614402
 30
0.0
 10
-0.8776875778707849
 20
0.3480579194101852
 30
0.0
 10
-0.8768568793700086
 20
0.3429385896084288
 30
0.0
 10
-0.8762290055666021
 20
0.3374392623479712
 30
0.0
 10
-0.8758058059832287
 20
0.3315635911063856
 30
0.0
 10
-0.8755153863970263
 20
0.3253229033141916
 30
0.0
 10
-0.8754916843748288
 20
0.3210418427659426
 30
0.0
 10
-0.8754795073692712
 20
0.3188424313547323
 30
0.0
  0
SPLINE
  5
83
330
1F
100
AcDbEntity
  8
0
  6
Continuous
 62
     7
370
    35
100
AcDbSpline
210
0.0
220
0.0
230
1.0
 70
     8
 71
     3
 72
    15
 73
    11
 74
     0
 42
0.000000001
 43
0.00000001
 40
0.0
 40
0.0
 40
0.0
 40
0.0
 40
0.1323140339085634
 40
0.2587000085531548
 40
0.3809118214856516
 40
0.5005348689728926
 40
0.6209226176484478
 40
0.7423757653984702
 40
0.868280834178856
 40
1.0
 40
1.0
 40
1.0
 40
1.0
 10
-0.9577923102160311
 20
0.3725859012214799
 30
0.0
 10
-0.9567223880924628
 20
0.3740764150587541
 30
0.0
 10
-0.9546304795145014
 20
0.3769906633139158
 30
0.0
 10
-0.9509727188927752
 20
0.3808165265294329
 30
0.0
 10
-0.9470429313380214
 20
0.3840885920961236
 30
0.0
 10
-0.9427604012545752
 20
0.3867328102402115
 30
0.0
 10
-0.9381928586396899
 20
0.3888180408833257
 30
0.0
 10
-0.9333010888181515
 20
0.3902908158015777
 30
0.0
 10
-0.9281031562739576
 20
0.3911489230968448
 30
0.0
 10
-0.9245336492911569
 20
0.3912677390709777
 30
0.0
 10
-0.9227086172521705
 20
0.3913284877851786
 30
0.0
  0
SPLINE
  5
84
330
1F
100
AcDbEntity
  8
0
  6
Continuous
 62
     7
370
    35
100
AcDbSpline
210
0.0
220
0.0
230
1.0
 70
     8
 71
     3
 72
    15
 73
    11
 74
     0
 42
0.000000001
 43
0.00000001
 40
0.0
 40
0.0
 40
0.0
 40
0.0
 40
0.1610711239484219
 40
0.3107888083803541
 40
0.4499038238309447
 40
0.5783763165061843
 40
0.6966172119048383
 40
0.805987322710409
 40
0.90656170328908
 40
0.9999999999999999
 40
0.9999999999999999
 40
0.9999999999999999
 40
0.9999999999999999
 10
-0.9691096305269536
 20
0.3175450800020168
 30
0.0
 10
-0.9690860337616813
 20
0.3206008975335881
 30
0.0
 10
-0.9690405034991455
 20
0.3264971368220714
 30
0.0
 10
-0.9684635105722196
 20
0.3350154882688255
 30
0.0
 10
-0.9676166312975616
 20
0.3428892285862118
 30
0.0
 10
-0.9663727662516681
 20
0.3501051869494621
 30
0.0
 10
-0.9648347443253461
 20
0.3566900891635954
 30
0.0
 10
-0.9628652271632681
 20
0.3626005573400917
 30
0.0
 10
-0.9606230751451375
 20
0.3679183760605059
 30
0.0
 10
-0.9587124735735715
 20
0.3710686838858517
 30
0.0
 10
-0.9577923102160311
 20
0.3725859012214799
 30
0.0
  0
SPLINE
  5
8A
330
1F
100
AcDbEntity
  8
0
  6
Continuous
 62
     7
370
    35
100
AcDbSpline
210
0.0
220
0.0
230
1.0
 70
     8
 71
     3
 72
    15
 73
    11
 74
     0
 42
0.000000001
 43
0.00000001
 40
0.0
 40
0.0
 40
0.0
 40
0.0
 40
0.0773727494946895
 40
0.1676142909211624
 40
0.2721083165199081
 40
0.3900159922754468
 40
0.5213633102089975
 40
0.6672722540317941
 40
0.8268095210701766
 40
1.0
 40
1.0
 40
1.0
 40
1.0
 10
-1.197195039622451
 20
0.3121624520492609
 30
0.0
 10
-1.197901426272255
 20
0.3119867019074531
 30
0.0
 10
-1.199431687225837
 20
0.3116059705053664
 30
0.0
 10
-1.201963848795757
 20
0.31121943257187
 30
0.0
 10
-1.204881899141521
 20
0.3108640347086316
 30
0.0
 10
-1.208195274227049
 20
0.3105586132699044
 30
0.0
 10
-1.211905884292803
 20
0.3103509978585067
 30
0.0
 10
-1.216010136498066
 20
0.3101888594556079
 30
0.0
 10
-1.220509890824953
 20
0.3100709680926148
 30
0.0
 10
-1.223638842045605
 20
0.3100667847894829
 30
0.0
 10
-1.225267514637593
 20
0.3100646073086997
 30
0.0
  0
SPLINE
  5
8B
330
1F
100
AcDbEntity
  8
0
  6
Continuous
 62
     7
370
    35
100
AcDbSpline
210
0.0
220
0.0
230
1.0
 70
     8
 71
     3
 72
    23
 73
    19
 74
     0
 42
0.000000001
 43
0.00000001
 40
0.0
 40
0.0
 40
0.0
 40
0.0
 40
0.0688754254237457
 40
0.1353486746991227
 40
0.1992893152193377
 40
0.2615500803944973
 40
0.3229153841538531
 40
0.3827719971265276
 40
0.4428435721153016
 40
0.5026520291025165
 40
0.5627488431894929
 40
0.6227395817076816
 40
0.682687331514857
 40
0.7433292468860028
 40
0.8050125141012736
 40
0.8680671203592971
 40
0.9331105710618381
 40
1.0
 40
1.0
 40
1.0
 40
1.0
 10
-1.168736119523522
 20
0.3486539092469189
 30
0.0
 10
-1.168754899872915
 20
0.3475029082910154
 30
0.0
 10
-1.168791805567294
 20
0.3452410499721662
 30
0.0
 10
-1.169153600304229
 20
0.3419254431738413
 30
0.0
 10
-1.169771660022217
 20
0.3387643122830011
 30
0.0
 10
-1.170579431746079
 20
0.3357309989160759
 30
0.0
 10
-1.17170581196855
 20
0.3328754078017112
 30
0.0
 10
-1.172992648479237
 20
0.3301294036596262
 30
0.0
 10
-1.174575865559526
 20
0.3275699760171559
 30
0.0
 10
-1.176384944175443
 20
0.3251651095171303
 30
0.0
 10
-1.178360664411872
 20
0.322895251459394
 30
0.0
 10
-1.180549929782747
 20
0.3208259397033589
 30
0.0
 10
-1.182911011947565
 20
0.3189430678224575
 30
0.0
 10
-1.1854302434485
 20
0.3172269031716263
 30
0.0
 10
-1.188117082236793
 20
0.3156809076373246
 30
0.0
 10
-1.190969589625038
 20
0.3142906046139926
 30
0.0
 10
-1.194007244151104
 20
0.3131004603035349
 30
0.0
 10
-1.19612257536945
 20
0.3124780244662405
 30
0.0
 10
-1.197195039622451
 20
0.3121624520492609
 30
0.0
  0
SPLINE
  5
8C
330
1F
100
AcDbEntity
  8
0
  6
Continuous
 62
     7
370
    35
100
AcDbSpline
210
0.0
220
0.0
230
1.0
 70
     8
 71
     3
 72
    31
 73
    27
 74
     0
 42
0.000000001
 43
0.00000001
 40
0.0
 40
0.0
 40
0.0
 40
0.0
 40
0.0707811610050441
 40
0.1365516962322762
 40
0.1970124824343215
 40
0.2529226940754278
 40
0.303686532040094
 40
0.3497191510228067
 40
0.3912404712771942
 40
0.4284785554869214
 40
0.4630565648912345
 40
0.4971503576227111
 40
0.5310023337427001
 40
0.5642263769534173
 40
0.5977006695240377
 40
0.6314214209809017
 40
0.6655973468372219
 40
0.7004514363039004
 40
0.735880683980128
 40
0.7710921079261264
 40
0.8069748450233086
 40
0.8435344028448034
 40
0.8809401955444316
 40
0.9192943843072741
 40
0.9591802403135349
 40
1.0
 40
1.0
 40
1.0
 40
1.0
 10
-1.222396779729457
 20
0.387795275590549
 30
0.0
 10
-1.220593221126193
 20
0.3877872024783611
 30
0.0
 10
-1.217113778531117
 20
0.3877716277527209
 30
0.0
 10
-1.212096136042873
 20
0.38758276348702
 30
0.0
 10
-1.207467115170902
 20
0.3872443072186646
 30
0.0
 10
-1.203227779424359
 20
0.386826028796092
 30
0.0
 10
-1.199379871913424
 20
0.3862396187228313
 30
0.0
 10
-1.195918573903155
 20
0.3855673454881172
 30
0.0
 10
-1.1928431670916
 20
0.3847483210260497
 30
0.0
 10
-1.190118971695142
 20
0.3837761503412707
 30
0.0
 10
-1.187674094321881
 20
0.3826299990864899
 30
0.0
 10
-1.185360451780759
 20
0.3814092661871532
 30
0.0
 10
-1.183230332648846
 20
0.3799523645259338
 30
0.0
 10
-1.18117622337915
 20
0.3784163127769719
 30
0.0
 10
-1.179315560940731
 20
0.3766543725062095
 30
0.0
 10
-1.177532266071532
 20
0.3747838033963918
 30
0.0
 10
-1.17590186617337
 20
0.3727304202144173
 30
0.0
 10
-1.174416806579078
 20
0.3705190786109011
 30
0.0
 10
-1.173069628696539
 20
0.3681906347234349
 30
0.0
 10
-1.171892643974937
 20
0.3657409259847453
 30
0.0
 10
-1.170937939880691
 20
0.3631660759870088
 30
0.0
 10
-1.170137061857732
 20
0.3604827410823546
 30
0.0
 10
-1.169493788827579
 20
0.3576910382163965
 30
0.0
 10
-1.169065605820889
 20
0.3547737981681409
 30
0.0
 10
-1.168774762382003
 20
0.3517513902159278
 30
0.0
 10
-1.168749099464476
 20
0.3496943374570259
 30
0.0
 10
-1.168736119523522
 20
0.3486539092469191
 30
0.0
  0
SPLINE
  5
90
330
1F
100
AcDbEntity
  8
0
  6
Continuous
 62
     7
370
    35
100
AcDbSpline
210
0.0
220
0.0
230
1.0
 70
     8
 71
     3
 72
    19
 73
    15
 74
     0
 42
0.000000001
 43
0.00000001
 40
0.0
 40
0.0
 40
0.0
 40
0.0
 40
0.1121245812797455
 40
0.2152010090762411
 40
0.3099024524934775
 40
0.3959590963320915
 40
0.4734474940003345
 40
0.542140327566032
 40
0.6025233330554094
 40
0.6547263328340134
 40
0.7478040553141003
 40
0.8352784168250088
 40
0.918925242719449
 40
1.0
 40
1.0
 40
1.0
 40
1.0
 10
-1.459066790329094
 20
0.3080219690086796
 30
0.0
 10
-1.460820691368447
 20
0.3095059374734083
 30
0.0
 10
-1.46418695832954
 20
0.3123541221212527
 30
0.0
 10
-1.468943920630098
 20
0.3165608011839405
 30
0.0
 10
-1.47323036959553
 20
0.3204923282225501
 30
0.0
 10
-1.477009282849164
 20
0.3241973055057341
 30
0.0
 10
-1.480328809591856
 20
0.3276073106889274
 30
0.0
 10
-1.483166468546163
 20
0.3307500411386919
 30
0.0
 10
-1.485491086738138
 20
0.3336497387220322
 30
0.0
 10
-1.487937246133912
 20
0.3370842364662726
 30
0.0
 10
-1.490261586637447
 20
0.3412694079568397
 30
0.0
 10
-1.49227047642427
 20
0.3463046544304058
 30
0.0
 10
-1.493573759328661
 20
0.3513392620058595
 30
0.0
 10
-1.493719774051739
 20
0.3547192202300464
 30
0.0
 10
-1.493791641429438
 20
0.3563828109226713
 30
0.0
  0
SPLINE
  5
91
330
1F
100
AcDbEntity
  8
0
  6
Continuous
 62
     7
370
    35
100
AcDbSpline
210
0.0
220
0.0
230
1.0
 70
     8
 71
     3
 72
    19
 73
    15
 74
     0
 42
0.000000001
 43
0.00000001
 40
0.0
 40
0.0
 40
0.0
 40
0.0
 40
0.0763466063531695
 40
0.1550908218146652
 40
0.2383515612585572
 40
0.3284041399329896
 40
0.3793838595513617
 40
0.4396176441748225
 40
0.5098314158313162
 40
0.5888746449969604
 40
0.6774363544094514
 40
0.7755467196196733
 40
0.8826358717258567
 40
1.0
 40
1.0
 40
1.0
 40
1.0
 10
-1.440793458509995
 20
0.2842555963557419
 30
0.0
 10
-1.440838830175126
 20
0.2850418862495859
 30
0.0
 10
-1.440930998369215
 20
0.2866391588939871
 30
0.0
 10
-1.441609880882542
 20
0.2890140464721576
 30
0.0
 10
-1.442671181319553
 20
0.2913878540004401
 30
0.0
 10
-1.443926774577012
 20
0.293334915157284
 30
0.0
 10
-1.445204497937623
 20
0.2949651366839522
 30
0.0
 10
-1.446426289661532
 20
0.2963776498926772
 30
0.0
 10
-1.44791410877836
 20
0.2979382297028429
 30
0.0
 10
-1.449664182835046
 20
0.2996488392054994
 30
0.0
 10
-1.451653388786944
 20
0.3015245373289592
 30
0.0
 10
-1.453883402282268
 20
0.3035651403974576
 30
0.0
 10
-1.456379759334627
 20
0.3057526731385081
 30
0.0
 10
-1.458144189424849
 20
0.3072427988293514
 30
0.0
 10
-1.459066790329094
 20
0.3080219690086796
 30
0.0
  0
SPLINE
  5
92
330
1F
100
AcDbEntity
  8
0
  6
Continuous
 62
     7
370
    35
100
AcDbSpline
210
0.0
220
0.0
230
1.0
 70
     8
 71
     3
 72
    15
 73
    11
 74
     0
 42
0.000000001
 43
0.00000001
 40
0.0
 40
0.0
 40
0.0
 40
0.0
 40
0.1419858925296651
 40
0.275473310550204
 40
0.4043458426631323
 40
0.5354297108606254
 40
0.6614274010622486
 40
0.7778668404627591
 40
0.8882797492818416
 40
1.0
 40
1.0
 40
1.0
 40
1.0
 10
-1.456527294064204
 20
0.2711992731677751
 30
0.0
 10
-1.455454892058588
 20
0.2712426438614212
 30
0.0
 10
-1.453374275981423
 20
0.2713267893236689
 30
0.0
 10
-1.45040446277699
 20
0.2721040155886975
 30
0.0
 10
-1.447681625582222
 20
0.2733243178423931
 30
0.0
 10
-1.44532802522072
 20
0.275065520882558
 30
0.0
 10
-1.443335144828401
 20
0.2770751338339159
 30
0.0
 10
-1.441864284707346
 20
0.2793109201301386
 30
0.0
 10
-1.440940280458502
 20
0.2817299869327394
 30
0.0
 10
-1.440842590806968
 20
0.2834104298566544
 30
0.0
 10
-1.440793458509995
 20
0.2842555963557419
 30
0.0
  0
SPLINE
  5
93
330
1F
100
AcDbEntity
  8
0
  6
Continuous
 62
     7
370
    35
100
AcDbSpline
210
0.0
220
0.0
230
1.0
 70
     8
 71
     3
 72
    15
 73
    11
 74
     0
 42
0.000000001
 43
0.00000001
 40
0.0
 40
0.0
 40
0.0
 40
0.0
 40
0.1604579205559318
 40
0.3076115473748552
 40
0.4421388877557679
 40
0.5662291941703304
 40
0.6812222080152064
 40
0.7895580052436284
 40
0.8950288924051311
 40
1.0
 40
1.0
 40
1.0
 40
1.0
 10
-1.479106728245509
 20
0.2888653341409229
 30
0.0
 10
-1.478303625464665
 20
0.2874693493458621
 30
0.0
 10
-1.476764008795945
 20
0.2847931271847335
 30
0.0
 10
-1.474154984416524
 20
0.2811972835220732
 30
0.0
 10
-1.471482172134446
 20
0.2781180386460807
 30
0.0
 10
-1.468683778924565
 20
0.2756098184074576
 30
0.0
 10
-1.465793832201221
 20
0.2736390846776349
 30
0.0
 10
-1.462798372850193
 20
0.2722306616340628
 30
0.0
 10
-1.459695296319418
 20
0.2713588493633433
 30
0.0
 10
-1.457581621557621
 20
0.2712523809488715
 30
0.0
 10
-1.456527294064204
 20
0.2711992731677751
 30
0.0
  0
SPLINE
  5
95
330
1F
100
AcDbEntity
  8
0
  6
Continuous
 62
     7
370
    35
100
AcDbSpline
210
0.0
220
0.0
230
1.0
 70
     8
 71
     3
 72
    23
 73
    19
 74
     0
 42
0.000000001
 43
0.00000001
 40
0.0
 40
0.0
 40
0.0
 40
0.0
 40
0.063551482235781
 40
0.1258683816453857
 40
0.1862402502136761
 40
0.2449766506319393
 40
0.303357687677064
 40
0.361230317040806
 40
0.4184890490283531
 40
0.4759367117285742
 40
0.534203743819123
 40
0.594059428967541
 40
0.6554686942598732
 40
0.7187716848998885
 40
0.7849746072190577
 40
0.8535223163767033
 40
0.9251824507719315
 40
0.9999999999999999
 40
0.9999999999999999
 40
0.9999999999999999
 40
0.9999999999999999
 10
-1.457438200333131
 20
0.2464667878053686
 30
0.0
 10
-1.458616714418533
 20
0.2464876954303459
 30
0.0
 10
-1.460950848186263
 20
0.2465291045183385
 30
0.0
 10
-1.46439100848003
 20
0.2468671752548728
 30
0.0
 10
-1.467712872132414
 20
0.2474127854540946
 30
0.0
 10
-1.470912697360744
 20
0.2481948078573274
 30
0.0
 10
-1.474004899942714
 20
0.2491857363065457
 30
0.0
 10
-1.47698960687074
 20
0.2503961174467924
 30
0.0
 10
-1.479846213721916
 20
0.2518447117323907
 30
0.0
 10
-1.482596334937959
 20
0.2535017303052772
 30
0.0
 10
-1.485226601535998
 20
0.2554257471372858
 30
0.0
 10
-1.487770272202604
 20
0.2575774263339315
 30
0.0
 10
-1.490202080785543
 20
0.2599898616838223
 30
0.0
 10
-1.492533706768368
 20
0.2626573478706283
 30
0.0
 10
-1.49475023175797
 20
0.2655874385745088
 30
0.0
 10
-1.49692421057078
 20
0.2687393268599666
 30
0.0
 10
-1.498959025046644
 20
0.2721715074945337
 30
0.0
 10
-1.500216020463184
 20
0.2745792099736887
 30
0.0
 10
-1.500858065818697
 20
0.2758090109529558
 30
0.0
  0
SPLINE
  5
96
330
1F
100
AcDbEntity
  8
0
  6
Continuous
 62
     7
370
    35
100
AcDbSpline
210
0.0
220
0.0
230
1.0
 70
     8
 71
     3
 72
    23
 73
    19
 74
     0
 42
0.000000001
 43
0.00000001
 40
0.0
 40
0.0
 40
0.0
 40
0.0
 40
0.0652008752881554
 40
0.1279265440230317
 40
0.189046910018967
 40
0.2485436930694596
 40
0.3076071270223466
 40
0.3672476600602128
 40
0.4269630557213223
 40
0.4886171282353938
 40
0.5503918546271254
 40
0.6113307342255593
 40
0.6725560854310838
 40
0.7340241906291927
 40
0.7973406208369385
 40
0.8622496273165802
 40
0.929625466074696
 40
1.0
 40
1.0
 40
1.0
 40
1.0
 10
-1.416060973147588
 20
0.2856909638098103
 30
0.0
 10
-1.416085638706767
 20
0.2842992936750321
 30
0.0
 10
-1.416134033451903
 20
0.2815687850741058
 30
0.0
 10
-1.416726776273128
 20
0.2775730924617507
 30
0.0
 10
-1.417571992746016
 20
0.2737490412166026
 30
0.0
 10
-1.418878845689961
 20
0.270138242422124
 30
0.0
 10
-1.420471630318726
 20
0.2666814259166464
 30
0.0
 10
-1.422468415893537
 20
0.2634324379098535
 30
0.0
 10
-1.424813366752525
 20
0.2603583973150326
 30
0.0
 10
-1.427501040486658
 20
0.2575142563668154
 30
0.0
 10
-1.430473926783135
 20
0.2549333955900106
 30
0.0
 10
-1.433662629874192
 20
0.2526358523685747
 30
0.0
 10
-1.437098330503662
 20
0.2507389377862779
 30
0.0
 10
-1.440751674586802
 20
0.2491769639328472
 30
0.0
 10
-1.444620706571349
 20
0.2479739107855877
 30
0.0
 10
-1.448700817273918
 20
0.2470847423860981
 30
0.0
 10
-1.452998247502111
 20
0.2465510775288818
 30
0.0
 10
-1.455936892218573
 20
0.2464952891995727
 30
0.0
 10
-1.457438200333131
 20
0.2464667878053686
 30
0.0
  0
SPLINE
  5
97
330
1F
100
AcDbEntity
  8
0
  6
Continuous
 62
     7
370
    35
100
AcDbSpline
210
0.0
220
0.0
230
1.0
 70
     8
 71
     3
 72
    15
 73
    11
 74
     0
 42
0.000000001
 43
0.00000001
 40
0.0
 40
0.0
 40
0.0
 40
0.0
 40
0.1508330973407528
 40
0.289954183315879
 40
0.4171386481520531
 40
0.5352551839062636
 40
0.6487510952936681
 40
0.7624054615861212
 40
0.8798267012501023
 40
1.0
 40
1.0
 40
1.0
 40
1.0
 10
-1.430304234807188
 20
0.3172966510195821
 30
0.0
 10
-1.429087715733271
 20
0.3159801168415613
 30
0.0
 10
-1.426749138850711
 20
0.3134492758051733
 30
0.0
 10
-1.423709813305996
 20
0.3095272681317695
 30
0.0
 10
-1.421208350070453
 20
0.3056985889291046
 30
0.0
 10
-1.419273170675929
 20
0.3018911953871575
 30
0.0
 10
-1.417811645363741
 20
0.2980501543952027
 30
0.0
 10
-1.416781250657733
 20
0.2940812646312457
 30
0.0
 10
-1.416164140412393
 20
0.2899430536844559
 30
0.0
 10
-1.416095626767189
 20
0.2871192298911553
 30
0.0
 10
-1.416060973147588
 20
0.2856909638098103
 30
0.0
  0
SPLINE
  5
98
330
1F
100
AcDbEntity
  8
0
  6
Continuous
 62
     7
370
    35
100
AcDbSpline
210
0.0
220
0.0
230
1.0
 70
     8
 71
     3
 72
    15
 73
    11
 74
     0
 42
0.000000001
 43
0.00000001
 40
0.0
 40
0.0
 40
0.0
 40
0.0
 40
0.1929527021649359
 40
0.3661841413840547
 40
0.5204572982944613
 40
0.6550121351900113
 40
0.7706242255759989
 40
0.865677184679371
 40
0.9426745273198698
 40
1.0
 40
1.0
 40
1.0
 40
1.0
 10
-1.448053105441147
 20
0.3331961058954149
 30
0.0
 10
-1.446893985343981
 20
0.3321929459178308
 30
0.0
 10
-1.444694216215177
 20
0.330289156694146
 30
0.0
 10
-1.441564381579079
 20
0.327587033563017
 30
0.0
 10
-1.438813778202591
 20
0.3251559992684442
 30
0.0
 10
-1.436402336071437
 20
0.3230325384332531
 30
0.0
 10
-1.434366610296105
 20
0.3211943710916365
 30
0.0
 10
-1.432698042678708
 20
0.3196327108249988
 30
0.0
 10
-1.431376254494607
 20
0.3183779602866421
 30
0.0
 10
-1.430624895304314
 20
0.3176200901981641
 30
0.0
 10
-1.430304234807188
 20
0.3172966510195821
 30
0.0
  0
SPLINE
  5
99
330
1F
100
AcDbEntity
  8
0
  6
Continuous
 62
     7
370
    35
100
AcDbSpline
210
0.0
220
0.0
230
1.0
 70
     8
 71
     3
 72
    15
 73
    11
 74
     0
 42
0.000000001
 43
0.00000001
 40
0.0
 40
0.0
 40
0.0
 40
0.0
 40
0.0592341891229427
 40
0.136349280527992
 40
0.233805212061816
 40
0.349411223856893
 40
0.4831791503491679
 40
0.6359668555591115
 40
0.8092433563675888
 40
1.0
 40
1.0
 40
1.0
 40
1.0
 10
-1.466768088784577
 20
0.3509725797496448
 30
0.0
 10
-1.466451190650225
 20
0.3505725107861708
 30
0.0
 10
-1.465721732996476
 20
0.3496516048678331
 30
0.0
 10
-1.464330806652667
 20
0.3481930334449099
 30
0.0
 10
-1.462584095282709
 20
0.3464061557806342
 30
0.0
 10
-1.460414381757292
 20
0.3443524173618374
 30
0.0
 10
-1.457911736849758
 20
0.3419579577229876
 30
0.0
 10
-1.454960159738054
 20
0.33931690398379
 30
0.0
 10
-1.451644609682985
 20
0.336347465779447
 30
0.0
 10
-1.449287993518565
 20
0.3342796565433882
 30
0.0
 10
-1.448053105441147
 20
0.3331961058954149
 30
0.0
  0
SPLINE
  5
9A
330
1F
100
AcDbEntity
  8
0
  6
Continuous
 62
     7
370
    35
100
AcDbSpline
210
0.0
220
0.0
230
1.0
 70
     8
 71
     3
 72
    11
 73
     7
 74
     0
 42
0.000000001
 43
0.00000001
 40
0.0
 40
0.0
 40
0.0
 40
0.0
 40
0.2418813747501841
 40
0.4871154746783598
 40
0.7378378396463995
 40
1.0
 40
1.0
 40
1.0
 40
1.0
 10
-1.469059156067031
 20
0.3575697493943045
 30
0.0
 10
-1.469034813660739
 20
0.3569962065774571
 30
0.0
 10
-1.468985791437312
 20
0.3558411710491302
 30
0.0
 10
-1.468512303490057
 20
0.354148322634565
 30
0.0
 10
-1.467798621955399
 20
0.3524942126710939
 30
0.0
 10
-1.467116670111833
 20
0.3514872772270035
 30
0.0
 10
-1.466768088784576
 20
0.3509725797496448
 30
0.0
  0
SPLINE
  5
9B
330
1F
100
AcDbEntity
  8
0
  6
Continuous
 62
     7
370
    35
100
AcDbSpline
210
0.0
220
0.0
230
1.0
 70
     8
 71
     3
 72
    15
 73
    11
 74
     0
 42
0.000000001
 43
0.00000001
 40
0.0
 40
0.0
 40
0.0
 40
0.0
 40
0.1481262583591642
 40
0.2859928874897015
 40
0.416634393560616
 40
0.5473799458012579
 40
0.6715828376102049
 40
0.7844007386959864
 40
0.8932655763009628
 40
1.0
 40
1.0
 40
1.0
 40
1.0
 10
-1.457907455077732
 20
0.3665960024227722
 30
0.0
 10
-1.458692451242714
 20
0.3665684726628455
 30
0.0
 10
-1.460208072594244
 20
0.3665153199293562
 30
0.0
 10
-1.462368703271536
 20
0.3659869857201216
 30
0.0
 10
-1.464286941957392
 20
0.3650751584627457
 30
0.0
 10
-1.46596091653555
 20
0.3638828676148863
 30
0.0
 10
-1.467286951376166
 20
0.3624464335599994
 30
0.0
 10
-1.468345687365243
 20
0.360939983574827
 30
0.0
 10
-1.468941844691867
 20
0.3592772034832251
 30
0.0
 10
-1.469020310725683
 20
0.3581351390406636
 30
0.0
 10
-1.469059156067031
 20
0.3575697493943045
 30
0.0
  0
SPLINE
  5
9C
330
1F
100
AcDbEntity
  8
0
  6
Continuous
 62
     7
370
    35
100
AcDbSpline
210
0.0
220
0.0
230
1.0
 70
     8
 71
     3
 72
    15
 73
    11
 74
     0
 42
0.000000001
 43
0.00000001
 40
0.0
 40
0.0
 40
0.0
 40
0.0
 40
0.1624203072014384
 40
0.3118243397330437
 40
0.4484327667925786
 40
0.5733811968860484
 40
0.6890771468735473
 40
0.797572900501246
 40
0.9002930430775752
 40
0.9999999999999999
 40
0.9999999999999999
 40
0.9999999999999999
 40
0.9999999999999999
 10
-1.438088342923481
 20
0.3524631536442541
 30
0.0
 10
-1.438880553333067
 20
0.3535806487856852
 30
0.0
 10
-1.44040148684289
 20
0.3557260836185322
 30
0.0
 10
-1.442866761422496
 20
0.3585988714259647
 30
0.0
 10
-1.445320904023765
 20
0.3610495732160749
 30
0.0
 10
-1.447786650785431
 20
0.3630679510887483
 30
0.0
 10
-1.450285857148395
 20
0.3646417418969659
 30
0.0
 10
-1.452814184855588
 20
0.365756003174572
 30
0.0
 10
-1.455357300109928
 20
0.3664643496429725
 30
0.0
 10
-1.457065880994584
 20
0.3665525558209567
 30
0.0
 10
-1.457907455077732
 20
0.3665960024227722
 30
0.0
  0
SPLINE
  5
9E
330
1F
100
AcDbEntity
  8
0
  6
Continuous
 62
     7
370
    35
100
AcDbSpline
210
0.0
220
0.0
230
1.0
 70
     8
 71
     3
 72
    19
 73
    15
 74
     0
 42
0.000000001
 43
0.00000001
 40
0.0
 40
0.0
 40
0.0
 40
0.0
 40
0.1069102197112036
 40
0.212976527606496
 40
0.3197766759577709
 40
0.428556272849195
 40
0.4858568032784258
 40
0.5465586866406897
 40
0.6114314979175165
 40
0.6798209100724945
 40
0.7531585046908277
 40
0.8307528691562646
 40
0.9131330746557001
 40
1.0
 40
1.0
 40
1.0
 40
1.0
 10
-1.457631422875026
 20
0.3913284877851788
 30
0.0
 10
-1.456007884189506
 20
0.3912690952810337
 30
0.0
 10
-1.452773622464006
 20
0.391150779096362
 30
0.0
 10
-1.447991673220885
 20
0.3902255851949708
 30
0.0
 10
-1.443320865131615
 20
0.3887706203293958
 30
0.0
 10
-1.43955704043761
 20
0.3870153652936145
 30
0.0
 10
-1.436562235384401
 20
0.3853150489098929
 30
0.0
 10
-1.434266997064188
 20
0.3837496117679828
 30
0.0
 10
-1.431931468529027
 20
0.3819563193852845
 30
0.0
 10
-1.42953681519006
 20
0.3799295206241669
 30
0.0
 10
-1.427127533414363
 20
0.3776310279341479
 30
0.0
 10
-1.424635115798999
 20
0.375115558743121
 30
0.0
 10
-1.422093524580506
 20
0.3723613735145044
 30
0.0
 10
-1.42044189326678
 20
0.3703937963580262
 30
0.0
 10
-1.419594185342217
 20
0.369383927670097
 30
0.0
  0
SPLINE
  5
9F
330
1F
100
AcDbEntity
  8
0
  6
Continuous
 62
     7
370
    35
100
AcDbSpline
210
0.0
220
0.0
230
1.0
 70
     8
 71
     3
 72
    23
 73
    19
 74
     0
 42
0.000000001
 43
0.00000001
 40
0.0
 40
0.0
 40
0.0
 40
0.0
 40
0.0631728801065217
 40
0.124457359777001
 40
0.1848409152554599
 40
0.2445668214643685
 40
0.3043191726186556
 40
0.3651997864614188
 40
0.4274209827764749
 40
0.4912616890772884
 40
0.5554990019310229
 40
0.6186045181428795
 40
0.6804947639253085
 40
0.7424733052606087
 40
0.8049906647647743
 40
0.8682519711837806
 40
0.9328872172654766
 40
1.0
 40
1.0
 40
1.0
 40
1.0
 10
-1.493791641429438
 20
0.3563828109226713
 30
0.0
 10
-1.49376175188282
 20
0.3575625401502121
 30
0.0
 10
-1.493702866265279
 20
0.3598867334537927
 30
0.0
 10
-1.493177597472877
 20
0.3633041210616251
 30
0.0
 10
-1.4923925632509
 20
0.3666016129628217
 30
0.0
 10
-1.491252468184261
 20
0.3697671784046844
 30
0.0
 10
-1.489772762448025
 20
0.3727968523890655
 30
0.0
 10
-1.487975717308117
 20
0.3757054664452604
 30
0.0
 10
-1.485833428058966
 20
0.3784662503464406
 30
0.0
 10
-1.483419212701104
 20
0.381077373887514
 30
0.0
 10
-1.480759365484166
 20
0.383463643659944
 30
0.0
 10
-1.477916980715074
 20
0.3855697658384929
 30
0.0
 10
-1.474908146542665
 20
0.3873486272551513
 30
0.0
 10
-1.471751269490858
 20
0.3888243219680425
 30
0.0
 10
-1.468426787706119
 20
0.3899538725272633
 30
0.0
 10
-1.464959192493445
 20
0.39075455426512
 30
0.0
 10
-1.461343510221207
 20
0.3912307742289389
 30
0.0
 10
-1.45888420118571
 20
0.3912955108068641
 30
0.0
 10
-1.457631422875026
 20
0.3913284877851788
 30
0.0
  0
SPLINE
  5
A0
330
1F
100
AcDbEntity
  8
0
  6
Continuous
 62
     7
370
    35
100
AcDbSpline
210
0.0
220
0.0
230
1.0
 70
     8
 71
     3
 72
    23
 73
    19
 74
     0
 42
0.000000001
 43
0.00000001
 40
0.0
 40
0.0
 40
0.0
 40
0.0
 40
0.0673762427992625
 40
0.1318365787763089
 40
0.1944610676015854
 40
0.2553459677434129
 40
0.3155883400136107
 40
0.3756274517721971
 40
0.4361378520525413
 40
0.4977786195747118
 40
0.5594703610940509
 40
0.6202777696791127
 40
0.680787688960419
 40
0.7414916215916542
 40
0.8032154362531893
 40
0.8664927627489312
 40
0.9319104429113605
 40
1.0
 40
1.0
 40
1.0
 40
1.0
 10
-1.574172218857258
 20
0.2464667878053686
 30
0.0
 10
-1.576742150508746
 20
0.2465323004883243
 30
0.0
 10
-1.581770792394142
 20
0.2466604905984957
 30
0.0
 10
-1.589140135963485
 20
0.247610292522619
 30
0.0
 10
-1.596140814536213
 20
0.2492026187160614
 30
0.0
 10
-1.602789859452756
 20
0.2514546071527186
 30
0.0
 10
-1.609085156471594
 20
0.2543314168388721
 30
0.0
 10
-1.615025095063755
 20
0.2578582504302437
 30
0.0
 10
-1.620600101368757
 20
0.2620257376860579
 30
0.0
 10
-1.625765140309079
 20
0.2667850316096037
 30
0.0
 10
-1.630437163845046
 20
0.2720412722084008
 30
0.0
 10
-1.634566691603508
 20
0.2776850326127223
 30
0.0
 10
-1.637982637121055
 20
0.283744049837105
 30
0.0
 10
-1.640818970289601
 20
0.2901288128420945
 30
0.0
 10
-1.643036945524553
 20
0.2968684577813189
 30
0.0
 10
-1.644598024081782
 20
0.3039702748980334
 30
0.0
 10
-1.645560729835138
 20
0.3114274069486912
 30
0.0
 10
-1.645666051212704
 20
0.3165208000392831
 30
0.0
 10
-1.645719765798505
 20
0.3191184635574381
 30
0.0
  0
SPLINE
  5
A1
330
1F
100
AcDbEntity
  8
0
  6
Continuous
 62
     7
370
    35
100
AcDbSpline
210
0.0
220
0.0
230
1.0
 70
     8
 71
     3
 72
    23
 73
    19
 74
     0
 42
0.000000001
 43
0.00000001
 40
0.0
 40
0.0
 40
0.0
 40
0.0
 40
0.0777829363133478
 40
0.1518156572691086
 40
0.2225398385800618
 40
0.2902775346822925
 40
0.3546406074863795
 40
0.4157977534850326
 40
0.4747090076698649
 40
0.5304260996200411
 40
0.5855797458252647
 40
0.6409061648040307
 40
0.6979010906656712
 40
0.7554203208806041
 40
0.8145212584872887
 40
0.8744618312159049
 40
0.9366697167404222
 40
1.0
 40
1.0
 40
1.0
 40
1.0
 10
-1.515542979002625
 20
0.2727726567231962
 30
0.0
 10
-1.516778986926765
 20
0.2715793298762341
 30
0.0
 10
-1.519191410065913
 20
0.2692502110720966
 30
0.0
 10
-1.522830483399797
 20
0.2659430797101789
 30
0.0
 10
-1.526464976815949
 20
0.2629712545421289
 30
0.0
 10
-1.530007088524973
 20
0.2602268713390541
 30
0.0
 10
-1.533514842010956
 20
0.2577898806491672
 30
0.0
 10
-1.536987865282448
 20
0.2556578486209114
 30
0.0
 10
-1.540386842197899
 20
0.2537768530802955
 30
0.0
 10
-1.543782353601953
 20
0.2521786160944595
 30
0.0
 10
-1.547195528119067
 20
0.2508215469011948
 30
0.0
 10
-1.550707283594612
 20
0.2496531993988016
 30
0.0
 10
-1.554328355795501
 20
0.2486648194430025
 30
0.0
 10
-1.558080860578387
 20
0.2478673266249564
 30
0.0
 10
-1.561929796865258
 20
0.2472278450463237
 30
0.0
 10
-1.565911185585823
 20
0.2467961986795203
 30
0.0
 10
-1.569999782769476
 20
0.2465060171881284
 30
0.0
 10
-1.572773141581713
 20
0.2464799419764087
 30
0.0
 10
-1.574172218857258
 20
0.2464667878053686
 30
0.0
  0
SPLINE
  5
A3
330
1F
100
AcDbEntity
  8
0
  6
Continuous
 62
     7
370
    35
100
AcDbSpline
210
0.0
220
0.0
230
1.0
 70
     8
 71
     3
 72
    19
 73
    15
 74
     0
 42
0.000000001
 43
0.00000001
 40
0.0
 40
0.0
 40
0.0
 40
0.0
 40
0.1170484290483421
 40
0.2299697259035135
 40
0.3407035076587666
 40
0.4493551469115576
 40
0.505556511520822
 40
0.5653026697757534
 40
0.6282049564765999
 40
0.6947289918311274
 40
0.7650188336519144
 40
0.8395802021957286
 40
0.9177497995909478
 40
1.0
 40
1.0
 40
1.0
 40
1.0
 10
-1.57428263173834
 20
0.2711992731677751
 30
0.0
 10
-1.572439489339373
 20
0.2712525866270002
 30
0.0
 10
-1.568818193814625
 20
0.2713573337107899
 30
0.0
 10
-1.563503421935984
 20
0.272176441073599
 30
0.0
 10
-1.558438973816888
 20
0.2735238263325689
 30
0.0
 10
-1.554392504004556
 20
0.275115010032266
 30
0.0
 10
-1.551222201789101
 20
0.2766863245928685
 30
0.0
 10
-1.548808697579358
 20
0.2781397131825281
 30
0.0
 10
-1.546312946118646
 20
0.2797654878932764
 30
0.0
 10
-1.543776399704397
 20
0.2816250072233009
 30
0.0
 10
-1.541170527221233
 20
0.2836959561949785
 30
0.0
 10
-1.538541328327167
 20
0.2860236924548611
 30
0.0
 10
-1.5358214950636
 20
0.2885315669871008
 30
0.0
 10
-1.534039759252873
 20
0.2903214863087265
 30
0.0
 10
-1.53312623031496
 20
0.2912392110841894
 30
0.0
  0
SPLINE
  5
A4
330
1F
100
AcDbEntity
  8
0
  6
Continuous
 62
     7
370
    35
100
AcDbSpline
210
0.0
220
0.0
230
1.0
 70
     8
 71
     3
 72
    31
 73
    27
 74
     0
 42
0.000000001
 43
0.00000001
 40
0.0
 40
0.0
 40
0.0
 40
0.0
 40
0.0459858533955716
 40
0.0906390618643947
 40
0.1344852733868695
 40
0.177331356125942
 40
0.2192648329782459
 40
0.2607850023581457
 40
0.3023165723378495
 40
0.3434357294037515
 40
0.3841814737656312
 40
0.424375738997743
 40
0.4641811219517821
 40
0.5040119825276098
 40
0.5438224623104068
 40
0.5838024645760231
 40
0.6244185350988855
 40
0.6655475595785368
 40
0.7066749396536343
 40
0.7478269788975753
 40
0.7888951165570477
 40
0.8302193579728127
 40
0.8717069369478646
 40
0.9137338536047372
 40
0.9565878279841887
 40
1.0
 40
1.0
 40
1.0
 40
1.0
 10
-1.620987280436099
 20
0.3191736699979791
 30
0.0
 10
-1.620974000683244
 20
0.3180229498458071
 30
0.0
 10
-1.620947826017524
 20
0.3157548567832706
 30
0.0
 10
-1.620661298012971
 20
0.3123997176566886
 30
0.0
 10
-1.6201999203621
 20
0.3091444395116041
 30
0.0
 10
-1.619532192592533
 20
0.3059939532268794
 30
0.0
 10
-1.618697192452659
 20
0.3029455285628401
 30
0.0
 10
-1.617717547160143
 20
0.2999728669150549
 30
0.0
 10
-1.616488596551358
 20
0.2971170437741372
 30
0.0
 10
-1.615124442832883
 20
0.2943448906081592
 30
0.0
 10
-1.613537947778535
 20
0.2917320490863363
 30
0.0
 10
-1.6118274134405
 20
0.2892404878485192
 30
0.0
 10
-1.609972618224508
 20
0.2868824202797946
 30
0.0
 10
-1.607961548512069
 20
0.284667486232407
 30
0.0
 10
-1.605765900999847
 20
0.2826303001650087
 30
0.0
 10
-1.603442425052065
 20
0.2807096014685819
 30
0.0
 10
-1.600951926844602
 20
0.2789534717372391
 30
0.0
 10
-1.59834614033673
 20
0.2773178389616312
 30
0.0
 10
-1.595602554825949
 20
0.2758969508539038
 30
0.0
 10
-1.592795610148283
 20
0.2746099007341642
 30
0.0
 10
-1.589882747365069
 20
0.2735646246802692
 30
0.0
 10
-1.586899432330228
 20
0.2727220368219531
 30
0.0
 10
-1.583856326360212
 20
0.2720055416876889
 30
0.0
 10
-1.580723665052358
 20
0.2715643736137953
 30
0.0
 10
-1.577528604657088
 20
0.2712302821950549
 30
0.0
 10
-1.575369280118994
 20
0.2712096540027736
 30
0.0
 10
-1.57428263173834
 20
0.2711992731677751
 30
0.0
  0
SPLINE
  5
A5
330
1F
100
AcDbEntity
  8
0
  6
Continuous
 62
     7
370
    35
100
AcDbSpline
210
0.0
220
0.0
230
1.0
 70
     8
 71
     3
 72
    23
 73
    19
 74
     0
 42
0.000000001
 43
0.00000001
 40
0.0
 40
0.0
 40
0.0
 40
0.0
 40
0.064714516540835
 40
0.1277069683294554
 40
0.1888821628171161
 40
0.2491582987223297
 40
0.3096610287488848
 40
0.3702248860571866
 40
0.4323322219725861
 40
0.4957818589938702
 40
0.5593040765204278
 40
0.621860558361525
 40
0.6833215373325061
 40
0.7445229747823343
 40
0.80608837121051
 40
0.8689943146702054
 40
0.933419056808136
 40
1.0
 40
1.0
 40
1.0
 40
1.0
 10
-1.574751886482939
 20
0.3665960024227722
 30
0.0
 10
-1.576345631727885
 20
0.3665518812946386
 30
0.0
 10
-1.579490712374405
 20
0.3664648131094094
 30
0.0
 10
-1.58410851493174
 20
0.3658265174337251
 30
0.0
 10
-1.588525681730623
 20
0.3647410678590885
 30
0.0
 10
-1.592757333432998
 20
0.3632451172786715
 30
0.0
 10
-1.596791018222003
 20
0.3613094366257728
 30
0.0
 10
-1.600635193219122
 20
0.3589355240668514
 30
0.0
 10
-1.604280380770344
 20
0.3561448194085572
 30
0.0
 10
-1.607678430059718
 20
0.3529517618851596
 30
0.0
 10
-1.610786846129669
 20
0.3494631065926173
 30
0.0
 10
-1.613533329651467
 20
0.3457407197177918
 30
0.0
 10
-1.615833950162677
 20
0.3417931290409349
 30
0.0
 10
-1.617722031994248
 20
0.3376603128586504
 30
0.0
 10
-1.619192774754733
 20
0.3333231424520027
 30
0.0
 10
-1.620243069866767
 20
0.3287845377758929
 30
0.0
 10
-1.620850532490765
 20
0.3240390937028929
 30
0.0
 10
-1.620941200358475
 20
0.3208131761817981
 30
0.0
 10
-1.620987280436099
 20
0.3191736699979791
 30
0.0
  0
SPLINE
  5
A6
330
1F
100
AcDbEntity
  8
0
  6
Continuous
 62
     7
370
    35
100
AcDbSpline
210
0.0
220
0.0
230
1.0
 70
     8
 71
     3
 72
    15
 73
    11
 74
     0
 42
0.000000001
 43
0.00000001
 40
0.0
 40
0.0
 40
0.0
 40
0.0
 40
0.139406438181742
 40
0.2723044483741605
 40
0.3995253362717578
 40
0.5228108782578231
 40
0.642662716591871
 40
0.7610226208095243
 40
0.8798007967838056
 40
1.0
 40
1.0
 40
1.0
 40
1.0
 10
-1.53312623031496
 20
0.3465560645063579
 30
0.0
 10
-1.534664615539073
 20
0.3481467574064732
 30
0.0
 10
-1.537669563842055
 20
0.3512538789881458
 30
0.0
 10
-1.542511666399764
 20
0.3553674341411497
 30
0.0
 10
-1.547547276756701
 20
0.3587955257766755
 30
0.0
 10
-1.552678437164808
 20
0.3616826427263404
 30
0.0
 10
-1.557997442325219
 20
0.3638669524632963
 30
0.0
 10
-1.563442790054042
 20
0.365458695761698
 30
0.0
 10
-1.569049250498234
 20
0.366429121487356
 30
0.0
 10
-1.572843487285529
 20
0.3665401553646633
 30
0.0
 10
-1.574751886482939
 20
0.3665960024227722
 30
0.0
  0
SPLINE
  5
A8
330
1F
100
AcDbEntity
  8
0
  6
Continuous
 62
     7
370
    35
100
AcDbSpline
210
0.0
220
0.0
230
1.0
 70
     8
 71
     3
 72
    23
 73
    19
 74
     0
 42
0.000000001
 43
0.00000001
 40
0.0
 40
0.0
 40
0.0
 40
0.0
 40
0.062275778370768
 40
0.1239040620075177
 40
0.185067240768726
 40
0.2468401515202062
 40
0.3084353298497763
 40
0.3702412507091086
 40
0.4325865888798532
 40
0.4959245816612401
 40
0.5593510709509232
 40
0.6219426542010881
 40
0.6843928672351821
 40
0.7469858082645214
 40
0.8094414645316989
 40
0.8725078327139367
 40
0.9357692970662254
 40
1.0
 40
1.0
 40
1.0
 40
1.0
 10
-1.573785773773471
 20
0.3913284877851788
 30
0.0
 10
-1.57239571541778
 20
0.391307665027851
 30
0.0
 10
-1.569630051443704
 20
0.3912662360119059
 30
0.0
 10
-1.565511513688808
 20
0.3909208800873026
 30
0.0
 10
-1.561425914070648
 20
0.3903785021010983
 30
0.0
 10
-1.557387880289596
 20
0.3895601692242989
 30
0.0
 10
-1.553368528200091
 20
0.3885887046871583
 30
0.0
 10
-1.549420676592535
 20
0.3873167058773642
 30
0.0
 10
-1.545482045973056
 20
0.3858988234943335
 30
0.0
 10
-1.541614407913705
 20
0.3842040346197033
 30
0.0
 10
-1.537812363758833
 20
0.3823540194752441
 30
0.0
 10
-1.534164982381066
 20
0.3802551101090036
 30
0.0
 10
-1.530611024584331
 20
0.3780364710594297
 30
0.0
 10
-1.527229243939652
 20
0.3755667935466502
 30
0.0
 10
-1.523956292413523
 20
0.372935657366031
 30
0.0
 10
-1.520809284555727
 20
0.3701307867900116
 30
0.0
 10
-1.517815837200371
 20
0.3671054163913675
 30
0.0
 10
-1.515937315849846
 20
0.3649678136144219
 30
0.0
 10
-1.514990914597213
 20
0.3638908868362589
 30
0.0
  0
SPLINE
  5
A9
330
1F
100
AcDbEntity
  8
0
  6
Continuous
 62
     7
370
    35
100
AcDbSpline
210
0.0
220
0.0
230
1.0
 70
     8
 71
     3
 72
    31
 73
    27
 74
     0
 42
0.000000001
 43
0.00000001
 40
0.0
 40
0.0
 40
0.0
 40
0.0
 40
0.0446633309063712
 40
0.0885118057801451
 40
0.1309255913017769
 40
0.1729040372808869
 40
0.2140001199049668
 40
0.2549850203589829
 40
0.2952912763870581
 40
0.335772441952788
 40
0.3761808205537697
 40
0.4161784084745201
 40
0.456350051444473
 40
0.4965121666444158
 40
0.5370405736377805
 40
0.5781187440077618
 40
0.6197245605548114
 40
0.6624219701988817
 40
0.705298953520902
 40
0.7474300005339106
 40
0.7894329840393827
 40
0.8312674212030606
 40
0.8728250959642283
 40
0.914870110484391
 40
0.9570270028394989
 40
0.9999999999999999
 40
0.9999999999999999
 40
0.9999999999999999
 40
0.9999999999999999
 10
-1.645719765798505
 20
0.3191184635574381
 30
0.0
 10
-1.645697068617878
 20
0.3208126375411178
 30
0.0
 10
-1.645652088353249
 20
0.3241700763070616
 30
0.0
 10
-1.645179341606313
 20
0.3291158556198694
 30
0.0
 10
-1.644520305152245
 20
0.3339371057850614
 30
0.0
 10
-1.643474803744613
 20
0.3385837662498603
 30
0.0
 10
-1.64221455491392
 20
0.3431184361006619
 30
0.0
 10
-1.640647269915161
 20
0.3474918287720863
 30
0.0
 10
-1.638775451919011
 20
0.35171651383505
 30
0.0
 10
-1.636659434027368
 20
0.3557995636662404
 30
0.0
 10
-1.634265604157066
 20
0.3597142299144056
 30
0.0
 10
-1.63159143339849
 20
0.3634268794269326
 30
0.0
 10
-1.628705765334778
 20
0.3669661731745368
 30
0.0
 10
-1.625539262063501
 20
0.3702851558554187
 30
0.0
 10
-1.622137937025948
 20
0.3734129687827498
 30
0.0
 10
-1.618486433629412
 20
0.3763326617390825
 30
0.0
 10
-1.614606713842847
 20
0.3790861064153427
 30
0.0
 10
-1.610488276707399
 20
0.3816022981561608
 30
0.0
 10
-1.606211132482702
 20
0.3838783273265495
 30
0.0
 10
-1.601829227213197
 20
0.385885882261982
 30
0.0
 10
-1.597353326731732
 20
0.3875637358818191
 30
0.0
 10
-1.592802355551044
 20
0.3889554535667923
 30
0.0
 10
-1.58815708587623
 20
0.389994272412767
 30
0.0
 10
-1.583450674460038
 20
0.3907806247664897
 30
0.0
 10
-1.578643075392828
 20
0.3912202007598615
 30
0.0
 10
-1.575415189113845
 20
0.3912921621554274
 30
0.0
 10
-1.573785773773471
 20
0.3913284877851788
 30
0.0
  0
CIRCLE
  5
B4
330
1F
100
AcDbEntity
  8
0
  6
Continuous
 62
     7
370
    35
100
AcDbCircle
 10
-14.4875
 20
1.46875
 30
0.0
 40
0.0749999999999993
  0
CIRCLE
  5
B5
330
1F
100
AcDbEntity
  8
0
  6
Continuous
 62
     7
370
    35
100
AcDbCircle
 10
-13.9625
 20
1.09375
 30
0.0
 40
0.0749999999999993
  0
CIRCLE
  5
B6
330
1F
100
AcDbEntity
  8
0
  6
Continuous
 62
     7
370
    35
100
AcDbCircle
 10
-1.8875
 20
1.46875
 30
0.0
 40
0.075
  0
CIRCLE
  5
B7
330
1F
100
AcDbEntity
  8
0
  6
Continuous
 62
     7
370
    35
100
AcDbCircle
 10
-2.4125
 20
1.09375
 30
0.0
 40
0.0750000000000002
  0
SPLINE
  5
C4
330
1F
100
AcDbEntity
  8
0
  6
Continuous
 62
     7
370
    35
100
AcDbSpline
210
0.0
220
0.0
230
1.0
 70
     8
 71
     3
 72
    23
 73
    19
 74
     0
 42
0.000000001
 43
0.00000001
 40
0.0
 40
0.0
 40
0.0
 40
0.0
 40
0.0664859378748782
 40
0.1307356009388765
 40
0.1932868395043462
 40
0.2552914267067076
 40
0.3165376028954671
 40
0.3788667103911649
 40
0.4418772064706726
 40
0.5071174914664498
 40
0.5722713919203369
 40
0.6354271335389666
 40
0.6968172524575664
 40
0.7573566333814838
 40
0.8172651168318802
 40
0.8771342994595145
 40
0.9380198203164549
 40
0.9999999999999999
 40
0.9999999999999999
 40
0.9999999999999999
 40
0.9999999999999999
 10
-1.028953412073491
 20
0.2464667878053683
 30
0.0
 10
-1.030446589279525
 20
0.2464972498136967
 30
0.0
 10
-1.033382720220574
 20
0.2465571492314066
 30
0.0
 10
-1.037679014617657
 20
0.2472278648425298
 30
0.0
 10
-1.04179953070363
 20
0.2482375336946585
 30
0.0
 10
-1.045721110512551
 20
0.2496791692731552
 30
0.0
 10
-1.049468141182613
 20
0.2515148187244425
 30
0.0
 10
-1.052996508186206
 20
0.2537862502953868
 30
0.0
 10
-1.05633593312123
 20
0.2564684161762928
 30
0.0
 10
-1.059450812840754
 20
0.2595009718676769
 30
0.0
 10
-1.062257087336784
 20
0.2628227217089211
 30
0.0
 10
-1.064760049642311
 20
0.2662715628821214
 30
0.0
 10
-1.06687755898386
 20
0.2698529073845227
 30
0.0
 10
-1.068591633435563
 20
0.2735629260739742
 30
0.0
 10
-1.069928994075449
 20
0.2773897968089279
 30
0.0
 10
-1.07085952431683
 20
0.281340782680618
 30
0.0
 10
-1.071465850645178
 20
0.2854054036990036
 30
0.0
 10
-1.071536928575459
 20
0.2881638855317746
 30
0.0
 10
-1.071572784171209
 20
0.2895554146476863
 30
0.0
  0
SPLINE
  5
C5
330
1F
100
AcDbEntity
  8
0
  6
Continuous
 62
     7
370
    35
100
AcDbSpline
210
0.0
220
0.0
230
1.0
 70
     8
 71
     3
 72
    23
 73
    19
 74
     0
 42
0.000000001
 43
0.00000001
 40
0.0
 40
0.0
 40
0.0
 40
0.0
 40
0.0656209271532228
 40
0.1297044336027833
 40
0.1920084100512048
 40
0.2531653825181649
 40
0.3145900137962941
 40
0.3765327730011637
 40
0.4392867016490335
 40
0.5037985290657692
 40
0.5682839993040003
 40
0.6306288907425712
 40
0.6915128396476375
 40
0.7519975911628817
 40
0.8123768520713861
 40
0.8735768952802422
 40
0.9360266791627412
 40
1.0
 40
1.0
 40
1.0
 40
1.0
 10
-0.9867756915001014
 20
0.2893621921057923
 30
0.0
 10
-0.9868120171400777
 20
0.2878972842894739
 30
0.0
 10
-0.9868838173532533
 20
0.2850017897142114
 30
0.0
 10
-0.9874773411644532
 20
0.2807490445861893
 30
0.0
 10
-0.9884365068232662
 20
0.2766687843381867
 30
0.0
 10
-0.9898073471587939
 20
0.2727691577564147
 30
0.0
 10
-0.9915497960887983
 20
0.2690311033557058
 30
0.0
 10
-0.9936806931049638
 20
0.2654568146608692
 30
0.0
 10
-0.9962177098598872
 20
0.2620730011585443
 30
0.0
 10
-0.9990952968594805
 20
0.2588976428096508
 30
0.0
 10
-1.002240995864711
 20
0.2560032801984428
 30
0.0
 10
-1.005556733952491
 20
0.2534306022612378
 30
0.0
 10
-1.009070608271946
 20
0.2513054726763629
 30
0.0
 10
-1.012716202484334
 20
0.2495107509226758
 30
0.0
 10
-1.016560634207458
 20
0.2481714997038459
 30
0.0
 10
-1.02054637133876
 20
0.2471605970376501
 30
0.0
 10
-1.024703638871023
 20
0.2465772623129336
 30
0.0
 10
-1.027525485557688
 20
0.2465039073106118
 30
0.0
 10
-1.028953412073491
 20
0.2464667878053683
 30
0.0
  0
SPLINE
  5
C6
330
1F
100
AcDbEntity
  8
0
  6
Continuous
 62
     7
370
    35
100
AcDbSpline
210
0.0
220
0.0
230
1.0
 70
     8
 71
     3
 72
    23
 73
    19
 74
     0
 42
0.000000001
 43
0.00000001
 40
0.0
 40
0.0
 40
0.0
 40
0.0
 40
0.0633287933601141
 40
0.1247364441626568
 40
0.1849157484558911
 40
0.2443004085890911
 40
0.3038255705821006
 40
0.3643529976730647
 40
0.4260731436723965
 40
0.4897209088385831
 40
0.5537559315351894
 40
0.6164580629276263
 40
0.6783188623543003
 40
0.7403009402150831
 40
0.8026562643773391
 40
0.8667321228001683
 40
0.9321567378801843
 40
1.0
 40
1.0
 40
1.0
 40
1.0
 10
-1.028318538007268
 20
0.3330304865737915
 30
0.0
 10
-1.026899766060856
 20
0.3329937538526521
 30
0.0
 10
-1.024105262040119
 20
0.3329214027343655
 30
0.0
 10
-1.019993716408022
 20
0.3323366488986579
 30
0.0
 10
-1.016063002250861
 20
0.33132574972898
 30
0.0
 10
-1.012273486345443
 20
0.32998580561401
 30
0.0
 10
-1.008671491935925
 20
0.3281862473591916
 30
0.0
 10
-1.005199006896595
 20
0.3260455789329327
 30
0.0
 10
-1.00194586617042
 20
0.3234348035356215
 30
0.0
 10
-0.9988374780258776
 20
0.3205422029111694
 30
0.0
 10
-0.9960110366541824
 20
0.3173376171356653
 30
0.0
 10
-0.9935557726278089
 20
0.3138941879198862
 30
0.0
 10
-0.9914160533753938
 20
0.3102956943179166
 30
0.0
 10
-0.9897527217399174
 20
0.3064616292968952
 30
0.0
 10
-0.9884110230540725
 20
0.3024555468453212
 30
0.0
 10
-0.9874429284083122
 20
0.298261432927787
 30
0.0
 10
-0.986890603326584
 20
0.2938671423165947
 30
0.0
 10
-0.9868144561015602
 20
0.2908819016505849
 30
0.0
 10
-0.9867756915001014
 20
0.2893621921057923
 30
0.0
  0
SPLINE
  5
CA
330
1F
100
AcDbEntity
  8
0
  6
Continuous
 62
     7
370
    35
100
AcDbSpline
210
0.0
220
0.0
230
1.0
 70
     8
 71
     3
 72
    19
 73
    15
 74
     0
 42
0.000000001
 43
0.00000001
 40
0.0
 40
0.0
 40
0.0
 40
0.0
 40
0.0925378346593306
 40
0.1855907730267337
 40
0.2795524791599531
 40
0.3756022954876769
 40
0.4276167156194817
 40
0.4871168707665552
 40
0.5541989278073831
 40
0.6286239860240647
 40
0.7096875605186896
 40
0.7991807418287667
 40
0.8953573266116929
 40
0.9999999999999999
 40
0.9999999999999999
 40
0.9999999999999999
 40
0.9999999999999999
 10
-1.071572784171209
 20
0.2895554146476863
 30
0.0
 10
-1.071553838778691
 20
0.2906329911624063
 30
0.0
 10
-1.071515842535795
 20
0.2927941424266281
 30
0.0
 10
-1.07113400300923
 20
0.2960303490062751
 30
0.0
 10
-1.070553472807619
 20
0.2992750503225027
 30
0.0
 10
-1.069880562293706
 20
0.3020130320366637
 30
0.0
 10
-1.06918766702853
 20
0.3043282821138721
 30
0.0
 10
-1.068490262623622
 20
0.3062876156905111
 30
0.0
 10
-1.067625983527118
 20
0.3084620475356109
 30
0.0
 10
-1.066637984494977
 20
0.3108571302648145
 30
0.0
 10
-1.065495196553713
 20
0.3134699826017998
 30
0.0
 10
-1.064203589424919
 20
0.316293482591662
 30
0.0
 10
-1.062759947579932
 20
0.3193490118975224
 30
0.0
 10
-1.061730432112431
 20
0.3214476873989645
 30
0.0
 10
-1.061193973349485
 20
0.3225412628709852
 30
0.0
  0
CIRCLE
  5
CD
330
1F
100
AcDbEntity
  8
0
  6
Continuous
 62
     7
370
    35
100
AcDbCircle
 10
-9.3203847338
 20
2.1170228272
 30
0.0
 40
0.1875000000000018
  0
SPLINE
  5
D7
330
1F
100
AcDbEntity
  8
0
  6
Continuous
 62
     7
370
    35
100
AcDbSpline
210
0.0
220
0.0
230
1.0
 70
     8
 71
     3
 72
    15
 73
    11
 74
     0
 42
0.000000001
 43
0.00000001
 40
0.0
 40
0.0
 40
0.0
 40
0.0
 40
0.0821011604414497
 40
0.1738249811011238
 40
0.2789530937157281
 40
0.3966390953456035
 40
0.5273155915890556
 40
0.6712981430820324
 40
0.8287543799634279
 40
1.0
 40
1.0
 40
1.0
 40
1.0
 10
-1.199955361649505
 20
0.3603300714213587
 30
0.0
 10
-1.200392794463753
 20
0.360551293739018
 30
0.0
 10
-1.201318929371723
 20
0.361019666719126
 30
0.0
 10
-1.202896226910266
 20
0.3615641845540978
 30
0.0
 10
-1.204716404183587
 20
0.3620235453318996
 30
0.0
 10
-1.206791749440167
 20
0.3624048103424846
 30
0.0
 10
-1.209113983530153
 20
0.3627007115858082
 30
0.0
 10
-1.21168269213058
 20
0.3629270020131575
 30
0.0
 10
-1.214501655335833
 20
0.3630180022083829
 30
0.0
 10
-1.216462075573377
 20
0.3630474491121903
 30
0.0
 10
-1.2174834065213
 20
0.3630627902281425
 30
0.0
  0
SPLINE
  5
D8
330
1F
100
AcDbEntity
  8
0
  6
Continuous
 62
     7
370
    35
100
AcDbSpline
210
0.0
220
0.0
230
1.0
 70
     8
 71
     3
 72
    15
 73
    11
 74
     0
 42
0.000000001
 43
0.00000001
 40
0.0
 40
0.0
 40
0.0
 40
0.0
 40
0.137787684851019
 40
0.2673412375379242
 40
0.3904443306690757
 40
0.5117778827581065
 40
0.6295089809480997
 40
0.7478290655177343
 40
0.8718853097298866
 40
1.0
 40
1.0
 40
1.0
 40
1.0
 10
-1.193468604885927
 20
0.3486815124671895
 30
0.0
 10
-1.193490352131758
 20
0.3493268952060254
 30
0.0
 10
-1.193532547017459
 20
0.3505790928917078
 30
0.0
 10
-1.19384252213769
 20
0.3523863247455785
 30
0.0
 10
-1.194336533311855
 20
0.3540710376484369
 30
0.0
 10
-1.195052336512667
 20
0.3556156370044957
 30
0.0
 10
-1.195977700557687
 20
0.357017498292891
 30
0.0
 10
-1.197105906590554
 20
0.3582760692716257
 30
0.0
 10
-1.198422477513043
 20
0.3594183033018384
 30
0.0
 10
-1.199438947239966
 20
0.3600229052214621
 30
0.0
 10
-1.199955361649505
 20
0.3603300714213587
 30
0.0
  0
SPLINE
  5
DC
330
1F
100
AcDbEntity
  8
0
  6
Continuous
 62
     7
370
    35
100
AcDbSpline
210
0.0
220
0.0
230
1.0
 70
     8
 71
     3
 72
    19
 73
    15
 74
     0
 42
0.000000001
 43
0.00000001
 40
0.0
 40
0.0
 40
0.0
 40
0.0
 40
0.1551595916613925
 40
0.2854959537028914
 40
0.390502805529867
 40
0.4709750446262405
 40
0.5384455267337449
 40
0.6036553403941742
 40
0.6665871693156294
 40
0.7301989498864826
 40
0.7949446749029747
 40
0.860228436589803
 40
0.9281207061405509
 40
0.9999999999999999
 40
0.9999999999999999
 40
0.9999999999999999
 40
0.9999999999999999
 10
-1.216517293811832
 20
0.3347970926711064
 30
0.0
 10
-1.214925052986457
 20
0.334807188713731
 30
0.0
 10
-1.211995306213488
 20
0.3348257655821466
 30
0.0
 10
-1.207994306709637
 20
0.3350943978992869
 30
0.0
 10
-1.204779026547462
 20
0.3355046537086703
 30
0.0
 10
-1.202238895511543
 20
0.3360930554167742
 30
0.0
 10
-1.200233221466408
 20
0.336986032922218
 30
0.0
 10
-1.198503453171238
 20
0.3380190397386706
 30
0.0
 10
-1.197019786744175
 20
0.3393252485005453
 30
0.0
 10
-1.195735149991574
 20
0.3408178155094257
 30
0.0
 10
-1.194708121623272
 20
0.342532849811591
 30
0.0
 10
-1.193995930942892
 20
0.344442425402216
 30
0.0
 10
-1.193533305879362
 20
0.346506420053684
 30
0.0
 10
-1.193490578157286
 20
0.3479428237192264
 30
0.0
 10
-1.193468604885927
 20
0.3486815124671895
 30
0.0
  0
SPLINE
  5
DD
330
1F
100
AcDbEntity
  8
0
  6
Continuous
 62
     7
370
    35
100
AcDbSpline
210
0.0
220
0.0
230
1.0
 70
     8
 71
     3
 72
    15
 73
    11
 74
     0
 42
0.000000001
 43
0.00000001
 40
0.0
 40
0.0
 40
0.0
 40
0.0
 40
0.1354037467141839
 40
0.2622251654516491
 40
0.3858490677562564
 40
0.5108573636088608
 40
0.6349774647635297
 40
0.7532990766584834
 40
0.8739320409395678
 40
1.0
 40
1.0
 40
1.0
 40
1.0
 10
-1.011508176862507
 20
0.2907699563395901
 30
0.0
 10
-1.011572878334711
 20
0.2921000887914618
 30
0.0
 10
-1.011698180290272
 20
0.2946760455927231
 30
0.0
 10
-1.012639346456938
 20
0.2983806918564965
 30
0.0
 10
-1.0143197350947
 20
0.3016899948165181
 30
0.0
 10
-1.016551857298589
 20
0.3046130273037172
 30
0.0
 10
-1.019251322467351
 20
0.3070491080028414
 30
0.0
 10
-1.022382448079284
 20
0.3088019401119463
 30
0.0
 10
-1.025835242019117
 20
0.3099016789926073
 30
0.0
 10
-1.02826422757251
 20
0.3100095060348203
 30
0.0
 10
-1.029505476478902
 20
0.3100646073086997
 30
0.0
  0
SPLINE
  5
DE
330
1F
100
AcDbEntity
  8
0
  6
Continuous
 62
     7
370
    35
100
AcDbSpline
210
0.0
220
0.0
230
1.0
 70
     8
 71
     3
 72
    15
 73
    11
 74
     0
 42
0.000000001
 43
0.00000001
 40
0.0
 40
0.0
 40
0.0
 40
0.0
 40
0.1211522424913117
 40
0.2376005895733857
 40
0.3560524880869229
 40
0.480524974488603
 40
0.6076386115432805
 40
0.7334299283789941
 40
0.8621816073824753
 40
1.0
 40
1.0
 40
1.0
 40
1.0
 10
-1.02942266681809
 20
0.2711992731677749
 30
0.0
 10
-1.028228145527694
 20
0.2712690977347604
 30
0.0
 10
-1.02588548180955
 20
0.2714060358379373
 30
0.0
 10
-1.022506035754389
 20
0.2724721500394568
 30
0.0
 10
-1.019418891506574
 20
0.2742534311165052
 30
0.0
 10
-1.01668925883379
 20
0.2766952363874953
 30
0.0
 10
-1.014344556239813
 20
0.2796126681617495
 30
0.0
 10
-1.012722258882199
 20
0.2830301736873394
 30
0.0
 10
-1.011674829568716
 20
0.2867795233738749
 30
0.0
 10
-1.011564973260344
 20
0.2894099891154547
 30
0.0
 10
-1.011508176862507
 20
0.2907699563395901
 30
0.0
  0
SPLINE
  5
DF
330
1F
100
AcDbEntity
  8
0
  6
Continuous
 62
     7
370
    35
100
AcDbSpline
210
0.0
220
0.0
230
1.0
 70
     8
 71
     3
 72
    15
 73
    11
 74
     0
 42
0.000000001
 43
0.00000001
 40
0.0
 40
0.0
 40
0.0
 40
0.0
 40
0.1227180515039713
 40
0.2401431180450296
 40
0.3573623765102141
 40
0.4816738524649454
 40
0.6078658287995975
 40
0.7329554806750176
 40
0.8621444613629464
 40
1.0
 40
1.0
 40
1.0
 40
1.0
 10
-1.029505476478902
 20
0.3100646073086997
 30
0.0
 10
-1.030692216401612
 20
0.310010174055921
 30
0.0
 10
-1.033014510651362
 20
0.3099036553254866
 30
0.0
 10
-1.03631646577391
 20
0.3087881393251518
 30
0.0
 10
-1.039327099679033
 20
0.3070381723546099
 30
0.0
 10
-1.04193675438341
 20
0.3046010049177985
 30
0.0
 10
-1.044119490421748
 20
0.3016884941268595
 30
0.0
 10
-1.045723441445922
 20
0.2983663865372803
 30
0.0
 10
-1.046688307131914
 20
0.2946790147629106
 30
0.0
 10
-1.046788550496907
 20
0.292100865891006
 30
0.0
 10
-1.046840298808803
 20
0.2907699563395901
 30
0.0
  0
SPLINE
  5
E0
330
1F
100
AcDbEntity
  8
0
  6
Continuous
 62
     7
370
    35
100
AcDbSpline
210
0.0
220
0.0
230
1.0
 70
     8
 71
     3
 72
    15
 73
    11
 74
     0
 42
0.000000001
 43
0.00000001
 40
0.0
 40
0.0
 40
0.0
 40
0.0
 40
0.1372849921823503
 40
0.2670284865720541
 40
0.3949256401701781
 40
0.524334761508342
 40
0.6508125264301008
 40
0.7692674670455022
 40
0.8834346835668856
 40
1.0
 40
1.0
 40
1.0
 40
1.0
 10
-1.046840298808803
 20
0.2907699563395901
 30
0.0
 10
-1.046779027186602
 20
0.2894386035911269
 30
0.0
 10
-1.046659849785736
 20
0.2868490335014592
 30
0.0
 10
-1.045658703889514
 20
0.2831265513644629
 30
0.0
 10
-1.044019517418634
 20
0.2797290025659323
 30
0.0
 10
-1.041720662916356
 20
0.2767778946778602
 30
0.0
 10
-1.03902184077365
 20
0.2743282466552932
 30
0.0
 10
-1.036029167123188
 20
0.272516614806414
 30
0.0
 10
-1.032792560836792
 20
0.2714036699149562
 30
0.0
 10
-1.030553721223778
 20
0.271267875871636
 30
0.0
 10
-1.029422666818091
 20
0.2711992731677749
 30
0.0
  0
SPLINE
  5
E1
330
1F
100
AcDbEntity
  8
0
  6
Continuous
 62
     7
370
    35
100
AcDbSpline
210
0.0
220
0.0
230
1.0
 70
     8
 71
     3
 72
    23
 73
    19
 74
     0
 42
0.000000001
 43
0.00000001
 40
0.0
 40
0.0
 40
0.0
 40
0.0
 40
0.1121147956622141
 40
0.2158018426882336
 40
0.3102026923156547
 40
0.3959929252987144
 40
0.4734102307422354
 40
0.5427784203605512
 40
0.6045480222829324
 40
0.6593572656120952
 40
0.7087643617117435
 40
0.7553555059484817
 40
0.7986869938006711
 40
0.8400168391480749
 40
0.880203447006546
 40
0.9197333482458341
 40
0.9590486059010165
 40
1.0
 40
1.0
 40
1.0
 40
1.0
 10
-0.900211992731678
 20
0.3188424313547323
 30
0.0
 10
-0.9002210811461009
 20
0.321014362123312
 30
0.0
 10
-0.9002385747923951
 20
0.3251949580855338
 30
0.0
 10
-0.9005595325458822
 20
0.3311966953839351
 30
0.0
 10
-0.9010064907415379
 20
0.3366782863292378
 30
0.0
 10
-0.9016602615525471
 20
0.3416274927571812
 30
0.0
 10
-0.9025014565294459
 20
0.3460563291760997
 30
0.0
 10
-0.9035382325135296
 20
0.3499645060663114
 30
0.0
 10
-0.9047605142750211
 20
0.3533597256931326
 30
0.0
 10
-0.906209994779758
 20
0.3562386025556494
 30
0.0
 10
-0.9078153844988712
 20
0.3586852529725479
 30
0.0
 10
-0.9095195546920298
 20
0.3607842892506144
 30
0.0
 10
-0.9113297112855323
 20
0.3625763934673446
 30
0.0
 10
-0.9132428271101648
 20
0.3640683096248879
 30
0.0
 10
-0.9153031818973418
 20
0.3652082454644501
 30
0.0
 10
-0.9174714201876275
 20
0.3660131344700753
 30
0.0
 10
-0.919751987032985
 20
0.3665000653256835
 30
0.0
 10
-0.9213076564824426
 20
0.3665635917545093
 30
0.0
 10
-0.9221013464062187
 20
0.3665960024227719
 30
0.0
  0
SPLINE
  5
E2
330
1F
100
AcDbEntity
  8
0
  6
Continuous
 62
     7
370
    35
100
AcDbSpline
210
0.0
220
0.0
230
1.0
 70
     8
 71
     3
 72
    15
 73
    11
 74
     0
 42
0.000000001
 43
0.00000001
 40
0.0
 40
0.0
 40
0.0
 40
0.0
 40
0.0888707311225377
 40
0.1863547159714918
 40
0.2940776543961756
 40
0.4122365279576119
 40
0.5417781444209647
 40
0.6827026066315658
 40
0.8350963526041696
 40
1.0
 40
1.0
 40
1.0
 40
1.0
 10
-0.9070023849182317
 20
0.2806671777205714
 30
0.0
 10
-0.906445096999974
 20
0.281686464140376
 30
0.0
 10
-0.9052765094300338
 20
0.2838238251011449
 30
0.0
 10
-0.9039242178762009
 20
0.2874305420271724
 30
0.0
 10
-0.9027859342169571
 20
0.2914983226117352
 30
0.0
 10
-0.9018062301163404
 20
0.2960398261742527
 30
0.0
 10
-0.9011361722750723
 20
0.3010729649649989
 30
0.0
 10
-0.9005591192795231
 20
0.306565823415417
 30
0.0
 10
-0.900280792280529
 20
0.3125460613380274
 30
0.0
 10
-0.9002355208777947
 20
0.3166891917444181
 30
0.0
 10
-0.900211992731678
 20
0.3188424313547323
 30
0.0
  0
SPLINE
  5
E3
330
1F
100
AcDbEntity
  8
0
  6
Continuous
 62
     7
370
    35
100
AcDbSpline
210
0.0
220
0.0
230
1.0
 70
     8
 71
     3
 72
    15
 73
    11
 74
     0
 42
0.000000001
 43
0.00000001
 40
0.0
 40
0.0
 40
0.0
 40
0.0
 40
0.1240354330026174
 40
0.2428459548115309
 40
0.3603416824496203
 40
0.4790424316556572
 40
0.5993341100427905
 40
0.7254884757708292
 40
0.8585494285274631
 40
0.9999999999999999
 40
0.9999999999999999
 40
0.9999999999999999
 40
0.9999999999999999
 10
-0.9221013464062187
 20
0.2711992731677749
 30
0.0
 10
-0.9213261789508594
 20
0.2712221896280482
 30
0.0
 10
-0.9198084974603505
 20
0.2712670572077485
 30
0.0
 10
-0.9175953779504153
 20
0.271727616882376
 30
0.0
 10
-0.9155024948854265
 20
0.2724763868815949
 30
0.0
 10
-0.913536167332247
 20
0.2735355746132688
 30
0.0
 10
-0.911689362009777
 20
0.2748824938741322
 30
0.0
 10
-0.9099711049652458
 20
0.2765230635982542
 30
0.0
 10
-0.9083943549487971
 20
0.2784736364453085
 30
0.0
 10
-0.9074757332312886
 20
0.2799212499782582
 30
0.0
 10
-0.9070023849182317
 20
0.2806671777205714
 30
0.0
  0
SPLINE
  5
E4
330
1F
100
AcDbEntity
  8
0
  6
Continuous
 62
     7
370
    35
100
AcDbSpline
210
0.0
220
0.0
230
1.0
 70
     8
 71
     3
 72
    23
 73
    19
 74
     0
 42
0.000000001
 43
0.00000001
 40
0.0
 40
0.0
 40
0.0
 40
0.0
 40
0.1107342804863387
 40
0.2123411929916478
 40
0.3055021255634828
 40
0.3898348410859874
 40
0.4666904579461285
 40
0.5352618542933016
 40
0.5967629138889624
 40
0.6510657189836193
 40
0.7010355511102169
 40
0.7478602709077571
 40
0.7918333971357294
 40
0.8342840069087863
 40
0.8753338897746171
 40
0.9160347492783137
 40
0.9576522807232385
 40
1.0
 40
1.0
 40
1.0
 40
1.0
 10
-0.9443771451645468
 20
0.3172690477993114
 30
0.0
 10
-0.9443519191078779
 20
0.3151710262651276
 30
0.0
 10
-0.9443035462738838
 20
0.3111479144199597
 30
0.0
 10
-0.9440501919770745
 20
0.3053625395021024
 30
0.0
 10
-0.9435423643155305
 20
0.3000973824743283
 30
0.0
 10
-0.9429107292369242
 20
0.2953167594184924
 30
0.0
 10
-0.9420235719761557
 20
0.2910516739552454
 30
0.0
 10
-0.9410028401205214
 20
0.2872617744195259
 30
0.0
 10
-0.9397423270383428
 20
0.2839953728293707
 30
0.0
 10
-0.938285561292545
 20
0.2812052296696826
 30
0.0
 10
-0.9366721275904358
 20
0.2788316606809509
 30
0.0
 10
-0.9349206743317751
 20
0.27681411635029
 30
0.0
 10
-0.9330908322242008
 20
0.2750670181465815
 30
0.0
 10
-0.9311254859464507
 20
0.2736478718048795
 30
0.0
 10
-0.9290293242244767
 20
0.2725603034665976
 30
0.0
 10
-0.9268198461544044
 20
0.2717780289920081
 30
0.0
 10
-0.9244956476441735
 20
0.2712991662078712
 30
0.0
 10
-0.9229040604639294
 20
0.2712327633344597
 30
0.0
 10
-0.9221013464062187
 20
0.2711992731677749
 30
0.0
  0
SPLINE
  5
E5
330
1F
100
AcDbEntity
  8
0
  6
Continuous
 62
     7
370
    35
100
AcDbSpline
210
0.0
220
0.0
230
1.0
 70
     8
 71
     3
 72
    27
 73
    23
 74
     0
 42
0.000000001
 43
0.00000001
 40
0.0
 40
0.0
 40
0.0
 40
0.0
 40
0.0538337008959147
 40
0.1055426304091391
 40
0.1580541720958378
 40
0.211987335780405
 40
0.2402068903290475
 40
0.2697935103595451
 40
0.3013430987966748
 40
0.3346080613711938
 40
0.37028444166486
 40
0.4080888380149473
 40
0.4486813458099824
 40
0.4920692965602014
 40
0.5386641566662643
 40
0.5903710538753822
 40
0.6463877841547193
 40
0.707195375763123
 40
0.7729467746818399
 40
0.8436426012467376
 40
0.9193083570571432
 40
1.0
 40
1.0
 40
1.0
 40
1.0
 10
-0.9221013464062187
 20
0.3665960024227719
 30
0.0
 10
-0.9231835844026973
 20
0.3665447064933862
 30
0.0
 10
-0.9253053453623976
 20
0.3664441392422674
 30
0.0
 10
-0.9283841216081822
 20
0.3655904651665202
 30
0.0
 10
-0.9312872153790058
 20
0.3642719195280874
 30
0.0
 10
-0.9334955212721393
 20
0.362685256007771
 30
0.0
 10
-0.9351484162701538
 20
0.3611642487480998
 30
0.0
 10
-0.9363033058575131
 20
0.3597877866433797
 30
0.0
 10
-0.9374170148418274
 20
0.3582517541372914
 30
0.0
 10
-0.9384006987010938
 20
0.3564868379797201
 30
0.0
 10
-0.9393295530416057
 20
0.3545564536950274
 30
0.0
 10
-0.940237323711158
 20
0.3524518384939538
 30
0.0
 10
-0.9409814572920607
 20
0.3501212984752414
 30
0.0
 10
-0.9417125488073951
 20
0.3476045230344643
 30
0.0
 10
-0.942353053191331
 20
0.3448319300173426
 30
0.0
 10
-0.9428896554490268
 20
0.3417808565349782
 30
0.0
 10
-0.9433690623985709
 20
0.3384314611761903
 30
0.0
 10
-0.9437034544632379
 20
0.334781550082664
 30
0.0
 10
-0.9440152082174004
 20
0.3308349419610573
 30
0.0
 10
-0.9442386880717284
 20
0.3265828453003964
 30
0.0
 10
-0.9443321193893716
 20
0.3220264072251988
 30
0.0
 10
-0.9443618183623473
 20
0.3188884559411787
 30
0.0
 10
-0.9443771451645468
 20
0.3172690477993114
 30
0.0
  0
LINE
  5
E6
330
1F
100
AcDbEntity
  8
0
  6
Continuous
 62
     7
370
    35
100
AcDbLine
 10
-0.8648798708
 20
0.262531862
 30
0.0
 11
-0.8240823112
 21
0.3059517275
 31
0.0
  0
LINE
  5
E7
330
1F
100
AcDbEntity
  8
0
  6
Continuous
 62
     7
370
    35
100
AcDbLine
 10
-0.8648798708
 20
0.25
 30
0.0
 11
-0.8648798708
 21
0.262531862
 31
0.0
  0
LINE
  5
E8
330
1F
100
AcDbEntity
  8
0
  6
Continuous
 62
     7
370
    35
100
AcDbLine
 10
-0.7730163537
 20
0.25
 30
0.0
 11
-0.8648798708
 21
0.25
 31
0.0
  0
LINE
  5
E9
330
1F
100
AcDbEntity
  8
0
  6
Continuous
 62
     7
370
    35
100
AcDbLine
 10
-0.7730163537
 20
0.2729658793
 30
0.0
 11
-0.7730163537
 21
0.25
 31
0.0
  0
LINE
  5
EA
330
1F
100
AcDbEntity
  8
0
  6
Continuous
 62
     7
370
    35
100
AcDbLine
 10
-0.8193897638
 20
0.2729658793
 30
0.0
 11
-0.7730163537
 21
0.2729658793
 31
0.0
  0
LINE
  5
EB
330
1F
100
AcDbEntity
  8
0
  6
Continuous
 62
     7
370
    35
100
AcDbLine
 10
-0.805008486
 20
0.2894450018
 30
0.0
 11
-0.8193897638
 21
0.2729658793
 31
0.0
  0
LINE
  5
EC
330
1F
100
AcDbEntity
  8
0
  6
Continuous
 62
     7
370
    35
100
AcDbLine
 10
-0.8366141732
 20
0.3418635171
 30
0.0
 11
-0.8613466586
 21
0.3418635171
 31
0.0
  0
LINE
  5
ED
330
1F
100
AcDbEntity
  8
0
  6
Continuous
 62
     7
370
    35
100
AcDbLine
 10
-1.0963052695
 20
0.3118312134
 30
0.0
 11
-1.0963052695
 21
0.2888653341
 31
0.0
  0
LINE
  5
EE
330
1F
100
AcDbEntity
  8
0
  6
Continuous
 62
     7
370
    35
100
AcDbLine
 10
-1.1440036342
 20
0.3118312134
 30
0.0
 11
-1.0963052695
 21
0.3118312134
 31
0.0
  0
LINE
  5
EF
330
1F
100
AcDbEntity
  8
0
  6
Continuous
 62
     7
370
    35
100
AcDbLine
 10
-1.1440036342
 20
0.2888653341
 30
0.0
 11
-1.1440036342
 21
0.3118312134
 31
0.0
  0
LINE
  5
F0
330
1F
100
AcDbEntity
  8
0
  6
Continuous
 62
     7
370
    35
100
AcDbLine
 10
-1.0963052695
 20
0.2888653341
 30
0.0
 11
-1.1440036342
 21
0.2888653341
 31
0.0
  0
LINE
  5
F1
330
1F
100
AcDbEntity
  8
0
  6
Continuous
 62
     7
370
    35
100
AcDbLine
 10
-1.2252675146
 20
0.3100646073
 30
0.0
 11
-1.2252675146
 21
0.25
 31
0.0
  0
LINE
  5
F2
330
1F
100
AcDbEntity
  8
0
  6
Continuous
 62
     7
370
    35
100
AcDbLine
 10
-1.25
 20
0.3877952756
 30
0.0
 11
-1.2223967797
 21
0.3877952756
 31
0.0
  0
LINE
  5
F3
330
1F
100
AcDbEntity
  8
0
  6
Continuous
 62
     7
370
    35
100
AcDbLine
 10
-1.25
 20
0.25
 30
0.0
 11
-1.25
 21
0.3877952756
 31
0.0
  0
LINE
  5
F4
330
1F
100
AcDbEntity
  8
0
  6
Continuous
 62
     7
370
    35
100
AcDbLine
 10
-1.2252675146
 20
0.25
 30
0.0
 11
-1.25
 21
0.25
 31
0.0
  0
LINE
  5
F5
330
1F
100
AcDbEntity
  8
0
  6
Continuous
 62
     7
370
    35
100
AcDbLine
 10
-1.5008580658
 20
0.275809011
 30
0.0
 11
-1.4791067282
 21
0.2888653341
 31
0.0
  0
LINE
  5
F6
330
1F
100
AcDbEntity
  8
0
  6
Continuous
 62
     7
370
    35
100
AcDbLine
 10
-1.4195941853
 20
0.3693839277
 30
0.0
 11
-1.4380883429
 21
0.3524631536
 31
0.0
  0
LINE
  5
F7
330
1F
100
AcDbEntity
  8
0
  6
Continuous
 62
     7
370
    35
100
AcDbLine
 10
-1.5331262303
 20
0.2912392111
 30
0.0
 11
-1.515542979
 21
0.2727726567
 31
0.0
  0
LINE
  5
F8
330
1F
100
AcDbEntity
  8
0
  6
Continuous
 62
     7
370
    35
100
AcDbLine
 10
-1.5149909146
 20
0.3638908868
 30
0.0
 11
-1.5331262303
 21
0.3465560645
 31
0.0
  0
LINE
  5
F9
330
1F
100
AcDbEntity
  8
0
  6
Continuous
 62
     7
370
    35
100
AcDbLine
 10
-1.6598526146
 20
0.2747324854
 30
0.0
 11
-1.6598526146
 21
0.25
 31
0.0
  0
LINE
  5
FA
330
1F
100
AcDbEntity
  8
0
  6
Continuous
 62
     7
370
    35
100
AcDbLine
 10
-1.6987179487
 20
0.2747324854
 30
0.0
 11
-1.6598526146
 21
0.2747324854
 31
0.0
  0
LINE
  5
FB
330
1F
100
AcDbEntity
  8
0
  6
Continuous
 62
     7
370
    35
100
AcDbLine
 10
-1.6987179487
 20
0.3877952756
 30
0.0
 11
-1.6987179487
 21
0.2747324854
 31
0.0
  0
LINE
  5
FC
330
1F
100
AcDbEntity
  8
0
  6
Continuous
 62
     7
370
    35
100
AcDbLine
 10
-1.7234504341
 20
0.3877952756
 30
0.0
 11
-1.6987179487
 21
0.3877952756
 31
0.0
  0
LINE
  5
FD
330
1F
100
AcDbEntity
  8
0
  6
Continuous
 62
     7
370
    35
100
AcDbLine
 10
-1.7234504341
 20
0.25
 30
0.0
 11
-1.7234504341
 21
0.3877952756
 31
0.0
  0
LINE
  5
FE
330
1F
100
AcDbEntity
  8
0
  6
Continuous
 62
     7
370
    35
100
AcDbLine
 10
-1.6598526146
 20
0.25
 30
0.0
 11
-1.7234504341
 21
0.25
 31
0.0
  0
LINE
  5
FF
330
1F
100
AcDbEntity
  8
0
  6
Continuous
 62
     7
370
    35
100
AcDbLine
 10
0.0
 20
0.0
 30
0.0
 11
-16.375
 21
0.0
 31
0.0
  0
LINE
  5
100
330
1F
100
AcDbEntity
  8
0
  6
Continuous
 62
     7
370
    35
100
AcDbLine
 10
-16.375
 20
0.0
 30
0.0
 11
-16.375
 21
3.0875
 31
0.0
  0
LINE
  5
101
330
1F
100
AcDbEntity
  8
0
  6
Continuous
 62
     7
370
    35
100
AcDbLine
 10
-16.375
 20
3.0875
 30
0.0
 11
0.0
 21
3.0875
 31
0.0
  0
LINE
  5
102
330
1F
100
AcDbEntity
  8
0
  6
Continuous
 62
     7
370
    35
100
AcDbLine
 10
0.0
 20
3.0875
 30
0.0
 11
0.0
 21
0.0
 31
0.0
  0
LINE
  5
103
330
1F
100
AcDbEntity
  8
0
  6
Continuous
 62
     7
370
    35
100
AcDbLine
 10
-15.325
 20
1.904616461
 30
0.0
 11
-15.325
 21
1.595383539
 31
0.0
  0
LINE
  5
104
330
1F
100
AcDbEntity
  8
0
  6
Continuous
 62
     7
370
    35
100
AcDbLine
 10
-15.925
 20
1.595383539
 30
0.0
 11
-15.925
 21
1.904616461
 31
0.0
  0
LINE
  5
105
330
1F
100
AcDbEntity
  8
0
  6
Continuous
 62
     7
370
    35
100
AcDbLine
 10
-1.3674793055
 20
0.2782656976
 30
0.0
 11
-1.3781893549
 21
0.25
 31
0.0
  0
LINE
  5
106
330
1F
100
AcDbEntity
  8
0
  6
Continuous
 62
     7
370
    35
100
AcDbLine
 10
-1.3074423014
 20
0.2782656976
 30
0.0
 11
-1.3674793055
 21
0.2782656976
 31
0.0
  0
LINE
  5
107
330
1F
100
AcDbEntity
  8
0
  6
Continuous
 62
     7
370
    35
100
AcDbLine
 10
-1.2967322519
 20
0.25
 30
0.0
 11
-1.3074423014
 21
0.2782656976
 31
0.0
  0
LINE
  5
108
330
1F
100
AcDbEntity
  8
0
  6
Continuous
 62
     7
370
    35
100
AcDbLine
 10
-1.2703159701
 20
0.25
 30
0.0
 11
-1.2967322519
 21
0.25
 31
0.0
  0
LINE
  5
109
330
1F
100
AcDbEntity
  8
0
  6
Continuous
 62
     7
370
    35
100
AcDbLine
 10
-1.3259640622
 20
0.3877952756
 30
0.0
 11
-1.2703159701
 21
0.25
 31
0.0
  0
LINE
  5
10A
330
1F
100
AcDbEntity
  8
0
  6
Continuous
 62
     7
370
    35
100
AcDbLine
 10
-1.3489023382
 20
0.3877952756
 30
0.0
 11
-1.3259640622
 21
0.3877952756
 31
0.0
  0
LINE
  5
10B
330
1F
100
AcDbEntity
  8
0
  6
Continuous
 62
     7
370
    35
100
AcDbLine
 10
-1.4045780335
 20
0.25
 30
0.0
 11
-1.3489023382
 21
0.3877952756
 31
0.0
  0
LINE
  5
10C
330
1F
100
AcDbEntity
  8
0
  6
Continuous
 62
     7
370
    35
100
AcDbLine
 10
-1.3781893549
 20
0.25
 30
0.0
 11
-1.4045780335
 21
0.25
 31
0.0
  0
LINE
  5
10D
330
1F
100
AcDbEntity
  8
0
  6
Continuous
 62
     7
370
    35
100
AcDbLine
 10
-1.0043037364
 20
0.3802319932
 30
0.0
 11
-1.028318538
 21
0.3330304866
 31
0.0
  0
LINE
  5
10E
330
1F
100
AcDbEntity
  8
0
  6
Continuous
 62
     7
370
    35
100
AcDbLine
 10
-1.02619309
 20
0.3913284878
 30
0.0
 11
-1.0043037364
 21
0.3802319932
 31
0.0
  0
LINE
  5
10F
330
1F
100
AcDbEntity
  8
0
  6
Continuous
 62
     7
370
    35
100
AcDbLine
 10
-1.0611939733
 20
0.3225412629
 30
0.0
 11
-1.02619309
 21
0.3913284878
 31
0.0
  0
LINE
  5
110
330
1F
100
AcDbEntity
  8
0
  6
Continuous
 62
     7
370
    35
100
AcDbLine
 10
-7.1426922888
 20
1.758920982
 30
0.0
 11
-7.6462690839
 21
0.67899706
 31
0.0
  0
LINE
  5
111
330
1F
100
AcDbEntity
  8
0
  6
Continuous
 62
     7
370
    35
100
AcDbLine
 10
-7.27774706
 20
2.1299809161
 30
0.0
 11
-7.1426922888
 21
1.758920982
 31
0.0
  0
LINE
  5
112
330
1F
100
AcDbEntity
  8
0
  6
Continuous
 62
     7
370
    35
100
AcDbLine
 10
-9.2323077112
 20
1.418579018
 30
0.0
 11
-8.7287309161
 21
2.49850294
 31
0.0
  0
LINE
  5
113
330
1F
100
AcDbEntity
  8
0
  6
Continuous
 62
     7
370
    35
100
AcDbLine
 10
-7.6462690839
 20
0.67899706
 30
0.0
 11
-8.017329018
 21
0.5439422888
 31
0.0
  0
LINE
  5
114
330
1F
100
AcDbEntity
  8
0
  6
Continuous
 62
     7
370
    35
100
AcDbLine
 10
-8.017329018
 20
0.5439422888
 30
0.0
 11
-9.09725294
 21
1.0475190839
 31
0.0
  0
LINE
  5
115
330
1F
100
AcDbEntity
  8
0
  6
Continuous
 62
     7
370
    35
100
AcDbLine
 10
-9.09725294
 20
1.0475190839
 30
0.0
 11
-9.2323077112
 21
1.418579018
 31
0.0
  0
LINE
  5
116
330
1F
100
AcDbEntity
  8
0
  6
Continuous
 62
     7
370
    35
100
AcDbLine
 10
-8.357670982
 20
2.6335577112
 30
0.0
 11
-7.27774706
 21
2.1299809161
 31
0.0
  0
LINE
  5
117
330
1F
100
AcDbEntity
  8
0
  6
Continuous
 62
     7
370
    35
100
AcDbLine
 10
-8.7287309161
 20
2.49850294
 30
0.0
 11
-8.357670982
 21
2.6335577112
 31
0.0
  0
LINE
  5
118
330
1F
100
AcDbEntity
  8
0
  6
Continuous
 62
     7
370
    35
100
AcDbLine
 10
-1.3374470018
 20
0.3508345636
 30
0.0
 11
-1.3580942106
 21
0.3029981829
 31
0.0
  0
LINE
  5
119
330
1F
100
AcDbEntity
  8
0
  6
Continuous
 62
     7
370
    35
100
AcDbLine
 10
-1.3167997931
 20
0.3029981829
 30
0.0
 11
-1.3374470018
 21
0.3508345636
 31
0.0
  0
LINE
  5
11A
330
1F
100
AcDbEntity
  8
0
  6
Continuous
 62
     7
370
    35
100
AcDbLine
 10
-1.3580942106
 20
0.3029981829
 30
0.0
 11
-1.3167997931
 21
0.3029981829
 31
0.0
  0
LINE
  5
11B
330
1F
100
AcDbEntity
  8
0
  6
Continuous
 62
     7
370
    35
100
AcDbLine
 10
-1.2252675146
 20
0.3347970927
 30
0.0
 11
-1.2165172938
 21
0.3347970927
 31
0.0
  0
LINE
  5
11C
330
1F
100
AcDbEntity
  8
0
  6
Continuous
 62
     7
370
    35
100
AcDbLine
 10
-1.2252675146
 20
0.3630627902
 30
0.0
 11
-1.2252675146
 21
0.3347970927
 31
0.0
  0
LINE
  5
11D
330
1F
100
AcDbEntity
  8
0
  6
Continuous
 62
     7
370
    35
100
AcDbLine
 10
-1.2174834065
 20
0.3630627902
 30
0.0
 11
-1.2252675146
 21
0.3630627902
 31
0.0
  0
ARC
  5
11E
330
1F
100
AcDbEntity
  8
0
  6
Continuous
 62
     7
370
    35
100
AcDbCircle
 10
-15.625
 20
1.75
 30
0.0
 40
0.3375000000000005
100
AcDbArc
 50
207.2660444507
 51
332.7339555493
  0
ARC
  5
11F
330
1F
100
AcDbEntity
  8
0
  6
Continuous
 62
     7
370
    35
100
AcDbCircle
 10
-15.625
 20
1.75
 30
0.0
 40
0.3375000000000001
100
AcDbArc
 50
27.2660444507
 51
152.7339555493
  0
MTEXT
  5
121
330
1F
100
AcDbEntity
  8
0
  6
Continuous
 62
     7
100
AcDbMText
 10
-16.375
 20
-0.0401404091
 30
0.0
 40
0.1903
 41
0.0
 71
     1
 72
     1
  1
SOLIDWORKS Educational Product.
  7
SLDTEXTSTYLE0
 73
     1
 44
1.0
  0
MTEXT
  5
122
330
1F
100
AcDbEntity
  8
0
  6
Continuous
 62
     7
100
AcDbMText
 10
-16.375
 20
-0.3255904091
 30
0.0
 40
0.1903
 41
0.0
 71
     1
 72
     1
  1
For Instructional Use Only.
  7
SLDTEXTSTYLE0
 73
     1
 44
1.0
  0
ENDSEC
  0
SECTION
  2
OBJECTS
  0
DICTIONARY
  5
C
330
0
100
AcDbDictionary
281
     1
  3
ACAD_GROUP
350
D
  3
ACAD_LAYOUT
350
1A
  3
ACAD_MLINESTYLE
350
17
  3
ACAD_PLOTSETTINGS
350
19
  3
ACAD_PLOTSTYLENAME
350
E
  3
ACAD_SCALELIST
350
47
  0
DICTIONARY
  5
D
102
{ACAD_REACTORS
330
C
102
}
330
C
100
AcDbDictionary
281
     1
  0
DICTIONARY
  5
1A
102
{ACAD_REACTORS
330
C
102
}
330
C
100
AcDbDictionary
281
     1
  3
Layout1
350
1E
  3
Layout2
350
26
  3
Model
350
22
  0
DICTIONARY
  5
17
102
{ACAD_REACTORS
330
C
102
}
330
C
100
AcDbDictionary
281
     1
  3
Standard
350
18
  0
DICTIONARY
  5
19
102
{ACAD_REACTORS
330
C
102
}
330
C
100
AcDbDictionary
281
     1
  0
ACDBDICTIONARYWDFLT
  5
E
102
{ACAD_REACTORS
330
C
102
}
330
C
100
AcDbDictionary
281
     1
  3
Normal
350
F
100
AcDbDictionaryWithDefault
340
F
  0
DICTIONARY
  5
47
102
{ACAD_REACTORS
330
C
102
}
330
C
100
AcDbDictionary
281
     1
  3
A0
350
48
  3
A1
350
49
  3
A2
350
4A
  3
A3
350
4B
  3
A4
350
4C
  3
A5
350
4D
  3
A6
350
4E
  3
A7
350
4F
  3
A8
350
50
  3
A9
350
51
  3
B0
350
52
  3
B1
350
53
  3
B2
350
54
  3
B3
350
55
  3
B4
350
56
  3
B5
350
57
  3
B6
350
58
  3
B7
350
59
  3
B8
350
5A
  3
B9
350
5B
  3
C0
350
5C
  3
C1
350
5D
  3
C2
350
5E
  3
C3
350
5F
  3
C4
350
60
  3
C5
350
61
  3
C6
350
62
  3
C7
350
63
  3
C8
350
64
  3
C9
350
65
  3
D0
350
66
  3
D1
350
67
  3
D2
350
68
  0
LAYOUT
  5
1E
102
{ACAD_REACTORS
330
1A
102
}
330
1A
100
AcDbPlotSettings
  1

  2
none_device
  4

  6

 40
0.0
 41
0.0
 42
0.0
 43
0.0
 44
0.0
 45
0.0
 46
0.0
 47
0.0
 48
0.0
 49
0.0
140
0.0
141
0.0
142
1.0
143
1.0
 70
   688
 72
     0
 73
     0
 74
     5
  7

 75
    16
147
1.0
148
0.0
149
0.0
100
AcDbLayout
  1
Layout1
 70
     1
 71
     1
 10
0.0
 20
0.0
 11
12.0
 21
9.0
 12
0.0
 22
0.0
 32
0.0
 14
1.0000000000E+20
 24
1.0000000000E+20
 34
1.0000000000E+20
 15
-1.0000000000E+20
 25
-1.0000000000E+20
 35
-1.0000000000E+20
146
0.0
 13
0.0
 23
0.0
 33
0.0
 16
1.0
 26
0.0
 36
0.0
 17
0.0
 27
1.0
 37
0.0
 76
     0
330
1B
  0
LAYOUT
  5
26
102
{ACAD_REACTORS
330
1A
102
}
330
1A
100
AcDbPlotSettings
  1

  2
none_device
  4

  6

 40
0.0
 41
0.0
 42
0.0
 43
0.0
 44
0.0
 45
0.0
 46
0.0
 47
0.0
 48
0.0
 49
0.0
140
0.0
141
0.0
142
1.0
143
1.0
 70
   688
 72
     0
 73
     0
 74
     5
  7

 75
    16
147
1.0
148
0.0
149
0.0
100
AcDbLayout
  1
Layout2
 70
     1
 71
     2
 10
0.0
 20
0.0
 11
0.0
 21
0.0
 12
0.0
 22
0.0
 32
0.0
 14
0.0
 24
0.0
 34
0.0
 15
0.0
 25
0.0
 35
0.0
146
0.0
 13
0.0
 23
0.0
 33
0.0
 16
1.0
 26
0.0
 36
0.0
 17
0.0
 27
1.0
 37
0.0
 76
     0
330
23
  0
LAYOUT
  5
22
102
{ACAD_REACTORS
330
1A
102
}
330
1A
100
AcDbPlotSettings
  1

  2
none_device
  4
ANSI_A_(11.00_x_8.50_Inches)
  6

 40
6.35
 41
19.05
 42
6.35000508
 43
19.05000254
 44
279.4
 45
215.9
 46
271.65299746
 47
62.8230208674
 48
0.0
 49
0.0
140
0.0
141
0.0
142
0.6650381679
143
1.0
 70
  1696
 72
     0
 73
     0
 74
     0
  7

 75
     0
147
0.5913241897
148
-39.4088153714
149
0.0
100
AcDbLayout
  1
Model
 70
     1
 71
     0
 10
0.0
 20
0.0
 11
12.0
 21
9.0
 12
0.0
 22
0.0
 32
0.0
 14
-16.375
 24
0.0
 34
0.0
 15
0.0
 25
3.0875
 35
0.0
146
0.0
 13
0.0
 23
0.0
 33
0.0
 16
1.0
 26
0.0
 36
0.0
 17
0.0
 27
1.0
 37
0.0
 76
     0
330
1F
331
29
  0
MLINESTYLE
  5
18
102
{ACAD_REACTORS
330
17
102
}
330
17
100
AcDbMlineStyle
  2
Standard
 70
     0
  3

 62
   256
 51
90.0
 52
90.0
 71
     2
 49
0.5
 62
   256
  6
BYLAYER
 49
-0.5
 62
   256
  6
BYLAYER
  0
ACDBPLACEHOLDER
  5
F
102
{ACAD_REACTORS
330
E
102
}
330
E
  0
SCALE
  5
48
102
{ACAD_REACTORS
330
47
102
}
330
47
100
AcDbScale
 70
     0
300
1:1
140
1.0
141
1.0
290
     1
  0
SCALE
  5
49
102
{ACAD_REACTORS
330
47
102
}
330
47
100
AcDbScale
 70
     0
300
1:2
140
1.0
141
2.0
290
     0
  0
SCALE
  5
4A
102
{ACAD_REACTORS
330
47
102
}
330
47
100
AcDbScale
 70
     0
300
1:4
140
1.0
141
4.0
290
     0
  0
SCALE
  5
4B
102
{ACAD_REACTORS
330
47
102
}
330
47
100
AcDbScale
 70
     0
300
1:5
140
1.0
141
5.0
290
     0
  0
SCALE
  5
4C
102
{ACAD_REACTORS
330
47
102
}
330
47
100
AcDbScale
 70
     0
300
1:8
140
1.0
141
8.0
290
     0
  0
SCALE
  5
4D
102
{ACAD_REACTORS
330
47
102
}
330
47
100
AcDbScale
 70
     0
300
1:10
140
1.0
141
10.0
290
     0
  0
SCALE
  5
4E
102
{ACAD_REACTORS
330
47
102
}
330
47
100
AcDbScale
 70
     0
300
1:16
140
1.0
141
16.0
290
     0
  0
SCALE
  5
4F
102
{ACAD_REACTORS
330
47
102
}
330
47
100
AcDbScale
 70
     0
300
1:20
140
1.0
141
20.0
290
     0
  0
SCALE
  5
50
102
{ACAD_REACTORS
330
47
102
}
330
47
100
AcDbScale
 70
     0
300
1:30
140
1.0
141
30.0
290
     0
  0
SCALE
  5
51
102
{ACAD_REACTORS
330
47
102
}
330
47
100
AcDbScale
 70
     0
300
1:40
140
1.0
141
40.0
290
     0
  0
SCALE
  5
52
102
{ACAD_REACTORS
330
47
102
}
330
47
100
AcDbScale
 70
     0
300
1:50
140
1.0
141
50.0
290
     0
  0
SCALE
  5
53
102
{ACAD_REACTORS
330
47
102
}
330
47
100
AcDbScale
 70
     0
300
1:100
140
1.0
141
100.0
290
     0
  0
SCALE
  5
54
102
{ACAD_REACTORS
330
47
102
}
330
47
100
AcDbScale
 70
     0
300
2:1
140
2.0
141
1.0
290
     0
  0
SCALE
  5
55
102
{ACAD_REACTORS
330
47
102
}
330
47
100
AcDbScale
 70
     0
300
4:1
140
4.0
141
1.0
290
     0
  0
SCALE
  5
56
102
{ACAD_REACTORS
330
47
102
}
330
47
100
AcDbScale
 70
     0
300
8:1
140
8.0
141
1.0
290
     0
  0
SCALE
  5
57
102
{ACAD_REACTORS
330
47
102
}
330
47
100
AcDbScale
 70
     0
300
10:1
140
10.0
141
1.0
290
     0
  0
SCALE
  5
58
102
{ACAD_REACTORS
330
47
102
}
330
47
100
AcDbScale
 70
     0
300
100:1
140
100.0
141
1.0
290
     0
  0
SCALE
  5
59
102
{ACAD_REACTORS
330
47
102
}
330
47
100
AcDbScale
 70
     0
300
1/128" = 1'-0"
140
0.0078125
141
12.0
290
     0
  0
SCALE
  5
5A
102
{ACAD_REACTORS
330
47
102
}
330
47
100
AcDbScale
 70
     0
300
1/64" = 1'-0"
140
0.015625
141
12.0
290
     0
  0
SCALE
  5
5B
102
{ACAD_REACTORS
330
47
102
}
330
47
100
AcDbScale
 70
     0
300
1/32" = 1'-0"
140
0.03125
141
12.0
290
     0
  0
SCALE
  5
5C
102
{ACAD_REACTORS
330
47
102
}
330
47
100
AcDbScale
 70
     0
300
1/16" = 1'-0"
140
0.0625
141
12.0
290
     0
  0
SCALE
  5
5D
102
{ACAD_REACTORS
330
47
102
}
330
47
100
AcDbScale
 70
     0
300
3/32" = 1'-0"
140
0.09375
141
12.0
290
     0
  0
SCALE
  5
5E
102
{ACAD_REACTORS
330
47
102
}
330
47
100
AcDbScale
 70
     0
300
1/8" = 1'-0"
140
0.125
141
12.0
290
     0
  0
SCALE
  5
5F
102
{ACAD_REACTORS
330
47
102
}
330
47
100
AcDbScale
 70
     0
300
3/16" = 1'-0"
140
0.1875
141
12.0
290
     0
  0
SCALE
  5
60
102
{ACAD_REACTORS
330
47
102
}
330
47
100
AcDbScale
 70
     0
300
1/4" = 1'-0"
140
0.25
141
12.0
290
     0
  0
SCALE
  5
61
102
{ACAD_REACTORS
330
47
102
}
330
47
100
AcDbScale
 70
     0
300
3/8" = 1'-0"
140
0.375
141
12.0
290
     0
  0
SCALE
  5
62
102
{ACAD_REACTORS
330
47
102
}
330
47
100
AcDbScale
 70
     0
300
1/2" = 1'-0"
140
0.5
141
12.0
290
     0
  0
SCALE
  5
63
102
{ACAD_REACTORS
330
47
102
}
330
47
100
AcDbScale
 70
     0
300
3/4" = 1'-0"
140
0.75
141
12.0
290
     0
  0
SCALE
  5
64
102
{ACAD_REACTORS
330
47
102
}
330
47
100
AcDbScale
 70
     0
300
1" = 1'-0"
140
1.0
141
12.0
290
     0
  0
SCALE
  5
65
102
{ACAD_REACTORS
330
47
102
}
330
47
100
AcDbScale
 70
     0
300
1-1/2" = 1'-0"
140
1.5
141
12.0
290
     0
  0
SCALE
  5
66
102
{ACAD_REACTORS
330
47
102
}
330
47
100
AcDbScale
 70
     0
300
3" = 1'-0"
140
3.0
141
12.0
290
     0
  0
SCALE
  5
67
102
{ACAD_REACTORS
330
47
102
}
330
47
100
AcDbScale
 70
     0
300
6" = 1'-0"
140
6.0
141
12.0
290
     0
  0
SCALE
  5
68
102
{ACAD_REACTORS
330
47
102
}
330
47
100
AcDbScale
 70
     0
300
1'-0" = 1'-0"
140
12.0
141
12.0
290
     0
  0
ENDSEC
  0
EOF
