  0
SECTION
  2
HEADER
  9
$ACADVER
  1
AC1015
  9
$ACADMAINTVER
 70
     6
  9
$DWGCODEPAGE
  3
ANSI_1252
  9
$INSBASE
 10
0.0
 20
0.0
 30
0.0
  9
$EXTMIN
 10
0.0
 20
0.0
 30
0.0
  9
$EXTMAX
 10
16.375
 20
2.5125
 30
0.0
  9
$LIMMIN
 10
0.0
 20
0.0
  9
$LIMMAX
 10
12.0
 20
9.0
  9
$ORTHOMODE
 70
     0
  9
$REGENMODE
 70
     1
  9
$FILLMODE
 70
     1
  9
$QTEXTMODE
 70
     0
  9
$MIRRTEXT
 70
     1
  9
$LTSCALE
 40
1.0
  9
$ATTMODE
 70
     1
  9
$TEXTSIZE
 40
0.15
  9
$TRACEWID
 40
0.05
  9
$TEXTSTYLE
  7
Standard
  9
$CLAYER
  8
0
  9
$CELTYPE
  6
ByLayer
  9
$CECOLOR
 62
   256
  9
$CELTSCALE
 40
1.0
  9
$DISPSILH
 70
     0
  9
$DIMSCALE
 40
1.0
  9
$DIMASZ
 40
0.15
  9
$DIMEXO
 40
0.09
  9
$DIMDLI
 40
0.38
  9
$DIMRND
 40
0.0
  9
$DIMDLE
 40
0.0
  9
$DIMEXE
 40
0.125
  9
$DIMTP
 40
0.0
  9
$DIMTM
 40
0.0
  9
$DIMTXT
 40
0.15
  9
$DIMCEN
 40
0.09
  9
$DIMTSZ
 40
0.0
  9
$DIMTOL
 70
     0
  9
$DIMLIM
 70
     0
  9
$DIMTIH
 70
     1
  9
$DIMTOH
 70
     1
  9
$DIMSE1
 70
     0
  9
$DIMSE2
 70
     0
  9
$DIMTAD
 70
     0
  9
$DIMZIN
 70
     0
  9
$DIMBLK
  1

  9
$DIMASO
 70
     1
  9
$DIMSHO
 70
     1
  9
$DIMPOST
  1

  9
$DIMAPOST
  1

  9
$DIMALT
 70
     0
  9
$DIMALTD
 70
     2
  9
$DIMALTF
 40
25.4
  9
$DIMLFAC
 40
1.0
  9
$DIMTOFL
 70
     0
  9
$DIMTVP
 40
0.0
  9
$DIMTIX
 70
     0
  9
$DIMSOXD
 70
     0
  9
$DIMSAH
 70
     0
  9
$DIMBLK1
  1

  9
$DIMBLK2
  1

  9
$DIMSTYLE
  2
Standard
  9
$DIMCLRD
 70
     0
  9
$DIMCLRE
 70
     0
  9
$DIMCLRT
 70
     0
  9
$DIMTFAC
 40
1.0
  9
$DIMGAP
 40
0.09
  9
$DIMJUST
 70
     0
  9
$DIMSD1
 70
     0
  9
$DIMSD2
 70
     0
  9
$DIMTOLJ
 70
     1
  9
$DIMTZIN
 70
     0
  9
$DIMALTZ
 70
     0
  9
$DIMALTTZ
 70
     0
  9
$DIMUPT
 70
     0
  9
$DIMDEC
 70
     4
  9
$DIMTDEC
 70
     4
  9
$DIMALTU
 70
     2
  9
$DIMALTTD
 70
     2
  9
$DIMTXSTY
  7
Standard
  9
$DIMAUNIT
 70
     0
  9
$DIMADEC
 70
     2
  9
$DIMALTRND
 40
0.0
  9
$DIMAZIN
 70
     0
  9
$DIMDSEP
 70
    46
  9
$DIMATFIT
 70
     3
  9
$DIMFRAC
 70
     0
  9
$DIMLDRBLK
  1

  9
$DIMLUNIT
 70
     2
  9
$DIMLWD
 70
    -2
  9
$DIMLWE
 70
    -2
  9
$DIMTMOVE
 70
     0
  9
$LUNITS
 70
     2
  9
$LUPREC
 70
     4
  9
$SKETCHINC
 40
0.1
  9
$FILLETRAD
 40
0.5
  9
$AUNITS
 70
     0
  9
$AUPREC
 70
     2
  9
$MENU
  1
.
  9
$ELEVATION
 40
0.0
  9
$PELEVATION
 40
0.0
  9
$THICKNESS
 40
0.0
  9
$LIMCHECK
 70
     0
  9
$CHAMFERA
 40
0.0
  9
$CHAMFERB
 40
0.0
  9
$CHAMFERC
 40
0.0
  9
$CHAMFERD
 40
0.0
  9
$SKPOLY
 70
     0
  9
$TDCREATE
 40
2458228.462918843
  9
$TDUCREATE
 40
2458228.754585509
  9
$TDUPDATE
 40
2458228.462950093
  9
$TDUUPDATE
 40
2458228.754616759
  9
$TDINDWG
 40
0.0000000116
  9
$TDUSRTIMER
 40
0.0000000116
  9
$USRTIMER
 70
     1
  9
$ANGBASE
 50
0.0
  9
$ANGDIR
 70
     0
  9
$PDMODE
 70
     0
  9
$PDSIZE
 40
-1.0
  9
$PLINEWID
 40
0.0
  9
$SPLFRAME
 70
     0
  9
$SPLINETYPE
 70
     6
  9
$SPLINESEGS
 70
     8
  9
$HANDSEED
  5
112
  9
$SURFTAB1
 70
     6
  9
$SURFTAB2
 70
     6
  9
$SURFTYPE
 70
     6
  9
$SURFU
 70
     6
  9
$SURFV
 70
     6
  9
$UCSBASE
  2

  9
$UCSNAME
  2

  9
$UCSORG
 10
0.0
 20
0.0
 30
0.0
  9
$UCSXDIR
 10
1.0
 20
0.0
 30
0.0
  9
$UCSYDIR
 10
0.0
 20
1.0
 30
0.0
  9
$UCSORTHOREF
  2

  9
$UCSORTHOVIEW
 70
     0
  9
$UCSORGTOP
 10
0.0
 20
0.0
 30
0.0
  9
$UCSORGBOTTOM
 10
0.0
 20
0.0
 30
0.0
  9
$UCSORGLEFT
 10
0.0
 20
0.0
 30
0.0
  9
$UCSORGRIGHT
 10
0.0
 20
0.0
 30
0.0
  9
$UCSORGFRONT
 10
0.0
 20
0.0
 30
0.0
  9
$UCSORGBACK
 10
0.0
 20
0.0
 30
0.0
  9
$PUCSBASE
  2

  9
$PUCSNAME
  2

  9
$PUCSORG
 10
0.0
 20
0.0
 30
0.0
  9
$PUCSXDIR
 10
1.0
 20
0.0
 30
0.0
  9
$PUCSYDIR
 10
0.0
 20
1.0
 30
0.0
  9
$PUCSORTHOREF
  2

  9
$PUCSORTHOVIEW
 70
     0
  9
$PUCSORGTOP
 10
0.0
 20
0.0
 30
0.0
  9
$PUCSORGBOTTOM
 10
0.0
 20
0.0
 30
0.0
  9
$PUCSORGLEFT
 10
0.0
 20
0.0
 30
0.0
  9
$PUCSORGRIGHT
 10
0.0
 20
0.0
 30
0.0
  9
$PUCSORGFRONT
 10
0.0
 20
0.0
 30
0.0
  9
$PUCSORGBACK
 10
0.0
 20
0.0
 30
0.0
  9
$USERI1
 70
     0
  9
$USERI2
 70
     0
  9
$USERI3
 70
     0
  9
$USERI4
 70
     0
  9
$USERI5
 70
     0
  9
$USERR1
 40
0.0
  9
$USERR2
 40
0.0
  9
$USERR3
 40
0.0
  9
$USERR4
 40
0.0
  9
$USERR5
 40
0.0
  9
$WORLDVIEW
 70
     1
  9
$SHADEDGE
 70
     3
  9
$SHADEDIF
 70
    70
  9
$TILEMODE
 70
     1
  9
$MAXACTVP
 70
    64
  9
$PINSBASE
 10
0.0
 20
0.0
 30
0.0
  9
$PLIMCHECK
 70
     0
  9
$PEXTMIN
 10
1.0000000000E+20
 20
1.0000000000E+20
 30
1.0000000000E+20
  9
$PEXTMAX
 10
-1.0000000000E+20
 20
-1.0000000000E+20
 30
-1.0000000000E+20
  9
$PLIMMIN
 10
0.0
 20
0.0
  9
$PLIMMAX
 10
12.0
 20
9.0
  9
$UNITMODE
 70
     0
  9
$VISRETAIN
 70
     1
  9
$PLINEGEN
 70
     0
  9
$PSLTSCALE
 70
     1
  9
$TREEDEPTH
 70
  3020
  9
$CMLSTYLE
  2
Standard
  9
$CMLJUST
 70
     0
  9
$CMLSCALE
 40
1.0
  9
$PROXYGRAPHICS
 70
     1
  9
$MEASUREMENT
 70
     0
  9
$CELWEIGHT
370
    -1
  9
$ENDCAPS
280
     0
  9
$JOINSTYLE
280
     0
  9
$LWDISPLAY
290
     1
  9
$INSUNITS
 70
     1
  9
$HYPERLINKBASE
  1

  9
$STYLESHEET
  1

  9
$XEDIT
290
     1
  9
$CEPSNTYPE
380
     0
  9
$PSTYLEMODE
290
     1
  9
$FINGERPRINTGUID
  2
{4060762A-AC51-48D5-A2AC-B9BABC6E7FC1}
  9
$VERSIONGUID
  2
{FAEB1C32-E019-11D5-929B-00C0DF256EC4}
  9
$EXTNAMES
290
     1
  9
$PSVPSCALE
 40
0.0
  9
$OLESTARTUP
290
     0
  0
ENDSEC
  0
SECTION
  2
CLASSES
  0
CLASS
  1
ACDBDICTIONARYWDFLT
  2
AcDbDictionaryWithDefault
  3
ObjectDBX Classes
 90
        0
280
     0
281
     0
  0
CLASS
  1
VISUALSTYLE
  2
AcDbVisualStyle
  3
ObjectDBX Classes
 90
     4095
280
     0
281
     0
  0
CLASS
  1
MATERIAL
  2
AcDbMaterial
  3
ObjectDBX Classes
 90
     1153
280
     0
281
     0
  0
CLASS
  1
SCALE
  2
AcDbScale
  3
ObjectDBX Classes
 90
     1153
280
     0
281
     0
  0
CLASS
  1
TABLESTYLE
  2
AcDbTableStyle
  3
ObjectDBX Classes
 90
     4095
280
     0
281
     0
  0
CLASS
  1
MLEADERSTYLE
  2
AcDbMLeaderStyle
  3
ACDB_MLEADERSTYLE_CLASS
 90
     4095
280
     0
281
     0
  0
CLASS
  1
SUN
  2
AcDbSun
  3
SCENEOE
 90
     1153
280
     0
281
     0
  0
CLASS
  1
ACDBPLACEHOLDER
  2
AcDbPlaceHolder
  3
ObjectDBX Classes
 90
        0
280
     0
281
     0
  0
CLASS
  1
LAYOUT
  2
AcDbLayout
  3
ObjectDBX Classes
 90
        0
280
     0
281
     0
  0
ENDSEC
  0
SECTION
  2
TABLES
  0
TABLE
  2
VPORT
  5
8
330
0
100
AcDbSymbolTable
 70
     1
  0
VPORT
  5
29
330
8
100
AcDbSymbolTableRecord
100
AcDbViewportTableRecord
  2
*Active
 70
     0
 10
0.0
 20
0.0
 11
1.0
 21
1.0
 12
8.1875
 22
1.25625
 13
0.0
 23
0.0
 14
0.5
 24
0.5
 15
0.5
 25
0.5
 16
0.0
 26
0.0
 36
1.0
 17
0.0
 27
0.0
 37
0.0
 40
2.56275
 41
6.5174129353
 42
50.0
 43
0.0
 44
0.0
 50
0.0
 51
0.0
 71
     0
 72
   100
 73
     1
 74
     3
 75
     0
 76
     0
 77
     0
 78
     0
281
     0
 65
     1
110
0.0
120
0.0
130
0.0
111
1.0
121
0.0
131
0.0
112
0.0
122
1.0
132
0.0
 79
     0
146
0.0
  0
ENDTAB
  0
TABLE
  2
LTYPE
  5
5
330
0
100
AcDbSymbolTable
 70
     6
  0
LTYPE
  5
14
330
5
100
AcDbSymbolTableRecord
100
AcDbLinetypeTableRecord
  2
ByBlock
 70
     0
  3

 72
    65
 73
     0
 40
0.0
  0
LTYPE
  5
15
330
5
100
AcDbSymbolTableRecord
100
AcDbLinetypeTableRecord
  2
ByLayer
 70
     0
  3

 72
    65
 73
     0
 40
0.0
  0
LTYPE
  5
16
330
5
100
AcDbSymbolTableRecord
100
AcDbLinetypeTableRecord
  2
Continuous
 70
     0
  3
Solid line
 72
    65
 73
     0
 40
0.0
  0
LTYPE
  5
6E
330
5
100
AcDbSymbolTableRecord
100
AcDbLinetypeTableRecord
  2
HIDDEN
 70
     0
  3
Hidden __ __ __ __ __ __ __ __ __ __ __ __ __ __
 72
    65
 73
     2
 40
0.075
 49
0.05
 74
     0
 49
-0.025
 74
     0
  0
LTYPE
  5
6F
330
5
100
AcDbSymbolTableRecord
100
AcDbLinetypeTableRecord
  2
PHANTOM
 70
     0
  3
Phantom ______  __  __  ______  __  __  ______
 72
    65
 73
     6
 40
0.5
 49
0.25
 74
     0
 49
-0.05
 74
     0
 49
0.05
 74
     0
 49
-0.05
 74
     0
 49
0.05
 74
     0
 49
-0.05
 74
     0
  0
LTYPE
  5
70
330
5
100
AcDbSymbolTableRecord
100
AcDbLinetypeTableRecord
  2
CENTER
 70
     0
  3
Center ____ _ ____ _ ____ _ ____ _ ____ _ ____
 72
    65
 73
     4
 40
0.4
 49
0.25
 74
     0
 49
-0.05
 74
     0
 49
0.05
 74
     0
 49
-0.05
 74
     0
  0
LTYPE
  5
71
330
5
100
AcDbSymbolTableRecord
100
AcDbLinetypeTableRecord
  2
CENTERX2
 70
     0
  3
Center (2x) ________  __  ________  __  _____
 72
    65
 73
     4
 40
0.8
 49
0.5
 74
     0
 49
-0.1
 74
     0
 49
0.1
 74
     0
 49
-0.1
 74
     0
  0
LTYPE
  5
72
330
5
100
AcDbSymbolTableRecord
100
AcDbLinetypeTableRecord
  2
DOT2
 70
     0
  3
Dot (.5x) ........................................
 72
    65
 73
     2
 40
0.025
 49
0.0
 74
     0
 49
-0.025
 74
     0
  0
ENDTAB
  0
TABLE
  2
LAYER
  5
2
330
0
100
AcDbSymbolTable
 70
     1
  0
LAYER
  5
10
330
2
100
AcDbSymbolTableRecord
100
AcDbLayerTableRecord
  2
0
 70
     0
 62
     7
  6
Continuous
370
    -3
390
F
  0
ENDTAB
  0
TABLE
  2
STYLE
  5
3
330
0
100
AcDbSymbolTable
 70
     2
  0
STYLE
  5
11
330
3
100
AcDbSymbolTableRecord
100
AcDbTextStyleTableRecord
  2
Standard
 70
     0
 40
0.0
 41
1.0
 50
0.0
 71
     0
 42
0.15
  3
txt
  4

  0
STYLE
  5
10F
330
3
100
AcDbSymbolTableRecord
100
AcDbTextStyleTableRecord
  2
SLDTEXTSTYLE0
 70
     0
 40
0.0
 41
0.7
 50
0.0
 71
     0
 42
0.15
  3
TXT
  4

  0
ENDTAB
  0
TABLE
  2
VIEW
  5
6
330
0
100
AcDbSymbolTable
 70
     0
  0
ENDTAB
  0
TABLE
  2
UCS
  5
7
330
0
100
AcDbSymbolTable
 70
     0
  0
ENDTAB
  0
TABLE
  2
APPID
  5
9
330
0
100
AcDbSymbolTable
 70
     1
  0
APPID
  5
12
330
9
100
AcDbSymbolTableRecord
100
AcDbRegAppTableRecord
  2
ACAD
 70
     0
  0
ENDTAB
  0
TABLE
  2
DIMSTYLE
  5
A
330
0
100
AcDbSymbolTable
 70
     1
100
AcDbDimStyleTable
  0
DIMSTYLE
105
27
330
A
100
AcDbSymbolTableRecord
100
AcDbDimStyleTableRecord
  2
Standard
 70
     0
178
     0
340
11
  0
ENDTAB
  0
TABLE
  2
BLOCK_RECORD
  5
1
330
0
100
AcDbSymbolTable
 70
     1
  0
BLOCK_RECORD
  5
1F
330
1
100
AcDbSymbolTableRecord
100
AcDbBlockTableRecord
  2
*Model_Space
340
22
  0
BLOCK_RECORD
  5
1B
330
1
100
AcDbSymbolTableRecord
100
AcDbBlockTableRecord
  2
*Paper_Space
340
1E
  0
BLOCK_RECORD
  5
23
330
1
100
AcDbSymbolTableRecord
100
AcDbBlockTableRecord
  2
*Paper_Space0
340
26
  0
ENDTAB
  0
ENDSEC
  0
SECTION
  2
BLOCKS
  0
BLOCK
  5
20
330
1F
100
AcDbEntity
  8
0
100
AcDbBlockBegin
  2
*Model_Space
 70
     0
 10
0.0
 20
0.0
 30
0.0
  3
*Model_Space
  1

  0
ENDBLK
  5
21
330
1F
100
AcDbEntity
  8
0
100
AcDbBlockEnd
  0
BLOCK
  5
1C
330
1B
100
AcDbEntity
 67
     1
  8
0
100
AcDbBlockBegin
  2
*Paper_Space
 70
     0
 10
0.0
 20
0.0
 30
0.0
  3
*Paper_Space
  1

  0
ENDBLK
  5
1D
330
1B
100
AcDbEntity
 67
     1
  8
0
100
AcDbBlockEnd
  0
BLOCK
  5
24
330
23
100
AcDbEntity
  8
0
100
AcDbBlockBegin
  2
*Paper_Space0
 70
     0
 10
0.0
 20
0.0
 30
0.0
  3
*Paper_Space0
  1

  0
ENDBLK
  5
25
330
23
100
AcDbEntity
  8
0
100
AcDbBlockEnd
  0
ENDSEC
  0
SECTION
  2
ENTITIES
  0
SPLINE
  5
79
330
1F
100
AcDbEntity
  8
0
  6
Continuous
 62
     7
370
    35
100
AcDbSpline
210
0.0
220
0.0
230
1.0
 70
     8
 71
     3
 72
    23
 73
    19
 74
     0
 42
0.000000001
 43
0.00000001
 40
0.0
 40
0.0
 40
0.0
 40
0.0
 40
0.0631728801065208
 40
0.1244573597769993
 40
0.1848409152554528
 40
0.2445668214643655
 40
0.304319172618656
 40
0.3651997864614235
 40
0.4274209827764609
 40
0.4912616890772893
 40
0.5554990019309983
 40
0.618604518142858
 40
0.6804947639253072
 40
0.7424733052605884
 40
0.8049906647647721
 40
0.8682519711837822
 40
0.932887217265458
 40
1.0
 40
1.0
 40
1.0
 40
1.0
 10
14.88297496466787
 20
0.3563828109226729
 30
0.0
 10
14.88300485421449
 20
0.3575625401502138
 30
0.0
 10
14.88306373983203
 20
0.3598867334537946
 30
0.0
 10
14.88358900862444
 20
0.3633041210616267
 30
0.0
 10
14.8843740428464
 20
0.3666016129628238
 30
0.0
 10
14.88551413791305
 20
0.369767178404686
 30
0.0
 10
14.88699384364929
 20
0.3727968523890673
 30
0.0
 10
14.8887908887892
 20
0.3757054664452615
 30
0.0
 10
14.89093317803834
 20
0.3784662503464435
 30
0.0
 10
14.8933473933962
 20
0.3810773738875145
 30
0.0
 10
14.89600724061315
 20
0.3834636436599466
 30
0.0
 10
14.89884962538224
 20
0.3855697658384951
 30
0.0
 10
14.90185845955464
 20
0.3873486272551523
 30
0.0
 10
14.90501533660646
 20
0.3888243219680446
 30
0.0
 10
14.90833981839119
 20
0.3899538725272649
 30
0.0
 10
14.91180741360386
 20
0.3907545542651215
 30
0.0
 10
14.91542309587611
 20
0.391230774228941
 30
0.0
 10
14.9178824049116
 20
0.3912955108068659
 30
0.0
 10
14.91913518322229
 20
0.3913284877851805
 30
0.0
  0
SPLINE
  5
7A
330
1F
100
AcDbEntity
  8
0
  6
Continuous
 62
     7
370
    35
100
AcDbSpline
210
0.0
220
0.0
230
1.0
 70
     8
 71
     3
 72
    19
 73
    15
 74
     0
 42
0.000000001
 43
0.00000001
 40
0.0
 40
0.0
 40
0.0
 40
0.0
 40
0.1121245812797271
 40
0.2152010090762343
 40
0.3099024524934682
 40
0.3959590963320843
 40
0.4734474940003163
 40
0.5421403275660289
 40
0.6025233330554016
 40
0.6547263328340125
 40
0.7478040553141033
 40
0.8352784168250081
 40
0.9189252427194486
 40
1.0
 40
1.0
 40
1.0
 40
1.0
 10
14.91769981576822
 20
0.3080219690086815
 30
0.0
 10
14.91594591472886
 20
0.3095059374734103
 30
0.0
 10
14.91257964776777
 20
0.3123541221212552
 30
0.0
 10
14.90782268546721
 20
0.3165608011839419
 30
0.0
 10
14.90353623650178
 20
0.3204923282225522
 30
0.0
 10
14.89975732324815
 20
0.3241973055057354
 30
0.0
 10
14.89643779650546
 20
0.3276073106889298
 30
0.0
 10
14.89360013755114
 20
0.330750041138693
 30
0.0
 10
14.89127551935917
 20
0.3336497387220341
 30
0.0
 10
14.8888293599634
 20
0.3370842364662742
 30
0.0
 10
14.88650501945986
 20
0.3412694079568412
 30
0.0
 10
14.88449612967304
 20
0.3463046544304077
 30
0.0
 10
14.88319284676865
 20
0.3513392620058613
 30
0.0
 10
14.88304683204557
 20
0.3547192202300482
 30
0.0
 10
14.88297496466787
 20
0.3563828109226729
 30
0.0
  0
SPLINE
  5
7B
330
1F
100
AcDbEntity
  8
0
  6
Continuous
 62
     7
370
    35
100
AcDbSpline
210
0.0
220
0.0
230
1.0
 70
     8
 71
     3
 72
    19
 73
    15
 74
     0
 42
0.000000001
 43
0.00000001
 40
0.0
 40
0.0
 40
0.0
 40
0.0
 40
0.0763466063531691
 40
0.1550908218146702
 40
0.2383515612585559
 40
0.328404139932978
 40
0.3793838595513654
 40
0.4396176441748176
 40
0.5098314158312993
 40
0.5888746449969539
 40
0.6774363544094311
 40
0.775546719619664
 40
0.8826358717258247
 40
1.0
 40
1.0
 40
1.0
 40
1.0
 10
14.93597314758732
 20
0.2842555963557439
 30
0.0
 10
14.93592777592218
 20
0.2850418862495875
 30
0.0
 10
14.93583560772809
 20
0.2866391588939892
 30
0.0
 10
14.93515672521477
 20
0.2890140464721594
 30
0.0
 10
14.93409542477775
 20
0.2913878540004416
 30
0.0
 10
14.93283983152029
 20
0.2933349151572862
 30
0.0
 10
14.93156210815969
 20
0.2949651366839536
 30
0.0
 10
14.93034031643577
 20
0.2963776498926789
 30
0.0
 10
14.92885249731895
 20
0.2979382297028451
 30
0.0
 10
14.92710242326227
 20
0.2996488392055008
 30
0.0
 10
14.92511321731036
 20
0.3015245373289612
 30
0.0
 10
14.92288320381505
 20
0.3035651403974589
 30
0.0
 10
14.92038684676269
 20
0.3057526731385105
 30
0.0
 10
14.91862241667246
 20
0.3072427988293533
 30
0.0
 10
14.91769981576822
 20
0.3080219690086815
 30
0.0
  0
SPLINE
  5
7C
330
1F
100
AcDbEntity
  8
0
  6
Continuous
 62
     7
370
    35
100
AcDbSpline
210
0.0
220
0.0
230
1.0
 70
     8
 71
     3
 72
    15
 73
    11
 74
     0
 42
0.000000001
 43
0.00000001
 40
0.0
 40
0.0
 40
0.0
 40
0.0
 40
0.1419858925296319
 40
0.2754733105502319
 40
0.4043458426631297
 40
0.5354297108606354
 40
0.6614274010622443
 40
0.777866840462744
 40
0.8882797492818411
 40
1.0
 40
1.0
 40
1.0
 40
1.0
 10
14.92023931203311
 20
0.2711992731677769
 30
0.0
 10
14.92131171403873
 20
0.271242643861423
 30
0.0
 10
14.92339233011589
 20
0.2713267893236709
 30
0.0
 10
14.92636214332033
 20
0.272104015588699
 30
0.0
 10
14.92908498051509
 20
0.2733243178423952
 30
0.0
 10
14.93143858087659
 20
0.2750655208825594
 30
0.0
 10
14.93343146126891
 20
0.2770751338339176
 30
0.0
 10
14.93490232138997
 20
0.2793109201301406
 30
0.0
 10
14.93582632563881
 20
0.281729986932741
 30
0.0
 10
14.93592401529034
 20
0.2834104298566562
 30
0.0
 10
14.93597314758732
 20
0.2842555963557439
 30
0.0
  0
SPLINE
  5
7D
330
1F
100
AcDbEntity
  8
0
  6
Continuous
 62
     7
370
    35
100
AcDbSpline
210
0.0
220
0.0
230
1.0
 70
     8
 71
     3
 72
    15
 73
    11
 74
     0
 42
0.000000001
 43
0.00000001
 40
0.0
 40
0.0
 40
0.0
 40
0.0
 40
0.1604579205559218
 40
0.3076115473748288
 40
0.4421388877557461
 40
0.5662291941703148
 40
0.6812222080152287
 40
0.7895580052435845
 40
0.8950288924050953
 40
1.0
 40
1.0
 40
1.0
 40
1.0
 10
14.8976598778518
 20
0.2888653341409246
 30
0.0
 10
14.89846298063264
 20
0.2874693493458639
 30
0.0
 10
14.90000259730137
 20
0.2847931271847355
 30
0.0
 10
14.90261162168077
 20
0.2811972835220745
 30
0.0
 10
14.90528443396287
 20
0.2781180386460826
 30
0.0
 10
14.90808282717275
 20
0.2756098184074591
 30
0.0
 10
14.91097277389609
 20
0.2736390846776375
 30
0.0
 10
14.91396823324712
 20
0.272230661634064
 30
0.0
 10
14.91707130977789
 20
0.2713588493633451
 30
0.0
 10
14.9191849845397
 20
0.2712523809488732
 30
0.0
 10
14.92023931203311
 20
0.2711992731677769
 30
0.0
  0
SPLINE
  5
7F
330
1F
100
AcDbEntity
  8
0
  6
Continuous
 62
     7
370
    35
100
AcDbSpline
210
0.0
220
0.0
230
1.0
 70
     8
 71
     3
 72
    23
 73
    19
 74
     0
 42
0.000000001
 43
0.00000001
 40
0.0
 40
0.0
 40
0.0
 40
0.0
 40
0.0635514822357625
 40
0.1258683816453682
 40
0.1862402502136788
 40
0.2449766506319478
 40
0.3033576876770548
 40
0.3612303170407841
 40
0.4184890490283365
 40
0.4759367117285627
 40
0.5342037438191164
 40
0.5940594289675243
 40
0.6554686942598784
 40
0.718771684899885
 40
0.7849746072190612
 40
0.8535223163766997
 40
0.9251824507719443
 40
1.0
 40
1.0
 40
1.0
 40
1.0
 10
14.91932840576418
 20
0.2464667878053702
 30
0.0
 10
14.91814989167878
 20
0.2464876954303478
 30
0.0
 10
14.91581575791105
 20
0.2465291045183404
 30
0.0
 10
14.91237559761728
 20
0.2468671752548745
 30
0.0
 10
14.9090537339649
 20
0.2474127854540966
 30
0.0
 10
14.90585390873657
 20
0.2481948078573288
 30
0.0
 10
14.9027617061546
 20
0.2491857363065476
 30
0.0
 10
14.89977699922657
 20
0.2503961174467943
 30
0.0
 10
14.8969203923754
 20
0.2518447117323923
 30
0.0
 10
14.89417027115936
 20
0.2535017303052792
 30
0.0
 10
14.89154000456131
 20
0.2554257471372869
 30
0.0
 10
14.88899633389471
 20
0.2575774263339342
 30
0.0
 10
14.88656452531177
 20
0.2599898616838234
 30
0.0
 10
14.88423289932894
 20
0.2626573478706305
 30
0.0
 10
14.88201637433934
 20
0.2655874385745099
 30
0.0
 10
14.87984239552653
 20
0.2687393268599693
 30
0.0
 10
14.87780758105066
 20
0.2721715074945345
 30
0.0
 10
14.87655058563413
 20
0.2745792099736904
 30
0.0
 10
14.87590854027862
 20
0.2758090109529576
 30
0.0
  0
SPLINE
  5
80
330
1F
100
AcDbEntity
  8
0
  6
Continuous
 62
     7
370
    35
100
AcDbSpline
210
0.0
220
0.0
230
1.0
 70
     8
 71
     3
 72
    23
 73
    19
 74
     0
 42
0.000000001
 43
0.00000001
 40
0.0
 40
0.0
 40
0.0
 40
0.0
 40
0.0652008752881552
 40
0.1279265440230307
 40
0.1890469100189649
 40
0.2485436930694558
 40
0.3076071270223392
 40
0.3672476600602185
 40
0.4269630557213201
 40
0.4886171282353827
 40
0.5503918546271303
 40
0.6113307342255673
 40
0.6725560854310768
 40
0.7340241906291856
 40
0.7973406208369475
 40
0.8622496273165848
 40
0.9296254660747004
 40
1.0
 40
1.0
 40
1.0
 40
1.0
 10
14.96070563294972
 20
0.2856909638098121
 30
0.0
 10
14.96068096739054
 20
0.284299293675034
 30
0.0
 10
14.9606325726454
 20
0.2815687850741078
 30
0.0
 10
14.96003982982419
 20
0.2775730924617525
 30
0.0
 10
14.95919461335129
 20
0.2737490412166045
 30
0.0
 10
14.95788776040735
 20
0.2701382424221259
 30
0.0
 10
14.95629497577859
 20
0.2666814259166475
 30
0.0
 10
14.95429819020378
 20
0.2634324379098561
 30
0.0
 10
14.95195323934478
 20
0.2603583973150345
 30
0.0
 10
14.94926556561066
 20
0.2575142563668161
 30
0.0
 10
14.94629267931418
 20
0.2549333955900128
 30
0.0
 10
14.94310397622312
 20
0.2526358523685767
 30
0.0
 10
14.93966827559365
 20
0.2507389377862795
 30
0.0
 10
14.93601493151051
 20
0.2491769639328487
 30
0.0
 10
14.93214589952596
 20
0.2479739107855894
 30
0.0
 10
14.92806578882339
 20
0.2470847423860998
 30
0.0
 10
14.9237683585952
 20
0.2465510775288837
 30
0.0
 10
14.92082971387874
 20
0.2464952891995744
 30
0.0
 10
14.91932840576418
 20
0.2464667878053702
 30
0.0
  0
SPLINE
  5
81
330
1F
100
AcDbEntity
  8
0
  6
Continuous
 62
     7
370
    35
100
AcDbSpline
210
0.0
220
0.0
230
1.0
 70
     8
 71
     3
 72
    15
 73
    11
 74
     0
 42
0.000000001
 43
0.00000001
 40
0.0
 40
0.0
 40
0.0
 40
0.0
 40
0.1508330973407738
 40
0.2899541833158775
 40
0.4171386481520581
 40
0.5352551839062701
 40
0.6487510952936701
 40
0.7624054615861273
 40
0.8798267012501055
 40
1.0
 40
1.0
 40
1.0
 40
1.0
 10
14.94646237129012
 20
0.3172966510195839
 30
0.0
 10
14.94767889036404
 20
0.3159801168415632
 30
0.0
 10
14.9500174672466
 20
0.3134492758051759
 30
0.0
 10
14.95305679279131
 20
0.3095272681317707
 30
0.0
 10
14.95555825602686
 20
0.3056985889291065
 30
0.0
 10
14.95749343542138
 20
0.3018911953871594
 30
0.0
 10
14.95895496073357
 20
0.2980501543952044
 30
0.0
 10
14.95998535543958
 20
0.2940812646312475
 30
0.0
 10
14.96060246568492
 20
0.2899430536844577
 30
0.0
 10
14.96067097933012
 20
0.2871192298911572
 30
0.0
 10
14.96070563294972
 20
0.2856909638098121
 30
0.0
  0
SPLINE
  5
82
330
1F
100
AcDbEntity
  8
0
  6
Continuous
 62
     7
370
    35
100
AcDbSpline
210
0.0
220
0.0
230
1.0
 70
     8
 71
     3
 72
    15
 73
    11
 74
     0
 42
0.000000001
 43
0.00000001
 40
0.0
 40
0.0
 40
0.0
 40
0.0
 40
0.1929527021649708
 40
0.3661841413840949
 40
0.5204572982944724
 40
0.6550121351900338
 40
0.7706242255760033
 40
0.865677184679423
 40
0.9426745273199109
 40
1.0
 40
1.0
 40
1.0
 40
1.0
 10
14.92871350065616
 20
0.3331961058954167
 30
0.0
 10
14.92987262075333
 20
0.3321929459178325
 30
0.0
 10
14.93207238988214
 20
0.3302891566941476
 30
0.0
 10
14.93520222451823
 20
0.3275870335630192
 30
0.0
 10
14.93795282789472
 20
0.3251559992684455
 30
0.0
 10
14.94036427002587
 20
0.3230325384332553
 30
0.0
 10
14.94239999580121
 20
0.3211943710916373
 30
0.0
 10
14.9440685634186
 20
0.319632710825001
 30
0.0
 10
14.9453903516027
 20
0.3183779602866441
 30
0.0
 10
14.946141710793
 20
0.3176200901981661
 30
0.0
 10
14.94646237129012
 20
0.3172966510195839
 30
0.0
  0
SPLINE
  5
83
330
1F
100
AcDbEntity
  8
0
  6
Continuous
 62
     7
370
    35
100
AcDbSpline
210
0.0
220
0.0
230
1.0
 70
     8
 71
     3
 72
    15
 73
    11
 74
     0
 42
0.000000001
 43
0.00000001
 40
0.0
 40
0.0
 40
0.0
 40
0.0
 40
0.059234189122965
 40
0.1363492805279763
 40
0.2338052120617893
 40
0.3494112238569148
 40
0.4831791503492026
 40
0.6359668555591287
 40
0.8092433563676146
 40
0.9999999999999999
 40
0.9999999999999999
 40
0.9999999999999999
 40
0.9999999999999999
 10
14.90999851731273
 20
0.3509725797496465
 30
0.0
 10
14.91031541544709
 20
0.3505725107861727
 30
0.0
 10
14.91104487310084
 20
0.3496516048678355
 30
0.0
 10
14.91243579944464
 20
0.348193033444911
 30
0.0
 10
14.9141825108146
 20
0.3464061557806354
 30
0.0
 10
14.91635222434002
 20
0.3443524173618396
 30
0.0
 10
14.91885486924755
 20
0.3419579577229896
 30
0.0
 10
14.92180644635926
 20
0.3393169039837917
 30
0.0
 10
14.92512199641432
 20
0.3363474657794488
 30
0.0
 10
14.92747861257874
 20
0.33427965654339
 30
0.0
 10
14.92871350065616
 20
0.3331961058954167
 30
0.0
  0
SPLINE
  5
84
330
1F
100
AcDbEntity
  8
0
  6
Continuous
 62
     7
370
    35
100
AcDbSpline
210
0.0
220
0.0
230
1.0
 70
     8
 71
     3
 72
    11
 73
     7
 74
     0
 42
0.000000001
 43
0.00000001
 40
0.0
 40
0.0
 40
0.0
 40
0.0
 40
0.2418813747502116
 40
0.4871154746783929
 40
0.737837839646414
 40
1.0
 40
1.0
 40
1.0
 40
1.0
 10
14.90770745003028
 20
0.3575697493943063
 30
0.0
 10
14.90773179243657
 20
0.3569962065774589
 30
0.0
 10
14.90778081466
 20
0.355841171049132
 30
0.0
 10
14.90825430260725
 20
0.3541483226345666
 30
0.0
 10
14.90896798414191
 20
0.3524942126710955
 30
0.0
 10
14.90964993598548
 20
0.3514872772270052
 30
0.0
 10
14.90999851731274
 20
0.3509725797496466
 30
0.0
  0
SPLINE
  5
85
330
1F
100
AcDbEntity
  8
0
  6
Continuous
 62
     7
370
    35
100
AcDbSpline
210
0.0
220
0.0
230
1.0
 70
     8
 71
     3
 72
    15
 73
    11
 74
     0
 42
0.000000001
 43
0.00000001
 40
0.0
 40
0.0
 40
0.0
 40
0.0
 40
0.1481262583591735
 40
0.2859928874897382
 40
0.4166343935606149
 40
0.5473799458012806
 40
0.6715828376102565
 40
0.7844007386960228
 40
0.8932655763009647
 40
1.0
 40
1.0
 40
1.0
 40
1.0
 10
14.91885915101958
 20
0.366596002422774
 30
0.0
 10
14.9180741548546
 20
0.3665684726628472
 30
0.0
 10
14.91655853350307
 20
0.3665153199293578
 30
0.0
 10
14.91439790282578
 20
0.3659869857201238
 30
0.0
 10
14.91247966413992
 20
0.3650751584627472
 30
0.0
 10
14.91080568956176
 20
0.3638828676148878
 30
0.0
 10
14.90947965472114
 20
0.3624464335600017
 30
0.0
 10
14.90842091873206
 20
0.3609399835748289
 30
0.0
 10
14.90782476140544
 20
0.3592772034832263
 30
0.0
 10
14.90774629537163
 20
0.3581351390406653
 30
0.0
 10
14.90770745003028
 20
0.3575697493943063
 30
0.0
  0
SPLINE
  5
86
330
1F
100
AcDbEntity
  8
0
  6
Continuous
 62
     7
370
    35
100
AcDbSpline
210
0.0
220
0.0
230
1.0
 70
     8
 71
     3
 72
    15
 73
    11
 74
     0
 42
0.000000001
 43
0.00000001
 40
0.0
 40
0.0
 40
0.0
 40
0.0
 40
0.16242030720143
 40
0.3118243397330573
 40
0.4484327667926054
 40
0.5733811968860246
 40
0.689077146873577
 40
0.7975729005013
 40
0.9002930430776451
 40
0.9999999999999999
 40
0.9999999999999999
 40
0.9999999999999999
 40
0.9999999999999999
 10
14.93867826317383
 20
0.3524631536442559
 30
0.0
 10
14.93788605276425
 20
0.353580648785687
 30
0.0
 10
14.93636511925442
 20
0.3557260836185341
 30
0.0
 10
14.93389984467482
 20
0.3585988714259664
 30
0.0
 10
14.93144570207355
 20
0.361049573216076
 30
0.0
 10
14.92897995531188
 20
0.3630679510887512
 30
0.0
 10
14.92648074894891
 20
0.3646417418969673
 30
0.0
 10
14.92395242124173
 20
0.3657560031745739
 30
0.0
 10
14.92140930598738
 20
0.3664643496429739
 30
0.0
 10
14.91970072510272
 20
0.3665525558209584
 30
0.0
 10
14.91885915101958
 20
0.366596002422774
 30
0.0
  0
SPLINE
  5
88
330
1F
100
AcDbEntity
  8
0
  6
Continuous
 62
     7
370
    35
100
AcDbSpline
210
0.0
220
0.0
230
1.0
 70
     8
 71
     3
 72
    19
 73
    15
 74
     0
 42
0.000000001
 43
0.00000001
 40
0.0
 40
0.0
 40
0.0
 40
0.0
 40
0.1069102197111692
 40
0.2129765276064806
 40
0.319776675957773
 40
0.4285562728491938
 40
0.485856803278415
 40
0.5465586866406855
 40
0.6114314979175179
 40
0.6798209100724866
 40
0.7531585046908077
 40
0.8307528691562677
 40
0.9131330746556962
 40
1.0
 40
1.0
 40
1.0
 40
1.0
 10
14.91913518322229
 20
0.3913284877851805
 30
0.0
 10
14.9207587219078
 20
0.3912690952810355
 30
0.0
 10
14.9239929836333
 20
0.3911507790963636
 30
0.0
 10
14.92877493287642
 20
0.3902255851949724
 30
0.0
 10
14.93344574096569
 20
0.3887706203293979
 30
0.0
 10
14.9372095656597
 20
0.3870153652936165
 30
0.0
 10
14.94020437071291
 20
0.3853150489098945
 30
0.0
 10
14.94249960903312
 20
0.3837496117679844
 30
0.0
 10
14.94483513756828
 20
0.3819563193852864
 30
0.0
 10
14.94722979090726
 20
0.3799295206241688
 30
0.0
 10
14.94963907268295
 20
0.3776310279341487
 30
0.0
 10
14.95213149029831
 20
0.3751155587431235
 30
0.0
 10
14.95467308151681
 20
0.3723613735145057
 30
0.0
 10
14.95632471283053
 20
0.3703937963580278
 30
0.0
 10
14.95717242075509
 20
0.3693839276700988
 30
0.0
  0
SPLINE
  5
8B
330
1F
100
AcDbEntity
  8
0
  6
Continuous
 62
     7
370
    35
100
AcDbSpline
210
0.0
220
0.0
230
1.0
 70
     8
 71
     3
 72
    15
 73
    11
 74
     0
 42
0.000000001
 43
0.00000001
 40
0.0
 40
0.0
 40
0.0
 40
0.0
 40
0.0773727494947012
 40
0.1676142909211863
 40
0.2721083165199059
 40
0.3900159922754965
 40
0.5213633102090123
 40
0.6672722540318037
 40
0.8268095210701811
 40
1.0
 40
1.0
 40
1.0
 40
1.0
 10
15.17957156647486
 20
0.3121624520492629
 30
0.0
 10
15.17886517982506
 20
0.311986701907455
 30
0.0
 10
15.17733491887148
 20
0.3116059705053683
 30
0.0
 10
15.17480275730155
 20
0.3112194325718718
 30
0.0
 10
15.1718847069558
 20
0.3108640347086334
 30
0.0
 10
15.16857133187026
 20
0.3105586132699064
 30
0.0
 10
15.16486072180451
 20
0.3103509978585088
 30
0.0
 10
15.16075646959924
 20
0.3101888594556098
 30
0.0
 10
15.15625671527236
 20
0.3100709680926167
 30
0.0
 10
15.15312776405172
 20
0.310066784789485
 30
0.0
 10
15.15149909145972
 20
0.3100646073087017
 30
0.0
  0
SPLINE
  5
8C
330
1F
100
AcDbEntity
  8
0
  6
Continuous
 62
     7
370
    35
100
AcDbSpline
210
0.0
220
0.0
230
1.0
 70
     8
 71
     3
 72
    23
 73
    19
 74
     0
 42
0.000000001
 43
0.00000001
 40
0.0
 40
0.0
 40
0.0
 40
0.0
 40
0.068875425423747
 40
0.1353486746991197
 40
0.1992893152193359
 40
0.261550080394494
 40
0.3229153841538635
 40
0.3827719971265238
 40
0.4428435721153033
 40
0.5026520291025237
 40
0.5627488431894938
 40
0.6227395817076894
 40
0.6826873315148699
 40
0.7433292468859832
 40
0.8050125141012642
 40
0.8680671203592876
 40
0.9331105710618534
 40
1.0
 40
1.0
 40
1.0
 40
1.0
 10
15.20803048657379
 20
0.348653909246921
 30
0.0
 10
15.2080117062244
 20
0.3475029082910173
 30
0.0
 10
15.20797480053002
 20
0.3452410499721681
 30
0.0
 10
15.20761300579309
 20
0.3419254431738432
 30
0.0
 10
15.20699494607509
 20
0.3387643122830032
 30
0.0
 10
15.20618717435123
 20
0.3357309989160772
 30
0.0
 10
15.20506079412876
 20
0.3328754078017139
 30
0.0
 10
15.20377395761808
 20
0.3301294036596274
 30
0.0
 10
15.20219074053779
 20
0.3275699760171579
 30
0.0
 10
15.20038166192187
 20
0.3251651095171323
 30
0.0
 10
15.19840594168544
 20
0.3228952514593956
 30
0.0
 10
15.19621667631457
 20
0.3208259397033609
 30
0.0
 10
15.19385559414975
 20
0.3189430678224601
 30
0.0
 10
15.19133636264882
 20
0.3172269031716276
 30
0.0
 10
15.18864952386051
 20
0.3156809076373268
 30
0.0
 10
15.18579701647228
 20
0.3142906046139943
 30
0.0
 10
15.18275936194621
 20
0.3131004603035374
 30
0.0
 10
15.18064403072786
 20
0.3124780244662425
 30
0.0
 10
15.17957156647486
 20
0.3121624520492629
 30
0.0
  0
SPLINE
  5
8D
330
1F
100
AcDbEntity
  8
0
  6
Continuous
 62
     7
370
    35
100
AcDbSpline
210
0.0
220
0.0
230
1.0
 70
     8
 71
     3
 72
    31
 73
    27
 74
     0
 42
0.000000001
 43
0.00000001
 40
0.0
 40
0.0
 40
0.0
 40
0.0
 40
0.070781161005051
 40
0.136551696232265
 40
0.197012482434335
 40
0.2529226940754233
 40
0.3036865320400894
 40
0.3497191510228017
 40
0.3912404712771929
 40
0.4284785554869229
 40
0.4630565648912395
 40
0.4971503576227188
 40
0.5310023337427017
 40
0.5642263769534248
 40
0.5977006695240399
 40
0.6314214209808989
 40
0.6655973468372228
 40
0.7004514363038972
 40
0.73588068398013
 40
0.7710921079261276
 40
0.8069748450233126
 40
0.8435344028448023
 40
0.8809401955444326
 40
0.9192943843072758
 40
0.9591802403135352
 40
1.0
 40
1.0
 40
1.0
 40
1.0
 10
15.15436982636786
 20
0.3877952755905511
 30
0.0
 10
15.15617338497112
 20
0.3877872024783631
 30
0.0
 10
15.1596528275662
 20
0.3877716277527232
 30
0.0
 10
15.16467047005444
 20
0.3875827634870216
 30
0.0
 10
15.16929949092641
 20
0.3872443072186665
 30
0.0
 10
15.17353882667295
 20
0.3868260287960939
 30
0.0
 10
15.17738673418389
 20
0.3862396187228331
 30
0.0
 10
15.18084803219416
 20
0.3855673454881191
 30
0.0
 10
15.18392343900571
 20
0.3847483210260516
 30
0.0
 10
15.18664763440217
 20
0.3837761503412725
 30
0.0
 10
15.18909251177543
 20
0.3826299990864919
 30
0.0
 10
15.19140615431655
 20
0.3814092661871553
 30
0.0
 10
15.19353627344847
 20
0.3799523645259353
 30
0.0
 10
15.19559038271817
 20
0.3784163127769743
 30
0.0
 10
15.19745104515658
 20
0.3766543725062112
 30
0.0
 10
15.19923434002578
 20
0.3747838033963934
 30
0.0
 10
15.20086473992394
 20
0.3727304202144197
 30
0.0
 10
15.20234979951823
 20
0.3705190786109024
 30
0.0
 10
15.20369697740078
 20
0.3681906347234374
 30
0.0
 10
15.20487396212238
 20
0.3657409259847468
 30
0.0
 10
15.20582866621662
 20
0.3631660759870112
 30
0.0
 10
15.20662954423958
 20
0.3604827410823561
 30
0.0
 10
15.20727281726974
 20
0.3576910382163987
 30
0.0
 10
15.20770100027643
 20
0.354773798168143
 30
0.0
 10
15.20799184371531
 20
0.3517513902159299
 30
0.0
 10
15.20801750663284
 20
0.3496943374570278
 30
0.0
 10
15.20803048657379
 20
0.348653909246921
 30
0.0
  0
SPLINE
  5
90
330
1F
100
AcDbEntity
  8
0
  6
Continuous
 62
     7
370
    35
100
AcDbSpline
210
0.0
220
0.0
230
1.0
 70
     8
 71
     3
 72
    19
 73
    15
 74
     0
 42
0.000000001
 43
0.00000001
 40
0.0
 40
0.0
 40
0.0
 40
0.0
 40
0.0925378346593295
 40
0.185590773026735
 40
0.2795524791599465
 40
0.3756022954876748
 40
0.4276167156194869
 40
0.4871168707665481
 40
0.5541989278073838
 40
0.6286239860240616
 40
0.7096875605186934
 40
0.7991807418287518
 40
0.8953573266116718
 40
1.0
 40
1.0
 40
1.0
 40
1.0
 10
15.3051938219261
 20
0.2895554146476881
 30
0.0
 10
15.30521276731862
 20
0.2906329911624082
 30
0.0
 10
15.30525076356152
 20
0.29279414242663
 30
0.0
 10
15.30563260308809
 20
0.2960303490062767
 30
0.0
 10
15.30621313328969
 20
0.2992750503225048
 30
0.0
 10
15.30688604380361
 20
0.3020130320366659
 30
0.0
 10
15.30757893906878
 20
0.3043282821138733
 30
0.0
 10
15.30827634347369
 20
0.3062876156905137
 30
0.0
 10
15.30914062257019
 20
0.3084620475356125
 30
0.0
 10
15.31012862160233
 20
0.3108571302648167
 30
0.0
 10
15.3112714095436
 20
0.313469982601801
 30
0.0
 10
15.3125630166724
 20
0.3162934825916642
 30
0.0
 10
15.31400665851738
 20
0.3193490118975247
 30
0.0
 10
15.31503617398488
 20
0.3214476873989665
 30
0.0
 10
15.31557263274783
 20
0.3225412628709871
 30
0.0
  0
SPLINE
  5
91
330
1F
100
AcDbEntity
  8
0
  6
Continuous
 62
     7
370
    35
100
AcDbSpline
210
0.0
220
0.0
230
1.0
 70
     8
 71
     3
 72
    23
 73
    19
 74
     0
 42
0.000000001
 43
0.00000001
 40
0.0
 40
0.0
 40
0.0
 40
0.0
 40
0.0664859378748903
 40
0.1307356009388866
 40
0.1932868395043385
 40
0.2552914267067132
 40
0.316537602895458
 40
0.3788667103911693
 40
0.441877206470666
 40
0.5071174914664562
 40
0.5722713919203458
 40
0.6354271335389683
 40
0.696817252457564
 40
0.757356633381478
 40
0.817265116831883
 40
0.8771342994595164
 40
0.9380198203164543
 40
1.0
 40
1.0
 40
1.0
 40
1.0
 10
15.34781319402382
 20
0.2464667878053702
 30
0.0
 10
15.34632001681779
 20
0.2464972498136986
 30
0.0
 10
15.34338388587674
 20
0.2465571492314086
 30
0.0
 10
15.33908759147966
 20
0.2472278648425314
 30
0.0
 10
15.33496707539368
 20
0.248237533694661
 30
0.0
 10
15.33104549558477
 20
0.2496791692731567
 30
0.0
 10
15.3272984649147
 20
0.251514818724445
 30
0.0
 10
15.3237700979111
 20
0.253786250295388
 30
0.0
 10
15.32043067297609
 20
0.2564684161762955
 30
0.0
 10
15.31731579325655
 20
0.2595009718676785
 30
0.0
 10
15.31450951876053
 20
0.2628227217089225
 30
0.0
 10
15.312006556455
 20
0.2662715628821236
 30
0.0
 10
15.30988904711345
 20
0.2698529073845244
 30
0.0
 10
15.30817497266176
 20
0.2735629260739766
 30
0.0
 10
15.30683761202186
 20
0.2773897968089294
 30
0.0
 10
15.30590708178049
 20
0.2813407826806198
 30
0.0
 10
15.30530075545213
 20
0.2854054036990057
 30
0.0
 10
15.30522967752186
 20
0.2881638855317765
 30
0.0
 10
15.30519382192611
 20
0.2895554146476881
 30
0.0
  0
SPLINE
  5
92
330
1F
100
AcDbEntity
  8
0
  6
Continuous
 62
     7
370
    35
100
AcDbSpline
210
0.0
220
0.0
230
1.0
 70
     8
 71
     3
 72
    23
 73
    19
 74
     0
 42
0.000000001
 43
0.00000001
 40
0.0
 40
0.0
 40
0.0
 40
0.0
 40
0.0656209271532234
 40
0.1297044336027811
 40
0.1920084100512059
 40
0.2531653825181693
 40
0.3145900137962876
 40
0.3765327730011618
 40
0.439286701649034
 40
0.5037985290657724
 40
0.568283999304005
 40
0.6306288907425628
 40
0.6915128396476448
 40
0.751997591162874
 40
0.812376852071392
 40
0.8735768952802322
 40
0.9360266791627453
 40
1.0
 40
1.0
 40
1.0
 40
1.0
 10
15.38999091459721
 20
0.2893621921057942
 30
0.0
 10
15.38995458895724
 20
0.2878972842894759
 30
0.0
 10
15.38988278874406
 20
0.2850017897142134
 30
0.0
 10
15.38928926493287
 20
0.2807490445861912
 30
0.0
 10
15.38833009927405
 20
0.2766687843381885
 30
0.0
 10
15.38695925893852
 20
0.2727691577564173
 30
0.0
 10
15.38521681000852
 20
0.2690311033557073
 30
0.0
 10
15.38308591299235
 20
0.2654568146608714
 30
0.0
 10
15.38054889623743
 20
0.262073001158546
 30
0.0
 10
15.37767130923783
 20
0.2588976428096529
 30
0.0
 10
15.3745256102326
 20
0.2560032801984451
 30
0.0
 10
15.37120987214482
 20
0.2534306022612386
 30
0.0
 10
15.36769599782537
 20
0.2513054726763657
 30
0.0
 10
15.36405040361298
 20
0.2495107509226773
 30
0.0
 10
15.36020597188986
 20
0.2481714997038484
 30
0.0
 10
15.35622023475855
 20
0.2471605970376515
 30
0.0
 10
15.35206296722629
 20
0.2465772623129358
 30
0.0
 10
15.34924112053962
 20
0.2465039073106137
 30
0.0
 10
15.34781319402382
 20
0.2464667878053702
 30
0.0
  0
SPLINE
  5
93
330
1F
100
AcDbEntity
  8
0
  6
Continuous
 62
     7
370
    35
100
AcDbSpline
210
0.0
220
0.0
230
1.0
 70
     8
 71
     3
 72
    23
 73
    19
 74
     0
 42
0.000000001
 43
0.00000001
 40
0.0
 40
0.0
 40
0.0
 40
0.0
 40
0.0633287933600966
 40
0.1247364441626541
 40
0.1849157484558715
 40
0.2443004085890874
 40
0.3038255705820831
 40
0.3643529976730497
 40
0.426073143672396
 40
0.4897209088385848
 40
0.5537559315351933
 40
0.6164580629276154
 40
0.6783188623543014
 40
0.7403009402150765
 40
0.802656264377341
 40
0.8667321228001672
 40
0.9321567378801828
 40
1.0
 40
1.0
 40
1.0
 40
1.0
 10
15.34844806809005
 20
0.3330304865737934
 30
0.0
 10
15.34986684003646
 20
0.3329937538526539
 30
0.0
 10
15.3526613440572
 20
0.3329214027343673
 30
0.0
 10
15.35677288968929
 20
0.3323366488986601
 30
0.0
 10
15.36070360384645
 20
0.3313257497289815
 30
0.0
 10
15.36449311975187
 20
0.3299858056140123
 30
0.0
 10
15.36809511416139
 20
0.3281862473591932
 30
0.0
 10
15.37156759920072
 20
0.3260455789329343
 30
0.0
 10
15.3748207399269
 20
0.3234348035356239
 30
0.0
 10
15.37792912807144
 20
0.3205422029111712
 30
0.0
 10
15.38075556944313
 20
0.3173376171356679
 30
0.0
 10
15.3832108334695
 20
0.3138941879198872
 30
0.0
 10
15.38535055272192
 20
0.3102956943179197
 30
0.0
 10
15.3870138843574
 20
0.3064616292968966
 30
0.0
 10
15.38835558304324
 20
0.3024555468453239
 30
0.0
 10
15.389323677689
 20
0.2982614329277886
 30
0.0
 10
15.38987600277073
 20
0.2938671423165967
 30
0.0
 10
15.38995214999576
 20
0.290881901650587
 30
0.0
 10
15.38999091459721
 20
0.2893621921057942
 30
0.0
  0
CIRCLE
  5
A2
330
1F
100
AcDbEntity
  8
0
  6
Continuous
 62
     7
370
    35
100
AcDbCircle
 10
2.4125
 20
0.8475
 30
0.0
 40
0.0749999999999997
  0
CIRCLE
  5
A3
330
1F
100
AcDbEntity
  8
0
  6
Continuous
 62
     7
370
    35
100
AcDbCircle
 10
1.8875
 20
1.3475
 30
0.0
 40
0.0749999999999995
  0
CIRCLE
  5
A4
330
1F
100
AcDbEntity
  8
0
  6
Continuous
 62
     7
370
    35
100
AcDbCircle
 10
13.9625
 20
0.8475
 30
0.0
 40
0.0749999999999993
  0
CIRCLE
  5
A5
330
1F
100
AcDbEntity
  8
0
  6
Continuous
 62
     7
370
    35
100
AcDbCircle
 10
14.4875
 20
1.3475
 30
0.0
 40
0.0749999999999993
  0
SPLINE
  5
AA
330
1F
100
AcDbEntity
  8
0
  6
Continuous
 62
     7
370
    35
100
AcDbSpline
210
0.0
220
0.0
230
1.0
 70
     8
 71
     3
 72
    15
 73
    11
 74
     0
 42
0.000000001
 43
0.00000001
 40
0.0
 40
0.0
 40
0.0
 40
0.0
 40
0.161071123948422
 40
0.3107888083803564
 40
0.4499038238309462
 40
0.57837631650619
 40
0.6966172119048388
 40
0.8059873227104126
 40
0.9065617032890875
 40
1.0
 40
1.0
 40
1.0
 40
1.0
 10
15.40765697557036
 20
0.3175450800020188
 30
0.0
 10
15.40768057233564
 20
0.3206008975335901
 30
0.0
 10
15.40772610259817
 20
0.3264971368220733
 30
0.0
 10
15.40830309552509
 20
0.3350154882688276
 30
0.0
 10
15.40914997479976
 20
0.342889228586214
 30
0.0
 10
15.41039383984565
 20
0.3501051869494639
 30
0.0
 10
15.41193186177197
 20
0.3566900891635976
 30
0.0
 10
15.41390137893405
 20
0.3626005573400937
 30
0.0
 10
15.41614353095218
 20
0.3679183760605075
 30
0.0
 10
15.41805413252374
 20
0.3710686838858536
 30
0.0
 10
15.41897429588128
 20
0.3725859012214818
 30
0.0
  0
SPLINE
  5
AB
330
1F
100
AcDbEntity
  8
0
  6
Continuous
 62
     7
370
    35
100
AcDbSpline
210
0.0
220
0.0
230
1.0
 70
     8
 71
     3
 72
    31
 73
    27
 74
     0
 42
0.000000001
 43
0.00000001
 40
0.0
 40
0.0
 40
0.0
 40
0.0
 40
0.0382173379691468
 40
0.0748672030399428
 40
0.1101580815531154
 40
0.144453926659313
 40
0.1780797262741556
 40
0.2111707725936021
 40
0.2436870542144236
 40
0.2758717334448078
 40
0.3083755160139884
 40
0.3412633249363633
 40
0.3751503394709126
 40
0.4096552607042231
 40
0.4451573674923647
 40
0.4820734672046809
 40
0.5205757562184341
 40
0.5605536808978376
 40
0.6031075754382547
 40
0.6486887095294921
 40
0.6979476778875654
 40
0.7507677670183565
 40
0.8073094024459657
 40
0.8676555707911424
 40
0.9318612220995592
 40
1.0
 40
1.0
 40
1.0
 40
1.0
 10
15.45477567257218
 20
0.2464667878053704
 30
0.0
 10
15.45354213269244
 20
0.2464880568887827
 30
0.0
 10
15.45112564620902
 20
0.2465297227103944
 30
0.0
 10
15.44758017390772
 20
0.2468541923591471
 30
0.0
 10
15.44420185124107
 20
0.2474529948869394
 30
0.0
 10
15.44095329575008
 20
0.2482048930059173
 30
0.0
 10
15.43785711686913
 20
0.2492395547385994
 30
0.0
 10
15.4348984685139
 20
0.2504742971760618
 30
0.0
 10
15.43210010013073
 20
0.2519431235538192
 30
0.0
 10
15.4294542634782
 20
0.2536370639923177
 30
0.0
 10
15.42696999219493
 20
0.2555795474118737
 30
0.0
 10
15.4246086807195
 20
0.2577497967735308
 30
0.0
 10
15.42237555241059
 20
0.2601423110530431
 30
0.0
 10
15.42030457868629
 20
0.2627838883926447
 30
0.0
 10
15.41836184299097
 20
0.2656392692414024
 30
0.0
 10
15.41656760498453
 20
0.2687410606602099
 30
0.0
 10
15.41492294295771
 20
0.2720847465149411
 30
0.0
 10
15.41337641157893
 20
0.2756749875591563
 30
0.0
 10
15.41203267157127
 20
0.2795890775670598
 30
0.0
 10
15.4108368053565
 20
0.2838619688651596
 30
0.0
 10
15.40985718320885
 20
0.2885292795256884
 30
0.0
 10
15.40906930552736
 20
0.2935895101267131
 30
0.0
 10
15.40844026443808
 20
0.2990319403482848
 30
0.0
 10
15.40797233016956
 20
0.3048591970942252
 30
0.0
 10
15.40769530392758
 20
0.3110739945606906
 30
0.0
 10
15.40767000233434
 20
0.3153457344307909
 30
0.0
 10
15.40765697557036
 20
0.3175450800020188
 30
0.0
  0
SPLINE
  5
AC
330
1F
100
AcDbEntity
  8
0
  6
Continuous
 62
     7
370
    35
100
AcDbSpline
210
0.0
220
0.0
230
1.0
 70
     8
 71
     3
 72
    31
 73
    27
 74
     0
 42
0.000000001
 43
0.00000001
 40
0.0
 40
0.0
 40
0.0
 40
0.0
 40
0.0684908744969549
 40
0.1330765404908792
 40
0.1938289871915789
 40
0.2510828574460507
 40
0.3044008371534414
 40
0.3544083437255271
 40
0.4012947817777467
 40
0.4447006845454792
 40
0.4856924920892484
 40
0.524676484427406
 40
0.5623067591777638
 40
0.5979465846525367
 40
0.6324735490267248
 40
0.6657520428969459
 40
0.6979852995504566
 40
0.7295862241486786
 40
0.7608251968744995
 40
0.7923550795612093
 40
0.8243126039626582
 40
0.8571562719790768
 40
0.890926887145403
 40
0.9259604429163104
 40
0.9620613229943489
 40
0.9999999999999999
 40
0.9999999999999999
 40
0.9999999999999999
 40
0.9999999999999999
 10
15.50128709872804
 20
0.3188424313547344
 30
0.0
 10
15.50127393867551
 20
0.316615502833526
 30
0.0
 10
15.50124836892951
 20
0.312288620665653
 30
0.0
 10
15.50097287294127
 20
0.3059908523698608
 30
0.0
 10
15.50049845583382
 20
0.3000725202303527
 30
0.0
 10
15.49988699282697
 20
0.2945342365315991
 30
0.0
 10
15.49904945576634
 20
0.2893789259559096
 30
0.0
 10
15.49806858344441
 20
0.2845932397159038
 30
0.0
 10
15.49690298898916
 20
0.2801789125024916
 30
0.0
 10
15.49549579294352
 20
0.2761458907358585
 30
0.0
 10
15.49398151127962
 20
0.2724292100354224
 30
0.0
 10
15.49231516539805
 20
0.2689843772155481
 30
0.0
 10
15.49052579947042
 20
0.2658020617639844
 30
0.0
 10
15.48865445615698
 20
0.2628342541235413
 30
0.0
 10
15.48659854153576
 20
0.2601684437563231
 30
0.0
 10
15.4844581227667
 20
0.2577139791699474
 30
0.0
 10
15.48214000219369
 20
0.2555643540688785
 30
0.0
 10
15.47974178165456
 20
0.2536087864225295
 30
0.0
 10
15.4771756046321
 20
0.2519187835318134
 30
0.0
 10
15.47446793543354
 20
0.2504407348676251
 30
0.0
 10
15.47157050101957
 20
0.2492418618515021
 30
0.0
 10
15.4685361166913
 20
0.2481991461359381
 30
0.0
 10
15.46531306075232
 20
0.2474505887606537
 30
0.0
 10
15.46195254711931
 20
0.2468566330837629
 30
0.0
 10
15.45841663627169
 20
0.2465283767453954
 30
0.0
 10
15.45600924574743
 20
0.2464876543864674
 30
0.0
 10
15.45477567257218
 20
0.2464667878053704
 30
0.0
  0
SPLINE
  5
AD
330
1F
100
AcDbEntity
  8
0
  6
Continuous
 62
     7
370
    35
100
AcDbSpline
210
0.0
220
0.0
230
1.0
 70
     8
 71
     3
 72
    31
 73
    27
 74
     0
 42
0.000000001
 43
0.00000001
 40
0.0
 40
0.0
 40
0.0
 40
0.0
 40
0.0366348902551168
 40
0.0720339823477799
 40
0.1066259706074878
 40
0.1403056939382798
 40
0.1736194704926776
 40
0.2064256725696789
 40
0.2390670061327325
 40
0.2718828805625969
 40
0.3048398888131077
 40
0.338529033704586
 40
0.3726161878593793
 40
0.4075482500265305
 40
0.4437189059571636
 40
0.4813115090918976
 40
0.5201129981462014
 40
0.5609129028334426
 40
0.6040246006136007
 40
0.6500745638656741
 40
0.6995722277770541
 40
0.7523625390892936
 40
0.8087887173463858
 40
0.8689542125204771
 40
0.9326747199379378
 40
1.0
 40
1.0
 40
1.0
 40
1.0
 10
15.45405798884515
 20
0.3913284877851806
 30
0.0
 10
15.45525514378935
 20
0.391310715682548
 30
0.0
 10
15.45760907026539
 20
0.3912757709804239
 30
0.0
 10
15.4610759608726
 20
0.3908972913940588
 30
0.0
 10
15.46441553506141
 20
0.3903255142941104
 30
0.0
 10
15.46764085766215
 20
0.3895280846216053
 30
0.0
 10
15.47072871247533
 20
0.3884727148544342
 30
0.0
 10
15.47370157354625
 20
0.387209455333563
 30
0.0
 10
15.47652405522486
 20
0.3856720454947473
 30
0.0
 10
15.47923215317205
 20
0.383935462122105
 30
0.0
 10
15.48182482422496
 20
0.3819694035637232
 30
0.0
 10
15.4842397553493
 20
0.3797279952932897
 30
0.0
 10
15.48652104831803
 20
0.3772628122075902
 30
0.0
 10
15.48861932153859
 20
0.3745365851615899
 30
0.0
 10
15.49058104191111
 20
0.3715741120805346
 30
0.0
 10
15.49239976355232
 20
0.3683749232107371
 30
0.0
 10
15.4940615636973
 20
0.3649233606653023
 30
0.0
 10
15.49558506716113
 20
0.3612131958254947
 30
0.0
 10
15.49694738877018
 20
0.3571888149232165
 30
0.0
 10
15.49809487057214
 20
0.3528040565614424
 30
0.0
 10
15.49907902822653
 20
0.3480579194101871
 30
0.0
 10
15.4999097267273
 20
0.3429385896084307
 30
0.0
 10
15.50053760053072
 20
0.3374392623479734
 30
0.0
 10
15.50096080011409
 20
0.3315635911063877
 30
0.0
 10
15.50125121970029
 20
0.3253229033141937
 30
0.0
 10
15.50127492172249
 20
0.3210418427659447
 30
0.0
 10
15.50128709872804
 20
0.3188424313547344
 30
0.0
  0
SPLINE
  5
AE
330
1F
100
AcDbEntity
  8
0
  6
Continuous
 62
     7
370
    35
100
AcDbSpline
210
0.0
220
0.0
230
1.0
 70
     8
 71
     3
 72
    15
 73
    11
 74
     0
 42
0.000000001
 43
0.00000001
 40
0.0
 40
0.0
 40
0.0
 40
0.0
 40
0.1323140339085783
 40
0.2587000085531644
 40
0.3809118214856381
 40
0.5005348689728705
 40
0.6209226176484152
 40
0.7423757653984783
 40
0.8682808341788472
 40
1.0
 40
1.0
 40
1.0
 40
1.0
 10
15.41897429588128
 20
0.3725859012214818
 30
0.0
 10
15.42004421800485
 20
0.3740764150587561
 30
0.0
 10
15.42213612658281
 20
0.3769906633139176
 30
0.0
 10
15.42579388720454
 20
0.3808165265294343
 30
0.0
 10
15.4297236747593
 20
0.3840885920961261
 30
0.0
 10
15.43400620484273
 20
0.3867328102402136
 30
0.0
 10
15.43857374745763
 20
0.388818040883328
 30
0.0
 10
15.44346551727917
 20
0.3902908158015794
 30
0.0
 10
15.44866344982336
 20
0.3911489230968469
 30
0.0
 10
15.45223295680616
 20
0.3912677390709798
 30
0.0
 10
15.45405798884515
 20
0.3913284877851806
 30
0.0
  0
SPLINE
  5
BB
330
1F
100
AcDbEntity
  8
0
  6
Continuous
 62
     7
370
    35
100
AcDbSpline
210
0.0
220
0.0
230
1.0
 70
     8
 71
     3
 72
    31
 73
    27
 74
     0
 42
0.000000001
 43
0.00000001
 40
0.0
 40
0.0
 40
0.0
 40
0.0
 40
0.044663330906371
 40
0.0885118057801455
 40
0.1309255913017757
 40
0.1729040372808874
 40
0.2140001199049661
 40
0.2549850203589847
 40
0.2952912763870624
 40
0.3357724419527847
 40
0.3761808205537684
 40
0.4161784084745259
 40
0.4563500514444801
 40
0.4965121666444167
 40
0.5370405736377815
 40
0.5781187440077558
 40
0.6197245605548133
 40
0.6624219701988916
 40
0.7052989535209014
 40
0.747430000533917
 40
0.7894329840393776
 40
0.8312674212030533
 40
0.8728250959642377
 40
0.914870110484398
 40
0.9570270028395036
 40
1.0
 40
1.0
 40
1.0
 40
1.0
 10
14.73104684029881
 20
0.3191184635574397
 30
0.0
 10
14.73106953747943
 20
0.3208126375411194
 30
0.0
 10
14.73111451774406
 20
0.3241700763070632
 30
0.0
 10
14.731587264491
 20
0.3291158556198707
 30
0.0
 10
14.73224630094507
 20
0.3339371057850636
 30
0.0
 10
14.7332918023527
 20
0.3385837662498616
 30
0.0
 10
14.73455205118339
 20
0.3431184361006642
 30
0.0
 10
14.73611933618216
 20
0.3474918287720881
 30
0.0
 10
14.7379911541783
 20
0.3517165138350511
 30
0.0
 10
14.74010717206994
 20
0.355799563666243
 30
0.0
 10
14.74250100194024
 20
0.3597142299144072
 30
0.0
 10
14.74517517269883
 20
0.3634268794269339
 30
0.0
 10
14.74806084076253
 20
0.3669661731745381
 30
0.0
 10
14.75122734403381
 20
0.3702851558554207
 30
0.0
 10
14.75462866907137
 20
0.3734129687827512
 30
0.0
 10
14.7582801724679
 20
0.3763326617390846
 30
0.0
 10
14.76215989225446
 20
0.3790861064153446
 30
0.0
 10
14.76627832938991
 20
0.3816022981561619
 30
0.0
 10
14.77055547361461
 20
0.383878327326552
 30
0.0
 10
14.77493737888411
 20
0.3858858822619831
 30
0.0
 10
14.77941327936558
 20
0.387563735881821
 30
0.0
 10
14.78396425054627
 20
0.3889554535667945
 30
0.0
 10
14.78860952022108
 20
0.3899942724127684
 30
0.0
 10
14.79331593163727
 20
0.3907806247664914
 30
0.0
 10
14.79812353070448
 20
0.3912202007598632
 30
0.0
 10
14.80135141698346
 20
0.3912921621554291
 30
0.0
 10
14.80298083232384
 20
0.3913284877851805
 30
0.0
  0
SPLINE
  5
BC
330
1F
100
AcDbEntity
  8
0
  6
Continuous
 62
     7
370
    35
100
AcDbSpline
210
0.0
220
0.0
230
1.0
 70
     8
 71
     3
 72
    23
 73
    19
 74
     0
 42
0.000000001
 43
0.00000001
 40
0.0
 40
0.0
 40
0.0
 40
0.0
 40
0.0673762427992722
 40
0.1318365787763092
 40
0.1944610676015766
 40
0.2553459677434155
 40
0.3155883400136069
 40
0.3756274517721975
 40
0.4361378520525359
 40
0.4977786195747119
 40
0.5594703610940558
 40
0.6202777696791107
 40
0.6807876889604219
 40
0.741491621591654
 40
0.8032154362531878
 40
0.866492762748931
 40
0.9319104429113602
 40
1.0
 40
1.0
 40
1.0
 40
1.0
 10
14.80259438724005
 20
0.2464667878053702
 30
0.0
 10
14.80002445558857
 20
0.2465323004883262
 30
0.0
 10
14.79499581370317
 20
0.2466604905984973
 30
0.0
 10
14.78762647013383
 20
0.2476102925226208
 30
0.0
 10
14.7806257915611
 20
0.2492026187160638
 30
0.0
 10
14.77397674664456
 20
0.2514546071527198
 30
0.0
 10
14.76768144962572
 20
0.2543314168388744
 30
0.0
 10
14.76174151103356
 20
0.2578582504302449
 30
0.0
 10
14.75616650472856
 20
0.2620257376860603
 30
0.0
 10
14.75100146578823
 20
0.2667850316096053
 30
0.0
 10
14.74632944225226
 20
0.2720412722084017
 30
0.0
 10
14.7421999144938
 20
0.2776850326127246
 30
0.0
 10
14.73878396897626
 20
0.2837440498371061
 30
0.0
 10
14.73594763580772
 20
0.2901288128420964
 30
0.0
 10
14.73372966057276
 20
0.2968684577813206
 30
0.0
 10
14.73216858201552
 20
0.303970274898035
 30
0.0
 10
14.73120587626218
 20
0.3114274069486931
 30
0.0
 10
14.73110055488461
 20
0.3165208000392847
 30
0.0
 10
14.7310468402988
 20
0.3191184635574397
 30
0.0
  0
SPLINE
  5
BD
330
1F
100
AcDbEntity
  8
0
  6
Continuous
 62
     7
370
    35
100
AcDbSpline
210
0.0
220
0.0
230
1.0
 70
     8
 71
     3
 72
    23
 73
    19
 74
     0
 42
0.000000001
 43
0.00000001
 40
0.0
 40
0.0
 40
0.0
 40
0.0
 40
0.0777829363133479
 40
0.1518156572690966
 40
0.2225398385800499
 40
0.2902775346822808
 40
0.3546406074863679
 40
0.4157977534850211
 40
0.4747090076698716
 40
0.5304260996200478
 40
0.5855797458252717
 40
0.6409061648040222
 40
0.6979010906656786
 40
0.7554203208806115
 40
0.8145212584872801
 40
0.8744618312158964
 40
0.9366697167404097
 40
1.0
 40
1.0
 40
1.0
 40
1.0
 10
14.86122362709469
 20
0.2727726567231978
 30
0.0
 10
14.85998761917055
 20
0.2715793298762358
 30
0.0
 10
14.8575751960314
 20
0.269250211072099
 30
0.0
 10
14.85393612269752
 20
0.2659430797101803
 30
0.0
 10
14.85030162928136
 20
0.2629712545421306
 30
0.0
 10
14.84675951757234
 20
0.260226871339056
 30
0.0
 10
14.84325176408636
 20
0.257789880649169
 30
0.0
 10
14.83977874081486
 20
0.2556578486209127
 30
0.0
 10
14.83637976389942
 20
0.2537768530802977
 30
0.0
 10
14.83298425249536
 20
0.2521786160944611
 30
0.0
 10
14.82957107797824
 20
0.250821546901197
 30
0.0
 10
14.8260593225027
 20
0.249653199398803
 30
0.0
 10
14.82243825030181
 20
0.2486648194430047
 30
0.0
 10
14.81868574551892
 20
0.2478673266249581
 30
0.0
 10
14.81483680923206
 20
0.2472278450463251
 30
0.0
 10
14.81085542051149
 20
0.2467961986795222
 30
0.0
 10
14.80676682332783
 20
0.2465060171881302
 30
0.0
 10
14.8039934645156
 20
0.2464799419764106
 30
0.0
 10
14.80259438724005
 20
0.2464667878053702
 30
0.0
  0
SPLINE
  5
BF
330
1F
100
AcDbEntity
  8
0
  6
Continuous
 62
     7
370
    35
100
AcDbSpline
210
0.0
220
0.0
230
1.0
 70
     8
 71
     3
 72
    19
 73
    15
 74
     0
 42
0.000000001
 43
0.00000001
 40
0.0
 40
0.0
 40
0.0
 40
0.0
 40
0.1170484290483548
 40
0.2299697259035159
 40
0.3407035076587588
 40
0.4493551469115455
 40
0.5055565115208359
 40
0.5653026697757583
 40
0.6282049564765909
 40
0.6947289918311425
 40
0.7650188336519165
 40
0.8395802021957183
 40
0.9177497995909595
 40
0.9999999999999999
 40
0.9999999999999999
 40
0.9999999999999999
 40
0.9999999999999999
 10
14.80248397435897
 20
0.2711992731677768
 30
0.0
 10
14.80432711675794
 20
0.271252586627002
 30
0.0
 10
14.80794841228269
 20
0.2713573337107915
 30
0.0
 10
14.81326318416132
 20
0.2721764410736009
 30
0.0
 10
14.81832763228042
 20
0.2735238263325707
 30
0.0
 10
14.82237410209275
 20
0.2751150100322683
 30
0.0
 10
14.82554440430821
 20
0.2766863245928697
 30
0.0
 10
14.82795790851795
 20
0.2781397131825297
 30
0.0
 10
14.83045365997867
 20
0.2797654878932789
 30
0.0
 10
14.83299020639291
 20
0.281625007223302
 30
0.0
 10
14.83559607887608
 20
0.2836959561949801
 30
0.0
 10
14.83822527777014
 20
0.2860236924548636
 30
0.0
 10
14.84094511103372
 20
0.288531566987102
 30
0.0
 10
14.84272684684444
 20
0.2903214863087281
 30
0.0
 10
14.84364037578235
 20
0.2912392110841912
 30
0.0
  0
SPLINE
  5
C0
330
1F
100
AcDbEntity
  8
0
  6
Continuous
 62
     7
370
    35
100
AcDbSpline
210
0.0
220
0.0
230
1.0
 70
     8
 71
     3
 72
    31
 73
    27
 74
     0
 42
0.000000001
 43
0.00000001
 40
0.0
 40
0.0
 40
0.0
 40
0.0
 40
0.0459858533955711
 40
0.090639061864395
 40
0.1344852733868704
 40
0.1773313561259416
 40
0.2192648329782459
 40
0.2607850023581432
 40
0.3023165723378452
 40
0.3434357294037458
 40
0.3841814737656288
 40
0.4243757389977367
 40
0.4641811219517799
 40
0.5040119825276124
 40
0.5438224623104119
 40
0.5838024645760226
 40
0.6244185350988759
 40
0.6655475595785303
 40
0.7066749396536308
 40
0.7478269788975618
 40
0.7888951165570375
 40
0.8302193579728199
 40
0.8717069369478575
 40
0.9137338536047337
 40
0.9565878279841996
 40
1.0
 40
1.0
 40
1.0
 40
1.0
 10
14.75577932566121
 20
0.3191736699979808
 30
0.0
 10
14.75579260541407
 20
0.3180229498458089
 30
0.0
 10
14.75581878007978
 20
0.3157548567832723
 30
0.0
 10
14.75610530808434
 20
0.3123997176566901
 30
0.0
 10
14.75656668573522
 20
0.3091444395116061
 30
0.0
 10
14.75723441350477
 20
0.3059939532268809
 30
0.0
 10
14.75806941364466
 20
0.3029455285628419
 30
0.0
 10
14.75904905893717
 20
0.2999728669150565
 30
0.0
 10
14.76027800954596
 20
0.2971170437741391
 30
0.0
 10
14.76164216326442
 20
0.2943448906081604
 30
0.0
 10
14.76322865831878
 20
0.2917320490863384
 30
0.0
 10
14.7649391926568
 20
0.2892404878485206
 30
0.0
 10
14.76679398787281
 20
0.2868824202797965
 30
0.0
 10
14.76880505758524
 20
0.284667486232409
 30
0.0
 10
14.77100070509747
 20
0.2826303001650106
 30
0.0
 10
14.77332418104525
 20
0.2807096014685837
 30
0.0
 10
14.77581467925271
 20
0.2789534717372404
 30
0.0
 10
14.77842046576059
 20
0.2773178389616331
 30
0.0
 10
14.78116405127136
 20
0.2758969508539058
 30
0.0
 10
14.78397099594903
 20
0.2746099007341658
 30
0.0
 10
14.78688385873224
 20
0.2735646246802708
 30
0.0
 10
14.78986717376708
 20
0.2727220368219553
 30
0.0
 10
14.7929102797371
 20
0.2720055416876904
 30
0.0
 10
14.79604294104495
 20
0.271564373613797
 30
0.0
 10
14.79923800144023
 20
0.2712302821950567
 30
0.0
 10
14.80139732597832
 20
0.2712096540027754
 30
0.0
 10
14.80248397435897
 20
0.2711992731677768
 30
0.0
  0
SPLINE
  5
C1
330
1F
100
AcDbEntity
  8
0
  6
Continuous
 62
     7
370
    35
100
AcDbSpline
210
0.0
220
0.0
230
1.0
 70
     8
 71
     3
 72
    23
 73
    19
 74
     0
 42
0.000000001
 43
0.00000001
 40
0.0
 40
0.0
 40
0.0
 40
0.0
 40
0.0647145165408325
 40
0.1277069683294469
 40
0.188882162817109
 40
0.2491582987223058
 40
0.3096610287488754
 40
0.3702248860571882
 40
0.4323322219725773
 40
0.4957818589938762
 40
0.5593040765204147
 40
0.6218605583615159
 40
0.6833215373325011
 40
0.7445229747823274
 40
0.8060883712105076
 40
0.8689943146702034
 40
0.9334190568081348
 40
1.0
 40
1.0
 40
1.0
 40
1.0
 10
14.80201471961437
 20
0.3665960024227738
 30
0.0
 10
14.80042097436943
 20
0.3665518812946404
 30
0.0
 10
14.7972758937229
 20
0.3664648131094111
 30
0.0
 10
14.79265809116557
 20
0.3658265174337267
 30
0.0
 10
14.78824092436669
 20
0.3647410678590903
 30
0.0
 10
14.78400927266432
 20
0.3632451172786733
 30
0.0
 10
14.77997558787531
 20
0.3613094366257746
 30
0.0
 10
14.77613141287819
 20
0.3589355240668539
 30
0.0
 10
14.77248622532697
 20
0.356144819408558
 30
0.0
 10
14.76908817603759
 20
0.3529517618851624
 30
0.0
 10
14.76597975996765
 20
0.3494631065926183
 30
0.0
 10
14.76323327644585
 20
0.3457407197177936
 30
0.0
 10
14.76093265593463
 20
0.3417931290409371
 30
0.0
 10
14.75904457410307
 20
0.3376603128586517
 30
0.0
 10
14.75757383134258
 20
0.3333231424520046
 30
0.0
 10
14.75652353623055
 20
0.3287845377758945
 30
0.0
 10
14.75591607360654
 20
0.3240390937028945
 30
0.0
 10
14.75582540573884
 20
0.3208131761817998
 30
0.0
 10
14.75577932566121
 20
0.3191736699979808
 30
0.0
  0
SPLINE
  5
C2
330
1F
100
AcDbEntity
  8
0
  6
Continuous
 62
     7
370
    35
100
AcDbSpline
210
0.0
220
0.0
230
1.0
 70
     8
 71
     3
 72
    15
 73
    11
 74
     0
 42
0.000000001
 43
0.00000001
 40
0.0
 40
0.0
 40
0.0
 40
0.0
 40
0.1394064381817168
 40
0.2723044483741641
 40
0.3995253362717534
 40
0.5228108782578277
 40
0.6426627165918628
 40
0.7610226208094819
 40
0.8798007967837728
 40
1.0
 40
1.0
 40
1.0
 40
1.0
 10
14.84364037578235
 20
0.3465560645063595
 30
0.0
 10
14.84210199055824
 20
0.3481467574064752
 30
0.0
 10
14.83909704225525
 20
0.3512538789881488
 30
0.0
 10
14.83425493969755
 20
0.3553674341411509
 30
0.0
 10
14.82921932934061
 20
0.3587955257766774
 30
0.0
 10
14.8240881689325
 20
0.361682642726342
 30
0.0
 10
14.81876916377209
 20
0.3638669524632977
 30
0.0
 10
14.81332381604327
 20
0.3654586957617001
 30
0.0
 10
14.80771735559908
 20
0.3664291214873579
 30
0.0
 10
14.80392311881178
 20
0.366540155364665
 30
0.0
 10
14.80201471961437
 20
0.3665960024227738
 30
0.0
  0
SPLINE
  5
C4
330
1F
100
AcDbEntity
  8
0
  6
Continuous
 62
     7
370
    35
100
AcDbSpline
210
0.0
220
0.0
230
1.0
 70
     8
 71
     3
 72
    23
 73
    19
 74
     0
 42
0.000000001
 43
0.00000001
 40
0.0
 40
0.0
 40
0.0
 40
0.0
 40
0.0622757783707681
 40
0.1239040620075137
 40
0.1850672407687221
 40
0.2468401515201983
 40
0.3084353298497682
 40
0.370241250709097
 40
0.432586588879857
 40
0.4959245816612444
 40
0.5593510709509417
 40
0.6219426542010924
 40
0.6843928672352002
 40
0.7469858082645403
 40
0.8094414645317045
 40
0.8725078327139338
 40
0.9357692970662361
 40
1.0
 40
1.0
 40
1.0
 40
1.0
 10
14.80298083232384
 20
0.3913284877851805
 30
0.0
 10
14.80437089067953
 20
0.3913076650278526
 30
0.0
 10
14.80713655465361
 20
0.3912662360119077
 30
0.0
 10
14.81125509240851
 20
0.3909208800873045
 30
0.0
 10
14.81534069202666
 20
0.3903785021010999
 30
0.0
 10
14.81937872580772
 20
0.3895601692243008
 30
0.0
 10
14.82339807789722
 20
0.3885887046871602
 30
0.0
 10
14.82734592950477
 20
0.3873167058773655
 30
0.0
 10
14.83128456012425
 20
0.3858988234943356
 30
0.0
 10
14.8351521981836
 20
0.3842040346197046
 30
0.0
 10
14.83895424233848
 20
0.3823540194752468
 30
0.0
 10
14.84260162371625
 20
0.3802551101090045
 30
0.0
 10
14.84615558151298
 20
0.3780364710594319
 30
0.0
 10
14.84953736215766
 20
0.375566793546652
 30
0.0
 10
14.85281031368379
 20
0.372935657366033
 30
0.0
 10
14.85595732154159
 20
0.3701307867900125
 30
0.0
 10
14.85895076889694
 20
0.3671054163913701
 30
0.0
 10
14.86082929024747
 20
0.3649678136144238
 30
0.0
 10
14.8617756915001
 20
0.3638908868362606
 30
0.0
  0
SPLINE
  5
C5
330
1F
100
AcDbEntity
  8
0
  6
Continuous
 62
     7
370
    35
100
AcDbSpline
210
0.0
220
0.0
230
1.0
 70
     8
 71
     3
 72
    15
 73
    11
 74
     0
 42
0.000000001
 43
0.00000001
 40
0.0
 40
0.0
 40
0.0
 40
0.0
 40
0.1240354330025862
 40
0.2428459548115262
 40
0.3603416824496412
 40
0.4790424316556068
 40
0.5993341100428149
 40
0.725488475770839
 40
0.8585494285275015
 40
1.0
 40
1.0
 40
1.0
 40
1.0
 10
15.4546652596911
 20
0.2711992731677769
 30
0.0
 10
15.45544042714646
 20
0.2712221896280501
 30
0.0
 10
15.45695810863697
 20
0.2712670572077506
 30
0.0
 10
15.45917122814691
 20
0.2717276168823781
 30
0.0
 10
15.46126411121189
 20
0.2724763868815962
 30
0.0
 10
15.46323043876506
 20
0.2735355746132721
 30
0.0
 10
15.46507724408754
 20
0.2748824938741333
 30
0.0
 10
15.46679550113206
 20
0.2765230635982566
 30
0.0
 10
15.46837225114852
 20
0.27847363644531
 30
0.0
 10
15.46929087286603
 20
0.2799212499782602
 30
0.0
 10
15.46976422117908
 20
0.2806671777205733
 30
0.0
  0
SPLINE
  5
C6
330
1F
100
AcDbEntity
  8
0
  6
Continuous
 62
     7
370
    35
100
AcDbSpline
210
0.0
220
0.0
230
1.0
 70
     8
 71
     3
 72
    23
 73
    19
 74
     0
 42
0.000000001
 43
0.00000001
 40
0.0
 40
0.0
 40
0.0
 40
0.0
 40
0.1107342804863374
 40
0.2123411929916451
 40
0.3055021255634788
 40
0.3898348410859821
 40
0.4666904579461212
 40
0.5352618542933015
 40
0.5967629138889589
 40
0.6510657189836118
 40
0.7010355511102048
 40
0.7478602709077506
 40
0.7918333971357154
 40
0.8342840069087797
 40
0.8753338897746162
 40
0.9160347492783193
 40
0.9576522807232318
 40
1.0
 40
1.0
 40
1.0
 40
1.0
 10
15.43238946093277
 20
0.3172690477993134
 30
0.0
 10
15.43241468698944
 20
0.3151710262651298
 30
0.0
 10
15.43246305982343
 20
0.3111479144199616
 30
0.0
 10
15.43271641412024
 20
0.3053625395021045
 30
0.0
 10
15.43322424178178
 20
0.3000973824743303
 30
0.0
 10
15.43385587686039
 20
0.2953167594184944
 30
0.0
 10
15.43474303412116
 20
0.2910516739552469
 30
0.0
 10
15.4357637659768
 20
0.2872617744195285
 30
0.0
 10
15.43702427905897
 20
0.2839953728293725
 30
0.0
 10
15.43848104480477
 20
0.2812052296696846
 30
0.0
 10
15.44009447850688
 20
0.2788316606809527
 30
0.0
 10
15.44184593176554
 20
0.2768141163502925
 30
0.0
 10
15.44367577387311
 20
0.2750670181465831
 30
0.0
 10
15.44564112015086
 20
0.2736478718048816
 30
0.0
 10
15.44773728187284
 20
0.2725603034665994
 30
0.0
 10
15.44994675994291
 20
0.2717780289920102
 30
0.0
 10
15.45227095845314
 20
0.271299166207873
 30
0.0
 10
15.45386254563339
 20
0.2712327633344618
 30
0.0
 10
15.4546652596911
 20
0.2711992731677769
 30
0.0
  0
SPLINE
  5
C7
330
1F
100
AcDbEntity
  8
0
  6
Continuous
 62
     7
370
    35
100
AcDbSpline
210
0.0
220
0.0
230
1.0
 70
     8
 71
     3
 72
    23
 73
    19
 74
     0
 42
0.000000001
 43
0.00000001
 40
0.0
 40
0.0
 40
0.0
 40
0.0
 40
0.1121147956622153
 40
0.2158018426882368
 40
0.3102026923156574
 40
0.3959929252987226
 40
0.4734102307422401
 40
0.5427784203605573
 40
0.6045480222829421
 40
0.6593572656121024
 40
0.7087643617117566
 40
0.755355505948489
 40
0.7986869938006873
 40
0.8400168391480967
 40
0.8802034470065605
 40
0.9197333482458376
 40
0.9590486059010275
 40
0.9999999999999999
 40
0.9999999999999999
 40
0.9999999999999999
 40
0.9999999999999999
 10
15.47655461336564
 20
0.3188424313547344
 30
0.0
 10
15.47654552495121
 20
0.321014362123314
 30
0.0
 10
15.47652803130492
 20
0.3251949580855357
 30
0.0
 10
15.47620707355144
 20
0.3311966953839373
 30
0.0
 10
15.47576011535578
 20
0.3366782863292399
 30
0.0
 10
15.47510634454477
 20
0.341627492757183
 30
0.0
 10
15.47426514956787
 20
0.3460563291761016
 30
0.0
 10
15.47322837358379
 20
0.3499645060663139
 30
0.0
 10
15.4720060918223
 20
0.3533597256931343
 30
0.0
 10
15.47055661131755
 20
0.3562386025556517
 30
0.0
 10
15.46895122159844
 20
0.3586852529725496
 30
0.0
 10
15.46724705140529
 20
0.3607842892506167
 30
0.0
 10
15.46543689481179
 20
0.3625763934673468
 30
0.0
 10
15.46352377898715
 20
0.3640683096248898
 30
0.0
 10
15.46146342419998
 20
0.365208245464452
 30
0.0
 10
15.45929518590968
 20
0.3660131344700775
 30
0.0
 10
15.45701461906433
 20
0.3665000653256854
 30
0.0
 10
15.45545894961487
 20
0.3665635917545113
 30
0.0
 10
15.4546652596911
 20
0.366596002422774
 30
0.0
  0
SPLINE
  5
C8
330
1F
100
AcDbEntity
  8
0
  6
Continuous
 62
     7
370
    35
100
AcDbSpline
210
0.0
220
0.0
230
1.0
 70
     8
 71
     3
 72
    27
 73
    23
 74
     0
 42
0.000000001
 43
0.00000001
 40
0.0
 40
0.0
 40
0.0
 40
0.0
 40
0.0538337008959164
 40
0.1055426304091424
 40
0.1580541720958606
 40
0.2119873357804167
 40
0.2402068903290664
 40
0.2697935103595607
 40
0.3013430987966884
 40
0.3346080613712026
 40
0.3702844416648673
 40
0.4080888380149514
 40
0.4486813458099853
 40
0.4920692965602037
 40
0.5386641566662697
 40
0.5903710538753861
 40
0.6463877841547255
 40
0.7071953757631267
 40
0.7729467746818428
 40
0.8436426012467395
 40
0.9193083570571443
 40
1.0
 40
1.0
 40
1.0
 40
1.0
 10
15.4546652596911
 20
0.366596002422774
 30
0.0
 10
15.45358302169462
 20
0.3665447064933881
 30
0.0
 10
15.45146126073491
 20
0.3664441392422694
 30
0.0
 10
15.44838248448913
 20
0.3655904651665219
 30
0.0
 10
15.44547939071831
 20
0.3642719195280901
 30
0.0
 10
15.44327108482518
 20
0.362685256007772
 30
0.0
 10
15.44161818982716
 20
0.3611642487481023
 30
0.0
 10
15.44046330023981
 20
0.3597877866433816
 30
0.0
 10
15.43934959125548
 20
0.3582517541372936
 30
0.0
 10
15.43836590739622
 20
0.3564868379797221
 30
0.0
 10
15.43743705305571
 20
0.3545564536950295
 30
0.0
 10
15.43652928238616
 20
0.3524518384939557
 30
0.0
 10
15.43578514880526
 20
0.3501212984752436
 30
0.0
 10
15.43505405728992
 20
0.3476045230344663
 30
0.0
 10
15.43441355290599
 20
0.3448319300173447
 30
0.0
 10
15.43387695064828
 20
0.34178085653498
 30
0.0
 10
15.43339754369874
 20
0.3384314611761925
 30
0.0
 10
15.43306315163408
 20
0.3347815500826656
 30
0.0
 10
15.43275139787991
 20
0.3308349419610595
 30
0.0
 10
15.43252791802559
 20
0.3265828453003985
 30
0.0
 10
15.43243448670794
 20
0.3220264072252008
 30
0.0
 10
15.43240478773497
 20
0.3188884559411806
 30
0.0
 10
15.43238946093277
 20
0.3172690477993134
 30
0.0
  0
SPLINE
  5
C9
330
1F
100
AcDbEntity
  8
0
  6
Continuous
 62
     7
370
    35
100
AcDbSpline
210
0.0
220
0.0
230
1.0
 70
     8
 71
     3
 72
    15
 73
    11
 74
     0
 42
0.000000001
 43
0.00000001
 40
0.0
 40
0.0
 40
0.0
 40
0.0
 40
0.08887073112253
 40
0.1863547159715008
 40
0.2940776543961819
 40
0.4122365279576096
 40
0.541778144420969
 40
0.682702606631569
 40
0.835096352604172
 40
1.0
 40
1.0
 40
1.0
 40
1.0
 10
15.46976422117908
 20
0.2806671777205733
 30
0.0
 10
15.47032150909734
 20
0.281686464140378
 30
0.0
 10
15.47149009666728
 20
0.2838238251011475
 30
0.0
 10
15.47284238822111
 20
0.2874305420271739
 30
0.0
 10
15.47398067188036
 20
0.2914983226117371
 30
0.0
 10
15.47496037598096
 20
0.296039826174255
 30
0.0
 10
15.47563043382225
 20
0.3010729649650006
 30
0.0
 10
15.47620748681779
 20
0.3065658234154189
 30
0.0
 10
15.47648581381679
 20
0.3125460613380295
 30
0.0
 10
15.47653108521952
 20
0.31668919174442
 30
0.0
 10
15.47655461336564
 20
0.3188424313547344
 30
0.0
  0
SPLINE
  5
CB
330
1F
100
AcDbEntity
  8
0
  6
Continuous
 62
     7
370
    35
100
AcDbSpline
210
0.0
220
0.0
230
1.0
 70
     8
 71
     3
 72
    15
 73
    11
 74
     0
 42
0.000000001
 43
0.00000001
 40
0.0
 40
0.0
 40
0.0
 40
0.0
 40
0.0821011604415345
 40
0.1738249811011791
 40
0.2789530937157544
 40
0.3966390953456606
 40
0.5273155915890836
 40
0.6712981430820761
 40
0.8287543799634268
 40
1.0
 40
1.0
 40
1.0
 40
1.0
 10
15.17681124444781
 20
0.3603300714213606
 30
0.0
 10
15.17637381163356
 20
0.3605512937390199
 30
0.0
 10
15.17544767672558
 20
0.3610196667191276
 30
0.0
 10
15.17387037918705
 20
0.3615641845540998
 30
0.0
 10
15.17205020191373
 20
0.3620235453319015
 30
0.0
 10
15.16997485665715
 20
0.3624048103424866
 30
0.0
 10
15.16765262256716
 20
0.3627007115858102
 30
0.0
 10
15.16508391396673
 20
0.3629270020131594
 30
0.0
 10
15.16226495076148
 20
0.3630180022083848
 30
0.0
 10
15.16030453052394
 20
0.3630474491121923
 30
0.0
 10
15.15928319957601
 20
0.3630627902281445
 30
0.0
  0
SPLINE
  5
CC
330
1F
100
AcDbEntity
  8
0
  6
Continuous
 62
     7
370
    35
100
AcDbSpline
210
0.0
220
0.0
230
1.0
 70
     8
 71
     3
 72
    15
 73
    11
 74
     0
 42
0.000000001
 43
0.00000001
 40
0.0
 40
0.0
 40
0.0
 40
0.0
 40
0.1377876848510248
 40
0.2673412375379498
 40
0.3904443306691154
 40
0.5117778827581431
 40
0.6295089809480918
 40
0.7478290655178296
 40
0.8718853097299587
 40
1.0
 40
1.0
 40
1.0
 40
1.0
 10
15.18329800121139
 20
0.3486815124671915
 30
0.0
 10
15.18327625396555
 20
0.3493268952060273
 30
0.0
 10
15.18323405907985
 20
0.3505790928917097
 30
0.0
 10
15.18292408395963
 20
0.3523863247455805
 30
0.0
 10
15.18243007278546
 20
0.3540710376484387
 30
0.0
 10
15.18171426958465
 20
0.3556156370044973
 30
0.0
 10
15.18078890553963
 20
0.357017498292894
 30
0.0
 10
15.17966069950675
 20
0.3582760692716268
 30
0.0
 10
15.17834412858427
 20
0.35941830330184
 30
0.0
 10
15.17732765885735
 20
0.3600229052214641
 30
0.0
 10
15.17681124444781
 20
0.3603300714213608
 30
0.0
  0
SPLINE
  5
CF
330
1F
100
AcDbEntity
  8
0
  6
Continuous
 62
     7
370
    35
100
AcDbSpline
210
0.0
220
0.0
230
1.0
 70
     8
 71
     3
 72
    19
 73
    15
 74
     0
 42
0.000000001
 43
0.00000001
 40
0.0
 40
0.0
 40
0.0
 40
0.0
 40
0.1551595916613729
 40
0.2854959537028702
 40
0.3905028055298798
 40
0.4709750446262695
 40
0.5384455267337893
 40
0.6036553403942028
 40
0.6665871693156171
 40
0.7301989498865114
 40
0.7949446749029779
 40
0.8602284365898023
 40
0.9281207061405473
 40
1.0
 40
1.0
 40
1.0
 40
1.0
 10
15.16024931228548
 20
0.3347970926711084
 30
0.0
 10
15.16184155311086
 20
0.3348071887137328
 30
0.0
 10
15.16477129988383
 20
0.3348257655821487
 30
0.0
 10
15.16877229938767
 20
0.3350943978992889
 30
0.0
 10
15.17198757954986
 20
0.3355046537086723
 30
0.0
 10
15.17452771058577
 20
0.3360930554167763
 30
0.0
 10
15.17653338463091
 20
0.3369860329222197
 30
0.0
 10
15.17826315292607
 20
0.3380190397386721
 30
0.0
 10
15.17974681935314
 20
0.3393252485005485
 30
0.0
 10
15.18103145610574
 20
0.3408178155094266
 30
0.0
 10
15.18205848447404
 20
0.3425328498115934
 30
0.0
 10
15.18277067515442
 20
0.3444424254022178
 30
0.0
 10
15.18323330021795
 20
0.3465064200536859
 30
0.0
 10
15.18327602794002
 20
0.3479428237192284
 30
0.0
 10
15.18329800121139
 20
0.3486815124671915
 30
0.0
  0
SPLINE
  5
D0
330
1F
100
AcDbEntity
  8
0
  6
Continuous
 62
     7
370
    35
100
AcDbSpline
210
0.0
220
0.0
230
1.0
 70
     8
 71
     3
 72
    15
 73
    11
 74
     0
 42
0.000000001
 43
0.00000001
 40
0.0
 40
0.0
 40
0.0
 40
0.0
 40
0.1211522424913173
 40
0.2376005895733305
 40
0.3560524880869094
 40
0.4805249744885744
 40
0.6076386115432892
 40
0.7334299283789845
 40
0.8621816073824693
 40
1.0
 40
1.0
 40
1.0
 40
1.0
 10
15.34734393927922
 20
0.2711992731677768
 30
0.0
 10
15.34853846056962
 20
0.2712690977347622
 30
0.0
 10
15.35088112428776
 20
0.2714060358379391
 30
0.0
 10
15.35426057034293
 20
0.2724721500394597
 30
0.0
 10
15.35734771459074
 20
0.2742534311165061
 30
0.0
 10
15.36007734726352
 20
0.2766952363874983
 30
0.0
 10
15.3624220498575
 20
0.2796126681617503
 30
0.0
 10
15.36404434721511
 20
0.2830301736873417
 30
0.0
 10
15.3650917765286
 20
0.286779523373877
 30
0.0
 10
15.36520163283697
 20
0.2894099891154566
 30
0.0
 10
15.3652584292348
 20
0.290769956339592
 30
0.0
  0
SPLINE
  5
D1
330
1F
100
AcDbEntity
  8
0
  6
Continuous
 62
     7
370
    35
100
AcDbSpline
210
0.0
220
0.0
230
1.0
 70
     8
 71
     3
 72
    15
 73
    11
 74
     0
 42
0.000000001
 43
0.00000001
 40
0.0
 40
0.0
 40
0.0
 40
0.0
 40
0.1227180515039335
 40
0.2401431180449971
 40
0.3573623765102225
 40
0.4816738524649331
 40
0.6078658287995936
 40
0.7329554806750241
 40
0.8621444613629506
 40
1.0
 40
1.0
 40
1.0
 40
1.0
 10
15.34726112961841
 20
0.3100646073087016
 30
0.0
 10
15.3460743896957
 20
0.310010174055923
 30
0.0
 10
15.34375209544596
 20
0.3099036553254884
 30
0.0
 10
15.34045014032341
 20
0.3087881393251531
 30
0.0
 10
15.33743950641828
 20
0.3070381723546126
 30
0.0
 10
15.3348298517139
 20
0.3046010049178
 30
0.0
 10
15.33264711567557
 20
0.3016884941268616
 30
0.0
 10
15.33104316465139
 20
0.2983663865372825
 30
0.0
 10
15.3300782989654
 20
0.2946790147629124
 30
0.0
 10
15.32997805560041
 20
0.2921008658910079
 30
0.0
 10
15.32992630728851
 20
0.290769956339592
 30
0.0
  0
SPLINE
  5
D2
330
1F
100
AcDbEntity
  8
0
  6
Continuous
 62
     7
370
    35
100
AcDbSpline
210
0.0
220
0.0
230
1.0
 70
     8
 71
     3
 72
    15
 73
    11
 74
     0
 42
0.000000001
 43
0.00000001
 40
0.0
 40
0.0
 40
0.0
 40
0.0
 40
0.1354037467141843
 40
0.262225165451648
 40
0.3858490677562311
 40
0.5108573636088446
 40
0.6349774647635212
 40
0.7532990766585154
 40
0.8739320409395303
 40
1.0
 40
1.0
 40
1.0
 40
1.0
 10
15.3652584292348
 20
0.290769956339592
 30
0.0
 10
15.3651937277626
 20
0.2921000887914638
 30
0.0
 10
15.36506842580704
 20
0.2946760455927253
 30
0.0
 10
15.36412725964037
 20
0.2983806918564979
 30
0.0
 10
15.36244687100262
 20
0.3016899948165209
 30
0.0
 10
15.36021474879872
 20
0.3046130273037187
 30
0.0
 10
15.35751528362996
 20
0.3070491080028441
 30
0.0
 10
15.35438415801803
 20
0.3088019401119474
 30
0.0
 10
15.3509313640782
 20
0.3099016789926097
 30
0.0
 10
15.3485023785248
 20
0.3100095060348225
 30
0.0
 10
15.34726112961841
 20
0.3100646073087016
 30
0.0
  0
SPLINE
  5
D3
330
1F
100
AcDbEntity
  8
0
  6
Continuous
 62
     7
370
    35
100
AcDbSpline
210
0.0
220
0.0
230
1.0
 70
     8
 71
     3
 72
    15
 73
    11
 74
     0
 42
0.000000001
 43
0.00000001
 40
0.0
 40
0.0
 40
0.0
 40
0.0
 40
0.1372849921823471
 40
0.2670284865720353
 40
0.3949256401701657
 40
0.5243347615083338
 40
0.6508125264300959
 40
0.7692674670454979
 40
0.8834346835668468
 40
1.0
 40
1.0
 40
1.0
 40
1.0
 10
15.32992630728851
 20
0.290769956339592
 30
0.0
 10
15.32998757891071
 20
0.2894386035911288
 30
0.0
 10
15.33010675631158
 20
0.2868490335014614
 30
0.0
 10
15.33110790220779
 20
0.2831265513644644
 30
0.0
 10
15.33274708867868
 20
0.2797290025659344
 30
0.0
 10
15.33504594318096
 20
0.2767778946778623
 30
0.0
 10
15.33774476532366
 20
0.2743282466552954
 30
0.0
 10
15.34073743897412
 20
0.2725166148064163
 30
0.0
 10
15.34397404526053
 20
0.271403669914958
 30
0.0
 10
15.34621288487354
 20
0.2712678758716379
 30
0.0
 10
15.34734393927922
 20
0.2711992731677768
 30
0.0
  0
LINE
  5
DA
330
1F
100
AcDbEntity
  8
0
  6
Continuous
 62
     7
370
    35
100
AcDbLine
 10
14.7169139915
 20
0.25
 30
0.0
 11
14.653316172
 21
0.25
 31
0.0
  0
LINE
  5
DB
330
1F
100
AcDbEntity
  8
0
  6
Continuous
 62
     7
370
    35
100
AcDbLine
 10
14.7169139915
 20
0.2747324854
 30
0.0
 11
14.7169139915
 21
0.25
 31
0.0
  0
LINE
  5
DC
330
1F
100
AcDbEntity
  8
0
  6
Continuous
 62
     7
370
    35
100
AcDbLine
 10
14.6780486574
 20
0.2747324854
 30
0.0
 11
14.7169139915
 21
0.2747324854
 31
0.0
  0
LINE
  5
DD
330
1F
100
AcDbEntity
  8
0
  6
Continuous
 62
     7
370
    35
100
AcDbLine
 10
14.6780486574
 20
0.3877952756
 30
0.0
 11
14.6780486574
 21
0.2747324854
 31
0.0
  0
LINE
  5
DE
330
1F
100
AcDbEntity
  8
0
  6
Continuous
 62
     7
370
    35
100
AcDbLine
 10
14.653316172
 20
0.3877952756
 30
0.0
 11
14.6780486574
 21
0.3877952756
 31
0.0
  0
LINE
  5
DF
330
1F
100
AcDbEntity
  8
0
  6
Continuous
 62
     7
370
    35
100
AcDbLine
 10
14.653316172
 20
0.25
 30
0.0
 11
14.653316172
 21
0.3877952756
 31
0.0
  0
LINE
  5
E0
330
1F
100
AcDbEntity
  8
0
  6
Continuous
 62
     7
370
    35
100
AcDbLine
 10
14.8759085403
 20
0.275809011
 30
0.0
 11
14.8976598779
 21
0.2888653341
 31
0.0
  0
LINE
  5
E1
330
1F
100
AcDbEntity
  8
0
  6
Continuous
 62
     7
370
    35
100
AcDbLine
 10
14.9571724208
 20
0.3693839277
 30
0.0
 11
14.9386782632
 21
0.3524631536
 31
0.0
  0
LINE
  5
E2
330
1F
100
AcDbEntity
  8
0
  6
Continuous
 62
     7
370
    35
100
AcDbLine
 10
15.1514990915
 20
0.25
 30
0.0
 11
15.1267666061
 21
0.25
 31
0.0
  0
LINE
  5
E3
330
1F
100
AcDbEntity
  8
0
  6
Continuous
 62
     7
370
    35
100
AcDbLine
 10
15.1514990915
 20
0.3100646073
 30
0.0
 11
15.1514990915
 21
0.25
 31
0.0
  0
LINE
  5
E4
330
1F
100
AcDbEntity
  8
0
  6
Continuous
 62
     7
370
    35
100
AcDbLine
 10
15.1267666061
 20
0.3877952756
 30
0.0
 11
15.1543698264
 21
0.3877952756
 31
0.0
  0
LINE
  5
E5
330
1F
100
AcDbEntity
  8
0
  6
Continuous
 62
     7
370
    35
100
AcDbLine
 10
15.1267666061
 20
0.25
 30
0.0
 11
15.1267666061
 21
0.3877952756
 31
0.0
  0
LINE
  5
E6
330
1F
100
AcDbEntity
  8
0
  6
Continuous
 62
     7
370
    35
100
AcDbLine
 10
15.3724628697
 20
0.3802319932
 30
0.0
 11
15.3484480681
 21
0.3330304866
 31
0.0
  0
LINE
  5
E7
330
1F
100
AcDbEntity
  8
0
  6
Continuous
 62
     7
370
    35
100
AcDbLine
 10
15.3505735161
 20
0.3913284878
 30
0.0
 11
15.3724628697
 21
0.3802319932
 31
0.0
  0
LINE
  5
E8
330
1F
100
AcDbEntity
  8
0
  6
Continuous
 62
     7
370
    35
100
AcDbLine
 10
15.3155726327
 20
0.3225412629
 30
0.0
 11
15.3505735161
 21
0.3913284878
 31
0.0
  0
LINE
  5
E9
330
1F
100
AcDbEntity
  8
0
  6
Continuous
 62
     7
370
    35
100
AcDbLine
 10
15.5118867353
 20
0.2782656976
 30
0.0
 11
15.5118867353
 21
0.3033018183
 31
0.0
  0
LINE
  5
EA
330
1F
100
AcDbEntity
  8
0
  6
Continuous
 62
     7
370
    35
100
AcDbLine
 10
15.5701847365
 20
0.2782656976
 30
0.0
 11
15.5118867353
 21
0.2782656976
 31
0.0
  0
LINE
  5
EB
330
1F
100
AcDbEntity
  8
0
  6
Continuous
 62
     7
370
    35
100
AcDbLine
 10
15.5701847365
 20
0.25
 30
0.0
 11
15.5701847365
 21
0.2782656976
 31
0.0
  0
LINE
  5
EC
330
1F
100
AcDbEntity
  8
0
  6
Continuous
 62
     7
370
    35
100
AcDbLine
 10
15.5949172219
 20
0.25
 30
0.0
 11
15.5701847365
 21
0.25
 31
0.0
  0
LINE
  5
ED
330
1F
100
AcDbEntity
  8
0
  6
Continuous
 62
     7
370
    35
100
AcDbLine
 10
15.5949172219
 20
0.2782656976
 30
0.0
 11
15.5949172219
 21
0.25
 31
0.0
  0
LINE
  5
EE
330
1F
100
AcDbEntity
  8
0
  6
Continuous
 62
     7
370
    35
100
AcDbLine
 10
15.6072834646
 20
0.2782656976
 30
0.0
 11
15.5949172219
 21
0.2782656976
 31
0.0
  0
LINE
  5
EF
330
1F
100
AcDbEntity
  8
0
  6
Continuous
 62
     7
370
    35
100
AcDbLine
 10
15.6072834646
 20
0.3012315768
 30
0.0
 11
15.6072834646
 21
0.2782656976
 31
0.0
  0
LINE
  5
F0
330
1F
100
AcDbEntity
  8
0
  6
Continuous
 62
     7
370
    35
100
AcDbLine
 10
15.5949172219
 20
0.3012315768
 30
0.0
 11
15.6072834646
 21
0.3012315768
 31
0.0
  0
LINE
  5
F1
330
1F
100
AcDbEntity
  8
0
  6
Continuous
 62
     7
370
    35
100
AcDbLine
 10
15.5949172219
 20
0.3913284878
 30
0.0
 11
15.5949172219
 21
0.3012315768
 31
0.0
  0
LINE
  5
F2
330
1F
100
AcDbEntity
  8
0
  6
Continuous
 62
     7
370
    35
100
AcDbLine
 10
15.5691358142
 20
0.3913284878
 30
0.0
 11
15.5949172219
 21
0.3913284878
 31
0.0
  0
LINE
  5
F3
330
1F
100
AcDbEntity
  8
0
  6
Continuous
 62
     7
370
    35
100
AcDbLine
 10
15.5118867353
 20
0.3033018183
 30
0.0
 11
15.5691358142
 21
0.3913284878
 31
0.0
  0
LINE
  5
F4
330
1F
100
AcDbEntity
  8
0
  6
Continuous
 62
     7
370
    35
100
AcDbLine
 10
16.375
 20
2.5125
 30
0.0
 11
0.0
 21
2.5125
 31
0.0
  0
LINE
  5
F5
330
1F
100
AcDbEntity
  8
0
  6
Continuous
 62
     7
370
    35
100
AcDbLine
 10
16.375
 20
0.0
 30
0.0
 11
16.375
 21
2.5125
 31
0.0
  0
LINE
  5
F6
330
1F
100
AcDbEntity
  8
0
  6
Continuous
 62
     7
370
    35
100
AcDbLine
 10
0.0
 20
0.0
 30
0.0
 11
16.375
 21
0.0
 31
0.0
  0
LINE
  5
F7
330
1F
100
AcDbEntity
  8
0
  6
Continuous
 62
     7
370
    35
100
AcDbLine
 10
0.0
 20
2.5125
 30
0.0
 11
0.0
 21
0.0
 31
0.0
  0
LINE
  5
F8
330
1F
100
AcDbEntity
  8
0
  6
Continuous
 62
     7
370
    35
100
AcDbLine
 10
15.2804613366
 20
0.2888653341
 30
0.0
 11
15.2327629719
 21
0.2888653341
 31
0.0
  0
LINE
  5
F9
330
1F
100
AcDbEntity
  8
0
  6
Continuous
 62
     7
370
    35
100
AcDbLine
 10
15.2804613366
 20
0.3118312134
 30
0.0
 11
15.2804613366
 21
0.2888653341
 31
0.0
  0
LINE
  5
FA
330
1F
100
AcDbEntity
  8
0
  6
Continuous
 62
     7
370
    35
100
AcDbLine
 10
15.2327629719
 20
0.3118312134
 30
0.0
 11
15.2804613366
 21
0.3118312134
 31
0.0
  0
LINE
  5
FB
330
1F
100
AcDbEntity
  8
0
  6
Continuous
 62
     7
370
    35
100
AcDbLine
 10
15.2327629719
 20
0.2888653341
 30
0.0
 11
15.2327629719
 21
0.3118312134
 31
0.0
  0
LINE
  5
FC
330
1F
100
AcDbEntity
  8
0
  6
Continuous
 62
     7
370
    35
100
AcDbLine
 10
14.9985772512
 20
0.25
 30
0.0
 11
14.9721885726
 21
0.25
 31
0.0
  0
LINE
  5
FD
330
1F
100
AcDbEntity
  8
0
  6
Continuous
 62
     7
370
    35
100
AcDbLine
 10
15.0092873006
 20
0.2782656976
 30
0.0
 11
14.9985772512
 21
0.25
 31
0.0
  0
LINE
  5
FE
330
1F
100
AcDbEntity
  8
0
  6
Continuous
 62
     7
370
    35
100
AcDbLine
 10
15.0693243047
 20
0.2782656976
 30
0.0
 11
15.0092873006
 21
0.2782656976
 31
0.0
  0
LINE
  5
FF
330
1F
100
AcDbEntity
  8
0
  6
Continuous
 62
     7
370
    35
100
AcDbLine
 10
15.0800343542
 20
0.25
 30
0.0
 11
15.0693243047
 21
0.2782656976
 31
0.0
  0
LINE
  5
100
330
1F
100
AcDbEntity
  8
0
  6
Continuous
 62
     7
370
    35
100
AcDbLine
 10
15.106450636
 20
0.25
 30
0.0
 11
15.0800343542
 21
0.25
 31
0.0
  0
LINE
  5
101
330
1F
100
AcDbEntity
  8
0
  6
Continuous
 62
     7
370
    35
100
AcDbLine
 10
15.0508025439
 20
0.3877952756
 30
0.0
 11
15.106450636
 21
0.25
 31
0.0
  0
LINE
  5
102
330
1F
100
AcDbEntity
  8
0
  6
Continuous
 62
     7
370
    35
100
AcDbLine
 10
15.0278642679
 20
0.3877952756
 30
0.0
 11
15.0508025439
 21
0.3877952756
 31
0.0
  0
LINE
  5
103
330
1F
100
AcDbEntity
  8
0
  6
Continuous
 62
     7
370
    35
100
AcDbLine
 10
14.9721885726
 20
0.25
 30
0.0
 11
15.0278642679
 21
0.3877952756
 31
0.0
  0
LINE
  5
104
330
1F
100
AcDbEntity
  8
0
  6
Continuous
 62
     7
370
    35
100
AcDbLine
 10
14.8436403758
 20
0.2912392111
 30
0.0
 11
14.8612236271
 21
0.2727726567
 31
0.0
  0
LINE
  5
105
330
1F
100
AcDbEntity
  8
0
  6
Continuous
 62
     7
370
    35
100
AcDbLine
 10
14.8617756915
 20
0.3638908868
 30
0.0
 11
14.8436403758
 21
0.3465560645
 31
0.0
  0
LINE
  5
106
330
1F
100
AcDbEntity
  8
0
  6
Continuous
 62
     7
370
    35
100
AcDbLine
 10
15.1592831996
 20
0.3630627902
 30
0.0
 11
15.1514990915
 21
0.3630627902
 31
0.0
  0
LINE
  5
107
330
1F
100
AcDbEntity
  8
0
  6
Continuous
 62
     7
370
    35
100
AcDbLine
 10
15.1514990915
 20
0.3347970927
 30
0.0
 11
15.1602493123
 21
0.3347970927
 31
0.0
  0
LINE
  5
108
330
1F
100
AcDbEntity
  8
0
  6
Continuous
 62
     7
370
    35
100
AcDbLine
 10
15.1514990915
 20
0.3630627902
 30
0.0
 11
15.1514990915
 21
0.3347970927
 31
0.0
  0
LINE
  5
109
330
1F
100
AcDbEntity
  8
0
  6
Continuous
 62
     7
370
    35
100
AcDbLine
 10
15.0393196043
 20
0.3508345636
 30
0.0
 11
15.0186723955
 21
0.3029981829
 31
0.0
  0
LINE
  5
10A
330
1F
100
AcDbEntity
  8
0
  6
Continuous
 62
     7
370
    35
100
AcDbLine
 10
15.0186723955
 20
0.3029981829
 30
0.0
 11
15.059966813
 21
0.3029981829
 31
0.0
  0
LINE
  5
10B
330
1F
100
AcDbEntity
  8
0
  6
Continuous
 62
     7
370
    35
100
AcDbLine
 10
15.059966813
 20
0.3029981829
 30
0.0
 11
15.0393196043
 21
0.3508345636
 31
0.0
  0
LINE
  5
10C
330
1F
100
AcDbEntity
  8
0
  6
Continuous
 62
     7
370
    35
100
AcDbLine
 10
15.5396831781
 20
0.3012315768
 30
0.0
 11
15.5701847365
 21
0.3012315768
 31
0.0
  0
LINE
  5
10D
330
1F
100
AcDbEntity
  8
0
  6
Continuous
 62
     7
370
    35
100
AcDbLine
 10
15.5701847365
 20
0.3012315768
 30
0.0
 11
15.5701847365
 21
0.3481294481
 31
0.0
  0
LINE
  5
10E
330
1F
100
AcDbEntity
  8
0
  6
Continuous
 62
     7
370
    35
100
AcDbLine
 10
15.5701847365
 20
0.3481294481
 30
0.0
 11
15.5396831781
 21
0.3012315768
 31
0.0
  0
MTEXT
  5
110
330
1F
100
AcDbEntity
  8
0
  6
Continuous
 62
     7
100
AcDbMText
 10
0.0
 20
-0.0401404091
 30
0.0
 40
0.1903
 41
0.0
 71
     1
 72
     1
  1
SOLIDWORKS Educational Product.
  7
SLDTEXTSTYLE0
 73
     1
 44
1.0
  0
MTEXT
  5
111
330
1F
100
AcDbEntity
  8
0
  6
Continuous
 62
     7
100
AcDbMText
 10
0.0
 20
-0.3255904091
 30
0.0
 40
0.1903
 41
0.0
 71
     1
 72
     1
  1
For Instructional Use Only.
  7
SLDTEXTSTYLE0
 73
     1
 44
1.0
  0
ENDSEC
  0
SECTION
  2
OBJECTS
  0
DICTIONARY
  5
C
330
0
100
AcDbDictionary
281
     1
  3
ACAD_GROUP
350
D
  3
ACAD_LAYOUT
350
1A
  3
ACAD_MLINESTYLE
350
17
  3
ACAD_PLOTSETTINGS
350
19
  3
ACAD_PLOTSTYLENAME
350
E
  3
ACAD_SCALELIST
350
47
  0
DICTIONARY
  5
D
102
{ACAD_REACTORS
330
C
102
}
330
C
100
AcDbDictionary
281
     1
  0
DICTIONARY
  5
1A
102
{ACAD_REACTORS
330
C
102
}
330
C
100
AcDbDictionary
281
     1
  3
Layout1
350
1E
  3
Layout2
350
26
  3
Model
350
22
  0
DICTIONARY
  5
17
102
{ACAD_REACTORS
330
C
102
}
330
C
100
AcDbDictionary
281
     1
  3
Standard
350
18
  0
DICTIONARY
  5
19
102
{ACAD_REACTORS
330
C
102
}
330
C
100
AcDbDictionary
281
     1
  0
ACDBDICTIONARYWDFLT
  5
E
102
{ACAD_REACTORS
330
C
102
}
330
C
100
AcDbDictionary
281
     1
  3
Normal
350
F
100
AcDbDictionaryWithDefault
340
F
  0
DICTIONARY
  5
47
102
{ACAD_REACTORS
330
C
102
}
330
C
100
AcDbDictionary
281
     1
  3
A0
350
48
  3
A1
350
49
  3
A2
350
4A
  3
A3
350
4B
  3
A4
350
4C
  3
A5
350
4D
  3
A6
350
4E
  3
A7
350
4F
  3
A8
350
50
  3
A9
350
51
  3
B0
350
52
  3
B1
350
53
  3
B2
350
54
  3
B3
350
55
  3
B4
350
56
  3
B5
350
57
  3
B6
350
58
  3
B7
350
59
  3
B8
350
5A
  3
B9
350
5B
  3
C0
350
5C
  3
C1
350
5D
  3
C2
350
5E
  3
C3
350
5F
  3
C4
350
60
  3
C5
350
61
  3
C6
350
62
  3
C7
350
63
  3
C8
350
64
  3
C9
350
65
  3
D0
350
66
  3
D1
350
67
  3
D2
350
68
  0
LAYOUT
  5
1E
102
{ACAD_REACTORS
330
1A
102
}
330
1A
100
AcDbPlotSettings
  1

  2
none_device
  4

  6

 40
0.0
 41
0.0
 42
0.0
 43
0.0
 44
0.0
 45
0.0
 46
0.0
 47
0.0
 48
0.0
 49
0.0
140
0.0
141
0.0
142
1.0
143
1.0
 70
   688
 72
     0
 73
     0
 74
     5
  7

 75
    16
147
1.0
148
0.0
149
0.0
100
AcDbLayout
  1
Layout1
 70
     1
 71
     1
 10
0.0
 20
0.0
 11
12.0
 21
9.0
 12
0.0
 22
0.0
 32
0.0
 14
1.0000000000E+20
 24
1.0000000000E+20
 34
1.0000000000E+20
 15
-1.0000000000E+20
 25
-1.0000000000E+20
 35
-1.0000000000E+20
146
0.0
 13
0.0
 23
0.0
 33
0.0
 16
1.0
 26
0.0
 36
0.0
 17
0.0
 27
1.0
 37
0.0
 76
     0
330
1B
  0
LAYOUT
  5
26
102
{ACAD_REACTORS
330
1A
102
}
330
1A
100
AcDbPlotSettings
  1

  2
none_device
  4

  6

 40
0.0
 41
0.0
 42
0.0
 43
0.0
 44
0.0
 45
0.0
 46
0.0
 47
0.0
 48
0.0
 49
0.0
140
0.0
141
0.0
142
1.0
143
1.0
 70
   688
 72
     0
 73
     0
 74
     5
  7

 75
    16
147
1.0
148
0.0
149
0.0
100
AcDbLayout
  1
Layout2
 70
     1
 71
     2
 10
0.0
 20
0.0
 11
0.0
 21
0.0
 12
0.0
 22
0.0
 32
0.0
 14
0.0
 24
0.0
 34
0.0
 15
0.0
 25
0.0
 35
0.0
146
0.0
 13
0.0
 23
0.0
 33
0.0
 16
1.0
 26
0.0
 36
0.0
 17
0.0
 27
1.0
 37
0.0
 76
     0
330
23
  0
LAYOUT
  5
22
102
{ACAD_REACTORS
330
1A
102
}
330
1A
100
AcDbPlotSettings
  1

  2
none_device
  4
ANSI_A_(11.00_x_8.50_Inches)
  6

 40
6.35
 41
19.05
 42
6.35000508
 43
19.05000254
 44
279.4
 45
215.9
 46
-4.95300254
 47
67.6794620888
 48
0.0
 49
0.0
140
0.0
141
0.0
142
0.6650381679
143
1.0
 70
  1696
 72
     0
 73
     0
 74
     0
  7

 75
     0
147
0.5913241897
148
-39.4088153714
149
0.0
100
AcDbLayout
  1
Model
 70
     1
 71
     0
 10
0.0
 20
0.0
 11
12.0
 21
9.0
 12
0.0
 22
0.0
 32
0.0
 14
0.0
 24
0.0
 34
0.0
 15
16.375
 25
2.5125
 35
0.0
146
0.0
 13
0.0
 23
0.0
 33
0.0
 16
1.0
 26
0.0
 36
0.0
 17
0.0
 27
1.0
 37
0.0
 76
     0
330
1F
331
29
  0
MLINESTYLE
  5
18
102
{ACAD_REACTORS
330
17
102
}
330
17
100
AcDbMlineStyle
  2
Standard
 70
     0
  3

 62
   256
 51
90.0
 52
90.0
 71
     2
 49
0.5
 62
   256
  6
BYLAYER
 49
-0.5
 62
   256
  6
BYLAYER
  0
ACDBPLACEHOLDER
  5
F
102
{ACAD_REACTORS
330
E
102
}
330
E
  0
SCALE
  5
48
102
{ACAD_REACTORS
330
47
102
}
330
47
100
AcDbScale
 70
     0
300
1:1
140
1.0
141
1.0
290
     1
  0
SCALE
  5
49
102
{ACAD_REACTORS
330
47
102
}
330
47
100
AcDbScale
 70
     0
300
1:2
140
1.0
141
2.0
290
     0
  0
SCALE
  5
4A
102
{ACAD_REACTORS
330
47
102
}
330
47
100
AcDbScale
 70
     0
300
1:4
140
1.0
141
4.0
290
     0
  0
SCALE
  5
4B
102
{ACAD_REACTORS
330
47
102
}
330
47
100
AcDbScale
 70
     0
300
1:5
140
1.0
141
5.0
290
     0
  0
SCALE
  5
4C
102
{ACAD_REACTORS
330
47
102
}
330
47
100
AcDbScale
 70
     0
300
1:8
140
1.0
141
8.0
290
     0
  0
SCALE
  5
4D
102
{ACAD_REACTORS
330
47
102
}
330
47
100
AcDbScale
 70
     0
300
1:10
140
1.0
141
10.0
290
     0
  0
SCALE
  5
4E
102
{ACAD_REACTORS
330
47
102
}
330
47
100
AcDbScale
 70
     0
300
1:16
140
1.0
141
16.0
290
     0
  0
SCALE
  5
4F
102
{ACAD_REACTORS
330
47
102
}
330
47
100
AcDbScale
 70
     0
300
1:20
140
1.0
141
20.0
290
     0
  0
SCALE
  5
50
102
{ACAD_REACTORS
330
47
102
}
330
47
100
AcDbScale
 70
     0
300
1:30
140
1.0
141
30.0
290
     0
  0
SCALE
  5
51
102
{ACAD_REACTORS
330
47
102
}
330
47
100
AcDbScale
 70
     0
300
1:40
140
1.0
141
40.0
290
     0
  0
SCALE
  5
52
102
{ACAD_REACTORS
330
47
102
}
330
47
100
AcDbScale
 70
     0
300
1:50
140
1.0
141
50.0
290
     0
  0
SCALE
  5
53
102
{ACAD_REACTORS
330
47
102
}
330
47
100
AcDbScale
 70
     0
300
1:100
140
1.0
141
100.0
290
     0
  0
SCALE
  5
54
102
{ACAD_REACTORS
330
47
102
}
330
47
100
AcDbScale
 70
     0
300
2:1
140
2.0
141
1.0
290
     0
  0
SCALE
  5
55
102
{ACAD_REACTORS
330
47
102
}
330
47
100
AcDbScale
 70
     0
300
4:1
140
4.0
141
1.0
290
     0
  0
SCALE
  5
56
102
{ACAD_REACTORS
330
47
102
}
330
47
100
AcDbScale
 70
     0
300
8:1
140
8.0
141
1.0
290
     0
  0
SCALE
  5
57
102
{ACAD_REACTORS
330
47
102
}
330
47
100
AcDbScale
 70
     0
300
10:1
140
10.0
141
1.0
290
     0
  0
SCALE
  5
58
102
{ACAD_REACTORS
330
47
102
}
330
47
100
AcDbScale
 70
     0
300
100:1
140
100.0
141
1.0
290
     0
  0
SCALE
  5
59
102
{ACAD_REACTORS
330
47
102
}
330
47
100
AcDbScale
 70
     0
300
1/128" = 1'-0"
140
0.0078125
141
12.0
290
     0
  0
SCALE
  5
5A
102
{ACAD_REACTORS
330
47
102
}
330
47
100
AcDbScale
 70
     0
300
1/64" = 1'-0"
140
0.015625
141
12.0
290
     0
  0
SCALE
  5
5B
102
{ACAD_REACTORS
330
47
102
}
330
47
100
AcDbScale
 70
     0
300
1/32" = 1'-0"
140
0.03125
141
12.0
290
     0
  0
SCALE
  5
5C
102
{ACAD_REACTORS
330
47
102
}
330
47
100
AcDbScale
 70
     0
300
1/16" = 1'-0"
140
0.0625
141
12.0
290
     0
  0
SCALE
  5
5D
102
{ACAD_REACTORS
330
47
102
}
330
47
100
AcDbScale
 70
     0
300
3/32" = 1'-0"
140
0.09375
141
12.0
290
     0
  0
SCALE
  5
5E
102
{ACAD_REACTORS
330
47
102
}
330
47
100
AcDbScale
 70
     0
300
1/8" = 1'-0"
140
0.125
141
12.0
290
     0
  0
SCALE
  5
5F
102
{ACAD_REACTORS
330
47
102
}
330
47
100
AcDbScale
 70
     0
300
3/16" = 1'-0"
140
0.1875
141
12.0
290
     0
  0
SCALE
  5
60
102
{ACAD_REACTORS
330
47
102
}
330
47
100
AcDbScale
 70
     0
300
1/4" = 1'-0"
140
0.25
141
12.0
290
     0
  0
SCALE
  5
61
102
{ACAD_REACTORS
330
47
102
}
330
47
100
AcDbScale
 70
     0
300
3/8" = 1'-0"
140
0.375
141
12.0
290
     0
  0
SCALE
  5
62
102
{ACAD_REACTORS
330
47
102
}
330
47
100
AcDbScale
 70
     0
300
1/2" = 1'-0"
140
0.5
141
12.0
290
     0
  0
SCALE
  5
63
102
{ACAD_REACTORS
330
47
102
}
330
47
100
AcDbScale
 70
     0
300
3/4" = 1'-0"
140
0.75
141
12.0
290
     0
  0
SCALE
  5
64
102
{ACAD_REACTORS
330
47
102
}
330
47
100
AcDbScale
 70
     0
300
1" = 1'-0"
140
1.0
141
12.0
290
     0
  0
SCALE
  5
65
102
{ACAD_REACTORS
330
47
102
}
330
47
100
AcDbScale
 70
     0
300
1-1/2" = 1'-0"
140
1.5
141
12.0
290
     0
  0
SCALE
  5
66
102
{ACAD_REACTORS
330
47
102
}
330
47
100
AcDbScale
 70
     0
300
3" = 1'-0"
140
3.0
141
12.0
290
     0
  0
SCALE
  5
67
102
{ACAD_REACTORS
330
47
102
}
330
47
100
AcDbScale
 70
     0
300
6" = 1'-0"
140
6.0
141
12.0
290
     0
  0
SCALE
  5
68
102
{ACAD_REACTORS
330
47
102
}
330
47
100
AcDbScale
 70
     0
300
1'-0" = 1'-0"
140
12.0
141
12.0
290
     0
  0
ENDSEC
  0
EOF
