  0
SECTION
  2
HEADER
  9
$ACADVER
  1
AC1015
  9
$ACADMAINTVER
 70
     6
  9
$DWGCODEPAGE
  3
ANSI_1252
  9
$INSBASE
 10
0.0
 20
0.0
 30
0.0
  9
$EXTMIN
 10
-13.8285964604
 20
0.0
 30
0.0
  9
$EXTMAX
 10
0.2655981456
 20
8.041480289
 30
0.0
  9
$LIMMIN
 10
0.0
 20
0.0
  9
$LIMMAX
 10
12.0
 20
9.0
  9
$ORTHOMODE
 70
     0
  9
$REGENMODE
 70
     1
  9
$FILLMODE
 70
     1
  9
$QTEXTMODE
 70
     0
  9
$MIRRTEXT
 70
     1
  9
$LTSCALE
 40
1.0
  9
$ATTMODE
 70
     1
  9
$TEXTSIZE
 40
0.15
  9
$TRACEWID
 40
0.05
  9
$TEXTSTYLE
  7
Standard
  9
$CLAYER
  8
0
  9
$CELTYPE
  6
ByLayer
  9
$CECOLOR
 62
   256
  9
$CELTSCALE
 40
1.0
  9
$DISPSILH
 70
     0
  9
$DIMSCALE
 40
1.0
  9
$DIMASZ
 40
0.15
  9
$DIMEXO
 40
0.09
  9
$DIMDLI
 40
0.38
  9
$DIMRND
 40
0.0
  9
$DIMDLE
 40
0.0
  9
$DIMEXE
 40
0.125
  9
$DIMTP
 40
0.0
  9
$DIMTM
 40
0.0
  9
$DIMTXT
 40
0.15
  9
$DIMCEN
 40
0.09
  9
$DIMTSZ
 40
0.0
  9
$DIMTOL
 70
     0
  9
$DIMLIM
 70
     0
  9
$DIMTIH
 70
     1
  9
$DIMTOH
 70
     1
  9
$DIMSE1
 70
     0
  9
$DIMSE2
 70
     0
  9
$DIMTAD
 70
     0
  9
$DIMZIN
 70
     0
  9
$DIMBLK
  1

  9
$DIMASO
 70
     1
  9
$DIMSHO
 70
     1
  9
$DIMPOST
  1

  9
$DIMAPOST
  1

  9
$DIMALT
 70
     0
  9
$DIMALTD
 70
     2
  9
$DIMALTF
 40
25.4
  9
$DIMLFAC
 40
1.0
  9
$DIMTOFL
 70
     0
  9
$DIMTVP
 40
0.0
  9
$DIMTIX
 70
     0
  9
$DIMSOXD
 70
     0
  9
$DIMSAH
 70
     0
  9
$DIMBLK1
  1

  9
$DIMBLK2
  1

  9
$DIMSTYLE
  2
Standard
  9
$DIMCLRD
 70
     0
  9
$DIMCLRE
 70
     0
  9
$DIMCLRT
 70
     0
  9
$DIMTFAC
 40
1.0
  9
$DIMGAP
 40
0.09
  9
$DIMJUST
 70
     0
  9
$DIMSD1
 70
     0
  9
$DIMSD2
 70
     0
  9
$DIMTOLJ
 70
     1
  9
$DIMTZIN
 70
     0
  9
$DIMALTZ
 70
     0
  9
$DIMALTTZ
 70
     0
  9
$DIMUPT
 70
     0
  9
$DIMDEC
 70
     4
  9
$DIMTDEC
 70
     4
  9
$DIMALTU
 70
     2
  9
$DIMALTTD
 70
     2
  9
$DIMTXSTY
  7
Standard
  9
$DIMAUNIT
 70
     0
  9
$DIMADEC
 70
     2
  9
$DIMALTRND
 40
0.0
  9
$DIMAZIN
 70
     0
  9
$DIMDSEP
 70
    46
  9
$DIMATFIT
 70
     3
  9
$DIMFRAC
 70
     0
  9
$DIMLDRBLK
  1

  9
$DIMLUNIT
 70
     2
  9
$DIMLWD
 70
    -2
  9
$DIMLWE
 70
    -2
  9
$DIMTMOVE
 70
     0
  9
$LUNITS
 70
     2
  9
$LUPREC
 70
     4
  9
$SKETCHINC
 40
0.1
  9
$FILLETRAD
 40
0.5
  9
$AUNITS
 70
     0
  9
$AUPREC
 70
     2
  9
$MENU
  1
.
  9
$ELEVATION
 40
0.0
  9
$PELEVATION
 40
0.0
  9
$THICKNESS
 40
0.0
  9
$LIMCHECK
 70
     0
  9
$CHAMFERA
 40
0.0
  9
$CHAMFERB
 40
0.0
  9
$CHAMFERC
 40
0.0
  9
$CHAMFERD
 40
0.0
  9
$SKPOLY
 70
     0
  9
$TDCREATE
 40
2458228.463591458
  9
$TDUCREATE
 40
2458228.755258125
  9
$TDUPDATE
 40
2458228.463627743
  9
$TDUUPDATE
 40
2458228.75529441
  9
$TDINDWG
 40
0.0000000116
  9
$TDUSRTIMER
 40
0.0000000116
  9
$USRTIMER
 70
     1
  9
$ANGBASE
 50
0.0
  9
$ANGDIR
 70
     0
  9
$PDMODE
 70
     0
  9
$PDSIZE
 40
-1.0
  9
$PLINEWID
 40
0.0
  9
$SPLFRAME
 70
     0
  9
$SPLINETYPE
 70
     6
  9
$SPLINESEGS
 70
     8
  9
$HANDSEED
  5
14A
  9
$SURFTAB1
 70
     6
  9
$SURFTAB2
 70
     6
  9
$SURFTYPE
 70
     6
  9
$SURFU
 70
     6
  9
$SURFV
 70
     6
  9
$UCSBASE
  2

  9
$UCSNAME
  2

  9
$UCSORG
 10
0.0
 20
0.0
 30
0.0
  9
$UCSXDIR
 10
1.0
 20
0.0
 30
0.0
  9
$UCSYDIR
 10
0.0
 20
1.0
 30
0.0
  9
$UCSORTHOREF
  2

  9
$UCSORTHOVIEW
 70
     0
  9
$UCSORGTOP
 10
0.0
 20
0.0
 30
0.0
  9
$UCSORGBOTTOM
 10
0.0
 20
0.0
 30
0.0
  9
$UCSORGLEFT
 10
0.0
 20
0.0
 30
0.0
  9
$UCSORGRIGHT
 10
0.0
 20
0.0
 30
0.0
  9
$UCSORGFRONT
 10
0.0
 20
0.0
 30
0.0
  9
$UCSORGBACK
 10
0.0
 20
0.0
 30
0.0
  9
$PUCSBASE
  2

  9
$PUCSNAME
  2

  9
$PUCSORG
 10
0.0
 20
0.0
 30
0.0
  9
$PUCSXDIR
 10
1.0
 20
0.0
 30
0.0
  9
$PUCSYDIR
 10
0.0
 20
1.0
 30
0.0
  9
$PUCSORTHOREF
  2

  9
$PUCSORTHOVIEW
 70
     0
  9
$PUCSORGTOP
 10
0.0
 20
0.0
 30
0.0
  9
$PUCSORGBOTTOM
 10
0.0
 20
0.0
 30
0.0
  9
$PUCSORGLEFT
 10
0.0
 20
0.0
 30
0.0
  9
$PUCSORGRIGHT
 10
0.0
 20
0.0
 30
0.0
  9
$PUCSORGFRONT
 10
0.0
 20
0.0
 30
0.0
  9
$PUCSORGBACK
 10
0.0
 20
0.0
 30
0.0
  9
$USERI1
 70
     0
  9
$USERI2
 70
     0
  9
$USERI3
 70
     0
  9
$USERI4
 70
     0
  9
$USERI5
 70
     0
  9
$USERR1
 40
0.0
  9
$USERR2
 40
0.0
  9
$USERR3
 40
0.0
  9
$USERR4
 40
0.0
  9
$USERR5
 40
0.0
  9
$WORLDVIEW
 70
     1
  9
$SHADEDGE
 70
     3
  9
$SHADEDIF
 70
    70
  9
$TILEMODE
 70
     1
  9
$MAXACTVP
 70
    64
  9
$PINSBASE
 10
0.0
 20
0.0
 30
0.0
  9
$PLIMCHECK
 70
     0
  9
$PEXTMIN
 10
1.0000000000E+20
 20
1.0000000000E+20
 30
1.0000000000E+20
  9
$PEXTMAX
 10
-1.0000000000E+20
 20
-1.0000000000E+20
 30
-1.0000000000E+20
  9
$PLIMMIN
 10
0.0
 20
0.0
  9
$PLIMMAX
 10
12.0
 20
9.0
  9
$UNITMODE
 70
     0
  9
$VISRETAIN
 70
     1
  9
$PLINEGEN
 70
     0
  9
$PSLTSCALE
 70
     1
  9
$TREEDEPTH
 70
  3020
  9
$CMLSTYLE
  2
Standard
  9
$CMLJUST
 70
     0
  9
$CMLSCALE
 40
1.0
  9
$PROXYGRAPHICS
 70
     1
  9
$MEASUREMENT
 70
     0
  9
$CELWEIGHT
370
    -1
  9
$ENDCAPS
280
     0
  9
$JOINSTYLE
280
     0
  9
$LWDISPLAY
290
     1
  9
$INSUNITS
 70
     1
  9
$HYPERLINKBASE
  1

  9
$STYLESHEET
  1

  9
$XEDIT
290
     1
  9
$CEPSNTYPE
380
     0
  9
$PSTYLEMODE
290
     1
  9
$FINGERPRINTGUID
  2
{06E3FAB1-32EA-446D-9D8D-C81BB0108D9F}
  9
$VERSIONGUID
  2
{FAEB1C32-E019-11D5-929B-00C0DF256EC4}
  9
$EXTNAMES
290
     1
  9
$PSVPSCALE
 40
0.0
  9
$OLESTARTUP
290
     0
  0
ENDSEC
  0
SECTION
  2
CLASSES
  0
CLASS
  1
ACDBDICTIONARYWDFLT
  2
AcDbDictionaryWithDefault
  3
ObjectDBX Classes
 90
        0
280
     0
281
     0
  0
CLASS
  1
VISUALSTYLE
  2
AcDbVisualStyle
  3
ObjectDBX Classes
 90
     4095
280
     0
281
     0
  0
CLASS
  1
MATERIAL
  2
AcDbMaterial
  3
ObjectDBX Classes
 90
     1153
280
     0
281
     0
  0
CLASS
  1
SCALE
  2
AcDbScale
  3
ObjectDBX Classes
 90
     1153
280
     0
281
     0
  0
CLASS
  1
TABLESTYLE
  2
AcDbTableStyle
  3
ObjectDBX Classes
 90
     4095
280
     0
281
     0
  0
CLASS
  1
MLEADERSTYLE
  2
AcDbMLeaderStyle
  3
ACDB_MLEADERSTYLE_CLASS
 90
     4095
280
     0
281
     0
  0
CLASS
  1
SUN
  2
AcDbSun
  3
SCENEOE
 90
     1153
280
     0
281
     0
  0
CLASS
  1
ACDBPLACEHOLDER
  2
AcDbPlaceHolder
  3
ObjectDBX Classes
 90
        0
280
     0
281
     0
  0
CLASS
  1
LAYOUT
  2
AcDbLayout
  3
ObjectDBX Classes
 90
        0
280
     0
281
     0
  0
ENDSEC
  0
SECTION
  2
TABLES
  0
TABLE
  2
VPORT
  5
8
330
0
100
AcDbSymbolTable
 70
     1
  0
VPORT
  5
29
330
8
100
AcDbSymbolTableRecord
100
AcDbViewportTableRecord
  2
*Active
 70
     0
 10
0.0
 20
0.0
 11
1.0
 21
1.0
 12
-6.7814991574
 22
4.0207401445
 13
0.0
 23
0.0
 14
0.5
 24
0.5
 15
0.5
 25
0.5
 16
0.0
 26
0.0
 36
1.0
 17
0.0
 27
0.0
 37
0.0
 40
8.2023098948
 41
1.7526865825
 42
50.0
 43
0.0
 44
0.0
 50
0.0
 51
0.0
 71
     0
 72
   100
 73
     1
 74
     3
 75
     0
 76
     0
 77
     0
 78
     0
281
     0
 65
     1
110
0.0
120
0.0
130
0.0
111
1.0
121
0.0
131
0.0
112
0.0
122
1.0
132
0.0
 79
     0
146
0.0
  0
ENDTAB
  0
TABLE
  2
LTYPE
  5
5
330
0
100
AcDbSymbolTable
 70
     6
  0
LTYPE
  5
14
330
5
100
AcDbSymbolTableRecord
100
AcDbLinetypeTableRecord
  2
ByBlock
 70
     0
  3

 72
    65
 73
     0
 40
0.0
  0
LTYPE
  5
15
330
5
100
AcDbSymbolTableRecord
100
AcDbLinetypeTableRecord
  2
ByLayer
 70
     0
  3

 72
    65
 73
     0
 40
0.0
  0
LTYPE
  5
16
330
5
100
AcDbSymbolTableRecord
100
AcDbLinetypeTableRecord
  2
Continuous
 70
     0
  3
Solid line
 72
    65
 73
     0
 40
0.0
  0
LTYPE
  5
6E
330
5
100
AcDbSymbolTableRecord
100
AcDbLinetypeTableRecord
  2
HIDDEN
 70
     0
  3
Hidden __ __ __ __ __ __ __ __ __ __ __ __ __ __
 72
    65
 73
     2
 40
0.075
 49
0.05
 74
     0
 49
-0.025
 74
     0
  0
LTYPE
  5
6F
330
5
100
AcDbSymbolTableRecord
100
AcDbLinetypeTableRecord
  2
PHANTOM
 70
     0
  3
Phantom ______  __  __  ______  __  __  ______
 72
    65
 73
     6
 40
0.5
 49
0.25
 74
     0
 49
-0.05
 74
     0
 49
0.05
 74
     0
 49
-0.05
 74
     0
 49
0.05
 74
     0
 49
-0.05
 74
     0
  0
LTYPE
  5
70
330
5
100
AcDbSymbolTableRecord
100
AcDbLinetypeTableRecord
  2
CENTER
 70
     0
  3
Center ____ _ ____ _ ____ _ ____ _ ____ _ ____
 72
    65
 73
     4
 40
0.4
 49
0.25
 74
     0
 49
-0.05
 74
     0
 49
0.05
 74
     0
 49
-0.05
 74
     0
  0
LTYPE
  5
71
330
5
100
AcDbSymbolTableRecord
100
AcDbLinetypeTableRecord
  2
CENTERX2
 70
     0
  3
Center (2x) ________  __  ________  __  _____
 72
    65
 73
     4
 40
0.8
 49
0.5
 74
     0
 49
-0.1
 74
     0
 49
0.1
 74
     0
 49
-0.1
 74
     0
  0
LTYPE
  5
72
330
5
100
AcDbSymbolTableRecord
100
AcDbLinetypeTableRecord
  2
DOT2
 70
     0
  3
Dot (.5x) ........................................
 72
    65
 73
     2
 40
0.025
 49
0.0
 74
     0
 49
-0.025
 74
     0
  0
ENDTAB
  0
TABLE
  2
LAYER
  5
2
330
0
100
AcDbSymbolTable
 70
     1
  0
LAYER
  5
10
330
2
100
AcDbSymbolTableRecord
100
AcDbLayerTableRecord
  2
0
 70
     0
 62
     7
  6
Continuous
370
    -3
390
F
  0
ENDTAB
  0
TABLE
  2
STYLE
  5
3
330
0
100
AcDbSymbolTable
 70
     2
  0
STYLE
  5
11
330
3
100
AcDbSymbolTableRecord
100
AcDbTextStyleTableRecord
  2
Standard
 70
     0
 40
0.0
 41
1.0
 50
0.0
 71
     0
 42
0.15
  3
txt
  4

  0
STYLE
  5
147
330
3
100
AcDbSymbolTableRecord
100
AcDbTextStyleTableRecord
  2
SLDTEXTSTYLE0
 70
     0
 40
0.0
 41
0.7
 50
0.0
 71
     0
 42
0.15
  3
TXT
  4

  0
ENDTAB
  0
TABLE
  2
VIEW
  5
6
330
0
100
AcDbSymbolTable
 70
     0
  0
ENDTAB
  0
TABLE
  2
UCS
  5
7
330
0
100
AcDbSymbolTable
 70
     0
  0
ENDTAB
  0
TABLE
  2
APPID
  5
9
330
0
100
AcDbSymbolTable
 70
     1
  0
APPID
  5
12
330
9
100
AcDbSymbolTableRecord
100
AcDbRegAppTableRecord
  2
ACAD
 70
     0
  0
ENDTAB
  0
TABLE
  2
DIMSTYLE
  5
A
330
0
100
AcDbSymbolTable
 70
     1
100
AcDbDimStyleTable
  0
DIMSTYLE
105
27
330
A
100
AcDbSymbolTableRecord
100
AcDbDimStyleTableRecord
  2
Standard
 70
     0
178
     0
340
11
  0
ENDTAB
  0
TABLE
  2
BLOCK_RECORD
  5
1
330
0
100
AcDbSymbolTable
 70
     1
  0
BLOCK_RECORD
  5
1F
330
1
100
AcDbSymbolTableRecord
100
AcDbBlockTableRecord
  2
*Model_Space
340
22
  0
BLOCK_RECORD
  5
1B
330
1
100
AcDbSymbolTableRecord
100
AcDbBlockTableRecord
  2
*Paper_Space
340
1E
  0
BLOCK_RECORD
  5
23
330
1
100
AcDbSymbolTableRecord
100
AcDbBlockTableRecord
  2
*Paper_Space0
340
26
  0
ENDTAB
  0
ENDSEC
  0
SECTION
  2
BLOCKS
  0
BLOCK
  5
20
330
1F
100
AcDbEntity
  8
0
100
AcDbBlockBegin
  2
*Model_Space
 70
     0
 10
0.0
 20
0.0
 30
0.0
  3
*Model_Space
  1

  0
ENDBLK
  5
21
330
1F
100
AcDbEntity
  8
0
100
AcDbBlockEnd
  0
BLOCK
  5
1C
330
1B
100
AcDbEntity
 67
     1
  8
0
100
AcDbBlockBegin
  2
*Paper_Space
 70
     0
 10
0.0
 20
0.0
 30
0.0
  3
*Paper_Space
  1

  0
ENDBLK
  5
1D
330
1B
100
AcDbEntity
 67
     1
  8
0
100
AcDbBlockEnd
  0
BLOCK
  5
24
330
23
100
AcDbEntity
  8
0
100
AcDbBlockBegin
  2
*Paper_Space0
 70
     0
 10
0.0
 20
0.0
 30
0.0
  3
*Paper_Space0
  1

  0
ENDBLK
  5
25
330
23
100
AcDbEntity
  8
0
100
AcDbBlockEnd
  0
ENDSEC
  0
SECTION
  2
ENTITIES
  0
SPLINE
  5
79
330
1F
100
AcDbEntity
  8
0
  6
Continuous
 62
     7
370
    35
100
AcDbSpline
210
0.0
220
0.0
230
1.0
 70
     8
 71
     3
 72
    23
 73
    19
 74
     0
 42
0.000000001
 43
0.00000001
 40
0.0
 40
0.0
 40
0.0
 40
0.0
 40
0.0614842551968908
 40
0.1217745277022106
 40
0.1809195598139308
 40
0.2402561150782715
 40
0.3001144444023521
 40
0.3611459476126116
 40
0.4235005824125841
 40
0.4886693612807178
 40
0.5539541046535634
 40
0.6175812610152618
 40
0.680238426816741
 40
0.7421873887724523
 40
0.8046632117692921
 40
0.8682589893126612
 40
0.9330202571803777
 40
1.0
 40
1.0
 40
1.0
 40
1.0
 10
-1.410761154855643
 20
0.2837587383908737
 30
0.0
 10
-1.410787026435326
 20
0.2825233696863229
 30
0.0
 10
-1.410838267186097
 20
0.2800766223027363
 30
0.0
 10
-1.411427279539587
 20
0.2764839027404485
 30
0.0
 10
-1.412290258482994
 20
0.2729944984221825
 30
0.0
 10
-1.413590936984984
 20
0.2696515412393078
 30
0.0
 10
-1.415178462900728
 20
0.2663938734171251
 30
0.0
 10
-1.417192882108052
 20
0.2633069482040969
 30
0.0
 10
-1.419527830326072
 20
0.2603224443227208
 30
0.0
 10
-1.422206325007346
 20
0.2575199446630692
 30
0.0
 10
-1.425137266043429
 20
0.2549472597817541
 30
0.0
 10
-1.428235049297869
 20
0.2526587140544915
 30
0.0
 10
-1.431504745082678
 20
0.2507505123460143
 30
0.0
 10
-1.434928615818239
 20
0.2491933925802691
 30
0.0
 10
-1.43850744797206
 20
0.2479755375595504
 30
0.0
 10
-1.442240037886804
 20
0.2470931411370754
 30
0.0
 10
-1.44613253832852
 20
0.2465515777152836
 30
0.0
 10
-1.448778226579404
 20
0.2464953666340002
 30
0.0
 10
-1.450123346961438
 20
0.2464667878053702
 30
0.0
  0
SPLINE
  5
7A
330
1F
100
AcDbEntity
  8
0
  6
Continuous
 62
     7
370
    35
100
AcDbSpline
210
0.0
220
0.0
230
1.0
 70
     8
 71
     3
 72
    19
 73
    15
 74
     0
 42
0.000000001
 43
0.00000001
 40
0.0
 40
0.0
 40
0.0
 40
0.0
 40
0.0969723103815123
 40
0.1877734389628666
 40
0.2723961390136917
 40
0.3513209973752884
 40
0.4243347744514658
 40
0.4919087840005257
 40
0.5542332197968006
 40
0.6112676582441554
 40
0.7163478449915538
 40
0.814540085821615
 40
0.9084954561491855
 40
0.9999999999999999
 40
0.9999999999999999
 40
0.9999999999999999
 40
0.9999999999999999
 10
-1.443222541893802
 20
0.328227526246719
 30
0.0
 10
-1.441727033495872
 20
0.3271392837447615
 30
0.0
 10
-1.438831188756561
 20
0.3250320529670871
 30
0.0
 10
-1.434710811594691
 20
0.3218660813124636
 30
0.0
 10
-1.430974834898042
 20
0.3187697124709561
 30
0.0
 10
-1.4276101418441
 20
0.3157627200655985
 30
0.0
 10
-1.424583491905525
 20
0.3128679132544312
 30
0.0
 10
-1.421928463532502
 20
0.3100504652099355
 30
0.0
 10
-1.419618003676314
 20
0.3073305607736277
 30
0.0
 10
-1.417130632870796
 20
0.3038434514944472
 30
0.0
 10
-1.414588986432983
 20
0.2995607316411267
 30
0.0
 10
-1.412406249920142
 20
0.2943135568952501
 30
0.0
 10
-1.411029937028231
 20
0.2890459852221411
 30
0.0
 10
-1.410849956105712
 20
0.2855055585892647
 30
0.0
 10
-1.410761154855643
 20
0.2837587383908737
 30
0.0
  0
SPLINE
  5
7B
330
1F
100
AcDbEntity
  8
0
  6
Continuous
 62
     7
370
    35
100
AcDbSpline
210
0.0
220
0.0
230
1.0
 70
     8
 71
     3
 72
    15
 73
    11
 74
     0
 42
0.000000001
 43
0.00000001
 40
0.0
 40
0.0
 40
0.0
 40
0.0
 40
0.0525942815291372
 40
0.1249519739750433
 40
0.2180938989285991
 40
0.33350241073252
 40
0.468789178504451
 40
0.6249375859645975
 40
0.8016830479282194
 40
1.0
 40
1.0
 40
1.0
 40
1.0
 10
-1.461744302695336
 20
0.3419463267211791
 30
0.0
 10
-1.461442673860388
 20
0.3416771524764614
 30
0.0
 10
-1.460726072792005
 20
0.3410376560855458
 30
0.0
 10
-1.459415996975483
 20
0.3399907159027215
 30
0.0
 10
-1.457685965549108
 20
0.3386992681745608
 30
0.0
 10
-1.455581154479153
 20
0.3371013423290968
 30
0.0
 10
-1.453062754411159
 20
0.3352477414583384
 30
0.0
 10
-1.450130488421213
 20
0.3331621661762988
 30
0.0
 10
-1.446817042246609
 20
0.330776911884689
 30
0.0
 10
-1.44446578571513
 20
0.3291092921756368
 30
0.0
 10
-1.443222541893802
 20
0.328227526246719
 30
0.0
  0
SPLINE
  5
7C
330
1F
100
AcDbEntity
  8
0
  6
Continuous
 62
     7
370
    35
100
AcDbSpline
210
0.0
220
0.0
230
1.0
 70
     8
 71
     3
 72
    15
 73
    11
 74
     0
 42
0.000000001
 43
0.00000001
 40
0.0
 40
0.0
 40
0.0
 40
0.0
 40
0.107285214268957
 40
0.2147458609696437
 40
0.3229385595552867
 40
0.4341161625174658
 40
0.5534123109628002
 40
0.6860729848107309
 40
0.8342559920595917
 40
1.0
 40
1.0
 40
1.0
 40
1.0
 10
-1.470825762164345
 20
0.359750403795679
 30
0.0
 10
-1.470810284737774
 20
0.3590121566090469
 30
0.0
 10
-1.470779304575994
 20
0.3575344550563951
 30
0.0
 10
-1.470347225926923
 20
0.3553513282078147
 30
0.0
 10
-1.469792134235671
 20
0.3531737164196795
 30
0.0
 10
-1.468912503064275
 20
0.3510114100088855
 30
0.0
 10
-1.467698121032158
 20
0.3488265927233639
 30
0.0
 10
-1.466103429067341
 20
0.3465816424257822
 30
0.0
 10
-1.464095030955137
 20
0.3442567720056209
 30
0.0
 10
-1.462556565901932
 20
0.3427446706758997
 30
0.0
 10
-1.461744302695336
 20
0.3419463267211791
 30
0.0
  0
SPLINE
  5
7D
330
1F
100
AcDbEntity
  8
0
  6
Continuous
 62
     7
370
    35
100
AcDbSpline
210
0.0
220
0.0
230
1.0
 70
     8
 71
     3
 72
    15
 73
    11
 74
     0
 42
0.000000001
 43
0.00000001
 40
0.0
 40
0.0
 40
0.0
 40
0.0
 40
0.1430730837303581
 40
0.2759029640930031
 40
0.4023708562739929
 40
0.5284136450935973
 40
0.6503563791869482
 40
0.7658950861246919
 40
0.880774130844019
 40
1.0
 40
1.0
 40
1.0
 40
1.0
 10
-1.450620204926307
 20
0.3771956390066625
 30
0.0
 10
-1.45204369006038
 20
0.3771479342841471
 30
0.0
 10
-1.454788747045197
 20
0.3770559402206931
 30
0.0
 10
-1.458686000435259
 20
0.3760512163903141
 30
0.0
 10
-1.462193635280268
 20
0.3744692533861461
 30
0.0
 10
-1.465207515794293
 20
0.3722521282642696
 30
0.0
 10
-1.467716845599136
 20
0.3696253175286349
 30
0.0
 10
-1.469532021141062
 20
0.3666025279587564
 30
0.0
 10
-1.470624547304529
 20
0.363264638092436
 30
0.0
 10
-1.470757865401026
 20
0.3609362264258333
 30
0.0
 10
-1.470825762164345
 20
0.359750403795679
 30
0.0
  0
SPLINE
  5
7E
330
1F
100
AcDbEntity
  8
0
  6
Continuous
 62
     7
370
    35
100
AcDbSpline
210
0.0
220
0.0
230
1.0
 70
     8
 71
     3
 72
    19
 73
    15
 74
     0
 42
0.000000001
 43
0.00000001
 40
0.0
 40
0.0
 40
0.0
 40
0.0
 40
0.0984694310255555
 40
0.1896291011376298
 40
0.274184089437967
 40
0.3521831609671502
 40
0.4231988731834673
 40
0.4885509460005307
 40
0.5484733460279365
 40
0.6014401636178742
 40
0.7011980824257648
 40
0.7995918021381797
 40
0.898545098482226
 40
1.0
 40
1.0
 40
1.0
 40
1.0
 10
-1.423707065162528
 20
0.3595295780335147
 30
0.0
 10
-1.424382101874037
 20
0.3603992115147204
 30
0.0
 10
-1.425682064750891
 20
0.3620739222715784
 30
0.0
 10
-1.427655666595792
 20
0.3644192496576515
 30
0.0
 10
-1.429515849584782
 20
0.3665616307415863
 30
0.0
 10
-1.431348542489671
 20
0.368422462553793
 30
0.0
 10
-1.433056953177306
 20
0.3701036489056778
 30
0.0
 10
-1.434715104446871
 20
0.3715430094105776
 30
0.0
 10
-1.436299134023147
 20
0.3727546470259355
 30
0.0
 10
-1.438295862788739
 20
0.374047700567635
 30
0.0
 10
-1.440804434376266
 20
0.37532945267609
 30
0.0
 10
-1.443953431866003
 20
0.3764140620492288
 30
0.0
 10
-1.447244230095726
 20
0.3770658361405193
 30
0.0
 10
-1.449485554170163
 20
0.3771520128164179
 30
0.0
 10
-1.450620204926307
 20
0.3771956390066625
 30
0.0
  0
SPLINE
  5
80
330
1F
100
AcDbEntity
  8
0
  6
Continuous
 62
     7
370
    35
100
AcDbSpline
210
0.0
220
0.0
230
1.0
 70
     8
 71
     3
 72
    19
 73
    15
 74
     0
 42
0.000000001
 43
0.00000001
 40
0.0
 40
0.0
 40
0.0
 40
0.0
 40
0.1072327993600868
 40
0.213251812781852
 40
0.3188304473075854
 40
0.4267935306342739
 40
0.4836459507827202
 40
0.543603822021142
 40
0.6083076495640862
 40
0.677126760260041
 40
0.7506856360204986
 40
0.8287134184432885
 40
0.9121903482234551
 40
1.0
 40
1.0
 40
1.0
 40
1.0
 10
-1.44924004391278
 20
0.3913284877851806
 30
0.0
 10
-1.447616260436481
 20
0.3912724818167088
 30
0.0
 10
-1.444387073359835
 20
0.391161103820662
 30
0.0
 10
-1.439637104242923
 20
0.390192697075791
 30
0.0
 10
-1.435063847691718
 20
0.3885903084227205
 30
0.0
 10
-1.431384978998038
 20
0.386771857321241
 30
0.0
 10
-1.428505736420801
 20
0.384955659852215
 30
0.0
 10
-1.426309959543284
 20
0.3833013360617094
 30
0.0
 10
-1.424084863055624
 20
0.3813968042268984
 30
0.0
 10
-1.421812498692287
 20
0.3792369913890711
 30
0.0
 10
-1.41953137036791
 20
0.3768020799288502
 30
0.0
 10
-1.417207612405542
 20
0.3741087457198256
 30
0.0
 10
-1.414835790798822
 20
0.3711734482448497
 30
0.0
 10
-1.413309969534101
 20
0.369077995459239
 30
0.0
 10
-1.412527760952958
 20
0.3680037666565716
 30
0.0
  0
SPLINE
  5
81
330
1F
100
AcDbEntity
  8
0
  6
Continuous
 62
     7
370
    35
100
AcDbSpline
210
0.0
220
0.0
230
1.0
 70
     8
 71
     3
 72
    19
 73
    15
 74
     0
 42
0.000000001
 43
0.00000001
 40
0.0
 40
0.0
 40
0.0
 40
0.0
 40
0.0837853706537096
 40
0.165779887922142
 40
0.2462800078932613
 40
0.3274609277363887
 40
0.4087969540320674
 40
0.4897152412309874
 40
0.5713760321300532
 40
0.655523321111277
 40
0.7410194827999707
 40
0.82654676050376
 40
0.9119888516548335
 40
1.0
 40
1.0
 40
1.0
 40
1.0
 10
-1.483192004845548
 20
0.3591707361699978
 30
0.0
 10
-1.483140618664707
 20
0.3606286013103402
 30
0.0
 10
-1.483038944646509
 20
0.3635131707487273
 30
0.0
 10
-1.482179081761845
 20
0.3677269829708572
 30
0.0
 10
-1.480821881224268
 20
0.3717500702628875
 30
0.0
 10
-1.478920507686411
 20
0.3755426030866948
 30
0.0
 10
-1.476469430799867
 20
0.379005830680719
 30
0.0
 10
-1.473632975116197
 20
0.3821795900107202
 30
0.0
 10
-1.470254570146217
 20
0.384847644428865
 30
0.0
 10
-1.466547773954744
 20
0.3871788278300157
 30
0.0
 10
-1.462490436471174
 20
0.3890034705547034
 30
0.0
 10
-1.458238826101189
 20
0.3903798870964551
 30
0.0
 10
-1.453786185470276
 20
0.3911597791315318
 30
0.0
 10
-1.450770314028409
 20
0.3912716990099826
 30
0.0
 10
-1.44924004391278
 20
0.3913284877851806
 30
0.0
  0
SPLINE
  5
82
330
1F
100
AcDbEntity
  8
0
  6
Continuous
 62
     7
370
    35
100
AcDbSpline
210
0.0
220
0.0
230
1.0
 70
     8
 71
     3
 72
    15
 73
    11
 74
     0
 42
0.000000001
 43
0.00000001
 40
0.0
 40
0.0
 40
0.0
 40
0.0
 40
0.1335067689985191
 40
0.2625589787303729
 40
0.3882644471488788
 40
0.5126673546814287
 40
0.6337222699657599
 40
0.7553938601370959
 40
0.8775529450912786
 40
1.0
 40
1.0
 40
1.0
 40
1.0
 10
-1.475490706390067
 20
0.3381922887643847
 30
0.0
 10
-1.476099861714128
 20
0.3390033532074638
 30
0.0
 10
-1.477297847411582
 20
0.3405984202850111
 30
0.0
 10
-1.478879186209421
 20
0.3430915249215351
 30
0.0
 10
-1.480223247736915
 20
0.3456436219848905
 30
0.0
 10
-1.48127688286039
 20
0.3482615694086931
 30
0.0
 10
-1.48216413557061
 20
0.3509086138528105
 30
0.0
 10
-1.482760904496506
 20
0.353619292817362
 30
0.0
 10
-1.483134581540434
 20
0.3563814431506096
 30
0.0
 10
-1.483172848726778
 20
0.3582402423877161
 30
0.0
 10
-1.483192004845548
 20
0.3591707361699978
 30
0.0
  0
SPLINE
  5
83
330
1F
100
AcDbEntity
  8
0
  6
Continuous
 62
     7
370
    35
100
AcDbSpline
210
0.0
220
0.0
230
1.0
 70
     8
 71
     3
 72
    15
 73
    11
 74
     0
 42
0.000000001
 43
0.00000001
 40
0.0
 40
0.0
 40
0.0
 40
0.0
 40
0.1815353013762858
 40
0.3470816724816276
 40
0.4955678164315546
 40
0.6283573018772123
 40
0.7455196699921552
 40
0.8458307507576538
 40
0.9307818073847545
 40
1.0
 40
1.0
 40
1.0
 40
1.0
 10
-1.452911272208763
 20
0.3194497022006861
 30
0.0
 10
-1.454361035837859
 20
0.3204823237605023
 30
0.0
 10
-1.457132873498496
 20
0.322456617549668
 30
0.0
 10
-1.461009195638117
 20
0.3253867074714641
 30
0.0
 10
-1.464475513079452
 20
0.3280655999731137
 30
0.0
 10
-1.467516419241787
 20
0.3305185138354185
 30
0.0
 10
-1.470130576597932
 20
0.3327457817381692
 30
0.0
 10
-1.472338584905575
 20
0.3347260155626641
 30
0.0
 10
-1.474084197389652
 20
0.3365127699275602
 30
0.0
 10
-1.475054889541562
 20
0.3376718778702827
 30
0.0
 10
-1.475490706390067
 20
0.3381922887643847
 30
0.0
  0
SPLINE
  5
84
330
1F
100
AcDbEntity
  8
0
  6
Continuous
 62
     7
370
    35
100
AcDbSpline
210
0.0
220
0.0
230
1.0
 70
     8
 71
     3
 72
    15
 73
    11
 74
     0
 42
0.000000001
 43
0.00000001
 40
0.0
 40
0.0
 40
0.0
 40
0.0
 40
0.0902792146500145
 40
0.189529918446956
 40
0.2991978724002868
 40
0.4189258867738164
 40
0.5483762854012472
 40
0.6881363695386806
 40
0.8390835016589179
 40
1.0
 40
1.0
 40
1.0
 40
1.0
 10
-1.428068373965274
 20
0.2974775388653339
 30
0.0
 10
-1.42868532727947
 20
0.2982667838890872
 30
0.0
 10
-1.429980543590097
 20
0.2999237050925622
 30
0.0
 10
-1.432207217314231
 20
0.3023900529459261
 30
0.0
 10
-1.434820056460113
 20
0.304934085188133
 30
0.0
 10
-1.437729645236163
 20
0.3076529456979498
 30
0.0
 10
-1.441041971568471
 20
0.31042018178803
 30
0.0
 10
-1.444653291033161
 20
0.3133677517856261
 30
0.0
 10
-1.448655805165686
 20
0.3163835619055743
 30
0.0
 10
-1.45146287196167
 20
0.3184061038562258
 30
0.0
 10
-1.452911272208763
 20
0.3194497022006861
 30
0.0
  0
SPLINE
  5
85
330
1F
100
AcDbEntity
  8
0
  6
Continuous
 62
     7
370
    35
100
AcDbSpline
210
0.0
220
0.0
230
1.0
 70
     8
 71
     3
 72
    11
 73
     7
 74
     0
 42
0.000000001
 43
0.00000001
 40
0.0
 40
0.0
 40
0.0
 40
0.0
 40
0.2347233736739023
 40
0.4771583189289872
 40
0.7285562842030472
 40
1.0
 40
1.0
 40
1.0
 40
1.0
 10
-1.423127397536846
 20
0.283951960932768
 30
0.0
 10
-1.423185441265166
 20
0.2850992384803056
 30
0.0
 10
-1.423303435683001
 20
0.287431486084623
 30
0.0
 10
-1.424300738048058
 20
0.2908724173032821
 30
0.0
 10
-1.425869606034021
 20
0.2942776365955763
 30
0.0
 10
-1.427316954211382
 20
0.296383985634071
 30
0.0
 10
-1.428068373965274
 20
0.2974775388653339
 30
0.0
  0
SPLINE
  5
86
330
1F
100
AcDbEntity
  8
0
  6
Continuous
 62
     7
370
    35
100
AcDbSpline
210
0.0
220
0.0
230
1.0
 70
     8
 71
     3
 72
    19
 73
    15
 74
     0
 42
0.000000001
 43
0.00000001
 40
0.0
 40
0.0
 40
0.0
 40
0.0
 40
0.0912636048966265
 40
0.180930311085083
 40
0.2700882198317257
 40
0.3601561333877257
 40
0.4483425324981508
 40
0.5326658421383281
 40
0.6138337041070481
 40
0.6939815272835587
 40
0.7727159770890053
 40
0.8493351720622473
 40
0.9239673265752314
 40
1.0
 40
1.0
 40
1.0
 40
1.0
 10
-1.450123346961438
 20
0.2605996365838885
 30
0.0
 10
-1.448915202846812
 20
0.2606332851079911
 30
0.0
 10
-1.446520054301645
 20
0.2606999933860658
 30
0.0
 10
-1.44299398174412
 20
0.2613409698447032
 30
0.0
 10
-1.439569501339945
 20
0.2623256993294855
 30
0.0
 10
-1.436317192767878
 20
0.2637359722235204
 30
0.0
 10
-1.433281932353249
 20
0.265442211818992
 30
0.0
 10
-1.430620251434485
 20
0.267503084949201
 30
0.0
 10
-1.428319223356552
 20
0.2698104158828106
 30
0.0
 10
-1.426436974751548
 20
0.2723845361443038
 30
0.0
 10
-1.424992878874052
 20
0.2751529278217563
 30
0.0
 10
-1.423882954920776
 20
0.2779945007090907
 30
0.0
 10
-1.423267007139028
 20
0.2809538931610196
 30
0.0
 10
-1.423174221569868
 20
0.2829464310684131
 30
0.0
 10
-1.423127397536846
 20
0.283951960932768
 30
0.0
  0
SPLINE
  5
87
330
1F
100
AcDbEntity
  8
0
  6
Continuous
 62
     7
370
    35
100
AcDbSpline
210
0.0
220
0.0
230
1.0
 70
     8
 71
     3
 72
    15
 73
    11
 74
     0
 42
0.000000001
 43
0.00000001
 40
0.0
 40
0.0
 40
0.0
 40
0.0
 40
0.1590042985173749
 40
0.3046460998968126
 40
0.4385469045795907
 40
0.5623222987759257
 40
0.6774325425257278
 40
0.7868973929387552
 40
0.8936108891042644
 40
1.0
 40
1.0
 40
1.0
 40
1.0
 10
-1.480376476377952
 20
0.2835655158489799
 30
0.0
 10
-1.479293081210609
 20
0.2817519573864957
 30
0.0
 10
-1.477217337878788
 20
0.278277249358584
 30
0.0
 10
-1.47375468594365
 20
0.2735820509165059
 30
0.0
 10
-1.470166776055228
 20
0.2695914148236324
 30
0.0
 10
-1.466427038513912
 20
0.266328556259072
 30
0.0
 10
-1.462558300398858
 20
0.263759702450111
 30
0.0
 10
-1.458535306157256
 20
0.2619407169493804
 30
0.0
 10
-1.454371612822158
 20
0.2608062297300363
 30
0.0
 10
-1.451537997803285
 20
0.2606684310467822
 30
0.0
 10
-1.450123346961438
 20
0.2605996365838885
 30
0.0
  0
SPLINE
  5
89
330
1F
100
AcDbEntity
  8
0
  6
Continuous
 62
     7
370
    35
100
AcDbSpline
210
0.0
220
0.0
230
1.0
 70
     8
 71
     3
 72
    23
 73
    19
 74
     0
 42
0.000000001
 43
0.00000001
 40
0.0
 40
0.0
 40
0.0
 40
0.0
 40
0.0572082694335071
 40
0.1136960596574916
 40
0.1691779164171947
 40
0.2241592165805416
 40
0.2787198783810421
 40
0.3337942174469871
 40
0.3892414593400016
 40
0.4458220733936206
 40
0.5037042811090201
 40
0.5642938918193647
 40
0.6279754158952223
 40
0.6950382596840513
 40
0.7653727258510136
 40
0.8396114430907351
 40
0.9175377500777899
 40
1.0
 40
1.0
 40
1.0
 40
1.0
 10
-1.450123346961438
 20
0.2464667878053702
 30
0.0
 10
-1.451164108496121
 20
0.2464869130651109
 30
0.0
 10
-1.453232524246299
 20
0.2465269101276817
 30
0.0
 10
-1.456291952666502
 20
0.2468805038450903
 30
0.0
 10
-1.459289574288473
 20
0.2473807835140338
 30
0.0
 10
-1.462187774368557
 20
0.2481750382375353
 30
0.0
 10
-1.46502389293713
 20
0.2491386987510036
 30
0.0
 10
-1.467785595083822
 20
0.2503252472784917
 30
0.0
 10
-1.470474219251376
 20
0.251747184343349
 30
0.0
 10
-1.47310483275013
 20
0.2533729727145554
 30
0.0
 10
-1.47567074513541
 20
0.2552650099020985
 30
0.0
 10
-1.478147889542058
 20
0.2574686908642317
 30
0.0
 10
-1.480617542515022
 20
0.2599232383048343
 30
0.0
 10
-1.483006810086738
 20
0.2626953077285231
 30
0.0
 10
-1.485364020492479
 20
0.2657401141402465
 30
0.0
 10
-1.487642698033286
 20
0.269086144982665
 30
0.0
 10
-1.489890009752933
 20
0.2727151746582153
 30
0.0
 10
-1.491300067541409
 20
0.2752689181904916
 30
0.0
 10
-1.492025035332122
 20
0.276581901120533
 30
0.0
  0
SPLINE
  5
8D
330
1F
100
AcDbEntity
  8
0
  6
Continuous
 62
     7
370
    35
100
AcDbSpline
210
0.0
220
0.0
230
1.0
 70
     8
 71
     3
 72
    15
 73
    11
 74
     0
 42
0.000000001
 43
0.00000001
 40
0.0
 40
0.0
 40
0.0
 40
0.0
 40
0.0751731173762229
 40
0.164746257511803
 40
0.2680168809877816
 40
0.3859118756529574
 40
0.5177894792733981
 40
0.6636909770022813
 40
0.8244132205366433
 40
1.0
 40
1.0
 40
1.0
 40
1.0
 10
-1.180329472037148
 20
0.3158612835655155
 30
0.0
 10
-1.181192752902952
 20
0.3156777016333152
 30
0.0
 10
-1.183084683114
 20
0.3152753711549149
 30
0.0
 10
-1.186200538317848
 20
0.3148262193106281
 30
0.0
 10
-1.189828309417448
 20
0.314442849204902
 30
0.0
 10
-1.193963044847195
 20
0.314155402843443
 30
0.0
 10
-1.198601033229933
 20
0.3139093253449387
 30
0.0
 10
-1.203744783518506
 20
0.3137137310972741
 30
0.0
 10
-1.209404392856274
 20
0.3136062565368352
 30
0.0
 10
-1.213352079630997
 20
0.3136007135132721
 30
0.0
 10
-1.215413165001009
 20
0.3135978195033311
 30
0.0
  0
SPLINE
  5
8E
330
1F
100
AcDbEntity
  8
0
  6
Continuous
 62
     7
370
    35
100
AcDbSpline
210
0.0
220
0.0
230
1.0
 70
     8
 71
     3
 72
    23
 73
    19
 74
     0
 42
0.000000001
 43
0.00000001
 40
0.0
 40
0.0
 40
0.0
 40
0.0
 40
0.0701188944197149
 40
0.1371923527859724
 40
0.2020161807247514
 40
0.264631406974744
 40
0.3261165471458177
 40
0.3860103046676418
 40
0.4458118469576804
 40
0.5052976967309607
 40
0.5646332777264881
 40
0.6242826253338414
 40
0.6839020319037497
 40
0.743952770938271
 40
0.8053877310076357
 40
0.8683880308962807
 40
0.9330840282524764
 40
1.0
 40
1.0
 40
1.0
 40
1.0
 10
-1.152836664647688
 20
0.3508345636482935
 30
0.0
 10
-1.15285325617245
 20
0.3497015803102039
 30
0.0
 10
-1.152885718611244
 20
0.3474848218871537
 30
0.0
 10
-1.153275336143875
 20
0.3442417987301186
 30
0.0
 10
-1.153800146837526
 20
0.3411426495123391
 30
0.0
 10
-1.154607117401589
 20
0.3381942459505509
 30
0.0
 10
-1.155664033665306
 20
0.3354140975068205
 30
0.0
 10
-1.156903878265529
 20
0.3327597182934052
 30
0.0
 10
-1.158399292847017
 20
0.3302762666438541
 30
0.0
 10
-1.160117593229319
 20
0.3279547265831592
 30
0.0
 10
-1.162029073323528
 20
0.325792919011735
 30
0.0
 10
-1.16412564569153
 20
0.323806509779739
 30
0.0
 10
-1.166398846183667
 20
0.322007126377277
 30
0.0
 10
-1.168841450438642
 20
0.3203907348937972
 30
0.0
 10
-1.171477271258978
 20
0.3189948183781406
 30
0.0
 10
-1.174266332423188
 20
0.3177445307826465
 30
0.0
 10
-1.177232876376808
 20
0.3166944890252263
 30
0.0
 10
-1.179285731257728
 20
0.3161421244021395
 30
0.0
 10
-1.180329472037148
 20
0.3158612835655155
 30
0.0
  0
SPLINE
  5
8F
330
1F
100
AcDbEntity
  8
0
  6
Continuous
 62
     7
370
    35
100
AcDbSpline
210
0.0
220
0.0
230
1.0
 70
     8
 71
     3
 72
    23
 73
    19
 74
     0
 42
0.000000001
 43
0.00000001
 40
0.0
 40
0.0
 40
0.0
 40
0.0
 40
0.062481338635207
 40
0.123490382687293
 40
0.1834110942063114
 40
0.2431532209997815
 40
0.3021267353720905
 40
0.361709670832907
 40
0.4218422916948809
 40
0.4829319014466701
 40
0.544552254431325
 40
0.6056807199653589
 40
0.667679738343689
 40
0.729984387538064
 40
0.7945509212861304
 40
0.8603456197120828
 40
0.9289073562657101
 40
1.0
 40
1.0
 40
1.0
 40
1.0
 10
-1.179225343226327
 20
0.3857250340702604
 30
0.0
 10
-1.178272841896197
 20
0.3854643273839731
 30
0.0
 10
-1.176390283738238
 20
0.3849490572383263
 30
0.0
 10
-1.173677644246049
 20
0.3839170208810172
 30
0.0
 10
-1.171096784187766
 20
0.3826933135906437
 30
0.0
 10
-1.168638848815909
 20
0.3812986702894273
 30
0.0
 10
-1.166334042395795
 20
0.3796732543765476
 30
0.0
 10
-1.164147977790834
 20
0.3778829544655518
 30
0.0
 10
-1.162099947070532
 20
0.3758864360178187
 30
0.0
 10
-1.160201467075092
 20
0.3737060919293367
 30
0.0
 10
-1.158457971107219
 20
0.3713785246111676
 30
0.0
 10
-1.156956802495914
 20
0.3688689880006366
 30
0.0
 10
-1.155699825053659
 20
0.3662197240864696
 30
0.0
 10
-1.154621743499164
 20
0.363432575615708
 30
0.0
 10
-1.153845820094866
 20
0.3604841376829787
 30
0.0
 10
-1.153261296484415
 20
0.3573948970383251
 30
0.0
 10
-1.152890287523169
 20
0.3541651848256681
 30
0.0
 10
-1.152854753595801
 20
0.3519581034272092
 30
0.0
 10
-1.152836664647688
 20
0.3508345636482935
 30
0.0
  0
SPLINE
  5
90
330
1F
100
AcDbEntity
  8
0
  6
Continuous
 62
     7
370
    35
100
AcDbSpline
210
0.0
220
0.0
230
1.0
 70
     8
 71
     3
 72
    15
 73
    11
 74
     0
 42
0.000000001
 43
0.00000001
 40
0.0
 40
0.0
 40
0.0
 40
0.0
 40
0.176955752131254
 40
0.3390550796425833
 40
0.4863182249420783
 40
0.6187809228353784
 40
0.7356188277673812
 40
0.8387424767201107
 40
0.9264570678763169
 40
0.9999999999999999
 40
0.9999999999999999
 40
0.9999999999999999
 40
0.9999999999999999
 10
-1.210610204673934
 20
0.3877952755905511
 30
0.0
 10
-1.208751507581349
 20
0.3877932324314627
 30
0.0
 10
-1.2051901614077
 20
0.3877893176479134
 30
0.0
 10
-1.200083269450657
 20
0.3876706268673761
 30
0.0
 10
-1.195445091040171
 20
0.3875120956826211
 30
0.0
 10
-1.191285627224159
 20
0.3872923361080888
 30
0.0
 10
-1.187592080055396
 20
0.3870326278306281
 30
0.0
 10
-1.184381162750412
 20
0.3866683743118315
 30
0.0
 10
-1.181627636910499
 20
0.3862880477152444
 30
0.0
 10
-1.179977776696069
 20
0.3859013781672368
 30
0.0
 10
-1.179225343226327
 20
0.3857250340702604
 30
0.0
  0
SPLINE
  5
93
330
1F
100
AcDbEntity
  8
0
  6
Continuous
 62
     7
370
    35
100
AcDbSpline
210
0.0
220
0.0
230
1.0
 70
     8
 71
     3
 72
    19
 73
    15
 74
     0
 42
0.000000001
 43
0.00000001
 40
0.0
 40
0.0
 40
0.0
 40
0.0
 40
0.0978181896147148
 40
0.1997260534018265
 40
0.3052763574779411
 40
0.415811490538293
 40
0.4744722311435602
 40
0.5372738797760973
 40
0.6036574205596572
 40
0.6742988630901263
 40
0.7498344853162283
 40
0.8285984767571022
 40
0.9123777781577823
 40
1.0
 40
1.0
 40
1.0
 40
1.0
 10
-1.066272965879265
 20
0.2884236826165957
 30
0.0
 10
-1.06622645229633
 20
0.2898427606957244
 30
0.0
 10
-1.066131480447168
 20
0.2927402469948449
 30
0.0
 10
-1.065468354843297
 20
0.2971285945516767
 30
0.0
 10
-1.064402811741592
 20
0.3016187946196531
 30
0.0
 10
-1.063209494956062
 20
0.3054280148399764
 30
0.0
 10
-1.061948644166886
 20
0.30854854720059
 30
0.0
 10
-1.060899331584697
 20
0.3110644326582372
 30
0.0
 10
-1.059593268748456
 20
0.3136534512895255
 30
0.0
 10
-1.058200615945504
 20
0.3164043818399335
 30
0.0
 10
-1.05659601480714
 20
0.3192463280087731
 30
0.0
 10
-1.054851304201299
 20
0.3222267874363856
 30
0.0
 10
-1.052918247079035
 20
0.3252983593915804
 30
0.0
 10
-1.051563122561473
 20
0.327382776527284
 30
0.0
 10
-1.050870368968302
 20
0.3284483520088832
 30
0.0
  0
SPLINE
  5
94
330
1F
100
AcDbEntity
  8
0
  6
Continuous
 62
     7
370
    35
100
AcDbSpline
210
0.0
220
0.0
230
1.0
 70
     8
 71
     3
 72
    19
 73
    15
 74
     0
 42
0.000000001
 43
0.00000001
 40
0.0
 40
0.0
 40
0.0
 40
0.0
 40
0.0843347219926264
 40
0.167052318416074
 40
0.2495660772409647
 40
0.3327404818018458
 40
0.4159148863627264
 40
0.4978280095399954
 40
0.580372588608051
 40
0.6646001210565035
 40
0.749466693112617
 40
0.8325102339401407
 40
0.915639281668174
 40
1.0
 40
1.0
 40
1.0
 40
1.0
 10
-1.024536896830204
 20
0.2464667878053702
 30
0.0
 10
-1.026391097643298
 20
0.246526953385832
 30
0.0
 10
-1.030063944808948
 20
0.2466461308665595
 30
0.0
 10
-1.03546681072381
 20
0.247707781963976
 30
0.0
 10
-1.040658268099455
 20
0.249428534041485
 30
0.0
 10
-1.045601944513152
 20
0.2517991749290007
 30
0.0
 10
-1.050181496203228
 20
0.2547935797696478
 30
0.0
 10
-1.054278568503723
 20
0.2583983939087007
 30
0.0
 10
-1.057872732856423
 20
0.2625365618249382
 30
0.0
 10
-1.060863859664719
 20
0.2672074416387923
 30
0.0
 10
-1.063236250686263
 20
0.27222673130432
 30
0.0
 10
-1.065015381596354
 20
0.2774604776188699
 30
0.0
 10
-1.066054603770964
 20
0.2828896107576813
 30
0.0
 10
-1.066199822544412
 20
0.286569970568173
 30
0.0
 10
-1.066272965879265
 20
0.2884236826165957
 30
0.0
  0
SPLINE
  5
95
330
1F
100
AcDbEntity
  8
0
  6
Continuous
 62
     7
370
    35
100
AcDbSpline
210
0.0
220
0.0
230
1.0
 70
     8
 71
     3
 72
    19
 73
    15
 74
     0
 42
0.000000001
 43
0.00000001
 40
0.0
 40
0.0
 40
0.0
 40
0.0
 40
0.0859479431441276
 40
0.1691252118806904
 40
0.2503991071860494
 40
0.3322897361388355
 40
0.4133642879158809
 40
0.4941722833711887
 40
0.5760217353866371
 40
0.6607569692540072
 40
0.7457831259137431
 40
0.8300435929752236
 40
0.9140275458206821
 40
1.0
 40
1.0
 40
1.0
 40
1.0
 10
-0.9814758732081565
 20
0.2886721115990306
 30
0.0
 10
-0.9815319009595035
 20
0.2867437767979745
 30
0.0
 10
-0.9816421503147654
 20
0.2829492702644255
 30
0.0
 10
-0.9827407249612482
 20
0.2774226282799963
 30
0.0
 10
-0.9844477975894106
 20
0.2721575686133405
 30
0.0
 10
-0.9868878577627628
 20
0.2672381524177346
 30
0.0
 10
-0.9899186602424372
 20
0.2626711221193844
 30
0.0
 10
-0.9936146284577048
 20
0.2586244502523885
 30
0.0
 10
-0.9978446870535348
 20
0.255015393665086
 30
0.0
 10
-1.002627631863771
 20
0.2519974165309155
 30
0.0
 10
-1.007774992655752
 20
0.2495327294831822
 30
0.0
 10
-1.013182551609074
 20
0.2477624443618092
 30
0.0
 10
-1.018797793590932
 20
0.2466725439920875
 30
0.0
 10
-1.02260899863245
 20
0.2465359060918014
 30
0.0
 10
-1.024536896830204
 20
0.2464667878053702
 30
0.0
  0
SPLINE
  5
96
330
1F
100
AcDbEntity
  8
0
  6
Continuous
 62
     7
370
    35
100
AcDbSpline
210
0.0
220
0.0
230
1.0
 70
     8
 71
     3
 72
    23
 73
    19
 74
     0
 42
0.000000001
 43
0.00000001
 40
0.0
 40
0.0
 40
0.0
 40
0.0
 40
0.065230803742029
 40
0.1284048960032228
 40
0.1900670715964771
 40
0.2509433657682805
 40
0.311545832852142
 40
0.3728628021568289
 40
0.4350236738562384
 40
0.4990717247070434
 40
0.563091075049662
 40
0.6255101063303751
 40
0.6866800359296492
 40
0.7472825030135123
 40
0.8085634952159584
 40
0.8707421035159856
 40
0.9343409515059118
 40
0.9999999999999999
 40
0.9999999999999999
 40
0.9999999999999999
 40
0.9999999999999999
 10
-1.022356242428831
 20
0.3294972743791641
 30
0.0
 10
-1.020955750447132
 20
0.3294596321864171
 30
0.0
 10
-1.018198923657528
 20
0.3293855346501651
 30
0.0
 10
-1.014151411760913
 20
0.3288153043079664
 30
0.0
 10
-1.010262083572993
 20
0.3279166778542809
 30
0.0
 10
-1.006547059468449
 20
0.3266067465177372
 30
0.0
 10
-1.002993005064529
 20
0.3249334254798518
 30
0.0
 10
-0.9995795249027764
 20
0.3229279581459744
 30
0.0
 10
-0.9963707843474129
 20
0.3204867896279917
 30
0.0
 10
-0.9933254623311963
 20
0.3177598228648478
 30
0.0
 10
-0.990560615977144
 20
0.3147394691445661
 30
0.0
 10
-0.9881127397740916
 20
0.311534692108895
 30
0.0
 10
-0.9860565668711738
 20
0.3081488306522731
 30
0.0
 10
-0.9843883022406777
 20
0.304583599710016
 30
0.0
 10
-0.9830928345793446
 20
0.3008444950029082
 30
0.0
 10
-0.9821484391051858
 20
0.2969363005348608
 30
0.0
 10
-0.981590187419366
 20
0.2928563213435176
 30
0.0
 10
-0.9815143806982993
 20
0.2900815900338252
 30
0.0
 10
-0.9814758732081565
 20
0.2886721115990306
 30
0.0
  0
SPLINE
  5
97
330
1F
100
AcDbEntity
  8
0
  6
Continuous
 62
     7
370
    35
100
AcDbSpline
210
0.0
220
0.0
230
1.0
 70
     8
 71
     3
 72
     9
 73
     5
 74
     0
 42
0.000000001
 43
0.00000001
 40
0.0
 40
0.0
 40
0.0
 40
0.0
 40
0.512659336341778
 40
0.9999999999999999
 40
0.9999999999999999
 40
0.9999999999999999
 40
0.9999999999999999
 10
-1.036627107308701
 20
0.3281723198061779
 30
0.0
 10
-1.034203080655814
 20
0.3285586922728551
 30
0.0
 10
-1.029474742593771
 20
0.3293123554547916
 30
0.0
 10
-1.024688683596748
 20
0.3294366840157529
 30
0.0
 10
-1.022356242428831
 20
0.3294972743791641
 30
0.0
  0
SPLINE
  5
9B
330
1F
100
AcDbEntity
  8
0
  6
Continuous
 62
     7
370
    35
100
AcDbSpline
210
0.0
220
0.0
230
1.0
 70
     8
 71
     3
 72
    19
 73
    15
 74
     0
 42
0.000000001
 43
0.00000001
 40
0.0
 40
0.0
 40
0.0
 40
0.0
 40
0.0978181896147148
 40
0.1997260534018265
 40
0.3052763574779411
 40
0.415811490538293
 40
0.4744722311435602
 40
0.5372738797760973
 40
0.6036574205596572
 40
0.6742988630901263
 40
0.7498344853162283
 40
0.8285984767571022
 40
0.9123777781577823
 40
1.0
 40
1.0
 40
1.0
 40
1.0
 10
-0.8542802342014939
 20
0.2884236826165957
 30
0.0
 10
-0.8542337206185588
 20
0.2898427606957244
 30
0.0
 10
-0.8541387487693977
 20
0.2927402469948449
 30
0.0
 10
-0.8534756231655263
 20
0.2971285945516767
 30
0.0
 10
-0.8524100800638209
 20
0.3016187946196531
 30
0.0
 10
-0.8512167632782917
 20
0.3054280148399764
 30
0.0
 10
-0.849955912489115
 20
0.30854854720059
 30
0.0
 10
-0.8489065999069254
 20
0.3110644326582372
 30
0.0
 10
-0.8476005370706854
 20
0.3136534512895255
 30
0.0
 10
-0.8462078842677316
 20
0.3164043818399335
 30
0.0
 10
-0.8446032831293688
 20
0.3192463280087731
 30
0.0
 10
-0.8428585725235287
 20
0.3222267874363856
 30
0.0
 10
-0.840925515401263
 20
0.3252983593915804
 30
0.0
 10
-0.8395703908837022
 20
0.327382776527284
 30
0.0
 10
-0.8388776372905311
 20
0.3284483520088832
 30
0.0
  0
SPLINE
  5
9C
330
1F
100
AcDbEntity
  8
0
  6
Continuous
 62
     7
370
    35
100
AcDbSpline
210
0.0
220
0.0
230
1.0
 70
     8
 71
     3
 72
    19
 73
    15
 74
     0
 42
0.000000001
 43
0.00000001
 40
0.0
 40
0.0
 40
0.0
 40
0.0
 40
0.0843347219926264
 40
0.167052318416074
 40
0.2495660772409647
 40
0.3327404818018458
 40
0.4159148863627264
 40
0.4978280095399954
 40
0.580372588608051
 40
0.6646001210565035
 40
0.749466693112617
 40
0.8325102339401407
 40
0.915639281668174
 40
1.0
 40
1.0
 40
1.0
 40
1.0
 10
-0.8125441651524321
 20
0.2464667878053702
 30
0.0
 10
-0.8143983659655273
 20
0.246526953385832
 30
0.0
 10
-0.8180712131311759
 20
0.2466461308665595
 30
0.0
 10
-0.8234740790460391
 20
0.247707781963976
 30
0.0
 10
-0.8286655364216832
 20
0.249428534041485
 30
0.0
 10
-0.8336092128353815
 20
0.2517991749290007
 30
0.0
 10
-0.8381887645254565
 20
0.2547935797696478
 30
0.0
 10
-0.842285836825952
 20
0.2583983939087007
 30
0.0
 10
-0.845880001178652
 20
0.2625365618249382
 30
0.0
 10
-0.8488711279869484
 20
0.2672074416387923
 30
0.0
 10
-0.8512435190084919
 20
0.27222673130432
 30
0.0
 10
-0.8530226499185832
 20
0.2774604776188699
 30
0.0
 10
-0.8540618720931927
 20
0.2828896107576813
 30
0.0
 10
-0.8542070908666405
 20
0.286569970568173
 30
0.0
 10
-0.8542802342014939
 20
0.2884236826165957
 30
0.0
  0
SPLINE
  5
9D
330
1F
100
AcDbEntity
  8
0
  6
Continuous
 62
     7
370
    35
100
AcDbSpline
210
0.0
220
0.0
230
1.0
 70
     8
 71
     3
 72
    19
 73
    15
 74
     0
 42
0.000000001
 43
0.00000001
 40
0.0
 40
0.0
 40
0.0
 40
0.0
 40
0.0859479431441276
 40
0.1691252118806904
 40
0.2503991071860494
 40
0.3322897361388355
 40
0.4133642879158809
 40
0.4941722833711887
 40
0.5760217353866371
 40
0.6607569692540072
 40
0.7457831259137431
 40
0.8300435929752236
 40
0.9140275458206821
 40
1.0
 40
1.0
 40
1.0
 40
1.0
 10
-0.7694831415303847
 20
0.2886721115990306
 30
0.0
 10
-0.7695391692817317
 20
0.2867437767979745
 30
0.0
 10
-0.7696494186369937
 20
0.2829492702644255
 30
0.0
 10
-0.7707479932834774
 20
0.2774226282799963
 30
0.0
 10
-0.7724550659116399
 20
0.2721575686133405
 30
0.0
 10
-0.7748951260849921
 20
0.2672381524177346
 30
0.0
 10
-0.7779259285646665
 20
0.2626711221193844
 30
0.0
 10
-0.7816218967799341
 20
0.2586244502523885
 30
0.0
 10
-0.7858519553757629
 20
0.255015393665086
 30
0.0
 10
-0.790634900185999
 20
0.2519974165309155
 30
0.0
 10
-0.7957822609779818
 20
0.2495327294831822
 30
0.0
 10
-0.8011898199313017
 20
0.2477624443618092
 30
0.0
 10
-0.8068050619131598
 20
0.2466725439920875
 30
0.0
 10
-0.8106162669546778
 20
0.2465359060918014
 30
0.0
 10
-0.8125441651524321
 20
0.2464667878053702
 30
0.0
  0
SPLINE
  5
9E
330
1F
100
AcDbEntity
  8
0
  6
Continuous
 62
     7
370
    35
100
AcDbSpline
210
0.0
220
0.0
230
1.0
 70
     8
 71
     3
 72
    23
 73
    19
 74
     0
 42
0.000000001
 43
0.00000001
 40
0.0
 40
0.0
 40
0.0
 40
0.0
 40
0.065230803742029
 40
0.1284048960032228
 40
0.1900670715964771
 40
0.2509433657682805
 40
0.311545832852142
 40
0.3728628021568289
 40
0.4350236738562384
 40
0.4990717247070434
 40
0.563091075049662
 40
0.6255101063303751
 40
0.6866800359296492
 40
0.7472825030135123
 40
0.8085634952159584
 40
0.8707421035159856
 40
0.9343409515059118
 40
0.9999999999999999
 40
0.9999999999999999
 40
0.9999999999999999
 40
0.9999999999999999
 10
-0.8103635107510598
 20
0.3294972743791641
 30
0.0
 10
-0.8089630187693599
 20
0.3294596321864171
 30
0.0
 10
-0.8062061919797556
 20
0.3293855346501651
 30
0.0
 10
-0.8021586800831424
 20
0.3288153043079664
 30
0.0
 10
-0.7982693518952221
 20
0.3279166778542809
 30
0.0
 10
-0.7945543277906776
 20
0.3266067465177372
 30
0.0
 10
-0.7910002733867576
 20
0.3249334254798518
 30
0.0
 10
-0.7875867932250045
 20
0.3229279581459744
 30
0.0
 10
-0.7843780526696421
 20
0.3204867896279917
 30
0.0
 10
-0.7813327306534246
 20
0.3177598228648478
 30
0.0
 10
-0.7785678842993721
 20
0.3147394691445661
 30
0.0
 10
-0.7761200080963198
 20
0.311534692108895
 30
0.0
 10
-0.774063835193402
 20
0.3081488306522731
 30
0.0
 10
-0.772395570562907
 20
0.304583599710016
 30
0.0
 10
-0.7711001029015727
 20
0.3008444950029082
 30
0.0
 10
-0.770155707427415
 20
0.2969363005348608
 30
0.0
 10
-0.7695974557415941
 20
0.2928563213435176
 30
0.0
 10
-0.7695216490205274
 20
0.2900815900338252
 30
0.0
 10
-0.7694831415303847
 20
0.2886721115990306
 30
0.0
  0
SPLINE
  5
9F
330
1F
100
AcDbEntity
  8
0
  6
Continuous
 62
     7
370
    35
100
AcDbSpline
210
0.0
220
0.0
230
1.0
 70
     8
 71
     3
 72
     9
 73
     5
 74
     0
 42
0.000000001
 43
0.00000001
 40
0.0
 40
0.0
 40
0.0
 40
0.0
 40
0.512659336341778
 40
0.9999999999999999
 40
0.9999999999999999
 40
0.9999999999999999
 40
0.9999999999999999
 10
-0.8246343756309308
 20
0.3281723198061779
 30
0.0
 10
-0.8222103489780435
 20
0.3285586922728551
 30
0.0
 10
-0.8174820109159999
 20
0.3293123554547916
 30
0.0
 10
-0.8126959519189758
 20
0.3294366840157529
 30
0.0
 10
-0.8103635107510598
 20
0.3294972743791641
 30
0.0
  0
CIRCLE
  5
A3
330
1F
100
AcDbEntity
  8
0
  6
Continuous
 62
     7
370
    35
100
AcDbCircle
 10
-1.14
 20
1.281496063
 30
0.0
 40
0.0470000000000006
  0
CIRCLE
  5
A4
330
1F
100
AcDbEntity
  8
0
  6
Continuous
 62
     7
370
    35
100
AcDbCircle
 10
-1.14
 20
2.218503937
 30
0.0
 40
0.0470000000000008
  0
CIRCLE
  5
A9
330
1F
100
AcDbEntity
  8
0
  6
Continuous
 62
     7
370
    35
100
AcDbCircle
 10
-7.975
 20
4.5
 30
0.0
 40
0.0749999999999975
  0
CIRCLE
  5
AA
330
1F
100
AcDbEntity
  8
0
  6
Continuous
 62
     7
370
    35
100
AcDbCircle
 10
-7.025
 20
4.5
 30
0.0
 40
0.0749999999999993
  0
CIRCLE
  5
AB
330
1F
100
AcDbEntity
  8
0
  6
Continuous
 62
     7
370
    35
100
AcDbCircle
 10
-6.35
 20
4.5
 30
0.0
 40
0.0749999999999984
  0
CIRCLE
  5
AC
330
1F
100
AcDbEntity
  8
0
  6
Continuous
 62
     7
370
    35
100
AcDbCircle
 10
-5.4
 20
4.5
 30
0.0
 40
0.0750000000000011
  0
CIRCLE
  5
AD
330
1F
100
AcDbEntity
  8
0
  6
Continuous
 62
     7
370
    35
100
AcDbCircle
 10
-11.925
 20
0.985
 30
0.0
 40
0.0749999999999993
  0
CIRCLE
  5
AE
330
1F
100
AcDbEntity
  8
0
  6
Continuous
 62
     7
370
    35
100
AcDbCircle
 10
-11.925
 20
2.045
 30
0.0
 40
0.0749999999999993
  0
CIRCLE
  5
B3
330
1F
100
AcDbEntity
  8
0
  6
Continuous
 62
     7
370
    35
100
AcDbCircle
 10
-9.5
 20
1.875
 30
0.0
 40
1.500000000000008
  0
CIRCLE
  5
B4
330
1F
100
AcDbEntity
  8
0
  6
Continuous
 62
     7
370
    35
100
AcDbCircle
 10
-8.092519685
 20
3.282480315
 30
0.0
 40
0.0750000000000046
  0
CIRCLE
  5
B5
330
1F
100
AcDbEntity
  8
0
  6
Continuous
 62
     7
370
    35
100
AcDbCircle
 10
-10.907480315
 20
3.282480315
 30
0.0
 40
0.0750000000000011
  0
CIRCLE
  5
B6
330
1F
100
AcDbEntity
  8
0
  6
Continuous
 62
     7
370
    35
100
AcDbCircle
 10
-10.907480315
 20
0.467519685
 30
0.0
 40
0.0750000000000028
  0
CIRCLE
  5
B7
330
1F
100
AcDbEntity
  8
0
  6
Continuous
 62
     7
370
    35
100
AcDbCircle
 10
-8.092519685
 20
0.467519685
 30
0.0
 40
0.0749999999999993
  0
CIRCLE
  5
B8
330
1F
100
AcDbEntity
  8
0
  6
Continuous
 62
     7
370
    35
100
AcDbCircle
 10
-5.407480315
 20
0.467519685
 30
0.0
 40
0.0750000000000002
  0
CIRCLE
  5
B9
330
1F
100
AcDbEntity
  8
0
  6
Continuous
 62
     7
370
    35
100
AcDbCircle
 10
-2.592519685
 20
0.467519685
 30
0.0
 40
0.0750000000000006
  0
CIRCLE
  5
BA
330
1F
100
AcDbEntity
  8
0
  6
Continuous
 62
     7
370
    35
100
AcDbCircle
 10
-2.592519685
 20
3.282480315
 30
0.0
 40
0.0750000000000006
  0
CIRCLE
  5
BB
330
1F
100
AcDbEntity
  8
0
  6
Continuous
 62
     7
370
    35
100
AcDbCircle
 10
-5.407480315
 20
3.282480315
 30
0.0
 40
0.0750000000000002
  0
CIRCLE
  5
BC
330
1F
100
AcDbEntity
  8
0
  6
Continuous
 62
     7
370
    35
100
AcDbCircle
 10
-4.0
 20
1.875
 30
0.0
 40
1.500000000000003
  0
CIRCLE
  5
BD
330
1F
100
AcDbEntity
  8
0
  6
Continuous
 62
     7
370
    35
100
AcDbCircle
 10
-8.36275
 20
6.1
 30
0.0
 40
0.0749999999999993
  0
CIRCLE
  5
BE
330
1F
100
AcDbEntity
  8
0
  6
Continuous
 62
     7
370
    35
100
AcDbCircle
 10
-6.124
 20
0.34375
 30
0.0
 40
0.0749999999999993
  0
CIRCLE
  5
BF
330
1F
100
AcDbEntity
  8
0
  6
Continuous
 62
     7
370
    35
100
AcDbCircle
 10
-11.6565
 20
0.34375
 30
0.0
 40
0.0749999999999993
  0
CIRCLE
  5
C0
330
1F
100
AcDbEntity
  8
0
  6
Continuous
 62
     7
370
    35
100
AcDbCircle
 10
-1.8435
 20
0.34375
 30
0.0
 40
0.0750000000000004
  0
SPLINE
  5
CC
330
1F
100
AcDbEntity
  8
0
  6
Continuous
 62
     7
370
    35
100
AcDbSpline
210
0.0
220
0.0
230
1.0
 70
     8
 71
     3
 72
    31
 73
    27
 74
     0
 42
0.000000001
 43
0.00000001
 40
0.0
 40
0.0
 40
0.0
 40
0.0
 40
0.0650632896172793
 40
0.1267731664665228
 40
0.185515763226079
 40
0.2407646791677154
 40
0.2929797960235985
 40
0.3422503727797674
 40
0.3889192861856606
 40
0.4327756640583104
 40
0.4746284326311181
 40
0.5147746906379541
 40
0.5536058934984427
 40
0.591426406431173
 40
0.6280281199460672
 40
0.6638036341103204
 40
0.6989843361316641
 40
0.7335914893067058
 40
0.7676284691511401
 40
0.801208347786592
 40
0.8342638397266227
 40
0.8669806947287764
 40
0.8997197415181609
 40
0.9327019124985388
 40
0.96617588343275
 40
1.0
 40
1.0
 40
1.0
 40
1.0
 10
-0.8737129012719559
 20
0.3188424313547344
 30
0.0
 10
-0.8737385542067563
 20
0.3167351908846201
 30
0.0
 10
-0.87378853790406
 20
0.3126293187641939
 30
0.0
 10
-0.8740475421075129
 20
0.3066241622555406
 30
0.0
 10
-0.8745577244373841
 20
0.3009549479524474
 30
0.0
 10
-0.875195912953477
 20
0.2956080793517108
 30
0.0
 10
-0.8760798091335332
 20
0.2906058108937204
 30
0.0
 10
-0.8771666267024811
 20
0.2859308326075818
 30
0.0
 10
-0.8783733323253863
 20
0.2815629557703603
 30
0.0
 10
-0.8798628911486065
 20
0.2775379631872913
 30
0.0
 10
-0.8814932340756634
 20
0.2737997063815909
 30
0.0
 10
-0.8832670606967409
 20
0.2703088737701855
 30
0.0
 10
-0.8851674475505081
 20
0.2670346102788611
 30
0.0
 10
-0.8872378705821233
 20
0.264003124179209
 30
0.0
 10
-0.889444697873321
 20
0.2611929408298836
 30
0.0
 10
-0.8918351619990293
 20
0.2586536643475396
 30
0.0
 10
-0.8943418779479263
 20
0.2563241103332429
 30
0.0
 10
-0.8969959100673727
 20
0.2542512116142605
 30
0.0
 10
-0.8997680183835997
 20
0.2524368492270017
 30
0.0
 10
-0.9026010529082017
 20
0.2508142566920484
 30
0.0
 10
-0.9055452805990389
 20
0.2495058828711884
 30
0.0
 10
-0.9085339795253979
 20
0.2483824560610404
 30
0.0
 10
-0.9116098994511835
 20
0.247524170553712
 30
0.0
 10
-0.9147692061712399
 20
0.2469307116749481
 30
0.0
 10
-0.9179958296329992
 20
0.2465144971688549
 30
0.0
 10
-0.9201769936125768
 20
0.2464827459926615
 30
0.0
 10
-0.9212732497981015
 20
0.2464667878053702
 30
0.0
  0
SPLINE
  5
CD
330
1F
100
AcDbEntity
  8
0
  6
Continuous
 62
     7
370
    35
100
AcDbSpline
210
0.0
220
0.0
230
1.0
 70
     8
 71
     3
 72
    31
 73
    27
 74
     0
 42
0.000000001
 43
0.00000001
 40
0.0
 40
0.0
 40
0.0
 40
0.0
 40
0.0337881161627101
 40
0.0671939323738795
 40
0.0998624108568249
 40
0.1325666121262584
 40
0.1651511732547869
 40
0.1979131873557922
 40
0.2313190035669616
 40
0.2650832782673731
 40
0.2992553087581148
 40
0.334398566504979
 40
0.3699428235093085
 40
0.4062835607000617
 40
0.4440638196985083
 40
0.4829977068727752
 40
0.5233544466133045
 40
0.5655365896041491
 40
0.6096129240658195
 40
0.6563908113764171
 40
0.7058854949364574
 40
0.7583245002617311
 40
0.8138317829411498
 40
0.8727945590393902
 40
0.9347222295400739
 40
1.0
 40
1.0
 40
1.0
 40
1.0
 10
-0.9212732497981015
 20
0.3913284877851806
 30
0.0
 10
-0.9201773648184032
 20
0.3913092824633039
 30
0.0
 10
-0.9179979943894399
 20
0.3912710891206153
 30
0.0
 10
-0.914775932371884
 20
0.3909040047688595
 30
0.0
 10
-0.9116283071075297
 20
0.3902949054343349
 30
0.0
 10
-0.9085685378672346
 20
0.3894318749389541
 30
0.0
 10
-0.9055714911559058
 20
0.388361179007481
 30
0.0
 10
-0.9026606089651317
 20
0.3870191665228679
 30
0.0
 10
-0.8998178104752873
 20
0.3854570063911962
 30
0.0
 10
-0.897088271596551
 20
0.383621420670463
 30
0.0
 10
-0.8944420268978861
 20
0.3815748743635036
 30
0.0
 10
-0.8919440755997725
 20
0.3792613834657345
 30
0.0
 10
-0.889594190328219
 20
0.376704307903976
 30
0.0
 10
-0.8873628790925399
 20
0.3739310061761568
 30
0.0
 10
-0.8853134461319403
 20
0.370888286300819
 30
0.0
 10
-0.8833617362014111
 20
0.3676290693790022
 30
0.0
 10
-0.8816148056541018
 20
0.3640963581666473
 30
0.0
 10
-0.8799323381273854
 20
0.3603490956532209
 30
0.0
 10
-0.8784800945549747
 20
0.3562835972750056
 30
0.0
 10
-0.8771703998592135
 20
0.3519227799317736
 30
0.0
 10
-0.8761121727499646
 20
0.3472151347800669
 30
0.0
 10
-0.8752307053350774
 20
0.3421853613432516
 30
0.0
 10
-0.8745478354159583
 20
0.3368149879873397
 30
0.0
 10
-0.8740504873026298
 20
0.3311155267467192
 30
0.0
 10
-0.8737877674191133
 20
0.3250832279025952
 30
0.0
 10
-0.8737382909936534
 20
0.3209589031318404
 30
0.0
 10
-0.8737129012719559
 20
0.3188424313547344
 30
0.0
  0
SPLINE
  5
CE
330
1F
100
AcDbEntity
  8
0
  6
Continuous
 62
     7
370
    35
100
AcDbSpline
210
0.0
220
0.0
230
1.0
 70
     8
 71
     3
 72
    31
 73
    27
 74
     0
 42
0.000000001
 43
0.00000001
 40
0.0
 40
0.0
 40
0.0
 40
0.0
 40
0.0685946222587424
 40
0.1332460424433005
 40
0.1943125864682558
 40
0.2512792231169659
 40
0.3045134392563469
 40
0.3542349066533252
 40
0.4004805887739888
 40
0.4434107549384918
 40
0.4840148686163454
 40
0.5232523007732031
 40
0.5610423727283601
 40
0.5979002393643996
 40
0.6335184888561957
 40
0.6683143511696517
 40
0.7024956712863816
 40
0.7366853535134587
 40
0.7702931693607893
 40
0.8034372550192493
 40
0.8359129516660287
 40
0.8684602457892914
 40
0.9008465382431824
 40
0.9334665246307079
 40
0.9662575752981232
 40
1.0
 40
1.0
 40
1.0
 40
1.0
 10
-0.9673430244296384
 20
0.3188424313547344
 30
0.0
 10
-0.9673301103289506
 20
0.321050989926949
 30
0.0
 10
-0.9673050245022243
 20
0.3253411467870853
 30
0.0
 10
-0.967025952811586
 20
0.3315925106479829
 30
0.0
 10
-0.9665623566575231
 20
0.3374570889548797
 30
0.0
 10
-0.9659270270177484
 20
0.3429351624209592
 30
0.0
 10
-0.9651538781900482
 20
0.3480281452759876
 30
0.0
 10
-0.964121772418343
 20
0.352722427053007
 30
0.0
 10
-0.962948040031927
 20
0.357039734399978
 30
0.0
 10
-0.9615877075197029
 20
0.3609941457573017
 30
0.0
 10
-0.9600527551961462
 20
0.3646389372148672
 30
0.0
 10
-0.9583821150102371
 20
0.3680415041949365
 30
0.0
 10
-0.9565094853085223
 20
0.3711966983815421
 30
0.0
 10
-0.9545418903113913
 20
0.3741548791067366
 30
0.0
 10
-0.95239968276699
 20
0.3768676229961989
 30
0.0
 10
-0.9501438248745783
 20
0.3793732396307861
 30
0.0
 10
-0.9476862706908333
 20
0.3816138203577077
 30
0.0
 10
-0.9451105617036898
 20
0.3836550133649945
 30
0.0
 10
-0.9423933780662204
 20
0.3854443626434174
 30
0.0
 10
-0.9396121707377477
 20
0.387020454714904
 30
0.0
 10
-0.9367477964914507
 20
0.3883669061817391
 30
0.0
 10
-0.933792434960036
 20
0.389425584758886
 30
0.0
 10
-0.9307726492163475
 20
0.390300027545209
 30
0.0
 10
-0.9276778828111792
 20
0.3908980176100352
 30
0.0
 10
-0.9245030259632927
 20
0.3912742738497744
 30
0.0
 10
-0.9223600560893493
 20
0.3913102450206485
 30
0.0
 10
-0.9212732497981015
 20
0.3913284877851806
 30
0.0
  0
SPLINE
  5
CF
330
1F
100
AcDbEntity
  8
0
  6
Continuous
 62
     7
370
    35
100
AcDbSpline
210
0.0
220
0.0
230
1.0
 70
     8
 71
     3
 72
    31
 73
    27
 74
     0
 42
0.000000001
 43
0.00000001
 40
0.0
 40
0.0
 40
0.0
 40
0.0
 40
0.0337871463469909
 40
0.0666216577242938
 40
0.0992848780959724
 40
0.13136116504265
 40
0.1635851875953433
 40
0.1961039269870679
 40
0.2289022543238165
 40
0.2621580559050073
 40
0.2959912222583164
 40
0.3302178457247997
 40
0.3650598258919538
 40
0.4009507373401078
 40
0.4376203820767376
 40
0.4757075294370919
 40
0.5153806916250484
 40
0.556413541493164
 40
0.5997648298727308
 40
0.6464241555840871
 40
0.6964314445175663
 40
0.7497815178015573
 40
0.8065733069755322
 40
0.8674355315653992
 40
0.9318867532508739
 40
0.9999999999999999
 40
0.9999999999999999
 40
0.9999999999999999
 40
0.9999999999999999
 10
-0.9212732497981015
 20
0.2464667878053702
 30
0.0
 10
-0.9223600259392543
 20
0.2464851482565043
 30
0.0
 10
-0.9245029363630932
 20
0.2465213514823868
 30
0.0
 10
-0.9276782287032279
 20
0.2468959078401897
 30
0.0
 10
-0.9307602146654312
 20
0.2474980930060306
 30
0.0
 10
-0.9337641026196679
 20
0.2483412663954431
 30
0.0
 10
-0.9367053040009151
 20
0.2493733465653425
 30
0.0
 10
-0.939543740483427
 20
0.250717979778058
 30
0.0
 10
-0.9423109721247916
 20
0.2522665651700253
 30
0.0
 10
-0.9449996160625118
 20
0.2540301644392492
 30
0.0
 10
-0.9475591499617174
 20
0.2560507031450909
 30
0.0
 10
-0.9500039769425772
 20
0.2582855176603072
 30
0.0
 10
-0.9522726784818284
 20
0.2607903763728042
 30
0.0
 10
-0.9543842570494392
 20
0.2635257276762575
 30
0.0
 10
-0.9563911109154132
 20
0.2664664065082556
 30
0.0
 10
-0.958237149235069
 20
0.2696525629273667
 30
0.0
 10
-0.9599446631747561
 20
0.2730715633403434
 30
0.0
 10
-0.9615054305239112
 20
0.2767454968314891
 30
0.0
 10
-0.9628892361741039
 20
0.2807279743062836
 30
0.0
 10
-0.9641115868872313
 20
0.2850645561370905
 30
0.0
 10
-0.9650767111970765
 20
0.2897935181888243
 30
0.0
 10
-0.9659028118007329
 20
0.2948768790984852
 30
0.0
 10
-0.9665691260937846
 20
0.300336482656983
 30
0.0
 10
-0.9670240207913575
 20
0.3061752928218212
 30
0.0
 10
-0.9673051749266238
 20
0.3123896711260001
 30
0.0
 10
-0.9673301776990693
 20
0.3166522606660245
 30
0.0
 10
-0.9673430244296384
 20
0.3188424313547344
 30
0.0
  0
SPLINE
  5
DC
330
1F
100
AcDbEntity
  8
0
  6
Continuous
 62
     7
370
    35
100
AcDbSpline
210
0.0
220
0.0
230
1.0
 70
     8
 71
     3
 72
    23
 73
    19
 74
     0
 42
0.000000001
 43
0.00000001
 40
0.0
 40
0.0
 40
0.0
 40
0.0
 40
0.0645578459297186
 40
0.1270135315497587
 40
0.1879548102020906
 40
0.2480139127896334
 40
0.3077476818488378
 40
0.3682345146974857
 40
0.4294698439426685
 40
0.4927434367465853
 40
0.5562577687060835
 40
0.6182167855431434
 40
0.6796554755875551
 40
0.7412455456206295
 40
0.803415264705698
 40
0.8668154615439917
 40
0.9323283119492665
 40
1.0
 40
1.0
 40
1.0
 40
1.0
 10
-1.640419947506561
 20
0.319698131183121
 30
0.0
 10
-1.640358719413764
 20
0.3221766923461634
 30
0.0
 10
-1.640238256963625
 20
0.3270531066990034
 30
0.0
 10
-1.639214800448989
 20
0.3342095615529055
 30
0.0
 10
-1.637568391150112
 20
0.3410659158384672
 30
0.0
 10
-1.635229930969208
 20
0.3476093703498011
 30
0.0
 10
-1.632265153358758
 20
0.3538743420124803
 30
0.0
 10
-1.628602688246967
 20
0.3598129721245571
 30
0.0
 10
-1.624285084222502
 20
0.3654632398275707
 30
0.0
 10
-1.619346203605036
 20
0.3707394111384969
 30
0.0
 10
-1.613930166782212
 20
0.375563795100003
 30
0.0
 10
-1.608130213479493
 20
0.3798081338302526
 30
0.0
 10
-1.601957695882147
 20
0.3833403194995078
 30
0.0
 10
-1.595480615107517
 20
0.3862929243194332
 30
0.0
 10
-1.58865047016395
 20
0.3885623913720261
 30
0.0
 10
-1.581481833584208
 20
0.3901510995093464
 30
0.0
 10
-1.573988175521953
 20
0.3911399623554054
 30
0.0
 10
-1.568875481598752
 20
0.3912649705405561
 30
0.0
 10
-1.566277697859883
 20
0.3913284877851806
 30
0.0
  0
SPLINE
  5
DD
330
1F
100
AcDbEntity
  8
0
  6
Continuous
 62
     7
370
    35
100
AcDbSpline
210
0.0
220
0.0
230
1.0
 70
     8
 71
     3
 72
    15
 73
    11
 74
     0
 42
0.000000001
 43
0.00000001
 40
0.0
 40
0.0
 40
0.0
 40
0.0
 40
0.1243285095938514
 40
0.2471560163611881
 40
0.3687797492913402
 40
0.4907338624016491
 40
0.6136137718478444
 40
0.7389575757222159
 40
0.8673105751912629
 40
1.0
 40
1.0
 40
1.0
 40
1.0
 10
-1.622947109075307
 20
0.2705643991015542
 30
0.0
 10
-1.624342213150103
 20
0.2722786191376615
 30
0.0
 10
-1.627115578379543
 20
0.2756863636419178
 30
0.0
 10
-1.630663833637461
 20
0.2812094337702034
 30
0.0
 10
-1.633701138960662
 20
0.2869758986865741
 30
0.0
 10
-1.636156883873188
 20
0.2930160533628859
 30
0.0
 10
-1.638076676517071
 20
0.2993163441991248
 30
0.0
 10
-1.639406644827297
 20
0.3058799471286797
 30
0.0
 10
-1.640270881224061
 20
0.3127007322547503
 30
0.0
 10
-1.640369711491037
 20
0.3173399759027777
 30
0.0
 10
-1.640419947506561
 20
0.319698131183121
 30
0.0
  0
SPLINE
  5
DE
330
1F
100
AcDbEntity
  8
0
  6
Continuous
 62
     7
370
    35
100
AcDbSpline
210
0.0
220
0.0
230
1.0
 70
     8
 71
     3
 72
    23
 73
    19
 74
     0
 42
0.000000001
 43
0.00000001
 40
0.0
 40
0.0
 40
0.0
 40
0.0
 40
0.0696628008990779
 40
0.1377495622582703
 40
0.2039167435177818
 40
0.2687798623293339
 40
0.3324137064772239
 40
0.3947535404471386
 40
0.4561800316591675
 40
0.5169956491967189
 40
0.5773959379659517
 40
0.6371983435092765
 40
0.6969991842614537
 40
0.7567561942255606
 40
0.816553905272608
 40
0.8769479965978698
 40
0.9381317879205946
 40
1.0
 40
1.0
 40
1.0
 40
1.0
 10
-1.56611207853826
 20
0.2464667878053702
 30
0.0
 10
-1.567594112674389
 20
0.246477102472921
 30
0.0
 10
-1.570524651654577
 20
0.2464974984507115
 30
0.0
 10
-1.574851374158991
 20
0.2468278987424815
 30
0.0
 10
-1.579063562379527
 20
0.2472786757861818
 30
0.0
 10
-1.58314917757113
 20
0.2479574211036608
 30
0.0
 10
-1.587130515171384
 20
0.2487583793734991
 30
0.0
 10
-1.590971483064724
 20
0.2498320508941769
 30
0.0
 10
-1.594709877173325
 20
0.2510347739885133
 30
0.0
 10
-1.598330677988133
 20
0.2524483561438177
 30
0.0
 10
-1.6018369653817
 20
0.2540434814405649
 30
0.0
 10
-1.605217430396185
 20
0.2558462987201361
 30
0.0
 10
-1.608470518285909
 20
0.2578416477225494
 30
0.0
 10
-1.611628212020367
 20
0.2599855457707237
 30
0.0
 10
-1.614643864920959
 20
0.262346856867986
 30
0.0
 10
-1.617543610013377
 20
0.2648927873602551
 30
0.0
 10
-1.620343707502849
 20
0.2676147562874738
 30
0.0
 10
-1.622076096675753
 20
0.2695775457891414
 30
0.0
 10
-1.622947109075307
 20
0.2705643991015542
 30
0.0
  0
SPLINE
  5
DF
330
1F
100
AcDbEntity
  8
0
  6
Continuous
 62
     7
370
    35
100
AcDbSpline
210
0.0
220
0.0
230
1.0
 70
     8
 71
     3
 72
    23
 73
    19
 74
     0
 42
0.000000001
 43
0.00000001
 40
0.0
 40
0.0
 40
0.0
 40
0.0
 40
0.061674238877426
 40
0.1230530616348055
 40
0.183475000731701
 40
0.2437265005106093
 40
0.3042789165122526
 40
0.3648629209606823
 40
0.425946203968619
 40
0.487391229965407
 40
0.5492203840754745
 40
0.6111435886926032
 40
0.67352853031015
 40
0.7369614566573036
 40
0.8007852828728407
 40
0.8660125956416116
 40
0.9321007477905754
 40
1.0
 40
1.0
 40
1.0
 40
1.0
 10
-1.50615788411064
 20
0.2753673594286289
 30
0.0
 10
-1.507028675838243
 20
0.2742437983292859
 30
0.0
 10
-1.508766088250268
 20
0.2720020579247922
 30
0.0
 10
-1.511579396005637
 20
0.2688417543923486
 30
0.0
 10
-1.514543069131452
 20
0.2658691545695481
 30
0.0
 10
-1.517679120706527
 20
0.2631082245999624
 30
0.0
 10
-1.52095147470612
 20
0.2605037180800866
 30
0.0
 10
-1.524418888577957
 20
0.2581296302345866
 30
0.0
 10
-1.528035779621471
 20
0.2559528237667768
 30
0.0
 10
-1.531789892964212
 20
0.2539596377623639
 30
0.0
 10
-1.535677239924828
 20
0.2521912422102185
 30
0.0
 10
-1.539693162560339
 20
0.2506773143443916
 30
0.0
 10
-1.543820350572308
 20
0.2493731848352365
 30
0.0
 10
-1.548058992635775
 20
0.2483002739405959
 30
0.0
 10
-1.552417880699827
 20
0.247462829693609
 30
0.0
 10
-1.556881285191685
 20
0.246902999975312
 30
0.0
 10
-1.561458839334167
 20
0.2465194600369324
 30
0.0
 10
-1.564547084260376
 20
0.2464845027212348
 30
0.0
 10
-1.56611207853826
 20
0.2464667878053702
 30
0.0
  0
SPLINE
  5
E1
330
1F
100
AcDbEntity
  8
0
  6
Continuous
 62
     7
370
    35
100
AcDbSpline
210
0.0
220
0.0
230
1.0
 70
     8
 71
     3
 72
    15
 73
    11
 74
     0
 42
0.000000001
 43
0.00000001
 40
0.0
 40
0.0
 40
0.0
 40
0.0
 40
0.1285151895116617
 40
0.2529486363526602
 40
0.3747547340060058
 40
0.4959397538670514
 40
0.6171806414298956
 40
0.7409094692781394
 40
0.8678111481862051
 40
1.0
 40
1.0
 40
1.0
 40
1.0
 10
-1.566194888199071
 20
0.2605996365838885
 30
0.0
 10
-1.563789270522158
 20
0.2606661239756562
 30
0.0
 10
-1.55905443946232
 20
0.2607969870677643
 30
0.0
 10
-1.552110816378015
 20
0.261905618922995
 30
0.0
 10
-1.545463738991056
 20
0.263703174743272
 30
0.0
 10
-1.539112849757142
 20
0.2662188409763103
 30
0.0
 10
-1.533076052662463
 20
0.2694891279016149
 30
0.0
 10
-1.527343900681793
 20
0.2734536112641112
 30
0.0
 10
-1.521911555386362
 20
0.2781500023176789
 30
0.0
 10
-1.518644969471544
 20
0.2817359522490643
 30
0.0
 10
-1.516978346456693
 20
0.2835655158489799
 30
0.0
  0
SPLINE
  5
E2
330
1F
100
AcDbEntity
  8
0
  6
Continuous
 62
     7
370
    35
100
AcDbSpline
210
0.0
220
0.0
230
1.0
 70
     8
 71
     3
 72
    23
 73
    19
 74
     0
 42
0.000000001
 43
0.00000001
 40
0.0
 40
0.0
 40
0.0
 40
0.0
 40
0.0643232165798423
 40
0.1262901037035561
 40
0.1867264692161333
 40
0.2461464323353452
 40
0.3055756426461393
 40
0.3654293856180521
 40
0.4263263089482606
 40
0.4888399064006427
 40
0.5517249718140489
 40
0.6139185964661599
 40
0.6754837657683955
 40
0.7373338970992852
 40
0.8002290443945279
 40
0.8645022981233229
 40
0.9310407391556977
 40
0.9999999999999999
 40
0.9999999999999999
 40
0.9999999999999999
 40
0.9999999999999999
 10
-1.628053704825358
 20
0.3187596216939227
 30
0.0
 10
-1.628004026911031
 20
0.3167229555552333
 30
0.0
 10
-1.627906490915698
 20
0.3127242317422631
 30
0.0
 10
-1.627038446266862
 20
0.3068671210910328
 30
0.0
 10
-1.625719348184631
 20
0.3012560709422036
 30
0.0
 10
-1.623742356966691
 20
0.2959261558905926
 30
0.0
 10
-1.621304599070608
 20
0.2908116536048441
 30
0.0
 10
-1.618224260034967
 20
0.2859991003211266
 30
0.0
 10
-1.614656679823777
 20
0.2814157710096485
 30
0.0
 10
-1.610551387719009
 20
0.2771699856652221
 30
0.0
 10
-1.606047221735181
 20
0.2732914925432499
 30
0.0
 10
-1.601214626790537
 20
0.2698761153183947
 30
0.0
 10
-1.596065639082503
 20
0.267029072701608
 30
0.0
 10
-1.590657110334999
 20
0.264659940948997
 30
0.0
 10
-1.584947420810644
 20
0.2628388099389363
 30
0.0
 10
-1.578946838038444
 20
0.2615567578325086
 30
0.0
 10
-1.572668413028599
 20
0.2607204515119727
 30
0.0
 10
-1.568378279174661
 20
0.2606403850525576
 30
0.0
 10
-1.566194888199071
 20
0.2605996365838885
 30
0.0
  0
SPLINE
  5
E3
330
1F
100
AcDbEntity
  8
0
  6
Continuous
 62
     7
370
    35
100
AcDbSpline
210
0.0
220
0.0
230
1.0
 70
     8
 71
     3
 72
    31
 73
    27
 74
     0
 42
0.000000001
 43
0.00000001
 40
0.0
 40
0.0
 40
0.0
 40
0.0
 40
0.0439549089061928
 40
0.0875018747976046
 40
0.1304626267314892
 40
0.1727520205665155
 40
0.2154030673796036
 40
0.2576498297432394
 40
0.300152748957294
 40
0.3431214895020869
 40
0.3859251632064342
 40
0.4276857274028007
 40
0.4688179504865905
 40
0.5094918001549962
 40
0.5498830310733495
 40
0.5899800229668852
 40
0.6304052300068401
 40
0.6708686260826382
 40
0.7113839438381757
 40
0.7516272580635843
 40
0.7917755768651915
 40
0.832458918803743
 40
0.8733190450172885
 40
0.9145429556263494
 40
0.9569235582098853
 40
1.0
 40
1.0
 40
1.0
 40
1.0
 10
-1.567050588027458
 20
0.3771956390066625
 30
0.0
 10
-1.568431820284955
 20
0.3771797349708418
 30
0.0
 10
-1.57118146566176
 20
0.3771480745036547
 30
0.0
 10
-1.575262114224773
 20
0.3767303924089727
 30
0.0
 10
-1.579266565056716
 20
0.3761433368954069
 30
0.0
 10
-1.58319221333304
 20
0.3752722611779484
 30
0.0
 10
-1.587034062094428
 20
0.3741709769622988
 30
0.0
 10
-1.590817227530082
 20
0.3728550157842002
 30
0.0
 10
-1.594486936183512
 20
0.3712268724826278
 30
0.0
 10
-1.598093953436041
 20
0.3694273346890487
 30
0.0
 10
-1.601549827884676
 20
0.367394758124352
 30
0.0
 10
-1.604819711655436
 20
0.3651776970266536
 30
0.0
 10
-1.607891678896428
 20
0.3628009609463474
 30
0.0
 10
-1.610768159689073
 20
0.3602556417976153
 30
0.0
 10
-1.613452094662911
 20
0.3575532024088145
 30
0.0
 10
-1.615924036033194
 20
0.3546648425037325
 30
0.0
 10
-1.618175430138131
 20
0.3515997963022662
 30
0.0
 10
-1.620250903565824
 20
0.3483984810440635
 30
0.0
 10
-1.622109672595538
 20
0.3450702215308787
 30
0.0
 10
-1.623665967059747
 20
0.3416026990726703
 30
0.0
 10
-1.62504412147729
 20
0.3380552934415255
 30
0.0
 10
-1.626134642841308
 20
0.3343879249049626
 30
0.0
 10
-1.626997812795299
 20
0.3306263986906618
 30
0.0
 10
-1.627593390089529
 20
0.326760619637513
 30
0.0
 10
-1.628006322026313
 20
0.3227986637478572
 30
0.0
 10
-1.628037825053901
 20
0.3201132577394155
 30
0.0
 10
-1.628053704825358
 20
0.3187596216939227
 30
0.0
  0
SPLINE
  5
E4
330
1F
100
AcDbEntity
  8
0
  6
Continuous
 62
     7
370
    35
100
AcDbSpline
210
0.0
220
0.0
230
1.0
 70
     8
 71
     3
 72
    19
 73
    15
 74
     0
 42
0.000000001
 43
0.00000001
 40
0.0
 40
0.0
 40
0.0
 40
0.0
 40
0.0631632593634686
 40
0.1254749410306397
 40
0.1871212198160329
 40
0.2482943461142985
 40
0.3092948562551202
 40
0.3698500660670913
 40
0.430973375547379
 40
0.4924559896728164
 40
0.6161479662918535
 40
0.7408436984673634
 40
0.8681826486700396
 40
1.0
 40
1.0
 40
1.0
 40
1.0
 10
-1.516978346456693
 20
0.3542297597415704
 30
0.0
 10
-1.517750231825047
 20
0.3551496798136621
 30
0.0
 10
-1.519283595873272
 20
0.3569771174405652
 30
0.0
 10
-1.521750493610434
 20
0.3595432412387888
 30
0.0
 10
-1.524321424433118
 20
0.3619473853892894
 30
0.0
 10
-1.526995405583352
 20
0.3642010026975143
 30
0.0
 10
-1.52982056776788
 20
0.3662252848130557
 30
0.0
 10
-1.532728473227167
 20
0.3681257219367927
 30
0.0
 10
-1.535767766345537
 20
0.369829176186499
 30
0.0
 10
-1.539970590544175
 20
0.3718946480808269
 30
0.0
 10
-1.545468537326868
 20
0.3740500085143789
 30
0.0
 10
-1.55238959398329
 20
0.3758572223450954
 30
0.0
 10
-1.559614440380325
 20
0.3770076623326667
 30
0.0
 10
-1.564543479735719
 20
0.3771322623901142
 30
0.0
 10
-1.567050588027458
 20
0.3771956390066625
 30
0.0
  0
SPLINE
  5
E6
330
1F
100
AcDbEntity
  8
0
  6
Continuous
 62
     7
370
    35
100
AcDbSpline
210
0.0
220
0.0
230
1.0
 70
     8
 71
     3
 72
    23
 73
    19
 74
     0
 42
0.000000001
 43
0.00000001
 40
0.0
 40
0.0
 40
0.0
 40
0.0
 40
0.0685475367089022
 40
0.1356829456230509
 40
0.2012149895263274
 40
0.2656822347546961
 40
0.3292668348172598
 40
0.392395427844331
 40
0.4550697616521444
 40
0.5171268500645053
 40
0.5787900352866547
 40
0.639739863343544
 40
0.700191503666308
 40
0.7598062425966711
 40
0.8196283192750082
 40
0.8793547910462789
 40
0.9395116077646634
 40
1.0
 40
1.0
 40
1.0
 40
1.0
 10
-1.566277697859883
 20
0.3913284877851806
 30
0.0
 10
-1.564694450932859
 20
0.3913095059666424
 30
0.0
 10
-1.561560573086606
 20
0.3912719333684688
 30
0.0
 10
-1.556924641889268
 20
0.3909055498206489
 30
0.0
 10
-1.55241116445056
 20
0.3902947779219434
 30
0.0
 10
-1.5480170312996
 20
0.3894634365907184
 30
0.0
 10
-1.54372086530736
 20
0.3884316522808927
 30
0.0
 10
-1.539555501493243
 20
0.3870875460479564
 30
0.0
 10
-1.535496498073377
 20
0.3855506747363183
 30
0.0
 10
-1.531569454444384
 20
0.3837806563923066
 30
0.0
 10
-1.527793212312875
 20
0.3817937768093602
 30
0.0
 10
-1.524168947804558
 20
0.3796120593469074
 30
0.0
 10
-1.52072544943024
 20
0.3772382087364963
 30
0.0
 10
-1.517438486893368
 20
0.3746924144290302
 30
0.0
 10
-1.514363045512422
 20
0.3719208176063761
 30
0.0
 10
-1.511411806200011
 20
0.3689996524105623
 30
0.0
 10
-1.508684992099161
 20
0.3658447774437386
 30
0.0
 10
-1.507001795445849
 20
0.36362411075441
 30
0.0
 10
-1.50615788411064
 20
0.3625107258227336
 30
0.0
  0
CIRCLE
  5
EF
330
1F
100
AcDbEntity
  8
0
  6
Continuous
 62
     7
370
    35
100
AcDbCircle
 10
-10.6203847338
 20
5.0345228272
 30
0.0
 40
0.1874999999999982
  0
SPLINE
  5
F0
330
1F
100
AcDbEntity
  8
0
  6
Continuous
 62
     7
370
    35
100
AcDbSpline
210
0.0
220
0.0
230
1.0
 70
     8
 71
     3
 72
    23
 73
    19
 74
     0
 42
0.000000001
 43
0.00000001
 40
0.0
 40
0.0
 40
0.0
 40
0.0
 40
0.0705992894335923
 40
0.1379009210036186
 40
0.2031961978097331
 40
0.2667897246502629
 40
0.3291063872214224
 40
0.3906535452348595
 40
0.4526530569344803
 40
0.5157480403003728
 40
0.5779263408004537
 40
0.6389300116184479
 40
0.6983507176418228
 40
0.7572960374442724
 40
0.8163937673501535
 40
0.8762669096141291
 40
0.9368171089060849
 40
1.0
 40
1.0
 40
1.0
 40
1.0
 10
-0.8129582134564912
 20
0.3153644256006459
 30
0.0
 10
-0.8140079081349088
 20
0.315333793959599
 30
0.0
 10
-0.8160582667729028
 20
0.3152739614662963
 30
0.0
 10
-0.8190664327068085
 20
0.3149265106031079
 30
0.0
 10
-0.8219134111102628
 20
0.3142722166826046
 30
0.0
 10
-0.8246369203091074
 20
0.3134388965265978
 30
0.0
 10
-0.827186042470767
 20
0.3122931067740137
 30
0.0
 10
-0.8295793038821165
 20
0.3109013036655435
 30
0.0
 10
-0.8318259594682536
 20
0.3092626746046488
 30
0.0
 10
-0.8339024772528659
 20
0.3074004340100207
 30
0.0
 10
-0.8357851411642993
 20
0.3053615350735187
 30
0.0
 10
-0.8374064455252773
 20
0.3031776956177712
 30
0.0
 10
-0.8388049652139725
 20
0.3009015458891948
 30
0.0
 10
-0.8399420446975431
 20
0.2985140678499477
 30
0.0
 10
-0.8408274807513135
 20
0.2960161741653222
 30
0.0
 10
-0.8414679630690269
 20
0.2934193533235185
 30
0.0
 10
-0.8418244099674952
 20
0.2907061916650058
 30
0.0
 10
-0.8418837104204642
 20
0.2888663293528211
 30
0.0
 10
-0.8419139915202899
 20
0.2879268246517261
 30
0.0
  0
SPLINE
  5
F1
330
1F
100
AcDbEntity
  8
0
  6
Continuous
 62
     7
370
    35
100
AcDbSpline
210
0.0
220
0.0
230
1.0
 70
     8
 71
     3
 72
    23
 73
    19
 74
     0
 42
0.000000001
 43
0.00000001
 40
0.0
 40
0.0
 40
0.0
 40
0.0
 40
0.0618417029839096
 40
0.1212623730944469
 40
0.180745948865317
 40
0.2392309018221054
 40
0.2983075587884655
 40
0.3581827976158479
 40
0.4203592307800686
 40
0.484792415514186
 40
0.549938483766689
 40
0.6137182775404291
 40
0.6766807072496329
 40
0.7391541704483185
 40
0.802199703240354
 40
0.8667401776163008
 40
0.9320496524002486
 40
1.0
 40
1.0
 40
1.0
 40
1.0
 10
-0.8419139915202899
 20
0.2879268246517261
 30
0.0
 10
-0.8418893316194888
 20
0.2869957230815289
 30
0.0
 10
-0.841840977225167
 20
0.2851699715167081
 30
0.0
 10
-0.8414019095138052
 20
0.2824794526360235
 30
0.0
 10
-0.8407312369813771
 20
0.2798902830138762
 30
0.0
 10
-0.8397335836010285
 20
0.2774158106208038
 30
0.0
 10
-0.8385435486339076
 20
0.2750183177848843
 30
0.0
 10
-0.8369724728784345
 20
0.2727846451285136
 30
0.0
 10
-0.8352316545385943
 20
0.2705791305579125
 30
0.0
 10
-0.8331507910170269
 20
0.2685711986119773
 30
0.0
 10
-0.8309175877501508
 20
0.2667028275814336
 30
0.0
 10
-0.8285317136357455
 20
0.2650697467342783
 30
0.0
 10
-0.8260451010429499
 20
0.2636726532934048
 30
0.0
 10
-0.8234241789140085
 20
0.2625777281903553
 30
0.0
 10
-0.8207061323011065
 20
0.2616791342199946
 30
0.0
 10
-0.817868315212681
 20
0.2610467925169191
 30
0.0
 10
-0.8149087539713045
 20
0.2606892914934598
 30
0.0
 10
-0.8129039532617889
 20
0.2606299137923907
 30
0.0
 10
-0.8118816878659393
 20
0.2605996365838885
 30
0.0
  0
SPLINE
  5
F2
330
1F
100
AcDbEntity
  8
0
  6
Continuous
 62
     7
370
    35
100
AcDbSpline
210
0.0
220
0.0
230
1.0
 70
     8
 71
     3
 72
    23
 73
    19
 74
     0
 42
0.000000001
 43
0.00000001
 40
0.0
 40
0.0
 40
0.0
 40
0.0
 40
0.0679623714944562
 40
0.1332834028675247
 40
0.1978352977570568
 40
0.2608919865309889
 40
0.3233765044831774
 40
0.3863500754690888
 40
0.4496377310517133
 40
0.5147953269783572
 40
0.5792399132410304
 40
0.6418141777582892
 40
0.7013585647860591
 40
0.7607267659857205
 40
0.819222067924388
 40
0.8787161693846299
 40
0.9381473540533078
 40
0.9999999999999999
 40
0.9999999999999999
 40
0.9999999999999999
 40
0.9999999999999999
 10
-0.8118816878659393
 20
0.2605996365838885
 30
0.0
 10
-0.8108594241448317
 20
0.2606299161663213
 30
0.0
 10
-0.8088546267197109
 20
0.2606892985229888
 30
0.0
 10
-0.805895041671268
 20
0.2610467658001571
 30
0.0
 10
-0.803057312591156
 20
0.2616792322541831
 30
0.0
 10
-0.800338946111045
 20
0.2625773728158116
 30
0.0
 10
-0.7977192047304984
 20
0.2636739716184942
 30
0.0
 10
-0.7952347668757653
 20
0.2650610550727955
 30
0.0
 10
-0.7928714561062653
 20
0.2667128707322984
 30
0.0
 10
-0.79063678683275
 20
0.2685680057017978
 30
0.0
 10
-0.788564584535934
 20
0.2705905589282688
 30
0.0
 10
-0.7867820145016003
 20
0.2727649574490113
 30
0.0
 10
-0.7852590525629731
 20
0.2750363706508701
 30
0.0
 10
-0.7840214861429787
 20
0.2774063663154868
 30
0.0
 10
-0.7830348211304768
 20
0.2798917792145193
 30
0.0
 10
-0.7823607476190229
 20
0.2824790518097529
 30
0.0
 10
-0.7819225866377577
 20
0.2851700764540382
 30
0.0
 10
-0.7818741076519069
 20
0.2869957585231386
 30
0.0
 10
-0.7818493842115887
 20
0.2879268246517261
 30
0.0
  0
SPLINE
  5
F3
330
1F
100
AcDbEntity
  8
0
  6
Continuous
 62
     7
370
    35
100
AcDbSpline
210
0.0
220
0.0
230
1.0
 70
     8
 71
     3
 72
    23
 73
    19
 74
     0
 42
0.000000001
 43
0.00000001
 40
0.0
 40
0.0
 40
0.0
 40
0.0
 40
0.0611379149156202
 40
0.1199938438512138
 40
0.1782253215076172
 40
0.2362564202618974
 40
0.2949293769549094
 40
0.3547157488097545
 40
0.4167296639241631
 40
0.4806644084708291
 40
0.5458317702108674
 40
0.6097581054261653
 40
0.6729712284742217
 40
0.736016869167664
 40
0.7998393981920315
 40
0.8647753566655663
 40
0.931087623272569
 40
1.0
 40
1.0
 40
1.0
 40
1.0
 10
-0.7818493842115887
 20
0.2879268246517261
 30
0.0
 10
-0.7818710492901322
 20
0.288867555002799
 30
0.0
 10
-0.7819135707934465
 20
0.2907139027398553
 30
0.0
 10
-0.7823945136509902
 20
0.2934181396782817
 30
0.0
 10
-0.7830615362439108
 20
0.2960293682696849
 30
0.0
 10
-0.784068742177365
 20
0.2985311772867432
 30
0.0
 10
-0.7853772675608447
 20
0.3009136941072404
 30
0.0
 10
-0.7869711024833153
 20
0.3031889539858422
 30
0.0
 10
-0.788814904464041
 20
0.305374400730069
 30
0.0
 10
-0.7909447288574754
 20
0.3074044325558601
 30
0.0
 10
-0.7932632420051526
 20
0.3092606167266148
 30
0.0
 10
-0.7957284225316461
 20
0.3108991819391362
 30
0.0
 10
-0.7983074766142622
 20
0.3122820550363931
 30
0.0
 10
-0.8009977893088779
 20
0.3134358779602784
 30
0.0
 10
-0.8038301862635946
 20
0.3142685344221511
 30
0.0
 10
-0.8067589397748476
 20
0.3149241739130298
 30
0.0
 10
-0.8098215083828839
 20
0.3152730722486932
 30
0.0
 10
-0.8118993276079085
 20
0.3153335866249262
 30
0.0
 10
-0.8129582134564912
 20
0.3153644256006459
 30
0.0
  0
SPLINE
  5
F4
330
1F
100
AcDbEntity
  8
0
  6
Continuous
 62
     7
370
    35
100
AcDbSpline
210
0.0
220
0.0
230
1.0
 70
     8
 71
     3
 72
    27
 73
    23
 74
     0
 42
0.000000001
 43
0.00000001
 40
0.0
 40
0.0
 40
0.0
 40
0.0
 40
0.0729510658758663
 40
0.141583694186545
 40
0.205926460170867
 40
0.2653013571846053
 40
0.3205972327139279
 40
0.3718165030988103
 40
0.4187897697094519
 40
0.4616987286157647
 40
0.5021335821035661
 40
0.5408043152926478
 40
0.578180525327966
 40
0.614296865207515
 40
0.6496782432647873
 40
0.6842994600896377
 40
0.7183589527723606
 40
0.7520808646475976
 40
0.8176524386023859
 40
0.8797220764054366
 40
0.9399655597309875
 40
1.0
 40
1.0
 40
1.0
 40
1.0
 10
-0.9549767817484355
 20
0.3188976377952755
 30
0.0
 10
-0.9549720791079821
 20
0.3170571378423675
 30
0.0
 10
-0.9549629522062729
 20
0.3134850888345265
 30
0.0
 10
-0.9547245191126813
 20
0.3082944092685451
 30
0.0
 10
-0.9543997068292368
 20
0.3034530577403101
 30
0.0
 10
-0.9539807581211615
 20
0.2989548870133365
 30
0.0
 10
-0.9533585947933644
 20
0.2948151227412972
 30
0.0
 10
-0.9526614771627471
 20
0.2910052926993625
 30
0.0
 10
-0.9518131271777388
 20
0.2875455589547247
 30
0.0
 10
-0.9508093863168333
 20
0.2844121805805302
 30
0.0
 10
-0.9496661147855942
 20
0.2815519810334696
 30
0.0
 10
-0.9484178524363798
 20
0.2788905158709761
 30
0.0
 10
-0.9470768790936659
 20
0.2763963451451575
 30
0.0
 10
-0.9455761251348868
 20
0.274091872374523
 30
0.0
 10
-0.9439416738266585
 20
0.2719695824503942
 30
0.0
 10
-0.9422104431519541
 20
0.269991911886525
 30
0.0
 10
-0.9403178217250994
 20
0.2682282512040207
 30
0.0
 10
-0.9376995641446578
 20
0.2661130206910495
 30
0.0
 10
-0.9342430100333575
 20
0.2639272280245298
 30
0.0
 10
-0.9298878740006357
 20
0.2620238386610797
 30
0.0
 10
-0.9254127381352228
 20
0.2608276789590205
 30
0.0
 10
-0.9223752873443992
 20
0.2606755625828345
 30
0.0
 10
-0.9208592014940435
 20
0.2605996365838885
 30
0.0
  0
SPLINE
  5
F5
330
1F
100
AcDbEntity
  8
0
  6
Continuous
 62
     7
370
    35
100
AcDbSpline
210
0.0
220
0.0
230
1.0
 70
     8
 71
     3
 72
    19
 73
    15
 74
     0
 42
0.000000001
 43
0.00000001
 40
0.0
 40
0.0
 40
0.0
 40
0.0
 40
0.1128134007444582
 40
0.22539388392073
 40
0.3395948145627004
 40
0.4596754102248632
 40
0.5217351900879316
 40
0.5839258387389145
 40
0.6481741447653688
 40
0.7138810381130664
 40
0.7810044549073887
 40
0.8514509275565552
 40
0.9240506926641766
 40
1.0
 40
1.0
 40
1.0
 40
1.0
 10
-0.9208592014940435
 20
0.2605996365838885
 30
0.0
 10
-0.9193333089091722
 20
0.2606625413402485
 30
0.0
 10
-0.9162846741381204
 20
0.2607882209781243
 30
0.0
 10
-0.9118305877151154
 20
0.2620007696936451
 30
0.0
 10
-0.9075065613339238
 20
0.2638302791213489
 30
0.0
 10
-0.9041179022678263
 20
0.2659935667362804
 30
0.0
 10
-0.9015398493740687
 20
0.2680537371871181
 30
0.0
 10
-0.8996927237793474
 20
0.2698102194041614
 30
0.0
 10
-0.8979973675418182
 20
0.2717769858335483
 30
0.0
 10
-0.8963894118388798
 20
0.2738990053577575
 30
0.0
 10
-0.8949146450800265
 20
0.2762168196953081
 30
0.0
 10
-0.893573576666829
 20
0.2787192832884579
 30
0.0
 10
-0.8923498228264689
 20
0.2814133454109852
 30
0.0
 10
-0.8916526162929945
 20
0.2832940438013721
 30
0.0
 10
-0.891296152584292
 20
0.2842555963557439
 30
0.0
  0
SPLINE
  5
F6
330
1F
100
AcDbEntity
  8
0
  6
Continuous
 62
     7
370
    35
100
AcDbSpline
210
0.0
220
0.0
230
1.0
 70
     8
 71
     3
 72
    15
 73
    11
 74
     0
 42
0.000000001
 43
0.00000001
 40
0.0
 40
0.0
 40
0.0
 40
0.0
 40
0.1105883385953361
 40
0.2245417540535954
 40
0.342503494050104
 40
0.4643240984173582
 40
0.5907560327017667
 40
0.7222274753555142
 40
0.8588428362087238
 40
1.0
 40
1.0
 40
1.0
 40
1.0
 10
-0.891296152584292
 20
0.2842555963557439
 30
0.0
 10
-0.8908807286554034
 20
0.2854851136575678
 30
0.0
 10
-0.8900372399218424
 20
0.2879815610687277
 30
0.0
 10
-0.8889501621946478
 20
0.2918541457963061
 30
0.0
 10
-0.8880940441157625
 20
0.2959172467387446
 30
0.0
 10
-0.8873238328657849
 20
0.30014658204262
 30
0.0
 10
-0.886798122003684
 20
0.3045733419249425
 30
0.0
 10
-0.8863749797484378
 20
0.3091838294806802
 30
0.0
 10
-0.8861257401051612
 20
0.3139815209072727
 30
0.0
 10
-0.8860948443936908
 20
0.3172411662299203
 30
0.0
 10
-0.8860791439531598
 20
0.3188976377952755
 30
0.0
  0
SPLINE
  5
F7
330
1F
100
AcDbEntity
  8
0
  6
Continuous
 62
     7
370
    35
100
AcDbSpline
210
0.0
220
0.0
230
1.0
 70
     8
 71
     3
 72
    27
 73
    23
 74
     0
 42
0.000000001
 43
0.00000001
 40
0.0
 40
0.0
 40
0.0
 40
0.0
 40
0.0656811979906389
 40
0.128486464174065
 40
0.1881751303280081
 40
0.2451061306699868
 40
0.2994484245294761
 40
0.350822936009382
 40
0.3999416805337775
 40
0.4466717436323723
 40
0.4912545333734973
 40
0.533376344270436
 40
0.5738527549682232
 40
0.6125263117194528
 40
0.6495971364453297
 40
0.6855320415538507
 40
0.7201057860682011
 40
0.7538376629736497
 40
0.8189254160467135
 40
0.880493461650163
 40
0.9403113338460568
 40
1.0
 40
1.0
 40
1.0
 40
1.0
 10
-0.8860791439531598
 20
0.3188976377952755
 30
0.0
 10
-0.8861008049465819
 20
0.320553841437718
 30
0.0
 10
-0.8861431784802654
 20
0.323793729814906
 30
0.0
 10
-0.8863051464999944
 20
0.3285385400771943
 30
0.0
 10
-0.8867233974642461
 20
0.3330451448373976
 30
0.0
 10
-0.8871879297030063
 20
0.3373329587218193
 30
0.0
 10
-0.8878728596672619
 20
0.34137824622987
 30
0.0
 10
-0.8886113560011317
 20
0.3452148724210636
 30
0.0
 10
-0.889603529713346
 20
0.3487953064690696
 30
0.0
 10
-0.8906633633737382
 20
0.3521756049616523
 30
0.0
 10
-0.891876371071826
 20
0.3553173630128647
 30
0.0
 10
-0.8932116362000767
 20
0.3582352286176663
 30
0.0
 10
-0.8946376896949202
 20
0.3609432886474615
 30
0.0
 10
-0.8961865967996165
 20
0.3634341131189779
 30
0.0
 10
-0.8978399701486426
 20
0.3657188589028808
 30
0.0
 10
-0.899641448463508
 20
0.3677517169563091
 30
0.0
 10
-0.9015195733773198
 20
0.3695956920786928
 30
0.0
 10
-0.904150171244393
 20
0.3717005176346614
 30
0.0
 10
-0.9075940409215745
 20
0.3738466473780925
 30
0.0
 10
-0.9118793026279692
 20
0.3758216772938541
 30
0.0
 10
-0.9163387768110843
 20
0.3769558620427087
 30
0.0
 10
-0.9193534797280937
 20
0.3771157709812179
 30
0.0
 10
-0.9208592014940435
 20
0.3771956390066625
 30
0.0
  0
SPLINE
  5
F8
330
1F
100
AcDbEntity
  8
0
  6
Continuous
 62
     7
370
    35
100
AcDbSpline
210
0.0
220
0.0
230
1.0
 70
     8
 71
     3
 72
    27
 73
    23
 74
     0
 42
0.000000001
 43
0.00000001
 40
0.0
 40
0.0
 40
0.0
 40
0.0
 40
0.0603866193110622
 40
0.1208832485859965
 40
0.1827546186251392
 40
0.2478110297583506
 40
0.2812991000432493
 40
0.3150876241506568
 40
0.3497023955502755
 40
0.384856581118555
 40
0.4209661972261024
 40
0.4585111882611398
 40
0.4971747221273118
 40
0.5376020478662697
 40
0.5805030184200113
 40
0.6274675400267042
 40
0.6783882095592434
 40
0.7339832205925609
 40
0.7937467045508346
 40
0.8577136721607316
 40
0.9266978643613856
 40
1.0
 40
1.0
 40
1.0
 40
1.0
 10
-0.9208592014940435
 20
0.3771956390066625
 30
0.0
 10
-0.9223832405525798
 20
0.3771156607922034
 30
0.0
 10
-0.9254340951039611
 20
0.3769555586621258
 30
0.0
 10
-0.9299399200932048
 20
0.3758259030089136
 30
0.0
 10
-0.9342589890554984
 20
0.3738568886019211
 30
0.0
 10
-0.9376937518381315
 20
0.3716934093710189
 30
0.0
 10
-0.9403261843778001
 20
0.3696328459284337
 30
0.0
 10
-0.9421798337233425
 20
0.3678459776584159
 30
0.0
 10
-0.9439178719996291
 20
0.3658914007149064
 30
0.0
 10
-0.94551896255623
 20
0.3637495930436325
 30
0.0
 10
-0.9470185406346657
 20
0.3614478069287068
 30
0.0
 10
-0.9483957458541806
 20
0.3589679343017277
 30
0.0
 10
-0.949636585605206
 20
0.3562974081511213
 30
0.0
 10
-0.9507816460847403
 20
0.3534384933708433
 30
0.0
 10
-0.9517884487629382
 20
0.3503053853222
 30
0.0
 10
-0.9526189197562451
 20
0.3468499131334811
 30
0.0
 10
-0.9533861265719885
 20
0.3430522008583162
 30
0.0
 10
-0.953929247394846
 20
0.3388900155061433
 30
0.0
 10
-0.9544120724248337
 20
0.3343907181294021
 30
0.0
 10
-0.954722361714293
 20
0.3295372804038377
 30
0.0
 10
-0.9549637498036329
 20
0.3243378953486265
 30
0.0
 10
-0.9549723507627959
 20
0.3207473772973414
 30
0.0
 10
-0.9549767817484355
 20
0.3188976377952755
 30
0.0
  0
SPLINE
  5
F9
330
1F
100
AcDbEntity
  8
0
  6
Continuous
 62
     7
370
    35
100
AcDbSpline
210
0.0
220
0.0
230
1.0
 70
     8
 71
     3
 72
    23
 73
    19
 74
     0
 42
0.000000001
 43
0.00000001
 40
0.0
 40
0.0
 40
0.0
 40
0.0
 40
0.0705992894335923
 40
0.1379009210036186
 40
0.2031961978097331
 40
0.2667897246502629
 40
0.3291063872214224
 40
0.3906535452348595
 40
0.4526530569344803
 40
0.5157480403003728
 40
0.5779263408004537
 40
0.6389300116184479
 40
0.6983507176418228
 40
0.7572960374442724
 40
0.8163937673501535
 40
0.8762669096141291
 40
0.9368171089060849
 40
1.0
 40
1.0
 40
1.0
 40
1.0
 10
-1.024950945134262
 20
0.3153644256006459
 30
0.0
 10
-1.026000639812681
 20
0.315333793959599
 30
0.0
 10
-1.028050998450675
 20
0.3152739614662963
 30
0.0
 10
-1.03105916438458
 20
0.3149265106031079
 30
0.0
 10
-1.033906142788034
 20
0.3142722166826046
 30
0.0
 10
-1.036629651986878
 20
0.3134388965265978
 30
0.0
 10
-1.039178774148538
 20
0.3122931067740137
 30
0.0
 10
-1.041572035559887
 20
0.3109013036655435
 30
0.0
 10
-1.043818691146025
 20
0.3092626746046488
 30
0.0
 10
-1.045895208930637
 20
0.3074004340100207
 30
0.0
 10
-1.04777787284207
 20
0.3053615350735187
 30
0.0
 10
-1.049399177203048
 20
0.3031776956177712
 30
0.0
 10
-1.050797696891744
 20
0.3009015458891948
 30
0.0
 10
-1.051934776375315
 20
0.2985140678499477
 30
0.0
 10
-1.052820212429084
 20
0.2960161741653222
 30
0.0
 10
-1.053460694746799
 20
0.2934193533235185
 30
0.0
 10
-1.053817141645266
 20
0.2907061916650058
 30
0.0
 10
-1.053876442098236
 20
0.2888663293528211
 30
0.0
 10
-1.053906723198062
 20
0.2879268246517261
 30
0.0
  0
SPLINE
  5
FA
330
1F
100
AcDbEntity
  8
0
  6
Continuous
 62
     7
370
    35
100
AcDbSpline
210
0.0
220
0.0
230
1.0
 70
     8
 71
     3
 72
    23
 73
    19
 74
     0
 42
0.000000001
 43
0.00000001
 40
0.0
 40
0.0
 40
0.0
 40
0.0
 40
0.0618417029839096
 40
0.1212623730944469
 40
0.180745948865317
 40
0.2392309018221054
 40
0.2983075587884655
 40
0.3581827976158479
 40
0.4203592307800686
 40
0.484792415514186
 40
0.549938483766689
 40
0.6137182775404291
 40
0.6766807072496329
 40
0.7391541704483185
 40
0.802199703240354
 40
0.8667401776163008
 40
0.9320496524002486
 40
1.0
 40
1.0
 40
1.0
 40
1.0
 10
-1.053906723198062
 20
0.2879268246517261
 30
0.0
 10
-1.053882063297259
 20
0.2869957230815289
 30
0.0
 10
-1.053833708902939
 20
0.2851699715167081
 30
0.0
 10
-1.053394641191576
 20
0.2824794526360235
 30
0.0
 10
-1.052723968659148
 20
0.2798902830138762
 30
0.0
 10
-1.0517263152788
 20
0.2774158106208038
 30
0.0
 10
-1.050536280311679
 20
0.2750183177848843
 30
0.0
 10
-1.048965204556205
 20
0.2727846451285136
 30
0.0
 10
-1.047224386216366
 20
0.2705791305579125
 30
0.0
 10
-1.045143522694799
 20
0.2685711986119773
 30
0.0
 10
-1.042910319427923
 20
0.2667028275814336
 30
0.0
 10
-1.040524445313517
 20
0.2650697467342783
 30
0.0
 10
-1.038037832720722
 20
0.2636726532934048
 30
0.0
 10
-1.035416910591779
 20
0.2625777281903553
 30
0.0
 10
-1.032698863978878
 20
0.2616791342199946
 30
0.0
 10
-1.029861046890453
 20
0.2610467925169191
 30
0.0
 10
-1.026901485649076
 20
0.2606892914934598
 30
0.0
 10
-1.02489668493956
 20
0.2606299137923907
 30
0.0
 10
-1.023874419543711
 20
0.2605996365838885
 30
0.0
  0
SPLINE
  5
FB
330
1F
100
AcDbEntity
  8
0
  6
Continuous
 62
     7
370
    35
100
AcDbSpline
210
0.0
220
0.0
230
1.0
 70
     8
 71
     3
 72
    23
 73
    19
 74
     0
 42
0.000000001
 43
0.00000001
 40
0.0
 40
0.0
 40
0.0
 40
0.0
 40
0.0679623714944562
 40
0.1332834028675247
 40
0.1978352977570568
 40
0.2608919865309889
 40
0.3233765044831774
 40
0.3863500754690888
 40
0.4496377310517133
 40
0.5147953269783572
 40
0.5792399132410304
 40
0.6418141777582892
 40
0.7013585647860591
 40
0.7607267659857205
 40
0.819222067924388
 40
0.8787161693846299
 40
0.9381473540533078
 40
0.9999999999999999
 40
0.9999999999999999
 40
0.9999999999999999
 40
0.9999999999999999
 10
-1.023874419543711
 20
0.2605996365838885
 30
0.0
 10
-1.022852155822604
 20
0.2606299161663213
 30
0.0
 10
-1.020847358397483
 20
0.2606892985229888
 30
0.0
 10
-1.01788777334904
 20
0.2610467658001571
 30
0.0
 10
-1.015050044268928
 20
0.2616792322541831
 30
0.0
 10
-1.012331677788817
 20
0.2625773728158116
 30
0.0
 10
-1.00971193640827
 20
0.2636739716184942
 30
0.0
 10
-1.007227498553536
 20
0.2650610550727955
 30
0.0
 10
-1.004864187784036
 20
0.2667128707322984
 30
0.0
 10
-1.002629518510521
 20
0.2685680057017978
 30
0.0
 10
-1.000557316213706
 20
0.2705905589282688
 30
0.0
 10
-0.9987747461793711
 20
0.2727649574490113
 30
0.0
 10
-0.9972517842407449
 20
0.2750363706508701
 30
0.0
 10
-0.9960142178207494
 20
0.2774063663154868
 30
0.0
 10
-0.9950275528082487
 20
0.2798917792145193
 30
0.0
 10
-0.9943534792967946
 20
0.2824790518097529
 30
0.0
 10
-0.9939153183155296
 20
0.2851700764540382
 30
0.0
 10
-0.9938668393296776
 20
0.2869957585231386
 30
0.0
 10
-0.9938421158893594
 20
0.2879268246517261
 30
0.0
  0
SPLINE
  5
FC
330
1F
100
AcDbEntity
  8
0
  6
Continuous
 62
     7
370
    35
100
AcDbSpline
210
0.0
220
0.0
230
1.0
 70
     8
 71
     3
 72
    23
 73
    19
 74
     0
 42
0.000000001
 43
0.00000001
 40
0.0
 40
0.0
 40
0.0
 40
0.0
 40
0.0611379149156202
 40
0.1199938438512138
 40
0.1782253215076172
 40
0.2362564202618974
 40
0.2949293769549094
 40
0.3547157488097545
 40
0.4167296639241631
 40
0.4806644084708291
 40
0.5458317702108674
 40
0.6097581054261653
 40
0.6729712284742217
 40
0.736016869167664
 40
0.7998393981920315
 40
0.8647753566655663
 40
0.931087623272569
 40
1.0
 40
1.0
 40
1.0
 40
1.0
 10
-0.9938421158893594
 20
0.2879268246517261
 30
0.0
 10
-0.993863780967903
 20
0.288867555002799
 30
0.0
 10
-0.9939063024712171
 20
0.2907139027398553
 30
0.0
 10
-0.994387245328761
 20
0.2934181396782817
 30
0.0
 10
-0.9950542679216816
 20
0.2960293682696849
 30
0.0
 10
-0.9960614738551358
 20
0.2985311772867432
 30
0.0
 10
-0.9973699992386166
 20
0.3009136941072404
 30
0.0
 10
-0.998963834161087
 20
0.3031889539858422
 30
0.0
 10
-1.000807636141813
 20
0.305374400730069
 30
0.0
 10
-1.002937460535246
 20
0.3074044325558601
 30
0.0
 10
-1.005255973682925
 20
0.3092606167266148
 30
0.0
 10
-1.007721154209417
 20
0.3108991819391362
 30
0.0
 10
-1.010300208292033
 20
0.3122820550363931
 30
0.0
 10
-1.012990520986649
 20
0.3134358779602784
 30
0.0
 10
-1.015822917941365
 20
0.3142685344221511
 30
0.0
 10
-1.018751671452619
 20
0.3149241739130298
 30
0.0
 10
-1.021814240060656
 20
0.3152730722486932
 30
0.0
 10
-1.02389205928568
 20
0.3153335866249262
 30
0.0
 10
-1.024950945134262
 20
0.3153644256006459
 30
0.0
  0
SPLINE
  5
FF
330
1F
100
AcDbEntity
  8
0
  6
Continuous
 62
     7
370
    35
100
AcDbSpline
210
0.0
220
0.0
230
1.0
 70
     8
 71
     3
 72
    23
 73
    19
 74
     0
 42
0.000000001
 43
0.00000001
 40
0.0
 40
0.0
 40
0.0
 40
0.0
 40
0.0725383714064942
 40
0.1400338305012513
 40
0.2024956806336241
 40
0.2605750556694159
 40
0.313228337846467
 40
0.3615831937532656
 40
0.4048783612951262
 40
0.444127437305539
 40
0.5163996933371973
 40
0.5865066709977668
 40
0.6550853737960479
 40
0.7243837831470371
 40
0.7939735287256624
 40
0.8616376821817763
 40
0.9301109423064028
 40
1.0
 40
1.0
 40
1.0
 40
1.0
 10
-1.201142300121138
 20
0.3274270328588734
 30
0.0
 10
-1.199964350285986
 20
0.3274264240560725
 30
0.0
 10
-1.197690342414618
 20
0.3274252487748168
 30
0.0
 10
-1.194405451736143
 20
0.3275821473369913
 30
0.0
 10
-1.191357841999803
 20
0.3277632706702345
 30
0.0
 10
-1.18855687446542
 20
0.3280284645073215
 30
0.0
 10
-1.186001286493636
 20
0.3284033171641792
 30
0.0
 10
-1.183686816852909
 20
0.3287817320428465
 30
0.0
 10
-1.181631412014527
 20
0.329329187263261
 30
0.0
 10
-1.179225931630046
 20
0.3300663159695257
 30
0.0
 10
-1.176545484878991
 20
0.3313235055624782
 30
0.0
 10
-1.173629439661542
 20
0.3331483043834845
 30
0.0
 10
-1.171158156734327
 20
0.3354743165173472
 30
0.0
 10
-1.169019641113793
 20
0.3380895854672089
 30
0.0
 10
-1.167322559305194
 20
0.3409990000115424
 30
0.0
 10
-1.166080197402971
 20
0.3441119502763462
 30
0.0
 10
-1.165350230577634
 20
0.3473965112811381
 30
0.0
 10
-1.165252348937647
 20
0.3496440758029953
 30
0.0
 10
-1.165202907328891
 20
0.3507793572077524
 30
0.0
  0
SPLINE
  5
100
330
1F
100
AcDbEntity
  8
0
  6
Continuous
 62
     7
370
    35
100
AcDbSpline
210
0.0
220
0.0
230
1.0
 70
     8
 71
     3
 72
    23
 73
    19
 74
     0
 42
0.000000001
 43
0.00000001
 40
0.0
 40
0.0
 40
0.0
 40
0.0
 40
0.0700437554181549
 40
0.1392383167626452
 40
0.2081974550441389
 40
0.2791733744245661
 40
0.3499868116864774
 40
0.4183538456626559
 40
0.4876095837571509
 40
0.5574110731083893
 40
0.5953301567632427
 40
0.6379640515652204
 40
0.6859127777112943
 40
0.7381851646524793
 40
0.7961026471849432
 40
0.8585165439469292
 40
0.926657726468521
 40
0.9999999999999999
 40
0.9999999999999999
 40
0.9999999999999999
 40
0.9999999999999999
 10
-1.165202907328891
 20
0.3507793572077524
 30
0.0
 10
-1.165252617820842
 20
0.3518871726978652
 30
0.0
 10
-1.165351436126388
 20
0.3540893727827408
 30
0.0
 10
-1.16608591892799
 20
0.3573168830429662
 30
0.0
 10
-1.167320143883247
 20
0.3603970288849654
 30
0.0
 10
-1.169031033431076
 20
0.363269985001242
 30
0.0
 10
-1.17110745587047
 20
0.3658758434250707
 30
0.0
 10
-1.173520815835352
 20
0.3681395098448685
 30
0.0
 10
-1.176265432423291
 20
0.3699592619208964
 30
0.0
 10
-1.178818512385212
 20
0.3711338005684829
 30
0.0
 10
-1.181086275614637
 20
0.3718509373965586
 30
0.0
 10
-1.183056037814788
 20
0.3723527027688909
 30
0.0
 10
-1.185280080117399
 20
0.3727533171879827
 30
0.0
 10
-1.187759126554815
 20
0.3730777070618483
 30
0.0
 10
-1.190473962534359
 20
0.3733554023856031
 30
0.0
 10
-1.193447911939658
 20
0.3735438266861535
 30
0.0
 10
-1.196669708918573
 20
0.3736541202387734
 30
0.0
 10
-1.198906345566799
 20
0.3736595909181701
 30
0.0
 10
-1.200065774530587
 20
0.3736624268120329
 30
0.0
  0
LINE
  5
105
330
1F
100
AcDbEntity
  8
0
  6
Continuous
 62
     7
370
    35
100
AcDbLine
 10
-1.6563194024
 20
0.25
 30
0.0
 11
-1.721683828
 21
0.25
 31
0.0
  0
LINE
  5
106
330
1F
100
AcDbEntity
  8
0
  6
Continuous
 62
     7
370
    35
100
AcDbLine
 10
-1.6563194024
 20
0.2641328488
 30
0.0
 11
-1.6563194024
 21
0.25
 31
0.0
  0
LINE
  5
107
330
1F
100
AcDbEntity
  8
0
  6
Continuous
 62
     7
370
    35
100
AcDbLine
 10
-1.7093175853
 20
0.2641328488
 30
0.0
 11
-1.6563194024
 21
0.2641328488
 31
0.0
  0
LINE
  5
108
330
1F
100
AcDbEntity
  8
0
  6
Continuous
 62
     7
370
    35
100
AcDbLine
 10
-1.7093175853
 20
0.3877952756
 30
0.0
 11
-1.7093175853
 21
0.2641328488
 31
0.0
  0
LINE
  5
109
330
1F
100
AcDbEntity
  8
0
  6
Continuous
 62
     7
370
    35
100
AcDbLine
 10
-1.721683828
 20
0.3877952756
 30
0.0
 11
-1.7093175853
 21
0.3877952756
 31
0.0
  0
LINE
  5
10A
330
1F
100
AcDbEntity
  8
0
  6
Continuous
 62
     7
370
    35
100
AcDbLine
 10
-1.721683828
 20
0.25
 30
0.0
 11
-1.721683828
 21
0.3877952756
 31
0.0
  0
LINE
  5
10B
330
1F
100
AcDbEntity
  8
0
  6
Continuous
 62
     7
370
    35
100
AcDbLine
 10
-1.412527761
 20
0.3680037667
 30
0.0
 11
-1.4237070652
 21
0.359529578
 31
0.0
  0
LINE
  5
10C
330
1F
100
AcDbEntity
  8
0
  6
Continuous
 62
     7
370
    35
100
AcDbLine
 10
-1.4920250353
 20
0.2765819011
 30
0.0
 11
-1.4803764764
 21
0.2835655158
 31
0.0
  0
LINE
  5
10D
330
1F
100
AcDbEntity
  8
0
  6
Continuous
 62
     7
370
    35
100
AcDbLine
 10
-1.2252675146
 20
0.25
 30
0.0
 11
-1.2376337573
 21
0.25
 31
0.0
  0
LINE
  5
10E
330
1F
100
AcDbEntity
  8
0
  6
Continuous
 62
     7
370
    35
100
AcDbLine
 10
-1.2252675146
 20
0.3135978195
 30
0.0
 11
-1.2252675146
 21
0.25
 31
0.0
  0
LINE
  5
10F
330
1F
100
AcDbEntity
  8
0
  6
Continuous
 62
     7
370
    35
100
AcDbLine
 10
-1.215413165
 20
0.3135978195
 30
0.0
 11
-1.2252675146
 21
0.3135978195
 31
0.0
  0
LINE
  5
110
330
1F
100
AcDbEntity
  8
0
  6
Continuous
 62
     7
370
    35
100
AcDbLine
 10
-1.2376337573
 20
0.3877952756
 30
0.0
 11
-1.2106102047
 21
0.3877952756
 31
0.0
  0
LINE
  5
111
330
1F
100
AcDbEntity
  8
0
  6
Continuous
 62
     7
370
    35
100
AcDbLine
 10
-1.2376337573
 20
0.25
 30
0.0
 11
-1.2376337573
 21
0.3877952756
 31
0.0
  0
LINE
  5
112
330
1F
100
AcDbEntity
  8
0
  6
Continuous
 62
     7
370
    35
100
AcDbLine
 10
-1.0002184598
 20
0.3838480151
 30
0.0
 11
-1.0366271073
 21
0.3281723198
 31
0.0
  0
LINE
  5
113
330
1F
100
AcDbEntity
  8
0
  6
Continuous
 62
     7
370
    35
100
AcDbLine
 10
-1.0097415708
 20
0.3913284878
 30
0.0
 11
-1.0002184598
 21
0.3838480151
 31
0.0
  0
LINE
  5
114
330
1F
100
AcDbEntity
  8
0
  6
Continuous
 62
     7
370
    35
100
AcDbLine
 10
-1.050870369
 20
0.328448352
 30
0.0
 11
-1.0097415708
 21
0.3913284878
 31
0.0
  0
LINE
  5
115
330
1F
100
AcDbEntity
  8
0
  6
Continuous
 62
     7
370
    35
100
AcDbLine
 10
-0.7882257281
 20
0.3838480151
 30
0.0
 11
-0.8246343756
 21
0.3281723198
 31
0.0
  0
LINE
  5
116
330
1F
100
AcDbEntity
  8
0
  6
Continuous
 62
     7
370
    35
100
AcDbLine
 10
-0.7977488391
 20
0.3913284878
 30
0.0
 11
-0.7882257281
 21
0.3838480151
 31
0.0
  0
LINE
  5
117
330
1F
100
AcDbEntity
  8
0
  6
Continuous
 62
     7
370
    35
100
AcDbLine
 10
-0.8388776373
 20
0.328448352
 30
0.0
 11
-0.7977488391
 21
0.3913284878
 31
0.0
  0
LINE
  5
118
330
1F
100
AcDbEntity
  8
0
  6
Continuous
 62
     7
370
    35
100
AcDbLine
 10
-1.28
 20
1.495
 30
0.0
 11
-1.28
 21
2.005
 31
0.0
  0
LINE
  5
119
330
1F
100
AcDbEntity
  8
0
  6
Continuous
 62
     7
370
    35
100
AcDbLine
 10
-1.0
 20
1.495
 30
0.0
 11
-1.28
 21
1.495
 31
0.0
  0
LINE
  5
11A
330
1F
100
AcDbEntity
  8
0
  6
Continuous
 62
     7
370
    35
100
AcDbLine
 10
-1.0
 20
2.005
 30
0.0
 11
-1.0
 21
1.495
 31
0.0
  0
LINE
  5
11B
330
1F
100
AcDbEntity
  8
0
  6
Continuous
 62
     7
370
    35
100
AcDbLine
 10
-1.28
 20
2.005
 30
0.0
 11
-1.0
 21
2.005
 31
0.0
  0
LINE
  5
11C
330
1F
100
AcDbEntity
  8
0
  6
Continuous
 62
     7
370
    35
100
AcDbLine
 10
-12.16
 20
1.25
 30
0.0
 11
-12.16
 21
1.78
 31
0.0
  0
LINE
  5
11D
330
1F
100
AcDbEntity
  8
0
  6
Continuous
 62
     7
370
    35
100
AcDbLine
 10
-11.69
 20
1.25
 30
0.0
 11
-12.16
 21
1.25
 31
0.0
  0
LINE
  5
11E
330
1F
100
AcDbEntity
  8
0
  6
Continuous
 62
     7
370
    35
100
AcDbLine
 10
-11.69
 20
1.78
 30
0.0
 11
-11.69
 21
1.25
 31
0.0
  0
LINE
  5
11F
330
1F
100
AcDbEntity
  8
0
  6
Continuous
 62
     7
370
    35
100
AcDbLine
 10
-12.16
 20
1.78
 30
0.0
 11
-11.69
 21
1.78
 31
0.0
  0
LINE
  5
120
330
1F
100
AcDbEntity
  8
0
  6
Continuous
 62
     7
370
    35
100
AcDbLine
 10
-8.4863645515
 20
7.9115
 30
0.0
 11
0.2655981456
 21
3.2530993657
 31
0.0
  0
LINE
  5
121
330
1F
100
AcDbEntity
  8
0
  6
Continuous
 62
     7
370
    35
100
AcDbLine
 10
0.1775
 20
3.0875851163
 30
0.0
 11
0.2655981456
 21
3.2530993657
 31
0.0
  0
LINE
  5
122
330
1F
100
AcDbEntity
  8
0
  6
Continuous
 62
     7
370
    35
100
AcDbLine
 10
0.0
 20
3.0875851163
 30
0.0
 11
0.1775
 21
3.0875851163
 31
0.0
  0
LINE
  5
123
330
1F
100
AcDbEntity
  8
0
  6
Continuous
 62
     7
370
    35
100
AcDbLine
 10
0.0
 20
3.0875851163
 30
0.0
 11
0.0
 21
0.0
 31
0.0
  0
LINE
  5
124
330
1F
100
AcDbEntity
  8
0
  6
Continuous
 62
     7
370
    35
100
AcDbLine
 10
0.0
 20
0.0
 30
0.0
 11
-13.5
 21
0.0
 31
0.0
  0
LINE
  5
125
330
1F
100
AcDbEntity
  8
0
  6
Continuous
 62
     7
370
    35
100
AcDbLine
 10
-13.5
 20
0.0
 30
0.0
 11
-13.5
 21
2.5136253553
 31
0.0
  0
LINE
  5
126
330
1F
100
AcDbEntity
  8
0
  6
Continuous
 62
     7
370
    35
100
AcDbLine
 10
-13.6875
 20
2.5136253553
 30
0.0
 11
-13.5
 21
2.5136253553
 31
0.0
  0
LINE
  5
127
330
1F
100
AcDbEntity
  8
0
  6
Continuous
 62
     7
370
    35
100
AcDbLine
 10
-13.6875
 20
2.5136253553
 30
0.0
 11
-13.8285964604
 21
2.6320193432
 31
0.0
  0
LINE
  5
128
330
1F
100
AcDbEntity
  8
0
  6
Continuous
 62
     7
370
    35
100
AcDbLine
 10
-13.8285964604
 20
2.6320193432
 30
0.0
 11
-9.4741051552
 21
7.8215
 31
0.0
  0
LINE
  5
129
330
1F
100
AcDbEntity
  8
0
  6
Continuous
 62
     7
370
    35
100
AcDbLine
 10
-1.0839390269
 20
0.2959317585
 30
0.0
 11
-1.1369372098
 21
0.2959317585
 31
0.0
  0
LINE
  5
12A
330
1F
100
AcDbEntity
  8
0
  6
Continuous
 62
     7
370
    35
100
AcDbLine
 10
-1.0839390269
 20
0.3100646073
 30
0.0
 11
-1.0839390269
 21
0.2959317585
 31
0.0
  0
LINE
  5
12B
330
1F
100
AcDbEntity
  8
0
  6
Continuous
 62
     7
370
    35
100
AcDbLine
 10
-1.1369372098
 20
0.3100646073
 30
0.0
 11
-1.0839390269
 21
0.3100646073
 31
0.0
  0
LINE
  5
12C
330
1F
100
AcDbEntity
  8
0
  6
Continuous
 62
     7
370
    35
100
AcDbLine
 10
-1.1369372098
 20
0.2959317585
 30
0.0
 11
-1.1369372098
 21
0.3100646073
 31
0.0
  0
LINE
  5
12D
330
1F
100
AcDbEntity
  8
0
  6
Continuous
 62
     7
370
    35
100
AcDbLine
 10
-1.3930950939
 20
0.25
 30
0.0
 11
-1.3277306683
 21
0.3877952756
 31
0.0
  0
LINE
  5
12E
330
1F
100
AcDbEntity
  8
0
  6
Continuous
 62
     7
370
    35
100
AcDbLine
 10
-1.3795971192
 20
0.25
 30
0.0
 11
-1.3930950939
 21
0.25
 31
0.0
  0
LINE
  5
12F
330
1F
100
AcDbEntity
  8
0
  6
Continuous
 62
     7
370
    35
100
AcDbLine
 10
-1.358646275
 20
0.2941651524
 30
0.0
 11
-1.3795971192
 21
0.25
 31
0.0
  0
LINE
  5
130
330
1F
100
AcDbEntity
  8
0
  6
Continuous
 62
     7
370
    35
100
AcDbLine
 10
-1.2961801875
 20
0.2941651524
 30
0.0
 11
-1.358646275
 21
0.2941651524
 31
0.0
  0
LINE
  5
131
330
1F
100
AcDbEntity
  8
0
  6
Continuous
 62
     7
370
    35
100
AcDbLine
 10
-1.275809011
 20
0.25
 30
0.0
 11
-1.2961801875
 21
0.2941651524
 31
0.0
  0
LINE
  5
132
330
1F
100
AcDbEntity
  8
0
  6
Continuous
 62
     7
370
    35
100
AcDbLine
 10
-1.2623662427
 20
0.25
 30
0.0
 11
-1.275809011
 21
0.25
 31
0.0
  0
LINE
  5
133
330
1F
100
AcDbEntity
  8
0
  6
Continuous
 62
     7
370
    35
100
AcDbLine
 10
-1.3259640622
 20
0.3877952756
 30
0.0
 11
-1.2623662427
 21
0.25
 31
0.0
  0
LINE
  5
134
330
1F
100
AcDbEntity
  8
0
  6
Continuous
 62
     7
370
    35
100
AcDbLine
 10
-1.3277306683
 20
0.3877952756
 30
0.0
 11
-1.3259640622
 21
0.3877952756
 31
0.0
  0
LINE
  5
135
330
1F
100
AcDbEntity
  8
0
  6
Continuous
 62
     7
370
    35
100
AcDbLine
 10
-1.5169783465
 20
0.2835655158
 30
0.0
 11
-1.5061578841
 21
0.2753673594
 31
0.0
  0
LINE
  5
136
330
1F
100
AcDbEntity
  8
0
  6
Continuous
 62
     7
370
    35
100
AcDbLine
 10
-1.5061578841
 20
0.3625107258
 30
0.0
 11
-1.5169783465
 21
0.3542297597
 31
0.0
  0
LINE
  5
137
330
1F
100
AcDbEntity
  8
0
  6
Continuous
 62
     7
370
    35
100
AcDbLine
 10
-10.0287309161
 20
5.41600294
 30
0.0
 11
-9.657670982
 21
5.5510577112
 31
0.0
  0
LINE
  5
138
330
1F
100
AcDbEntity
  8
0
  6
Continuous
 62
     7
370
    35
100
AcDbLine
 10
-10.5323077112
 20
4.336079018
 30
0.0
 11
-10.0287309161
 21
5.41600294
 31
0.0
  0
LINE
  5
139
330
1F
100
AcDbEntity
  8
0
  6
Continuous
 62
     7
370
    35
100
AcDbLine
 10
-10.39725294
 20
3.9650190839
 30
0.0
 11
-10.5323077112
 21
4.336079018
 31
0.0
  0
LINE
  5
13A
330
1F
100
AcDbEntity
  8
0
  6
Continuous
 62
     7
370
    35
100
AcDbLine
 10
-9.317329018
 20
3.4614422888
 30
0.0
 11
-10.39725294
 21
3.9650190839
 31
0.0
  0
LINE
  5
13B
330
1F
100
AcDbEntity
  8
0
  6
Continuous
 62
     7
370
    35
100
AcDbLine
 10
-8.9462690839
 20
3.59649706
 30
0.0
 11
-9.317329018
 21
3.4614422888
 31
0.0
  0
LINE
  5
13C
330
1F
100
AcDbEntity
  8
0
  6
Continuous
 62
     7
370
    35
100
AcDbLine
 10
-8.4426922888
 20
4.676420982
 30
0.0
 11
-8.9462690839
 21
3.59649706
 31
0.0
  0
LINE
  5
13D
330
1F
100
AcDbEntity
  8
0
  6
Continuous
 62
     7
370
    35
100
AcDbLine
 10
-8.57774706
 20
5.0474809161
 30
0.0
 11
-8.4426922888
 21
4.676420982
 31
0.0
  0
LINE
  5
13E
330
1F
100
AcDbEntity
  8
0
  6
Continuous
 62
     7
370
    35
100
AcDbLine
 10
-9.657670982
 20
5.5510577112
 30
0.0
 11
-8.57774706
 21
5.0474809161
 31
0.0
  0
LINE
  5
13F
330
1F
100
AcDbEntity
  8
0
  6
Continuous
 62
     7
370
    35
100
AcDbLine
 10
-1.2252675146
 20
0.3736624268
 30
0.0
 11
-1.2252675146
 21
0.3277306683
 31
0.0
  0
LINE
  5
140
330
1F
100
AcDbEntity
  8
0
  6
Continuous
 62
     7
370
    35
100
AcDbLine
 10
-1.2252675146
 20
0.3277306683
 30
0.0
 11
-1.2011423001
 21
0.3274270329
 31
0.0
  0
LINE
  5
141
330
1F
100
AcDbEntity
  8
0
  6
Continuous
 62
     7
370
    35
100
AcDbLine
 10
-1.2000657745
 20
0.3736624268
 30
0.0
 11
-1.2252675146
 21
0.3736624268
 31
0.0
  0
LINE
  5
142
330
1F
100
AcDbEntity
  8
0
  6
Continuous
 62
     7
370
    35
100
AcDbLine
 10
-1.3269853813
 20
0.3609373423
 30
0.0
 11
-1.3519386925
 21
0.3082980012
 31
0.0
  0
LINE
  5
143
330
1F
100
AcDbEntity
  8
0
  6
Continuous
 62
     7
370
    35
100
AcDbLine
 10
-1.3026945475
 20
0.3082980012
 30
0.0
 11
-1.3269853813
 21
0.3609373423
 31
0.0
  0
LINE
  5
144
330
1F
100
AcDbEntity
  8
0
  6
Continuous
 62
     7
370
    35
100
AcDbLine
 10
-1.3519386925
 20
0.3082980012
 30
0.0
 11
-1.3026945475
 21
0.3082980012
 31
0.0
  0
ARC
  5
145
330
1F
100
AcDbEntity
  8
0
  6
Continuous
 62
     7
370
    35
100
AcDbCircle
 10
-9.0073023765
 20
6.9327888994
 30
0.0
 40
1.108716210756983
100
AcDbArc
 50
61.975
 51
89.4249912494
  0
ARC
  5
146
330
1F
100
AcDbEntity
  8
0
  6
Continuous
 62
     7
370
    35
100
AcDbCircle
 10
-9.002355903
 20
7.4256553765
 30
0.0
 40
0.6158249125612085
100
AcDbArc
 50
89.4249912494
 51
140.0
  0
MTEXT
  5
148
330
1F
100
AcDbEntity
  8
0
  6
Continuous
 62
     7
100
AcDbMText
 10
-13.8285964604
 20
-0.0401404091
 30
0.0
 40
0.1903
 41
0.0
 71
     1
 72
     1
  1
SOLIDWORKS Educational Product.
  7
SLDTEXTSTYLE0
 73
     1
 44
1.0
  0
MTEXT
  5
149
330
1F
100
AcDbEntity
  8
0
  6
Continuous
 62
     7
100
AcDbMText
 10
-13.8285964604
 20
-0.3255904091
 30
0.0
 40
0.1903
 41
0.0
 71
     1
 72
     1
  1
For Instructional Use Only.
  7
SLDTEXTSTYLE0
 73
     1
 44
1.0
  0
ENDSEC
  0
SECTION
  2
OBJECTS
  0
DICTIONARY
  5
C
330
0
100
AcDbDictionary
281
     1
  3
ACAD_GROUP
350
D
  3
ACAD_LAYOUT
350
1A
  3
ACAD_MLINESTYLE
350
17
  3
ACAD_PLOTSETTINGS
350
19
  3
ACAD_PLOTSTYLENAME
350
E
  3
ACAD_SCALELIST
350
47
  0
DICTIONARY
  5
D
102
{ACAD_REACTORS
330
C
102
}
330
C
100
AcDbDictionary
281
     1
  0
DICTIONARY
  5
1A
102
{ACAD_REACTORS
330
C
102
}
330
C
100
AcDbDictionary
281
     1
  3
Layout1
350
1E
  3
Layout2
350
26
  3
Model
350
22
  0
DICTIONARY
  5
17
102
{ACAD_REACTORS
330
C
102
}
330
C
100
AcDbDictionary
281
     1
  3
Standard
350
18
  0
DICTIONARY
  5
19
102
{ACAD_REACTORS
330
C
102
}
330
C
100
AcDbDictionary
281
     1
  0
ACDBDICTIONARYWDFLT
  5
E
102
{ACAD_REACTORS
330
C
102
}
330
C
100
AcDbDictionary
281
     1
  3
Normal
350
F
100
AcDbDictionaryWithDefault
340
F
  0
DICTIONARY
  5
47
102
{ACAD_REACTORS
330
C
102
}
330
C
100
AcDbDictionary
281
     1
  3
A0
350
48
  3
A1
350
49
  3
A2
350
4A
  3
A3
350
4B
  3
A4
350
4C
  3
A5
350
4D
  3
A6
350
4E
  3
A7
350
4F
  3
A8
350
50
  3
A9
350
51
  3
B0
350
52
  3
B1
350
53
  3
B2
350
54
  3
B3
350
55
  3
B4
350
56
  3
B5
350
57
  3
B6
350
58
  3
B7
350
59
  3
B8
350
5A
  3
B9
350
5B
  3
C0
350
5C
  3
C1
350
5D
  3
C2
350
5E
  3
C3
350
5F
  3
C4
350
60
  3
C5
350
61
  3
C6
350
62
  3
C7
350
63
  3
C8
350
64
  3
C9
350
65
  3
D0
350
66
  3
D1
350
67
  3
D2
350
68
  0
LAYOUT
  5
1E
102
{ACAD_REACTORS
330
1A
102
}
330
1A
100
AcDbPlotSettings
  1

  2
none_device
  4

  6

 40
0.0
 41
0.0
 42
0.0
 43
0.0
 44
0.0
 45
0.0
 46
0.0
 47
0.0
 48
0.0
 49
0.0
140
0.0
141
0.0
142
1.0
143
1.0
 70
   688
 72
     0
 73
     0
 74
     5
  7

 75
    16
147
1.0
148
0.0
149
0.0
100
AcDbLayout
  1
Layout1
 70
     1
 71
     1
 10
0.0
 20
0.0
 11
12.0
 21
9.0
 12
0.0
 22
0.0
 32
0.0
 14
1.0000000000E+20
 24
1.0000000000E+20
 34
1.0000000000E+20
 15
-1.0000000000E+20
 25
-1.0000000000E+20
 35
-1.0000000000E+20
146
0.0
 13
0.0
 23
0.0
 33
0.0
 16
1.0
 26
0.0
 36
0.0
 17
0.0
 27
1.0
 37
0.0
 76
     0
330
1B
  0
LAYOUT
  5
26
102
{ACAD_REACTORS
330
1A
102
}
330
1A
100
AcDbPlotSettings
  1

  2
none_device
  4

  6

 40
0.0
 41
0.0
 42
0.0
 43
0.0
 44
0.0
 45
0.0
 46
0.0
 47
0.0
 48
0.0
 49
0.0
140
0.0
141
0.0
142
1.0
143
1.0
 70
   688
 72
     0
 73
     0
 74
     5
  7

 75
    16
147
1.0
148
0.0
149
0.0
100
AcDbLayout
  1
Layout2
 70
     1
 71
     2
 10
0.0
 20
0.0
 11
0.0
 21
0.0
 12
0.0
 22
0.0
 32
0.0
 14
0.0
 24
0.0
 34
0.0
 15
0.0
 25
0.0
 35
0.0
146
0.0
 13
0.0
 23
0.0
 33
0.0
 16
1.0
 26
0.0
 36
0.0
 17
0.0
 27
1.0
 37
0.0
 76
     0
330
23
  0
LAYOUT
  5
22
102
{ACAD_REACTORS
330
1A
102
}
330
1A
100
AcDbPlotSettings
  1

  2
none_device
  4
ANSI_A_(11.00_x_8.50_Inches)
  6

 40
6.35
 41
19.05
 42
6.35000508
 43
19.05000254
 44
279.4
 45
215.9
 46
266.4404938213
 47
9.9908535461
 48
0.0
 49
0.0
140
0.0
141
0.0
142
0.7726585523
143
1.0
 70
  1696
 72
     0
 73
     0
 74
     0
  7

 75
     0
147
0.5913241897
148
-39.4088153714
149
0.0
100
AcDbLayout
  1
Model
 70
     1
 71
     0
 10
0.0
 20
0.0
 11
12.0
 21
9.0
 12
0.0
 22
0.0
 32
0.0
 14
-13.8285964604
 24
0.0
 34
0.0
 15
0.2655981456
 25
8.041480289
 35
0.0
146
0.0
 13
0.0
 23
0.0
 33
0.0
 16
1.0
 26
0.0
 36
0.0
 17
0.0
 27
1.0
 37
0.0
 76
     0
330
1F
331
29
  0
MLINESTYLE
  5
18
102
{ACAD_REACTORS
330
17
102
}
330
17
100
AcDbMlineStyle
  2
Standard
 70
     0
  3

 62
   256
 51
90.0
 52
90.0
 71
     2
 49
0.5
 62
   256
  6
BYLAYER
 49
-0.5
 62
   256
  6
BYLAYER
  0
ACDBPLACEHOLDER
  5
F
102
{ACAD_REACTORS
330
E
102
}
330
E
  0
SCALE
  5
48
102
{ACAD_REACTORS
330
47
102
}
330
47
100
AcDbScale
 70
     0
300
1:1
140
1.0
141
1.0
290
     1
  0
SCALE
  5
49
102
{ACAD_REACTORS
330
47
102
}
330
47
100
AcDbScale
 70
     0
300
1:2
140
1.0
141
2.0
290
     0
  0
SCALE
  5
4A
102
{ACAD_REACTORS
330
47
102
}
330
47
100
AcDbScale
 70
     0
300
1:4
140
1.0
141
4.0
290
     0
  0
SCALE
  5
4B
102
{ACAD_REACTORS
330
47
102
}
330
47
100
AcDbScale
 70
     0
300
1:5
140
1.0
141
5.0
290
     0
  0
SCALE
  5
4C
102
{ACAD_REACTORS
330
47
102
}
330
47
100
AcDbScale
 70
     0
300
1:8
140
1.0
141
8.0
290
     0
  0
SCALE
  5
4D
102
{ACAD_REACTORS
330
47
102
}
330
47
100
AcDbScale
 70
     0
300
1:10
140
1.0
141
10.0
290
     0
  0
SCALE
  5
4E
102
{ACAD_REACTORS
330
47
102
}
330
47
100
AcDbScale
 70
     0
300
1:16
140
1.0
141
16.0
290
     0
  0
SCALE
  5
4F
102
{ACAD_REACTORS
330
47
102
}
330
47
100
AcDbScale
 70
     0
300
1:20
140
1.0
141
20.0
290
     0
  0
SCALE
  5
50
102
{ACAD_REACTORS
330
47
102
}
330
47
100
AcDbScale
 70
     0
300
1:30
140
1.0
141
30.0
290
     0
  0
SCALE
  5
51
102
{ACAD_REACTORS
330
47
102
}
330
47
100
AcDbScale
 70
     0
300
1:40
140
1.0
141
40.0
290
     0
  0
SCALE
  5
52
102
{ACAD_REACTORS
330
47
102
}
330
47
100
AcDbScale
 70
     0
300
1:50
140
1.0
141
50.0
290
     0
  0
SCALE
  5
53
102
{ACAD_REACTORS
330
47
102
}
330
47
100
AcDbScale
 70
     0
300
1:100
140
1.0
141
100.0
290
     0
  0
SCALE
  5
54
102
{ACAD_REACTORS
330
47
102
}
330
47
100
AcDbScale
 70
     0
300
2:1
140
2.0
141
1.0
290
     0
  0
SCALE
  5
55
102
{ACAD_REACTORS
330
47
102
}
330
47
100
AcDbScale
 70
     0
300
4:1
140
4.0
141
1.0
290
     0
  0
SCALE
  5
56
102
{ACAD_REACTORS
330
47
102
}
330
47
100
AcDbScale
 70
     0
300
8:1
140
8.0
141
1.0
290
     0
  0
SCALE
  5
57
102
{ACAD_REACTORS
330
47
102
}
330
47
100
AcDbScale
 70
     0
300
10:1
140
10.0
141
1.0
290
     0
  0
SCALE
  5
58
102
{ACAD_REACTORS
330
47
102
}
330
47
100
AcDbScale
 70
     0
300
100:1
140
100.0
141
1.0
290
     0
  0
SCALE
  5
59
102
{ACAD_REACTORS
330
47
102
}
330
47
100
AcDbScale
 70
     0
300
1/128" = 1'-0"
140
0.0078125
141
12.0
290
     0
  0
SCALE
  5
5A
102
{ACAD_REACTORS
330
47
102
}
330
47
100
AcDbScale
 70
     0
300
1/64" = 1'-0"
140
0.015625
141
12.0
290
     0
  0
SCALE
  5
5B
102
{ACAD_REACTORS
330
47
102
}
330
47
100
AcDbScale
 70
     0
300
1/32" = 1'-0"
140
0.03125
141
12.0
290
     0
  0
SCALE
  5
5C
102
{ACAD_REACTORS
330
47
102
}
330
47
100
AcDbScale
 70
     0
300
1/16" = 1'-0"
140
0.0625
141
12.0
290
     0
  0
SCALE
  5
5D
102
{ACAD_REACTORS
330
47
102
}
330
47
100
AcDbScale
 70
     0
300
3/32" = 1'-0"
140
0.09375
141
12.0
290
     0
  0
SCALE
  5
5E
102
{ACAD_REACTORS
330
47
102
}
330
47
100
AcDbScale
 70
     0
300
1/8" = 1'-0"
140
0.125
141
12.0
290
     0
  0
SCALE
  5
5F
102
{ACAD_REACTORS
330
47
102
}
330
47
100
AcDbScale
 70
     0
300
3/16" = 1'-0"
140
0.1875
141
12.0
290
     0
  0
SCALE
  5
60
102
{ACAD_REACTORS
330
47
102
}
330
47
100
AcDbScale
 70
     0
300
1/4" = 1'-0"
140
0.25
141
12.0
290
     0
  0
SCALE
  5
61
102
{ACAD_REACTORS
330
47
102
}
330
47
100
AcDbScale
 70
     0
300
3/8" = 1'-0"
140
0.375
141
12.0
290
     0
  0
SCALE
  5
62
102
{ACAD_REACTORS
330
47
102
}
330
47
100
AcDbScale
 70
     0
300
1/2" = 1'-0"
140
0.5
141
12.0
290
     0
  0
SCALE
  5
63
102
{ACAD_REACTORS
330
47
102
}
330
47
100
AcDbScale
 70
     0
300
3/4" = 1'-0"
140
0.75
141
12.0
290
     0
  0
SCALE
  5
64
102
{ACAD_REACTORS
330
47
102
}
330
47
100
AcDbScale
 70
     0
300
1" = 1'-0"
140
1.0
141
12.0
290
     0
  0
SCALE
  5
65
102
{ACAD_REACTORS
330
47
102
}
330
47
100
AcDbScale
 70
     0
300
1-1/2" = 1'-0"
140
1.5
141
12.0
290
     0
  0
SCALE
  5
66
102
{ACAD_REACTORS
330
47
102
}
330
47
100
AcDbScale
 70
     0
300
3" = 1'-0"
140
3.0
141
12.0
290
     0
  0
SCALE
  5
67
102
{ACAD_REACTORS
330
47
102
}
330
47
100
AcDbScale
 70
     0
300
6" = 1'-0"
140
6.0
141
12.0
290
     0
  0
SCALE
  5
68
102
{ACAD_REACTORS
330
47
102
}
330
47
100
AcDbScale
 70
     0
300
1'-0" = 1'-0"
140
12.0
141
12.0
290
     0
  0
ENDSEC
  0
EOF
