  0
SECTION
  2
HEADER
  9
$ACADVER
  1
AC1015
  9
$ACADMAINTVER
 70
     6
  9
$DWGCODEPAGE
  3
ANSI_1252
  9
$INSBASE
 10
0.0
 20
0.0
 30
0.0
  9
$EXTMIN
 10
-0.2655981456
 20
0.0
 30
0.0
  9
$EXTMAX
 10
13.8285964604
 20
8.041480289
 30
0.0
  9
$LIMMIN
 10
0.0
 20
0.0
  9
$LIMMAX
 10
12.0
 20
9.0
  9
$ORTHOMODE
 70
     0
  9
$REGENMODE
 70
     1
  9
$FILLMODE
 70
     1
  9
$QTEXTMODE
 70
     0
  9
$MIRRTEXT
 70
     1
  9
$LTSCALE
 40
1.0
  9
$ATTMODE
 70
     1
  9
$TEXTSIZE
 40
0.15
  9
$TRACEWID
 40
0.05
  9
$TEXTSTYLE
  7
Standard
  9
$CLAYER
  8
0
  9
$CELTYPE
  6
ByLayer
  9
$CECOLOR
 62
   256
  9
$CELTSCALE
 40
1.0
  9
$DISPSILH
 70
     0
  9
$DIMSCALE
 40
1.0
  9
$DIMASZ
 40
0.15
  9
$DIMEXO
 40
0.09
  9
$DIMDLI
 40
0.38
  9
$DIMRND
 40
0.0
  9
$DIMDLE
 40
0.0
  9
$DIMEXE
 40
0.125
  9
$DIMTP
 40
0.0
  9
$DIMTM
 40
0.0
  9
$DIMTXT
 40
0.15
  9
$DIMCEN
 40
0.09
  9
$DIMTSZ
 40
0.0
  9
$DIMTOL
 70
     0
  9
$DIMLIM
 70
     0
  9
$DIMTIH
 70
     1
  9
$DIMTOH
 70
     1
  9
$DIMSE1
 70
     0
  9
$DIMSE2
 70
     0
  9
$DIMTAD
 70
     0
  9
$DIMZIN
 70
     0
  9
$DIMBLK
  1

  9
$DIMASO
 70
     1
  9
$DIMSHO
 70
     1
  9
$DIMPOST
  1

  9
$DIMAPOST
  1

  9
$DIMALT
 70
     0
  9
$DIMALTD
 70
     2
  9
$DIMALTF
 40
25.4
  9
$DIMLFAC
 40
1.0
  9
$DIMTOFL
 70
     0
  9
$DIMTVP
 40
0.0
  9
$DIMTIX
 70
     0
  9
$DIMSOXD
 70
     0
  9
$DIMSAH
 70
     0
  9
$DIMBLK1
  1

  9
$DIMBLK2
  1

  9
$DIMSTYLE
  2
Standard
  9
$DIMCLRD
 70
     0
  9
$DIMCLRE
 70
     0
  9
$DIMCLRT
 70
     0
  9
$DIMTFAC
 40
1.0
  9
$DIMGAP
 40
0.09
  9
$DIMJUST
 70
     0
  9
$DIMSD1
 70
     0
  9
$DIMSD2
 70
     0
  9
$DIMTOLJ
 70
     1
  9
$DIMTZIN
 70
     0
  9
$DIMALTZ
 70
     0
  9
$DIMALTTZ
 70
     0
  9
$DIMUPT
 70
     0
  9
$DIMDEC
 70
     4
  9
$DIMTDEC
 70
     4
  9
$DIMALTU
 70
     2
  9
$DIMALTTD
 70
     2
  9
$DIMTXSTY
  7
Standard
  9
$DIMAUNIT
 70
     0
  9
$DIMADEC
 70
     2
  9
$DIMALTRND
 40
0.0
  9
$DIMAZIN
 70
     0
  9
$DIMDSEP
 70
    46
  9
$DIMATFIT
 70
     3
  9
$DIMFRAC
 70
     0
  9
$DIMLDRBLK
  1

  9
$DIMLUNIT
 70
     2
  9
$DIMLWD
 70
    -2
  9
$DIMLWE
 70
    -2
  9
$DIMTMOVE
 70
     0
  9
$LUNITS
 70
     2
  9
$LUPREC
 70
     4
  9
$SKETCHINC
 40
0.1
  9
$FILLETRAD
 40
0.5
  9
$AUNITS
 70
     0
  9
$AUPREC
 70
     2
  9
$MENU
  1
.
  9
$ELEVATION
 40
0.0
  9
$PELEVATION
 40
0.0
  9
$THICKNESS
 40
0.0
  9
$LIMCHECK
 70
     0
  9
$CHAMFERA
 40
0.0
  9
$CHAMFERB
 40
0.0
  9
$CHAMFERC
 40
0.0
  9
$CHAMFERD
 40
0.0
  9
$SKPOLY
 70
     0
  9
$TDCREATE
 40
2458228.463265
  9
$TDUCREATE
 40
2458228.754931667
  9
$TDUPDATE
 40
2458228.463298773
  9
$TDUUPDATE
 40
2458228.75496544
  9
$TDINDWG
 40
0.0000000116
  9
$TDUSRTIMER
 40
0.0000000116
  9
$USRTIMER
 70
     1
  9
$ANGBASE
 50
0.0
  9
$ANGDIR
 70
     0
  9
$PDMODE
 70
     0
  9
$PDSIZE
 40
-1.0
  9
$PLINEWID
 40
0.0
  9
$SPLFRAME
 70
     0
  9
$SPLINETYPE
 70
     6
  9
$SPLINESEGS
 70
     8
  9
$HANDSEED
  5
13E
  9
$SURFTAB1
 70
     6
  9
$SURFTAB2
 70
     6
  9
$SURFTYPE
 70
     6
  9
$SURFU
 70
     6
  9
$SURFV
 70
     6
  9
$UCSBASE
  2

  9
$UCSNAME
  2

  9
$UCSORG
 10
0.0
 20
0.0
 30
0.0
  9
$UCSXDIR
 10
1.0
 20
0.0
 30
0.0
  9
$UCSYDIR
 10
0.0
 20
1.0
 30
0.0
  9
$UCSORTHOREF
  2

  9
$UCSORTHOVIEW
 70
     0
  9
$UCSORGTOP
 10
0.0
 20
0.0
 30
0.0
  9
$UCSORGBOTTOM
 10
0.0
 20
0.0
 30
0.0
  9
$UCSORGLEFT
 10
0.0
 20
0.0
 30
0.0
  9
$UCSORGRIGHT
 10
0.0
 20
0.0
 30
0.0
  9
$UCSORGFRONT
 10
0.0
 20
0.0
 30
0.0
  9
$UCSORGBACK
 10
0.0
 20
0.0
 30
0.0
  9
$PUCSBASE
  2

  9
$PUCSNAME
  2

  9
$PUCSORG
 10
0.0
 20
0.0
 30
0.0
  9
$PUCSXDIR
 10
1.0
 20
0.0
 30
0.0
  9
$PUCSYDIR
 10
0.0
 20
1.0
 30
0.0
  9
$PUCSORTHOREF
  2

  9
$PUCSORTHOVIEW
 70
     0
  9
$PUCSORGTOP
 10
0.0
 20
0.0
 30
0.0
  9
$PUCSORGBOTTOM
 10
0.0
 20
0.0
 30
0.0
  9
$PUCSORGLEFT
 10
0.0
 20
0.0
 30
0.0
  9
$PUCSORGRIGHT
 10
0.0
 20
0.0
 30
0.0
  9
$PUCSORGFRONT
 10
0.0
 20
0.0
 30
0.0
  9
$PUCSORGBACK
 10
0.0
 20
0.0
 30
0.0
  9
$USERI1
 70
     0
  9
$USERI2
 70
     0
  9
$USERI3
 70
     0
  9
$USERI4
 70
     0
  9
$USERI5
 70
     0
  9
$USERR1
 40
0.0
  9
$USERR2
 40
0.0
  9
$USERR3
 40
0.0
  9
$USERR4
 40
0.0
  9
$USERR5
 40
0.0
  9
$WORLDVIEW
 70
     1
  9
$SHADEDGE
 70
     3
  9
$SHADEDIF
 70
    70
  9
$TILEMODE
 70
     1
  9
$MAXACTVP
 70
    64
  9
$PINSBASE
 10
0.0
 20
0.0
 30
0.0
  9
$PLIMCHECK
 70
     0
  9
$PEXTMIN
 10
1.0000000000E+20
 20
1.0000000000E+20
 30
1.0000000000E+20
  9
$PEXTMAX
 10
-1.0000000000E+20
 20
-1.0000000000E+20
 30
-1.0000000000E+20
  9
$PLIMMIN
 10
0.0
 20
0.0
  9
$PLIMMAX
 10
12.0
 20
9.0
  9
$UNITMODE
 70
     0
  9
$VISRETAIN
 70
     1
  9
$PLINEGEN
 70
     0
  9
$PSLTSCALE
 70
     1
  9
$TREEDEPTH
 70
  3020
  9
$CMLSTYLE
  2
Standard
  9
$CMLJUST
 70
     0
  9
$CMLSCALE
 40
1.0
  9
$PROXYGRAPHICS
 70
     1
  9
$MEASUREMENT
 70
     0
  9
$CELWEIGHT
370
    -1
  9
$ENDCAPS
280
     0
  9
$JOINSTYLE
280
     0
  9
$LWDISPLAY
290
     1
  9
$INSUNITS
 70
     1
  9
$HYPERLINKBASE
  1

  9
$STYLESHEET
  1

  9
$XEDIT
290
     1
  9
$CEPSNTYPE
380
     0
  9
$PSTYLEMODE
290
     1
  9
$FINGERPRINTGUID
  2
{02ADEE58-8279-4F60-BF1B-630527AAF7D5}
  9
$VERSIONGUID
  2
{FAEB1C32-E019-11D5-929B-00C0DF256EC4}
  9
$EXTNAMES
290
     1
  9
$PSVPSCALE
 40
0.0
  9
$OLESTARTUP
290
     0
  0
ENDSEC
  0
SECTION
  2
CLASSES
  0
CLASS
  1
ACDBDICTIONARYWDFLT
  2
AcDbDictionaryWithDefault
  3
ObjectDBX Classes
 90
        0
280
     0
281
     0
  0
CLASS
  1
VISUALSTYLE
  2
AcDbVisualStyle
  3
ObjectDBX Classes
 90
     4095
280
     0
281
     0
  0
CLASS
  1
MATERIAL
  2
AcDbMaterial
  3
ObjectDBX Classes
 90
     1153
280
     0
281
     0
  0
CLASS
  1
SCALE
  2
AcDbScale
  3
ObjectDBX Classes
 90
     1153
280
     0
281
     0
  0
CLASS
  1
TABLESTYLE
  2
AcDbTableStyle
  3
ObjectDBX Classes
 90
     4095
280
     0
281
     0
  0
CLASS
  1
MLEADERSTYLE
  2
AcDbMLeaderStyle
  3
ACDB_MLEADERSTYLE_CLASS
 90
     4095
280
     0
281
     0
  0
CLASS
  1
SUN
  2
AcDbSun
  3
SCENEOE
 90
     1153
280
     0
281
     0
  0
CLASS
  1
ACDBPLACEHOLDER
  2
AcDbPlaceHolder
  3
ObjectDBX Classes
 90
        0
280
     0
281
     0
  0
CLASS
  1
LAYOUT
  2
AcDbLayout
  3
ObjectDBX Classes
 90
        0
280
     0
281
     0
  0
ENDSEC
  0
SECTION
  2
TABLES
  0
TABLE
  2
VPORT
  5
8
330
0
100
AcDbSymbolTable
 70
     1
  0
VPORT
  5
29
330
8
100
AcDbSymbolTableRecord
100
AcDbViewportTableRecord
  2
*Active
 70
     0
 10
0.0
 20
0.0
 11
1.0
 21
1.0
 12
6.7814991574
 22
4.0207401445
 13
0.0
 23
0.0
 14
0.5
 24
0.5
 15
0.5
 25
0.5
 16
0.0
 26
0.0
 36
1.0
 17
0.0
 27
0.0
 37
0.0
 40
8.2023098948
 41
1.7526865825
 42
50.0
 43
0.0
 44
0.0
 50
0.0
 51
0.0
 71
     0
 72
   100
 73
     1
 74
     3
 75
     0
 76
     0
 77
     0
 78
     0
281
     0
 65
     1
110
0.0
120
0.0
130
0.0
111
1.0
121
0.0
131
0.0
112
0.0
122
1.0
132
0.0
 79
     0
146
0.0
  0
ENDTAB
  0
TABLE
  2
LTYPE
  5
5
330
0
100
AcDbSymbolTable
 70
     6
  0
LTYPE
  5
14
330
5
100
AcDbSymbolTableRecord
100
AcDbLinetypeTableRecord
  2
ByBlock
 70
     0
  3

 72
    65
 73
     0
 40
0.0
  0
LTYPE
  5
15
330
5
100
AcDbSymbolTableRecord
100
AcDbLinetypeTableRecord
  2
ByLayer
 70
     0
  3

 72
    65
 73
     0
 40
0.0
  0
LTYPE
  5
16
330
5
100
AcDbSymbolTableRecord
100
AcDbLinetypeTableRecord
  2
Continuous
 70
     0
  3
Solid line
 72
    65
 73
     0
 40
0.0
  0
LTYPE
  5
6E
330
5
100
AcDbSymbolTableRecord
100
AcDbLinetypeTableRecord
  2
HIDDEN
 70
     0
  3
Hidden __ __ __ __ __ __ __ __ __ __ __ __ __ __
 72
    65
 73
     2
 40
0.075
 49
0.05
 74
     0
 49
-0.025
 74
     0
  0
LTYPE
  5
6F
330
5
100
AcDbSymbolTableRecord
100
AcDbLinetypeTableRecord
  2
PHANTOM
 70
     0
  3
Phantom ______  __  __  ______  __  __  ______
 72
    65
 73
     6
 40
0.5
 49
0.25
 74
     0
 49
-0.05
 74
     0
 49
0.05
 74
     0
 49
-0.05
 74
     0
 49
0.05
 74
     0
 49
-0.05
 74
     0
  0
LTYPE
  5
70
330
5
100
AcDbSymbolTableRecord
100
AcDbLinetypeTableRecord
  2
CENTER
 70
     0
  3
Center ____ _ ____ _ ____ _ ____ _ ____ _ ____
 72
    65
 73
     4
 40
0.4
 49
0.25
 74
     0
 49
-0.05
 74
     0
 49
0.05
 74
     0
 49
-0.05
 74
     0
  0
LTYPE
  5
71
330
5
100
AcDbSymbolTableRecord
100
AcDbLinetypeTableRecord
  2
CENTERX2
 70
     0
  3
Center (2x) ________  __  ________  __  _____
 72
    65
 73
     4
 40
0.8
 49
0.5
 74
     0
 49
-0.1
 74
     0
 49
0.1
 74
     0
 49
-0.1
 74
     0
  0
LTYPE
  5
72
330
5
100
AcDbSymbolTableRecord
100
AcDbLinetypeTableRecord
  2
DOT2
 70
     0
  3
Dot (.5x) ........................................
 72
    65
 73
     2
 40
0.025
 49
0.0
 74
     0
 49
-0.025
 74
     0
  0
ENDTAB
  0
TABLE
  2
LAYER
  5
2
330
0
100
AcDbSymbolTable
 70
     1
  0
LAYER
  5
10
330
2
100
AcDbSymbolTableRecord
100
AcDbLayerTableRecord
  2
0
 70
     0
 62
     7
  6
Continuous
370
    -3
390
F
  0
ENDTAB
  0
TABLE
  2
STYLE
  5
3
330
0
100
AcDbSymbolTable
 70
     2
  0
STYLE
  5
11
330
3
100
AcDbSymbolTableRecord
100
AcDbTextStyleTableRecord
  2
Standard
 70
     0
 40
0.0
 41
1.0
 50
0.0
 71
     0
 42
0.15
  3
txt
  4

  0
STYLE
  5
13B
330
3
100
AcDbSymbolTableRecord
100
AcDbTextStyleTableRecord
  2
SLDTEXTSTYLE0
 70
     0
 40
0.0
 41
0.7
 50
0.0
 71
     0
 42
0.15
  3
TXT
  4

  0
ENDTAB
  0
TABLE
  2
VIEW
  5
6
330
0
100
AcDbSymbolTable
 70
     0
  0
ENDTAB
  0
TABLE
  2
UCS
  5
7
330
0
100
AcDbSymbolTable
 70
     0
  0
ENDTAB
  0
TABLE
  2
APPID
  5
9
330
0
100
AcDbSymbolTable
 70
     1
  0
APPID
  5
12
330
9
100
AcDbSymbolTableRecord
100
AcDbRegAppTableRecord
  2
ACAD
 70
     0
  0
ENDTAB
  0
TABLE
  2
DIMSTYLE
  5
A
330
0
100
AcDbSymbolTable
 70
     1
100
AcDbDimStyleTable
  0
DIMSTYLE
105
27
330
A
100
AcDbSymbolTableRecord
100
AcDbDimStyleTableRecord
  2
Standard
 70
     0
178
     0
340
11
  0
ENDTAB
  0
TABLE
  2
BLOCK_RECORD
  5
1
330
0
100
AcDbSymbolTable
 70
     1
  0
BLOCK_RECORD
  5
1F
330
1
100
AcDbSymbolTableRecord
100
AcDbBlockTableRecord
  2
*Model_Space
340
22
  0
BLOCK_RECORD
  5
1B
330
1
100
AcDbSymbolTableRecord
100
AcDbBlockTableRecord
  2
*Paper_Space
340
1E
  0
BLOCK_RECORD
  5
23
330
1
100
AcDbSymbolTableRecord
100
AcDbBlockTableRecord
  2
*Paper_Space0
340
26
  0
ENDTAB
  0
ENDSEC
  0
SECTION
  2
BLOCKS
  0
BLOCK
  5
20
330
1F
100
AcDbEntity
  8
0
100
AcDbBlockBegin
  2
*Model_Space
 70
     0
 10
0.0
 20
0.0
 30
0.0
  3
*Model_Space
  1

  0
ENDBLK
  5
21
330
1F
100
AcDbEntity
  8
0
100
AcDbBlockEnd
  0
BLOCK
  5
1C
330
1B
100
AcDbEntity
 67
     1
  8
0
100
AcDbBlockBegin
  2
*Paper_Space
 70
     0
 10
0.0
 20
0.0
 30
0.0
  3
*Paper_Space
  1

  0
ENDBLK
  5
1D
330
1B
100
AcDbEntity
 67
     1
  8
0
100
AcDbBlockEnd
  0
BLOCK
  5
24
330
23
100
AcDbEntity
  8
0
100
AcDbBlockBegin
  2
*Paper_Space0
 70
     0
 10
0.0
 20
0.0
 30
0.0
  3
*Paper_Space0
  1

  0
ENDBLK
  5
25
330
23
100
AcDbEntity
  8
0
100
AcDbBlockEnd
  0
ENDSEC
  0
SECTION
  2
ENTITIES
  0
SPLINE
  5
79
330
1F
100
AcDbEntity
  8
0
  6
Continuous
 62
     7
370
    35
100
AcDbSpline
210
0.0
220
0.0
230
1.0
 70
     8
 71
     3
 72
    23
 73
    19
 74
     0
 42
0.000000001
 43
0.00000001
 40
0.0
 40
0.0
 40
0.0
 40
0.0
 40
0.0673762427992722
 40
0.1318365787763092
 40
0.1944610676015766
 40
0.2553459677434155
 40
0.3155883400136069
 40
0.3756274517721975
 40
0.4361378520525359
 40
0.4977786195747119
 40
0.5594703610940558
 40
0.6202777696791107
 40
0.6807876889604219
 40
0.741491621591654
 40
0.8032154362531878
 40
0.866492762748931
 40
0.9319104429113602
 40
1.0
 40
1.0
 40
1.0
 40
1.0
 10
11.92759438724006
 20
0.2464667878053702
 30
0.0
 10
11.92502445558857
 20
0.2465323004883259
 30
0.0
 10
11.91999581370317
 20
0.246660490598497
 30
0.0
 10
11.91262647013383
 20
0.2476102925226209
 30
0.0
 10
11.90562579156111
 20
0.2492026187160638
 30
0.0
 10
11.89897674664456
 20
0.2514546071527197
 30
0.0
 10
11.89268144962572
 20
0.2543314168388746
 30
0.0
 10
11.88674151103356
 20
0.257858250430245
 30
0.0
 10
11.88116650472856
 20
0.26202573768606
 30
0.0
 10
11.87600146578823
 20
0.2667850316096053
 30
0.0
 10
11.87132944225227
 20
0.2720412722084016
 30
0.0
 10
11.86719991449381
 20
0.2776850326127247
 30
0.0
 10
11.86378396897626
 20
0.2837440498371058
 30
0.0
 10
11.86094763580772
 20
0.2901288128420961
 30
0.0
 10
11.85872966057276
 20
0.2968684577813208
 30
0.0
 10
11.85716858201553
 20
0.303970274898035
 30
0.0
 10
11.85620587626218
 20
0.3114274069486931
 30
0.0
 10
11.85610055488461
 20
0.3165208000392847
 30
0.0
 10
11.85604684029881
 20
0.3191184635574397
 30
0.0
  0
SPLINE
  5
7A
330
1F
100
AcDbEntity
  8
0
  6
Continuous
 62
     7
370
    35
100
AcDbSpline
210
0.0
220
0.0
230
1.0
 70
     8
 71
     3
 72
    23
 73
    19
 74
     0
 42
0.000000001
 43
0.00000001
 40
0.0
 40
0.0
 40
0.0
 40
0.0
 40
0.0777829363133479
 40
0.1518156572690966
 40
0.2225398385800499
 40
0.2902775346822808
 40
0.3546406074863679
 40
0.4157977534850211
 40
0.4747090076698716
 40
0.5304260996200478
 40
0.5855797458252717
 40
0.6409061648040222
 40
0.6979010906656786
 40
0.7554203208806115
 40
0.8145212584872801
 40
0.8744618312158964
 40
0.9366697167404097
 40
1.0
 40
1.0
 40
1.0
 40
1.0
 10
11.98622362709469
 20
0.2727726567231976
 30
0.0
 10
11.98498761917055
 20
0.2715793298762361
 30
0.0
 10
11.98257519603141
 20
0.2692502110720991
 30
0.0
 10
11.97893612269752
 20
0.2659430797101803
 30
0.0
 10
11.97530162928136
 20
0.2629712545421306
 30
0.0
 10
11.97175951757234
 20
0.260226871339056
 30
0.0
 10
11.96825176408636
 20
0.2577898806491688
 30
0.0
 10
11.96477874081486
 20
0.2556578486209125
 30
0.0
 10
11.96137976389942
 20
0.253776853080298
 30
0.0
 10
11.95798425249536
 20
0.2521786160944614
 30
0.0
 10
11.95457107797825
 20
0.2508215469011973
 30
0.0
 10
11.9510593225027
 20
0.249653199398803
 30
0.0
 10
11.94743825030182
 20
0.2486648194430044
 30
0.0
 10
11.94368574551893
 20
0.2478673266249581
 30
0.0
 10
11.93983680923206
 20
0.2472278450463251
 30
0.0
 10
11.93585542051149
 20
0.2467961986795219
 30
0.0
 10
11.93176682332784
 20
0.2465060171881303
 30
0.0
 10
11.9289934645156
 20
0.2464799419764106
 30
0.0
 10
11.92759438724006
 20
0.2464667878053702
 30
0.0
  0
SPLINE
  5
7C
330
1F
100
AcDbEntity
  8
0
  6
Continuous
 62
     7
370
    35
100
AcDbSpline
210
0.0
220
0.0
230
1.0
 70
     8
 71
     3
 72
    19
 73
    15
 74
     0
 42
0.000000001
 43
0.00000001
 40
0.0
 40
0.0
 40
0.0
 40
0.0
 40
0.1170484290483548
 40
0.2299697259035159
 40
0.3407035076587588
 40
0.4493551469115455
 40
0.5055565115208359
 40
0.5653026697757583
 40
0.6282049564765909
 40
0.6947289918311425
 40
0.7650188336519165
 40
0.8395802021957183
 40
0.9177497995909595
 40
0.9999999999999999
 40
0.9999999999999999
 40
0.9999999999999999
 40
0.9999999999999999
 10
11.92748397435897
 20
0.2711992731677771
 30
0.0
 10
11.92932711675794
 20
0.2712525866270019
 30
0.0
 10
11.93294841228269
 20
0.2713573337107918
 30
0.0
 10
11.93826318416133
 20
0.2721764410736006
 30
0.0
 10
11.94332763228043
 20
0.2735238263325706
 30
0.0
 10
11.94737410209276
 20
0.2751150100322684
 30
0.0
 10
11.95054440430821
 20
0.2766863245928698
 30
0.0
 10
11.95295790851796
 20
0.2781397131825297
 30
0.0
 10
11.95545365997867
 20
0.2797654878932789
 30
0.0
 10
11.95799020639292
 20
0.2816250072233017
 30
0.0
 10
11.96059607887608
 20
0.2836959561949804
 30
0.0
 10
11.96322527777014
 20
0.2860236924548633
 30
0.0
 10
11.96594511103372
 20
0.2885315669871022
 30
0.0
 10
11.96772684684444
 20
0.2903214863087284
 30
0.0
 10
11.96864037578235
 20
0.2912392110841914
 30
0.0
  0
SPLINE
  5
7D
330
1F
100
AcDbEntity
  8
0
  6
Continuous
 62
     7
370
    35
100
AcDbSpline
210
0.0
220
0.0
230
1.0
 70
     8
 71
     3
 72
    31
 73
    27
 74
     0
 42
0.000000001
 43
0.00000001
 40
0.0
 40
0.0
 40
0.0
 40
0.0
 40
0.0459858533955711
 40
0.090639061864395
 40
0.1344852733868704
 40
0.1773313561259416
 40
0.2192648329782459
 40
0.2607850023581432
 40
0.3023165723378452
 40
0.3434357294037458
 40
0.3841814737656288
 40
0.4243757389977367
 40
0.4641811219517799
 40
0.5040119825276124
 40
0.5438224623104119
 40
0.5838024645760226
 40
0.6244185350988759
 40
0.6655475595785303
 40
0.7066749396536308
 40
0.7478269788975618
 40
0.7888951165570375
 40
0.8302193579728199
 40
0.8717069369478575
 40
0.9137338536047337
 40
0.9565878279841996
 40
1.0
 40
1.0
 40
1.0
 40
1.0
 10
11.88077932566122
 20
0.3191736699979808
 30
0.0
 10
11.88079260541407
 20
0.318022949845809
 30
0.0
 10
11.88081878007979
 20
0.3157548567832723
 30
0.0
 10
11.88110530808435
 20
0.3123997176566903
 30
0.0
 10
11.88156668573522
 20
0.3091444395116061
 30
0.0
 10
11.88223441350478
 20
0.3059939532268811
 30
0.0
 10
11.88306941364466
 20
0.302945528562842
 30
0.0
 10
11.88404905893717
 20
0.2999728669150562
 30
0.0
 10
11.88527800954596
 20
0.2971170437741391
 30
0.0
 10
11.88664216326443
 20
0.2943448906081606
 30
0.0
 10
11.88822865831878
 20
0.2917320490863387
 30
0.0
 10
11.88993919265681
 20
0.2892404878485204
 30
0.0
 10
11.89179398787281
 20
0.2868824202797965
 30
0.0
 10
11.89380505758525
 20
0.284667486232409
 30
0.0
 10
11.89600070509747
 20
0.2826303001650109
 30
0.0
 10
11.89832418104525
 20
0.2807096014685835
 30
0.0
 10
11.90081467925271
 20
0.2789534717372404
 30
0.0
 10
11.90342046576059
 20
0.2773178389616331
 30
0.0
 10
11.90616405127136
 20
0.275896950853906
 30
0.0
 10
11.90897099594903
 20
0.2746099007341655
 30
0.0
 10
11.91188385873225
 20
0.2735646246802705
 30
0.0
 10
11.91486717376709
 20
0.272722036821955
 30
0.0
 10
11.9179102797371
 20
0.2720055416876903
 30
0.0
 10
11.92104294104495
 20
0.2715643736137969
 30
0.0
 10
11.92423800144023
 20
0.2712302821950565
 30
0.0
 10
11.92639732597832
 20
0.2712096540027756
 30
0.0
 10
11.92748397435897
 20
0.2711992731677771
 30
0.0
  0
SPLINE
  5
7E
330
1F
100
AcDbEntity
  8
0
  6
Continuous
 62
     7
370
    35
100
AcDbSpline
210
0.0
220
0.0
230
1.0
 70
     8
 71
     3
 72
    23
 73
    19
 74
     0
 42
0.000000001
 43
0.00000001
 40
0.0
 40
0.0
 40
0.0
 40
0.0
 40
0.0647145165408325
 40
0.1277069683294469
 40
0.188882162817109
 40
0.2491582987223058
 40
0.3096610287488754
 40
0.3702248860571882
 40
0.4323322219725773
 40
0.4957818589938762
 40
0.5593040765204147
 40
0.6218605583615159
 40
0.6833215373325011
 40
0.7445229747823274
 40
0.8060883712105076
 40
0.8689943146702034
 40
0.9334190568081348
 40
1.0
 40
1.0
 40
1.0
 40
1.0
 10
11.92701471961437
 20
0.3665960024227738
 30
0.0
 10
11.92542097436943
 20
0.3665518812946404
 30
0.0
 10
11.92227589372291
 20
0.366464813109411
 30
0.0
 10
11.91765809116557
 20
0.365826517433727
 30
0.0
 10
11.91324092436669
 20
0.36474106785909
 30
0.0
 10
11.90900927266432
 20
0.363245117278673
 30
0.0
 10
11.90497558787531
 20
0.3613094366257746
 30
0.0
 10
11.90113141287819
 20
0.358935524066854
 30
0.0
 10
11.89748622532697
 20
0.356144819408558
 30
0.0
 10
11.8940881760376
 20
0.3529517618851624
 30
0.0
 10
11.89097975996765
 20
0.3494631065926181
 30
0.0
 10
11.88823327644585
 20
0.3457407197177935
 30
0.0
 10
11.88593265593464
 20
0.3417931290409371
 30
0.0
 10
11.88404457410307
 20
0.3376603128586517
 30
0.0
 10
11.88257383134258
 20
0.3333231424520049
 30
0.0
 10
11.88152353623055
 20
0.3287845377758945
 30
0.0
 10
11.88091607360655
 20
0.3240390937028945
 30
0.0
 10
11.88082540573884
 20
0.3208131761817998
 30
0.0
 10
11.88077932566122
 20
0.3191736699979808
 30
0.0
  0
SPLINE
  5
7F
330
1F
100
AcDbEntity
  8
0
  6
Continuous
 62
     7
370
    35
100
AcDbSpline
210
0.0
220
0.0
230
1.0
 70
     8
 71
     3
 72
    15
 73
    11
 74
     0
 42
0.000000001
 43
0.00000001
 40
0.0
 40
0.0
 40
0.0
 40
0.0
 40
0.1394064381817168
 40
0.2723044483741641
 40
0.3995253362717534
 40
0.5228108782578277
 40
0.6426627165918628
 40
0.7610226208094819
 40
0.8798007967837728
 40
1.0
 40
1.0
 40
1.0
 40
1.0
 10
11.96864037578235
 20
0.3465560645063595
 30
0.0
 10
11.96710199055824
 20
0.3481467574064752
 30
0.0
 10
11.96409704225526
 20
0.3512538789881491
 30
0.0
 10
11.95925493969756
 20
0.355367434141151
 30
0.0
 10
11.95421932934061
 20
0.3587955257766771
 30
0.0
 10
11.94908816893251
 20
0.361682642726342
 30
0.0
 10
11.94376916377209
 20
0.363866952463298
 30
0.0
 10
11.93832381604328
 20
0.3654586957617001
 30
0.0
 10
11.93271735559908
 20
0.3664291214873582
 30
0.0
 10
11.92892311881179
 20
0.366540155364665
 30
0.0
 10
11.92701471961437
 20
0.3665960024227738
 30
0.0
  0
SPLINE
  5
81
330
1F
100
AcDbEntity
  8
0
  6
Continuous
 62
     7
370
    35
100
AcDbSpline
210
0.0
220
0.0
230
1.0
 70
     8
 71
     3
 72
    23
 73
    19
 74
     0
 42
0.000000001
 43
0.00000001
 40
0.0
 40
0.0
 40
0.0
 40
0.0
 40
0.0622757783707681
 40
0.1239040620075137
 40
0.1850672407687221
 40
0.2468401515201983
 40
0.3084353298497682
 40
0.370241250709097
 40
0.432586588879857
 40
0.4959245816612444
 40
0.5593510709509417
 40
0.6219426542010924
 40
0.6843928672352002
 40
0.7469858082645403
 40
0.8094414645317045
 40
0.8725078327139338
 40
0.9357692970662361
 40
1.0
 40
1.0
 40
1.0
 40
1.0
 10
11.92798083232385
 20
0.3913284877851806
 30
0.0
 10
11.92937089067954
 20
0.3913076650278526
 30
0.0
 10
11.93213655465361
 20
0.3912662360119076
 30
0.0
 10
11.93625509240851
 20
0.3909208800873042
 30
0.0
 10
11.94034069202666
 20
0.3903785021010996
 30
0.0
 10
11.94437872580772
 20
0.3895601692243009
 30
0.0
 10
11.94839807789722
 20
0.3885887046871602
 30
0.0
 10
11.95234592950478
 20
0.3873167058773655
 30
0.0
 10
11.95628456012426
 20
0.3858988234943353
 30
0.0
 10
11.96015219818361
 20
0.3842040346197044
 30
0.0
 10
11.96395424233849
 20
0.3823540194752468
 30
0.0
 10
11.96760162371625
 20
0.3802551101090046
 30
0.0
 10
11.97115558151298
 20
0.3780364710594317
 30
0.0
 10
11.97453736215766
 20
0.375566793546652
 30
0.0
 10
11.9778103136838
 20
0.3729356573660332
 30
0.0
 10
11.98095732154159
 20
0.3701307867900125
 30
0.0
 10
11.98395076889694
 20
0.3671054163913703
 30
0.0
 10
11.98582929024747
 20
0.3649678136144239
 30
0.0
 10
11.9867756915001
 20
0.3638908868362609
 30
0.0
  0
SPLINE
  5
82
330
1F
100
AcDbEntity
  8
0
  6
Continuous
 62
     7
370
    35
100
AcDbSpline
210
0.0
220
0.0
230
1.0
 70
     8
 71
     3
 72
    31
 73
    27
 74
     0
 42
0.000000001
 43
0.00000001
 40
0.0
 40
0.0
 40
0.0
 40
0.0
 40
0.044663330906371
 40
0.0885118057801455
 40
0.1309255913017757
 40
0.1729040372808874
 40
0.2140001199049661
 40
0.2549850203589847
 40
0.2952912763870624
 40
0.3357724419527847
 40
0.3761808205537684
 40
0.4161784084745259
 40
0.4563500514444801
 40
0.4965121666444167
 40
0.5370405736377815
 40
0.5781187440077558
 40
0.6197245605548133
 40
0.6624219701988916
 40
0.7052989535209014
 40
0.747430000533917
 40
0.7894329840393776
 40
0.8312674212030533
 40
0.8728250959642377
 40
0.914870110484398
 40
0.9570270028395036
 40
1.0
 40
1.0
 40
1.0
 40
1.0
 10
11.85604684029881
 20
0.3191184635574397
 30
0.0
 10
11.85606953747944
 20
0.3208126375411192
 30
0.0
 10
11.85611451774407
 20
0.3241700763070635
 30
0.0
 10
11.856587264491
 20
0.329115855619871
 30
0.0
 10
11.85724630094508
 20
0.3339371057850636
 30
0.0
 10
11.8582918023527
 20
0.3385837662498614
 30
0.0
 10
11.85955205118339
 20
0.3431184361006639
 30
0.0
 10
11.86111933618216
 20
0.3474918287720882
 30
0.0
 10
11.86299115417831
 20
0.3517165138350511
 30
0.0
 10
11.86510717206995
 20
0.3557995636662428
 30
0.0
 10
11.86750100194024
 20
0.3597142299144072
 30
0.0
 10
11.87017517269883
 20
0.3634268794269342
 30
0.0
 10
11.87306084076254
 20
0.3669661731745382
 30
0.0
 10
11.87622734403381
 20
0.3702851558554208
 30
0.0
 10
11.87962866907137
 20
0.3734129687827514
 30
0.0
 10
11.8832801724679
 20
0.3763326617390849
 30
0.0
 10
11.88715989225447
 20
0.3790861064153449
 30
0.0
 10
11.89127832938991
 20
0.3816022981561619
 30
0.0
 10
11.89555547361461
 20
0.3838783273265521
 30
0.0
 10
11.89993737888412
 20
0.3858858822619834
 30
0.0
 10
11.90441327936558
 20
0.3875637358818207
 30
0.0
 10
11.90896425054627
 20
0.3889554535667946
 30
0.0
 10
11.91360952022108
 20
0.3899942724127684
 30
0.0
 10
11.91831593163728
 20
0.3907806247664915
 30
0.0
 10
11.92312353070449
 20
0.3912202007598629
 30
0.0
 10
11.92635141698347
 20
0.3912921621554291
 30
0.0
 10
11.92798083232385
 20
0.3913284877851806
 30
0.0
  0
SPLINE
  5
83
330
1F
100
AcDbEntity
  8
0
  6
Continuous
 62
     7
370
    35
100
AcDbSpline
210
0.0
220
0.0
230
1.0
 70
     8
 71
     3
 72
    19
 73
    15
 74
     0
 42
0.000000001
 43
0.00000001
 40
0.0
 40
0.0
 40
0.0
 40
0.0
 40
0.1121245812797271
 40
0.2152010090762343
 40
0.3099024524934682
 40
0.3959590963320843
 40
0.4734474940003163
 40
0.5421403275660289
 40
0.6025233330554016
 40
0.6547263328340125
 40
0.7478040553141033
 40
0.8352784168250081
 40
0.9189252427194486
 40
1.0
 40
1.0
 40
1.0
 40
1.0
 10
12.04269981576822
 20
0.3080219690086815
 30
0.0
 10
12.04094591472887
 20
0.3095059374734105
 30
0.0
 10
12.03757964776778
 20
0.3123541221212552
 30
0.0
 10
12.03282268546721
 20
0.3165608011839419
 30
0.0
 10
12.02853623650179
 20
0.3204923282225522
 30
0.0
 10
12.02475732324815
 20
0.3241973055057352
 30
0.0
 10
12.02143779650546
 20
0.3276073106889298
 30
0.0
 10
12.01860013755115
 20
0.3307500411386932
 30
0.0
 10
12.01627551935918
 20
0.3336497387220343
 30
0.0
 10
12.01382935996341
 20
0.3370842364662742
 30
0.0
 10
12.01150501945986
 20
0.3412694079568411
 30
0.0
 10
12.00949612967305
 20
0.346304654430408
 30
0.0
 10
12.00819284676865
 20
0.3513392620058612
 30
0.0
 10
12.00804683204557
 20
0.3547192202300482
 30
0.0
 10
12.00797496466788
 20
0.3563828109226727
 30
0.0
  0
SPLINE
  5
84
330
1F
100
AcDbEntity
  8
0
  6
Continuous
 62
     7
370
    35
100
AcDbSpline
210
0.0
220
0.0
230
1.0
 70
     8
 71
     3
 72
    19
 73
    15
 74
     0
 42
0.000000001
 43
0.00000001
 40
0.0
 40
0.0
 40
0.0
 40
0.0
 40
0.0763466063531691
 40
0.1550908218146702
 40
0.2383515612585559
 40
0.328404139932978
 40
0.3793838595513654
 40
0.4396176441748176
 40
0.5098314158312993
 40
0.5888746449969539
 40
0.6774363544094311
 40
0.775546719619664
 40
0.8826358717258247
 40
1.0
 40
1.0
 40
1.0
 40
1.0
 10
12.06097314758732
 20
0.2842555963557439
 30
0.0
 10
12.06092777592219
 20
0.2850418862495878
 30
0.0
 10
12.0608356077281
 20
0.286639158893989
 30
0.0
 10
12.06015672521477
 20
0.2890140464721592
 30
0.0
 10
12.05909542477776
 20
0.2913878540004418
 30
0.0
 10
12.0578398315203
 20
0.2933349151572864
 30
0.0
 10
12.0565621081597
 20
0.2949651366839536
 30
0.0
 10
12.05534031643578
 20
0.2963776498926786
 30
0.0
 10
12.05385249731896
 20
0.2979382297028451
 30
0.0
 10
12.05210242326227
 20
0.2996488392055005
 30
0.0
 10
12.05011321731037
 20
0.3015245373289612
 30
0.0
 10
12.04788320381505
 20
0.3035651403974589
 30
0.0
 10
12.04538684676269
 20
0.3057526731385105
 30
0.0
 10
12.04362241667247
 20
0.3072427988293536
 30
0.0
 10
12.04269981576822
 20
0.3080219690086815
 30
0.0
  0
SPLINE
  5
85
330
1F
100
AcDbEntity
  8
0
  6
Continuous
 62
     7
370
    35
100
AcDbSpline
210
0.0
220
0.0
230
1.0
 70
     8
 71
     3
 72
    15
 73
    11
 74
     0
 42
0.000000001
 43
0.00000001
 40
0.0
 40
0.0
 40
0.0
 40
0.0
 40
0.1419858925296319
 40
0.2754733105502319
 40
0.4043458426631297
 40
0.5354297108606354
 40
0.6614274010622443
 40
0.777866840462744
 40
0.8882797492818411
 40
1.0
 40
1.0
 40
1.0
 40
1.0
 10
12.04523931203311
 20
0.2711992731677771
 30
0.0
 10
12.04631171403873
 20
0.2712426438614233
 30
0.0
 10
12.04839233011589
 20
0.271326789323671
 30
0.0
 10
12.05136214332033
 20
0.2721040155886988
 30
0.0
 10
12.05408498051509
 20
0.2733243178423954
 30
0.0
 10
12.0564385808766
 20
0.2750655208825594
 30
0.0
 10
12.05843146126891
 20
0.2770751338339175
 30
0.0
 10
12.05990232138997
 20
0.2793109201301407
 30
0.0
 10
12.06082632563881
 20
0.281729986932741
 30
0.0
 10
12.06092401529035
 20
0.2834104298566563
 30
0.0
 10
12.06097314758732
 20
0.2842555963557439
 30
0.0
  0
SPLINE
  5
86
330
1F
100
AcDbEntity
  8
0
  6
Continuous
 62
     7
370
    35
100
AcDbSpline
210
0.0
220
0.0
230
1.0
 70
     8
 71
     3
 72
    15
 73
    11
 74
     0
 42
0.000000001
 43
0.00000001
 40
0.0
 40
0.0
 40
0.0
 40
0.0
 40
0.1604579205559218
 40
0.3076115473748288
 40
0.4421388877557461
 40
0.5662291941703148
 40
0.6812222080152287
 40
0.7895580052435845
 40
0.8950288924050953
 40
1.0
 40
1.0
 40
1.0
 40
1.0
 10
12.02265987785181
 20
0.2888653341409243
 30
0.0
 10
12.02346298063265
 20
0.2874693493458638
 30
0.0
 10
12.02500259730137
 20
0.2847931271847355
 30
0.0
 10
12.02761162168078
 20
0.2811972835220746
 30
0.0
 10
12.03028443396287
 20
0.2781180386460826
 30
0.0
 10
12.03308282717275
 20
0.2756098184074592
 30
0.0
 10
12.0359727738961
 20
0.2736390846776374
 30
0.0
 10
12.03896823324712
 20
0.2722306616340639
 30
0.0
 10
12.04207130977789
 20
0.271358849363345
 30
0.0
 10
12.0441849845397
 20
0.2712523809488731
 30
0.0
 10
12.04523931203311
 20
0.2711992731677771
 30
0.0
  0
SPLINE
  5
88
330
1F
100
AcDbEntity
  8
0
  6
Continuous
 62
     7
370
    35
100
AcDbSpline
210
0.0
220
0.0
230
1.0
 70
     8
 71
     3
 72
    23
 73
    19
 74
     0
 42
0.000000001
 43
0.00000001
 40
0.0
 40
0.0
 40
0.0
 40
0.0
 40
0.0635514822357625
 40
0.1258683816453682
 40
0.1862402502136788
 40
0.2449766506319478
 40
0.3033576876770548
 40
0.3612303170407841
 40
0.4184890490283365
 40
0.4759367117285627
 40
0.5342037438191164
 40
0.5940594289675243
 40
0.6554686942598784
 40
0.718771684899885
 40
0.7849746072190612
 40
0.8535223163766997
 40
0.9251824507719443
 40
1.0
 40
1.0
 40
1.0
 40
1.0
 10
12.04432840576418
 20
0.2464667878053702
 30
0.0
 10
12.04314989167878
 20
0.2464876954303476
 30
0.0
 10
12.04081575791106
 20
0.2465291045183406
 30
0.0
 10
12.03737559761728
 20
0.2468671752548744
 30
0.0
 10
12.03405373396491
 20
0.2474127854540966
 30
0.0
 10
12.03085390873657
 20
0.2481948078573288
 30
0.0
 10
12.02776170615461
 20
0.2491857363065476
 30
0.0
 10
12.02477699922658
 20
0.250396117446794
 30
0.0
 10
12.0219203923754
 20
0.2518447117323926
 30
0.0
 10
12.01917027115936
 20
0.2535017303052789
 30
0.0
 10
12.01654000456132
 20
0.2554257471372872
 30
0.0
 10
12.01399633389471
 20
0.2575774263339342
 30
0.0
 10
12.01156452531177
 20
0.2599898616838231
 30
0.0
 10
12.00923289932895
 20
0.2626573478706305
 30
0.0
 10
12.00701637433934
 20
0.2655874385745099
 30
0.0
 10
12.00484239552654
 20
0.2687393268599693
 30
0.0
 10
12.00280758105067
 20
0.2721715074945348
 30
0.0
 10
12.00155058563413
 20
0.2745792099736901
 30
0.0
 10
12.00090854027862
 20
0.2758090109529575
 30
0.0
  0
SPLINE
  5
89
330
1F
100
AcDbEntity
  8
0
  6
Continuous
 62
     7
370
    35
100
AcDbSpline
210
0.0
220
0.0
230
1.0
 70
     8
 71
     3
 72
    23
 73
    19
 74
     0
 42
0.000000001
 43
0.00000001
 40
0.0
 40
0.0
 40
0.0
 40
0.0
 40
0.0652008752881552
 40
0.1279265440230307
 40
0.1890469100189649
 40
0.2485436930694558
 40
0.3076071270223392
 40
0.3672476600602185
 40
0.4269630557213201
 40
0.4886171282353827
 40
0.5503918546271303
 40
0.6113307342255673
 40
0.6725560854310768
 40
0.7340241906291856
 40
0.7973406208369475
 40
0.8622496273165848
 40
0.9296254660747004
 40
1.0
 40
1.0
 40
1.0
 40
1.0
 10
12.08570563294973
 20
0.2856909638098122
 30
0.0
 10
12.08568096739055
 20
0.2842992936750338
 30
0.0
 10
12.08563257264541
 20
0.2815687850741078
 30
0.0
 10
12.08503982982419
 20
0.2775730924617523
 30
0.0
 10
12.0841946133513
 20
0.2737490412166043
 30
0.0
 10
12.08288776040735
 20
0.2701382424221259
 30
0.0
 10
12.08129497577859
 20
0.2666814259166478
 30
0.0
 10
12.07929819020378
 20
0.2634324379098563
 30
0.0
 10
12.07695323934479
 20
0.2603583973150342
 30
0.0
 10
12.07426556561066
 20
0.2575142563668161
 30
0.0
 10
12.07129267931418
 20
0.2549333955900128
 30
0.0
 10
12.06810397622312
 20
0.2526358523685766
 30
0.0
 10
12.06466827559365
 20
0.2507389377862795
 30
0.0
 10
12.06101493151051
 20
0.2491769639328486
 30
0.0
 10
12.05714589952596
 20
0.2479739107855893
 30
0.0
 10
12.0530657888234
 20
0.2470847423860998
 30
0.0
 10
12.0487683585952
 20
0.2465510775288837
 30
0.0
 10
12.04582971387875
 20
0.2464952891995743
 30
0.0
 10
12.04432840576418
 20
0.2464667878053702
 30
0.0
  0
SPLINE
  5
8A
330
1F
100
AcDbEntity
  8
0
  6
Continuous
 62
     7
370
    35
100
AcDbSpline
210
0.0
220
0.0
230
1.0
 70
     8
 71
     3
 72
    15
 73
    11
 74
     0
 42
0.000000001
 43
0.00000001
 40
0.0
 40
0.0
 40
0.0
 40
0.0
 40
0.1508330973407738
 40
0.2899541833158775
 40
0.4171386481520581
 40
0.5352551839062701
 40
0.6487510952936701
 40
0.7624054615861273
 40
0.8798267012501055
 40
1.0
 40
1.0
 40
1.0
 40
1.0
 10
12.07146237129013
 20
0.3172966510195839
 30
0.0
 10
12.07267889036405
 20
0.315980116841563
 30
0.0
 10
12.07501746724661
 20
0.3134492758051762
 30
0.0
 10
12.07805679279132
 20
0.3095272681317706
 30
0.0
 10
12.08055825602686
 20
0.3056985889291067
 30
0.0
 10
12.08249343542139
 20
0.3018911953871594
 30
0.0
 10
12.08395496073357
 20
0.2980501543952044
 30
0.0
 10
12.08498535543958
 20
0.2940812646312477
 30
0.0
 10
12.08560246568493
 20
0.2899430536844579
 30
0.0
 10
12.08567097933013
 20
0.2871192298911569
 30
0.0
 10
12.08570563294973
 20
0.2856909638098122
 30
0.0
  0
SPLINE
  5
8B
330
1F
100
AcDbEntity
  8
0
  6
Continuous
 62
     7
370
    35
100
AcDbSpline
210
0.0
220
0.0
230
1.0
 70
     8
 71
     3
 72
    15
 73
    11
 74
     0
 42
0.000000001
 43
0.00000001
 40
0.0
 40
0.0
 40
0.0
 40
0.0
 40
0.1929527021649708
 40
0.3661841413840949
 40
0.5204572982944724
 40
0.6550121351900338
 40
0.7706242255760033
 40
0.865677184679423
 40
0.9426745273199109
 40
1.0
 40
1.0
 40
1.0
 40
1.0
 10
12.05371350065617
 20
0.3331961058954169
 30
0.0
 10
12.05487262075333
 20
0.3321929459178323
 30
0.0
 10
12.05707238988214
 20
0.3302891566941476
 30
0.0
 10
12.06020222451824
 20
0.3275870335630192
 30
0.0
 10
12.06295282789472
 20
0.3251559992684455
 30
0.0
 10
12.06536427002588
 20
0.323032538433255
 30
0.0
 10
12.06739999580121
 20
0.3211943710916373
 30
0.0
 10
12.0690685634186
 20
0.3196327108250007
 30
0.0
 10
12.0703903516027
 20
0.3183779602866441
 30
0.0
 10
12.071141710793
 20
0.3176200901981658
 30
0.0
 10
12.07146237129013
 20
0.3172966510195839
 30
0.0
  0
SPLINE
  5
8C
330
1F
100
AcDbEntity
  8
0
  6
Continuous
 62
     7
370
    35
100
AcDbSpline
210
0.0
220
0.0
230
1.0
 70
     8
 71
     3
 72
    15
 73
    11
 74
     0
 42
0.000000001
 43
0.00000001
 40
0.0
 40
0.0
 40
0.0
 40
0.0
 40
0.059234189122965
 40
0.1363492805279763
 40
0.2338052120617893
 40
0.3494112238569148
 40
0.4831791503492026
 40
0.6359668555591287
 40
0.8092433563676146
 40
0.9999999999999999
 40
0.9999999999999999
 40
0.9999999999999999
 40
0.9999999999999999
 10
12.03499851731274
 20
0.3509725797496467
 30
0.0
 10
12.03531541544709
 20
0.3505725107861725
 30
0.0
 10
12.03604487310084
 20
0.3496516048678358
 30
0.0
 10
12.03743579944465
 20
0.3481930334449111
 30
0.0
 10
12.03918251081461
 20
0.3464061557806352
 30
0.0
 10
12.04135222434002
 20
0.3443524173618399
 30
0.0
 10
12.04385486924756
 20
0.3419579577229899
 30
0.0
 10
12.04680644635926
 20
0.3393169039837917
 30
0.0
 10
12.05012199641433
 20
0.3363474657794488
 30
0.0
 10
12.05247861257875
 20
0.33427965654339
 30
0.0
 10
12.05371350065617
 20
0.3331961058954169
 30
0.0
  0
SPLINE
  5
8D
330
1F
100
AcDbEntity
  8
0
  6
Continuous
 62
     7
370
    35
100
AcDbSpline
210
0.0
220
0.0
230
1.0
 70
     8
 71
     3
 72
    11
 73
     7
 74
     0
 42
0.000000001
 43
0.00000001
 40
0.0
 40
0.0
 40
0.0
 40
0.0
 40
0.2418813747502116
 40
0.4871154746783929
 40
0.737837839646414
 40
1.0
 40
1.0
 40
1.0
 40
1.0
 10
12.03270745003028
 20
0.3575697493943062
 30
0.0
 10
12.03273179243658
 20
0.3569962065774587
 30
0.0
 10
12.03278081466
 20
0.3558411710491318
 30
0.0
 10
12.03325430260726
 20
0.3541483226345666
 30
0.0
 10
12.03396798414192
 20
0.3524942126710955
 30
0.0
 10
12.03464993598548
 20
0.351487277227005
 30
0.0
 10
12.03499851731274
 20
0.3509725797496467
 30
0.0
  0
SPLINE
  5
8E
330
1F
100
AcDbEntity
  8
0
  6
Continuous
 62
     7
370
    35
100
AcDbSpline
210
0.0
220
0.0
230
1.0
 70
     8
 71
     3
 72
    15
 73
    11
 74
     0
 42
0.000000001
 43
0.00000001
 40
0.0
 40
0.0
 40
0.0
 40
0.0
 40
0.1481262583591735
 40
0.2859928874897382
 40
0.4166343935606149
 40
0.5473799458012806
 40
0.6715828376102565
 40
0.7844007386960228
 40
0.8932655763009647
 40
1.0
 40
1.0
 40
1.0
 40
1.0
 10
12.04385915101958
 20
0.3665960024227738
 30
0.0
 10
12.0430741548546
 20
0.366568472662847
 30
0.0
 10
12.04155853350307
 20
0.3665153199293578
 30
0.0
 10
12.03939790282578
 20
0.3659869857201236
 30
0.0
 10
12.03747966413992
 20
0.3650751584627475
 30
0.0
 10
12.03580568956176
 20
0.363882867614888
 30
0.0
 10
12.03447965472115
 20
0.3624464335600017
 30
0.0
 10
12.03342091873207
 20
0.3609399835748286
 30
0.0
 10
12.03282476140545
 20
0.3592772034832262
 30
0.0
 10
12.03274629537163
 20
0.3581351390406653
 30
0.0
 10
12.03270745003028
 20
0.3575697493943062
 30
0.0
  0
SPLINE
  5
8F
330
1F
100
AcDbEntity
  8
0
  6
Continuous
 62
     7
370
    35
100
AcDbSpline
210
0.0
220
0.0
230
1.0
 70
     8
 71
     3
 72
    15
 73
    11
 74
     0
 42
0.000000001
 43
0.00000001
 40
0.0
 40
0.0
 40
0.0
 40
0.0
 40
0.16242030720143
 40
0.3118243397330573
 40
0.4484327667926054
 40
0.5733811968860246
 40
0.689077146873577
 40
0.7975729005013
 40
0.9002930430776451
 40
0.9999999999999999
 40
0.9999999999999999
 40
0.9999999999999999
 40
0.9999999999999999
 10
12.06367826317383
 20
0.3524631536442556
 30
0.0
 10
12.06288605276425
 20
0.3535806487856871
 30
0.0
 10
12.06136511925442
 20
0.3557260836185341
 30
0.0
 10
12.05889984467482
 20
0.3585988714259666
 30
0.0
 10
12.05644570207355
 20
0.361049573216076
 30
0.0
 10
12.05397995531189
 20
0.3630679510887512
 30
0.0
 10
12.05148074894892
 20
0.3646417418969673
 30
0.0
 10
12.04895242124173
 20
0.3657560031745736
 30
0.0
 10
12.04640930598739
 20
0.3664643496429739
 30
0.0
 10
12.04470072510273
 20
0.3665525558209584
 30
0.0
 10
12.04385915101958
 20
0.3665960024227738
 30
0.0
  0
SPLINE
  5
91
330
1F
100
AcDbEntity
  8
0
  6
Continuous
 62
     7
370
    35
100
AcDbSpline
210
0.0
220
0.0
230
1.0
 70
     8
 71
     3
 72
    19
 73
    15
 74
     0
 42
0.000000001
 43
0.00000001
 40
0.0
 40
0.0
 40
0.0
 40
0.0
 40
0.1069102197111692
 40
0.2129765276064806
 40
0.319776675957773
 40
0.4285562728491938
 40
0.485856803278415
 40
0.5465586866406855
 40
0.6114314979175179
 40
0.6798209100724866
 40
0.7531585046908077
 40
0.8307528691562677
 40
0.9131330746556962
 40
1.0
 40
1.0
 40
1.0
 40
1.0
 10
12.04413518322229
 20
0.3913284877851806
 30
0.0
 10
12.04575872190781
 20
0.3912690952810353
 30
0.0
 10
12.04899298363331
 20
0.3911507790963636
 30
0.0
 10
12.05377493287643
 20
0.3902255851949722
 30
0.0
 10
12.0584457409657
 20
0.388770620329398
 30
0.0
 10
12.0622095656597
 20
0.3870153652936164
 30
0.0
 10
12.06520437071292
 20
0.3853150489098948
 30
0.0
 10
12.06749960903313
 20
0.3837496117679846
 30
0.0
 10
12.06983513756829
 20
0.3819563193852863
 30
0.0
 10
12.07222979090726
 20
0.3799295206241691
 30
0.0
 10
12.07463907268295
 20
0.377631027934149
 30
0.0
 10
12.07713149029832
 20
0.3751155587431232
 30
0.0
 10
12.07967308151681
 20
0.3723613735145057
 30
0.0
 10
12.08132471283053
 20
0.3703937963580275
 30
0.0
 10
12.0821724207551
 20
0.3693839276700989
 30
0.0
  0
SPLINE
  5
92
330
1F
100
AcDbEntity
  8
0
  6
Continuous
 62
     7
370
    35
100
AcDbSpline
210
0.0
220
0.0
230
1.0
 70
     8
 71
     3
 72
    23
 73
    19
 74
     0
 42
0.000000001
 43
0.00000001
 40
0.0
 40
0.0
 40
0.0
 40
0.0
 40
0.0631728801065208
 40
0.1244573597769993
 40
0.1848409152554528
 40
0.2445668214643655
 40
0.304319172618656
 40
0.3651997864614235
 40
0.4274209827764609
 40
0.4912616890772893
 40
0.5554990019309983
 40
0.618604518142858
 40
0.6804947639253072
 40
0.7424733052605884
 40
0.8049906647647721
 40
0.8682519711837822
 40
0.932887217265458
 40
1.0
 40
1.0
 40
1.0
 40
1.0
 10
12.00797496466788
 20
0.3563828109226727
 30
0.0
 10
12.00800485421449
 20
0.3575625401502138
 30
0.0
 10
12.00806373983204
 20
0.3598867334537943
 30
0.0
 10
12.00858900862444
 20
0.3633041210616267
 30
0.0
 10
12.00937404284641
 20
0.3666016129628236
 30
0.0
 10
12.01051413791306
 20
0.3697671784046858
 30
0.0
 10
12.01199384364929
 20
0.3727968523890676
 30
0.0
 10
12.0137908887892
 20
0.3757054664452613
 30
0.0
 10
12.01593317803835
 20
0.3784662503464435
 30
0.0
 10
12.01834739339621
 20
0.3810773738875148
 30
0.0
 10
12.02100724061315
 20
0.3834636436599469
 30
0.0
 10
12.02384962538224
 20
0.3855697658384951
 30
0.0
 10
12.02685845955465
 20
0.3873486272551523
 30
0.0
 10
12.03001533660646
 20
0.3888243219680446
 30
0.0
 10
12.0333398183912
 20
0.389953872527265
 30
0.0
 10
12.03680741360387
 20
0.3907545542651214
 30
0.0
 10
12.04042309587611
 20
0.391230774228941
 30
0.0
 10
12.04288240491161
 20
0.3912955108068661
 30
0.0
 10
12.04413518322229
 20
0.3913284877851806
 30
0.0
  0
SPLINE
  5
9F
330
1F
100
AcDbEntity
  8
0
  6
Continuous
 62
     7
370
    35
100
AcDbSpline
210
0.0
220
0.0
230
1.0
 70
     8
 71
     3
 72
    23
 73
    19
 74
     0
 42
0.000000001
 43
0.00000001
 40
0.0
 40
0.0
 40
0.0
 40
0.0
 40
0.0664859378748903
 40
0.1307356009388866
 40
0.1932868395043385
 40
0.2552914267067132
 40
0.316537602895458
 40
0.3788667103911693
 40
0.441877206470666
 40
0.5071174914664562
 40
0.5722713919203458
 40
0.6354271335389683
 40
0.696817252457564
 40
0.757356633381478
 40
0.817265116831883
 40
0.8771342994595164
 40
0.9380198203164543
 40
1.0
 40
1.0
 40
1.0
 40
1.0
 10
12.47281319402382
 20
0.2464667878053702
 30
0.0
 10
12.47132001681779
 20
0.2464972498136989
 30
0.0
 10
12.46838388587674
 20
0.2465571492314088
 30
0.0
 10
12.46408759147966
 20
0.2472278648425315
 30
0.0
 10
12.45996707539368
 20
0.248237533694661
 30
0.0
 10
12.45604549558476
 20
0.2496791692731566
 30
0.0
 10
12.45229846491471
 20
0.251514818724445
 30
0.0
 10
12.4487700979111
 20
0.2537862502953879
 30
0.0
 10
12.44543067297609
 20
0.2564684161762955
 30
0.0
 10
12.44231579325656
 20
0.2595009718676785
 30
0.0
 10
12.43950951876053
 20
0.2628227217089225
 30
0.0
 10
12.43700655645501
 20
0.2662715628821239
 30
0.0
 10
12.43488904711345
 20
0.2698529073845244
 30
0.0
 10
12.43317497266176
 20
0.2735629260739766
 30
0.0
 10
12.43183761202186
 20
0.2773897968089293
 30
0.0
 10
12.43090708178049
 20
0.2813407826806196
 30
0.0
 10
12.43030075545214
 20
0.2854054036990059
 30
0.0
 10
12.43022967752186
 20
0.2881638855317768
 30
0.0
 10
12.43019382192611
 20
0.2895554146476882
 30
0.0
  0
SPLINE
  5
A0
330
1F
100
AcDbEntity
  8
0
  6
Continuous
 62
     7
370
    35
100
AcDbSpline
210
0.0
220
0.0
230
1.0
 70
     8
 71
     3
 72
    23
 73
    19
 74
     0
 42
0.000000001
 43
0.00000001
 40
0.0
 40
0.0
 40
0.0
 40
0.0
 40
0.0656209271532234
 40
0.1297044336027811
 40
0.1920084100512059
 40
0.2531653825181693
 40
0.3145900137962876
 40
0.3765327730011618
 40
0.439286701649034
 40
0.5037985290657724
 40
0.568283999304005
 40
0.6306288907425628
 40
0.6915128396476448
 40
0.751997591162874
 40
0.812376852071392
 40
0.8735768952802322
 40
0.9360266791627453
 40
1.0
 40
1.0
 40
1.0
 40
1.0
 10
12.51499091459721
 20
0.2893621921057944
 30
0.0
 10
12.51495458895724
 20
0.287897284289476
 30
0.0
 10
12.51488278874406
 20
0.2850017897142132
 30
0.0
 10
12.51428926493287
 20
0.2807490445861914
 30
0.0
 10
12.51333009927405
 20
0.2766687843381886
 30
0.0
 10
12.51195925893852
 20
0.2727691577564174
 30
0.0
 10
12.51021681000852
 20
0.2690311033557072
 30
0.0
 10
12.50808591299235
 20
0.2654568146608717
 30
0.0
 10
12.50554889623743
 20
0.2620730011585461
 30
0.0
 10
12.50267130923783
 20
0.258897642809653
 30
0.0
 10
12.4995256102326
 20
0.2560032801984452
 30
0.0
 10
12.49620987214482
 20
0.2534306022612386
 30
0.0
 10
12.49269599782537
 20
0.2513054726763657
 30
0.0
 10
12.48905040361299
 20
0.2495107509226774
 30
0.0
 10
12.48520597188986
 20
0.2481714997038484
 30
0.0
 10
12.48122023475855
 20
0.2471605970376515
 30
0.0
 10
12.47706296722629
 20
0.2465772623129361
 30
0.0
 10
12.47424112053963
 20
0.2465039073106137
 30
0.0
 10
12.47281319402382
 20
0.2464667878053702
 30
0.0
  0
SPLINE
  5
A1
330
1F
100
AcDbEntity
  8
0
  6
Continuous
 62
     7
370
    35
100
AcDbSpline
210
0.0
220
0.0
230
1.0
 70
     8
 71
     3
 72
    23
 73
    19
 74
     0
 42
0.000000001
 43
0.00000001
 40
0.0
 40
0.0
 40
0.0
 40
0.0
 40
0.0633287933600966
 40
0.1247364441626542
 40
0.1849157484558719
 40
0.2443004085890874
 40
0.3038255705820831
 40
0.3643529976730497
 40
0.426073143672396
 40
0.4897209088385848
 40
0.5537559315351933
 40
0.6164580629276154
 40
0.6783188623543014
 40
0.7403009402150765
 40
0.802656264377341
 40
0.8667321228001672
 40
0.9321567378801828
 40
1.0
 40
1.0
 40
1.0
 40
1.0
 10
12.47344806809005
 20
0.3330304865737936
 30
0.0
 10
12.47486684003646
 20
0.3329937538526539
 30
0.0
 10
12.47766134405719
 20
0.3329214027343673
 30
0.0
 10
12.48177288968929
 20
0.3323366488986601
 30
0.0
 10
12.48570360384646
 20
0.3313257497289817
 30
0.0
 10
12.48949311975188
 20
0.3299858056140125
 30
0.0
 10
12.49309511416139
 20
0.3281862473591935
 30
0.0
 10
12.49656759920072
 20
0.3260455789329341
 30
0.0
 10
12.4998207399269
 20
0.3234348035356239
 30
0.0
 10
12.50292912807144
 20
0.3205422029111712
 30
0.0
 10
12.50575556944314
 20
0.3173376171356678
 30
0.0
 10
12.50821083346951
 20
0.3138941879198873
 30
0.0
 10
12.51035055272192
 20
0.3102956943179197
 30
0.0
 10
12.5120138843574
 20
0.3064616292968969
 30
0.0
 10
12.51335558304324
 20
0.3024555468453239
 30
0.0
 10
12.514323677689
 20
0.2982614329277886
 30
0.0
 10
12.51487600277073
 20
0.2938671423165967
 30
0.0
 10
12.51495214999576
 20
0.2908819016505868
 30
0.0
 10
12.51499091459721
 20
0.2893621921057944
 30
0.0
  0
SPLINE
  5
A5
330
1F
100
AcDbEntity
  8
0
  6
Continuous
 62
     7
370
    35
100
AcDbSpline
210
0.0
220
0.0
230
1.0
 70
     8
 71
     3
 72
    19
 73
    15
 74
     0
 42
0.000000001
 43
0.00000001
 40
0.0
 40
0.0
 40
0.0
 40
0.0
 40
0.0925378346593295
 40
0.185590773026735
 40
0.2795524791599466
 40
0.3756022954876749
 40
0.427616715619487
 40
0.4871168707665482
 40
0.5541989278073839
 40
0.6286239860240599
 40
0.7096875605186935
 40
0.7991807418287519
 40
0.8953573266116719
 40
1.0
 40
1.0
 40
1.0
 40
1.0
 10
12.43019382192611
 20
0.2895554146476882
 30
0.0
 10
12.43021276731862
 20
0.2906329911624085
 30
0.0
 10
12.43025076356152
 20
0.2927941424266303
 30
0.0
 10
12.43063260308809
 20
0.2960303490062765
 30
0.0
 10
12.4312131332897
 20
0.2992750503225051
 30
0.0
 10
12.43188604380361
 20
0.3020130320366661
 30
0.0
 10
12.43257893906878
 20
0.3043282821138734
 30
0.0
 10
12.43327634347369
 20
0.3062876156905138
 30
0.0
 10
12.4341406225702
 20
0.3084620475356127
 30
0.0
 10
12.43512862160234
 20
0.3108571302648167
 30
0.0
 10
12.4362714095436
 20
0.3134699826018013
 30
0.0
 10
12.4375630166724
 20
0.3162934825916641
 30
0.0
 10
12.43900665851738
 20
0.319349011897525
 30
0.0
 10
12.44003617398489
 20
0.3214476873989668
 30
0.0
 10
12.44057263274783
 20
0.3225412628709871
 30
0.0
  0
SPLINE
  5
A6
330
1F
100
AcDbEntity
  8
0
  6
Continuous
 62
     7
370
    35
100
AcDbSpline
210
0.0
220
0.0
230
1.0
 70
     8
 71
     3
 72
    15
 73
    11
 74
     0
 42
0.000000001
 43
0.00000001
 40
0.0
 40
0.0
 40
0.0
 40
0.0
 40
0.1103603399844067
 40
0.2211857967812511
 40
0.3343638213726416
 40
0.4529765798274417
 40
0.5772343082003102
 40
0.7088043240433034
 40
0.8493551270704807
 40
1.0
 40
1.0
 40
1.0
 40
1.0
 10
12.68510956112457
 20
0.3153644256006459
 30
0.0
 10
12.6844082783014
 20
0.3153378158123716
 30
0.0
 10
12.68300275707854
 20
0.3152844840881089
 30
0.0
 10
12.68091450431687
 20
0.3148505381108896
 30
0.0
 10
12.67885143008685
 20
0.314148250737214
 30
0.0
 10
12.67680206156021
 20
0.3131793339991295
 30
0.0
 10
12.6747867422806
 20
0.3119113277189154
 30
0.0
 10
12.6727522869701
 20
0.3104241017266606
 30
0.0
 10
12.67076679322582
 20
0.3086095949465986
 30
0.0
 10
12.6695043610725
 20
0.3072581461759378
 30
0.0
 10
12.66885126438522
 20
0.3065589983343426
 30
0.0
  0
SPLINE
  5
A7
330
1F
100
AcDbEntity
  8
0
  6
Continuous
 62
     7
370
    35
100
AcDbSpline
210
0.0
220
0.0
230
1.0
 70
     8
 71
     3
 72
    23
 73
    19
 74
     0
 42
0.000000001
 43
0.00000001
 40
0.0
 40
0.0
 40
0.0
 40
0.0
 40
0.0728906065806545
 40
0.141883335439077
 40
0.2092821354239193
 40
0.2746226384553207
 40
0.3384391539790719
 40
0.4013048615705465
 40
0.4650061847340454
 40
0.5283200864625277
 40
0.5907402649620698
 40
0.6509809274188677
 40
0.7096903202894901
 40
0.7672117550042935
 40
0.824187950544471
 40
0.8817668141839327
 40
0.9399547263813152
 40
1.0
 40
1.0
 40
1.0
 40
1.0
 10
12.70401776700989
 20
0.2935578815869168
 30
0.0
 10
12.70400233868207
 20
0.2943405790568112
 30
0.0
 10
12.70397230706738
 20
0.2958641186852745
 30
0.0
 10
12.70372387955686
 20
0.2981012205853479
 30
0.0
 10
12.70327944752422
 20
0.3002238254247742
 30
0.0
 10
12.70267390506429
 20
0.3022481907752552
 30
0.0
 10
12.70189873842756
 20
0.3041620237083769
 30
0.0
 10
12.70095143297555
 20
0.305976716285069
 30
0.0
 10
12.69982794173062
 20
0.307683095889132
 30
0.0
 10
12.69852223290149
 20
0.3092464223176365
 30
0.0
 10
12.69712983844112
 20
0.3106803497723848
 30
0.0
 10
12.69563395937589
 20
0.311934451302143
 30
0.0
 10
12.69404807277955
 20
0.3129752684936424
 30
0.0
 10
12.69242145812408
 20
0.3138839321868921
 30
0.0
 10
12.69068918680956
 20
0.3145452378165703
 30
0.0
 10
12.68889021065853
 20
0.3150006546063563
 30
0.0
 10
12.68702642153097
 20
0.3153348211244362
 30
0.0
 10
12.68575517141286
 20
0.3153544546323079
 30
0.0
 10
12.68510956112457
 20
0.3153644256006459
 30
0.0
  0
SPLINE
  5
A8
330
1F
100
AcDbEntity
  8
0
  6
Continuous
 62
     7
370
    35
100
AcDbSpline
210
0.0
220
0.0
230
1.0
 70
     8
 71
     3
 72
    23
 73
    19
 74
     0
 42
0.000000001
 43
0.00000001
 40
0.0
 40
0.0
 40
0.0
 40
0.0
 40
0.0611793430880281
 40
0.1203713884445988
 40
0.178441731362244
 40
0.2359341281810919
 40
0.2942679362243873
 40
0.3526542946283566
 40
0.4131221280938463
 40
0.4755857683820229
 40
0.5389001041802205
 40
0.6018690472303304
 40
0.664332687518496
 40
0.727647023316691
 40
0.7924087308653753
 40
0.8591195288732123
 40
0.9281350966840245
 40
1.0
 40
1.0
 40
1.0
 40
1.0
 10
12.68408824197456
 20
0.2711992731677771
 30
0.0
 10
12.6847698290504
 20
0.2712249176297537
 30
0.0
 10
12.68611086310737
 20
0.2712753735408209
 30
0.0
 10
12.68808666473092
 20
0.2715422979744576
 30
0.0
 10
12.68997265418753
 20
0.2720478467986838
 30
0.0
 10
12.69178285335231
 20
0.272747914395343
 30
0.0
 10
12.69352212488613
 20
0.2736209777625493
 30
0.0
 10
12.69516553572288
 20
0.2747231633756327
 30
0.0
 10
12.69674167825461
 20
0.2759918198847742
 30
0.0
 10
12.69822655720175
 20
0.2774476075227519
 30
0.0
 10
12.6995714295281
 20
0.2790704721120293
 30
0.0
 10
12.70075073544517
 20
0.2808143507510609
 30
0.0
 10
12.70180519757083
 20
0.2826404940684012
 30
0.0
 10
12.70258625378849
 20
0.284621240190525
 30
0.0
 10
12.70322587278102
 20
0.2866974433354136
 30
0.0
 10
12.70369691408281
 20
0.2888847649425475
 30
0.0
 10
12.7039784143824
 20
0.2911857596216319
 30
0.0
 10
12.70400447378188
 20
0.2927565841855729
 30
0.0
 10
12.70401776700989
 20
0.2935578815869168
 30
0.0
  0
SPLINE
  5
A9
330
1F
100
AcDbEntity
  8
0
  6
Continuous
 62
     7
370
    35
100
AcDbSpline
210
0.0
220
0.0
230
1.0
 70
     8
 71
     3
 72
    15
 73
    11
 74
     0
 42
0.000000001
 43
0.00000001
 40
0.0
 40
0.0
 40
0.0
 40
0.0
 40
0.1381137870618478
 40
0.2684083835837652
 40
0.3941909055405342
 40
0.5170923452347821
 40
0.6374931640526441
 40
0.7570041724766101
 40
0.8772941249553735
 40
1.0
 40
1.0
 40
1.0
 40
1.0
 10
12.66515243286896
 20
0.2835655158489799
 30
0.0
 10
12.6656691305026
 20
0.2825925854801509
 30
0.0
 10
12.66667327338794
 20
0.2807018063393258
 30
0.0
 10
12.66858337515222
 20
0.2781915129284271
 30
0.0
 10
12.67072161280782
 20
0.2760508425495876
 30
0.0
 10
12.67306869829209
 20
0.2742588803975661
 30
0.0
 10
12.67563983925886
 20
0.2729163728487278
 30
0.0
 10
12.67833026656893
 20
0.271898277229079
 30
0.0
 10
12.68117377892439
 20
0.2713099574796379
 30
0.0
 10
12.68311033638554
 20
0.2712364116750499
 30
0.0
 10
12.68408824197456
 20
0.2711992731677771
 30
0.0
  0
SPLINE
  5
AB
330
1F
100
AcDbEntity
  8
0
  6
Continuous
 62
     7
370
    35
100
AcDbSpline
210
0.0
220
0.0
230
1.0
 70
     8
 71
     3
 72
    23
 73
    19
 74
     0
 42
0.000000001
 43
0.00000001
 40
0.0
 40
0.0
 40
0.0
 40
0.0
 40
0.0659348176256746
 40
0.1300372587941442
 40
0.1923620702496455
 40
0.2538195214289126
 40
0.3141994357375369
 40
0.3746698781567577
 40
0.4351541180379837
 40
0.496478668493969
 40
0.557809266139641
 40
0.6190309229821054
 40
0.6796911875192764
 40
0.7409612864102637
 40
0.8033752905051722
 40
0.8668176884999608
 40
0.9323179771744989
 40
1.0
 40
1.0
 40
1.0
 40
1.0
 10
12.68268047774076
 20
0.2464667878053702
 30
0.0
 10
12.68127169492549
 20
0.2465027938581159
 30
0.0
 10
12.67849328039232
 20
0.2465738053292576
 30
0.0
 10
12.67440079776174
 20
0.2470102792433384
 30
0.0
 10
12.67045519004471
 20
0.2477819692164911
 30
0.0
 10
12.666677404112
 20
0.2488988044189775
 30
0.0
 10
12.66302769133119
 20
0.250273373595607
 30
0.0
 10
12.659548243427
 20
0.2519925321186664
 30
0.0
 10
12.65621994023809
 20
0.2540235448944425
 30
0.0
 10
12.6530522328834
 20
0.2563293458905052
 30
0.0
 10
12.65009659211135
 20
0.2589267412797508
 30
0.0
 10
12.64739899639901
 20
0.2617700380527536
 30
0.0
 10
12.64494311416242
 20
0.26482339784196
 30
0.0
 10
12.64278149742652
 20
0.2681244898238732
 30
0.0
 10
12.64092092222
 20
0.2716684368252695
 30
0.0
 10
12.63927092616605
 20
0.2754134726145004
 30
0.0
 10
12.63792038787333
 20
0.279398707311532
 30
0.0
 10
12.63723502858405
 20
0.2821614934201703
 30
0.0
 10
12.63688673531193
 20
0.2835655158489799
 30
0.0
  0
SPLINE
  5
AC
330
1F
100
AcDbEntity
  8
0
  6
Continuous
 62
     7
370
    35
100
AcDbSpline
210
0.0
220
0.0
230
1.0
 70
     8
 71
     3
 72
    23
 73
    19
 74
     0
 42
0.000000001
 43
0.00000001
 40
0.0
 40
0.0
 40
0.0
 40
0.0
 40
0.0667554131374498
 40
0.131727943668199
 40
0.1948100844364462
 40
0.2568986387839159
 40
0.3187508905638028
 40
0.3803512888945278
 40
0.4433244176166853
 40
0.5074626919635767
 40
0.5715056738698098
 40
0.6333612917281053
 40
0.6939415159323036
 40
0.753928846104021
 40
0.8138015296774394
 40
0.87452364421621
 40
0.9362219827335266
 40
1.0
 40
1.0
 40
1.0
 40
1.0
 10
12.7287502523723
 20
0.2944135814153034
 30
0.0
 10
12.72870355466453
 20
0.2927649833311678
 30
0.0
 10
12.72861140643673
 20
0.289511817402715
 30
0.0
 10
12.72801022368746
 20
0.2847285127633406
 30
0.0
 10
12.72694912533686
 20
0.2801471867648029
 30
0.0
 10
12.72549160058636
 20
0.2757555752974267
 30
0.0
 10
12.7235714050238
 20
0.2715859556786062
 30
0.0
 10
12.72126210705681
 20
0.2675951337363068
 30
0.0
 10
12.71852466268903
 20
0.263812732079453
 30
0.0
 10
12.71538593562804
 20
0.2602775249151272
 30
0.0
 10
12.71197372758359
 20
0.2570462776970152
 30
0.0
 10
12.70834053149771
 20
0.2542037433295918
 30
0.0
 10
12.70451187166625
 20
0.2518117736876376
 30
0.0
 10
12.70048765570666
 20
0.2498786578237814
 30
0.0
 10
12.69629097182139
 20
0.2483492109645719
 30
0.0
 10
12.69192054627921
 20
0.2472358466579206
 30
0.0
 10
12.68735513936707
 20
0.2465973940881298
 30
0.0
 10
12.68425582125918
 20
0.2465108016351312
 30
0.0
 10
12.68268047774076
 20
0.2464667878053702
 30
0.0
  0
SPLINE
  5
AD
330
1F
100
AcDbEntity
  8
0
  6
Continuous
 62
     7
370
    35
100
AcDbSpline
210
0.0
220
0.0
230
1.0
 70
     8
 71
     3
 72
    23
 73
    19
 74
     0
 42
0.000000001
 43
0.00000001
 40
0.0
 40
0.0
 40
0.0
 40
0.0
 40
0.0634005294004253
 40
0.1249764099331353
 40
0.1844921876584891
 40
0.2434736282965342
 40
0.3022637321141513
 40
0.361383571830424
 40
0.4214817654110614
 40
0.4834545367577924
 40
0.5459360688045397
 40
0.6081426980855811
 40
0.6698202920949411
 40
0.7323322942692666
 40
0.7960922343214044
 40
0.8616426668792325
 40
0.9294352318828831
 40
0.9999999999999999
 40
0.9999999999999999
 40
0.9999999999999999
 40
0.9999999999999999
 10
12.68698658010296
 20
0.3400969109630527
 30
0.0
 10
12.68845179025496
 20
0.3400633365217678
 30
0.0
 10
12.69134004223528
 20
0.3399971539018907
 30
0.0
 10
12.6955651883731
 20
0.3393688649600952
 30
0.0
 10
12.69961101540427
 20
0.3383793289167006
 30
0.0
 10
12.70346514264136
 20
0.3369680463587548
 30
0.0
 10
12.70712380511941
 20
0.3351312256583936
 30
0.0
 10
12.71059143786629
 20
0.3329091875102677
 30
0.0
 10
12.71387229680659
 20
0.3302980292062679
 30
0.0
 10
12.71690810008403
 20
0.3272961159428291
 30
0.0
 10
12.71969752294625
 20
0.3239999472111808
 30
0.0
 10
12.72212276703022
 20
0.3204347919513597
 30
0.0
 10
12.72419407682597
 20
0.3166514858162284
 30
0.0
 10
12.72584152502362
 20
0.312626511857102
 30
0.0
 10
12.72714183159172
 20
0.3083851496105937
 30
0.0
 10
12.72808146215533
 20
0.3039246810847984
 30
0.0
 10
12.72863711264773
 20
0.2992398199626858
 30
0.0
 10
12.72871203871093
 20
0.2960436741721542
 30
0.0
 10
12.7287502523723
 20
0.2944135814153034
 30
0.0
  0
SPLINE
  5
AE
330
1F
100
AcDbEntity
  8
0
  6
Continuous
 62
     7
370
    35
100
AcDbSpline
210
0.0
220
0.0
230
1.0
 70
     8
 71
     3
 72
    11
 73
     7
 74
     0
 42
0.000000001
 43
0.00000001
 40
0.0
 40
0.0
 40
0.0
 40
0.0
 40
0.2636542475287481
 40
0.5199803460205944
 40
0.7671028029252287
 40
1.0
 40
1.0
 40
1.0
 40
1.0
 10
12.67845718503937
 20
0.3387719563900665
 30
0.0
 10
12.67919064514939
 20
0.3389762342902782
 30
0.0
 10
12.68063717918165
 20
0.3393791122800394
 30
0.0
 10
12.68281638449562
 20
0.3397831479274121
 30
0.0
 10
12.68492833813521
 20
0.3400450309921353
 30
0.0
 10
12.68631418922809
 20
0.3400799627035279
 30
0.0
 10
12.68698658010296
 20
0.3400969109630527
 30
0.0
  0
CIRCLE
  5
C0
330
1F
100
AcDbEntity
  8
0
  6
Continuous
 62
     7
370
    35
100
AcDbCircle
 10
1.8435
 20
0.34375
 30
0.0
 40
0.075
  0
CIRCLE
  5
C1
330
1F
100
AcDbEntity
  8
0
  6
Continuous
 62
     7
370
    35
100
AcDbCircle
 10
11.6565
 20
0.34375
 30
0.0
 40
0.0749999999999993
  0
CIRCLE
  5
C2
330
1F
100
AcDbEntity
  8
0
  6
Continuous
 62
     7
370
    35
100
AcDbCircle
 10
6.749
 20
0.34375
 30
0.0
 40
0.0749999999999993
  0
CIRCLE
  5
C3
330
1F
100
AcDbEntity
  8
0
  6
Continuous
 62
     7
370
    35
100
AcDbCircle
 10
8.36275
 20
6.1
 30
0.0
 40
0.0750000000000011
  0
CIRCLE
  5
C4
330
1F
100
AcDbEntity
  8
0
  6
Continuous
 62
     7
370
    35
100
AcDbCircle
 10
4.0
 20
1.875
 30
0.0
 40
1.500000000000002
  0
CIRCLE
  5
C5
330
1F
100
AcDbEntity
  8
0
  6
Continuous
 62
     7
370
    35
100
AcDbCircle
 10
5.407480315
 20
3.282480315
 30
0.0
 40
0.0750000000000002
  0
CIRCLE
  5
C6
330
1F
100
AcDbEntity
  8
0
  6
Continuous
 62
     7
370
    35
100
AcDbCircle
 10
2.592519685
 20
3.282480315
 30
0.0
 40
0.0750000000000006
  0
CIRCLE
  5
C7
330
1F
100
AcDbEntity
  8
0
  6
Continuous
 62
     7
370
    35
100
AcDbCircle
 10
2.592519685
 20
0.467519685
 30
0.0
 40
0.0750000000000006
  0
CIRCLE
  5
C8
330
1F
100
AcDbEntity
  8
0
  6
Continuous
 62
     7
370
    35
100
AcDbCircle
 10
5.407480315
 20
0.467519685
 30
0.0
 40
0.0750000000000002
  0
CIRCLE
  5
C9
330
1F
100
AcDbEntity
  8
0
  6
Continuous
 62
     7
370
    35
100
AcDbCircle
 10
8.092519685
 20
0.467519685
 30
0.0
 40
0.0749999999999993
  0
CIRCLE
  5
CA
330
1F
100
AcDbEntity
  8
0
  6
Continuous
 62
     7
370
    35
100
AcDbCircle
 10
10.907480315
 20
0.467519685
 30
0.0
 40
0.0750000000000028
  0
CIRCLE
  5
CB
330
1F
100
AcDbEntity
  8
0
  6
Continuous
 62
     7
370
    35
100
AcDbCircle
 10
10.907480315
 20
3.282480315
 30
0.0
 40
0.0750000000000028
  0
CIRCLE
  5
CC
330
1F
100
AcDbEntity
  8
0
  6
Continuous
 62
     7
370
    35
100
AcDbCircle
 10
8.092519685
 20
3.282480315
 30
0.0
 40
0.0750000000000028
  0
CIRCLE
  5
CD
330
1F
100
AcDbEntity
  8
0
  6
Continuous
 62
     7
370
    35
100
AcDbCircle
 10
9.5
 20
1.875
 30
0.0
 40
1.50000000000001
  0
CIRCLE
  5
CE
330
1F
100
AcDbEntity
  8
0
  6
Continuous
 62
     7
370
    35
100
AcDbCircle
 10
5.4
 20
4.5
 30
0.0
 40
0.106250000000002
  0
CIRCLE
  5
CF
330
1F
100
AcDbEntity
  8
0
  6
Continuous
 62
     7
370
    35
100
AcDbCircle
 10
6.35
 20
4.5
 30
0.0
 40
0.1062500000000002
  0
CIRCLE
  5
D0
330
1F
100
AcDbEntity
  8
0
  6
Continuous
 62
     7
370
    35
100
AcDbCircle
 10
7.025
 20
4.5
 30
0.0
 40
0.106250000000002
  0
CIRCLE
  5
D1
330
1F
100
AcDbEntity
  8
0
  6
Continuous
 62
     7
370
    35
100
AcDbCircle
 10
7.975
 20
4.5
 30
0.0
 40
0.106250000000002
  0
CIRCLE
  5
DC
330
1F
100
AcDbEntity
  8
0
  6
Continuous
 62
     7
370
    35
100
AcDbCircle
 10
11.2
 20
1.75
 30
0.0
 40
0.0625000000000018
  0
CIRCLE
  5
DD
330
1F
100
AcDbEntity
  8
0
  6
Continuous
 62
     7
370
    35
100
AcDbCircle
 10
12.75
 20
1.75
 30
0.0
 40
0.0625000000000018
  0
SPLINE
  5
DE
330
1F
100
AcDbEntity
  8
0
  6
Continuous
 62
     7
370
    35
100
AcDbSpline
210
0.0
220
0.0
230
1.0
 70
     8
 71
     3
 72
    31
 73
    27
 74
     0
 42
0.000000001
 43
0.00000001
 40
0.0
 40
0.0
 40
0.0
 40
0.0
 40
0.0382173379691468
 40
0.0748672030399428
 40
0.1101580815531154
 40
0.144453926659313
 40
0.1780797262741555
 40
0.2111707725936021
 40
0.2436870542144235
 40
0.2758717334448077
 40
0.3083755160139883
 40
0.3412633249363632
 40
0.3751503394709125
 40
0.4096552607042233
 40
0.4451573674923642
 40
0.4820734672046807
 40
0.5205757562184339
 40
0.5605536808978375
 40
0.6031075754382546
 40
0.648688709529492
 40
0.6979476778875653
 40
0.7507677670183566
 40
0.8073094024459657
 40
0.8676555707911421
 40
0.9318612220995592
 40
1.0
 40
1.0
 40
1.0
 40
1.0
 10
12.57977567257218
 20
0.2464667878053702
 30
0.0
 10
12.57854213269243
 20
0.2464880568887824
 30
0.0
 10
12.57612564620901
 20
0.2465297227103944
 30
0.0
 10
12.57258017390772
 20
0.246854192359147
 30
0.0
 10
12.56920185124106
 20
0.2474529948869397
 30
0.0
 10
12.56595329575008
 20
0.2482048930059172
 30
0.0
 10
12.56285711686914
 20
0.2492395547385994
 30
0.0
 10
12.5598984685139
 20
0.250474297176062
 30
0.0
 10
12.55710010013073
 20
0.2519431235538192
 30
0.0
 10
12.5544542634782
 20
0.2536370639923179
 30
0.0
 10
12.55196999219492
 20
0.2555795474118739
 30
0.0
 10
12.5496086807195
 20
0.2577497967735308
 30
0.0
 10
12.54737555241059
 20
0.260142311053043
 30
0.0
 10
12.5453045786863
 20
0.2627838883926447
 30
0.0
 10
12.54336184299097
 20
0.2656392692414025
 30
0.0
 10
12.54156760498453
 20
0.2687410606602102
 30
0.0
 10
12.5399229429577
 20
0.272084746514941
 30
0.0
 10
12.53837641157894
 20
0.2756749875591561
 30
0.0
 10
12.53703267157126
 20
0.2795890775670599
 30
0.0
 10
12.5358368053565
 20
0.2838619688651595
 30
0.0
 10
12.53485718320885
 20
0.2885292795256882
 30
0.0
 10
12.53406930552736
 20
0.2935895101267134
 30
0.0
 10
12.53344026443808
 20
0.2990319403482848
 30
0.0
 10
12.53297233016956
 20
0.3048591970942251
 30
0.0
 10
12.53269530392758
 20
0.3110739945606909
 30
0.0
 10
12.53267000233434
 20
0.3153457344307906
 30
0.0
 10
12.53265697557036
 20
0.3175450800020187
 30
0.0
  0
SPLINE
  5
DF
330
1F
100
AcDbEntity
  8
0
  6
Continuous
 62
     7
370
    35
100
AcDbSpline
210
0.0
220
0.0
230
1.0
 70
     8
 71
     3
 72
    31
 73
    27
 74
     0
 42
0.000000001
 43
0.00000001
 40
0.0
 40
0.0
 40
0.0
 40
0.0
 40
0.0684908744969542
 40
0.1330765404908789
 40
0.1938289871915786
 40
0.2510828574460504
 40
0.3044008371534411
 40
0.3544083437255268
 40
0.4012947817777465
 40
0.4447006845454794
 40
0.4856924920892483
 40
0.5246764844274059
 40
0.5623067591777637
 40
0.5979465846525366
 40
0.6324735490267247
 40
0.6657520428969458
 40
0.6979852995504565
 40
0.7295862241486786
 40
0.7608251968744995
 40
0.7923550795612094
 40
0.8243126039626582
 40
0.8571562719790768
 40
0.890926887145403
 40
0.9259604429163104
 40
0.9620613229943489
 40
1.0
 40
1.0
 40
1.0
 40
1.0
 10
12.62628709872805
 20
0.3188424313547344
 30
0.0
 10
12.62627393867551
 20
0.316615502833526
 30
0.0
 10
12.6262483689295
 20
0.3122886206656528
 30
0.0
 10
12.62597287294128
 20
0.3059908523698608
 30
0.0
 10
12.62549845583382
 20
0.300072520230353
 30
0.0
 10
12.62488699282697
 20
0.2945342365315989
 30
0.0
 10
12.62404945576634
 20
0.2893789259559099
 30
0.0
 10
12.62306858344442
 20
0.2845932397159035
 30
0.0
 10
12.62190298898916
 20
0.2801789125024917
 30
0.0
 10
12.62049579294352
 20
0.2761458907358585
 30
0.0
 10
12.61898151127962
 20
0.2724292100354224
 30
0.0
 10
12.61731516539805
 20
0.2689843772155481
 30
0.0
 10
12.61552579947042
 20
0.2658020617639842
 30
0.0
 10
12.61365445615698
 20
0.2628342541235416
 30
0.0
 10
12.61159854153576
 20
0.2601684437563229
 30
0.0
 10
12.6094581227667
 20
0.2577139791699474
 30
0.0
 10
12.6071400021937
 20
0.2555643540688783
 30
0.0
 10
12.60474178165456
 20
0.2536087864225298
 30
0.0
 10
12.6021756046321
 20
0.2519187835318134
 30
0.0
 10
12.59946793543355
 20
0.2504407348676254
 30
0.0
 10
12.59657050101957
 20
0.2492418618515018
 30
0.0
 10
12.5935361166913
 20
0.2481991461359381
 30
0.0
 10
12.59031306075232
 20
0.247450588760654
 30
0.0
 10
12.58695254711932
 20
0.246856633083763
 30
0.0
 10
12.58341663627168
 20
0.2465283767453954
 30
0.0
 10
12.58100924574743
 20
0.2464876543864672
 30
0.0
 10
12.57977567257218
 20
0.2464667878053702
 30
0.0
  0
SPLINE
  5
E0
330
1F
100
AcDbEntity
  8
0
  6
Continuous
 62
     7
370
    35
100
AcDbSpline
210
0.0
220
0.0
230
1.0
 70
     8
 71
     3
 72
    31
 73
    27
 74
     0
 42
0.000000001
 43
0.00000001
 40
0.0
 40
0.0
 40
0.0
 40
0.0
 40
0.0366348902551167
 40
0.0720339823477799
 40
0.1066259706074877
 40
0.1403056939382799
 40
0.1736194704926776
 40
0.2064256725696787
 40
0.2390670061327325
 40
0.2718828805625965
 40
0.3048398888131078
 40
0.338529033704586
 40
0.3726161878593788
 40
0.40754825002653
 40
0.4437189059571637
 40
0.4813115090918977
 40
0.5201129981462008
 40
0.5609129028334421
 40
0.6040246006136002
 40
0.6500745638656742
 40
0.6995722277770534
 40
0.7523625390892928
 40
0.8087887173463851
 40
0.8689542125204764
 40
0.9326747199379372
 40
1.0
 40
1.0
 40
1.0
 40
1.0
 10
12.57905798884515
 20
0.3913284877851806
 30
0.0
 10
12.58025514378935
 20
0.3913107156825482
 30
0.0
 10
12.5826090702654
 20
0.3912757709804239
 30
0.0
 10
12.58607596087259
 20
0.3908972913940587
 30
0.0
 10
12.58941553506142
 20
0.3903255142941108
 30
0.0
 10
12.59264085766216
 20
0.3895280846216053
 30
0.0
 10
12.59572871247533
 20
0.3884727148544342
 30
0.0
 10
12.59870157354625
 20
0.387209455333563
 30
0.0
 10
12.60152405522485
 20
0.385672045494747
 30
0.0
 10
12.60423215317206
 20
0.383935462122105
 30
0.0
 10
12.60682482422496
 20
0.3819694035637235
 30
0.0
 10
12.6092397553493
 20
0.3797279952932897
 30
0.0
 10
12.61152104831803
 20
0.3772628122075902
 30
0.0
 10
12.61361932153859
 20
0.3745365851615899
 30
0.0
 10
12.61558104191111
 20
0.3715741120805343
 30
0.0
 10
12.61739976355231
 20
0.3683749232107371
 30
0.0
 10
12.6190615636973
 20
0.3649233606653026
 30
0.0
 10
12.62058506716113
 20
0.3612131958254947
 30
0.0
 10
12.62194738877018
 20
0.3571888149232165
 30
0.0
 10
12.62309487057214
 20
0.3528040565614424
 30
0.0
 10
12.62407902822653
 20
0.3480579194101868
 30
0.0
 10
12.62490972672731
 20
0.3429385896084311
 30
0.0
 10
12.62553760053071
 20
0.3374392623479732
 30
0.0
 10
12.62596080011409
 20
0.3315635911063877
 30
0.0
 10
12.62625121970029
 20
0.3253229033141937
 30
0.0
 10
12.62627492172249
 20
0.3210418427659447
 30
0.0
 10
12.62628709872805
 20
0.3188424313547344
 30
0.0
  0
SPLINE
  5
E1
330
1F
100
AcDbEntity
  8
0
  6
Continuous
 62
     7
370
    35
100
AcDbSpline
210
0.0
220
0.0
230
1.0
 70
     8
 71
     3
 72
    15
 73
    11
 74
     0
 42
0.000000001
 43
0.00000001
 40
0.0
 40
0.0
 40
0.0
 40
0.0
 40
0.1323140339085771
 40
0.2587000085531646
 40
0.3809118214856373
 40
0.5005348689728707
 40
0.6209226176484155
 40
0.7423757653984782
 40
0.868280834178847
 40
1.0
 40
1.0
 40
1.0
 40
1.0
 10
12.54397429588128
 20
0.3725859012214821
 30
0.0
 10
12.54504421800486
 20
0.3740764150587562
 30
0.0
 10
12.54713612658282
 20
0.3769906633139178
 30
0.0
 10
12.55079388720454
 20
0.3808165265294346
 30
0.0
 10
12.5547236747593
 20
0.3840885920961258
 30
0.0
 10
12.55900620484274
 20
0.3867328102402137
 30
0.0
 10
12.56357374745762
 20
0.3888180408833279
 30
0.0
 10
12.56846551727917
 20
0.3902908158015795
 30
0.0
 10
12.57366344982336
 20
0.3911489230968467
 30
0.0
 10
12.57723295680616
 20
0.3912677390709797
 30
0.0
 10
12.57905798884515
 20
0.3913284877851806
 30
0.0
  0
SPLINE
  5
E2
330
1F
100
AcDbEntity
  8
0
  6
Continuous
 62
     7
370
    35
100
AcDbSpline
210
0.0
220
0.0
230
1.0
 70
     8
 71
     3
 72
    15
 73
    11
 74
     0
 42
0.000000001
 43
0.00000001
 40
0.0
 40
0.0
 40
0.0
 40
0.0
 40
0.161071123948422
 40
0.3107888083803553
 40
0.4499038238309462
 40
0.5783763165061901
 40
0.6966172119048389
 40
0.8059873227104127
 40
0.9065617032890865
 40
1.0
 40
1.0
 40
1.0
 40
1.0
 10
12.53265697557036
 20
0.3175450800020187
 30
0.0
 10
12.53268057233564
 20
0.3206008975335904
 30
0.0
 10
12.53272610259817
 20
0.326497136822073
 30
0.0
 10
12.5333030955251
 20
0.3350154882688276
 30
0.0
 10
12.53414997479975
 20
0.3428892285862137
 30
0.0
 10
12.53539383984565
 20
0.3501051869494637
 30
0.0
 10
12.53693186177197
 20
0.3566900891635976
 30
0.0
 10
12.53890137893405
 20
0.3626005573400939
 30
0.0
 10
12.54114353095218
 20
0.3679183760605078
 30
0.0
 10
12.54305413252374
 20
0.3710686838858535
 30
0.0
 10
12.54397429588128
 20
0.3725859012214821
 30
0.0
  0
SPLINE
  5
E4
330
1F
100
AcDbEntity
  8
0
  6
Continuous
 62
     7
370
    35
100
AcDbSpline
210
0.0
220
0.0
230
1.0
 70
     8
 71
     3
 72
    15
 73
    11
 74
     0
 42
0.000000001
 43
0.00000001
 40
0.0
 40
0.0
 40
0.0
 40
0.0
 40
0.0773727494947012
 40
0.1676142909211863
 40
0.2721083165199059
 40
0.3900159922754965
 40
0.5213633102090123
 40
0.6672722540318037
 40
0.8268095210701811
 40
1.0
 40
1.0
 40
1.0
 40
1.0
 10
12.30457156647486
 20
0.3121624520492627
 30
0.0
 10
12.30386517982506
 20
0.3119867019074553
 30
0.0
 10
12.30233491887148
 20
0.3116059705053686
 30
0.0
 10
12.29980275730155
 20
0.3112194325718718
 30
0.0
 10
12.29688470695579
 20
0.3108640347086334
 30
0.0
 10
12.29357133187026
 20
0.3105586132699062
 30
0.0
 10
12.28986072180451
 20
0.3103509978585086
 30
0.0
 10
12.28575646959925
 20
0.3101888594556101
 30
0.0
 10
12.28125671527236
 20
0.3100709680926167
 30
0.0
 10
12.27812776405171
 20
0.3100667847894853
 30
0.0
 10
12.27649909145972
 20
0.3100646073087016
 30
0.0
  0
SPLINE
  5
E5
330
1F
100
AcDbEntity
  8
0
  6
Continuous
 62
     7
370
    35
100
AcDbSpline
210
0.0
220
0.0
230
1.0
 70
     8
 71
     3
 72
    23
 73
    19
 74
     0
 42
0.000000001
 43
0.00000001
 40
0.0
 40
0.0
 40
0.0
 40
0.0
 40
0.068875425423747
 40
0.1353486746991197
 40
0.1992893152193359
 40
0.261550080394494
 40
0.3229153841538635
 40
0.3827719971265238
 40
0.4428435721153033
 40
0.5026520291025237
 40
0.5627488431894938
 40
0.6227395817076894
 40
0.6826873315148699
 40
0.7433292468859832
 40
0.8050125141012642
 40
0.8680671203592876
 40
0.9331105710618534
 40
1.0
 40
1.0
 40
1.0
 40
1.0
 10
12.33303048657379
 20
0.3486539092469207
 30
0.0
 10
12.3330117062244
 20
0.3475029082910173
 30
0.0
 10
12.33297480053002
 20
0.3452410499721681
 30
0.0
 10
12.33261300579309
 20
0.3419254431738429
 30
0.0
 10
12.33199494607509
 20
0.3387643122830033
 30
0.0
 10
12.33118717435123
 20
0.3357309989160772
 30
0.0
 10
12.33006079412876
 20
0.3328754078017137
 30
0.0
 10
12.32877395761808
 20
0.3301294036596273
 30
0.0
 10
12.32719074053778
 20
0.3275699760171579
 30
0.0
 10
12.32538166192187
 20
0.3251651095171323
 30
0.0
 10
12.32340594168544
 20
0.3228952514593956
 30
0.0
 10
12.32121667631456
 20
0.320825939703361
 30
0.0
 10
12.31885559414975
 20
0.3189430678224598
 30
0.0
 10
12.31633636264881
 20
0.3172269031716273
 30
0.0
 10
12.31364952386052
 20
0.3156809076373268
 30
0.0
 10
12.31079701647228
 20
0.3142906046139943
 30
0.0
 10
12.30775936194621
 20
0.3131004603035374
 30
0.0
 10
12.30564403072786
 20
0.3124780244662423
 30
0.0
 10
12.30457156647486
 20
0.3121624520492627
 30
0.0
  0
SPLINE
  5
E6
330
1F
100
AcDbEntity
  8
0
  6
Continuous
 62
     7
370
    35
100
AcDbSpline
210
0.0
220
0.0
230
1.0
 70
     8
 71
     3
 72
    31
 73
    27
 74
     0
 42
0.000000001
 43
0.00000001
 40
0.0
 40
0.0
 40
0.0
 40
0.0
 40
0.070781161005051
 40
0.136551696232265
 40
0.197012482434335
 40
0.2529226940754233
 40
0.3036865320400894
 40
0.3497191510228017
 40
0.3912404712771929
 40
0.4284785554869229
 40
0.4630565648912395
 40
0.4971503576227188
 40
0.5310023337427017
 40
0.5642263769534248
 40
0.5977006695240399
 40
0.6314214209808989
 40
0.6655973468372228
 40
0.7004514363038972
 40
0.73588068398013
 40
0.7710921079261276
 40
0.8069748450233126
 40
0.8435344028448023
 40
0.8809401955444326
 40
0.9192943843072758
 40
0.9591802403135352
 40
1.0
 40
1.0
 40
1.0
 40
1.0
 10
12.27936982636786
 20
0.3877952755905511
 30
0.0
 10
12.28117338497112
 20
0.3877872024783631
 30
0.0
 10
12.2846528275662
 20
0.3877716277527233
 30
0.0
 10
12.28967047005444
 20
0.3875827634870219
 30
0.0
 10
12.29429949092641
 20
0.3872443072186668
 30
0.0
 10
12.29853882667295
 20
0.3868260287960939
 30
0.0
 10
12.30238673418389
 20
0.3862396187228331
 30
0.0
 10
12.30584803219416
 20
0.3855673454881194
 30
0.0
 10
12.30892343900571
 20
0.3847483210260517
 30
0.0
 10
12.31164763440217
 20
0.3837761503412728
 30
0.0
 10
12.31409251177543
 20
0.3826299990864919
 30
0.0
 10
12.31640615431656
 20
0.3814092661871553
 30
0.0
 10
12.31853627344846
 20
0.3799523645259355
 30
0.0
 10
12.32059038271817
 20
0.378416312776974
 30
0.0
 10
12.32245104515658
 20
0.3766543725062109
 30
0.0
 10
12.32423434002578
 20
0.3747838033963934
 30
0.0
 10
12.32586473992394
 20
0.3727304202144195
 30
0.0
 10
12.32734979951823
 20
0.3705190786109022
 30
0.0
 10
12.32869697740078
 20
0.3681906347234374
 30
0.0
 10
12.32987396212238
 20
0.3657409259847467
 30
0.0
 10
12.33082866621662
 20
0.3631660759870111
 30
0.0
 10
12.33162954423958
 20
0.360482741082356
 30
0.0
 10
12.33227281726974
 20
0.3576910382163984
 30
0.0
 10
12.33270100027643
 20
0.3547737981681429
 30
0.0
 10
12.33299184371531
 20
0.35175139021593
 30
0.0
 10
12.33301750663284
 20
0.3496943374570281
 30
0.0
 10
12.33303048657379
 20
0.3486539092469207
 30
0.0
  0
SPLINE
  5
EA
330
1F
100
AcDbEntity
  8
0
  6
Continuous
 62
     7
370
    35
100
AcDbSpline
210
0.0
220
0.0
230
1.0
 70
     8
 71
     3
 72
    23
 73
    19
 74
     0
 42
0.000000001
 43
0.00000001
 40
0.0
 40
0.0
 40
0.0
 40
0.0
 40
0.1107342804863374
 40
0.2123411929916456
 40
0.3055021255634798
 40
0.3898348410859825
 40
0.4666904579461216
 40
0.5352618542933019
 40
0.5967629138889592
 40
0.651065718983612
 40
0.701035551110205
 40
0.7478602709077509
 40
0.7918333971357157
 40
0.8342840069087798
 40
0.8753338897746163
 40
0.9160347492783194
 40
0.9576522807232319
 40
1.0
 40
1.0
 40
1.0
 40
1.0
 10
12.55738946093277
 20
0.3172690477993134
 30
0.0
 10
12.55741468698944
 20
0.3151710262651298
 30
0.0
 10
12.55746305982344
 20
0.3111479144199616
 30
0.0
 10
12.55771641412024
 20
0.3053625395021046
 30
0.0
 10
12.55822424178179
 20
0.3000973824743308
 30
0.0
 10
12.5588558768604
 20
0.2953167594184943
 30
0.0
 10
12.55974303412116
 20
0.2910516739552468
 30
0.0
 10
12.5607637659768
 20
0.2872617744195283
 30
0.0
 10
12.56202427905897
 20
0.2839953728293723
 30
0.0
 10
12.56348104480478
 20
0.2812052296696848
 30
0.0
 10
12.56509447850688
 20
0.2788316606809528
 30
0.0
 10
12.56684593176554
 20
0.2768141163502925
 30
0.0
 10
12.56867577387312
 20
0.2750670181465831
 30
0.0
 10
12.57064112015086
 20
0.2736478718048815
 30
0.0
 10
12.57273728187284
 20
0.2725603034665995
 30
0.0
 10
12.57494675994291
 20
0.2717780289920103
 30
0.0
 10
12.57727095845314
 20
0.2712991662078734
 30
0.0
 10
12.57886254563339
 20
0.2712327633344619
 30
0.0
 10
12.5796652596911
 20
0.2711992731677771
 30
0.0
  0
SPLINE
  5
EB
330
1F
100
AcDbEntity
  8
0
  6
Continuous
 62
     7
370
    35
100
AcDbSpline
210
0.0
220
0.0
230
1.0
 70
     8
 71
     3
 72
    27
 73
    23
 74
     0
 42
0.000000001
 43
0.00000001
 40
0.0
 40
0.0
 40
0.0
 40
0.0
 40
0.0538337008959164
 40
0.1055426304091422
 40
0.1580541720958609
 40
0.2119873357804164
 40
0.2402068903290669
 40
0.2697935103595603
 40
0.301343098796688
 40
0.3346080613712032
 40
0.370284441664867
 40
0.408088838014952
 40
0.448681345809986
 40
0.4920692965602045
 40
0.5386641566662703
 40
0.5903710538753858
 40
0.6463877841547253
 40
0.7071953757631265
 40
0.7729467746818427
 40
0.8436426012467394
 40
0.9193083570571442
 40
1.0
 40
1.0
 40
1.0
 40
1.0
 10
12.5796652596911
 20
0.3665960024227738
 30
0.0
 10
12.57858302169462
 20
0.3665447064933881
 30
0.0
 10
12.57646126073491
 20
0.3664441392422691
 30
0.0
 10
12.57338248448914
 20
0.3655904651665223
 30
0.0
 10
12.57047939071831
 20
0.3642719195280904
 30
0.0
 10
12.56827108482518
 20
0.362685256007772
 30
0.0
 10
12.56661818982716
 20
0.3611642487481023
 30
0.0
 10
12.56546330023981
 20
0.3597877866433816
 30
0.0
 10
12.56434959125549
 20
0.3582517541372936
 30
0.0
 10
12.56336590739623
 20
0.3564868379797221
 30
0.0
 10
12.56243705305571
 20
0.3545564536950294
 30
0.0
 10
12.56152928238616
 20
0.3524518384939559
 30
0.0
 10
12.56078514880526
 20
0.3501212984752436
 30
0.0
 10
12.56005405728992
 20
0.347604523034466
 30
0.0
 10
12.55941355290599
 20
0.3448319300173447
 30
0.0
 10
12.55887695064829
 20
0.34178085653498
 30
0.0
 10
12.55839754369874
 20
0.3384314611761925
 30
0.0
 10
12.55806315163408
 20
0.3347815500826656
 30
0.0
 10
12.55775139787992
 20
0.3308349419610598
 30
0.0
 10
12.55752791802559
 20
0.3265828453003983
 30
0.0
 10
12.55743448670794
 20
0.3220264072252008
 30
0.0
 10
12.55740478773497
 20
0.3188884559411806
 30
0.0
 10
12.55738946093277
 20
0.3172690477993134
 30
0.0
  0
SPLINE
  5
EC
330
1F
100
AcDbEntity
  8
0
  6
Continuous
 62
     7
370
    35
100
AcDbSpline
210
0.0
220
0.0
230
1.0
 70
     8
 71
     3
 72
    23
 73
    19
 74
     0
 42
0.000000001
 43
0.00000001
 40
0.0
 40
0.0
 40
0.0
 40
0.0
 40
0.1121147956622152
 40
0.2158018426882379
 40
0.3102026923156585
 40
0.3959929252987224
 40
0.473410230742241
 40
0.5427784203605571
 40
0.604548022282943
 40
0.6593572656121023
 40
0.7087643617117573
 40
0.7553555059484897
 40
0.798686993800688
 40
0.8400168391480966
 40
0.8802034470065604
 40
0.919733348245838
 40
0.9590486059010277
 40
1.0
 40
1.0
 40
1.0
 40
1.0
 10
12.60155461336564
 20
0.3188424313547344
 30
0.0
 10
12.60154552495122
 20
0.3210143621233139
 30
0.0
 10
12.60152803130492
 20
0.325194958085536
 30
0.0
 10
12.60120707355143
 20
0.331196695383937
 30
0.0
 10
12.60076011535578
 20
0.33667828632924
 30
0.0
 10
12.60010634454477
 20
0.3416274927571828
 30
0.0
 10
12.59926514956787
 20
0.3460563291761016
 30
0.0
 10
12.59822837358378
 20
0.3499645060663136
 30
0.0
 10
12.5970060918223
 20
0.3533597256931343
 30
0.0
 10
12.59555661131756
 20
0.3562386025556521
 30
0.0
 10
12.59395122159844
 20
0.3586852529725498
 30
0.0
 10
12.59224705140529
 20
0.3607842892506167
 30
0.0
 10
12.59043689481178
 20
0.3625763934673468
 30
0.0
 10
12.58852377898715
 20
0.3640683096248898
 30
0.0
 10
12.58646342419998
 20
0.365208245464452
 30
0.0
 10
12.58429518590969
 20
0.3660131344700775
 30
0.0
 10
12.58201461906433
 20
0.3665000653256856
 30
0.0
 10
12.58045894961487
 20
0.3665635917545115
 30
0.0
 10
12.5796652596911
 20
0.3665960024227738
 30
0.0
  0
SPLINE
  5
ED
330
1F
100
AcDbEntity
  8
0
  6
Continuous
 62
     7
370
    35
100
AcDbSpline
210
0.0
220
0.0
230
1.0
 70
     8
 71
     3
 72
    15
 73
    11
 74
     0
 42
0.000000001
 43
0.00000001
 40
0.0
 40
0.0
 40
0.0
 40
0.0
 40
0.0888707311225301
 40
0.1863547159715009
 40
0.2940776543961822
 40
0.41223652795761
 40
0.5417781444209695
 40
0.6827026066315705
 40
0.8350963526041719
 40
1.0
 40
1.0
 40
1.0
 40
1.0
 10
12.59476422117909
 20
0.2806671777205733
 30
0.0
 10
12.59532150909734
 20
0.2816864641403778
 30
0.0
 10
12.59649009666728
 20
0.2838238251011476
 30
0.0
 10
12.59784238822112
 20
0.2874305420271737
 30
0.0
 10
12.59898067188036
 20
0.2914983226117371
 30
0.0
 10
12.59996037598097
 20
0.2960398261742551
 30
0.0
 10
12.60063043382225
 20
0.3010729649650005
 30
0.0
 10
12.6012074868178
 20
0.3065658234154192
 30
0.0
 10
12.60148581381678
 20
0.3125460613380295
 30
0.0
 10
12.60153108521952
 20
0.31668919174442
 30
0.0
 10
12.60155461336564
 20
0.3188424313547344
 30
0.0
  0
SPLINE
  5
EE
330
1F
100
AcDbEntity
  8
0
  6
Continuous
 62
     7
370
    35
100
AcDbSpline
210
0.0
220
0.0
230
1.0
 70
     8
 71
     3
 72
    15
 73
    11
 74
     0
 42
0.000000001
 43
0.00000001
 40
0.0
 40
0.0
 40
0.0
 40
0.0
 40
0.1240354330025861
 40
0.242845954811526
 40
0.360341682449641
 40
0.4790424316556057
 40
0.5993341100428149
 40
0.7254884757708376
 40
0.858549428527503
 40
1.0
 40
1.0
 40
1.0
 40
1.0
 10
12.5796652596911
 20
0.2711992731677771
 30
0.0
 10
12.58044042714646
 20
0.2712221896280501
 30
0.0
 10
12.58195810863696
 20
0.2712670572077504
 30
0.0
 10
12.58417122814691
 20
0.2717276168823781
 30
0.0
 10
12.58626411121189
 20
0.2724763868815959
 30
0.0
 10
12.58823043876506
 20
0.2735355746132718
 30
0.0
 10
12.59007724408755
 20
0.2748824938741339
 30
0.0
 10
12.59179550113207
 20
0.2765230635982563
 30
0.0
 10
12.59337225114851
 20
0.2784736364453101
 30
0.0
 10
12.59429087286603
 20
0.2799212499782605
 30
0.0
 10
12.59476422117908
 20
0.2806671777205733
 30
0.0
  0
SPLINE
  5
EF
330
1F
100
AcDbEntity
  8
0
  6
Continuous
 62
     7
370
    35
100
AcDbSpline
210
0.0
220
0.0
230
1.0
 70
     8
 71
     3
 72
    15
 73
    11
 74
     0
 42
0.000000001
 43
0.00000001
 40
0.0
 40
0.0
 40
0.0
 40
0.0
 40
0.1372849921823471
 40
0.2670284865720353
 40
0.3949256401701657
 40
0.5243347615083338
 40
0.6508125264300959
 40
0.7692674670454979
 40
0.8834346835668468
 40
1.0
 40
1.0
 40
1.0
 40
1.0
 10
12.45492630728851
 20
0.2907699563395923
 30
0.0
 10
12.45498757891071
 20
0.2894386035911291
 30
0.0
 10
12.45510675631158
 20
0.2868490335014617
 30
0.0
 10
12.45610790220779
 20
0.2831265513644645
 30
0.0
 10
12.45774708867868
 20
0.2797290025659342
 30
0.0
 10
12.46004594318096
 20
0.2767778946778621
 30
0.0
 10
12.46274476532367
 20
0.2743282466552957
 30
0.0
 10
12.46573743897413
 20
0.2725166148064165
 30
0.0
 10
12.46897404526053
 20
0.2714036699149578
 30
0.0
 10
12.47121288487354
 20
0.2712678758716376
 30
0.0
 10
12.47234393927923
 20
0.2711992731677771
 30
0.0
  0
SPLINE
  5
F0
330
1F
100
AcDbEntity
  8
0
  6
Continuous
 62
     7
370
    35
100
AcDbSpline
210
0.0
220
0.0
230
1.0
 70
     8
 71
     3
 72
    15
 73
    11
 74
     0
 42
0.000000001
 43
0.00000001
 40
0.0
 40
0.0
 40
0.0
 40
0.0
 40
0.1227180515039335
 40
0.2401431180449971
 40
0.3573623765102225
 40
0.4816738524649331
 40
0.6078658287995936
 40
0.7329554806750241
 40
0.8621444613629506
 40
1.0
 40
1.0
 40
1.0
 40
1.0
 10
12.47226112961841
 20
0.3100646073087016
 30
0.0
 10
12.47107438969571
 20
0.3100101740559232
 30
0.0
 10
12.46875209544596
 20
0.3099036553254888
 30
0.0
 10
12.4654501403234
 20
0.3087881393251531
 30
0.0
 10
12.46243950641828
 20
0.3070381723546126
 30
0.0
 10
12.45982985171391
 20
0.3046010049178001
 30
0.0
 10
12.45764711567557
 20
0.3016884941268617
 30
0.0
 10
12.45604316465139
 20
0.2983663865372822
 30
0.0
 10
12.4550782989654
 20
0.2946790147629125
 30
0.0
 10
12.45497805560041
 20
0.2921008658910081
 30
0.0
 10
12.45492630728851
 20
0.2907699563395923
 30
0.0
  0
SPLINE
  5
F1
330
1F
100
AcDbEntity
  8
0
  6
Continuous
 62
     7
370
    35
100
AcDbSpline
210
0.0
220
0.0
230
1.0
 70
     8
 71
     3
 72
    15
 73
    11
 74
     0
 42
0.000000001
 43
0.00000001
 40
0.0
 40
0.0
 40
0.0
 40
0.0
 40
0.1354037467141843
 40
0.262225165451648
 40
0.3858490677562311
 40
0.5108573636088446
 40
0.6349774647635212
 40
0.7532990766585154
 40
0.8739320409395303
 40
1.0
 40
1.0
 40
1.0
 40
1.0
 10
12.49025842923481
 20
0.2907699563395923
 30
0.0
 10
12.4901937277626
 20
0.2921000887914637
 30
0.0
 10
12.49006842580704
 20
0.2946760455927255
 30
0.0
 10
12.48912725964038
 20
0.2983806918564982
 30
0.0
 10
12.48744687100262
 20
0.3016899948165211
 30
0.0
 10
12.48521474879873
 20
0.3046130273037189
 30
0.0
 10
12.48251528362996
 20
0.3070491080028439
 30
0.0
 10
12.47938415801803
 20
0.3088019401119477
 30
0.0
 10
12.47593136407819
 20
0.3099016789926097
 30
0.0
 10
12.4735023785248
 20
0.3100095060348227
 30
0.0
 10
12.47226112961841
 20
0.3100646073087016
 30
0.0
  0
SPLINE
  5
F2
330
1F
100
AcDbEntity
  8
0
  6
Continuous
 62
     7
370
    35
100
AcDbSpline
210
0.0
220
0.0
230
1.0
 70
     8
 71
     3
 72
    15
 73
    11
 74
     0
 42
0.000000001
 43
0.00000001
 40
0.0
 40
0.0
 40
0.0
 40
0.0
 40
0.1211522424912441
 40
0.2376005895733282
 40
0.3560524880869075
 40
0.4805249744885729
 40
0.6076386115432881
 40
0.7334299283789837
 40
0.862181607382469
 40
1.0
 40
1.0
 40
1.0
 40
1.0
 10
12.47234393927923
 20
0.2711992731677771
 30
0.0
 10
12.47353846056962
 20
0.2712690977347623
 30
0.0
 10
12.47588112428776
 20
0.2714060358379398
 30
0.0
 10
12.47926057034293
 20
0.272472150039459
 30
0.0
 10
12.48234771459074
 20
0.2742534311165064
 30
0.0
 10
12.48507734726352
 20
0.2766952363874983
 30
0.0
 10
12.48742204985751
 20
0.2796126681617503
 30
0.0
 10
12.48904434721512
 20
0.2830301736873421
 30
0.0
 10
12.4900917765286
 20
0.2867795233738767
 30
0.0
 10
12.49020163283697
 20
0.2894099891154566
 30
0.0
 10
12.49025842923481
 20
0.2907699563395923
 30
0.0
  0
SPLINE
  5
F3
330
1F
100
AcDbEntity
  8
0
  6
Continuous
 62
     7
370
    35
100
AcDbSpline
210
0.0
220
0.0
230
1.0
 70
     8
 71
     3
 72
    15
 73
    11
 74
     0
 42
0.000000001
 43
0.00000001
 40
0.0
 40
0.0
 40
0.0
 40
0.0
 40
0.0821011604415345
 40
0.1738249811011791
 40
0.2789530937157544
 40
0.3966390953456606
 40
0.5273155915890836
 40
0.6712981430820761
 40
0.8287543799634268
 40
1.0
 40
1.0
 40
1.0
 40
1.0
 10
12.30181124444781
 20
0.3603300714213608
 30
0.0
 10
12.30137381163356
 20
0.3605512937390202
 30
0.0
 10
12.30044767672559
 20
0.3610196667191273
 30
0.0
 10
12.29887037918705
 20
0.3615641845540998
 30
0.0
 10
12.29705020191373
 20
0.3620235453319015
 30
0.0
 10
12.29497485665715
 20
0.3624048103424863
 30
0.0
 10
12.29265262256716
 20
0.3627007115858105
 30
0.0
 10
12.29008391396673
 20
0.3629270020131594
 30
0.0
 10
12.28726495076148
 20
0.3630180022083848
 30
0.0
 10
12.28530453052394
 20
0.3630474491121923
 30
0.0
 10
12.28428319957601
 20
0.3630627902281442
 30
0.0
  0
SPLINE
  5
F4
330
1F
100
AcDbEntity
  8
0
  6
Continuous
 62
     7
370
    35
100
AcDbSpline
210
0.0
220
0.0
230
1.0
 70
     8
 71
     3
 72
    15
 73
    11
 74
     0
 42
0.000000001
 43
0.00000001
 40
0.0
 40
0.0
 40
0.0
 40
0.0
 40
0.1377876848510248
 40
0.2673412375379498
 40
0.3904443306691154
 40
0.5117778827581431
 40
0.6295089809480918
 40
0.7478290655178296
 40
0.8718853097299587
 40
1.0
 40
1.0
 40
1.0
 40
1.0
 10
12.30829800121138
 20
0.3486815124671913
 30
0.0
 10
12.30827625396556
 20
0.3493268952060273
 30
0.0
 10
12.30823405907985
 20
0.35057909289171
 30
0.0
 10
12.30792408395963
 20
0.3523863247455806
 30
0.0
 10
12.30743007278545
 20
0.3540710376484387
 30
0.0
 10
12.30671426958465
 20
0.3556156370044973
 30
0.0
 10
12.30578890553963
 20
0.357017498292894
 30
0.0
 10
12.30466069950676
 20
0.358276069271627
 30
0.0
 10
12.30334412858427
 20
0.35941830330184
 30
0.0
 10
12.30232765885735
 20
0.3600229052214641
 30
0.0
 10
12.30181124444781
 20
0.3603300714213608
 30
0.0
  0
SPLINE
  5
F8
330
1F
100
AcDbEntity
  8
0
  6
Continuous
 62
     7
370
    35
100
AcDbSpline
210
0.0
220
0.0
230
1.0
 70
     8
 71
     3
 72
    19
 73
    15
 74
     0
 42
0.000000001
 43
0.00000001
 40
0.0
 40
0.0
 40
0.0
 40
0.0
 40
0.1551595916613729
 40
0.2854959537028702
 40
0.3905028055298798
 40
0.4709750446262695
 40
0.5384455267337893
 40
0.6036553403942028
 40
0.6665871693156171
 40
0.7301989498865114
 40
0.7949446749029779
 40
0.8602284365898023
 40
0.9281207061405473
 40
1.0
 40
1.0
 40
1.0
 40
1.0
 10
12.28524931228548
 20
0.3347970926711084
 30
0.0
 10
12.28684155311086
 20
0.3348071887137329
 30
0.0
 10
12.28977129988383
 20
0.3348257655821487
 30
0.0
 10
12.29377229938767
 20
0.3350943978992891
 30
0.0
 10
12.29698757954986
 20
0.3355046537086726
 30
0.0
 10
12.29952771058577
 20
0.336093055416776
 30
0.0
 10
12.30153338463091
 20
0.33698603292222
 30
0.0
 10
12.30326315292607
 20
0.3380190397386719
 30
0.0
 10
12.30474681935314
 20
0.3393252485005485
 30
0.0
 10
12.30603145610574
 20
0.3408178155094267
 30
0.0
 10
12.30705848447404
 20
0.3425328498115935
 30
0.0
 10
12.30777067515442
 20
0.3444424254022178
 30
0.0
 10
12.30823330021795
 20
0.3465064200536862
 30
0.0
 10
12.30827602794002
 20
0.3479428237192282
 30
0.0
 10
12.30829800121138
 20
0.3486815124671913
 30
0.0
  0
LINE
  5
FC
330
1F
100
AcDbEntity
  8
0
  6
Continuous
 62
     7
370
    35
100
AcDbLine
 10
11.8419139915
 20
0.2747324854
 30
0.0
 11
11.8419139915
 21
0.25
 31
0.0
  0
LINE
  5
FD
330
1F
100
AcDbEntity
  8
0
  6
Continuous
 62
     7
370
    35
100
AcDbLine
 10
11.8030486574
 20
0.2747324854
 30
0.0
 11
11.8419139915
 21
0.2747324854
 31
0.0
  0
LINE
  5
FE
330
1F
100
AcDbEntity
  8
0
  6
Continuous
 62
     7
370
    35
100
AcDbLine
 10
11.8030486574
 20
0.3877952756
 30
0.0
 11
11.8030486574
 21
0.2747324854
 31
0.0
  0
LINE
  5
FF
330
1F
100
AcDbEntity
  8
0
  6
Continuous
 62
     7
370
    35
100
AcDbLine
 10
11.778316172
 20
0.3877952756
 30
0.0
 11
11.8030486574
 21
0.3877952756
 31
0.0
  0
LINE
  5
100
330
1F
100
AcDbEntity
  8
0
  6
Continuous
 62
     7
370
    35
100
AcDbLine
 10
11.778316172
 20
0.25
 30
0.0
 11
11.778316172
 21
0.3877952756
 31
0.0
  0
LINE
  5
101
330
1F
100
AcDbEntity
  8
0
  6
Continuous
 62
     7
370
    35
100
AcDbLine
 10
11.8419139915
 20
0.25
 30
0.0
 11
11.778316172
 21
0.25
 31
0.0
  0
LINE
  5
102
330
1F
100
AcDbEntity
  8
0
  6
Continuous
 62
     7
370
    35
100
AcDbLine
 10
11.9686403758
 20
0.2912392111
 30
0.0
 11
11.9862236271
 21
0.2727726567
 31
0.0
  0
LINE
  5
103
330
1F
100
AcDbEntity
  8
0
  6
Continuous
 62
     7
370
    35
100
AcDbLine
 10
11.9867756915
 20
0.3638908868
 30
0.0
 11
11.9686403758
 21
0.3465560645
 31
0.0
  0
LINE
  5
104
330
1F
100
AcDbEntity
  8
0
  6
Continuous
 62
     7
370
    35
100
AcDbLine
 10
12.0009085403
 20
0.275809011
 30
0.0
 11
12.0226598779
 21
0.2888653341
 31
0.0
  0
LINE
  5
105
330
1F
100
AcDbEntity
  8
0
  6
Continuous
 62
     7
370
    35
100
AcDbLine
 10
12.0821724208
 20
0.3693839277
 30
0.0
 11
12.0636782632
 21
0.3524631536
 31
0.0
  0
LINE
  5
106
330
1F
100
AcDbEntity
  8
0
  6
Continuous
 62
     7
370
    35
100
AcDbLine
 10
12.1342873006
 20
0.2782656976
 30
0.0
 11
12.1235772512
 21
0.25
 31
0.0
  0
LINE
  5
107
330
1F
100
AcDbEntity
  8
0
  6
Continuous
 62
     7
370
    35
100
AcDbLine
 10
12.1943243047
 20
0.2782656976
 30
0.0
 11
12.1342873006
 21
0.2782656976
 31
0.0
  0
LINE
  5
108
330
1F
100
AcDbEntity
  8
0
  6
Continuous
 62
     7
370
    35
100
AcDbLine
 10
12.2050343542
 20
0.25
 30
0.0
 11
12.1943243047
 21
0.2782656976
 31
0.0
  0
LINE
  5
109
330
1F
100
AcDbEntity
  8
0
  6
Continuous
 62
     7
370
    35
100
AcDbLine
 10
12.231450636
 20
0.25
 30
0.0
 11
12.2050343542
 21
0.25
 31
0.0
  0
LINE
  5
10A
330
1F
100
AcDbEntity
  8
0
  6
Continuous
 62
     7
370
    35
100
AcDbLine
 10
12.1758025439
 20
0.3877952756
 30
0.0
 11
12.231450636
 21
0.25
 31
0.0
  0
LINE
  5
10B
330
1F
100
AcDbEntity
  8
0
  6
Continuous
 62
     7
370
    35
100
AcDbLine
 10
12.1528642679
 20
0.3877952756
 30
0.0
 11
12.1758025439
 21
0.3877952756
 31
0.0
  0
LINE
  5
10C
330
1F
100
AcDbEntity
  8
0
  6
Continuous
 62
     7
370
    35
100
AcDbLine
 10
12.0971885726
 20
0.25
 30
0.0
 11
12.1528642679
 21
0.3877952756
 31
0.0
  0
LINE
  5
10D
330
1F
100
AcDbEntity
  8
0
  6
Continuous
 62
     7
370
    35
100
AcDbLine
 10
12.1235772512
 20
0.25
 30
0.0
 11
12.0971885726
 21
0.25
 31
0.0
  0
LINE
  5
10E
330
1F
100
AcDbEntity
  8
0
  6
Continuous
 62
     7
370
    35
100
AcDbLine
 10
12.4054613366
 20
0.3118312134
 30
0.0
 11
12.4054613366
 21
0.2888653341
 31
0.0
  0
LINE
  5
10F
330
1F
100
AcDbEntity
  8
0
  6
Continuous
 62
     7
370
    35
100
AcDbLine
 10
12.3577629719
 20
0.3118312134
 30
0.0
 11
12.4054613366
 21
0.3118312134
 31
0.0
  0
LINE
  5
110
330
1F
100
AcDbEntity
  8
0
  6
Continuous
 62
     7
370
    35
100
AcDbLine
 10
12.3577629719
 20
0.2888653341
 30
0.0
 11
12.3577629719
 21
0.3118312134
 31
0.0
  0
LINE
  5
111
330
1F
100
AcDbEntity
  8
0
  6
Continuous
 62
     7
370
    35
100
AcDbLine
 10
12.4054613366
 20
0.2888653341
 30
0.0
 11
12.3577629719
 21
0.2888653341
 31
0.0
  0
LINE
  5
112
330
1F
100
AcDbEntity
  8
0
  6
Continuous
 62
     7
370
    35
100
AcDbLine
 10
12.4974628697
 20
0.3802319932
 30
0.0
 11
12.4734480681
 21
0.3330304866
 31
0.0
  0
LINE
  5
113
330
1F
100
AcDbEntity
  8
0
  6
Continuous
 62
     7
370
    35
100
AcDbLine
 10
12.4755735161
 20
0.3913284878
 30
0.0
 11
12.4974628697
 21
0.3802319932
 31
0.0
  0
LINE
  5
114
330
1F
100
AcDbEntity
  8
0
  6
Continuous
 62
     7
370
    35
100
AcDbLine
 10
12.4405726327
 20
0.3225412629
 30
0.0
 11
12.4755735161
 21
0.3913284878
 31
0.0
  0
LINE
  5
115
330
1F
100
AcDbEntity
  8
0
  6
Continuous
 62
     7
370
    35
100
AcDbLine
 10
12.6368867353
 20
0.2835655158
 30
0.0
 11
12.6651524329
 21
0.2835655158
 31
0.0
  0
LINE
  5
116
330
1F
100
AcDbEntity
  8
0
  6
Continuous
 62
     7
370
    35
100
AcDbLine
 10
12.683839813
 20
0.3648293963
 30
0.0
 11
12.678457185
 21
0.3387719564
 31
0.0
  0
LINE
  5
117
330
1F
100
AcDbEntity
  8
0
  6
Continuous
 62
     7
370
    35
100
AcDbLine
 10
12.7269836463
 20
0.3648293963
 30
0.0
 11
12.683839813
 21
0.3648293963
 31
0.0
  0
LINE
  5
118
330
1F
100
AcDbEntity
  8
0
  6
Continuous
 62
     7
370
    35
100
AcDbLine
 10
12.7269836463
 20
0.3877952756
 30
0.0
 11
12.7269836463
 21
0.3648293963
 31
0.0
  0
LINE
  5
119
330
1F
100
AcDbEntity
  8
0
  6
Continuous
 62
     7
370
    35
100
AcDbLine
 10
12.6642415266
 20
0.3877952756
 30
0.0
 11
12.7269836463
 21
0.3877952756
 31
0.0
  0
LINE
  5
11A
330
1F
100
AcDbEntity
  8
0
  6
Continuous
 62
     7
370
    35
100
AcDbLine
 10
12.6480384363
 20
0.3113343554
 30
0.0
 11
12.6642415266
 21
0.3877952756
 31
0.0
  0
LINE
  5
11B
330
1F
100
AcDbEntity
  8
0
  6
Continuous
 62
     7
370
    35
100
AcDbLine
 10
12.6688512644
 20
0.3065589983
 30
0.0
 11
12.6480384363
 21
0.3113343554
 31
0.0
  0
LINE
  5
11C
330
1F
100
AcDbEntity
  8
0
  6
Continuous
 62
     7
370
    35
100
AcDbLine
 10
13.8285964604
 20
2.6320193432
 30
0.0
 11
9.4741051552
 21
7.8215
 31
0.0
  0
LINE
  5
11D
330
1F
100
AcDbEntity
  8
0
  6
Continuous
 62
     7
370
    35
100
AcDbLine
 10
13.8285964604
 20
2.6320193432
 30
0.0
 11
13.6875
 21
2.5136253553
 31
0.0
  0
LINE
  5
11E
330
1F
100
AcDbEntity
  8
0
  6
Continuous
 62
     7
370
    35
100
AcDbLine
 10
13.6875
 20
2.5136253553
 30
0.0
 11
13.5
 21
2.5136253553
 31
0.0
  0
LINE
  5
11F
330
1F
100
AcDbEntity
  8
0
  6
Continuous
 62
     7
370
    35
100
AcDbLine
 10
13.5
 20
0.0
 30
0.0
 11
13.5
 21
2.5136253553
 31
0.0
  0
LINE
  5
120
330
1F
100
AcDbEntity
  8
0
  6
Continuous
 62
     7
370
    35
100
AcDbLine
 10
0.0
 20
0.0
 30
0.0
 11
13.5
 21
0.0
 31
0.0
  0
LINE
  5
121
330
1F
100
AcDbEntity
  8
0
  6
Continuous
 62
     7
370
    35
100
AcDbLine
 10
0.0
 20
3.0875851163
 30
0.0
 11
0.0
 21
0.0
 31
0.0
  0
LINE
  5
122
330
1F
100
AcDbEntity
  8
0
  6
Continuous
 62
     7
370
    35
100
AcDbLine
 10
-0.1775
 20
3.0875851163
 30
0.0
 11
0.0
 21
3.0875851163
 31
0.0
  0
LINE
  5
123
330
1F
100
AcDbEntity
  8
0
  6
Continuous
 62
     7
370
    35
100
AcDbLine
 10
-0.2655981456
 20
3.2530993657
 30
0.0
 11
-0.1775
 21
3.0875851163
 31
0.0
  0
LINE
  5
124
330
1F
100
AcDbEntity
  8
0
  6
Continuous
 62
     7
370
    35
100
AcDbLine
 10
8.4863645515
 20
7.9115
 30
0.0
 11
-0.2655981456
 21
3.2530993657
 31
0.0
  0
LINE
  5
125
330
1F
100
AcDbEntity
  8
0
  6
Continuous
 62
     7
370
    35
100
AcDbLine
 10
12.4086614173
 20
2.64
 30
0.0
 11
11.4086614173
 21
2.64
 31
0.0
  0
LINE
  5
126
330
1F
100
AcDbEntity
  8
0
  6
Continuous
 62
     7
370
    35
100
AcDbLine
 10
11.3586614173
 20
2.59
 30
0.0
 11
11.3586614173
 21
0.975
 31
0.0
  0
LINE
  5
127
330
1F
100
AcDbEntity
  8
0
  6
Continuous
 62
     7
370
    35
100
AcDbLine
 10
11.3586614173
 20
0.975
 30
0.0
 11
11.5690167564
 21
0.7646446609
 31
0.0
  0
LINE
  5
128
330
1F
100
AcDbEntity
  8
0
  6
Continuous
 62
     7
370
    35
100
AcDbLine
 10
11.6043720954
 20
0.75
 30
0.0
 11
12.2129507392
 21
0.75
 31
0.0
  0
LINE
  5
129
330
1F
100
AcDbEntity
  8
0
  6
Continuous
 62
     7
370
    35
100
AcDbLine
 10
12.2483060783
 20
0.7646446609
 30
0.0
 11
12.4586614173
 21
0.975
 31
0.0
  0
LINE
  5
12A
330
1F
100
AcDbEntity
  8
0
  6
Continuous
 62
     7
370
    35
100
AcDbLine
 10
12.4586614173
 20
0.975
 30
0.0
 11
12.4586614173
 21
2.59
 31
0.0
  0
LINE
  5
12B
330
1F
100
AcDbEntity
  8
0
  6
Continuous
 62
     7
370
    35
100
AcDbLine
 10
12.2764990915
 20
0.3100646073
 30
0.0
 11
12.2764990915
 21
0.25
 31
0.0
  0
LINE
  5
12C
330
1F
100
AcDbEntity
  8
0
  6
Continuous
 62
     7
370
    35
100
AcDbLine
 10
12.2517666061
 20
0.3877952756
 30
0.0
 11
12.2793698264
 21
0.3877952756
 31
0.0
  0
LINE
  5
12D
330
1F
100
AcDbEntity
  8
0
  6
Continuous
 62
     7
370
    35
100
AcDbLine
 10
12.2517666061
 20
0.25
 30
0.0
 11
12.2517666061
 21
0.3877952756
 31
0.0
  0
LINE
  5
12E
330
1F
100
AcDbEntity
  8
0
  6
Continuous
 62
     7
370
    35
100
AcDbLine
 10
12.2764990915
 20
0.25
 30
0.0
 11
12.2517666061
 21
0.25
 31
0.0
  0
LINE
  5
12F
330
1F
100
AcDbEntity
  8
0
  6
Continuous
 62
     7
370
    35
100
AcDbLine
 10
12.2764990915
 20
0.3347970927
 30
0.0
 11
12.2852493123
 21
0.3347970927
 31
0.0
  0
LINE
  5
130
330
1F
100
AcDbEntity
  8
0
  6
Continuous
 62
     7
370
    35
100
AcDbLine
 10
12.2764990915
 20
0.3630627902
 30
0.0
 11
12.2764990915
 21
0.3347970927
 31
0.0
  0
LINE
  5
131
330
1F
100
AcDbEntity
  8
0
  6
Continuous
 62
     7
370
    35
100
AcDbLine
 10
12.2842831996
 20
0.3630627902
 30
0.0
 11
12.2764990915
 21
0.3630627902
 31
0.0
  0
LINE
  5
132
330
1F
100
AcDbEntity
  8
0
  6
Continuous
 62
     7
370
    35
100
AcDbLine
 10
12.1643196043
 20
0.3508345636
 30
0.0
 11
12.1436723955
 21
0.3029981829
 31
0.0
  0
LINE
  5
133
330
1F
100
AcDbEntity
  8
0
  6
Continuous
 62
     7
370
    35
100
AcDbLine
 10
12.184966813
 20
0.3029981829
 30
0.0
 11
12.1643196043
 21
0.3508345636
 31
0.0
  0
LINE
  5
134
330
1F
100
AcDbEntity
  8
0
  6
Continuous
 62
     7
370
    35
100
AcDbLine
 10
12.1436723955
 20
0.3029981829
 30
0.0
 11
12.184966813
 21
0.3029981829
 31
0.0
  0
ARC
  5
135
330
1F
100
AcDbEntity
  8
0
  6
Continuous
 62
     7
370
    35
100
AcDbCircle
 10
9.0073023765
 20
6.9327888994
 30
0.0
 40
1.108716210756969
100
AcDbArc
 50
90.5750087506
 51
118.025
  0
ARC
  5
136
330
1F
100
AcDbEntity
  8
0
  6
Continuous
 62
     7
370
    35
100
AcDbCircle
 10
9.002355903
 20
7.4256553765
 30
0.0
 40
0.6158249125612243
100
AcDbArc
 50
40.0
 51
90.5750087506
  0
ARC
  5
137
330
1F
100
AcDbEntity
  8
0
  6
Continuous
 62
     7
370
    35
100
AcDbCircle
 10
12.4086614173
 20
2.59
 30
0.0
 40
0.0500000000000025
100
AcDbArc
 50
0.0
 51
90.0
  0
ARC
  5
138
330
1F
100
AcDbEntity
  8
0
  6
Continuous
 62
     7
370
    35
100
AcDbCircle
 10
11.4086614173
 20
2.59
 30
0.0
 40
0.0499999999999989
100
AcDbArc
 50
90.0
 51
180.0
  0
ARC
  5
139
330
1F
100
AcDbEntity
  8
0
  6
Continuous
 62
     7
370
    35
100
AcDbCircle
 10
11.6043720954
 20
0.8
 30
0.0
 40
0.0500000000000029
100
AcDbArc
 50
225.0
 51
270.0
  0
ARC
  5
13A
330
1F
100
AcDbEntity
  8
0
  6
Continuous
 62
     7
370
    35
100
AcDbCircle
 10
12.2129507392
 20
0.8
 30
0.0
 40
0.0500000000000035
100
AcDbArc
 50
270.0
 51
315.0
  0
MTEXT
  5
13C
330
1F
100
AcDbEntity
  8
0
  6
Continuous
 62
     7
100
AcDbMText
 10
-0.2655981456
 20
-0.0401404091
 30
0.0
 40
0.1903
 41
0.0
 71
     1
 72
     1
  1
SOLIDWORKS Educational Product.
  7
SLDTEXTSTYLE0
 73
     1
 44
1.0
  0
MTEXT
  5
13D
330
1F
100
AcDbEntity
  8
0
  6
Continuous
 62
     7
100
AcDbMText
 10
-0.2655981456
 20
-0.3255904091
 30
0.0
 40
0.1903
 41
0.0
 71
     1
 72
     1
  1
For Instructional Use Only.
  7
SLDTEXTSTYLE0
 73
     1
 44
1.0
  0
ENDSEC
  0
SECTION
  2
OBJECTS
  0
DICTIONARY
  5
C
330
0
100
AcDbDictionary
281
     1
  3
ACAD_GROUP
350
D
  3
ACAD_LAYOUT
350
1A
  3
ACAD_MLINESTYLE
350
17
  3
ACAD_PLOTSETTINGS
350
19
  3
ACAD_PLOTSTYLENAME
350
E
  3
ACAD_SCALELIST
350
47
  0
DICTIONARY
  5
D
102
{ACAD_REACTORS
330
C
102
}
330
C
100
AcDbDictionary
281
     1
  0
DICTIONARY
  5
1A
102
{ACAD_REACTORS
330
C
102
}
330
C
100
AcDbDictionary
281
     1
  3
Layout1
350
1E
  3
Layout2
350
26
  3
Model
350
22
  0
DICTIONARY
  5
17
102
{ACAD_REACTORS
330
C
102
}
330
C
100
AcDbDictionary
281
     1
  3
Standard
350
18
  0
DICTIONARY
  5
19
102
{ACAD_REACTORS
330
C
102
}
330
C
100
AcDbDictionary
281
     1
  0
ACDBDICTIONARYWDFLT
  5
E
102
{ACAD_REACTORS
330
C
102
}
330
C
100
AcDbDictionary
281
     1
  3
Normal
350
F
100
AcDbDictionaryWithDefault
340
F
  0
DICTIONARY
  5
47
102
{ACAD_REACTORS
330
C
102
}
330
C
100
AcDbDictionary
281
     1
  3
A0
350
48
  3
A1
350
49
  3
A2
350
4A
  3
A3
350
4B
  3
A4
350
4C
  3
A5
350
4D
  3
A6
350
4E
  3
A7
350
4F
  3
A8
350
50
  3
A9
350
51
  3
B0
350
52
  3
B1
350
53
  3
B2
350
54
  3
B3
350
55
  3
B4
350
56
  3
B5
350
57
  3
B6
350
58
  3
B7
350
59
  3
B8
350
5A
  3
B9
350
5B
  3
C0
350
5C
  3
C1
350
5D
  3
C2
350
5E
  3
C3
350
5F
  3
C4
350
60
  3
C5
350
61
  3
C6
350
62
  3
C7
350
63
  3
C8
350
64
  3
C9
350
65
  3
D0
350
66
  3
D1
350
67
  3
D2
350
68
  0
LAYOUT
  5
1E
102
{ACAD_REACTORS
330
1A
102
}
330
1A
100
AcDbPlotSettings
  1

  2
none_device
  4

  6

 40
0.0
 41
0.0
 42
0.0
 43
0.0
 44
0.0
 45
0.0
 46
0.0
 47
0.0
 48
0.0
 49
0.0
140
0.0
141
0.0
142
1.0
143
1.0
 70
   688
 72
     0
 73
     0
 74
     5
  7

 75
    16
147
1.0
148
0.0
149
0.0
100
AcDbLayout
  1
Layout1
 70
     1
 71
     1
 10
0.0
 20
0.0
 11
12.0
 21
9.0
 12
0.0
 22
0.0
 32
0.0
 14
1.0000000000E+20
 24
1.0000000000E+20
 34
1.0000000000E+20
 15
-1.0000000000E+20
 25
-1.0000000000E+20
 35
-1.0000000000E+20
146
0.0
 13
0.0
 23
0.0
 33
0.0
 16
1.0
 26
0.0
 36
0.0
 17
0.0
 27
1.0
 37
0.0
 76
     0
330
1B
  0
LAYOUT
  5
26
102
{ACAD_REACTORS
330
1A
102
}
330
1A
100
AcDbPlotSettings
  1

  2
none_device
  4

  6

 40
0.0
 41
0.0
 42
0.0
 43
0.0
 44
0.0
 45
0.0
 46
0.0
 47
0.0
 48
0.0
 49
0.0
140
0.0
141
0.0
142
1.0
143
1.0
 70
   688
 72
     0
 73
     0
 74
     5
  7

 75
    16
147
1.0
148
0.0
149
0.0
100
AcDbLayout
  1
Layout2
 70
     1
 71
     2
 10
0.0
 20
0.0
 11
0.0
 21
0.0
 12
0.0
 22
0.0
 32
0.0
 14
0.0
 24
0.0
 34
0.0
 15
0.0
 25
0.0
 35
0.0
146
0.0
 13
0.0
 23
0.0
 33
0.0
 16
1.0
 26
0.0
 36
0.0
 17
0.0
 27
1.0
 37
0.0
 76
     0
330
23
  0
LAYOUT
  5
22
102
{ACAD_REACTORS
330
1A
102
}
330
1A
100
AcDbPlotSettings
  1

  2
none_device
  4
ANSI_A_(11.00_x_8.50_Inches)
  6

 40
6.35
 41
19.05
 42
6.35000508
 43
19.05000254
 44
279.4
 45
215.9
 46
0.2595010987
 47
9.9908535461
 48
0.0
 49
0.0
140
0.0
141
0.0
142
0.7726585523
143
1.0
 70
  1696
 72
     0
 73
     0
 74
     0
  7

 75
     0
147
0.5913241897
148
-39.4088153714
149
0.0
100
AcDbLayout
  1
Model
 70
     1
 71
     0
 10
0.0
 20
0.0
 11
12.0
 21
9.0
 12
0.0
 22
0.0
 32
0.0
 14
-0.2655981456
 24
0.0
 34
0.0
 15
13.8285964604
 25
8.041480289
 35
0.0
146
0.0
 13
0.0
 23
0.0
 33
0.0
 16
1.0
 26
0.0
 36
0.0
 17
0.0
 27
1.0
 37
0.0
 76
     0
330
1F
331
29
  0
MLINESTYLE
  5
18
102
{ACAD_REACTORS
330
17
102
}
330
17
100
AcDbMlineStyle
  2
Standard
 70
     0
  3

 62
   256
 51
90.0
 52
90.0
 71
     2
 49
0.5
 62
   256
  6
BYLAYER
 49
-0.5
 62
   256
  6
BYLAYER
  0
ACDBPLACEHOLDER
  5
F
102
{ACAD_REACTORS
330
E
102
}
330
E
  0
SCALE
  5
48
102
{ACAD_REACTORS
330
47
102
}
330
47
100
AcDbScale
 70
     0
300
1:1
140
1.0
141
1.0
290
     1
  0
SCALE
  5
49
102
{ACAD_REACTORS
330
47
102
}
330
47
100
AcDbScale
 70
     0
300
1:2
140
1.0
141
2.0
290
     0
  0
SCALE
  5
4A
102
{ACAD_REACTORS
330
47
102
}
330
47
100
AcDbScale
 70
     0
300
1:4
140
1.0
141
4.0
290
     0
  0
SCALE
  5
4B
102
{ACAD_REACTORS
330
47
102
}
330
47
100
AcDbScale
 70
     0
300
1:5
140
1.0
141
5.0
290
     0
  0
SCALE
  5
4C
102
{ACAD_REACTORS
330
47
102
}
330
47
100
AcDbScale
 70
     0
300
1:8
140
1.0
141
8.0
290
     0
  0
SCALE
  5
4D
102
{ACAD_REACTORS
330
47
102
}
330
47
100
AcDbScale
 70
     0
300
1:10
140
1.0
141
10.0
290
     0
  0
SCALE
  5
4E
102
{ACAD_REACTORS
330
47
102
}
330
47
100
AcDbScale
 70
     0
300
1:16
140
1.0
141
16.0
290
     0
  0
SCALE
  5
4F
102
{ACAD_REACTORS
330
47
102
}
330
47
100
AcDbScale
 70
     0
300
1:20
140
1.0
141
20.0
290
     0
  0
SCALE
  5
50
102
{ACAD_REACTORS
330
47
102
}
330
47
100
AcDbScale
 70
     0
300
1:30
140
1.0
141
30.0
290
     0
  0
SCALE
  5
51
102
{ACAD_REACTORS
330
47
102
}
330
47
100
AcDbScale
 70
     0
300
1:40
140
1.0
141
40.0
290
     0
  0
SCALE
  5
52
102
{ACAD_REACTORS
330
47
102
}
330
47
100
AcDbScale
 70
     0
300
1:50
140
1.0
141
50.0
290
     0
  0
SCALE
  5
53
102
{ACAD_REACTORS
330
47
102
}
330
47
100
AcDbScale
 70
     0
300
1:100
140
1.0
141
100.0
290
     0
  0
SCALE
  5
54
102
{ACAD_REACTORS
330
47
102
}
330
47
100
AcDbScale
 70
     0
300
2:1
140
2.0
141
1.0
290
     0
  0
SCALE
  5
55
102
{ACAD_REACTORS
330
47
102
}
330
47
100
AcDbScale
 70
     0
300
4:1
140
4.0
141
1.0
290
     0
  0
SCALE
  5
56
102
{ACAD_REACTORS
330
47
102
}
330
47
100
AcDbScale
 70
     0
300
8:1
140
8.0
141
1.0
290
     0
  0
SCALE
  5
57
102
{ACAD_REACTORS
330
47
102
}
330
47
100
AcDbScale
 70
     0
300
10:1
140
10.0
141
1.0
290
     0
  0
SCALE
  5
58
102
{ACAD_REACTORS
330
47
102
}
330
47
100
AcDbScale
 70
     0
300
100:1
140
100.0
141
1.0
290
     0
  0
SCALE
  5
59
102
{ACAD_REACTORS
330
47
102
}
330
47
100
AcDbScale
 70
     0
300
1/128" = 1'-0"
140
0.0078125
141
12.0
290
     0
  0
SCALE
  5
5A
102
{ACAD_REACTORS
330
47
102
}
330
47
100
AcDbScale
 70
     0
300
1/64" = 1'-0"
140
0.015625
141
12.0
290
     0
  0
SCALE
  5
5B
102
{ACAD_REACTORS
330
47
102
}
330
47
100
AcDbScale
 70
     0
300
1/32" = 1'-0"
140
0.03125
141
12.0
290
     0
  0
SCALE
  5
5C
102
{ACAD_REACTORS
330
47
102
}
330
47
100
AcDbScale
 70
     0
300
1/16" = 1'-0"
140
0.0625
141
12.0
290
     0
  0
SCALE
  5
5D
102
{ACAD_REACTORS
330
47
102
}
330
47
100
AcDbScale
 70
     0
300
3/32" = 1'-0"
140
0.09375
141
12.0
290
     0
  0
SCALE
  5
5E
102
{ACAD_REACTORS
330
47
102
}
330
47
100
AcDbScale
 70
     0
300
1/8" = 1'-0"
140
0.125
141
12.0
290
     0
  0
SCALE
  5
5F
102
{ACAD_REACTORS
330
47
102
}
330
47
100
AcDbScale
 70
     0
300
3/16" = 1'-0"
140
0.1875
141
12.0
290
     0
  0
SCALE
  5
60
102
{ACAD_REACTORS
330
47
102
}
330
47
100
AcDbScale
 70
     0
300
1/4" = 1'-0"
140
0.25
141
12.0
290
     0
  0
SCALE
  5
61
102
{ACAD_REACTORS
330
47
102
}
330
47
100
AcDbScale
 70
     0
300
3/8" = 1'-0"
140
0.375
141
12.0
290
     0
  0
SCALE
  5
62
102
{ACAD_REACTORS
330
47
102
}
330
47
100
AcDbScale
 70
     0
300
1/2" = 1'-0"
140
0.5
141
12.0
290
     0
  0
SCALE
  5
63
102
{ACAD_REACTORS
330
47
102
}
330
47
100
AcDbScale
 70
     0
300
3/4" = 1'-0"
140
0.75
141
12.0
290
     0
  0
SCALE
  5
64
102
{ACAD_REACTORS
330
47
102
}
330
47
100
AcDbScale
 70
     0
300
1" = 1'-0"
140
1.0
141
12.0
290
     0
  0
SCALE
  5
65
102
{ACAD_REACTORS
330
47
102
}
330
47
100
AcDbScale
 70
     0
300
1-1/2" = 1'-0"
140
1.5
141
12.0
290
     0
  0
SCALE
  5
66
102
{ACAD_REACTORS
330
47
102
}
330
47
100
AcDbScale
 70
     0
300
3" = 1'-0"
140
3.0
141
12.0
290
     0
  0
SCALE
  5
67
102
{ACAD_REACTORS
330
47
102
}
330
47
100
AcDbScale
 70
     0
300
6" = 1'-0"
140
6.0
141
12.0
290
     0
  0
SCALE
  5
68
102
{ACAD_REACTORS
330
47
102
}
330
47
100
AcDbScale
 70
     0
300
1'-0" = 1'-0"
140
12.0
141
12.0
290
     0
  0
ENDSEC
  0
EOF
