  0
SECTION
  2
HEADER
  9
$ACADVER
  1
AC1015
  9
$ACADMAINTVER
 70
     6
  9
$DWGCODEPAGE
  3
ANSI_1252
  9
$INSBASE
 10
0.0
 20
0.0
 30
0.0
  9
$EXTMIN
 10
-15.96
 20
0.0
 30
0.0
  9
$EXTMAX
 10
0.0
 20
9.915
 30
0.0
  9
$LIMMIN
 10
0.0
 20
0.0
  9
$LIMMAX
 10
12.0
 20
9.0
  9
$ORTHOMODE
 70
     0
  9
$REGENMODE
 70
     1
  9
$FILLMODE
 70
     1
  9
$QTEXTMODE
 70
     0
  9
$MIRRTEXT
 70
     1
  9
$LTSCALE
 40
1.0
  9
$ATTMODE
 70
     1
  9
$TEXTSIZE
 40
0.15
  9
$TRACEWID
 40
0.05
  9
$TEXTSTYLE
  7
Standard
  9
$CLAYER
  8
0
  9
$CELTYPE
  6
ByLayer
  9
$CECOLOR
 62
   256
  9
$CELTSCALE
 40
1.0
  9
$DISPSILH
 70
     0
  9
$DIMSCALE
 40
1.0
  9
$DIMASZ
 40
0.15
  9
$DIMEXO
 40
0.09
  9
$DIMDLI
 40
0.38
  9
$DIMRND
 40
0.0
  9
$DIMDLE
 40
0.0
  9
$DIMEXE
 40
0.125
  9
$DIMTP
 40
0.0
  9
$DIMTM
 40
0.0
  9
$DIMTXT
 40
0.15
  9
$DIMCEN
 40
0.09
  9
$DIMTSZ
 40
0.0
  9
$DIMTOL
 70
     0
  9
$DIMLIM
 70
     0
  9
$DIMTIH
 70
     1
  9
$DIMTOH
 70
     1
  9
$DIMSE1
 70
     0
  9
$DIMSE2
 70
     0
  9
$DIMTAD
 70
     0
  9
$DIMZIN
 70
     0
  9
$DIMBLK
  1

  9
$DIMASO
 70
     1
  9
$DIMSHO
 70
     1
  9
$DIMPOST
  1

  9
$DIMAPOST
  1

  9
$DIMALT
 70
     0
  9
$DIMALTD
 70
     2
  9
$DIMALTF
 40
25.4
  9
$DIMLFAC
 40
1.0
  9
$DIMTOFL
 70
     0
  9
$DIMTVP
 40
0.0
  9
$DIMTIX
 70
     0
  9
$DIMSOXD
 70
     0
  9
$DIMSAH
 70
     0
  9
$DIMBLK1
  1

  9
$DIMBLK2
  1

  9
$DIMSTYLE
  2
Standard
  9
$DIMCLRD
 70
     0
  9
$DIMCLRE
 70
     0
  9
$DIMCLRT
 70
     0
  9
$DIMTFAC
 40
1.0
  9
$DIMGAP
 40
0.09
  9
$DIMJUST
 70
     0
  9
$DIMSD1
 70
     0
  9
$DIMSD2
 70
     0
  9
$DIMTOLJ
 70
     1
  9
$DIMTZIN
 70
     0
  9
$DIMALTZ
 70
     0
  9
$DIMALTTZ
 70
     0
  9
$DIMUPT
 70
     0
  9
$DIMDEC
 70
     4
  9
$DIMTDEC
 70
     4
  9
$DIMALTU
 70
     2
  9
$DIMALTTD
 70
     2
  9
$DIMTXSTY
  7
Standard
  9
$DIMAUNIT
 70
     0
  9
$DIMADEC
 70
     2
  9
$DIMALTRND
 40
0.0
  9
$DIMAZIN
 70
     0
  9
$DIMDSEP
 70
    46
  9
$DIMATFIT
 70
     3
  9
$DIMFRAC
 70
     0
  9
$DIMLDRBLK
  1

  9
$DIMLUNIT
 70
     2
  9
$DIMLWD
 70
    -2
  9
$DIMLWE
 70
    -2
  9
$DIMTMOVE
 70
     0
  9
$LUNITS
 70
     2
  9
$LUPREC
 70
     4
  9
$SKETCHINC
 40
0.1
  9
$FILLETRAD
 40
0.5
  9
$AUNITS
 70
     0
  9
$AUPREC
 70
     2
  9
$MENU
  1
.
  9
$ELEVATION
 40
0.0
  9
$PELEVATION
 40
0.0
  9
$THICKNESS
 40
0.0
  9
$LIMCHECK
 70
     0
  9
$CHAMFERA
 40
0.0
  9
$CHAMFERB
 40
0.0
  9
$CHAMFERC
 40
0.0
  9
$CHAMFERD
 40
0.0
  9
$SKPOLY
 70
     0
  9
$TDCREATE
 40
2458228.461794965
  9
$TDUCREATE
 40
2458228.753461632
  9
$TDUPDATE
 40
2458228.461832813
  9
$TDUUPDATE
 40
2458228.753499479
  9
$TDINDWG
 40
0.0000000116
  9
$TDUSRTIMER
 40
0.0000000116
  9
$USRTIMER
 70
     1
  9
$ANGBASE
 50
0.0
  9
$ANGDIR
 70
     0
  9
$PDMODE
 70
     0
  9
$PDSIZE
 40
-1.0
  9
$PLINEWID
 40
0.0
  9
$SPLFRAME
 70
     0
  9
$SPLINETYPE
 70
     6
  9
$SPLINESEGS
 70
     8
  9
$HANDSEED
  5
114
  9
$SURFTAB1
 70
     6
  9
$SURFTAB2
 70
     6
  9
$SURFTYPE
 70
     6
  9
$SURFU
 70
     6
  9
$SURFV
 70
     6
  9
$UCSBASE
  2

  9
$UCSNAME
  2

  9
$UCSORG
 10
0.0
 20
0.0
 30
0.0
  9
$UCSXDIR
 10
1.0
 20
0.0
 30
0.0
  9
$UCSYDIR
 10
0.0
 20
1.0
 30
0.0
  9
$UCSORTHOREF
  2

  9
$UCSORTHOVIEW
 70
     0
  9
$UCSORGTOP
 10
0.0
 20
0.0
 30
0.0
  9
$UCSORGBOTTOM
 10
0.0
 20
0.0
 30
0.0
  9
$UCSORGLEFT
 10
0.0
 20
0.0
 30
0.0
  9
$UCSORGRIGHT
 10
0.0
 20
0.0
 30
0.0
  9
$UCSORGFRONT
 10
0.0
 20
0.0
 30
0.0
  9
$UCSORGBACK
 10
0.0
 20
0.0
 30
0.0
  9
$PUCSBASE
  2

  9
$PUCSNAME
  2

  9
$PUCSORG
 10
0.0
 20
0.0
 30
0.0
  9
$PUCSXDIR
 10
1.0
 20
0.0
 30
0.0
  9
$PUCSYDIR
 10
0.0
 20
1.0
 30
0.0
  9
$PUCSORTHOREF
  2

  9
$PUCSORTHOVIEW
 70
     0
  9
$PUCSORGTOP
 10
0.0
 20
0.0
 30
0.0
  9
$PUCSORGBOTTOM
 10
0.0
 20
0.0
 30
0.0
  9
$PUCSORGLEFT
 10
0.0
 20
0.0
 30
0.0
  9
$PUCSORGRIGHT
 10
0.0
 20
0.0
 30
0.0
  9
$PUCSORGFRONT
 10
0.0
 20
0.0
 30
0.0
  9
$PUCSORGBACK
 10
0.0
 20
0.0
 30
0.0
  9
$USERI1
 70
     0
  9
$USERI2
 70
     0
  9
$USERI3
 70
     0
  9
$USERI4
 70
     0
  9
$USERI5
 70
     0
  9
$USERR1
 40
0.0
  9
$USERR2
 40
0.0
  9
$USERR3
 40
0.0
  9
$USERR4
 40
0.0
  9
$USERR5
 40
0.0
  9
$WORLDVIEW
 70
     1
  9
$SHADEDGE
 70
     3
  9
$SHADEDIF
 70
    70
  9
$TILEMODE
 70
     1
  9
$MAXACTVP
 70
    64
  9
$PINSBASE
 10
0.0
 20
0.0
 30
0.0
  9
$PLIMCHECK
 70
     0
  9
$PEXTMIN
 10
1.0000000000E+20
 20
1.0000000000E+20
 30
1.0000000000E+20
  9
$PEXTMAX
 10
-1.0000000000E+20
 20
-1.0000000000E+20
 30
-1.0000000000E+20
  9
$PLIMMIN
 10
0.0
 20
0.0
  9
$PLIMMAX
 10
12.0
 20
9.0
  9
$UNITMODE
 70
     0
  9
$VISRETAIN
 70
     1
  9
$PLINEGEN
 70
     0
  9
$PSLTSCALE
 70
     1
  9
$TREEDEPTH
 70
  3020
  9
$CMLSTYLE
  2
Standard
  9
$CMLJUST
 70
     0
  9
$CMLSCALE
 40
1.0
  9
$PROXYGRAPHICS
 70
     1
  9
$MEASUREMENT
 70
     0
  9
$CELWEIGHT
370
    -1
  9
$ENDCAPS
280
     0
  9
$JOINSTYLE
280
     0
  9
$LWDISPLAY
290
     1
  9
$INSUNITS
 70
     1
  9
$HYPERLINKBASE
  1

  9
$STYLESHEET
  1

  9
$XEDIT
290
     1
  9
$CEPSNTYPE
380
     0
  9
$PSTYLEMODE
290
     1
  9
$FINGERPRINTGUID
  2
{57AB31AC-045B-4652-831A-203C3FD9A111}
  9
$VERSIONGUID
  2
{FAEB1C32-E019-11D5-929B-00C0DF256EC4}
  9
$EXTNAMES
290
     1
  9
$PSVPSCALE
 40
0.0
  9
$OLESTARTUP
290
     0
  0
ENDSEC
  0
SECTION
  2
CLASSES
  0
CLASS
  1
ACDBDICTIONARYWDFLT
  2
AcDbDictionaryWithDefault
  3
ObjectDBX Classes
 90
        0
280
     0
281
     0
  0
CLASS
  1
VISUALSTYLE
  2
AcDbVisualStyle
  3
ObjectDBX Classes
 90
     4095
280
     0
281
     0
  0
CLASS
  1
MATERIAL
  2
AcDbMaterial
  3
ObjectDBX Classes
 90
     1153
280
     0
281
     0
  0
CLASS
  1
SCALE
  2
AcDbScale
  3
ObjectDBX Classes
 90
     1153
280
     0
281
     0
  0
CLASS
  1
TABLESTYLE
  2
AcDbTableStyle
  3
ObjectDBX Classes
 90
     4095
280
     0
281
     0
  0
CLASS
  1
MLEADERSTYLE
  2
AcDbMLeaderStyle
  3
ACDB_MLEADERSTYLE_CLASS
 90
     4095
280
     0
281
     0
  0
CLASS
  1
SUN
  2
AcDbSun
  3
SCENEOE
 90
     1153
280
     0
281
     0
  0
CLASS
  1
ACDBPLACEHOLDER
  2
AcDbPlaceHolder
  3
ObjectDBX Classes
 90
        0
280
     0
281
     0
  0
CLASS
  1
LAYOUT
  2
AcDbLayout
  3
ObjectDBX Classes
 90
        0
280
     0
281
     0
  0
ENDSEC
  0
SECTION
  2
TABLES
  0
TABLE
  2
VPORT
  5
8
330
0
100
AcDbSymbolTable
 70
     1
  0
VPORT
  5
29
330
8
100
AcDbSymbolTableRecord
100
AcDbViewportTableRecord
  2
*Active
 70
     0
 10
0.0
 20
0.0
 11
1.0
 21
1.0
 12
-7.98
 22
4.9575
 13
0.0
 23
0.0
 14
0.5
 24
0.5
 15
0.5
 25
0.5
 16
0.0
 26
0.0
 36
1.0
 17
0.0
 27
0.0
 37
0.0
 40
10.1133
 41
1.6096822995
 42
50.0
 43
0.0
 44
0.0
 50
0.0
 51
0.0
 71
     0
 72
   100
 73
     1
 74
     3
 75
     0
 76
     0
 77
     0
 78
     0
281
     0
 65
     1
110
0.0
120
0.0
130
0.0
111
1.0
121
0.0
131
0.0
112
0.0
122
1.0
132
0.0
 79
     0
146
0.0
  0
ENDTAB
  0
TABLE
  2
LTYPE
  5
5
330
0
100
AcDbSymbolTable
 70
     6
  0
LTYPE
  5
14
330
5
100
AcDbSymbolTableRecord
100
AcDbLinetypeTableRecord
  2
ByBlock
 70
     0
  3

 72
    65
 73
     0
 40
0.0
  0
LTYPE
  5
15
330
5
100
AcDbSymbolTableRecord
100
AcDbLinetypeTableRecord
  2
ByLayer
 70
     0
  3

 72
    65
 73
     0
 40
0.0
  0
LTYPE
  5
16
330
5
100
AcDbSymbolTableRecord
100
AcDbLinetypeTableRecord
  2
Continuous
 70
     0
  3
Solid line
 72
    65
 73
     0
 40
0.0
  0
LTYPE
  5
6E
330
5
100
AcDbSymbolTableRecord
100
AcDbLinetypeTableRecord
  2
HIDDEN
 70
     0
  3
Hidden __ __ __ __ __ __ __ __ __ __ __ __ __ __
 72
    65
 73
     2
 40
0.075
 49
0.05
 74
     0
 49
-0.025
 74
     0
  0
LTYPE
  5
6F
330
5
100
AcDbSymbolTableRecord
100
AcDbLinetypeTableRecord
  2
PHANTOM
 70
     0
  3
Phantom ______  __  __  ______  __  __  ______
 72
    65
 73
     6
 40
0.5
 49
0.25
 74
     0
 49
-0.05
 74
     0
 49
0.05
 74
     0
 49
-0.05
 74
     0
 49
0.05
 74
     0
 49
-0.05
 74
     0
  0
LTYPE
  5
70
330
5
100
AcDbSymbolTableRecord
100
AcDbLinetypeTableRecord
  2
CENTER
 70
     0
  3
Center ____ _ ____ _ ____ _ ____ _ ____ _ ____
 72
    65
 73
     4
 40
0.4
 49
0.25
 74
     0
 49
-0.05
 74
     0
 49
0.05
 74
     0
 49
-0.05
 74
     0
  0
LTYPE
  5
71
330
5
100
AcDbSymbolTableRecord
100
AcDbLinetypeTableRecord
  2
CENTERX2
 70
     0
  3
Center (2x) ________  __  ________  __  _____
 72
    65
 73
     4
 40
0.8
 49
0.5
 74
     0
 49
-0.1
 74
     0
 49
0.1
 74
     0
 49
-0.1
 74
     0
  0
LTYPE
  5
72
330
5
100
AcDbSymbolTableRecord
100
AcDbLinetypeTableRecord
  2
DOT2
 70
     0
  3
Dot (.5x) ........................................
 72
    65
 73
     2
 40
0.025
 49
0.0
 74
     0
 49
-0.025
 74
     0
  0
ENDTAB
  0
TABLE
  2
LAYER
  5
2
330
0
100
AcDbSymbolTable
 70
     1
  0
LAYER
  5
10
330
2
100
AcDbSymbolTableRecord
100
AcDbLayerTableRecord
  2
0
 70
     0
 62
     7
  6
Continuous
370
    -3
390
F
  0
ENDTAB
  0
TABLE
  2
STYLE
  5
3
330
0
100
AcDbSymbolTable
 70
     2
  0
STYLE
  5
11
330
3
100
AcDbSymbolTableRecord
100
AcDbTextStyleTableRecord
  2
Standard
 70
     0
 40
0.0
 41
1.0
 50
0.0
 71
     0
 42
0.15
  3
txt
  4

  0
STYLE
  5
111
330
3
100
AcDbSymbolTableRecord
100
AcDbTextStyleTableRecord
  2
SLDTEXTSTYLE0
 70
     0
 40
0.0
 41
0.7
 50
0.0
 71
     0
 42
0.15
  3
TXT
  4

  0
ENDTAB
  0
TABLE
  2
VIEW
  5
6
330
0
100
AcDbSymbolTable
 70
     0
  0
ENDTAB
  0
TABLE
  2
UCS
  5
7
330
0
100
AcDbSymbolTable
 70
     0
  0
ENDTAB
  0
TABLE
  2
APPID
  5
9
330
0
100
AcDbSymbolTable
 70
     1
  0
APPID
  5
12
330
9
100
AcDbSymbolTableRecord
100
AcDbRegAppTableRecord
  2
ACAD
 70
     0
  0
ENDTAB
  0
TABLE
  2
DIMSTYLE
  5
A
330
0
100
AcDbSymbolTable
 70
     1
100
AcDbDimStyleTable
  0
DIMSTYLE
105
27
330
A
100
AcDbSymbolTableRecord
100
AcDbDimStyleTableRecord
  2
Standard
 70
     0
178
     0
340
11
  0
ENDTAB
  0
TABLE
  2
BLOCK_RECORD
  5
1
330
0
100
AcDbSymbolTable
 70
     1
  0
BLOCK_RECORD
  5
1F
330
1
100
AcDbSymbolTableRecord
100
AcDbBlockTableRecord
  2
*Model_Space
340
22
  0
BLOCK_RECORD
  5
1B
330
1
100
AcDbSymbolTableRecord
100
AcDbBlockTableRecord
  2
*Paper_Space
340
1E
  0
BLOCK_RECORD
  5
23
330
1
100
AcDbSymbolTableRecord
100
AcDbBlockTableRecord
  2
*Paper_Space0
340
26
  0
ENDTAB
  0
ENDSEC
  0
SECTION
  2
BLOCKS
  0
BLOCK
  5
20
330
1F
100
AcDbEntity
  8
0
100
AcDbBlockBegin
  2
*Model_Space
 70
     0
 10
0.0
 20
0.0
 30
0.0
  3
*Model_Space
  1

  0
ENDBLK
  5
21
330
1F
100
AcDbEntity
  8
0
100
AcDbBlockEnd
  0
BLOCK
  5
1C
330
1B
100
AcDbEntity
 67
     1
  8
0
100
AcDbBlockBegin
  2
*Paper_Space
 70
     0
 10
0.0
 20
0.0
 30
0.0
  3
*Paper_Space
  1

  0
ENDBLK
  5
1D
330
1B
100
AcDbEntity
 67
     1
  8
0
100
AcDbBlockEnd
  0
BLOCK
  5
24
330
23
100
AcDbEntity
  8
0
100
AcDbBlockBegin
  2
*Paper_Space0
 70
     0
 10
0.0
 20
0.0
 30
0.0
  3
*Paper_Space0
  1

  0
ENDBLK
  5
25
330
23
100
AcDbEntity
  8
0
100
AcDbBlockEnd
  0
ENDSEC
  0
SECTION
  2
ENTITIES
  0
SPLINE
  5
79
330
1F
100
AcDbEntity
  8
0
  6
Continuous
 62
     7
370
    35
100
AcDbSpline
210
0.0
220
0.0
230
1.0
 70
     8
 71
     3
 72
    31
 73
    27
 74
     0
 42
0.000000001
 43
0.00000001
 40
0.0
 40
0.0
 40
0.0
 40
0.0
 40
0.0382173379691359
 40
0.0748672030399435
 40
0.1101580815531039
 40
0.1444539266593005
 40
0.1780797262741528
 40
0.211170772593597
 40
0.2436870542144176
 40
0.2758717334447985
 40
0.3083755160139862
 40
0.3412633249363583
 40
0.375150339470905
 40
0.4096552607042123
 40
0.4451573674923582
 40
0.482073467204672
 40
0.5205757562184274
 40
0.5605536808978381
 40
0.6031075754382532
 40
0.6486887095294888
 40
0.6979476778875631
 40
0.7507677670183533
 40
0.8073094024459647
 40
0.8676555707911411
 40
0.9318612220995586
 40
1.0
 40
1.0
 40
1.0
 40
1.0
 10
-0.9219909335251365
 20
0.2464667878053697
 30
0.0
 10
-0.9232244734048803
 20
0.2464880568887818
 30
0.0
 10
-0.9256409598882989
 20
0.2465297227103933
 30
0.0
 10
-0.9291864321895931
 20
0.2468541923591459
 30
0.0
 10
-0.9325647548562518
 20
0.2474529948869386
 30
0.0
 10
-0.9358133103472343
 20
0.2482048930059166
 30
0.0
 10
-0.9389094892281818
 20
0.2492395547385983
 30
0.0
 10
-0.9418681375834116
 20
0.2504742971760608
 30
0.0
 10
-0.9446665059665875
 20
0.2519431235538181
 30
0.0
 10
-0.9473123426191107
 20
0.2536370639923174
 30
0.0
 10
-0.9497966139023901
 20
0.2555795474118723
 30
0.0
 10
-0.9521579253778145
 20
0.2577497967735297
 30
0.0
 10
-0.9543910536867287
 20
0.2601423110530424
 30
0.0
 10
-0.9564620274110177
 20
0.2627838883926442
 30
0.0
 10
-0.9584047631063456
 20
0.2656392692414009
 30
0.0
 10
-0.9601990011127916
 20
0.2687410606602091
 30
0.0
 10
-0.9618436631396072
 20
0.2720847465149404
 30
0.0
 10
-0.9633901945183863
 20
0.2756749875591545
 30
0.0
 10
-0.9647339345260495
 20
0.2795890775670594
 30
0.0
 10
-0.965929800740815
 20
0.2838619688651589
 30
0.0
 10
-0.9669094228884604
 20
0.2885292795256877
 30
0.0
 10
-0.9676973005699512
 20
0.2935895101267122
 30
0.0
 10
-0.9683263416592406
 20
0.2990319403482837
 30
0.0
 10
-0.9687942759277589
 20
0.3048591970942245
 30
0.0
 10
-0.9690713021697311
 20
0.3110739945606898
 30
0.0
 10
-0.9690966037629783
 20
0.3153457344307901
 30
0.0
 10
-0.9691096305269536
 20
0.3175450800020181
 30
0.0
  0
SPLINE
  5
7A
330
1F
100
AcDbEntity
  8
0
  6
Continuous
 62
     7
370
    35
100
AcDbSpline
210
0.0
220
0.0
230
1.0
 70
     8
 71
     3
 72
    31
 73
    27
 74
     0
 42
0.000000001
 43
0.00000001
 40
0.0
 40
0.0
 40
0.0
 40
0.0
 40
0.0684908744969529
 40
0.1330765404908777
 40
0.1938289871915763
 40
0.2510828574460496
 40
0.3044008371534399
 40
0.3544083437255265
 40
0.4012947817777437
 40
0.4447006845454773
 40
0.4856924920892436
 40
0.5246764844274034
 40
0.5623067591777583
 40
0.5979465846525339
 40
0.632473549026726
 40
0.6657520428969367
 40
0.6979852995504431
 40
0.7295862241486802
 40
0.7608251968744881
 40
0.7923550795612051
 40
0.8243126039626628
 40
0.857156271979068
 40
0.8909268871454035
 40
0.9259604429162996
 40
0.9620613229943379
 40
1.0
 40
1.0
 40
1.0
 40
1.0
 10
-0.8754795073692712
 20
0.3188424313547333
 30
0.0
 10
-0.8754926674218071
 20
0.3166155028335249
 30
0.0
 10
-0.8755182371678061
 20
0.3122886206656522
 30
0.0
 10
-0.8757937331560407
 20
0.3059908523698602
 30
0.0
 10
-0.8762681502634988
 20
0.3000725202303519
 30
0.0
 10
-0.8768796132703417
 20
0.2945342365315984
 30
0.0
 10
-0.8777171503309851
 20
0.2893789259559082
 30
0.0
 10
-0.8786980226528979
 20
0.2845932397159029
 30
0.0
 10
-0.8798636171081581
 20
0.2801789125024906
 30
0.0
 10
-0.8812708131538014
 20
0.2761458907358579
 30
0.0
 10
-0.8827850948176904
 20
0.2724292100354213
 30
0.0
 10
-0.8844514406992681
 20
0.2689843772155475
 30
0.0
 10
-0.8862408066268964
 20
0.2658020617639832
 30
0.0
 10
-0.8881121499403373
 20
0.2628342541235405
 30
0.0
 10
-0.8901680645615574
 20
0.2601684437563229
 30
0.0
 10
-0.8923084833306157
 20
0.2577139791699463
 30
0.0
 10
-0.8946266039036217
 20
0.2555643540688767
 30
0.0
 10
-0.8970248244427603
 20
0.2536087864225298
 30
0.0
 10
-0.8995910014652113
 20
0.2519187835318117
 30
0.0
 10
-0.9022986706637732
 20
0.2504407348676243
 30
0.0
 10
-0.9051961050777477
 20
0.2492418618515018
 30
0.0
 10
-0.9082304894060217
 20
0.2481991461359365
 30
0.0
 10
-0.9114535453449913
 20
0.2474505887606534
 30
0.0
 10
-0.9148140589779973
 20
0.246856633083762
 30
0.0
 10
-0.9183499698256307
 20
0.2465283767453943
 30
0.0
 10
-0.9207573603498829
 20
0.2464876543864667
 30
0.0
 10
-0.9219909335251365
 20
0.2464667878053697
 30
0.0
  0
SPLINE
  5
7B
330
1F
100
AcDbEntity
  8
0
  6
Continuous
 62
     7
370
    35
100
AcDbSpline
210
0.0
220
0.0
230
1.0
 70
     8
 71
     3
 72
    31
 73
    27
 74
     0
 42
0.000000001
 43
0.00000001
 40
0.0
 40
0.0
 40
0.0
 40
0.0
 40
0.0366348902551275
 40
0.0720339823477889
 40
0.1066259706074965
 40
0.1403056939382975
 40
0.173619470492682
 40
0.2064256725696811
 40
0.2390670061327423
 40
0.2718828805625946
 40
0.3048398888131206
 40
0.3385290337045872
 40
0.3726161878593843
 40
0.4075482500265394
 40
0.4437189059571696
 40
0.481311509091906
 40
0.5201129981462014
 40
0.5609129028334473
 40
0.6040246006136034
 40
0.6500745638656776
 40
0.6995722277770573
 40
0.7523625390892957
 40
0.8087887173463877
 40
0.8689542125204771
 40
0.9326747199379379
 40
1.0
 40
1.0
 40
1.0
 40
1.0
 10
-0.9227086172521705
 20
0.3913284877851795
 30
0.0
 10
-0.9215114623079647
 20
0.3913107156825471
 30
0.0
 10
-0.9191575358319207
 20
0.3912757709804233
 30
0.0
 10
-0.915690645224718
 20
0.3908972913940576
 30
0.0
 10
-0.9123510710359021
 20
0.3903255142941092
 30
0.0
 10
-0.9091257484351571
 20
0.3895280846216048
 30
0.0
 10
-0.9060378936219844
 20
0.3884727148544331
 30
0.0
 10
-0.9030650325510674
 20
0.3872094553335619
 30
0.0
 10
-0.9002425508724585
 20
0.385672045494747
 30
0.0
 10
-0.8975344529252611
 20
0.3839354621221028
 30
0.0
 10
-0.8949417818723531
 20
0.3819694035637235
 30
0.0
 10
-0.8925268507480209
 20
0.3797279952932875
 30
0.0
 10
-0.8902455577792848
 20
0.3772628122075896
 30
0.0
 10
-0.8881472845587299
 20
0.3745365851615894
 30
0.0
 10
-0.8861855641862056
 20
0.3715741120805333
 30
0.0
 10
-0.8843668425450031
 20
0.3683749232107365
 30
0.0
 10
-0.8827050424000156
 20
0.364923360665301
 30
0.0
 10
-0.8811815389361821
 20
0.3612131958254947
 30
0.0
 10
-0.8798192173271344
 20
0.3571888149232154
 30
0.0
 10
-0.8786717355251805
 20
0.3528040565614413
 30
0.0
 10
-0.8776875778707849
 20
0.3480579194101863
 30
0.0
 10
-0.8768568793700086
 20
0.34293858960843
 30
0.0
 10
-0.8762290055666021
 20
0.3374392623479721
 30
0.0
 10
-0.8758058059832287
 20
0.3315635911063866
 30
0.0
 10
-0.8755153863970263
 20
0.3253229033141926
 30
0.0
 10
-0.8754916843748288
 20
0.3210418427659436
 30
0.0
 10
-0.8754795073692712
 20
0.3188424313547333
 30
0.0
  0
SPLINE
  5
7C
330
1F
100
AcDbEntity
  8
0
  6
Continuous
 62
     7
370
    35
100
AcDbSpline
210
0.0
220
0.0
230
1.0
 70
     8
 71
     3
 72
    15
 73
    11
 74
     0
 42
0.000000001
 43
0.00000001
 40
0.0
 40
0.0
 40
0.0
 40
0.0
 40
0.1323140339085633
 40
0.2587000085531547
 40
0.3809118214856515
 40
0.5005348689728932
 40
0.6209226176484477
 40
0.7423757653984705
 40
0.868280834178856
 40
1.0
 40
1.0
 40
1.0
 40
1.0
 10
-0.9577923102160311
 20
0.3725859012214809
 30
0.0
 10
-0.9567223880924628
 20
0.3740764150587551
 30
0.0
 10
-0.9546304795145014
 20
0.3769906633139168
 30
0.0
 10
-0.9509727188927752
 20
0.380816526529434
 30
0.0
 10
-0.9470429313380225
 20
0.3840885920961247
 30
0.0
 10
-0.9427604012545752
 20
0.3867328102402126
 30
0.0
 10
-0.9381928586396899
 20
0.3888180408833268
 30
0.0
 10
-0.9333010888181515
 20
0.390290815801579
 30
0.0
 10
-0.9281031562739576
 20
0.3911489230968456
 30
0.0
 10
-0.9245336492911569
 20
0.3912677390709786
 30
0.0
 10
-0.9227086172521705
 20
0.3913284877851795
 30
0.0
  0
SPLINE
  5
7D
330
1F
100
AcDbEntity
  8
0
  6
Continuous
 62
     7
370
    35
100
AcDbSpline
210
0.0
220
0.0
230
1.0
 70
     8
 71
     3
 72
    15
 73
    11
 74
     0
 42
0.000000001
 43
0.00000001
 40
0.0
 40
0.0
 40
0.0
 40
0.0
 40
0.1610711239484219
 40
0.3107888083803541
 40
0.4499038238309445
 40
0.578376316506184
 40
0.6966172119048382
 40
0.8059873227104088
 40
0.9065617032890799
 40
0.9999999999999999
 40
0.9999999999999999
 40
0.9999999999999999
 40
0.9999999999999999
 10
-0.9691096305269536
 20
0.3175450800020181
 30
0.0
 10
-0.9690860337616813
 20
0.3206008975335893
 30
0.0
 10
-0.9690405034991455
 20
0.3264971368220724
 30
0.0
 10
-0.9684635105722196
 20
0.3350154882688265
 30
0.0
 10
-0.9676166312975616
 20
0.3428892285862132
 30
0.0
 10
-0.9663727662516681
 20
0.3501051869494632
 30
0.0
 10
-0.9648347443253461
 20
0.3566900891635965
 30
0.0
 10
-0.9628652271632681
 20
0.3626005573400928
 30
0.0
 10
-0.9606230751451375
 20
0.3679183760605066
 30
0.0
 10
-0.9587124735735715
 20
0.3710686838858529
 30
0.0
 10
-0.9577923102160311
 20
0.3725859012214809
 30
0.0
  0
SPLINE
  5
83
330
1F
100
AcDbEntity
  8
0
  6
Continuous
 62
     7
370
    35
100
AcDbSpline
210
0.0
220
0.0
230
1.0
 70
     8
 71
     3
 72
    15
 73
    11
 74
     0
 42
0.000000001
 43
0.00000001
 40
0.0
 40
0.0
 40
0.0
 40
0.0
 40
0.0773727494946895
 40
0.1676142909211624
 40
0.2721083165199079
 40
0.3900159922754467
 40
0.5213633102089973
 40
0.6672722540317941
 40
0.8268095210701766
 40
1.0
 40
1.0
 40
1.0
 40
1.0
 10
-1.197195039622451
 20
0.3121624520492622
 30
0.0
 10
-1.197901426272254
 20
0.3119867019074542
 30
0.0
 10
-1.199431687225836
 20
0.3116059705053675
 30
0.0
 10
-1.201963848795757
 20
0.3112194325718708
 30
0.0
 10
-1.204881899141521
 20
0.3108640347086329
 30
0.0
 10
-1.208195274227048
 20
0.3105586132699051
 30
0.0
 10
-1.211905884292803
 20
0.310350997858508
 30
0.0
 10
-1.216010136498066
 20
0.310188859455609
 30
0.0
 10
-1.220509890824955
 20
0.3100709680926161
 30
0.0
 10
-1.223638842045605
 20
0.3100667847894842
 30
0.0
 10
-1.225267514637593
 20
0.310064607308701
 30
0.0
  0
SPLINE
  5
84
330
1F
100
AcDbEntity
  8
0
  6
Continuous
 62
     7
370
    35
100
AcDbSpline
210
0.0
220
0.0
230
1.0
 70
     8
 71
     3
 72
    23
 73
    19
 74
     0
 42
0.000000001
 43
0.00000001
 40
0.0
 40
0.0
 40
0.0
 40
0.0
 40
0.0688754254237457
 40
0.1353486746991228
 40
0.1992893152193377
 40
0.2615500803944973
 40
0.3229153841538532
 40
0.3827719971265277
 40
0.4428435721153016
 40
0.5026520291025155
 40
0.5627488431894929
 40
0.6227395817076816
 40
0.682687331514857
 40
0.7433292468860028
 40
0.8050125141012736
 40
0.8680671203592971
 40
0.9331105710618376
 40
1.0
 40
1.0
 40
1.0
 40
1.0
 10
-1.168736119523522
 20
0.3486539092469202
 30
0.0
 10
-1.168754899872915
 20
0.3475029082910168
 30
0.0
 10
-1.168791805567293
 20
0.345241049972167
 30
0.0
 10
-1.169153600304228
 20
0.3419254431738424
 30
0.0
 10
-1.169771660022217
 20
0.3387643122830022
 30
0.0
 10
-1.170579431746079
 20
0.3357309989160772
 30
0.0
 10
-1.17170581196855
 20
0.332875407801712
 30
0.0
 10
-1.172992648479237
 20
0.3301294036596273
 30
0.0
 10
-1.174575865559526
 20
0.3275699760171573
 30
0.0
 10
-1.176384944175443
 20
0.3251651095171312
 30
0.0
 10
-1.178360664411872
 20
0.3228952514593951
 30
0.0
 10
-1.180549929782747
 20
0.3208259397033599
 30
0.0
 10
-1.182911011947565
 20
0.3189430678224587
 30
0.0
 10
-1.1854302434485
 20
0.3172269031716273
 30
0.0
 10
-1.188117082236793
 20
0.3156809076373257
 30
0.0
 10
-1.190969589625038
 20
0.3142906046139937
 30
0.0
 10
-1.194007244151104
 20
0.3131004603035363
 30
0.0
 10
-1.19612257536945
 20
0.3124780244662418
 30
0.0
 10
-1.197195039622451
 20
0.3121624520492622
 30
0.0
  0
SPLINE
  5
85
330
1F
100
AcDbEntity
  8
0
  6
Continuous
 62
     7
370
    35
100
AcDbSpline
210
0.0
220
0.0
230
1.0
 70
     8
 71
     3
 72
    31
 73
    27
 74
     0
 42
0.000000001
 43
0.00000001
 40
0.0
 40
0.0
 40
0.0
 40
0.0
 40
0.0707811610050441
 40
0.1365516962322762
 40
0.1970124824343216
 40
0.2529226940754278
 40
0.303686532040094
 40
0.3497191510228067
 40
0.3912404712771942
 40
0.4284785554869214
 40
0.4630565648912345
 40
0.4971503576227111
 40
0.5310023337427001
 40
0.5642263769534173
 40
0.5977006695240377
 40
0.6314214209809017
 40
0.6655973468372219
 40
0.7004514363039004
 40
0.735880683980128
 40
0.7710921079261264
 40
0.8069748450233086
 40
0.8435344028448034
 40
0.8809401955444316
 40
0.9192943843072741
 40
0.9591802403135349
 40
1.0
 40
1.0
 40
1.0
 40
1.0
 10
-1.222396779729457
 20
0.38779527559055
 30
0.0
 10
-1.220593221126193
 20
0.3877872024783625
 30
0.0
 10
-1.217113778531117
 20
0.3877716277527222
 30
0.0
 10
-1.212096136042873
 20
0.3875827634870208
 30
0.0
 10
-1.207467115170902
 20
0.3872443072186657
 30
0.0
 10
-1.203227779424358
 20
0.3868260287960928
 30
0.0
 10
-1.199379871913424
 20
0.3862396187228325
 30
0.0
 10
-1.195918573903155
 20
0.3855673454881183
 30
0.0
 10
-1.1928431670916
 20
0.3847483210260512
 30
0.0
 10
-1.190118971695142
 20
0.3837761503412718
 30
0.0
 10
-1.187674094321881
 20
0.3826299990864913
 30
0.0
 10
-1.185360451780759
 20
0.3814092661871542
 30
0.0
 10
-1.183230332648846
 20
0.3799523645259349
 30
0.0
 10
-1.18117622337915
 20
0.3784163127769729
 30
0.0
 10
-1.179315560940731
 20
0.3766543725062104
 30
0.0
 10
-1.177532266071532
 20
0.3747838033963929
 30
0.0
 10
-1.17590186617337
 20
0.3727304202144184
 30
0.0
 10
-1.174416806579078
 20
0.3705190786109022
 30
0.0
 10
-1.173069628696539
 20
0.3681906347234358
 30
0.0
 10
-1.171892643974937
 20
0.3657409259847467
 30
0.0
 10
-1.170937939880691
 20
0.36316607598701
 30
0.0
 10
-1.170137061857732
 20
0.3604827410823554
 30
0.0
 10
-1.169493788827579
 20
0.3576910382163974
 30
0.0
 10
-1.169065605820889
 20
0.3547737981681418
 30
0.0
 10
-1.168774762382003
 20
0.3517513902159289
 30
0.0
 10
-1.168749099464476
 20
0.349694337457027
 30
0.0
 10
-1.168736119523522
 20
0.3486539092469202
 30
0.0
  0
SPLINE
  5
89
330
1F
100
AcDbEntity
  8
0
  6
Continuous
 62
     7
370
    35
100
AcDbSpline
210
0.0
220
0.0
230
1.0
 70
     8
 71
     3
 72
    19
 73
    15
 74
     0
 42
0.000000001
 43
0.00000001
 40
0.0
 40
0.0
 40
0.0
 40
0.0
 40
0.1121245812797455
 40
0.2152010090762418
 40
0.3099024524934775
 40
0.3959590963320915
 40
0.4734474940003345
 40
0.542140327566032
 40
0.6025233330554094
 40
0.6547263328340134
 40
0.7478040553141003
 40
0.8352784168250088
 40
0.918925242719449
 40
1.0
 40
1.0
 40
1.0
 40
1.0
 10
-1.459066790329094
 20
0.3080219690086809
 30
0.0
 10
-1.460820691368446
 20
0.3095059374734094
 30
0.0
 10
-1.46418695832954
 20
0.3123541221212536
 30
0.0
 10
-1.468943920630098
 20
0.3165608011839419
 30
0.0
 10
-1.47323036959553
 20
0.3204923282225511
 30
0.0
 10
-1.477009282849163
 20
0.3241973055057352
 30
0.0
 10
-1.480328809591856
 20
0.3276073106889282
 30
0.0
 10
-1.483166468546163
 20
0.3307500411386927
 30
0.0
 10
-1.485491086738138
 20
0.3336497387220332
 30
0.0
 10
-1.487937246133912
 20
0.3370842364662737
 30
0.0
 10
-1.490261586637447
 20
0.3412694079568406
 30
0.0
 10
-1.49227047642427
 20
0.3463046544304069
 30
0.0
 10
-1.493573759328661
 20
0.3513392620058606
 30
0.0
 10
-1.493719774051739
 20
0.3547192202300476
 30
0.0
 10
-1.493791641429438
 20
0.3563828109226721
 30
0.0
  0
SPLINE
  5
8A
330
1F
100
AcDbEntity
  8
0
  6
Continuous
 62
     7
370
    35
100
AcDbSpline
210
0.0
220
0.0
230
1.0
 70
     8
 71
     3
 72
    19
 73
    15
 74
     0
 42
0.000000001
 43
0.00000001
 40
0.0
 40
0.0
 40
0.0
 40
0.0
 40
0.0763466063531696
 40
0.1550908218146643
 40
0.2383515612585574
 40
0.3284041399329898
 40
0.3793838595513611
 40
0.439617644174822
 40
0.5098314158313157
 40
0.5888746449969601
 40
0.6774363544094512
 40
0.7755467196196731
 40
0.8826358717258567
 40
1.0
 40
1.0
 40
1.0
 40
1.0
 10
-1.440793458509995
 20
0.2842555963557433
 30
0.0
 10
-1.440838830175126
 20
0.2850418862495867
 30
0.0
 10
-1.440930998369214
 20
0.2866391588939885
 30
0.0
 10
-1.441609880882542
 20
0.2890140464721587
 30
0.0
 10
-1.442671181319553
 20
0.2913878540004413
 30
0.0
 10
-1.443926774577013
 20
0.2933349151572853
 30
0.0
 10
-1.445204497937623
 20
0.294965136683953
 30
0.0
 10
-1.446426289661532
 20
0.2963776498926781
 30
0.0
 10
-1.447914108778359
 20
0.297938229702844
 30
0.0
 10
-1.449664182835046
 20
0.2996488392055005
 30
0.0
 10
-1.451653388786944
 20
0.3015245373289601
 30
0.0
 10
-1.45388340228227
 20
0.3035651403974584
 30
0.0
 10
-1.456379759334627
 20
0.3057526731385094
 30
0.0
 10
-1.458144189424849
 20
0.3072427988293525
 30
0.0
 10
-1.459066790329094
 20
0.3080219690086809
 30
0.0
  0
SPLINE
  5
8B
330
1F
100
AcDbEntity
  8
0
  6
Continuous
 62
     7
370
    35
100
AcDbSpline
210
0.0
220
0.0
230
1.0
 70
     8
 71
     3
 72
    15
 73
    11
 74
     0
 42
0.000000001
 43
0.00000001
 40
0.0
 40
0.0
 40
0.0
 40
0.0
 40
0.141985892529665
 40
0.2754733105502037
 40
0.4043458426631324
 40
0.5354297108606246
 40
0.6614274010622476
 40
0.777866840462758
 40
0.8882797492818402
 40
1.0
 40
1.0
 40
1.0
 40
1.0
 10
-1.456527294064204
 20
0.271199273167776
 30
0.0
 10
-1.455454892058589
 20
0.2712426438614223
 30
0.0
 10
-1.453374275981425
 20
0.27132678932367
 30
0.0
 10
-1.45040446277699
 20
0.2721040155886988
 30
0.0
 10
-1.447681625582223
 20
0.2733243178423942
 30
0.0
 10
-1.44532802522072
 20
0.2750655208825589
 30
0.0
 10
-1.443335144828402
 20
0.2770751338339169
 30
0.0
 10
-1.441864284707346
 20
0.2793109201301396
 30
0.0
 10
-1.440940280458502
 20
0.2817299869327405
 30
0.0
 10
-1.440842590806968
 20
0.2834104298566558
 30
0.0
 10
-1.440793458509995
 20
0.2842555963557433
 30
0.0
  0
SPLINE
  5
8C
330
1F
100
AcDbEntity
  8
0
  6
Continuous
 62
     7
370
    35
100
AcDbSpline
210
0.0
220
0.0
230
1.0
 70
     8
 71
     3
 72
    15
 73
    11
 74
     0
 42
0.000000001
 43
0.00000001
 40
0.0
 40
0.0
 40
0.0
 40
0.0
 40
0.1604579205559319
 40
0.3076115473748554
 40
0.4421388877557672
 40
0.5662291941703297
 40
0.6812222080152063
 40
0.7895580052436284
 40
0.8950288924051311
 40
1.0
 40
1.0
 40
1.0
 40
1.0
 10
-1.479106728245509
 20
0.2888653341409237
 30
0.0
 10
-1.478303625464665
 20
0.2874693493458632
 30
0.0
 10
-1.476764008795945
 20
0.2847931271847344
 30
0.0
 10
-1.474154984416524
 20
0.281197283522074
 30
0.0
 10
-1.471482172134445
 20
0.2781180386460815
 30
0.0
 10
-1.468683778924565
 20
0.2756098184074586
 30
0.0
 10
-1.465793832201221
 20
0.2736390846776357
 30
0.0
 10
-1.462798372850195
 20
0.2722306616340639
 30
0.0
 10
-1.459695296319418
 20
0.2713588493633444
 30
0.0
 10
-1.457581621557621
 20
0.2712523809488726
 30
0.0
 10
-1.456527294064204
 20
0.271199273167776
 30
0.0
  0
SPLINE
  5
8E
330
1F
100
AcDbEntity
  8
0
  6
Continuous
 62
     7
370
    35
100
AcDbSpline
210
0.0
220
0.0
230
1.0
 70
     8
 71
     3
 72
    23
 73
    19
 74
     0
 42
0.000000001
 43
0.00000001
 40
0.0
 40
0.0
 40
0.0
 40
0.0
 40
0.0635514822357811
 40
0.1258683816453857
 40
0.186240250213676
 40
0.2449766506319392
 40
0.3033576876770639
 40
0.3612303170408059
 40
0.418489049028353
 40
0.4759367117285741
 40
0.5342037438191228
 40
0.594059428967541
 40
0.6554686942598732
 40
0.7187716848998884
 40
0.7849746072190577
 40
0.8535223163767033
 40
0.9251824507719315
 40
0.9999999999999999
 40
0.9999999999999999
 40
0.9999999999999999
 40
0.9999999999999999
 10
-1.457438200333131
 20
0.2464667878053697
 30
0.0
 10
-1.458616714418533
 20
0.246487695430347
 30
0.0
 10
-1.460950848186263
 20
0.2465291045183396
 30
0.0
 10
-1.46439100848003
 20
0.2468671752548739
 30
0.0
 10
-1.467712872132415
 20
0.247412785454096
 30
0.0
 10
-1.470912697360744
 20
0.2481948078573282
 30
0.0
 10
-1.474004899942715
 20
0.2491857363065466
 30
0.0
 10
-1.47698960687074
 20
0.250396117446793
 30
0.0
 10
-1.479846213721916
 20
0.251844711732392
 30
0.0
 10
-1.482596334937959
 20
0.2535017303052783
 30
0.0
 10
-1.485226601535998
 20
0.2554257471372866
 30
0.0
 10
-1.487770272202604
 20
0.2575774263339326
 30
0.0
 10
-1.490202080785543
 20
0.2599898616838237
 30
0.0
 10
-1.492533706768368
 20
0.2626573478706294
 30
0.0
 10
-1.49475023175797
 20
0.2655874385745099
 30
0.0
 10
-1.49692421057078
 20
0.2687393268599677
 30
0.0
 10
-1.498959025046644
 20
0.2721715074945348
 30
0.0
 10
-1.500216020463184
 20
0.2745792099736896
 30
0.0
 10
-1.500858065818697
 20
0.275809010952957
 30
0.0
  0
SPLINE
  5
8F
330
1F
100
AcDbEntity
  8
0
  6
Continuous
 62
     7
370
    35
100
AcDbSpline
210
0.0
220
0.0
230
1.0
 70
     8
 71
     3
 72
    23
 73
    19
 74
     0
 42
0.000000001
 43
0.00000001
 40
0.0
 40
0.0
 40
0.0
 40
0.0
 40
0.0652008752881554
 40
0.1279265440230317
 40
0.189046910018967
 40
0.2485436930694596
 40
0.3076071270223466
 40
0.3672476600602128
 40
0.4269630557213223
 40
0.4886171282353938
 40
0.5503918546271254
 40
0.6113307342255593
 40
0.6725560854310838
 40
0.7340241906291927
 40
0.7973406208369385
 40
0.8622496273165802
 40
0.929625466074696
 40
1.0
 40
1.0
 40
1.0
 40
1.0
 10
-1.416060973147588
 20
0.2856909638098111
 30
0.0
 10
-1.416085638706767
 20
0.2842992936750332
 30
0.0
 10
-1.416134033451903
 20
0.2815687850741072
 30
0.0
 10
-1.416726776273128
 20
0.2775730924617518
 30
0.0
 10
-1.417571992746016
 20
0.2737490412166037
 30
0.0
 10
-1.418878845689961
 20
0.2701382424221249
 30
0.0
 10
-1.420471630318726
 20
0.2666814259166472
 30
0.0
 10
-1.422468415893537
 20
0.2634324379098546
 30
0.0
 10
-1.424813366752525
 20
0.2603583973150337
 30
0.0
 10
-1.427501040486658
 20
0.2575142563668161
 30
0.0
 10
-1.430473926783135
 20
0.2549333955900117
 30
0.0
 10
-1.433662629874192
 20
0.2526358523685755
 30
0.0
 10
-1.437098330503662
 20
0.250738937786279
 30
0.0
 10
-1.440751674586802
 20
0.2491769639328481
 30
0.0
 10
-1.444620706571349
 20
0.2479739107855888
 30
0.0
 10
-1.448700817273918
 20
0.2470847423860992
 30
0.0
 10
-1.452998247502111
 20
0.2465510775288832
 30
0.0
 10
-1.455936892218573
 20
0.2464952891995738
 30
0.0
 10
-1.457438200333131
 20
0.2464667878053697
 30
0.0
  0
SPLINE
  5
90
330
1F
100
AcDbEntity
  8
0
  6
Continuous
 62
     7
370
    35
100
AcDbSpline
210
0.0
220
0.0
230
1.0
 70
     8
 71
     3
 72
    15
 73
    11
 74
     0
 42
0.000000001
 43
0.00000001
 40
0.0
 40
0.0
 40
0.0
 40
0.0
 40
0.1508330973407555
 40
0.2899541833158799
 40
0.4171386481520539
 40
0.5352551839062634
 40
0.6487510952936685
 40
0.7624054615861205
 40
0.8798267012501015
 40
0.9999999999999999
 40
0.9999999999999999
 40
0.9999999999999999
 40
0.9999999999999999
 10
-1.430304234807188
 20
0.3172966510195833
 30
0.0
 10
-1.429087715733271
 20
0.3159801168415624
 30
0.0
 10
-1.426749138850711
 20
0.3134492758051745
 30
0.0
 10
-1.423709813305996
 20
0.3095272681317706
 30
0.0
 10
-1.421208350070453
 20
0.3056985889291057
 30
0.0
 10
-1.419273170675928
 20
0.3018911953871584
 30
0.0
 10
-1.417811645363741
 20
0.2980501543952038
 30
0.0
 10
-1.416781250657733
 20
0.2940812646312466
 30
0.0
 10
-1.416164140412392
 20
0.2899430536844568
 30
0.0
 10
-1.416095626767189
 20
0.2871192298911563
 30
0.0
 10
-1.416060973147588
 20
0.2856909638098111
 30
0.0
  0
SPLINE
  5
91
330
1F
100
AcDbEntity
  8
0
  6
Continuous
 62
     7
370
    35
100
AcDbSpline
210
0.0
220
0.0
230
1.0
 70
     8
 71
     3
 72
    15
 73
    11
 74
     0
 42
0.000000001
 43
0.00000001
 40
0.0
 40
0.0
 40
0.0
 40
0.0
 40
0.1929527021649396
 40
0.3661841413840584
 40
0.5204572982944612
 40
0.6550121351900131
 40
0.7706242255760006
 40
0.865677184679371
 40
0.9426745273198698
 40
1.0
 40
1.0
 40
1.0
 40
1.0
 10
-1.448053105441147
 20
0.3331961058954158
 30
0.0
 10
-1.446893985343981
 20
0.3321929459178318
 30
0.0
 10
-1.444694216215175
 20
0.3302891566941465
 30
0.0
 10
-1.441564381579079
 20
0.3275870335630181
 30
0.0
 10
-1.438813778202592
 20
0.3251559992684455
 30
0.0
 10
-1.436402336071438
 20
0.3230325384332545
 30
0.0
 10
-1.434366610296105
 20
0.3211943710916373
 30
0.0
 10
-1.432698042678707
 20
0.3196327108249996
 30
0.0
 10
-1.431376254494607
 20
0.318377960286643
 30
0.0
 10
-1.430624895304314
 20
0.3176200901981653
 30
0.0
 10
-1.430304234807188
 20
0.3172966510195833
 30
0.0
  0
SPLINE
  5
92
330
1F
100
AcDbEntity
  8
0
  6
Continuous
 62
     7
370
    35
100
AcDbSpline
210
0.0
220
0.0
230
1.0
 70
     8
 71
     3
 72
    15
 73
    11
 74
     0
 42
0.000000001
 43
0.00000001
 40
0.0
 40
0.0
 40
0.0
 40
0.0
 40
0.0592341891229428
 40
0.1363492805279923
 40
0.2338052120618164
 40
0.3494112238568918
 40
0.4831791503491688
 40
0.6359668555591109
 40
0.8092433563675919
 40
1.0
 40
1.0
 40
1.0
 40
1.0
 10
-1.466768088784576
 20
0.3509725797496456
 30
0.0
 10
-1.466451190650225
 20
0.3505725107861719
 30
0.0
 10
-1.465721732996476
 20
0.3496516048678341
 30
0.0
 10
-1.464330806652667
 20
0.3481930334449106
 30
0.0
 10
-1.462584095282709
 20
0.3464061557806352
 30
0.0
 10
-1.460414381757292
 20
0.3443524173618382
 30
0.0
 10
-1.457911736849758
 20
0.3419579577229888
 30
0.0
 10
-1.454960159738053
 20
0.3393169039837911
 30
0.0
 10
-1.451644609682985
 20
0.3363474657794477
 30
0.0
 10
-1.449287993518565
 20
0.3342796565433894
 30
0.0
 10
-1.448053105441147
 20
0.3331961058954163
 30
0.0
  0
SPLINE
  5
93
330
1F
100
AcDbEntity
  8
0
  6
Continuous
 62
     7
370
    35
100
AcDbSpline
210
0.0
220
0.0
230
1.0
 70
     8
 71
     3
 72
    11
 73
     7
 74
     0
 42
0.000000001
 43
0.00000001
 40
0.0
 40
0.0
 40
0.0
 40
0.0
 40
0.241881374750184
 40
0.4871154746783689
 40
0.7378378396463996
 40
1.0
 40
1.0
 40
1.0
 40
1.0
 10
-1.469059156067031
 20
0.3575697493943056
 30
0.0
 10
-1.469034813660739
 20
0.3569962065774582
 30
0.0
 10
-1.468985791437313
 20
0.3558411710491312
 30
0.0
 10
-1.468512303490055
 20
0.3541483226345655
 30
0.0
 10
-1.4677986219554
 20
0.352494212671095
 30
0.0
 10
-1.467116670111833
 20
0.3514872772270045
 30
0.0
 10
-1.466768088784576
 20
0.3509725797496456
 30
0.0
  0
SPLINE
  5
94
330
1F
100
AcDbEntity
  8
0
  6
Continuous
 62
     7
370
    35
100
AcDbSpline
210
0.0
220
0.0
230
1.0
 70
     8
 71
     3
 72
    15
 73
    11
 74
     0
 42
0.000000001
 43
0.00000001
 40
0.0
 40
0.0
 40
0.0
 40
0.0
 40
0.1481262583591637
 40
0.2859928874897007
 40
0.416634393560615
 40
0.5473799458012593
 40
0.671582837610209
 40
0.7844007386959868
 40
0.893265576300963
 40
1.0
 40
1.0
 40
1.0
 40
1.0
 10
-1.457907455077732
 20
0.3665960024227732
 30
0.0
 10
-1.458692451242713
 20
0.3665684726628465
 30
0.0
 10
-1.460208072594244
 20
0.3665153199293573
 30
0.0
 10
-1.462368703271536
 20
0.365986985720123
 30
0.0
 10
-1.464286941957392
 20
0.3650751584627469
 30
0.0
 10
-1.46596091653555
 20
0.3638828676148874
 30
0.0
 10
-1.467286951376166
 20
0.3624464335600006
 30
0.0
 10
-1.468345687365243
 20
0.3609399835748281
 30
0.0
 10
-1.468941844691867
 20
0.3592772034832262
 30
0.0
 10
-1.469020310725683
 20
0.3581351390406647
 30
0.0
 10
-1.469059156067031
 20
0.3575697493943056
 30
0.0
  0
SPLINE
  5
95
330
1F
100
AcDbEntity
  8
0
  6
Continuous
 62
     7
370
    35
100
AcDbSpline
210
0.0
220
0.0
230
1.0
 70
     8
 71
     3
 72
    15
 73
    11
 74
     0
 42
0.000000001
 43
0.00000001
 40
0.0
 40
0.0
 40
0.0
 40
0.0
 40
0.1624203072014421
 40
0.311824339733047
 40
0.4484327667925777
 40
0.5733811968860504
 40
0.6890771468735489
 40
0.7975729005012461
 40
0.9002930430775757
 40
1.0
 40
1.0
 40
1.0
 40
1.0
 10
-1.438088342923481
 20
0.3524631536442551
 30
0.0
 10
-1.438880553333067
 20
0.3535806487856861
 30
0.0
 10
-1.44040148684289
 20
0.3557260836185336
 30
0.0
 10
-1.442866761422495
 20
0.3585988714259655
 30
0.0
 10
-1.445320904023766
 20
0.361049573216076
 30
0.0
 10
-1.447786650785431
 20
0.3630679510887496
 30
0.0
 10
-1.450285857148395
 20
0.3646417418969667
 30
0.0
 10
-1.452814184855588
 20
0.365756003174573
 30
0.0
 10
-1.455357300109927
 20
0.3664643496429734
 30
0.0
 10
-1.457065880994584
 20
0.3665525558209578
 30
0.0
 10
-1.457907455077732
 20
0.3665960024227732
 30
0.0
  0
SPLINE
  5
97
330
1F
100
AcDbEntity
  8
0
  6
Continuous
 62
     7
370
    35
100
AcDbSpline
210
0.0
220
0.0
230
1.0
 70
     8
 71
     3
 72
    19
 73
    15
 74
     0
 42
0.000000001
 43
0.00000001
 40
0.0
 40
0.0
 40
0.0
 40
0.0
 40
0.1069102197112037
 40
0.2129765276064957
 40
0.3197766759577699
 40
0.4285562728491952
 40
0.4858568032784245
 40
0.5465586866406901
 40
0.6114314979175168
 40
0.6798209100724927
 40
0.7531585046908259
 40
0.8307528691562649
 40
0.9131330746557003
 40
1.0
 40
1.0
 40
1.0
 40
1.0
 10
-1.457631422875026
 20
0.3913284877851795
 30
0.0
 10
-1.456007884189507
 20
0.3912690952810348
 30
0.0
 10
-1.452773622464007
 20
0.3911507790963631
 30
0.0
 10
-1.447991673220884
 20
0.3902255851949716
 30
0.0
 10
-1.443320865131617
 20
0.3887706203293969
 30
0.0
 10
-1.43955704043761
 20
0.3870153652936153
 30
0.0
 10
-1.436562235384401
 20
0.3853150489098942
 30
0.0
 10
-1.434266997064187
 20
0.3837496117679834
 30
0.0
 10
-1.431931468529027
 20
0.3819563193852857
 30
0.0
 10
-1.42953681519006
 20
0.379929520624168
 30
0.0
 10
-1.427127533414363
 20
0.377631027934149
 30
0.0
 10
-1.424635115798999
 20
0.3751155587431221
 30
0.0
 10
-1.422093524580505
 20
0.3723613735145052
 30
0.0
 10
-1.42044189326678
 20
0.370393796358027
 30
0.0
 10
-1.419594185342217
 20
0.3693839276700978
 30
0.0
  0
SPLINE
  5
98
330
1F
100
AcDbEntity
  8
0
  6
Continuous
 62
     7
370
    35
100
AcDbSpline
210
0.0
220
0.0
230
1.0
 70
     8
 71
     3
 72
    23
 73
    19
 74
     0
 42
0.000000001
 43
0.00000001
 40
0.0
 40
0.0
 40
0.0
 40
0.0
 40
0.0631728801065216
 40
0.1244573597769997
 40
0.1848409152554599
 40
0.2445668214643685
 40
0.3043191726186555
 40
0.3651997864614187
 40
0.4274209827764748
 40
0.4912616890772875
 40
0.5554990019310228
 40
0.6186045181428794
 40
0.6804947639253084
 40
0.7424733052606082
 40
0.8049906647647745
 40
0.8682519711837804
 40
0.9328872172654765
 40
1.0
 40
1.0
 40
1.0
 40
1.0
 10
-1.493791641429438
 20
0.3563828109226721
 30
0.0
 10
-1.493761751882819
 20
0.3575625401502132
 30
0.0
 10
-1.493702866265279
 20
0.3598867334537937
 30
0.0
 10
-1.493177597472877
 20
0.3633041210616262
 30
0.0
 10
-1.4923925632509
 20
0.3666016129628226
 30
0.0
 10
-1.491252468184261
 20
0.3697671784046853
 30
0.0
 10
-1.489772762448025
 20
0.3727968523890665
 30
0.0
 10
-1.487975717308117
 20
0.3757054664452618
 30
0.0
 10
-1.485833428058966
 20
0.3784662503464418
 30
0.0
 10
-1.483419212701104
 20
0.3810773738875148
 30
0.0
 10
-1.480759365484166
 20
0.3834636436599452
 30
0.0
 10
-1.477916980715074
 20
0.385569765838494
 30
0.0
 10
-1.474908146542665
 20
0.3873486272551523
 30
0.0
 10
-1.471751269490858
 20
0.3888243219680436
 30
0.0
 10
-1.468426787706119
 20
0.3899538725272644
 30
0.0
 10
-1.464959192493445
 20
0.3907545542651208
 30
0.0
 10
-1.461343510221207
 20
0.3912307742289399
 30
0.0
 10
-1.458884201185709
 20
0.391295510806865
 30
0.0
 10
-1.457631422875026
 20
0.3913284877851795
 30
0.0
  0
SPLINE
  5
99
330
1F
100
AcDbEntity
  8
0
  6
Continuous
 62
     7
370
    35
100
AcDbSpline
210
0.0
220
0.0
230
1.0
 70
     8
 71
     3
 72
    23
 73
    19
 74
     0
 42
0.000000001
 43
0.00000001
 40
0.0
 40
0.0
 40
0.0
 40
0.0
 40
0.0673762427992626
 40
0.1318365787763089
 40
0.1944610676015855
 40
0.255345967743413
 40
0.3155883400136108
 40
0.3756274517721971
 40
0.4361378520525411
 40
0.4977786195747117
 40
0.5594703610940508
 40
0.6202777696791126
 40
0.680787688960419
 40
0.7414916215916542
 40
0.8032154362531893
 40
0.8664927627489312
 40
0.9319104429113605
 40
1.0
 40
1.0
 40
1.0
 40
1.0
 10
-1.574172218857258
 20
0.2464667878053697
 30
0.0
 10
-1.576742150508746
 20
0.2465323004883254
 30
0.0
 10
-1.581770792394142
 20
0.2466604905984965
 30
0.0
 10
-1.589140135963485
 20
0.2476102925226203
 30
0.0
 10
-1.596140814536214
 20
0.2492026187160628
 30
0.0
 10
-1.602789859452756
 20
0.2514546071527197
 30
0.0
 10
-1.609085156471594
 20
0.2543314168388735
 30
0.0
 10
-1.615025095063753
 20
0.2578582504302445
 30
0.0
 10
-1.620600101368757
 20
0.262025737686059
 30
0.0
 10
-1.625765140309079
 20
0.2667850316096047
 30
0.0
 10
-1.630437163845046
 20
0.2720412722084016
 30
0.0
 10
-1.634566691603506
 20
0.2776850326127231
 30
0.0
 10
-1.637982637121056
 20
0.2837440498371058
 30
0.0
 10
-1.640818970289601
 20
0.2901288128420955
 30
0.0
 10
-1.643036945524553
 20
0.2968684577813198
 30
0.0
 10
-1.644598024081782
 20
0.3039702748980344
 30
0.0
 10
-1.645560729835138
 20
0.3114274069486925
 30
0.0
 10
-1.645666051212704
 20
0.3165208000392842
 30
0.0
 10
-1.645719765798505
 20
0.3191184635574392
 30
0.0
  0
SPLINE
  5
9A
330
1F
100
AcDbEntity
  8
0
  6
Continuous
 62
     7
370
    35
100
AcDbSpline
210
0.0
220
0.0
230
1.0
 70
     8
 71
     3
 72
    23
 73
    19
 74
     0
 42
0.000000001
 43
0.00000001
 40
0.0
 40
0.0
 40
0.0
 40
0.0
 40
0.0777829363133478
 40
0.1518156572691086
 40
0.2225398385800618
 40
0.2902775346822925
 40
0.3546406074863795
 40
0.4157977534850326
 40
0.4747090076698649
 40
0.5304260996200411
 40
0.5855797458252647
 40
0.6409061648040307
 40
0.6979010906656712
 40
0.7554203208806041
 40
0.8145212584872887
 40
0.8744618312159049
 40
0.9366697167404222
 40
1.0
 40
1.0
 40
1.0
 40
1.0
 10
-1.515542979002625
 20
0.272772656723197
 30
0.0
 10
-1.516778986926765
 20
0.271579329876235
 30
0.0
 10
-1.519191410065913
 20
0.269250211072098
 30
0.0
 10
-1.522830483399797
 20
0.2659430797101797
 30
0.0
 10
-1.526464976815949
 20
0.26297125454213
 30
0.0
 10
-1.530007088524973
 20
0.2602268713390555
 30
0.0
 10
-1.533514842010956
 20
0.2577898806491682
 30
0.0
 10
-1.536987865282448
 20
0.2556578486209125
 30
0.0
 10
-1.540386842197899
 20
0.2537768530802963
 30
0.0
 10
-1.543782353601953
 20
0.2521786160944609
 30
0.0
 10
-1.547195528119067
 20
0.2508215469011962
 30
0.0
 10
-1.550707283594612
 20
0.249653199398803
 30
0.0
 10
-1.554328355795501
 20
0.2486648194430039
 30
0.0
 10
-1.558080860578387
 20
0.2478673266249576
 30
0.0
 10
-1.561929796865258
 20
0.2472278450463245
 30
0.0
 10
-1.565911185585823
 20
0.2467961986795214
 30
0.0
 10
-1.569999782769476
 20
0.2465060171881298
 30
0.0
 10
-1.572773141581713
 20
0.2464799419764101
 30
0.0
 10
-1.574172218857258
 20
0.2464667878053697
 30
0.0
  0
SPLINE
  5
9C
330
1F
100
AcDbEntity
  8
0
  6
Continuous
 62
     7
370
    35
100
AcDbSpline
210
0.0
220
0.0
230
1.0
 70
     8
 71
     3
 72
    19
 73
    15
 74
     0
 42
0.000000001
 43
0.00000001
 40
0.0
 40
0.0
 40
0.0
 40
0.0
 40
0.1170484290483421
 40
0.2299697259035136
 40
0.3407035076587666
 40
0.4493551469115576
 40
0.5055565115208216
 40
0.5653026697757534
 40
0.6282049564766
 40
0.6947289918311275
 40
0.7650188336519144
 40
0.8395802021957286
 40
0.9177497995909478
 40
1.0
 40
1.0
 40
1.0
 40
1.0
 10
-1.57428263173834
 20
0.271199273167776
 30
0.0
 10
-1.572439489339374
 20
0.2712525866270013
 30
0.0
 10
-1.568818193814624
 20
0.2713573337107907
 30
0.0
 10
-1.563503421935985
 20
0.2721764410736001
 30
0.0
 10
-1.558438973816888
 20
0.27352382633257
 30
0.0
 10
-1.554392504004556
 20
0.2751150100322668
 30
0.0
 10
-1.551222201789102
 20
0.2766863245928693
 30
0.0
 10
-1.548808697579358
 20
0.2781397131825292
 30
0.0
 10
-1.546312946118646
 20
0.2797654878932773
 30
0.0
 10
-1.543776399704397
 20
0.2816250072233022
 30
0.0
 10
-1.541170527221232
 20
0.2836959561949793
 30
0.0
 10
-1.538541328327168
 20
0.2860236924548623
 30
0.0
 10
-1.5358214950636
 20
0.2885315669871022
 30
0.0
 10
-1.534039759252873
 20
0.2903214863087273
 30
0.0
 10
-1.53312623031496
 20
0.2912392110841903
 30
0.0
  0
SPLINE
  5
9D
330
1F
100
AcDbEntity
  8
0
  6
Continuous
 62
     7
370
    35
100
AcDbSpline
210
0.0
220
0.0
230
1.0
 70
     8
 71
     3
 72
    31
 73
    27
 74
     0
 42
0.000000001
 43
0.00000001
 40
0.0
 40
0.0
 40
0.0
 40
0.0
 40
0.0459858533955716
 40
0.0906390618643956
 40
0.1344852733868696
 40
0.177331356125942
 40
0.219264832978246
 40
0.2607850023581457
 40
0.3023165723378496
 40
0.3434357294037516
 40
0.3841814737656313
 40
0.4243757389977431
 40
0.4641811219517818
 40
0.5040119825276095
 40
0.5438224623104064
 40
0.5838024645760231
 40
0.6244185350988855
 40
0.6655475595785368
 40
0.706674939653634
 40
0.7478269788975753
 40
0.7888951165570474
 40
0.8302193579728124
 40
0.8717069369478644
 40
0.913733853604737
 40
0.9565878279841886
 40
1.0
 40
1.0
 40
1.0
 40
1.0
 10
-1.620987280436099
 20
0.3191736699979802
 30
0.0
 10
-1.620974000683244
 20
0.3180229498458079
 30
0.0
 10
-1.620947826017524
 20
0.3157548567832718
 30
0.0
 10
-1.620661298012971
 20
0.3123997176566897
 30
0.0
 10
-1.620199920362101
 20
0.309144439511605
 30
0.0
 10
-1.619532192592533
 20
0.3059939532268806
 30
0.0
 10
-1.618697192452659
 20
0.3029455285628409
 30
0.0
 10
-1.617717547160143
 20
0.2999728669150556
 30
0.0
 10
-1.616488596551358
 20
0.2971170437741386
 30
0.0
 10
-1.615124442832883
 20
0.29434489060816
 30
0.0
 10
-1.613537947778535
 20
0.2917320490863371
 30
0.0
 10
-1.611827413440501
 20
0.2892404878485204
 30
0.0
 10
-1.609972618224509
 20
0.2868824202797954
 30
0.0
 10
-1.607961548512069
 20
0.2846674862324084
 30
0.0
 10
-1.605765900999846
 20
0.2826303001650098
 30
0.0
 10
-1.603442425052066
 20
0.280709601468583
 30
0.0
 10
-1.600951926844601
 20
0.2789534717372399
 30
0.0
 10
-1.59834614033673
 20
0.277317838961632
 30
0.0
 10
-1.595602554825948
 20
0.2758969508539049
 30
0.0
 10
-1.592795610148283
 20
0.2746099007341655
 30
0.0
 10
-1.589882747365069
 20
0.2735646246802705
 30
0.0
 10
-1.586899432330228
 20
0.2727220368219539
 30
0.0
 10
-1.583856326360212
 20
0.2720055416876897
 30
0.0
 10
-1.580723665052358
 20
0.2715643736137964
 30
0.0
 10
-1.577528604657088
 20
0.271230282195056
 30
0.0
 10
-1.575369280118994
 20
0.2712096540027745
 30
0.0
 10
-1.57428263173834
 20
0.271199273167776
 30
0.0
  0
SPLINE
  5
9E
330
1F
100
AcDbEntity
  8
0
  6
Continuous
 62
     7
370
    35
100
AcDbSpline
210
0.0
220
0.0
230
1.0
 70
     8
 71
     3
 72
    23
 73
    19
 74
     0
 42
0.000000001
 43
0.00000001
 40
0.0
 40
0.0
 40
0.0
 40
0.0
 40
0.0647145165408349
 40
0.1277069683294555
 40
0.1888821628171162
 40
0.2491582987223292
 40
0.3096610287488843
 40
0.3702248860571866
 40
0.4323322219725861
 40
0.4957818589938702
 40
0.5593040765204271
 40
0.621860558361525
 40
0.6833215373325053
 40
0.7445229747823335
 40
0.8060883712105101
 40
0.8689943146702055
 40
0.9334190568081361
 40
1.0
 40
1.0
 40
1.0
 40
1.0
 10
-1.574751886482939
 20
0.3665960024227732
 30
0.0
 10
-1.576345631727885
 20
0.3665518812946399
 30
0.0
 10
-1.579490712374405
 20
0.3664648131094105
 30
0.0
 10
-1.584108514931741
 20
0.3658265174337259
 30
0.0
 10
-1.588525681730622
 20
0.3647410678590889
 30
0.0
 10
-1.592757333432999
 20
0.363245117278673
 30
0.0
 10
-1.596791018222002
 20
0.3613094366257741
 30
0.0
 10
-1.600635193219122
 20
0.3589355240668524
 30
0.0
 10
-1.604280380770344
 20
0.356144819408558
 30
0.0
 10
-1.607678430059717
 20
0.3529517618851608
 30
0.0
 10
-1.610786846129668
 20
0.3494631065926181
 30
0.0
 10
-1.613533329651467
 20
0.3457407197177929
 30
0.0
 10
-1.615833950162677
 20
0.341793129040936
 30
0.0
 10
-1.617722031994248
 20
0.3376603128586512
 30
0.0
 10
-1.619192774754734
 20
0.3333231424520038
 30
0.0
 10
-1.620243069866767
 20
0.328784537775894
 30
0.0
 10
-1.620850532490765
 20
0.3240390937028939
 30
0.0
 10
-1.620941200358474
 20
0.3208131761817992
 30
0.0
 10
-1.620987280436099
 20
0.3191736699979802
 30
0.0
  0
SPLINE
  5
9F
330
1F
100
AcDbEntity
  8
0
  6
Continuous
 62
     7
370
    35
100
AcDbSpline
210
0.0
220
0.0
230
1.0
 70
     8
 71
     3
 72
    15
 73
    11
 74
     0
 42
0.000000001
 43
0.00000001
 40
0.0
 40
0.0
 40
0.0
 40
0.0
 40
0.139406438181744
 40
0.2723044483741623
 40
0.3995253362717581
 40
0.5228108782578232
 40
0.6426627165918706
 40
0.7610226208095245
 40
0.8798007967838058
 40
1.0
 40
1.0
 40
1.0
 40
1.0
 10
-1.533126230314961
 20
0.346556064506359
 30
0.0
 10
-1.534664615539074
 20
0.3481467574064741
 30
0.0
 10
-1.537669563842055
 20
0.3512538789881469
 30
0.0
 10
-1.542511666399762
 20
0.355367434141151
 30
0.0
 10
-1.547547276756701
 20
0.3587955257766766
 30
0.0
 10
-1.552678437164808
 20
0.3616826427263415
 30
0.0
 10
-1.557997442325219
 20
0.3638669524632974
 30
0.0
 10
-1.563442790054042
 20
0.3654586957616991
 30
0.0
 10
-1.569049250498234
 20
0.3664291214873571
 30
0.0
 10
-1.572843487285529
 20
0.3665401553646644
 30
0.0
 10
-1.574751886482939
 20
0.3665960024227732
 30
0.0
  0
SPLINE
  5
A1
330
1F
100
AcDbEntity
  8
0
  6
Continuous
 62
     7
370
    35
100
AcDbSpline
210
0.0
220
0.0
230
1.0
 70
     8
 71
     3
 72
    23
 73
    19
 74
     0
 42
0.000000001
 43
0.00000001
 40
0.0
 40
0.0
 40
0.0
 40
0.0
 40
0.062275778370768
 40
0.1239040620075176
 40
0.1850672407687259
 40
0.2468401515202061
 40
0.3084353298497759
 40
0.3702412507091085
 40
0.432586588879853
 40
0.4959245816612403
 40
0.559351070950923
 40
0.6219426542010882
 40
0.6843928672351822
 40
0.7469858082645215
 40
0.809441464531699
 40
0.8725078327139367
 40
0.9357692970662254
 40
1.0
 40
1.0
 40
1.0
 40
1.0
 10
-1.573785773773471
 20
0.3913284877851795
 30
0.0
 10
-1.57239571541778
 20
0.3913076650278521
 30
0.0
 10
-1.569630051443704
 20
0.391266236011907
 30
0.0
 10
-1.565511513688808
 20
0.3909208800873036
 30
0.0
 10
-1.561425914070648
 20
0.3903785021010991
 30
0.0
 10
-1.557387880289596
 20
0.3895601692243004
 30
0.0
 10
-1.553368528200091
 20
0.3885887046871597
 30
0.0
 10
-1.549420676592534
 20
0.3873167058773655
 30
0.0
 10
-1.545482045973056
 20
0.3858988234943347
 30
0.0
 10
-1.541614407913705
 20
0.3842040346197044
 30
0.0
 10
-1.537812363758833
 20
0.3823540194752451
 30
0.0
 10
-1.534164982381066
 20
0.3802551101090046
 30
0.0
 10
-1.530611024584332
 20
0.3780364710594306
 30
0.0
 10
-1.527229243939651
 20
0.375566793546651
 30
0.0
 10
-1.523956292413524
 20
0.3729356573660321
 30
0.0
 10
-1.520809284555727
 20
0.3701307867900125
 30
0.0
 10
-1.517815837200371
 20
0.3671054163913687
 30
0.0
 10
-1.515937315849846
 20
0.3649678136144228
 30
0.0
 10
-1.514990914597213
 20
0.3638908868362598
 30
0.0
  0
SPLINE
  5
A2
330
1F
100
AcDbEntity
  8
0
  6
Continuous
 62
     7
370
    35
100
AcDbSpline
210
0.0
220
0.0
230
1.0
 70
     8
 71
     3
 72
    31
 73
    27
 74
     0
 42
0.000000001
 43
0.00000001
 40
0.0
 40
0.0
 40
0.0
 40
0.0
 40
0.0446633309063706
 40
0.0885118057801451
 40
0.1309255913017769
 40
0.1729040372808869
 40
0.2140001199049668
 40
0.2549850203589829
 40
0.2952912763870587
 40
0.3357724419527885
 40
0.3761808205537697
 40
0.4161784084745201
 40
0.4563500514444726
 40
0.4965121666444158
 40
0.5370405736377805
 40
0.5781187440077621
 40
0.6197245605548117
 40
0.6624219701988817
 40
0.705298953520902
 40
0.747430000533911
 40
0.7894329840393828
 40
0.8312674212030606
 40
0.8728250959642285
 40
0.914870110484391
 40
0.9570270028394989
 40
0.9999999999999999
 40
0.9999999999999999
 40
0.9999999999999999
 40
0.9999999999999999
 10
-1.645719765798505
 20
0.3191184635574392
 30
0.0
 10
-1.645697068617878
 20
0.3208126375411186
 30
0.0
 10
-1.645652088353249
 20
0.3241700763070624
 30
0.0
 10
-1.645179341606311
 20
0.3291158556198699
 30
0.0
 10
-1.644520305152245
 20
0.3339371057850625
 30
0.0
 10
-1.643474803744613
 20
0.3385837662498614
 30
0.0
 10
-1.642214554913919
 20
0.3431184361006633
 30
0.0
 10
-1.640647269915162
 20
0.3474918287720871
 30
0.0
 10
-1.63877545191901
 20
0.3517165138350511
 30
0.0
 10
-1.636659434027368
 20
0.3557995636662417
 30
0.0
 10
-1.634265604157066
 20
0.3597142299144067
 30
0.0
 10
-1.63159143339849
 20
0.3634268794269336
 30
0.0
 10
-1.628705765334778
 20
0.3669661731745377
 30
0.0
 10
-1.625539262063501
 20
0.3702851558554197
 30
0.0
 10
-1.622137937025948
 20
0.3734129687827509
 30
0.0
 10
-1.618486433629412
 20
0.3763326617390833
 30
0.0
 10
-1.614606713842847
 20
0.3790861064153438
 30
0.0
 10
-1.6104882767074
 20
0.3816022981561619
 30
0.0
 10
-1.606211132482702
 20
0.3838783273265505
 30
0.0
 10
-1.601829227213197
 20
0.3858858822619834
 30
0.0
 10
-1.597353326731732
 20
0.3875637358818202
 30
0.0
 10
-1.592802355551044
 20
0.3889554535667935
 30
0.0
 10
-1.58815708587623
 20
0.3899942724127684
 30
0.0
 10
-1.583450674460037
 20
0.3907806247664904
 30
0.0
 10
-1.578643075392829
 20
0.3912202007598624
 30
0.0
 10
-1.575415189113845
 20
0.3912921621554285
 30
0.0
 10
-1.573785773773471
 20
0.3913284877851795
 30
0.0
  0
CIRCLE
  5
AD
330
1F
100
AcDbEntity
  8
0
  6
Continuous
 62
     7
370
    35
100
AcDbCircle
 10
-1.1675
 20
9.6025
 30
0.0
 40
0.0499999999999998
  0
CIRCLE
  5
AE
330
1F
100
AcDbEntity
  8
0
  6
Continuous
 62
     7
370
    35
100
AcDbCircle
 10
-1.7925
 20
9.6025
 30
0.0
 40
0.049999999999998
  0
CIRCLE
  5
AF
330
1F
100
AcDbEntity
  8
0
  6
Continuous
 62
     7
370
    35
100
AcDbCircle
 10
-14.1675
 20
9.6025
 30
0.0
 40
0.0500000000000007
  0
CIRCLE
  5
B0
330
1F
100
AcDbEntity
  8
0
  6
Continuous
 62
     7
370
    35
100
AcDbCircle
 10
-14.7925
 20
9.6025
 30
0.0
 40
0.0499999999999989
  0
CIRCLE
  5
B1
330
1F
100
AcDbEntity
  8
0
  6
Continuous
 62
     7
370
    35
100
AcDbCircle
 10
-2.5325
 20
0.809
 30
0.0
 40
0.2500000000000009
  0
CIRCLE
  5
B2
330
1F
100
AcDbEntity
  8
0
  6
Continuous
 62
     7
370
    35
100
AcDbCircle
 10
-13.4275
 20
0.809
 30
0.0
 40
0.2499999999999964
  0
CIRCLE
  5
B3
330
1F
100
AcDbEntity
  8
0
  6
Continuous
 62
     7
370
    35
100
AcDbCircle
 10
-1.8238385827
 20
0.809
 30
0.0
 40
0.075
  0
CIRCLE
  5
B4
330
1F
100
AcDbEntity
  8
0
  6
Continuous
 62
     7
370
    35
100
AcDbCircle
 10
-2.9458385827
 20
0.809
 30
0.0
 40
0.0750000000000015
  0
CIRCLE
  5
B5
330
1F
100
AcDbEntity
  8
0
  6
Continuous
 62
     7
370
    35
100
AcDbCircle
 10
-13.0141614173
 20
0.809
 30
0.0
 40
0.0750000000000011
  0
CIRCLE
  5
B6
330
1F
100
AcDbEntity
  8
0
  6
Continuous
 62
     7
370
    35
100
AcDbCircle
 10
-14.1361614173
 20
0.809
 30
0.0
 40
0.0749999999999993
  0
CIRCLE
  5
B7
330
1F
100
AcDbEntity
  8
0
  6
Continuous
 62
     7
370
    35
100
AcDbCircle
 10
-1.76125
 20
8.0606711393
 30
0.0
 40
0.0750000000000011
  0
CIRCLE
  5
B8
330
1F
100
AcDbEntity
  8
0
  6
Continuous
 62
     7
370
    35
100
AcDbCircle
 10
-1.19875
 20
8.0606711393
 30
0.0
 40
0.0750000000000013
  0
CIRCLE
  5
B9
330
1F
100
AcDbEntity
  8
0
  6
Continuous
 62
     7
370
    35
100
AcDbCircle
 10
-6.13625
 20
1.75
 30
0.0
 40
0.1249999999999991
  0
CIRCLE
  5
BA
330
1F
100
AcDbEntity
  8
0
  6
Continuous
 62
     7
370
    35
100
AcDbCircle
 10
-9.82375
 20
1.75
 30
0.0
 40
0.1249999999999964
  0
CIRCLE
  5
BB
330
1F
100
AcDbEntity
  8
0
  6
Continuous
 62
     7
370
    35
100
AcDbCircle
 10
-0.48
 20
9.665
 30
0.0
 40
0.075
  0
CIRCLE
  5
BC
330
1F
100
AcDbEntity
  8
0
  6
Continuous
 62
     7
370
    35
100
AcDbCircle
 10
-3.48
 20
9.665
 30
0.0
 40
0.0750000000000006
  0
CIRCLE
  5
BD
330
1F
100
AcDbEntity
  8
0
  6
Continuous
 62
     7
370
    35
100
AcDbCircle
 10
-6.48
 20
9.665
 30
0.0
 40
0.0750000000000002
  0
CIRCLE
  5
BE
330
1F
100
AcDbEntity
  8
0
  6
Continuous
 62
     7
370
    35
100
AcDbCircle
 10
-9.48
 20
9.665
 30
0.0
 40
0.0750000000000028
  0
CIRCLE
  5
BF
330
1F
100
AcDbEntity
  8
0
  6
Continuous
 62
     7
370
    35
100
AcDbCircle
 10
-12.48
 20
9.665
 30
0.0
 40
0.0750000000000011
  0
CIRCLE
  5
C0
330
1F
100
AcDbEntity
  8
0
  6
Continuous
 62
     7
370
    35
100
AcDbCircle
 10
-15.48
 20
9.665
 30
0.0
 40
0.0750000000000028
  0
CIRCLE
  5
C1
330
1F
100
AcDbEntity
  8
0
  6
Continuous
 62
     7
370
    35
100
AcDbCircle
 10
-3.98
 20
3.0
 30
0.0
 40
0.0750000000000002
  0
CIRCLE
  5
C2
330
1F
100
AcDbEntity
  8
0
  6
Continuous
 62
     7
370
    35
100
AcDbCircle
 10
-11.98
 20
3.0
 30
0.0
 40
0.0749999999999975
  0
SPLINE
  5
CB
330
1F
100
AcDbEntity
  8
0
  6
Continuous
 62
     7
370
    35
100
AcDbSpline
210
0.0
220
0.0
230
1.0
 70
     8
 71
     3
 72
    23
 73
    19
 74
     0
 42
0.000000001
 43
0.00000001
 40
0.0
 40
0.0
 40
0.0
 40
0.0
 40
0.0664859378748782
 40
0.1307356009388766
 40
0.1932868395043463
 40
0.2552914267067077
 40
0.3165376028954671
 40
0.3788667103911648
 40
0.4418772064706726
 40
0.5071174914664498
 40
0.572271391920337
 40
0.6354271335389666
 40
0.6968172524575664
 40
0.757356633381484
 40
0.8172651168318802
 40
0.8771342994595146
 40
0.938019820316455
 40
1.0
 40
1.0
 40
1.0
 40
1.0
 10
-1.028953412073491
 20
0.2464667878053697
 30
0.0
 10
-1.030446589279525
 20
0.2464972498136978
 30
0.0
 10
-1.033382720220574
 20
0.2465571492314077
 30
0.0
 10
-1.037679014617656
 20
0.247227864842531
 30
0.0
 10
-1.04179953070363
 20
0.2482375336946599
 30
0.0
 10
-1.045721110512551
 20
0.2496791692731566
 30
0.0
 10
-1.049468141182613
 20
0.2515148187244434
 30
0.0
 10
-1.052996508186206
 20
0.2537862502953879
 30
0.0
 10
-1.05633593312123
 20
0.2564684161762938
 30
0.0
 10
-1.059450812840754
 20
0.259500971867678
 30
0.0
 10
-1.062257087336784
 20
0.2628227217089219
 30
0.0
 10
-1.064760049642311
 20
0.2662715628821223
 30
0.0
 10
-1.06687755898386
 20
0.2698529073845238
 30
0.0
 10
-1.068591633435561
 20
0.273562926073975
 30
0.0
 10
-1.069928994075449
 20
0.2773897968089293
 30
0.0
 10
-1.07085952431683
 20
0.281340782680619
 30
0.0
 10
-1.071465850645178
 20
0.2854054036990047
 30
0.0
 10
-1.071536928575459
 20
0.2881638855317757
 30
0.0
 10
-1.071572784171209
 20
0.2895554146476871
 30
0.0
  0
SPLINE
  5
CC
330
1F
100
AcDbEntity
  8
0
  6
Continuous
 62
     7
370
    35
100
AcDbSpline
210
0.0
220
0.0
230
1.0
 70
     8
 71
     3
 72
    23
 73
    19
 74
     0
 42
0.000000001
 43
0.00000001
 40
0.0
 40
0.0
 40
0.0
 40
0.0
 40
0.0656209271532228
 40
0.1297044336027832
 40
0.1920084100512053
 40
0.2531653825181653
 40
0.314590013796294
 40
0.3765327730011641
 40
0.4392867016490338
 40
0.5037985290657695
 40
0.5682839993040006
 40
0.6306288907425714
 40
0.6915128396476379
 40
0.7519975911628819
 40
0.8123768520713863
 40
0.8735768952802423
 40
0.9360266791627412
 40
1.0
 40
1.0
 40
1.0
 40
1.0
 10
-0.9867756915001014
 20
0.2893621921057933
 30
0.0
 10
-0.9868120171400777
 20
0.2878972842894749
 30
0.0
 10
-0.9868838173532533
 20
0.2850017897142122
 30
0.0
 10
-0.9874773411644532
 20
0.2807490445861904
 30
0.0
 10
-0.9884365068232662
 20
0.276668784338188
 30
0.0
 10
-0.9898073471587939
 20
0.2727691577564158
 30
0.0
 10
-0.9915497960887983
 20
0.2690311033557066
 30
0.0
 10
-0.9936806931049648
 20
0.2654568146608706
 30
0.0
 10
-0.9962177098598872
 20
0.2620730011585451
 30
0.0
 10
-0.9990952968594805
 20
0.2588976428096519
 30
0.0
 10
-1.00224099586471
 20
0.2560032801984436
 30
0.0
 10
-1.005556733952491
 20
0.2534306022612386
 30
0.0
 10
-1.009070608271946
 20
0.2513054726763641
 30
0.0
 10
-1.012716202484334
 20
0.2495107509226769
 30
0.0
 10
-1.016560634207459
 20
0.2481714997038468
 30
0.0
 10
-1.02054637133876
 20
0.2471605970376509
 30
0.0
 10
-1.024703638871023
 20
0.2465772623129349
 30
0.0
 10
-1.027525485557688
 20
0.2465039073106132
 30
0.0
 10
-1.028953412073491
 20
0.2464667878053697
 30
0.0
  0
SPLINE
  5
CD
330
1F
100
AcDbEntity
  8
0
  6
Continuous
 62
     7
370
    35
100
AcDbSpline
210
0.0
220
0.0
230
1.0
 70
     8
 71
     3
 72
    23
 73
    19
 74
     0
 42
0.000000001
 43
0.00000001
 40
0.0
 40
0.0
 40
0.0
 40
0.0
 40
0.0633287933601141
 40
0.1247364441626568
 40
0.1849157484558912
 40
0.2443004085890912
 40
0.3038255705821007
 40
0.3643529976730648
 40
0.426073143672396
 40
0.4897209088385826
 40
0.553755931535189
 40
0.6164580629276257
 40
0.6783188623542997
 40
0.7403009402150836
 40
0.8026562643773387
 40
0.8667321228001689
 40
0.9321567378801844
 40
1.0
 40
1.0
 40
1.0
 40
1.0
 10
-1.028318538007268
 20
0.3330304865737925
 30
0.0
 10
-1.026899766060856
 20
0.3329937538526533
 30
0.0
 10
-1.024105262040119
 20
0.3329214027343668
 30
0.0
 10
-1.019993716408022
 20
0.332336648898659
 30
0.0
 10
-1.016063002250862
 20
0.3313257497289811
 30
0.0
 10
-1.012273486345443
 20
0.3299858056140108
 30
0.0
 10
-1.008671491935925
 20
0.3281862473591929
 30
0.0
 10
-1.005199006896595
 20
0.3260455789329335
 30
0.0
 10
-1.00194586617042
 20
0.3234348035356229
 30
0.0
 10
-0.9988374780258765
 20
0.3205422029111707
 30
0.0
 10
-0.9960110366541824
 20
0.3173376171356667
 30
0.0
 10
-0.9935557726278089
 20
0.3138941879198873
 30
0.0
 10
-0.9914160533753938
 20
0.310295694317918
 30
0.0
 10
-0.9897527217399174
 20
0.3064616292968963
 30
0.0
 10
-0.9884110230540725
 20
0.3024555468453222
 30
0.0
 10
-0.9874429284083122
 20
0.298261432927788
 30
0.0
 10
-0.986890603326584
 20
0.2938671423165956
 30
0.0
 10
-0.9868144561015602
 20
0.2908819016505862
 30
0.0
 10
-0.9867756915001014
 20
0.2893621921057933
 30
0.0
  0
SPLINE
  5
D1
330
1F
100
AcDbEntity
  8
0
  6
Continuous
 62
     7
370
    35
100
AcDbSpline
210
0.0
220
0.0
230
1.0
 70
     8
 71
     3
 72
    19
 73
    15
 74
     0
 42
0.000000001
 43
0.00000001
 40
0.0
 40
0.0
 40
0.0
 40
0.0
 40
0.0925378346593306
 40
0.1855907730267337
 40
0.2795524791599531
 40
0.3756022954876769
 40
0.4276167156194817
 40
0.4871168707665552
 40
0.5541989278073831
 40
0.6286239860240647
 40
0.7096875605186896
 40
0.7991807418287667
 40
0.8953573266116929
 40
0.9999999999999999
 40
0.9999999999999999
 40
0.9999999999999999
 40
0.9999999999999999
 10
-1.071572784171209
 20
0.2895554146476871
 30
0.0
 10
-1.071553838778691
 20
0.2906329911624074
 30
0.0
 10
-1.071515842535795
 20
0.2927941424266292
 30
0.0
 10
-1.07113400300923
 20
0.2960303490062765
 30
0.0
 10
-1.070553472807619
 20
0.299275050322504
 30
0.0
 10
-1.069880562293706
 20
0.3020130320366645
 30
0.0
 10
-1.06918766702853
 20
0.3043282821138729
 30
0.0
 10
-1.068490262623622
 20
0.3062876156905122
 30
0.0
 10
-1.067625983527118
 20
0.3084620475356122
 30
0.0
 10
-1.066637984494977
 20
0.3108571302648156
 30
0.0
 10
-1.065495196553713
 20
0.3134699826018008
 30
0.0
 10
-1.064203589424919
 20
0.316293482591663
 30
0.0
 10
-1.062759947579932
 20
0.3193490118975234
 30
0.0
 10
-1.061730432112431
 20
0.3214476873989657
 30
0.0
 10
-1.061193973349485
 20
0.3225412628709861
 30
0.0
  0
SPLINE
  5
D2
330
1F
100
AcDbEntity
  8
0
  6
Continuous
 62
     7
370
    35
100
AcDbSpline
210
0.0
220
0.0
230
1.0
 70
     8
 71
     3
 72
    15
 73
    11
 74
     0
 42
0.000000001
 43
0.00000001
 40
0.0
 40
0.0
 40
0.0
 40
0.0
 40
0.0821011604414497
 40
0.1738249811011238
 40
0.2789530937157281
 40
0.3966390953456035
 40
0.5273155915890556
 40
0.6712981430820324
 40
0.8287543799634279
 40
1.0
 40
1.0
 40
1.0
 40
1.0
 10
-1.199955361649505
 20
0.3603300714213597
 30
0.0
 10
-1.200392794463753
 20
0.3605512937390191
 30
0.0
 10
-1.201318929371723
 20
0.3610196667191273
 30
0.0
 10
-1.202896226910266
 20
0.3615641845540987
 30
0.0
 10
-1.204716404183587
 20
0.362023545331901
 30
0.0
 10
-1.206791749440167
 20
0.3624048103424857
 30
0.0
 10
-1.209113983530153
 20
0.3627007115858094
 30
0.0
 10
-1.21168269213058
 20
0.3629270020131589
 30
0.0
 10
-1.214501655335833
 20
0.3630180022083837
 30
0.0
 10
-1.216462075573377
 20
0.3630474491121912
 30
0.0
 10
-1.2174834065213
 20
0.3630627902281437
 30
0.0
  0
SPLINE
  5
D3
330
1F
100
AcDbEntity
  8
0
  6
Continuous
 62
     7
370
    35
100
AcDbSpline
210
0.0
220
0.0
230
1.0
 70
     8
 71
     3
 72
    15
 73
    11
 74
     0
 42
0.000000001
 43
0.00000001
 40
0.0
 40
0.0
 40
0.0
 40
0.0
 40
0.137787684851019
 40
0.2673412375379242
 40
0.3904443306690757
 40
0.5117778827581065
 40
0.6295089809480997
 40
0.7478290655177343
 40
0.8718853097298866
 40
1.0
 40
1.0
 40
1.0
 40
1.0
 10
-1.193468604885927
 20
0.3486815124671907
 30
0.0
 10
-1.193490352131758
 20
0.3493268952060268
 30
0.0
 10
-1.193532547017459
 20
0.3505790928917089
 30
0.0
 10
-1.19384252213769
 20
0.3523863247455796
 30
0.0
 10
-1.194336533311855
 20
0.3540710376484382
 30
0.0
 10
-1.195052336512667
 20
0.3556156370044968
 30
0.0
 10
-1.195977700557687
 20
0.3570174982928918
 30
0.0
 10
-1.197105906590554
 20
0.358276069271627
 30
0.0
 10
-1.198422477513043
 20
0.3594183033018395
 30
0.0
 10
-1.199438947239966
 20
0.360022905221463
 30
0.0
 10
-1.199955361649505
 20
0.3603300714213597
 30
0.0
  0
SPLINE
  5
D7
330
1F
100
AcDbEntity
  8
0
  6
Continuous
 62
     7
370
    35
100
AcDbSpline
210
0.0
220
0.0
230
1.0
 70
     8
 71
     3
 72
    19
 73
    15
 74
     0
 42
0.000000001
 43
0.00000001
 40
0.0
 40
0.0
 40
0.0
 40
0.0
 40
0.1551595916613925
 40
0.2854959537028914
 40
0.390502805529867
 40
0.4709750446262405
 40
0.5384455267337449
 40
0.6036553403941742
 40
0.6665871693156294
 40
0.7301989498864826
 40
0.7949446749029747
 40
0.860228436589803
 40
0.9281207061405509
 40
0.9999999999999999
 40
0.9999999999999999
 40
0.9999999999999999
 40
0.9999999999999999
 10
-1.216517293811832
 20
0.3347970926711073
 30
0.0
 10
-1.214925052986457
 20
0.3348071887137318
 30
0.0
 10
-1.211995306213488
 20
0.3348257655821475
 30
0.0
 10
-1.207994306709637
 20
0.335094397899288
 30
0.0
 10
-1.204779026547462
 20
0.3355046537086714
 30
0.0
 10
-1.202238895511543
 20
0.3360930554167754
 30
0.0
 10
-1.200233221466408
 20
0.3369860329222194
 30
0.0
 10
-1.198503453171238
 20
0.3380190397386719
 30
0.0
 10
-1.197019786744175
 20
0.3393252485005463
 30
0.0
 10
-1.195735149991574
 20
0.3408178155094267
 30
0.0
 10
-1.194708121623272
 20
0.3425328498115924
 30
0.0
 10
-1.193995930942892
 20
0.3444424254022172
 30
0.0
 10
-1.193533305879362
 20
0.3465064200536851
 30
0.0
 10
-1.193490578157286
 20
0.3479428237192277
 30
0.0
 10
-1.193468604885927
 20
0.3486815124671907
 30
0.0
  0
SPLINE
  5
DB
330
1F
100
AcDbEntity
  8
0
  6
Continuous
 62
     7
370
    35
100
AcDbSpline
210
0.0
220
0.0
230
1.0
 70
     8
 71
     3
 72
    15
 73
    11
 74
     0
 42
0.000000001
 43
0.00000001
 40
0.0
 40
0.0
 40
0.0
 40
0.0
 40
0.1354037467141849
 40
0.26222516545165
 40
0.385849067756257
 40
0.5108573636088614
 40
0.63497746476353
 40
0.7532990766584831
 40
0.873932040939568
 40
1.0
 40
1.0
 40
1.0
 40
1.0
 10
-1.011508176862507
 20
0.2907699563395912
 30
0.0
 10
-1.011572878334711
 20
0.2921000887914631
 30
0.0
 10
-1.011698180290272
 20
0.2946760455927244
 30
0.0
 10
-1.012639346456938
 20
0.2983806918564976
 30
0.0
 10
-1.0143197350947
 20
0.3016899948165195
 30
0.0
 10
-1.016551857298589
 20
0.3046130273037183
 30
0.0
 10
-1.019251322467351
 20
0.3070491080028427
 30
0.0
 10
-1.022382448079284
 20
0.3088019401119477
 30
0.0
 10
-1.025835242019118
 20
0.3099016789926087
 30
0.0
 10
-1.02826422757251
 20
0.3100095060348216
 30
0.0
 10
-1.029505476478902
 20
0.310064607308701
 30
0.0
  0
SPLINE
  5
DC
330
1F
100
AcDbEntity
  8
0
  6
Continuous
 62
     7
370
    35
100
AcDbSpline
210
0.0
220
0.0
230
1.0
 70
     8
 71
     3
 72
    15
 73
    11
 74
     0
 42
0.000000001
 43
0.00000001
 40
0.0
 40
0.0
 40
0.0
 40
0.0
 40
0.1211522424913118
 40
0.2376005895733855
 40
0.3560524880869234
 40
0.4805249744886028
 40
0.6076386115432804
 40
0.733429928378994
 40
0.8621816073824753
 40
1.0
 40
1.0
 40
1.0
 40
1.0
 10
-1.02942266681809
 20
0.271199273167776
 30
0.0
 10
-1.028228145527694
 20
0.2712690977347612
 30
0.0
 10
-1.02588548180955
 20
0.2714060358379387
 30
0.0
 10
-1.022506035754389
 20
0.2724721500394579
 30
0.0
 10
-1.019418891506574
 20
0.2742534311165064
 30
0.0
 10
-1.01668925883379
 20
0.2766952363874967
 30
0.0
 10
-1.014344556239812
 20
0.2796126681617503
 30
0.0
 10
-1.012722258882199
 20
0.2830301736873405
 30
0.0
 10
-1.011674829568717
 20
0.2867795233738762
 30
0.0
 10
-1.011564973260344
 20
0.2894099891154556
 30
0.0
 10
-1.011508176862507
 20
0.2907699563395912
 30
0.0
  0
SPLINE
  5
DD
330
1F
100
AcDbEntity
  8
0
  6
Continuous
 62
     7
370
    35
100
AcDbSpline
210
0.0
220
0.0
230
1.0
 70
     8
 71
     3
 72
    15
 73
    11
 74
     0
 42
0.000000001
 43
0.00000001
 40
0.0
 40
0.0
 40
0.0
 40
0.0
 40
0.122718051503971
 40
0.24014311804503
 40
0.3573623765102144
 40
0.4816738524649457
 40
0.6078658287995977
 40
0.7329554806750177
 40
0.8621444613629464
 40
1.0
 40
1.0
 40
1.0
 40
1.0
 10
-1.029505476478902
 20
0.310064607308701
 30
0.0
 10
-1.030692216401612
 20
0.3100101740559221
 30
0.0
 10
-1.033014510651362
 20
0.3099036553254877
 30
0.0
 10
-1.03631646577391
 20
0.3087881393251526
 30
0.0
 10
-1.039327099679033
 20
0.307038172354611
 30
0.0
 10
-1.04193675438341
 20
0.3046010049177996
 30
0.0
 10
-1.044119490421749
 20
0.3016884941268606
 30
0.0
 10
-1.045723441445922
 20
0.2983663865372816
 30
0.0
 10
-1.046688307131914
 20
0.2946790147629114
 30
0.0
 10
-1.046788550496907
 20
0.292100865891007
 30
0.0
 10
-1.046840298808803
 20
0.2907699563395912
 30
0.0
  0
SPLINE
  5
DE
330
1F
100
AcDbEntity
  8
0
  6
Continuous
 62
     7
370
    35
100
AcDbSpline
210
0.0
220
0.0
230
1.0
 70
     8
 71
     3
 72
    15
 73
    11
 74
     0
 42
0.000000001
 43
0.00000001
 40
0.0
 40
0.0
 40
0.0
 40
0.0
 40
0.1372849921823504
 40
0.2670284865720544
 40
0.3949256401701784
 40
0.5243347615083416
 40
0.6508125264301005
 40
0.769267467045502
 40
0.8834346835668854
 40
0.9999999999999999
 40
0.9999999999999999
 40
0.9999999999999999
 40
0.9999999999999999
 10
-1.046840298808803
 20
0.2907699563395912
 30
0.0
 10
-1.046779027186602
 20
0.289438603591128
 30
0.0
 10
-1.046659849785736
 20
0.2868490335014606
 30
0.0
 10
-1.045658703889514
 20
0.283126551364464
 30
0.0
 10
-1.044019517418634
 20
0.2797290025659337
 30
0.0
 10
-1.041720662916355
 20
0.2767778946778616
 30
0.0
 10
-1.03902184077365
 20
0.2743282466552946
 30
0.0
 10
-1.036029167123188
 20
0.2725166148064149
 30
0.0
 10
-1.032792560836792
 20
0.2714036699149573
 30
0.0
 10
-1.030553721223778
 20
0.271267875871637
 30
0.0
 10
-1.02942266681809
 20
0.271199273167776
 30
0.0
  0
SPLINE
  5
DF
330
1F
100
AcDbEntity
  8
0
  6
Continuous
 62
     7
370
    35
100
AcDbSpline
210
0.0
220
0.0
230
1.0
 70
     8
 71
     3
 72
    23
 73
    19
 74
     0
 42
0.000000001
 43
0.00000001
 40
0.0
 40
0.0
 40
0.0
 40
0.0
 40
0.1121147956622142
 40
0.2158018426882336
 40
0.3102026923156549
 40
0.3959929252987143
 40
0.4734102307422342
 40
0.5427784203605518
 40
0.6045480222829318
 40
0.6593572656120957
 40
0.7087643617117441
 40
0.7553555059484812
 40
0.7986869938006715
 40
0.8400168391480748
 40
0.8802034470065464
 40
0.9197333482458341
 40
0.9590486059010165
 40
1.0
 40
1.0
 40
1.0
 40
1.0
 10
-0.900211992731678
 20
0.3188424313547333
 30
0.0
 10
-0.9002210811461009
 20
0.3210143621233134
 30
0.0
 10
-0.9002385747923951
 20
0.3251949580855349
 30
0.0
 10
-0.9005595325458822
 20
0.3311966953839365
 30
0.0
 10
-0.9010064907415379
 20
0.3366782863292389
 30
0.0
 10
-0.9016602615525471
 20
0.3416274927571822
 30
0.0
 10
-0.9025014565294459
 20
0.3460563291761005
 30
0.0
 10
-0.9035382325135296
 20
0.3499645060663125
 30
0.0
 10
-0.9047605142750211
 20
0.3533597256931338
 30
0.0
 10
-0.906209994779758
 20
0.3562386025556505
 30
0.0
 10
-0.9078153844988712
 20
0.3586852529725493
 30
0.0
 10
-0.9095195546920298
 20
0.3607842892506156
 30
0.0
 10
-0.9113297112855323
 20
0.3625763934673457
 30
0.0
 10
-0.9132428271101648
 20
0.3640683096248893
 30
0.0
 10
-0.9153031818973418
 20
0.3652082454644509
 30
0.0
 10
-0.9174714201876275
 20
0.3660131344700764
 30
0.0
 10
-0.9197519870329861
 20
0.3665000653256845
 30
0.0
 10
-0.9213076564824426
 20
0.3665635917545104
 30
0.0
 10
-0.9221013464062187
 20
0.3665960024227732
 30
0.0
  0
SPLINE
  5
E0
330
1F
100
AcDbEntity
  8
0
  6
Continuous
 62
     7
370
    35
100
AcDbSpline
210
0.0
220
0.0
230
1.0
 70
     8
 71
     3
 72
    15
 73
    11
 74
     0
 42
0.000000001
 43
0.00000001
 40
0.0
 40
0.0
 40
0.0
 40
0.0
 40
0.0888707311225361
 40
0.1863547159714919
 40
0.2940776543961756
 40
0.4122365279576119
 40
0.5417781444209647
 40
0.6827026066315658
 40
0.8350963526041696
 40
1.0
 40
1.0
 40
1.0
 40
1.0
 10
-0.9070023849182317
 20
0.2806671777205721
 30
0.0
 10
-0.906445096999974
 20
0.2816864641403773
 30
0.0
 10
-0.9052765094300338
 20
0.283823825101146
 30
0.0
 10
-0.9039242178762009
 20
0.2874305420271737
 30
0.0
 10
-0.9027859342169571
 20
0.291498322611736
 30
0.0
 10
-0.9018062301163404
 20
0.2960398261742541
 30
0.0
 10
-0.9011361722750723
 20
0.301072964965
 30
0.0
 10
-0.9005591192795231
 20
0.3065658234154181
 30
0.0
 10
-0.900280792280529
 20
0.3125460613380284
 30
0.0
 10
-0.9002355208777947
 20
0.316689191744419
 30
0.0
 10
-0.900211992731678
 20
0.3188424313547333
 30
0.0
  0
SPLINE
  5
E1
330
1F
100
AcDbEntity
  8
0
  6
Continuous
 62
     7
370
    35
100
AcDbSpline
210
0.0
220
0.0
230
1.0
 70
     8
 71
     3
 72
    15
 73
    11
 74
     0
 42
0.000000001
 43
0.00000001
 40
0.0
 40
0.0
 40
0.0
 40
0.0
 40
0.1240354330026172
 40
0.2428459548115307
 40
0.3603416824496199
 40
0.4790424316556575
 40
0.5993341100427885
 40
0.7254884757708295
 40
0.8585494285274633
 40
1.0
 40
1.0
 40
1.0
 40
1.0
 10
-0.9221013464062187
 20
0.271199273167776
 30
0.0
 10
-0.9213261789508594
 20
0.2712221896280491
 30
0.0
 10
-0.9198084974603505
 20
0.2712670572077499
 30
0.0
 10
-0.9175953779504142
 20
0.271727616882377
 30
0.0
 10
-0.9155024948854276
 20
0.2724763868815959
 30
0.0
 10
-0.913536167332247
 20
0.2735355746132702
 30
0.0
 10
-0.911689362009777
 20
0.2748824938741333
 30
0.0
 10
-0.9099711049652458
 20
0.2765230635982552
 30
0.0
 10
-0.9083943549487971
 20
0.2784736364453096
 30
0.0
 10
-0.9074757332312886
 20
0.2799212499782593
 30
0.0
 10
-0.9070023849182317
 20
0.2806671777205721
 30
0.0
  0
SPLINE
  5
E2
330
1F
100
AcDbEntity
  8
0
  6
Continuous
 62
     7
370
    35
100
AcDbSpline
210
0.0
220
0.0
230
1.0
 70
     8
 71
     3
 72
    27
 73
    23
 74
     0
 42
0.000000001
 43
0.00000001
 40
0.0
 40
0.0
 40
0.0
 40
0.0
 40
0.0538337008959148
 40
0.1055426304091392
 40
0.1580541720958379
 40
0.2119873357804051
 40
0.2402068903290469
 40
0.2697935103595445
 40
0.3013430987966751
 40
0.3346080613711931
 40
0.3702844416648602
 40
0.4080888380149465
 40
0.4486813458099816
 40
0.4920692965602017
 40
0.5386641566662647
 40
0.5903710538753825
 40
0.6463877841547193
 40
0.707195375763123
 40
0.7729467746818399
 40
0.8436426012467376
 40
0.9193083570571432
 40
1.0
 40
1.0
 40
1.0
 40
1.0
 10
-0.9221013464062187
 20
0.3665960024227732
 30
0.0
 10
-0.9231835844026973
 20
0.3665447064933876
 30
0.0
 10
-0.9253053453623976
 20
0.3664441392422685
 30
0.0
 10
-0.9283841216081822
 20
0.3655904651665212
 30
0.0
 10
-0.9312872153790069
 20
0.3642719195280882
 30
0.0
 10
-0.9334955212721393
 20
0.362685256007772
 30
0.0
 10
-0.9351484162701538
 20
0.3611642487481012
 30
0.0
 10
-0.9363033058575142
 20
0.3597877866433811
 30
0.0
 10
-0.9374170148418274
 20
0.3582517541372925
 30
0.0
 10
-0.9384006987010938
 20
0.356486837979721
 30
0.0
 10
-0.9393295530416057
 20
0.3545564536950288
 30
0.0
 10
-0.940237323711158
 20
0.3524518384939548
 30
0.0
 10
-0.9409814572920607
 20
0.3501212984752425
 30
0.0
 10
-0.9417125488073951
 20
0.3476045230344654
 30
0.0
 10
-0.942353053191331
 20
0.3448319300173436
 30
0.0
 10
-0.9428896554490268
 20
0.3417808565349794
 30
0.0
 10
-0.9433690623985709
 20
0.3384314611761914
 30
0.0
 10
-0.9437034544632379
 20
0.3347815500826651
 30
0.0
 10
-0.9440152082174004
 20
0.3308349419610587
 30
0.0
 10
-0.9442386880717284
 20
0.3265828453003977
 30
0.0
 10
-0.9443321193893716
 20
0.3220264072251998
 30
0.0
 10
-0.9443618183623473
 20
0.31888845594118
 30
0.0
 10
-0.9443771451645468
 20
0.3172690477993128
 30
0.0
  0
SPLINE
  5
E3
330
1F
100
AcDbEntity
  8
0
  6
Continuous
 62
     7
370
    35
100
AcDbSpline
210
0.0
220
0.0
230
1.0
 70
     8
 71
     3
 72
    23
 73
    19
 74
     0
 42
0.000000001
 43
0.00000001
 40
0.0
 40
0.0
 40
0.0
 40
0.0
 40
0.1107342804863388
 40
0.2123411929916479
 40
0.305502125563483
 40
0.3898348410859877
 40
0.4666904579461287
 40
0.5352618542933015
 40
0.5967629138889622
 40
0.6510657189836191
 40
0.7010355511102168
 40
0.747860270907757
 40
0.7918333971357293
 40
0.8342840069087863
 40
0.875333889774617
 40
0.9160347492783137
 40
0.9576522807232385
 40
1.0
 40
1.0
 40
1.0
 40
1.0
 10
-0.9443771451645468
 20
0.3172690477993128
 30
0.0
 10
-0.944351919107879
 20
0.3151710262651287
 30
0.0
 10
-0.9443035462738838
 20
0.311147914419961
 30
0.0
 10
-0.9440501919770745
 20
0.3053625395021035
 30
0.0
 10
-0.9435423643155305
 20
0.3000973824743297
 30
0.0
 10
-0.9429107292369231
 20
0.2953167594184932
 30
0.0
 10
-0.9420235719761568
 20
0.2910516739552468
 30
0.0
 10
-0.9410028401205214
 20
0.2872617744195273
 30
0.0
 10
-0.9397423270383428
 20
0.2839953728293718
 30
0.0
 10
-0.9382855612925439
 20
0.2812052296696837
 30
0.0
 10
-0.9366721275904358
 20
0.2788316606809523
 30
0.0
 10
-0.9349206743317751
 20
0.2768141163502914
 30
0.0
 10
-0.9330908322242008
 20
0.2750670181465826
 30
0.0
 10
-0.9311254859464507
 20
0.2736478718048804
 30
0.0
 10
-0.9290293242244767
 20
0.2725603034665984
 30
0.0
 10
-0.9268198461544044
 20
0.2717780289920093
 30
0.0
 10
-0.9244956476441735
 20
0.2712991662078723
 30
0.0
 10
-0.9229040604639294
 20
0.2712327633344608
 30
0.0
 10
-0.9221013464062187
 20
0.271199273167776
 30
0.0
  0
LINE
  5
E4
330
1F
100
AcDbEntity
  8
0
  6
Continuous
 62
     7
370
    35
100
AcDbLine
 10
-0.8242479305
 20
0.25
 30
0.0
 11
-0.8242479305
 21
0.3648293963
 31
0.0
  0
LINE
  5
E5
330
1F
100
AcDbEntity
  8
0
  6
Continuous
 62
     7
370
    35
100
AcDbLine
 10
-0.7995154452
 20
0.25
 30
0.0
 11
-0.8242479305
 21
0.25
 31
0.0
  0
LINE
  5
E6
330
1F
100
AcDbEntity
  8
0
  6
Continuous
 62
     7
370
    35
100
AcDbLine
 10
-0.7995154452
 20
0.3877952756
 30
0.0
 11
-0.7995154452
 21
0.25
 31
0.0
  0
LINE
  5
E7
330
1F
100
AcDbEntity
  8
0
  6
Continuous
 62
     7
370
    35
100
AcDbLine
 10
-0.8377459053
 20
0.3877952756
 30
0.0
 11
-0.7995154452
 21
0.3877952756
 31
0.0
  0
LINE
  5
E8
330
1F
100
AcDbEntity
  8
0
  6
Continuous
 62
     7
370
    35
100
AcDbLine
 10
-0.8525136281
 20
0.3648293963
 30
0.0
 11
-0.8377459053
 21
0.3877952756
 31
0.0
  0
LINE
  5
E9
330
1F
100
AcDbEntity
  8
0
  6
Continuous
 62
     7
370
    35
100
AcDbLine
 10
-0.8242479305
 20
0.3648293963
 30
0.0
 11
-0.8525136281
 21
0.3648293963
 31
0.0
  0
LINE
  5
EA
330
1F
100
AcDbEntity
  8
0
  6
Continuous
 62
     7
370
    35
100
AcDbLine
 10
-1.0963052695
 20
0.3118312134
 30
0.0
 11
-1.0963052695
 21
0.2888653341
 31
0.0
  0
LINE
  5
EB
330
1F
100
AcDbEntity
  8
0
  6
Continuous
 62
     7
370
    35
100
AcDbLine
 10
-1.1440036342
 20
0.3118312134
 30
0.0
 11
-1.0963052695
 21
0.3118312134
 31
0.0
  0
LINE
  5
EC
330
1F
100
AcDbEntity
  8
0
  6
Continuous
 62
     7
370
    35
100
AcDbLine
 10
-1.1440036342
 20
0.2888653341
 30
0.0
 11
-1.1440036342
 21
0.3118312134
 31
0.0
  0
LINE
  5
ED
330
1F
100
AcDbEntity
  8
0
  6
Continuous
 62
     7
370
    35
100
AcDbLine
 10
-1.0963052695
 20
0.2888653341
 30
0.0
 11
-1.1440036342
 21
0.2888653341
 31
0.0
  0
LINE
  5
EE
330
1F
100
AcDbEntity
  8
0
  6
Continuous
 62
     7
370
    35
100
AcDbLine
 10
-1.2252675146
 20
0.3100646073
 30
0.0
 11
-1.2252675146
 21
0.25
 31
0.0
  0
LINE
  5
EF
330
1F
100
AcDbEntity
  8
0
  6
Continuous
 62
     7
370
    35
100
AcDbLine
 10
-1.25
 20
0.3877952756
 30
0.0
 11
-1.2223967797
 21
0.3877952756
 31
0.0
  0
LINE
  5
F0
330
1F
100
AcDbEntity
  8
0
  6
Continuous
 62
     7
370
    35
100
AcDbLine
 10
-1.25
 20
0.25
 30
0.0
 11
-1.25
 21
0.3877952756
 31
0.0
  0
LINE
  5
F1
330
1F
100
AcDbEntity
  8
0
  6
Continuous
 62
     7
370
    35
100
AcDbLine
 10
-1.2252675146
 20
0.25
 30
0.0
 11
-1.25
 21
0.25
 31
0.0
  0
LINE
  5
F2
330
1F
100
AcDbEntity
  8
0
  6
Continuous
 62
     7
370
    35
100
AcDbLine
 10
-1.5008580658
 20
0.275809011
 30
0.0
 11
-1.4791067282
 21
0.2888653341
 31
0.0
  0
LINE
  5
F3
330
1F
100
AcDbEntity
  8
0
  6
Continuous
 62
     7
370
    35
100
AcDbLine
 10
-1.4195941853
 20
0.3693839277
 30
0.0
 11
-1.4380883429
 21
0.3524631536
 31
0.0
  0
LINE
  5
F4
330
1F
100
AcDbEntity
  8
0
  6
Continuous
 62
     7
370
    35
100
AcDbLine
 10
-1.5331262303
 20
0.2912392111
 30
0.0
 11
-1.515542979
 21
0.2727726567
 31
0.0
  0
LINE
  5
F5
330
1F
100
AcDbEntity
  8
0
  6
Continuous
 62
     7
370
    35
100
AcDbLine
 10
-1.5149909146
 20
0.3638908868
 30
0.0
 11
-1.5331262303
 21
0.3465560645
 31
0.0
  0
LINE
  5
F6
330
1F
100
AcDbEntity
  8
0
  6
Continuous
 62
     7
370
    35
100
AcDbLine
 10
-1.6598526146
 20
0.2747324854
 30
0.0
 11
-1.6598526146
 21
0.25
 31
0.0
  0
LINE
  5
F7
330
1F
100
AcDbEntity
  8
0
  6
Continuous
 62
     7
370
    35
100
AcDbLine
 10
-1.6987179487
 20
0.2747324854
 30
0.0
 11
-1.6598526146
 21
0.2747324854
 31
0.0
  0
LINE
  5
F8
330
1F
100
AcDbEntity
  8
0
  6
Continuous
 62
     7
370
    35
100
AcDbLine
 10
-1.6987179487
 20
0.3877952756
 30
0.0
 11
-1.6987179487
 21
0.2747324854
 31
0.0
  0
LINE
  5
F9
330
1F
100
AcDbEntity
  8
0
  6
Continuous
 62
     7
370
    35
100
AcDbLine
 10
-1.7234504341
 20
0.3877952756
 30
0.0
 11
-1.6987179487
 21
0.3877952756
 31
0.0
  0
LINE
  5
FA
330
1F
100
AcDbEntity
  8
0
  6
Continuous
 62
     7
370
    35
100
AcDbLine
 10
-1.7234504341
 20
0.25
 30
0.0
 11
-1.7234504341
 21
0.3877952756
 31
0.0
  0
LINE
  5
FB
330
1F
100
AcDbEntity
  8
0
  6
Continuous
 62
     7
370
    35
100
AcDbLine
 10
-1.6598526146
 20
0.25
 30
0.0
 11
-1.7234504341
 21
0.25
 31
0.0
  0
LINE
  5
FC
330
1F
100
AcDbEntity
  8
0
  6
Continuous
 62
     7
370
    35
100
AcDbLine
 10
0.0
 20
0.0
 30
0.0
 11
-15.96
 21
0.0
 31
0.0
  0
LINE
  5
FD
330
1F
100
AcDbEntity
  8
0
  6
Continuous
 62
     7
370
    35
100
AcDbLine
 10
-15.96
 20
0.0
 30
0.0
 11
-15.96
 21
9.915
 31
0.0
  0
LINE
  5
FE
330
1F
100
AcDbEntity
  8
0
  6
Continuous
 62
     7
370
    35
100
AcDbLine
 10
-15.96
 20
9.915
 30
0.0
 11
0.0
 21
9.915
 31
0.0
  0
LINE
  5
FF
330
1F
100
AcDbEntity
  8
0
  6
Continuous
 62
     7
370
    35
100
AcDbLine
 10
0.0
 20
9.915
 30
0.0
 11
0.0
 21
0.0
 31
0.0
  0
LINE
  5
100
330
1F
100
AcDbEntity
  8
0
  6
Continuous
 62
     7
370
    35
100
AcDbLine
 10
-1.3674793055
 20
0.2782656976
 30
0.0
 11
-1.3781893549
 21
0.25
 31
0.0
  0
LINE
  5
101
330
1F
100
AcDbEntity
  8
0
  6
Continuous
 62
     7
370
    35
100
AcDbLine
 10
-1.3074423014
 20
0.2782656976
 30
0.0
 11
-1.3674793055
 21
0.2782656976
 31
0.0
  0
LINE
  5
102
330
1F
100
AcDbEntity
  8
0
  6
Continuous
 62
     7
370
    35
100
AcDbLine
 10
-1.2967322519
 20
0.25
 30
0.0
 11
-1.3074423014
 21
0.2782656976
 31
0.0
  0
LINE
  5
103
330
1F
100
AcDbEntity
  8
0
  6
Continuous
 62
     7
370
    35
100
AcDbLine
 10
-1.2703159701
 20
0.25
 30
0.0
 11
-1.2967322519
 21
0.25
 31
0.0
  0
LINE
  5
104
330
1F
100
AcDbEntity
  8
0
  6
Continuous
 62
     7
370
    35
100
AcDbLine
 10
-1.3259640622
 20
0.3877952756
 30
0.0
 11
-1.2703159701
 21
0.25
 31
0.0
  0
LINE
  5
105
330
1F
100
AcDbEntity
  8
0
  6
Continuous
 62
     7
370
    35
100
AcDbLine
 10
-1.3489023382
 20
0.3877952756
 30
0.0
 11
-1.3259640622
 21
0.3877952756
 31
0.0
  0
LINE
  5
106
330
1F
100
AcDbEntity
  8
0
  6
Continuous
 62
     7
370
    35
100
AcDbLine
 10
-1.4045780335
 20
0.25
 30
0.0
 11
-1.3489023382
 21
0.3877952756
 31
0.0
  0
LINE
  5
107
330
1F
100
AcDbEntity
  8
0
  6
Continuous
 62
     7
370
    35
100
AcDbLine
 10
-1.3781893549
 20
0.25
 30
0.0
 11
-1.4045780335
 21
0.25
 31
0.0
  0
LINE
  5
108
330
1F
100
AcDbEntity
  8
0
  6
Continuous
 62
     7
370
    35
100
AcDbLine
 10
-1.0043037364
 20
0.3802319932
 30
0.0
 11
-1.028318538
 21
0.3330304866
 31
0.0
  0
LINE
  5
109
330
1F
100
AcDbEntity
  8
0
  6
Continuous
 62
     7
370
    35
100
AcDbLine
 10
-1.02619309
 20
0.3913284878
 30
0.0
 11
-1.0043037364
 21
0.3802319932
 31
0.0
  0
LINE
  5
10A
330
1F
100
AcDbEntity
  8
0
  6
Continuous
 62
     7
370
    35
100
AcDbLine
 10
-1.0611939733
 20
0.3225412629
 30
0.0
 11
-1.02619309
 21
0.3913284878
 31
0.0
  0
LINE
  5
10B
330
1F
100
AcDbEntity
  8
0
  6
Continuous
 62
     7
370
    35
100
AcDbLine
 10
-1.2252675146
 20
0.3347970927
 30
0.0
 11
-1.2165172938
 21
0.3347970927
 31
0.0
  0
LINE
  5
10C
330
1F
100
AcDbEntity
  8
0
  6
Continuous
 62
     7
370
    35
100
AcDbLine
 10
-1.2252675146
 20
0.3630627902
 30
0.0
 11
-1.2252675146
 21
0.3347970927
 31
0.0
  0
LINE
  5
10D
330
1F
100
AcDbEntity
  8
0
  6
Continuous
 62
     7
370
    35
100
AcDbLine
 10
-1.2174834065
 20
0.3630627902
 30
0.0
 11
-1.2252675146
 21
0.3630627902
 31
0.0
  0
LINE
  5
10E
330
1F
100
AcDbEntity
  8
0
  6
Continuous
 62
     7
370
    35
100
AcDbLine
 10
-1.3167997931
 20
0.3029981829
 30
0.0
 11
-1.3374470018
 21
0.3508345636
 31
0.0
  0
LINE
  5
10F
330
1F
100
AcDbEntity
  8
0
  6
Continuous
 62
     7
370
    35
100
AcDbLine
 10
-1.3374470018
 20
0.3508345636
 30
0.0
 11
-1.3580942106
 21
0.3029981829
 31
0.0
  0
LINE
  5
110
330
1F
100
AcDbEntity
  8
0
  6
Continuous
 62
     7
370
    35
100
AcDbLine
 10
-1.3580942106
 20
0.3029981829
 30
0.0
 11
-1.3167997931
 21
0.3029981829
 31
0.0
  0
MTEXT
  5
112
330
1F
100
AcDbEntity
  8
0
  6
Continuous
 62
     7
100
AcDbMText
 10
-15.96
 20
-0.0401404091
 30
0.0
 40
0.1903
 41
0.0
 71
     1
 72
     1
  1
SOLIDWORKS Educational Product.
  7
SLDTEXTSTYLE0
 73
     1
 44
1.0
  0
MTEXT
  5
113
330
1F
100
AcDbEntity
  8
0
  6
Continuous
 62
     7
100
AcDbMText
 10
-15.96
 20
-0.3255904091
 30
0.0
 40
0.1903
 41
0.0
 71
     1
 72
     1
  1
For Instructional Use Only.
  7
SLDTEXTSTYLE0
 73
     1
 44
1.0
  0
ENDSEC
  0
SECTION
  2
OBJECTS
  0
DICTIONARY
  5
C
330
0
100
AcDbDictionary
281
     1
  3
ACAD_GROUP
350
D
  3
ACAD_LAYOUT
350
1A
  3
ACAD_MLINESTYLE
350
17
  3
ACAD_PLOTSETTINGS
350
19
  3
ACAD_PLOTSTYLENAME
350
E
  3
ACAD_SCALELIST
350
47
  0
DICTIONARY
  5
D
102
{ACAD_REACTORS
330
C
102
}
330
C
100
AcDbDictionary
281
     1
  0
DICTIONARY
  5
1A
102
{ACAD_REACTORS
330
C
102
}
330
C
100
AcDbDictionary
281
     1
  3
Layout1
350
1E
  3
Layout2
350
26
  3
Model
350
22
  0
DICTIONARY
  5
17
102
{ACAD_REACTORS
330
C
102
}
330
C
100
AcDbDictionary
281
     1
  3
Standard
350
18
  0
DICTIONARY
  5
19
102
{ACAD_REACTORS
330
C
102
}
330
C
100
AcDbDictionary
281
     1
  0
ACDBDICTIONARYWDFLT
  5
E
102
{ACAD_REACTORS
330
C
102
}
330
C
100
AcDbDictionary
281
     1
  3
Normal
350
F
100
AcDbDictionaryWithDefault
340
F
  0
DICTIONARY
  5
47
102
{ACAD_REACTORS
330
C
102
}
330
C
100
AcDbDictionary
281
     1
  3
A0
350
48
  3
A1
350
49
  3
A2
350
4A
  3
A3
350
4B
  3
A4
350
4C
  3
A5
350
4D
  3
A6
350
4E
  3
A7
350
4F
  3
A8
350
50
  3
A9
350
51
  3
B0
350
52
  3
B1
350
53
  3
B2
350
54
  3
B3
350
55
  3
B4
350
56
  3
B5
350
57
  3
B6
350
58
  3
B7
350
59
  3
B8
350
5A
  3
B9
350
5B
  3
C0
350
5C
  3
C1
350
5D
  3
C2
350
5E
  3
C3
350
5F
  3
C4
350
60
  3
C5
350
61
  3
C6
350
62
  3
C7
350
63
  3
C8
350
64
  3
C9
350
65
  3
D0
350
66
  3
D1
350
67
  3
D2
350
68
  0
LAYOUT
  5
1E
102
{ACAD_REACTORS
330
1A
102
}
330
1A
100
AcDbPlotSettings
  1

  2
none_device
  4

  6

 40
0.0
 41
0.0
 42
0.0
 43
0.0
 44
0.0
 45
0.0
 46
0.0
 47
0.0
 48
0.0
 49
0.0
140
0.0
141
0.0
142
1.0
143
1.0
 70
   688
 72
     0
 73
     0
 74
     5
  7

 75
    16
147
1.0
148
0.0
149
0.0
100
AcDbLayout
  1
Layout1
 70
     1
 71
     1
 10
0.0
 20
0.0
 11
12.0
 21
9.0
 12
0.0
 22
0.0
 32
0.0
 14
1.0000000000E+20
 24
1.0000000000E+20
 34
1.0000000000E+20
 15
-1.0000000000E+20
 25
-1.0000000000E+20
 35
-1.0000000000E+20
146
0.0
 13
0.0
 23
0.0
 33
0.0
 16
1.0
 26
0.0
 36
0.0
 17
0.0
 27
1.0
 37
0.0
 76
     0
330
1B
  0
LAYOUT
  5
26
102
{ACAD_REACTORS
330
1A
102
}
330
1A
100
AcDbPlotSettings
  1

  2
none_device
  4

  6

 40
0.0
 41
0.0
 42
0.0
 43
0.0
 44
0.0
 45
0.0
 46
0.0
 47
0.0
 48
0.0
 49
0.0
140
0.0
141
0.0
142
1.0
143
1.0
 70
   688
 72
     0
 73
     0
 74
     5
  7

 75
    16
147
1.0
148
0.0
149
0.0
100
AcDbLayout
  1
Layout2
 70
     1
 71
     2
 10
0.0
 20
0.0
 11
0.0
 21
0.0
 12
0.0
 22
0.0
 32
0.0
 14
0.0
 24
0.0
 34
0.0
 15
0.0
 25
0.0
 35
0.0
146
0.0
 13
0.0
 23
0.0
 33
0.0
 16
1.0
 26
0.0
 36
0.0
 17
0.0
 27
1.0
 37
0.0
 76
     0
330
23
  0
LAYOUT
  5
22
102
{ACAD_REACTORS
330
1A
102
}
330
1A
100
AcDbPlotSettings
  1

  2
none_device
  4
ANSI_A_(11.00_x_8.50_Inches)
  6

 40
6.35
 41
19.05
 42
6.35000508
 43
19.05000254
 44
279.4
 45
215.9
 46
271.65299746
 47
2.9805598202
 48
0.0
 49
0.0
140
0.0
141
0.0
142
0.6823308271
143
1.0
 70
  1696
 72
     0
 73
     0
 74
     0
  7

 75
     0
147
0.5913241897
148
-39.4088153714
149
0.0
100
AcDbLayout
  1
Model
 70
     1
 71
     0
 10
0.0
 20
0.0
 11
12.0
 21
9.0
 12
0.0
 22
0.0
 32
0.0
 14
-15.96
 24
0.0
 34
0.0
 15
0.0
 25
9.915
 35
0.0
146
0.0
 13
0.0
 23
0.0
 33
0.0
 16
1.0
 26
0.0
 36
0.0
 17
0.0
 27
1.0
 37
0.0
 76
     0
330
1F
331
29
  0
MLINESTYLE
  5
18
102
{ACAD_REACTORS
330
17
102
}
330
17
100
AcDbMlineStyle
  2
Standard
 70
     0
  3

 62
   256
 51
90.0
 52
90.0
 71
     2
 49
0.5
 62
   256
  6
BYLAYER
 49
-0.5
 62
   256
  6
BYLAYER
  0
ACDBPLACEHOLDER
  5
F
102
{ACAD_REACTORS
330
E
102
}
330
E
  0
SCALE
  5
48
102
{ACAD_REACTORS
330
47
102
}
330
47
100
AcDbScale
 70
     0
300
1:1
140
1.0
141
1.0
290
     1
  0
SCALE
  5
49
102
{ACAD_REACTORS
330
47
102
}
330
47
100
AcDbScale
 70
     0
300
1:2
140
1.0
141
2.0
290
     0
  0
SCALE
  5
4A
102
{ACAD_REACTORS
330
47
102
}
330
47
100
AcDbScale
 70
     0
300
1:4
140
1.0
141
4.0
290
     0
  0
SCALE
  5
4B
102
{ACAD_REACTORS
330
47
102
}
330
47
100
AcDbScale
 70
     0
300
1:5
140
1.0
141
5.0
290
     0
  0
SCALE
  5
4C
102
{ACAD_REACTORS
330
47
102
}
330
47
100
AcDbScale
 70
     0
300
1:8
140
1.0
141
8.0
290
     0
  0
SCALE
  5
4D
102
{ACAD_REACTORS
330
47
102
}
330
47
100
AcDbScale
 70
     0
300
1:10
140
1.0
141
10.0
290
     0
  0
SCALE
  5
4E
102
{ACAD_REACTORS
330
47
102
}
330
47
100
AcDbScale
 70
     0
300
1:16
140
1.0
141
16.0
290
     0
  0
SCALE
  5
4F
102
{ACAD_REACTORS
330
47
102
}
330
47
100
AcDbScale
 70
     0
300
1:20
140
1.0
141
20.0
290
     0
  0
SCALE
  5
50
102
{ACAD_REACTORS
330
47
102
}
330
47
100
AcDbScale
 70
     0
300
1:30
140
1.0
141
30.0
290
     0
  0
SCALE
  5
51
102
{ACAD_REACTORS
330
47
102
}
330
47
100
AcDbScale
 70
     0
300
1:40
140
1.0
141
40.0
290
     0
  0
SCALE
  5
52
102
{ACAD_REACTORS
330
47
102
}
330
47
100
AcDbScale
 70
     0
300
1:50
140
1.0
141
50.0
290
     0
  0
SCALE
  5
53
102
{ACAD_REACTORS
330
47
102
}
330
47
100
AcDbScale
 70
     0
300
1:100
140
1.0
141
100.0
290
     0
  0
SCALE
  5
54
102
{ACAD_REACTORS
330
47
102
}
330
47
100
AcDbScale
 70
     0
300
2:1
140
2.0
141
1.0
290
     0
  0
SCALE
  5
55
102
{ACAD_REACTORS
330
47
102
}
330
47
100
AcDbScale
 70
     0
300
4:1
140
4.0
141
1.0
290
     0
  0
SCALE
  5
56
102
{ACAD_REACTORS
330
47
102
}
330
47
100
AcDbScale
 70
     0
300
8:1
140
8.0
141
1.0
290
     0
  0
SCALE
  5
57
102
{ACAD_REACTORS
330
47
102
}
330
47
100
AcDbScale
 70
     0
300
10:1
140
10.0
141
1.0
290
     0
  0
SCALE
  5
58
102
{ACAD_REACTORS
330
47
102
}
330
47
100
AcDbScale
 70
     0
300
100:1
140
100.0
141
1.0
290
     0
  0
SCALE
  5
59
102
{ACAD_REACTORS
330
47
102
}
330
47
100
AcDbScale
 70
     0
300
1/128" = 1'-0"
140
0.0078125
141
12.0
290
     0
  0
SCALE
  5
5A
102
{ACAD_REACTORS
330
47
102
}
330
47
100
AcDbScale
 70
     0
300
1/64" = 1'-0"
140
0.015625
141
12.0
290
     0
  0
SCALE
  5
5B
102
{ACAD_REACTORS
330
47
102
}
330
47
100
AcDbScale
 70
     0
300
1/32" = 1'-0"
140
0.03125
141
12.0
290
     0
  0
SCALE
  5
5C
102
{ACAD_REACTORS
330
47
102
}
330
47
100
AcDbScale
 70
     0
300
1/16" = 1'-0"
140
0.0625
141
12.0
290
     0
  0
SCALE
  5
5D
102
{ACAD_REACTORS
330
47
102
}
330
47
100
AcDbScale
 70
     0
300
3/32" = 1'-0"
140
0.09375
141
12.0
290
     0
  0
SCALE
  5
5E
102
{ACAD_REACTORS
330
47
102
}
330
47
100
AcDbScale
 70
     0
300
1/8" = 1'-0"
140
0.125
141
12.0
290
     0
  0
SCALE
  5
5F
102
{ACAD_REACTORS
330
47
102
}
330
47
100
AcDbScale
 70
     0
300
3/16" = 1'-0"
140
0.1875
141
12.0
290
     0
  0
SCALE
  5
60
102
{ACAD_REACTORS
330
47
102
}
330
47
100
AcDbScale
 70
     0
300
1/4" = 1'-0"
140
0.25
141
12.0
290
     0
  0
SCALE
  5
61
102
{ACAD_REACTORS
330
47
102
}
330
47
100
AcDbScale
 70
     0
300
3/8" = 1'-0"
140
0.375
141
12.0
290
     0
  0
SCALE
  5
62
102
{ACAD_REACTORS
330
47
102
}
330
47
100
AcDbScale
 70
     0
300
1/2" = 1'-0"
140
0.5
141
12.0
290
     0
  0
SCALE
  5
63
102
{ACAD_REACTORS
330
47
102
}
330
47
100
AcDbScale
 70
     0
300
3/4" = 1'-0"
140
0.75
141
12.0
290
     0
  0
SCALE
  5
64
102
{ACAD_REACTORS
330
47
102
}
330
47
100
AcDbScale
 70
     0
300
1" = 1'-0"
140
1.0
141
12.0
290
     0
  0
SCALE
  5
65
102
{ACAD_REACTORS
330
47
102
}
330
47
100
AcDbScale
 70
     0
300
1-1/2" = 1'-0"
140
1.5
141
12.0
290
     0
  0
SCALE
  5
66
102
{ACAD_REACTORS
330
47
102
}
330
47
100
AcDbScale
 70
     0
300
3" = 1'-0"
140
3.0
141
12.0
290
     0
  0
SCALE
  5
67
102
{ACAD_REACTORS
330
47
102
}
330
47
100
AcDbScale
 70
     0
300
6" = 1'-0"
140
6.0
141
12.0
290
     0
  0
SCALE
  5
68
102
{ACAD_REACTORS
330
47
102
}
330
47
100
AcDbScale
 70
     0
300
1'-0" = 1'-0"
140
12.0
141
12.0
290
     0
  0
ENDSEC
  0
EOF
